<svg width="150" height="150" viewBox="0 0 150 150" fill="none" xmlns="http://www.w3.org/2000/svg">
<path d="M121.688 37.4707L110.531 23.5254C108.062 20.4663 104.726 18.75 101.25 18.75H48.0938C44.625 18.75 41.2734 20.4785 38.8125 23.5254L27.6562 37.4707H0V112.383H15C19.125 112.383 22.4531 108.223 22.4766 103.096H24.6094L44.4375 125.479C51.6797 132.832 61.7344 133.008 69.1875 126.592C72.1172 129.756 75.2812 131.25 78.8203 131.25C83.0859 131.25 87.0938 129.082 90.2578 124.219C95.4375 126.768 101.555 124.98 105.258 119.297L111.398 109.834C112.711 107.812 113.531 105.498 113.953 103.096H127.523C127.547 108.223 130.898 112.383 135 112.383H150V37.4707H121.688ZM11.25 103.008C9.1875 103.008 7.5 100.898 7.5 98.3203C7.5 95.7422 9.1875 93.6328 11.25 93.6328C13.3125 93.6328 15 95.7422 15 98.3203C15 100.928 13.3125 103.008 11.25 103.008ZM102.656 100.986L96.5391 110.42C95.8828 111.416 94.7109 111.592 93.8906 110.771L88.2891 105.088L81.2578 115.781C79.8516 117.92 77.7422 117.188 77.0391 116.484L68.4141 107.256L64.7578 112.881C61.5 117.891 55.5703 118.652 51.7969 114.814L28.9922 89.0332H22.5V51.5039H32.3203L46.7812 33.457C47.25 33.2227 47.6484 33.0176 48.1172 32.7832H61.4062L52.3359 43.1836C45.4453 51.0645 45.0469 64.3652 51.3047 72.8613C54.7734 77.6074 65.6484 84.9316 75.0938 74.1504L77.0156 71.9531L102.375 97.6758C103.172 98.4961 103.289 99.9902 102.656 100.986ZM127.5 89.0332H111.281C110.742 88.2129 110.133 87.4512 109.477 86.7773L85.4062 62.3438L88.3359 59.0039C89.8594 57.2461 89.9766 54.2871 88.5703 52.3828L86.0156 48.9551C84.6094 47.0508 82.2422 46.9336 80.7188 48.6621L67.7812 63.4863C65.5547 66.0352 61.7578 66.2402 59.6719 63.4863C57.4922 60.5859 57.6797 56.1328 59.9531 53.5547L75.3281 35.9473C77.0625 33.9551 79.3125 32.8711 81.6562 32.8711L101.273 32.8125C101.766 32.8125 102.234 33.0469 102.562 33.4863L117.023 51.5332H127.5V89.0332ZM138.75 103.008C136.688 103.008 135 100.898 135 98.3203C135 95.7422 136.688 93.6328 138.75 93.6328C140.812 93.6328 142.5 95.7422 142.5 98.3203C142.5 100.928 140.812 103.008 138.75 103.008Z" fill="#585757"/>
</svg>
