<svg width="132" height="150" viewBox="0 0 132 150" fill="none" xmlns="http://www.w3.org/2000/svg">
<path d="M65.1989 0C61.7088 0 59.186 1.35472 58.1888 2.73709C57.6903 3.19788 57.2864 4.1471 56.7878 4.60789H50.2415C44.7571 4.60789 40.2699 8.75499 40.2699 13.8237H30.2983C21.8224 13.8237 15.3409 19.8139 15.3409 27.6474V105.982C15.3409 113.815 21.8224 119.805 30.2983 119.805H100.099C108.575 119.805 115.057 113.815 115.057 105.982V27.6474C115.057 19.8139 108.575 13.8237 100.099 13.8237H90.1278C90.1278 8.75499 85.6406 4.60789 80.1562 4.60789H73.6099C73.1113 4.1471 72.7125 3.19788 72.2139 2.73709C71.2117 1.35472 68.6889 0 65.1989 0ZM50.2415 13.8237H80.1562V23.0395H50.2415V13.8237ZM30.2983 27.6474H41.8304C43.3262 30.4121 46.7514 32.2552 50.2415 32.2552H80.1562C83.6463 32.2552 87.0715 30.4121 88.5723 27.6474H100.099V105.982H30.2983V27.6474ZM82.9633 49.2491C82.0259 49.2491 81.1185 49.5625 80.6199 50.2537L58.6575 71.8555L50.2415 64.5105C48.7457 63.1281 46.2528 63.1281 45.2557 64.5105L41.8255 67.6807C40.3297 69.0631 40.3297 71.367 41.8255 72.2886L55.6959 84.3797C57.6903 86.2229 60.7117 85.6469 62.706 83.8037L89.6592 57.1701C90.6563 56.2485 90.6912 54.3731 89.1955 52.9908L85.6057 50.2537C85.2589 49.9329 84.8469 49.6786 84.3934 49.5054C83.94 49.3322 83.4539 49.2436 82.9633 49.2445V49.2491Z" fill="#585757"/>
</svg>
