<svg width="150" height="150" viewBox="0 0 150 150" fill="none" xmlns="http://www.w3.org/2000/svg">
<path d="M100.781 11.7188V18.3094C96.9381 18.9693 93.2885 20.4708 90.0937 22.7062L85.2561 18.1594L78.8108 25.05L83.4983 29.4422C81.3539 32.5673 79.9041 36.1157 79.2468 39.8484H72.6562V49.2234H79.2468C79.9312 53.1141 81.4687 56.6578 83.6437 59.7703L78.6608 64.5984L85.4108 71.3484L90.239 66.3609C93.3515 68.5359 96.8952 70.0734 100.786 70.7578V77.3437H110.161V70.7531C113.893 70.0973 117.442 68.6492 120.567 66.5062L124.955 71.1937L131.845 64.7437L127.298 59.9156C129.501 56.775 131.001 53.1422 131.695 49.2187H138.281V39.8437H131.691C131.016 36.0483 129.515 32.4477 127.294 29.2969L131.691 24.9L125.095 18.3094L120.703 22.7062C117.552 20.4852 113.952 18.9841 110.156 18.3094V11.7188H100.781ZM105.469 27.2484C107.743 27.2335 109.997 27.6703 112.101 28.5335C114.205 29.3967 116.116 30.6691 117.724 32.2769C119.333 33.8846 120.606 35.7958 121.469 37.8994C122.333 40.003 122.77 42.2572 122.756 44.5312C122.756 54.1641 115.101 61.8187 105.469 61.8187C95.8358 61.8187 88.1812 54.1641 88.1812 44.5312C88.1812 34.8984 95.8358 27.2437 105.469 27.2437V27.2484ZM44.6718 54.9281L36.0374 58.4437L39.403 66.9281C34.9228 69.6092 31.1541 73.3297 28.4155 77.775L20.0718 74.4L16.5562 83.0484L24.8999 86.4141C24.2414 88.9497 23.8982 91.5569 23.878 94.1766C23.878 96.8484 24.2765 99.4547 24.8999 101.939L16.5562 105.314L20.0718 113.953L28.4155 110.578C31.1291 115.082 34.9007 118.855 39.403 121.57L36.028 129.914L44.6765 133.43L48.0515 125.086C50.5868 125.746 53.1942 126.089 55.814 126.108C58.4858 126.108 61.1015 125.709 63.5765 125.086L66.9515 133.43L75.5905 129.914L72.2155 121.57C76.664 118.836 80.3853 115.066 83.0624 110.583L91.5468 113.948L95.0624 105.309L86.578 101.934C87.1874 99.45 87.5999 96.8391 87.5999 94.1719C87.5999 91.5 87.1921 88.8844 86.5687 86.4047L95.0671 83.0391L91.5515 74.3906L83.0671 77.7656C80.3746 73.3317 76.6541 69.6112 72.2202 66.9187L75.5952 58.4344L66.9468 54.9187L63.5858 63.4031C61.0479 62.7488 58.4395 62.4072 55.8186 62.3859C53.1468 62.3859 50.5405 62.7891 48.0562 63.4078L44.6812 54.9234L44.6718 54.9281ZM55.8093 71.7656C68.2921 71.7656 78.2155 81.7031 78.2155 94.1812C78.2249 106.664 68.2921 116.737 55.8093 116.737C52.8461 116.741 49.9113 116.16 47.173 115.028C44.4347 113.896 41.9466 112.234 39.8513 110.139C37.7561 108.044 36.0947 105.556 34.9625 102.818C33.8302 100.079 33.2493 97.1444 33.253 94.1812C33.253 81.6984 43.3312 71.7656 55.8093 71.7656Z" fill="#585757"/>
</svg>
