<svg width="148" height="148" viewBox="0 0 148 148" fill="none" xmlns="http://www.w3.org/2000/svg">
<path d="M55.5181 37.0001C55.5181 32.0985 57.4652 27.3976 60.9312 23.9317C64.3971 20.4657 69.098 18.5186 73.9996 18.5186C78.9012 18.5186 83.602 20.4657 87.068 23.9317C90.5339 27.3976 92.4811 32.0985 92.4811 37.0001C92.4811 41.9017 90.5339 46.6025 87.068 50.0685C83.602 53.5344 78.9012 55.4816 73.9996 55.4816C69.098 55.4816 64.3971 53.5344 60.9312 50.0685C57.4652 46.6025 55.5181 41.9017 55.5181 37.0001ZM73.9996 27.7686C72.7873 27.7686 71.5869 28.0073 70.4668 28.4713C69.3468 28.9352 68.3291 29.6152 67.4719 30.4724C66.6147 31.3296 65.9347 32.3473 65.4708 33.4673C65.0069 34.5873 64.7681 35.7878 64.7681 37.0001C64.7681 38.2124 65.0069 39.4128 65.4708 40.5328C65.9347 41.6528 66.6147 42.6705 67.4719 43.5277C68.3291 44.3849 69.3468 45.0649 70.4668 45.5289C71.5869 45.9928 72.7873 46.2316 73.9996 46.2316C76.4479 46.2316 78.796 45.259 80.5272 43.5277C82.2585 41.7965 83.2311 39.4484 83.2311 37.0001C83.2311 34.5517 82.2585 32.2036 80.5272 30.4724C78.796 28.7412 76.4479 27.7686 73.9996 27.7686Z" fill="#585757"/>
<path d="M101.75 41.625C101.75 39.8029 102.109 37.9987 102.806 36.3153C103.503 34.6319 104.525 33.1023 105.814 31.8139C107.102 30.5255 108.632 29.5035 110.315 28.8062C111.999 28.1089 113.803 27.75 115.625 27.75C117.447 27.75 119.251 28.1089 120.935 28.8062C122.618 29.5035 124.148 30.5255 125.436 31.8139C126.725 33.1023 127.747 34.6319 128.444 36.3153C129.141 37.9987 129.5 39.8029 129.5 41.625C129.5 45.3049 128.038 48.834 125.436 51.4361C122.834 54.0382 119.305 55.5 115.625 55.5C111.945 55.5 108.416 54.0382 105.814 51.4361C103.212 48.834 101.75 45.3049 101.75 41.625ZM115.625 37C114.398 37 113.222 37.4873 112.355 38.3546C111.487 39.222 111 40.3984 111 41.625C111 42.8516 111.487 44.028 112.355 44.8954C113.222 45.7627 114.398 46.25 115.625 46.25C116.852 46.25 118.028 45.7627 118.895 44.8954C119.763 44.028 120.25 42.8516 120.25 41.625C120.25 40.3984 119.763 39.222 118.895 38.3546C118.028 37.4873 116.852 37 115.625 37Z" fill="#585757"/>
<path d="M32.375 27.75C28.6951 27.75 25.166 29.2118 22.5639 31.8139C19.9618 34.416 18.5 37.9451 18.5 41.625C18.5 45.3049 19.9618 48.834 22.5639 51.4361C25.166 54.0382 28.6951 55.5 32.375 55.5C36.0549 55.5 39.584 54.0382 42.1861 51.4361C44.7882 48.834 46.25 45.3049 46.25 41.625C46.25 37.9451 44.7882 34.416 42.1861 31.8139C39.584 29.2118 36.0549 27.75 32.375 27.75ZM27.75 41.625C27.75 40.3984 28.2373 39.222 29.1046 38.3546C29.972 37.4873 31.1484 37 32.375 37C33.6016 37 34.778 37.4873 35.6454 38.3546C36.5127 39.222 37 40.3984 37 41.625C37 42.8516 36.5127 44.028 35.6454 44.8954C34.778 45.7627 33.6016 46.25 32.375 46.25C31.1484 46.25 29.972 45.7627 29.1046 44.8954C28.2373 44.028 27.75 42.8516 27.75 41.625Z" fill="#585757"/>
<path d="M39.479 64.75C37.851 67.5606 36.9958 70.752 37 74H18.5V97.125C18.4993 99.4258 19.0707 101.691 20.1628 103.716C21.255 105.741 22.8336 107.463 24.7566 108.726C26.6796 109.989 28.8865 110.754 31.1787 110.953C33.471 111.151 35.7766 110.776 37.888 109.862C38.5725 112.924 39.6455 115.847 41.033 118.576C37.5223 119.993 33.7173 120.527 29.952 120.13C26.1868 119.734 22.5765 118.419 19.4383 116.301C16.3001 114.183 13.73 111.326 11.9535 107.983C10.1771 104.64 9.24874 100.911 9.25 97.125V74C9.25 71.5467 10.2246 69.194 11.9593 67.4593C13.694 65.7246 16.0467 64.75 18.5 64.75H39.479Z" fill="#585757"/>
<path d="M106.967 118.576C110.477 119.993 114.282 120.527 118.048 120.13C121.813 119.734 125.423 118.419 128.561 116.301C131.7 114.183 134.27 111.326 136.046 107.983C137.823 104.64 138.751 100.911 138.75 97.125V74C138.75 71.5467 137.775 69.194 136.04 67.4593C134.306 65.7246 131.953 64.75 129.5 64.75H108.521C110.093 67.4695 111 70.6237 111 74H129.5V97.125C129.5 99.4258 128.929 101.691 127.837 103.716C126.745 105.741 125.166 107.463 123.243 108.726C121.32 109.989 119.113 110.754 116.821 110.953C114.529 111.151 112.223 110.776 110.112 109.862C109.418 112.924 108.354 115.847 106.967 118.576Z" fill="#585757"/>
<path d="M55.5 64.75C53.0467 64.75 50.694 65.7246 48.9593 67.4593C47.2246 69.194 46.25 71.5467 46.25 74V101.75C46.25 109.11 49.1737 116.168 54.3778 121.372C59.5819 126.576 66.6402 129.5 74 129.5C81.3598 129.5 88.4181 126.576 93.6222 121.372C98.8264 116.168 101.75 109.11 101.75 101.75V74C101.75 71.5467 100.775 69.194 99.0407 67.4593C97.306 65.7246 94.9533 64.75 92.5 64.75H55.5ZM55.5 74H92.5V101.75C92.5 106.657 90.5509 111.362 87.0815 114.831C83.612 118.301 78.9065 120.25 74 120.25C69.0935 120.25 64.3879 118.301 60.9185 114.831C57.4491 111.362 55.5 106.657 55.5 101.75V74Z" fill="#585757"/>
</svg>
