<svg width="645" height="135" viewBox="0 0 645 135" fill="none" xmlns="http://www.w3.org/2000/svg">
<rect x="33" y="17" width="612" height="102" fill="#3E4671"/>
<path d="M137.716 67.5C137.716 103.61 107.4 133 69.8582 133C32.3158 133 2 103.61 2 67.5C2 31.3895 32.3158 2 69.8582 2C107.4 2 137.716 31.3895 137.716 67.5Z" fill="white" stroke="#3E4671" stroke-width="4"/>
<g clip-path="url(#clip0)">
<path d="M107.229 75.6611C107.229 77.5443 103.495 78.7999 99.1378 79.4276C96.3369 74.0917 90.7351 70.0112 84.1996 67.1863C84.8221 66.2446 85.4445 65.6169 86.0669 64.6752H88.5566C98.2041 64.3613 107.229 70.3251 107.229 75.6611ZM53.7009 64.3613H51.2112C41.5637 64.3613 32.5386 70.3251 32.5386 75.6611C32.5386 77.5443 36.2731 78.7999 40.6301 79.4276C43.431 74.0917 49.0328 70.0112 55.5682 67.1863L53.7009 64.3613ZM69.8839 67.5001C76.7306 67.5001 82.3324 61.8503 82.3324 54.9449C82.3324 48.0395 76.7306 42.3896 69.8839 42.3896C63.0373 42.3896 57.4355 48.0395 57.4355 54.9449C57.4355 61.8503 63.0373 67.5001 69.8839 67.5001ZM69.8839 70.639C57.1243 70.639 44.987 78.7999 44.987 86.333C44.987 92.6106 69.8839 92.6106 69.8839 92.6106C69.8839 92.6106 94.7808 92.6106 94.7808 86.333C94.7808 78.7999 82.6436 70.639 69.8839 70.639ZM87.623 61.2225H88.5566C93.8472 61.2225 97.8929 57.1421 97.8929 51.8061C97.8929 46.4701 93.8472 42.3896 88.5566 42.3896C87.0005 42.3896 85.7557 42.7035 84.5109 43.3313C87.0005 46.4701 88.5566 50.5506 88.5566 54.9449C88.5566 57.1421 88.2454 59.3392 87.623 61.2225ZM51.2112 61.2225H52.1449C51.5225 59.3392 51.2112 57.1421 51.2112 54.9449C51.2112 50.5506 52.7673 46.4701 55.257 43.3313C54.0121 42.7035 52.7673 42.3896 51.2112 42.3896C45.9207 42.3896 41.8749 46.4701 41.8749 51.8061C41.8749 57.1421 45.9207 61.2225 51.2112 61.2225Z" fill="#3E4671"/>
</g>
<path d="M160.315 49.5598V64.2598H156.934V52.3318H150.298V64.2598H146.917V49.5598H160.315ZM174.69 58.6528C174.69 58.6948 174.669 58.9888 174.627 59.5348H166.08C166.234 60.2348 166.598 60.7878 167.172 61.1938C167.746 61.5998 168.46 61.8028 169.314 61.8028C169.902 61.8028 170.42 61.7188 170.868 61.5508C171.33 61.3688 171.757 61.0888 172.149 60.7108L173.892 62.6008C172.828 63.8188 171.274 64.4278 169.23 64.4278C167.956 64.4278 166.829 64.1828 165.849 63.6928C164.869 63.1888 164.113 62.4958 163.581 61.6138C163.049 60.7318 162.783 59.7308 162.783 58.6108C162.783 57.5048 163.042 56.5108 163.56 55.6288C164.092 54.7328 164.813 54.0398 165.723 53.5498C166.647 53.0458 167.676 52.7938 168.81 52.7938C169.916 52.7938 170.917 53.0318 171.813 53.5078C172.709 53.9838 173.409 54.6698 173.913 55.5658C174.431 56.4478 174.69 57.4768 174.69 58.6528ZM168.831 55.2718C168.089 55.2718 167.466 55.4818 166.962 55.9018C166.458 56.3218 166.15 56.8958 166.038 57.6238H171.603C171.491 56.9098 171.183 56.3428 170.679 55.9228C170.175 55.4888 169.559 55.2718 168.831 55.2718ZM183.858 52.7938C184.908 52.7938 185.86 53.0388 186.714 53.5288C187.582 54.0048 188.261 54.6838 188.751 55.5658C189.241 56.4338 189.486 57.4488 189.486 58.6108C189.486 59.7728 189.241 60.7948 188.751 61.6768C188.261 62.5448 187.582 63.2238 186.714 63.7138C185.86 64.1898 184.908 64.4278 183.858 64.4278C182.416 64.4278 181.282 63.9728 180.456 63.0628V68.3338H177.18V52.9618H180.309V54.2638C181.121 53.2838 182.304 52.7938 183.858 52.7938ZM183.291 61.7398C184.131 61.7398 184.817 61.4598 185.349 60.8998C185.895 60.3258 186.168 59.5628 186.168 58.6108C186.168 57.6588 185.895 56.9028 185.349 56.3428C184.817 55.7688 184.131 55.4818 183.291 55.4818C182.451 55.4818 181.758 55.7688 181.212 56.3428C180.68 56.9028 180.414 57.6588 180.414 58.6108C180.414 59.5628 180.68 60.3258 181.212 60.8998C181.758 61.4598 182.451 61.7398 183.291 61.7398ZM197.158 64.4278C195.954 64.4278 194.869 64.1828 193.903 63.6928C192.951 63.1888 192.202 62.4958 191.656 61.6138C191.124 60.7318 190.858 59.7308 190.858 58.6108C190.858 57.4908 191.124 56.4898 191.656 55.6078C192.202 54.7258 192.951 54.0398 193.903 53.5498C194.869 53.0458 195.954 52.7938 197.158 52.7938C198.348 52.7938 199.384 53.0458 200.266 53.5498C201.162 54.0398 201.813 54.7468 202.219 55.6708L199.678 57.0358C199.09 55.9998 198.243 55.4818 197.137 55.4818C196.283 55.4818 195.576 55.7618 195.016 56.3218C194.456 56.8818 194.176 57.6448 194.176 58.6108C194.176 59.5768 194.456 60.3398 195.016 60.8998C195.576 61.4598 196.283 61.7398 197.137 61.7398C198.257 61.7398 199.104 61.2218 199.678 60.1858L202.219 61.5718C201.813 62.4678 201.162 63.1678 200.266 63.6718C199.384 64.1758 198.348 64.4278 197.158 64.4278ZM209.358 64.4278C208.168 64.4278 207.097 64.1828 206.145 63.6928C205.207 63.1888 204.472 62.4958 203.94 61.6138C203.408 60.7318 203.142 59.7308 203.142 58.6108C203.142 57.4908 203.408 56.4898 203.94 55.6078C204.472 54.7258 205.207 54.0398 206.145 53.5498C207.097 53.0458 208.168 52.7938 209.358 52.7938C210.548 52.7938 211.612 53.0458 212.55 53.5498C213.488 54.0398 214.223 54.7258 214.755 55.6078C215.287 56.4898 215.553 57.4908 215.553 58.6108C215.553 59.7308 215.287 60.7318 214.755 61.6138C214.223 62.4958 213.488 63.1888 212.55 63.6928C211.612 64.1828 210.548 64.4278 209.358 64.4278ZM209.358 61.7398C210.198 61.7398 210.884 61.4598 211.416 60.8998C211.962 60.3258 212.235 59.5628 212.235 58.6108C212.235 57.6588 211.962 56.9028 211.416 56.3428C210.884 55.7688 210.198 55.4818 209.358 55.4818C208.518 55.4818 207.825 55.7688 207.279 56.3428C206.733 56.9028 206.46 57.6588 206.46 58.6108C206.46 59.5628 206.733 60.3258 207.279 60.8998C207.825 61.4598 208.518 61.7398 209.358 61.7398ZM217.807 52.9618H221.062V57.3718H225.976V52.9618H229.252V64.2598H225.976V60.0388H221.062V64.2598H217.807V52.9618ZM236.777 52.7938C238.527 52.7938 239.871 53.2138 240.809 54.0538C241.747 54.8798 242.216 56.1328 242.216 57.8128V64.2598H239.15V62.8528C238.534 63.9028 237.386 64.4278 235.706 64.4278C234.838 64.4278 234.082 64.2808 233.438 63.9868C232.808 63.6928 232.325 63.2868 231.989 62.7688C231.653 62.2508 231.485 61.6628 231.485 61.0048C231.485 59.9548 231.877 59.1288 232.661 58.5268C233.459 57.9248 234.684 57.6238 236.336 57.6238H238.94C238.94 56.9098 238.723 56.3638 238.289 55.9858C237.855 55.5938 237.204 55.3978 236.336 55.3978C235.734 55.3978 235.139 55.4958 234.551 55.6918C233.977 55.8738 233.487 56.1258 233.081 56.4478L231.905 54.1588C232.521 53.7248 233.256 53.3888 234.11 53.1508C234.978 52.9128 235.867 52.7938 236.777 52.7938ZM236.525 62.2228C237.085 62.2228 237.582 62.0968 238.016 61.8448C238.45 61.5788 238.758 61.1938 238.94 60.6898V59.5348H236.693C235.349 59.5348 234.677 59.9758 234.677 60.8578C234.677 61.2778 234.838 61.6138 235.16 61.8658C235.496 62.1038 235.951 62.2228 236.525 62.2228ZM255.897 52.9618V64.2598H252.621V55.6498H249.051L248.946 57.6448C248.89 59.1288 248.75 60.3608 248.526 61.3408C248.302 62.3208 247.938 63.0908 247.434 63.6508C246.93 64.2108 246.23 64.4908 245.334 64.4908C244.858 64.4908 244.291 64.4068 243.633 64.2388L243.801 61.5508C244.025 61.5788 244.186 61.5928 244.284 61.5928C244.774 61.5928 245.138 61.4178 245.376 61.0678C245.628 60.7038 245.796 60.2488 245.88 59.7028C245.964 59.1428 246.027 58.4078 246.069 57.4978L246.237 52.9618H255.897ZM265.159 56.5738C266.629 56.5878 267.756 56.9238 268.54 57.5818C269.324 58.2258 269.716 59.1428 269.716 60.3328C269.716 61.5788 269.275 62.5518 268.393 63.2518C267.525 63.9378 266.3 64.2808 264.718 64.2808L259.048 64.2598V52.9618H262.303V56.5738H265.159ZM264.424 61.9498C265.054 61.9638 265.537 61.8308 265.873 61.5508C266.209 61.2708 266.377 60.8508 266.377 60.2908C266.377 59.7448 266.209 59.3458 265.873 59.0938C265.551 58.8418 265.068 58.7088 264.424 58.6948L262.303 58.6738V61.9498H264.424ZM271.763 52.9618H275.018V57.3718H279.932V52.9618H283.208V64.2598H279.932V60.0388H275.018V64.2598H271.763V52.9618ZM292.287 56.5738C293.757 56.5878 294.87 56.9168 295.626 57.5608C296.382 58.2048 296.76 59.1288 296.76 60.3328C296.76 61.5928 296.333 62.5658 295.479 63.2518C294.625 63.9378 293.414 64.2808 291.846 64.2808L286.344 64.2598V52.9618H289.599V56.5738H292.287ZM297.978 52.9618H301.233V64.2598H297.978V52.9618ZM291.552 61.9498C292.182 61.9638 292.665 61.8308 293.001 61.5508C293.337 61.2708 293.505 60.8508 293.505 60.2908C293.505 59.7448 293.337 59.3458 293.001 59.0938C292.679 58.8418 292.196 58.7088 291.552 58.6948L289.599 58.6738V61.9498H291.552ZM304.391 52.9618H307.646V59.6818L313.148 52.9618H316.151V64.2598H312.896V57.5398L307.415 64.2598H304.391V52.9618ZM310.061 51.7438C307.597 51.7438 306.358 50.6588 306.344 48.4888H308.486C308.5 48.9788 308.633 49.3638 308.885 49.6438C309.151 49.9098 309.536 50.0428 310.04 50.0428C310.544 50.0428 310.929 49.9098 311.195 49.6438C311.475 49.3638 311.615 48.9788 311.615 48.4888H313.799C313.785 50.6588 312.539 51.7438 310.061 51.7438ZM336.272 64.2598V57.4978L332.891 63.1678H331.505L328.208 57.4768V64.2598H325.247V52.9618H328.67L332.282 59.4928L336.125 52.9618H339.191L339.233 64.2598H336.272ZM353.354 58.6528C353.354 58.6948 353.333 58.9888 353.291 59.5348H344.744C344.898 60.2348 345.262 60.7878 345.836 61.1938C346.41 61.5998 347.124 61.8028 347.978 61.8028C348.566 61.8028 349.084 61.7188 349.532 61.5508C349.994 61.3688 350.421 61.0888 350.813 60.7108L352.556 62.6008C351.492 63.8188 349.938 64.4278 347.894 64.4278C346.62 64.4278 345.493 64.1828 344.513 63.6928C343.533 63.1888 342.777 62.4958 342.245 61.6138C341.713 60.7318 341.447 59.7308 341.447 58.6108C341.447 57.5048 341.706 56.5108 342.224 55.6288C342.756 54.7328 343.477 54.0398 344.387 53.5498C345.311 53.0458 346.34 52.7938 347.474 52.7938C348.58 52.7938 349.581 53.0318 350.477 53.5078C351.373 53.9838 352.073 54.6698 352.577 55.5658C353.095 56.4478 353.354 57.4768 353.354 58.6528ZM347.495 55.2718C346.753 55.2718 346.13 55.4818 345.626 55.9018C345.122 56.3218 344.814 56.8958 344.702 57.6238H350.267C350.155 56.9098 349.847 56.3428 349.343 55.9228C348.839 55.4888 348.223 55.2718 347.495 55.2718ZM355.865 52.9618H359.12V57.3718H364.034V52.9618H367.31V64.2598H364.034V60.0388H359.12V64.2598H355.865V52.9618ZM381.429 58.6528C381.429 58.6948 381.408 58.9888 381.366 59.5348H372.819C372.973 60.2348 373.337 60.7878 373.911 61.1938C374.485 61.5998 375.199 61.8028 376.053 61.8028C376.641 61.8028 377.159 61.7188 377.607 61.5508C378.069 61.3688 378.496 61.0888 378.888 60.7108L380.631 62.6008C379.567 63.8188 378.013 64.4278 375.969 64.4278C374.695 64.4278 373.568 64.1828 372.588 63.6928C371.608 63.1888 370.852 62.4958 370.32 61.6138C369.788 60.7318 369.522 59.7308 369.522 58.6108C369.522 57.5048 369.781 56.5108 370.299 55.6288C370.831 54.7328 371.552 54.0398 372.462 53.5498C373.386 53.0458 374.415 52.7938 375.549 52.7938C376.655 52.7938 377.656 53.0318 378.552 53.5078C379.448 53.9838 380.148 54.6698 380.652 55.5658C381.17 56.4478 381.429 57.4768 381.429 58.6528ZM375.57 55.2718C374.828 55.2718 374.205 55.4818 373.701 55.9018C373.197 56.3218 372.889 56.8958 372.777 57.6238H378.342C378.23 56.9098 377.922 56.3428 377.418 55.9228C376.914 55.4888 376.298 55.2718 375.57 55.2718ZM396.501 61.5718V66.6958H393.456V64.2598H385.518V66.6958H382.473V61.5718H382.935C383.635 61.5578 384.118 61.1448 384.384 60.3328C384.65 59.5208 384.818 58.3658 384.888 56.8678L385.035 52.9618H394.884V61.5718H396.501ZM387.849 57.0988C387.807 58.2468 387.716 59.1848 387.576 59.9128C387.45 60.6408 387.205 61.1938 386.841 61.5718H391.608V55.6498H387.912L387.849 57.0988ZM409.755 59.9758H408.18V64.2598H404.946V59.9758H403.371L400.977 64.2598H397.113L400.662 58.4218L397.365 52.9618H400.83L403.329 57.3508H404.946V52.9618H408.18V57.3508H409.776L412.296 52.9618H415.761L412.464 58.4218L416.034 64.2598H412.149L409.755 59.9758ZM428.372 58.6528C428.372 58.6948 428.351 58.9888 428.309 59.5348H419.762C419.916 60.2348 420.28 60.7878 420.854 61.1938C421.428 61.5998 422.142 61.8028 422.996 61.8028C423.584 61.8028 424.102 61.7188 424.55 61.5508C425.012 61.3688 425.439 61.0888 425.831 60.7108L427.574 62.6008C426.51 63.8188 424.956 64.4278 422.912 64.4278C421.638 64.4278 420.511 64.1828 419.531 63.6928C418.551 63.1888 417.795 62.4958 417.263 61.6138C416.731 60.7318 416.465 59.7308 416.465 58.6108C416.465 57.5048 416.724 56.5108 417.242 55.6288C417.774 54.7328 418.495 54.0398 419.405 53.5498C420.329 53.0458 421.358 52.7938 422.492 52.7938C423.598 52.7938 424.599 53.0318 425.495 53.5078C426.391 53.9838 427.091 54.6698 427.595 55.5658C428.113 56.4478 428.372 57.4768 428.372 58.6528ZM422.513 55.2718C421.771 55.2718 421.148 55.4818 420.644 55.9018C420.14 56.3218 419.832 56.8958 419.72 57.6238H425.285C425.173 56.9098 424.865 56.3428 424.361 55.9228C423.857 55.4888 423.241 55.2718 422.513 55.2718ZM437.54 52.7938C438.59 52.7938 439.542 53.0388 440.396 53.5288C441.264 54.0048 441.943 54.6838 442.433 55.5658C442.923 56.4338 443.168 57.4488 443.168 58.6108C443.168 59.7728 442.923 60.7948 442.433 61.6768C441.943 62.5448 441.264 63.2238 440.396 63.7138C439.542 64.1898 438.59 64.4278 437.54 64.4278C436.098 64.4278 434.964 63.9728 434.138 63.0628V68.3338H430.862V52.9618H433.991V54.2638C434.803 53.2838 435.986 52.7938 437.54 52.7938ZM436.973 61.7398C437.813 61.7398 438.499 61.4598 439.031 60.8998C439.577 60.3258 439.85 59.5628 439.85 58.6108C439.85 57.6588 439.577 56.9028 439.031 56.3428C438.499 55.7688 437.813 55.4818 436.973 55.4818C436.133 55.4818 435.44 55.7688 434.894 56.3428C434.362 56.9028 434.096 57.6588 434.096 58.6108C434.096 59.5628 434.362 60.3258 434.894 60.8998C435.44 61.4598 436.133 61.7398 436.973 61.7398ZM464.074 61.5718V66.6958H461.029V64.2598H453.091V66.6958H450.046V61.5718H450.508C451.208 61.5578 451.691 61.1448 451.957 60.3328C452.223 59.5208 452.391 58.3658 452.461 56.8678L452.608 52.9618H462.457V61.5718H464.074ZM455.422 57.0988C455.38 58.2468 455.289 59.1848 455.149 59.9128C455.023 60.6408 454.778 61.1938 454.414 61.5718H459.181V55.6498H455.485L455.422 57.0988ZM476.972 52.9618V64.2598H473.696V55.6498H470.126L470.021 57.6448C469.965 59.1288 469.825 60.3608 469.601 61.3408C469.377 62.3208 469.013 63.0908 468.509 63.6508C468.005 64.2108 467.305 64.4908 466.409 64.4908C465.933 64.4908 465.366 64.4068 464.708 64.2388L464.876 61.5508C465.1 61.5788 465.261 61.5928 465.359 61.5928C465.849 61.5928 466.213 61.4178 466.451 61.0678C466.703 60.7038 466.871 60.2488 466.955 59.7028C467.039 59.1428 467.102 58.4078 467.144 57.4978L467.312 52.9618H476.972ZM490.16 52.9618V64.2598H487.241V61.0258H484.826L482.684 64.2598H479.198L481.781 60.5638C480.997 60.2558 480.395 59.8148 479.975 59.2408C479.569 58.6528 479.366 57.9458 479.366 57.1198C479.366 55.7898 479.842 54.7678 480.794 54.0538C481.76 53.3258 483.083 52.9618 484.763 52.9618H490.16ZM484.826 55.6288C484.126 55.6288 483.594 55.7548 483.23 56.0068C482.88 56.2588 482.705 56.6648 482.705 57.2248C482.705 57.7848 482.873 58.1978 483.209 58.4638C483.559 58.7158 484.084 58.8418 484.784 58.8418H487.241V55.6288H484.826ZM504.233 59.9758H502.532V64.2598H499.256V52.9618H502.532V57.3508H504.296L507.362 52.9618H510.848L506.9 58.3798L511.121 64.2598H507.257L504.233 59.9758ZM516.913 52.7938C518.663 52.7938 520.007 53.2138 520.945 54.0538C521.883 54.8798 522.352 56.1328 522.352 57.8128V64.2598H519.286V62.8528C518.67 63.9028 517.522 64.4278 515.842 64.4278C514.974 64.4278 514.218 64.2808 513.574 63.9868C512.944 63.6928 512.461 63.2868 512.125 62.7688C511.789 62.2508 511.621 61.6628 511.621 61.0048C511.621 59.9548 512.013 59.1288 512.797 58.5268C513.595 57.9248 514.82 57.6238 516.472 57.6238H519.076C519.076 56.9098 518.859 56.3638 518.425 55.9858C517.991 55.5938 517.34 55.3978 516.472 55.3978C515.87 55.3978 515.275 55.4958 514.687 55.6918C514.113 55.8738 513.623 56.1258 513.217 56.4478L512.041 54.1588C512.657 53.7248 513.392 53.3888 514.246 53.1508C515.114 52.9128 516.003 52.7938 516.913 52.7938ZM516.661 62.2228C517.221 62.2228 517.718 62.0968 518.152 61.8448C518.586 61.5788 518.894 61.1938 519.076 60.6898V59.5348H516.829C515.485 59.5348 514.813 59.9758 514.813 60.8578C514.813 61.2778 514.974 61.6138 515.296 61.8658C515.632 62.1038 516.087 62.2228 516.661 62.2228ZM536.391 59.9758H534.816V64.2598H531.582V59.9758H530.007L527.613 64.2598H523.749L527.298 58.4218L524.001 52.9618H527.466L529.965 57.3508H531.582V52.9618H534.816V57.3508H536.412L538.932 52.9618H542.397L539.1 58.4218L542.67 64.2598H538.785L536.391 59.9758ZM557.036 61.5718V66.6958H553.991V64.2598H546.053V66.6958H543.008V61.5718H543.47C544.17 61.5578 544.653 61.1448 544.919 60.3328C545.185 59.5208 545.353 58.3658 545.423 56.8678L545.57 52.9618H555.419V61.5718H557.036ZM548.384 57.0988C548.342 58.2468 548.251 59.1848 548.111 59.9128C547.985 60.6408 547.74 61.1938 547.376 61.5718H552.143V55.6498H548.447L548.384 57.0988ZM564.39 64.4278C563.2 64.4278 562.129 64.1828 561.177 63.6928C560.239 63.1888 559.504 62.4958 558.972 61.6138C558.44 60.7318 558.174 59.7308 558.174 58.6108C558.174 57.4908 558.44 56.4898 558.972 55.6078C559.504 54.7258 560.239 54.0398 561.177 53.5498C562.129 53.0458 563.2 52.7938 564.39 52.7938C565.58 52.7938 566.644 53.0458 567.582 53.5498C568.52 54.0398 569.255 54.7258 569.787 55.6078C570.319 56.4898 570.585 57.4908 570.585 58.6108C570.585 59.7308 570.319 60.7318 569.787 61.6138C569.255 62.4958 568.52 63.1888 567.582 63.6928C566.644 64.1828 565.58 64.4278 564.39 64.4278ZM564.39 61.7398C565.23 61.7398 565.916 61.4598 566.448 60.8998C566.994 60.3258 567.267 59.5628 567.267 58.6108C567.267 57.6588 566.994 56.9028 566.448 56.3428C565.916 55.7688 565.23 55.4818 564.39 55.4818C563.55 55.4818 562.857 55.7688 562.311 56.3428C561.765 56.9028 561.492 57.6588 561.492 58.6108C561.492 59.5628 561.765 60.3258 562.311 60.8998C562.857 61.4598 563.55 61.7398 564.39 61.7398ZM581.889 55.6498H576.093V64.2598H572.838V52.9618H581.889V55.6498ZM588.445 64.4278C587.255 64.4278 586.184 64.1828 585.232 63.6928C584.294 63.1888 583.559 62.4958 583.027 61.6138C582.495 60.7318 582.229 59.7308 582.229 58.6108C582.229 57.4908 582.495 56.4898 583.027 55.6078C583.559 54.7258 584.294 54.0398 585.232 53.5498C586.184 53.0458 587.255 52.7938 588.445 52.7938C589.635 52.7938 590.699 53.0458 591.637 53.5498C592.575 54.0398 593.31 54.7258 593.842 55.6078C594.374 56.4898 594.64 57.4908 594.64 58.6108C594.64 59.7308 594.374 60.7318 593.842 61.6138C593.31 62.4958 592.575 63.1888 591.637 63.6928C590.699 64.1828 589.635 64.4278 588.445 64.4278ZM588.445 61.7398C589.285 61.7398 589.971 61.4598 590.503 60.8998C591.049 60.3258 591.322 59.5628 591.322 58.6108C591.322 57.6588 591.049 56.9028 590.503 56.3428C589.971 55.7688 589.285 55.4818 588.445 55.4818C587.605 55.4818 586.912 55.7688 586.366 56.3428C585.82 56.9028 585.547 57.6588 585.547 58.6108C585.547 59.5628 585.82 60.3258 586.366 60.8998C586.912 61.4598 587.605 61.7398 588.445 61.7398ZM151.642 85.9758H149.941V90.2598H146.665V78.9618H149.941V83.3508H151.705L154.771 78.9618H158.257L154.309 84.3798L158.53 90.2598H154.666L151.642 85.9758ZM170.975 78.9618V90.2598H167.699V81.6498H164.129L164.024 83.6448C163.968 85.1288 163.828 86.3608 163.604 87.3408C163.38 88.3208 163.016 89.0908 162.512 89.6508C162.008 90.2108 161.308 90.4908 160.412 90.4908C159.936 90.4908 159.369 90.4068 158.711 90.2388L158.879 87.5508C159.103 87.5788 159.264 87.5928 159.362 87.5928C159.852 87.5928 160.216 87.4178 160.454 87.0678C160.706 86.7038 160.874 86.2488 160.958 85.7028C161.042 85.1428 161.105 84.4078 161.147 83.4978L161.315 78.9618H170.975ZM174.125 78.9618H177.38V85.6818L182.882 78.9618H185.885V90.2598H182.63V83.5398L177.149 90.2598H174.125V78.9618ZM200.017 84.6528C200.017 84.6948 199.996 84.9888 199.954 85.5348H191.407C191.561 86.2348 191.925 86.7878 192.499 87.1938C193.073 87.5998 193.787 87.8028 194.641 87.8028C195.229 87.8028 195.747 87.7188 196.195 87.5508C196.657 87.3688 197.084 87.0888 197.476 86.7108L199.219 88.6008C198.155 89.8188 196.601 90.4278 194.557 90.4278C193.283 90.4278 192.156 90.1828 191.176 89.6928C190.196 89.1888 189.44 88.4958 188.908 87.6138C188.376 86.7318 188.11 85.7308 188.11 84.6108C188.11 83.5048 188.369 82.5108 188.887 81.6288C189.419 80.7328 190.14 80.0398 191.05 79.5498C191.974 79.0458 193.003 78.7938 194.137 78.7938C195.243 78.7938 196.244 79.0318 197.14 79.5078C198.036 79.9838 198.736 80.6698 199.24 81.5658C199.758 82.4478 200.017 83.4768 200.017 84.6528ZM194.158 81.2718C193.416 81.2718 192.793 81.4818 192.289 81.9018C191.785 82.3218 191.477 82.8958 191.365 83.6238H196.93C196.818 82.9098 196.51 82.3428 196.006 81.9228C195.502 81.4888 194.886 81.2718 194.158 81.2718ZM202.528 78.9618H205.783V83.3718H210.697V78.9618H213.973V90.2598H210.697V86.0388H205.783V90.2598H202.528V78.9618ZM226.601 81.6498H222.779V90.2598H219.524V81.6498H215.702V78.9618H226.601V81.6498ZM232.737 78.7938C234.487 78.7938 235.831 79.2138 236.769 80.0538C237.707 80.8798 238.176 82.1328 238.176 83.8128V90.2598H235.11V88.8528C234.494 89.9028 233.346 90.4278 231.666 90.4278C230.798 90.4278 230.042 90.2808 229.398 89.9868C228.768 89.6928 228.285 89.2868 227.949 88.7688C227.613 88.2508 227.445 87.6628 227.445 87.0048C227.445 85.9548 227.837 85.1288 228.621 84.5268C229.419 83.9248 230.644 83.6238 232.296 83.6238H234.9C234.9 82.9098 234.683 82.3638 234.249 81.9858C233.815 81.5938 233.164 81.3978 232.296 81.3978C231.694 81.3978 231.099 81.4958 230.511 81.6918C229.937 81.8738 229.447 82.1258 229.041 82.4478L227.865 80.1588C228.481 79.7248 229.216 79.3888 230.07 79.1508C230.938 78.9128 231.827 78.7938 232.737 78.7938ZM232.485 88.2228C233.045 88.2228 233.542 88.0968 233.976 87.8448C234.41 87.5788 234.718 87.1938 234.9 86.6898V85.5348H232.653C231.309 85.5348 230.637 85.9758 230.637 86.8578C230.637 87.2778 230.798 87.6138 231.12 87.8658C231.456 88.1038 231.911 88.2228 232.485 88.2228Z" fill="white"/>
<defs>
<clipPath id="clip0">
<rect width="74.6907" height="75.3315" fill="white" transform="translate(32.5386 29.834)"/>
</clipPath>
</defs>
</svg>
