<svg width="542" height="114" viewBox="0 0 542 114" fill="none" xmlns="http://www.w3.org/2000/svg">
<rect x="26.0496" y="14.8438" width="515.95" height="89.0729" fill="#3E4671"/>
<path d="M112.039 57.2795C112.039 87.4912 87.4161 112 57.0196 112C26.6232 112 2 87.4912 2 57.2795C2 27.0679 26.6232 2.55859 57.0196 2.55859C87.4161 2.55859 112.039 27.0679 112.039 57.2795Z" fill="white" stroke="#3E4671" stroke-width="4"/>
<path d="M56.7064 31.5625C55.4703 31.5625 54.2422 31.9779 53.1841 32.7375L49.9091 35.0243L46.1357 35.5189H46.0744L46.0131 35.5802C44.7755 35.8597 43.6425 36.4844 42.7454 37.3817C41.8483 38.2791 41.2238 39.4124 40.9443 40.6503L40.885 40.7116V40.7729L40.3906 44.6066L38.1044 47.5739L38.0411 47.6352V47.6965C36.6587 49.9062 36.5974 52.7587 38.1044 54.8675L40.4519 58.1433L41.0709 61.5458L34.7048 71.2488L32.6658 74.2794H42.121L44.4072 79.5947L45.8292 82.9952L47.8681 79.9033L54.1097 70.507C55.7868 71.1954 57.6794 71.2587 59.3031 70.507L65.5446 79.9033L67.5836 82.9952L69.0055 79.5947L71.2917 74.2794H80.747L78.708 71.2488L72.5278 61.8544L73.0222 58.1453L75.3084 54.8694L75.3717 54.8081V54.7468C76.754 52.5372 76.8154 49.7459 75.3084 47.6372L73.0222 44.3594L72.2805 40.6503H72.3419C72.3339 40.6028 72.2885 40.5711 72.2805 40.5256C71.9246 37.9382 69.8777 35.8374 67.2751 35.5189H67.2118L63.5036 35.0243L60.2286 32.7375C59.2058 31.988 57.9742 31.5772 56.7064 31.5625V31.5625ZM56.7064 35.5802C57.1612 35.5802 57.6102 35.7187 57.9424 35.9521L61.4647 38.4861L61.8978 38.7947L62.3922 38.858L66.7193 39.4752H66.7787C67.6686 39.5741 68.2856 40.1933 68.3865 41.0835V41.2061L69.1914 45.5957L69.2508 46.0289L69.5612 46.3989L72.0946 49.922C72.5673 50.5788 72.6286 51.6925 72.0333 52.642L69.2527 56.537L69.1894 57.0316L68.5724 61.3598V61.4192C68.5395 61.7283 68.4338 62.0253 68.2639 62.2856L68.1393 62.3489V62.4083C67.8454 62.7614 67.4238 62.984 66.9665 63.0275H66.8419L62.3309 63.8326L61.8365 63.8919L61.4647 64.2025L57.9424 66.7365C57.2858 67.2093 56.1111 67.2707 55.1618 66.6752L51.9481 64.2025L51.5763 63.8939L51.0206 63.8306L46.6934 63.2134H46.6341C46.3544 63.1887 46.0848 63.0971 45.848 62.9463C45.6112 62.7955 45.4141 62.5899 45.2734 62.347C45.142 62.1188 45.0579 61.8665 45.0262 61.6051V61.4825L44.2233 56.9703L44.16 56.4757L43.8515 56.1038L41.3181 52.5807C40.8454 51.9239 40.7841 50.7489 41.3794 49.7994L43.8515 46.5848L44.16 46.2129L44.2213 45.657L44.779 41.5147C44.7869 41.4851 44.8324 41.4851 44.8403 41.4534C44.9636 40.9772 45.212 40.5427 45.5598 40.1948C45.9075 39.847 46.3419 39.5985 46.818 39.4752C46.8496 39.4673 46.8496 39.4218 46.8793 39.4139L51.0206 38.8561L51.515 38.7967L51.9481 38.4861L55.4703 35.9521C55.8026 35.7206 56.2515 35.5802 56.7064 35.5802V35.5802ZM70.3642 65.6861L73.394 70.323H68.6317L68.1373 71.5594L66.7787 74.7106L62.5761 68.2815L63.5017 67.603L67.3977 66.9225V66.9838C67.4432 66.9759 67.4728 66.9304 67.5203 66.9225C68.5612 66.7723 69.5426 66.3453 70.3622 65.6861H70.3642ZM43.0486 65.7475C43.9073 66.5284 44.9861 67.0251 46.1377 67.1698H46.199L49.9704 67.6643L50.8347 68.3448L46.6321 74.7106L45.2734 71.5594L44.779 70.323H40.0207L43.0486 65.7475Z" fill="#3E4671"/>
<path d="M125.942 57.228C124.587 57.228 123.358 56.9367 122.256 56.354C121.167 55.7587 120.305 54.9417 119.672 53.903C119.051 52.8517 118.741 51.6673 118.741 50.35C118.741 49.0327 119.051 47.8547 119.672 46.816C120.305 45.7647 121.167 44.9477 122.256 44.365C123.358 43.7697 124.593 43.472 125.961 43.472C127.114 43.472 128.152 43.6747 129.077 44.08C130.014 44.4853 130.8 45.068 131.433 45.828L129.457 47.652C128.558 46.6133 127.443 46.094 126.113 46.094C125.29 46.094 124.555 46.2777 123.909 46.645C123.263 46.9997 122.756 47.5 122.389 48.146C122.034 48.792 121.857 49.5267 121.857 50.35C121.857 51.1733 122.034 51.908 122.389 52.554C122.756 53.2 123.263 53.7067 123.909 54.074C124.555 54.4287 125.29 54.606 126.113 54.606C127.443 54.606 128.558 54.0803 129.457 53.029L131.433 54.853C130.8 55.6257 130.014 56.2147 129.077 56.62C128.14 57.0253 127.095 57.228 125.942 57.228ZM142.963 51.927C142.963 51.965 142.944 52.231 142.906 52.725H135.173C135.312 53.3583 135.642 53.8587 136.161 54.226C136.68 54.5933 137.326 54.777 138.099 54.777C138.631 54.777 139.1 54.701 139.505 54.549C139.923 54.3843 140.309 54.131 140.664 53.789L142.241 55.499C141.278 56.601 139.872 57.152 138.023 57.152C136.87 57.152 135.851 56.9303 134.964 56.487C134.077 56.031 133.393 55.404 132.912 54.606C132.431 53.808 132.19 52.9023 132.19 51.889C132.19 50.8883 132.424 49.989 132.893 49.191C133.374 48.3803 134.027 47.7533 134.85 47.31C135.686 46.854 136.617 46.626 137.643 46.626C138.644 46.626 139.549 46.8413 140.36 47.272C141.171 47.7027 141.804 48.3233 142.26 49.134C142.729 49.932 142.963 50.863 142.963 51.927ZM137.662 48.868C136.991 48.868 136.427 49.058 135.971 49.438C135.515 49.818 135.236 50.3373 135.135 50.996H140.17C140.069 50.35 139.79 49.837 139.334 49.457C138.878 49.0643 138.321 48.868 137.662 48.868ZM147.767 48.127C148.122 47.633 148.597 47.2593 149.192 47.006C149.8 46.7527 150.497 46.626 151.282 46.626V49.362C150.953 49.3367 150.731 49.324 150.617 49.324C149.769 49.324 149.104 49.5647 148.622 50.046C148.141 50.5147 147.9 51.224 147.9 52.174V57H144.936V46.778H147.767V48.127ZM159.99 56.506C159.699 56.7213 159.338 56.886 158.907 57C158.489 57.1013 158.046 57.152 157.577 57.152C156.361 57.152 155.418 56.8417 154.746 56.221C154.088 55.6003 153.758 54.6883 153.758 53.485V49.286H152.181V47.006H153.758V44.517H156.722V47.006H159.268V49.286H156.722V53.447C156.722 53.8777 156.83 54.2133 157.045 54.454C157.273 54.682 157.59 54.796 157.995 54.796C158.464 54.796 158.863 54.6693 159.192 54.416L159.99 56.506ZM161.654 46.778H164.618V57H161.654V46.778ZM163.136 45.353C162.591 45.353 162.148 45.1947 161.806 44.878C161.464 44.5613 161.293 44.1687 161.293 43.7C161.293 43.2313 161.464 42.8387 161.806 42.522C162.148 42.2053 162.591 42.047 163.136 42.047C163.681 42.047 164.124 42.199 164.466 42.503C164.808 42.807 164.979 43.187 164.979 43.643C164.979 44.137 164.808 44.5487 164.466 44.878C164.124 45.1947 163.681 45.353 163.136 45.353ZM170.618 47.006H173.24V49.286H170.694V57H167.73V49.286H166.153V47.006H167.73V46.55C167.73 45.3847 168.072 44.46 168.756 43.776C169.453 43.092 170.428 42.75 171.682 42.75C172.125 42.75 172.543 42.8007 172.936 42.902C173.341 42.9907 173.677 43.1237 173.943 43.301L173.164 45.448C172.822 45.2073 172.423 45.087 171.967 45.087C171.068 45.087 170.618 45.581 170.618 46.569V47.006ZM176.242 46.778H179.206V57H176.242V46.778ZM177.724 45.353C177.179 45.353 176.736 45.1947 176.394 44.878C176.052 44.5613 175.881 44.1687 175.881 43.7C175.881 43.2313 176.052 42.8387 176.394 42.522C176.736 42.2053 177.179 42.047 177.724 42.047C178.269 42.047 178.712 42.199 179.054 42.503C179.396 42.807 179.567 43.187 179.567 43.643C179.567 44.137 179.396 44.5487 179.054 44.878C178.712 45.1947 178.269 45.353 177.724 45.353ZM186.893 57.152C185.804 57.152 184.822 56.9303 183.948 56.487C183.087 56.031 182.409 55.404 181.915 54.606C181.434 53.808 181.193 52.9023 181.193 51.889C181.193 50.8757 181.434 49.97 181.915 49.172C182.409 48.374 183.087 47.7533 183.948 47.31C184.822 46.854 185.804 46.626 186.893 46.626C187.97 46.626 188.907 46.854 189.705 47.31C190.516 47.7533 191.105 48.393 191.472 49.229L189.173 50.464C188.641 49.5267 187.875 49.058 186.874 49.058C186.101 49.058 185.462 49.3113 184.955 49.818C184.448 50.3247 184.195 51.015 184.195 51.889C184.195 52.763 184.448 53.4533 184.955 53.96C185.462 54.4667 186.101 54.72 186.874 54.72C187.887 54.72 188.654 54.2513 189.173 53.314L191.472 54.568C191.105 55.3787 190.516 56.012 189.705 56.468C188.907 56.924 187.97 57.152 186.893 57.152ZM197.302 46.626C198.885 46.626 200.101 47.006 200.95 47.766C201.798 48.5133 202.223 49.647 202.223 51.167V57H199.449V55.727C198.891 56.677 197.853 57.152 196.333 57.152C195.547 57.152 194.863 57.019 194.281 56.753C193.711 56.487 193.274 56.1197 192.97 55.651C192.666 55.1823 192.514 54.6503 192.514 54.055C192.514 53.105 192.868 52.3577 193.578 51.813C194.3 51.2683 195.408 50.996 196.903 50.996H199.259C199.259 50.35 199.062 49.856 198.67 49.514C198.277 49.1593 197.688 48.982 196.903 48.982C196.358 48.982 195.82 49.0707 195.288 49.248C194.768 49.4127 194.325 49.6407 193.958 49.932L192.894 47.861C193.451 47.4683 194.116 47.1643 194.889 46.949C195.674 46.7337 196.478 46.626 197.302 46.626ZM197.074 55.157C197.58 55.157 198.03 55.043 198.423 54.815C198.815 54.5743 199.094 54.226 199.259 53.77V52.725H197.226C196.01 52.725 195.402 53.124 195.402 53.922C195.402 54.302 195.547 54.606 195.839 54.834C196.143 55.0493 196.554 55.157 197.074 55.157ZM211.498 56.506C211.207 56.7213 210.846 56.886 210.415 57C209.997 57.1013 209.554 57.152 209.085 57.152C207.869 57.152 206.925 56.8417 206.254 56.221C205.595 55.6003 205.266 54.6883 205.266 53.485V49.286H203.689V47.006H205.266V44.517H208.23V47.006H210.776V49.286H208.23V53.447C208.23 53.8777 208.338 54.2133 208.553 54.454C208.781 54.682 209.098 54.796 209.503 54.796C209.972 54.796 210.371 54.6693 210.7 54.416L211.498 56.506ZM213.162 46.778H216.126V57H213.162V46.778ZM214.644 45.353C214.099 45.353 213.656 45.1947 213.314 44.878C212.972 44.5613 212.801 44.1687 212.801 43.7C212.801 43.2313 212.972 42.8387 213.314 42.522C213.656 42.2053 214.099 42.047 214.644 42.047C215.189 42.047 215.632 42.199 215.974 42.503C216.316 42.807 216.487 43.187 216.487 43.643C216.487 44.137 216.316 44.5487 215.974 44.878C215.632 45.1947 215.189 45.353 214.644 45.353ZM223.741 57.152C222.664 57.152 221.695 56.9303 220.834 56.487C219.985 56.031 219.32 55.404 218.839 54.606C218.357 53.808 218.117 52.9023 218.117 51.889C218.117 50.8757 218.357 49.97 218.839 49.172C219.32 48.374 219.985 47.7533 220.834 47.31C221.695 46.854 222.664 46.626 223.741 46.626C224.817 46.626 225.78 46.854 226.629 47.31C227.477 47.7533 228.142 48.374 228.624 49.172C229.105 49.97 229.346 50.8757 229.346 51.889C229.346 52.9023 229.105 53.808 228.624 54.606C228.142 55.404 227.477 56.031 226.629 56.487C225.78 56.9303 224.817 57.152 223.741 57.152ZM223.741 54.72C224.501 54.72 225.121 54.4667 225.603 53.96C226.097 53.4407 226.344 52.7503 226.344 51.889C226.344 51.0277 226.097 50.3437 225.603 49.837C225.121 49.3177 224.501 49.058 223.741 49.058C222.981 49.058 222.354 49.3177 221.86 49.837C221.366 50.3437 221.119 51.0277 221.119 51.889C221.119 52.7503 221.366 53.4407 221.86 53.96C222.354 54.4667 222.981 54.72 223.741 54.72ZM237.54 46.626C238.807 46.626 239.826 47.006 240.599 47.766C241.384 48.526 241.777 49.6533 241.777 51.148V57H238.813V51.604C238.813 50.7933 238.636 50.1917 238.281 49.799C237.926 49.3937 237.413 49.191 236.742 49.191C235.995 49.191 235.399 49.4253 234.956 49.894C234.513 50.35 234.291 51.034 234.291 51.946V57H231.327V46.778H234.158V47.975C234.551 47.5443 235.038 47.215 235.621 46.987C236.204 46.7463 236.843 46.626 237.54 46.626ZM253.968 46.626C255.551 46.626 256.767 47.006 257.616 47.766C258.464 48.5133 258.889 49.647 258.889 51.167V57H256.115V55.727C255.557 56.677 254.519 57.152 252.999 57.152C252.213 57.152 251.529 57.019 250.947 56.753C250.377 56.487 249.94 56.1197 249.636 55.651C249.332 55.1823 249.18 54.6503 249.18 54.055C249.18 53.105 249.534 52.3577 250.244 51.813C250.966 51.2683 252.074 50.996 253.569 50.996H255.925C255.925 50.35 255.728 49.856 255.336 49.514C254.943 49.1593 254.354 48.982 253.569 48.982C253.024 48.982 252.486 49.0707 251.954 49.248C251.434 49.4127 250.991 49.6407 250.624 49.932L249.56 47.861C250.117 47.4683 250.782 47.1643 251.555 46.949C252.34 46.7337 253.144 46.626 253.968 46.626ZM253.74 55.157C254.246 55.157 254.696 55.043 255.089 54.815C255.481 54.5743 255.76 54.226 255.925 53.77V52.725H253.892C252.676 52.725 252.068 53.124 252.068 53.922C252.068 54.302 252.213 54.606 252.505 54.834C252.809 55.0493 253.22 55.157 253.74 55.157ZM266.622 57.152C265.533 57.152 264.551 56.9303 263.677 56.487C262.816 56.031 262.138 55.404 261.644 54.606C261.163 53.808 260.922 52.9023 260.922 51.889C260.922 50.8757 261.163 49.97 261.644 49.172C262.138 48.374 262.816 47.7533 263.677 47.31C264.551 46.854 265.533 46.626 266.622 46.626C267.699 46.626 268.636 46.854 269.434 47.31C270.245 47.7533 270.834 48.393 271.201 49.229L268.902 50.464C268.37 49.5267 267.604 49.058 266.603 49.058C265.831 49.058 265.191 49.3113 264.684 49.818C264.178 50.3247 263.924 51.015 263.924 51.889C263.924 52.763 264.178 53.4533 264.684 53.96C265.191 54.4667 265.831 54.72 266.603 54.72C267.617 54.72 268.383 54.2513 268.902 53.314L271.201 54.568C270.834 55.3787 270.245 56.012 269.434 56.468C268.636 56.924 267.699 57.152 266.622 57.152ZM277.718 57.152C276.629 57.152 275.647 56.9303 274.773 56.487C273.912 56.031 273.234 55.404 272.74 54.606C272.259 53.808 272.018 52.9023 272.018 51.889C272.018 50.8757 272.259 49.97 272.74 49.172C273.234 48.374 273.912 47.7533 274.773 47.31C275.647 46.854 276.629 46.626 277.718 46.626C278.795 46.626 279.732 46.854 280.53 47.31C281.341 47.7533 281.93 48.393 282.297 49.229L279.998 50.464C279.466 49.5267 278.7 49.058 277.699 49.058C276.926 49.058 276.287 49.3113 275.78 49.818C275.273 50.3247 275.02 51.015 275.02 51.889C275.02 52.763 275.273 53.4533 275.78 53.96C276.287 54.4667 276.926 54.72 277.699 54.72C278.712 54.72 279.479 54.2513 279.998 53.314L282.297 54.568C281.93 55.3787 281.341 56.012 280.53 56.468C279.732 56.924 278.795 57.152 277.718 57.152ZM288.738 57.152C287.661 57.152 286.692 56.9303 285.831 56.487C284.982 56.031 284.317 55.404 283.836 54.606C283.355 53.808 283.114 52.9023 283.114 51.889C283.114 50.8757 283.355 49.97 283.836 49.172C284.317 48.374 284.982 47.7533 285.831 47.31C286.692 46.854 287.661 46.626 288.738 46.626C289.815 46.626 290.777 46.854 291.626 47.31C292.475 47.7533 293.14 48.374 293.621 49.172C294.102 49.97 294.343 50.8757 294.343 51.889C294.343 52.9023 294.102 53.808 293.621 54.606C293.14 55.404 292.475 56.031 291.626 56.487C290.777 56.9303 289.815 57.152 288.738 57.152ZM288.738 54.72C289.498 54.72 290.119 54.4667 290.6 53.96C291.094 53.4407 291.341 52.7503 291.341 51.889C291.341 51.0277 291.094 50.3437 290.6 49.837C290.119 49.3177 289.498 49.058 288.738 49.058C287.978 49.058 287.351 49.3177 286.857 49.837C286.363 50.3437 286.116 51.0277 286.116 51.889C286.116 52.7503 286.363 53.4407 286.857 53.96C287.351 54.4667 287.978 54.72 288.738 54.72ZM299.155 48.127C299.51 47.633 299.985 47.2593 300.58 47.006C301.188 46.7527 301.885 46.626 302.67 46.626V49.362C302.341 49.3367 302.119 49.324 302.005 49.324C301.156 49.324 300.491 49.5647 300.01 50.046C299.529 50.5147 299.288 51.224 299.288 52.174V57H296.324V46.778H299.155V48.127ZM314.752 42.902V57H311.921V55.822C311.186 56.7087 310.122 57.152 308.729 57.152C307.766 57.152 306.892 56.9367 306.107 56.506C305.334 56.0753 304.726 55.461 304.283 54.663C303.839 53.865 303.618 52.9403 303.618 51.889C303.618 50.8377 303.839 49.913 304.283 49.115C304.726 48.317 305.334 47.7027 306.107 47.272C306.892 46.8413 307.766 46.626 308.729 46.626C310.033 46.626 311.053 47.0377 311.788 47.861V42.902H314.752ZM309.242 54.72C309.989 54.72 310.61 54.4667 311.104 53.96C311.598 53.4407 311.845 52.7503 311.845 51.889C311.845 51.0277 311.598 50.3437 311.104 49.837C310.61 49.3177 309.989 49.058 309.242 49.058C308.482 49.058 307.855 49.3177 307.361 49.837C306.867 50.3437 306.62 51.0277 306.62 51.889C306.62 52.7503 306.867 53.4407 307.361 53.96C307.855 54.4667 308.482 54.72 309.242 54.72ZM317.495 46.778H320.459V57H317.495V46.778ZM318.977 45.353C318.432 45.353 317.989 45.1947 317.647 44.878C317.305 44.5613 317.134 44.1687 317.134 43.7C317.134 43.2313 317.305 42.8387 317.647 42.522C317.989 42.2053 318.432 42.047 318.977 42.047C319.522 42.047 319.965 42.199 320.307 42.503C320.649 42.807 320.82 43.187 320.82 43.643C320.82 44.137 320.649 44.5487 320.307 44.878C319.965 45.1947 319.522 45.353 318.977 45.353ZM329.423 46.626C330.689 46.626 331.709 47.006 332.482 47.766C333.267 48.526 333.66 49.6533 333.66 51.148V57H330.696V51.604C330.696 50.7933 330.518 50.1917 330.164 49.799C329.809 49.3937 329.296 49.191 328.625 49.191C327.877 49.191 327.282 49.4253 326.839 49.894C326.395 50.35 326.174 51.034 326.174 51.946V57H323.21V46.778H326.041V47.975C326.433 47.5443 326.921 47.215 327.504 46.987C328.086 46.7463 328.726 46.626 329.423 46.626ZM347.003 46.778V55.29C347.003 57.1647 346.515 58.558 345.54 59.47C344.565 60.382 343.14 60.838 341.265 60.838C340.277 60.838 339.34 60.7177 338.453 60.477C337.566 60.2363 336.832 59.888 336.249 59.432L337.427 57.304C337.858 57.6587 338.402 57.9373 339.061 58.14C339.72 58.3553 340.378 58.463 341.037 58.463C342.063 58.463 342.817 58.2287 343.298 57.76C343.792 57.304 344.039 56.6073 344.039 55.67V55.233C343.266 56.0817 342.19 56.506 340.809 56.506C339.872 56.506 339.01 56.3033 338.225 55.898C337.452 55.48 336.838 54.8973 336.382 54.15C335.926 53.4027 335.698 52.5413 335.698 51.566C335.698 50.5907 335.926 49.7293 336.382 48.982C336.838 48.2347 337.452 47.6583 338.225 47.253C339.01 46.835 339.872 46.626 340.809 46.626C342.291 46.626 343.418 47.1137 344.191 48.089V46.778H347.003ZM341.398 54.074C342.183 54.074 342.823 53.846 343.317 53.39C343.824 52.9213 344.077 52.3133 344.077 51.566C344.077 50.8187 343.824 50.217 343.317 49.761C342.823 49.2923 342.183 49.058 341.398 49.058C340.613 49.058 339.967 49.2923 339.46 49.761C338.953 50.217 338.7 50.8187 338.7 51.566C338.7 52.3133 338.953 52.9213 339.46 53.39C339.967 53.846 340.613 54.074 341.398 54.074ZM361.735 56.506C361.444 56.7213 361.083 56.886 360.652 57C360.234 57.1013 359.791 57.152 359.322 57.152C358.106 57.152 357.163 56.8417 356.491 56.221C355.833 55.6003 355.503 54.6883 355.503 53.485V49.286H353.926V47.006H355.503V44.517H358.467V47.006H361.013V49.286H358.467V53.447C358.467 53.8777 358.575 54.2133 358.79 54.454C359.018 54.682 359.335 54.796 359.74 54.796C360.209 54.796 360.608 54.6693 360.937 54.416L361.735 56.506ZM367.948 57.152C366.871 57.152 365.902 56.9303 365.041 56.487C364.192 56.031 363.527 55.404 363.046 54.606C362.564 53.808 362.324 52.9023 362.324 51.889C362.324 50.8757 362.564 49.97 363.046 49.172C363.527 48.374 364.192 47.7533 365.041 47.31C365.902 46.854 366.871 46.626 367.948 46.626C369.024 46.626 369.987 46.854 370.836 47.31C371.684 47.7533 372.349 48.374 372.831 49.172C373.312 49.97 373.553 50.8757 373.553 51.889C373.553 52.9023 373.312 53.808 372.831 54.606C372.349 55.404 371.684 56.031 370.836 56.487C369.987 56.9303 369.024 57.152 367.948 57.152ZM367.948 54.72C368.708 54.72 369.328 54.4667 369.81 53.96C370.304 53.4407 370.551 52.7503 370.551 51.889C370.551 51.0277 370.304 50.3437 369.81 49.837C369.328 49.3177 368.708 49.058 367.948 49.058C367.188 49.058 366.561 49.3177 366.067 49.837C365.573 50.3437 365.326 51.0277 365.326 51.889C365.326 52.7503 365.573 53.4407 366.067 53.96C366.561 54.4667 367.188 54.72 367.948 54.72ZM381.124 43.7H384.202V57H381.124V43.7ZM391.728 57.228C390.677 57.228 389.657 57.0887 388.669 56.81C387.694 56.5187 386.909 56.145 386.313 55.689L387.358 53.371C387.928 53.789 388.606 54.1247 389.391 54.378C390.177 54.6313 390.962 54.758 391.747 54.758C392.621 54.758 393.267 54.6313 393.685 54.378C394.103 54.112 394.312 53.7637 394.312 53.333C394.312 53.0163 394.186 52.7567 393.932 52.554C393.692 52.3387 393.375 52.1677 392.982 52.041C392.602 51.9143 392.083 51.775 391.424 51.623C390.411 51.3823 389.581 51.1417 388.935 50.901C388.289 50.6603 387.732 50.274 387.263 49.742C386.807 49.21 386.579 48.5007 386.579 47.614C386.579 46.8413 386.788 46.1447 387.206 45.524C387.624 44.8907 388.251 44.3903 389.087 44.023C389.936 43.6557 390.968 43.472 392.184 43.472C393.033 43.472 393.863 43.5733 394.673 43.776C395.484 43.9787 396.193 44.27 396.801 44.65L395.851 46.987C394.623 46.2903 393.394 45.942 392.165 45.942C391.304 45.942 390.664 46.0813 390.246 46.36C389.841 46.6387 389.638 47.006 389.638 47.462C389.638 47.918 389.873 48.26 390.341 48.488C390.823 48.7033 391.551 48.9187 392.526 49.134C393.54 49.3747 394.369 49.6153 395.015 49.856C395.661 50.0967 396.212 50.4767 396.668 50.996C397.137 51.5153 397.371 52.2183 397.371 53.105C397.371 53.865 397.156 54.5617 396.725 55.195C396.307 55.8157 395.674 56.3097 394.825 56.677C393.977 57.0443 392.944 57.228 391.728 57.228ZM405.915 57.228C404.535 57.228 403.287 56.9303 402.172 56.335C401.07 55.7397 400.203 54.9227 399.569 53.884C398.949 52.8327 398.638 51.6547 398.638 50.35C398.638 49.0453 398.949 47.8737 399.569 46.835C400.203 45.7837 401.07 44.9603 402.172 44.365C403.287 43.7697 404.535 43.472 405.915 43.472C407.296 43.472 408.537 43.7697 409.639 44.365C410.741 44.9603 411.609 45.7837 412.242 46.835C412.876 47.8737 413.192 49.0453 413.192 50.35C413.192 51.6547 412.876 52.8327 412.242 53.884C411.609 54.9227 410.741 55.7397 409.639 56.335C408.537 56.9303 407.296 57.228 405.915 57.228ZM405.915 54.606C406.701 54.606 407.41 54.4287 408.043 54.074C408.677 53.7067 409.171 53.2 409.525 52.554C409.893 51.908 410.076 51.1733 410.076 50.35C410.076 49.5267 409.893 48.792 409.525 48.146C409.171 47.5 408.677 46.9997 408.043 46.645C407.41 46.2777 406.701 46.094 405.915 46.094C405.13 46.094 404.421 46.2777 403.787 46.645C403.154 46.9997 402.654 47.5 402.286 48.146C401.932 48.792 401.754 49.5267 401.754 50.35C401.754 51.1733 401.932 51.908 402.286 52.554C402.654 53.2 403.154 53.7067 403.787 54.074C404.421 54.4287 405.13 54.606 405.915 54.606ZM416.066 53.466C416.598 53.466 417.035 53.637 417.377 53.979C417.719 54.3083 417.89 54.7453 417.89 55.29C417.89 55.5433 417.858 55.7967 417.795 56.05C417.731 56.3033 417.592 56.6833 417.377 57.19L416.294 59.926H414.413L415.249 56.905C414.932 56.7783 414.679 56.5757 414.489 56.297C414.311 56.0057 414.223 55.67 414.223 55.29C414.223 54.7453 414.394 54.3083 414.736 53.979C415.09 53.637 415.534 53.466 416.066 53.466ZM434.475 50.141H437.287V55.537C436.565 56.0817 435.729 56.4997 434.779 56.791C433.829 57.0823 432.873 57.228 431.91 57.228C430.529 57.228 429.288 56.9367 428.186 56.354C427.084 55.7587 426.216 54.9417 425.583 53.903C424.962 52.8517 424.652 51.6673 424.652 50.35C424.652 49.0327 424.962 47.8547 425.583 46.816C426.216 45.7647 427.09 44.9477 428.205 44.365C429.32 43.7697 430.574 43.472 431.967 43.472C433.132 43.472 434.19 43.6683 435.14 44.061C436.09 44.4537 436.888 45.0237 437.534 45.771L435.558 47.595C434.608 46.5943 433.462 46.094 432.119 46.094C431.27 46.094 430.517 46.2713 429.858 46.626C429.199 46.9807 428.686 47.481 428.319 48.127C427.952 48.773 427.768 49.514 427.768 50.35C427.768 51.1733 427.952 51.908 428.319 52.554C428.686 53.2 429.193 53.7067 429.839 54.074C430.498 54.4287 431.245 54.606 432.081 54.606C432.968 54.606 433.766 54.416 434.475 54.036V50.141ZM448.905 54.15H442.73L441.552 57H438.398L444.326 43.7H447.366L453.313 57H450.083L448.905 54.15ZM447.936 51.813L445.827 46.721L443.718 51.813H447.936ZM457.771 46.17V49.685H463.927V52.155H457.771V57H454.693V43.7H464.744V46.17H457.771ZM469.676 46.208H465.42V43.7H477.01V46.208H472.754V57H469.676V46.208ZM486.757 54.15H480.582L479.404 57H476.25L482.178 43.7H485.218L491.165 57H487.935L486.757 54.15ZM485.788 51.813L483.679 46.721L481.57 51.813H485.788ZM494.088 53.466C494.62 53.466 495.057 53.637 495.399 53.979C495.741 54.3083 495.912 54.7453 495.912 55.29C495.912 55.5433 495.88 55.7967 495.817 56.05C495.754 56.3033 495.614 56.6833 495.399 57.19L494.316 59.926H492.435L493.271 56.905C492.954 56.7783 492.701 56.5757 492.511 56.297C492.334 56.0057 492.245 55.67 492.245 55.29C492.245 54.7453 492.416 54.3083 492.758 53.979C493.113 53.637 493.556 53.466 494.088 53.466ZM122.655 69.17V72.685H128.811V75.155H122.655V80H119.577V66.7H129.628V69.17H122.655ZM138.023 80.228C136.642 80.228 135.395 79.9303 134.28 79.335C133.178 78.7397 132.31 77.9227 131.677 76.884C131.056 75.8327 130.746 74.6547 130.746 73.35C130.746 72.0453 131.056 70.8737 131.677 69.835C132.31 68.7837 133.178 67.9603 134.28 67.365C135.395 66.7697 136.642 66.472 138.023 66.472C139.404 66.472 140.645 66.7697 141.747 67.365C142.849 67.9603 143.717 68.7837 144.35 69.835C144.983 70.8737 145.3 72.0453 145.3 73.35C145.3 74.6547 144.983 75.8327 144.35 76.884C143.717 77.9227 142.849 78.7397 141.747 79.335C140.645 79.9303 139.404 80.228 138.023 80.228ZM138.023 77.606C138.808 77.606 139.518 77.4287 140.151 77.074C140.784 76.7067 141.278 76.2 141.633 75.554C142 74.908 142.184 74.1733 142.184 73.35C142.184 72.5267 142 71.792 141.633 71.146C141.278 70.5 140.784 69.9997 140.151 69.645C139.518 69.2777 138.808 69.094 138.023 69.094C137.238 69.094 136.528 69.2777 135.895 69.645C135.262 69.9997 134.761 70.5 134.394 71.146C134.039 71.792 133.862 72.5267 133.862 73.35C133.862 74.1733 134.039 74.908 134.394 75.554C134.761 76.2 135.262 76.7067 135.895 77.074C136.528 77.4287 137.238 77.606 138.023 77.606ZM151.983 80.228C150.932 80.228 149.912 80.0887 148.924 79.81C147.949 79.5187 147.163 79.145 146.568 78.689L147.613 76.371C148.183 76.789 148.861 77.1247 149.646 77.378C150.431 77.6313 151.217 77.758 152.002 77.758C152.876 77.758 153.522 77.6313 153.94 77.378C154.358 77.112 154.567 76.7637 154.567 76.333C154.567 76.0163 154.44 75.7567 154.187 75.554C153.946 75.3387 153.63 75.1677 153.237 75.041C152.857 74.9143 152.338 74.775 151.679 74.623C150.666 74.3823 149.836 74.1417 149.19 73.901C148.544 73.6603 147.987 73.274 147.518 72.742C147.062 72.21 146.834 71.5007 146.834 70.614C146.834 69.8413 147.043 69.1447 147.461 68.524C147.879 67.8907 148.506 67.3903 149.342 67.023C150.191 66.6557 151.223 66.472 152.439 66.472C153.288 66.472 154.117 66.5733 154.928 66.776C155.739 66.9787 156.448 67.27 157.056 67.65L156.106 69.987C154.877 69.2903 153.649 68.942 152.42 68.942C151.559 68.942 150.919 69.0813 150.501 69.36C150.096 69.6387 149.893 70.006 149.893 70.462C149.893 70.918 150.127 71.26 150.596 71.488C151.077 71.7033 151.806 71.9187 152.781 72.134C153.794 72.3747 154.624 72.6153 155.27 72.856C155.916 73.0967 156.467 73.4767 156.923 73.996C157.392 74.5153 157.626 75.2183 157.626 76.105C157.626 76.865 157.411 77.5617 156.98 78.195C156.562 78.8157 155.929 79.3097 155.08 79.677C154.231 80.0443 153.199 80.228 151.983 80.228ZM162.807 69.17V72.685H168.963V75.155H162.807V80H159.729V66.7H169.78V69.17H162.807ZM180.066 77.15H173.891L172.713 80H169.559L175.487 66.7H178.527L184.474 80H181.244L180.066 77.15ZM179.097 74.813L176.988 69.721L174.879 74.813H179.097ZM187.398 76.466C187.93 76.466 188.367 76.637 188.709 76.979C189.051 77.3083 189.222 77.7453 189.222 78.29C189.222 78.5433 189.19 78.7967 189.127 79.05C189.063 79.3033 188.924 79.6833 188.709 80.19L187.626 82.926H185.745L186.581 79.905C186.264 79.7783 186.011 79.5757 185.821 79.297C185.643 79.0057 185.555 78.67 185.555 78.29C185.555 77.7453 185.726 77.3083 186.068 76.979C186.422 76.637 186.866 76.466 187.398 76.466ZM209.702 69.626C210.981 69.626 211.995 70.006 212.742 70.766C213.502 71.5133 213.882 72.6407 213.882 74.148V80H210.918V74.604C210.918 73.7933 210.747 73.1917 210.405 72.799C210.076 72.3937 209.601 72.191 208.98 72.191C208.283 72.191 207.732 72.419 207.327 72.875C206.922 73.3183 206.719 73.9833 206.719 74.87V80H203.755V74.604C203.755 72.9953 203.109 72.191 201.817 72.191C201.133 72.191 200.588 72.419 200.183 72.875C199.778 73.3183 199.575 73.9833 199.575 74.87V80H196.611V69.778H199.442V70.956C199.822 70.5253 200.284 70.196 200.829 69.968C201.386 69.74 201.994 69.626 202.653 69.626C203.375 69.626 204.027 69.7717 204.61 70.063C205.193 70.3417 205.661 70.7533 206.016 71.298C206.434 70.766 206.96 70.3543 207.593 70.063C208.239 69.7717 208.942 69.626 209.702 69.626ZM226.663 74.927C226.663 74.965 226.644 75.231 226.606 75.725H218.873C219.013 76.3583 219.342 76.8587 219.861 77.226C220.381 77.5933 221.027 77.777 221.799 77.777C222.331 77.777 222.8 77.701 223.205 77.549C223.623 77.3843 224.01 77.131 224.364 76.789L225.941 78.499C224.979 79.601 223.573 80.152 221.723 80.152C220.571 80.152 219.551 79.9303 218.664 79.487C217.778 79.031 217.094 78.404 216.612 77.606C216.131 76.808 215.89 75.9023 215.89 74.889C215.89 73.8883 216.125 72.989 216.593 72.191C217.075 71.3803 217.727 70.7533 218.55 70.31C219.386 69.854 220.317 69.626 221.343 69.626C222.344 69.626 223.25 69.8413 224.06 70.272C224.871 70.7027 225.504 71.3233 225.96 72.134C226.429 72.932 226.663 73.863 226.663 74.927ZM221.362 71.868C220.691 71.868 220.127 72.058 219.671 72.438C219.215 72.818 218.937 73.3373 218.835 73.996H223.87C223.769 73.35 223.49 72.837 223.034 72.457C222.578 72.0643 222.021 71.868 221.362 71.868ZM241.728 69.626C243.007 69.626 244.02 70.006 244.768 70.766C245.528 71.5133 245.908 72.6407 245.908 74.148V80H242.944V74.604C242.944 73.7933 242.773 73.1917 242.431 72.799C242.101 72.3937 241.626 72.191 241.006 72.191C240.309 72.191 239.758 72.419 239.353 72.875C238.947 73.3183 238.745 73.9833 238.745 74.87V80H235.781V74.604C235.781 72.9953 235.135 72.191 233.843 72.191C233.159 72.191 232.614 72.419 232.209 72.875C231.803 73.3183 231.601 73.9833 231.601 74.87V80H228.637V69.778H231.468V70.956C231.848 70.5253 232.31 70.196 232.855 69.968C233.412 69.74 234.02 69.626 234.679 69.626C235.401 69.626 236.053 69.7717 236.636 70.063C237.218 70.3417 237.687 70.7533 238.042 71.298C238.46 70.766 238.985 70.3543 239.619 70.063C240.265 69.7717 240.968 69.626 241.728 69.626ZM254.606 69.626C255.556 69.626 256.418 69.8477 257.19 70.291C257.976 70.7217 258.59 71.336 259.033 72.134C259.477 72.9193 259.698 73.8377 259.698 74.889C259.698 75.9403 259.477 76.865 259.033 77.663C258.59 78.4483 257.976 79.0627 257.19 79.506C256.418 79.9367 255.556 80.152 254.606 80.152C253.2 80.152 252.13 79.7087 251.395 78.822V80H248.564V65.902H251.528V70.861C252.276 70.0377 253.302 69.626 254.606 69.626ZM254.093 77.72C254.853 77.72 255.474 77.4667 255.955 76.96C256.449 76.4407 256.696 75.7503 256.696 74.889C256.696 74.0277 256.449 73.3437 255.955 72.837C255.474 72.3177 254.853 72.058 254.093 72.058C253.333 72.058 252.706 72.3177 252.212 72.837C251.731 73.3437 251.49 74.0277 251.49 74.889C251.49 75.7503 251.731 76.4407 252.212 76.96C252.706 77.4667 253.333 77.72 254.093 77.72ZM271.695 74.927C271.695 74.965 271.676 75.231 271.638 75.725H263.905C264.045 76.3583 264.374 76.8587 264.893 77.226C265.413 77.5933 266.059 77.777 266.831 77.777C267.363 77.777 267.832 77.701 268.237 77.549C268.655 77.3843 269.042 77.131 269.396 76.789L270.973 78.499C270.011 79.601 268.605 80.152 266.755 80.152C265.603 80.152 264.583 79.9303 263.696 79.487C262.81 79.031 262.126 78.404 261.644 77.606C261.163 76.808 260.922 75.9023 260.922 74.889C260.922 73.8883 261.157 72.989 261.625 72.191C262.107 71.3803 262.759 70.7533 263.582 70.31C264.418 69.854 265.349 69.626 266.375 69.626C267.376 69.626 268.282 69.8413 269.092 70.272C269.903 70.7027 270.536 71.3233 270.992 72.134C271.461 72.932 271.695 73.863 271.695 74.927ZM266.394 71.868C265.723 71.868 265.159 72.058 264.703 72.438C264.247 72.818 263.969 73.3373 263.867 73.996H268.902C268.801 73.35 268.522 72.837 268.066 72.457C267.61 72.0643 267.053 71.868 266.394 71.868ZM276.5 71.127C276.854 70.633 277.329 70.2593 277.925 70.006C278.533 69.7527 279.229 69.626 280.015 69.626V72.362C279.685 72.3367 279.464 72.324 279.35 72.324C278.501 72.324 277.836 72.5647 277.355 73.046C276.873 73.5147 276.633 74.224 276.633 75.174V80H273.669V69.778H276.5V71.127ZM285.253 80.152C284.405 80.152 283.575 80.0507 282.764 79.848C281.954 79.6327 281.308 79.3667 280.826 79.05L281.814 76.922C282.27 77.2133 282.821 77.454 283.467 77.644C284.113 77.8213 284.747 77.91 285.367 77.91C286.621 77.91 287.248 77.5997 287.248 76.979C287.248 76.6877 287.077 76.4787 286.735 76.352C286.393 76.2253 285.868 76.1177 285.158 76.029C284.322 75.9023 283.632 75.7567 283.087 75.592C282.543 75.4273 282.068 75.136 281.662 74.718C281.27 74.3 281.073 73.7047 281.073 72.932C281.073 72.286 281.257 71.716 281.624 71.222C282.004 70.7153 282.549 70.3227 283.258 70.044C283.98 69.7653 284.829 69.626 285.804 69.626C286.526 69.626 287.242 69.7083 287.951 69.873C288.673 70.025 289.269 70.2403 289.737 70.519L288.749 72.628C287.85 72.1213 286.868 71.868 285.804 71.868C285.171 71.868 284.696 71.9567 284.379 72.134C284.063 72.3113 283.904 72.5393 283.904 72.818C283.904 73.1347 284.075 73.3563 284.417 73.483C284.759 73.6097 285.304 73.73 286.051 73.844C286.887 73.9833 287.571 74.1353 288.103 74.3C288.635 74.452 289.098 74.737 289.49 75.155C289.883 75.573 290.079 76.1557 290.079 76.903C290.079 77.5363 289.889 78.1 289.509 78.594C289.129 79.088 288.572 79.4743 287.837 79.753C287.115 80.019 286.254 80.152 285.253 80.152ZM298.121 69.626C299.388 69.626 300.407 70.006 301.18 70.766C301.965 71.526 302.358 72.6533 302.358 74.148V80H299.394V74.604C299.394 73.7933 299.217 73.1917 298.862 72.799C298.507 72.3937 297.994 72.191 297.323 72.191C296.576 72.191 295.98 72.4253 295.537 72.894C295.094 73.35 294.872 74.034 294.872 74.946V80H291.908V65.902H294.872V70.842C295.265 70.4493 295.74 70.1517 296.297 69.949C296.854 69.7337 297.462 69.626 298.121 69.626ZM305.045 69.778H308.009V80H305.045V69.778ZM306.527 68.353C305.982 68.353 305.539 68.1947 305.197 67.878C304.855 67.5613 304.684 67.1687 304.684 66.7C304.684 66.2313 304.855 65.8387 305.197 65.522C305.539 65.2053 305.982 65.047 306.527 65.047C307.071 65.047 307.515 65.199 307.857 65.503C308.199 65.807 308.37 66.187 308.37 66.643C308.37 67.137 308.199 67.5487 307.857 67.878C307.515 68.1947 307.071 68.353 306.527 68.353ZM316.802 69.626C317.752 69.626 318.613 69.8477 319.386 70.291C320.171 70.7217 320.785 71.336 321.229 72.134C321.672 72.9193 321.894 73.8377 321.894 74.889C321.894 75.9403 321.672 76.865 321.229 77.663C320.785 78.4483 320.171 79.0627 319.386 79.506C318.613 79.9367 317.752 80.152 316.802 80.152C315.497 80.152 314.471 79.7403 313.724 78.917V83.686H310.76V69.778H313.591V70.956C314.325 70.0693 315.396 69.626 316.802 69.626ZM316.289 77.72C317.049 77.72 317.669 77.4667 318.151 76.96C318.645 76.4407 318.892 75.7503 318.892 74.889C318.892 74.0277 318.645 73.3437 318.151 72.837C317.669 72.3177 317.049 72.058 316.289 72.058C315.529 72.058 314.902 72.3177 314.408 72.837C313.926 73.3437 313.686 74.0277 313.686 74.889C313.686 75.7503 313.926 76.4407 314.408 76.96C314.902 77.4667 315.529 77.72 316.289 77.72ZM329.259 69.778H332.223V80H329.259V69.778ZM330.741 68.353C330.196 68.353 329.753 68.1947 329.411 67.878C329.069 67.5613 328.898 67.1687 328.898 66.7C328.898 66.2313 329.069 65.8387 329.411 65.522C329.753 65.2053 330.196 65.047 330.741 65.047C331.285 65.047 331.729 65.199 332.071 65.503C332.413 65.807 332.584 66.187 332.584 66.643C332.584 67.137 332.413 67.5487 332.071 67.878C331.729 68.1947 331.285 68.353 330.741 68.353ZM341.186 69.626C342.453 69.626 343.473 70.006 344.245 70.766C345.031 71.526 345.423 72.6533 345.423 74.148V80H342.459V74.604C342.459 73.7933 342.282 73.1917 341.927 72.799C341.573 72.3937 341.06 72.191 340.388 72.191C339.641 72.191 339.046 72.4253 338.602 72.894C338.159 73.35 337.937 74.034 337.937 74.946V80H334.973V69.778H337.804V70.975C338.197 70.5443 338.685 70.215 339.267 69.987C339.85 69.7463 340.49 69.626 341.186 69.626ZM356.455 69.208H352.199V66.7H363.789V69.208H359.533V80H356.455V69.208ZM365.445 66.7H368.523V80H365.445V66.7ZM378.045 80.228C376.689 80.228 375.461 79.9367 374.359 79.354C373.269 78.7587 372.408 77.9417 371.775 76.903C371.154 75.8517 370.844 74.6673 370.844 73.35C370.844 72.0327 371.154 70.8547 371.775 69.816C372.408 68.7647 373.269 67.9477 374.359 67.365C375.461 66.7697 376.696 66.472 378.064 66.472C379.216 66.472 380.255 66.6747 381.18 67.08C382.117 67.4853 382.902 68.068 383.536 68.828L381.56 70.652C380.66 69.6133 379.546 69.094 378.216 69.094C377.392 69.094 376.658 69.2777 376.012 69.645C375.366 69.9997 374.859 70.5 374.492 71.146C374.137 71.792 373.96 72.5267 373.96 73.35C373.96 74.1733 374.137 74.908 374.492 75.554C374.859 76.2 375.366 76.7067 376.012 77.074C376.658 77.4287 377.392 77.606 378.216 77.606C379.546 77.606 380.66 77.0803 381.56 76.029L383.536 77.853C382.902 78.6257 382.117 79.2147 381.18 79.62C380.242 80.0253 379.197 80.228 378.045 80.228ZM397.36 80.228C396.005 80.228 394.776 79.9367 393.674 79.354C392.585 78.7587 391.723 77.9417 391.09 76.903C390.469 75.8517 390.159 74.6673 390.159 73.35C390.159 72.0327 390.469 70.8547 391.09 69.816C391.723 68.7647 392.585 67.9477 393.674 67.365C394.776 66.7697 396.011 66.472 397.379 66.472C398.532 66.472 399.57 66.6747 400.495 67.08C401.432 67.4853 402.218 68.068 402.851 68.828L400.875 70.652C399.976 69.6133 398.861 69.094 397.531 69.094C396.708 69.094 395.973 69.2777 395.327 69.645C394.681 69.9997 394.174 70.5 393.807 71.146C393.452 71.792 393.275 72.5267 393.275 73.35C393.275 74.1733 393.452 74.908 393.807 75.554C394.174 76.2 394.681 76.7067 395.327 77.074C395.973 77.4287 396.708 77.606 397.531 77.606C398.861 77.606 399.976 77.0803 400.875 76.029L402.851 77.853C402.218 78.6257 401.432 79.2147 400.495 79.62C399.558 80.0253 398.513 80.228 397.36 80.228ZM409.232 80.152C408.155 80.152 407.186 79.9303 406.325 79.487C405.476 79.031 404.811 78.404 404.33 77.606C403.849 76.808 403.608 75.9023 403.608 74.889C403.608 73.8757 403.849 72.97 404.33 72.172C404.811 71.374 405.476 70.7533 406.325 70.31C407.186 69.854 408.155 69.626 409.232 69.626C410.309 69.626 411.271 69.854 412.12 70.31C412.969 70.7533 413.634 71.374 414.115 72.172C414.596 72.97 414.837 73.8757 414.837 74.889C414.837 75.9023 414.596 76.808 414.115 77.606C413.634 78.404 412.969 79.031 412.12 79.487C411.271 79.9303 410.309 80.152 409.232 80.152ZM409.232 77.72C409.992 77.72 410.613 77.4667 411.094 76.96C411.588 76.4407 411.835 75.7503 411.835 74.889C411.835 74.0277 411.588 73.3437 411.094 72.837C410.613 72.3177 409.992 72.058 409.232 72.058C408.472 72.058 407.845 72.3177 407.351 72.837C406.857 73.3437 406.61 74.0277 406.61 74.889C406.61 75.7503 406.857 76.4407 407.351 76.96C407.845 77.4667 408.472 77.72 409.232 77.72ZM427.116 69.778V80H424.304V78.784C423.912 79.2273 423.443 79.5693 422.898 79.81C422.354 80.038 421.765 80.152 421.131 80.152C419.789 80.152 418.725 79.7657 417.939 78.993C417.154 78.2203 416.761 77.074 416.761 75.554V69.778H419.725V75.117C419.725 76.7637 420.416 77.587 421.796 77.587C422.506 77.587 423.076 77.359 423.506 76.903C423.937 76.4343 424.152 75.744 424.152 74.832V69.778H427.116ZM436.075 69.626C437.342 69.626 438.361 70.006 439.134 70.766C439.919 71.526 440.312 72.6533 440.312 74.148V80H437.348V74.604C437.348 73.7933 437.171 73.1917 436.816 72.799C436.461 72.3937 435.948 72.191 435.277 72.191C434.53 72.191 433.934 72.4253 433.491 72.894C433.048 73.35 432.826 74.034 432.826 74.946V80H429.862V69.778H432.693V70.975C433.086 70.5443 433.573 70.215 434.156 69.987C434.739 69.7463 435.378 69.626 436.075 69.626ZM448.05 80.152C446.961 80.152 445.979 79.9303 445.105 79.487C444.244 79.031 443.566 78.404 443.072 77.606C442.591 76.808 442.35 75.9023 442.35 74.889C442.35 73.8757 442.591 72.97 443.072 72.172C443.566 71.374 444.244 70.7533 445.105 70.31C445.979 69.854 446.961 69.626 448.05 69.626C449.127 69.626 450.064 69.854 450.862 70.31C451.673 70.7533 452.262 71.393 452.629 72.229L450.33 73.464C449.798 72.5267 449.032 72.058 448.031 72.058C447.259 72.058 446.619 72.3113 446.112 72.818C445.606 73.3247 445.352 74.015 445.352 74.889C445.352 75.763 445.606 76.4533 446.112 76.96C446.619 77.4667 447.259 77.72 448.031 77.72C449.045 77.72 449.811 77.2513 450.33 76.314L452.629 77.568C452.262 78.3787 451.673 79.012 450.862 79.468C450.064 79.924 449.127 80.152 448.05 80.152ZM454.336 69.778H457.3V80H454.336V69.778ZM455.818 68.353C455.273 68.353 454.83 68.1947 454.488 67.878C454.146 67.5613 453.975 67.1687 453.975 66.7C453.975 66.2313 454.146 65.8387 454.488 65.522C454.83 65.2053 455.273 65.047 455.818 65.047C456.362 65.047 456.806 65.199 457.148 65.503C457.49 65.807 457.661 66.187 457.661 66.643C457.661 67.137 457.49 67.5487 457.148 67.878C456.806 68.1947 456.362 68.353 455.818 68.353ZM460.051 65.902H463.015V80H460.051V65.902Z" fill="white"/>
</svg>
