<svg width="645" height="135" viewBox="0 0 645 135" fill="none" xmlns="http://www.w3.org/2000/svg">
<rect x="32.5386" y="17.1543" width="612.316" height="101.436" fill="#3E4671"/>
<path d="M137.716 67.5C137.716 103.61 107.4 133 69.8582 133C32.3158 133 2 103.61 2 67.5C2 31.3895 32.3158 2 69.8582 2C107.4 2 137.716 31.3895 137.716 67.5Z" fill="white" stroke="#3E4671" stroke-width="4"/>
<g clip-path="url(#clip0)">
<path d="M98.5495 79.6483C98.6737 79.4053 98.738 79.1375 98.7371 78.8662C98.7363 78.5949 98.6704 78.3274 98.5447 78.0852L96.2235 74.7988C96.1799 74.7376 96.1556 74.667 96.1556 74.587C96.1556 74.5069 96.1799 74.4363 96.2235 74.3751L98.5495 71.0793C98.6737 70.8363 98.738 70.5685 98.7371 70.2972C98.7363 70.0259 98.6704 69.7585 98.5447 69.5162C98.4482 69.261 98.2961 69.0292 98.0987 68.8366C97.9012 68.644 97.6633 68.4951 97.401 68.4004L93.4128 66.9832C93.3392 66.9588 93.2735 66.9159 93.2224 66.8588C93.1714 66.8018 93.1367 66.7326 93.1221 66.6583V62.6987C93.1067 62.4186 93.0247 62.1457 92.8826 61.9015C92.7406 61.6572 92.5422 61.4483 92.3031 61.2909C91.9734 61.072 91.5831 60.9554 91.1837 60.9567H90.3599L86.2409 61.9925C86.1305 62.0357 86.0072 62.0357 85.8968 61.9925L83.2364 58.9321C83.0421 58.727 82.8062 58.5632 82.5434 58.4511C82.2807 58.3391 81.9969 58.2812 81.7099 58.2812C81.423 58.2812 81.1392 58.3391 80.8764 58.4511C80.6137 58.5632 80.3777 58.727 80.1835 58.9321L77.5182 61.9925C77.4078 62.0357 77.2845 62.0357 77.1741 61.9925H77.179L72.8176 60.9096H72.2943C71.8904 60.9084 71.4954 61.0248 71.1603 61.2439C70.9233 61.4017 70.7267 61.6103 70.5855 61.8535C70.4444 62.0967 70.3625 62.3682 70.3462 62.6469V66.6065C70.3323 66.6809 70.2986 66.7505 70.2485 66.8083C70.1983 66.8661 70.1334 66.9102 70.0603 66.9361L66.0818 68.3486C65.6268 68.4208 65.2127 68.6472 64.9129 68.9875C64.6131 69.3279 64.447 69.7603 64.4439 70.2083C64.4439 70.4908 64.5117 70.7592 64.6329 70.9946L66.9541 74.2809C66.9977 74.3421 67.0219 74.4128 67.0219 74.4928C67.0219 74.5728 66.9977 74.6435 66.9541 74.7047L64.628 78.0004C64.5038 78.2434 64.4396 78.5112 64.4404 78.7825C64.4413 79.0539 64.5072 79.3213 64.6329 79.5635C64.7293 79.8187 64.8815 80.0506 65.0789 80.2432C65.2763 80.4358 65.5143 80.5846 65.7765 80.6794L69.7647 82.0966C69.8384 82.121 69.9041 82.1639 69.9551 82.2209C70.0062 82.278 70.0408 82.3472 70.0555 82.4214V86.3811C70.0709 86.6612 70.1528 86.9341 70.2949 87.1783C70.437 87.4225 70.6353 87.6315 70.8744 87.7888C71.2095 88.0078 71.6045 88.1243 72.0084 88.1231H72.8225L74.3247 87.7935V105.167L81.739 95.7504L88.8625 105.167V87.7935L90.3648 88.1702H90.9366C91.3404 88.1713 91.7354 88.0549 92.0705 87.8359C92.3076 87.678 92.5042 87.4695 92.6453 87.2262C92.7865 86.983 92.8683 86.7116 92.8846 86.4328V82.4732C92.8985 82.3988 92.9322 82.3293 92.9824 82.2714C93.0326 82.2136 93.0974 82.1696 93.1705 82.1437L97.1491 80.7312C97.4527 80.6729 97.7379 80.5458 97.9812 80.36C98.2246 80.1743 98.4194 79.9352 98.5495 79.6624V79.6483Z" fill="#3E4671"/>
<path d="M30.7069 34.542V91.0406H69.4743L68.9413 90.8052C68.2511 90.346 67.6783 89.7393 67.2667 89.0318C66.8551 88.3242 66.6157 87.5345 66.5668 86.7232V86.3324H35.5528V39.2502H103.396V86.3324H96.4662V86.709C96.4191 87.5194 96.1826 88.3086 95.7745 89.0167C95.3664 89.7249 94.7975 90.3333 94.111 90.7958L93.704 91.0406H108.242V34.542H30.7069Z" fill="#3E4671"/>
<path d="M66.7121 62.3679C66.728 61.525 66.9498 60.6978 67.3592 59.9545C67.7687 59.2113 68.3541 58.5732 69.0672 58.0928C69.2019 58.0585 69.3429 58.0553 69.4791 58.0834H45.2446V62.7916H66.7121V62.3679Z" fill="#3E4671"/>
<path d="M61.8177 67.5H45.2446V72.2082H61.527C61.1933 71.608 60.9999 70.9436 60.9605 70.2625C60.9212 69.5814 61.0368 68.9002 61.2992 68.2674C61.3764 67.9615 61.5595 67.6905 61.8177 67.5Z" fill="#3E4671"/>
<path d="M45.2446 48.667H93.7039V53.3752H45.2446V48.667Z" fill="#3E4671"/>
</g>
<path d="M162.079 62.2329V68.0499H158.929V65.0049H148.555V68.0499H145.405L145.426 62.2329H146.014C146.896 62.2049 147.519 61.5609 147.883 60.3009C148.247 59.0409 148.471 57.2419 148.555 54.9039L148.723 50.3049H160.021V62.2329H162.079ZM151.558 55.2189C151.488 56.9689 151.341 58.4389 151.117 59.6289C150.893 60.8049 150.55 61.6729 150.088 62.2329H156.661V53.0769H151.621L151.558 55.2189ZM164.117 53.7069H167.372V60.4269L172.874 53.7069H175.877V65.0049H172.622V58.2849L167.141 65.0049H164.117V53.7069ZM190.261 53.7069V65.0049H186.985V56.3949H182.281V65.0049H179.026V53.7069H190.261ZM204.238 53.7069V65.0049H200.962V56.3949H197.392L197.287 58.3899C197.231 59.8739 197.091 61.1059 196.867 62.0859C196.643 63.0659 196.279 63.8359 195.775 64.3959C195.271 64.9559 194.571 65.2359 193.675 65.2359C193.199 65.2359 192.632 65.1519 191.974 64.9839L192.142 62.2959C192.366 62.3239 192.527 62.3379 192.625 62.3379C193.115 62.3379 193.479 62.1629 193.717 61.8129C193.969 61.4489 194.137 60.9939 194.221 60.4479C194.305 59.8879 194.368 59.1529 194.41 58.2429L194.578 53.7069H204.238ZM212.681 65.1729C211.491 65.1729 210.42 64.9279 209.468 64.4379C208.53 63.9339 207.795 63.2409 207.263 62.3589C206.731 61.4769 206.465 60.4759 206.465 59.3559C206.465 58.2359 206.731 57.2349 207.263 56.3529C207.795 55.4709 208.53 54.7849 209.468 54.2949C210.42 53.7909 211.491 53.5389 212.681 53.5389C213.871 53.5389 214.935 53.7909 215.873 54.2949C216.811 54.7849 217.546 55.4709 218.078 56.3529C218.61 57.2349 218.876 58.2359 218.876 59.3559C218.876 60.4759 218.61 61.4769 218.078 62.3589C217.546 63.2409 216.811 63.9339 215.873 64.4379C214.935 64.9279 213.871 65.1729 212.681 65.1729ZM212.681 62.4849C213.521 62.4849 214.207 62.2049 214.739 61.6449C215.285 61.0709 215.558 60.3079 215.558 59.3559C215.558 58.4039 215.285 57.6479 214.739 57.0879C214.207 56.5139 213.521 56.2269 212.681 56.2269C211.841 56.2269 211.148 56.5139 210.602 57.0879C210.056 57.6479 209.783 58.4039 209.783 59.3559C209.783 60.3079 210.056 61.0709 210.602 61.6449C211.148 62.2049 211.841 62.4849 212.681 62.4849ZM232.154 65.0049V58.2429L228.773 63.9129H227.387L224.09 58.2219V65.0049H221.129V53.7069H224.552L228.164 60.2379L232.007 53.7069H235.073L235.115 65.0049H232.154ZM243.545 65.1729C242.355 65.1729 241.284 64.9279 240.332 64.4379C239.394 63.9339 238.659 63.2409 238.127 62.3589C237.595 61.4769 237.329 60.4759 237.329 59.3559C237.329 58.2359 237.595 57.2349 238.127 56.3529C238.659 55.4709 239.394 54.7849 240.332 54.2949C241.284 53.7909 242.355 53.5389 243.545 53.5389C244.735 53.5389 245.799 53.7909 246.737 54.2949C247.675 54.7849 248.41 55.4709 248.942 56.3529C249.474 57.2349 249.74 58.2359 249.74 59.3559C249.74 60.4759 249.474 61.4769 248.942 62.3589C248.41 63.2409 247.675 63.9339 246.737 64.4379C245.799 64.9279 244.735 65.1729 243.545 65.1729ZM243.545 62.4849C244.385 62.4849 245.071 62.2049 245.603 61.6449C246.149 61.0709 246.422 60.3079 246.422 59.3559C246.422 58.4039 246.149 57.6479 245.603 57.0879C245.071 56.5139 244.385 56.2269 243.545 56.2269C242.705 56.2269 242.012 56.5139 241.466 57.0879C240.92 57.6479 240.647 58.4039 240.647 59.3559C240.647 60.3079 240.92 61.0709 241.466 61.6449C242.012 62.2049 242.705 62.4849 243.545 62.4849ZM260.624 59.1039C261.954 59.5519 262.619 60.4479 262.619 61.7919C262.619 62.8139 262.234 63.6049 261.464 64.1649C260.694 64.7249 259.546 65.0049 258.02 65.0049H251.993V53.7069H257.768C259.182 53.7069 260.288 53.9659 261.086 54.4839C261.884 54.9879 262.283 55.7019 262.283 56.6259C262.283 57.1859 262.136 57.6829 261.842 58.1169C261.562 58.5369 261.156 58.8659 260.624 59.1039ZM254.996 58.3479H257.474C258.622 58.3479 259.196 57.9419 259.196 57.1299C259.196 56.3319 258.622 55.9329 257.474 55.9329H254.996V58.3479ZM257.747 62.7789C258.951 62.7789 259.553 62.3659 259.553 61.5399C259.553 61.1059 259.413 60.7909 259.133 60.5949C258.853 60.3849 258.412 60.2799 257.81 60.2799H254.996V62.7789H257.747ZM269.446 53.5389C271.196 53.5389 272.54 53.9589 273.478 54.7989C274.416 55.6249 274.885 56.8779 274.885 58.5579V65.0049H271.819V63.5979C271.203 64.6479 270.055 65.1729 268.375 65.1729C267.507 65.1729 266.751 65.0259 266.107 64.7319C265.477 64.4379 264.994 64.0319 264.658 63.5139C264.322 62.9959 264.154 62.4079 264.154 61.7499C264.154 60.6999 264.546 59.8739 265.33 59.2719C266.128 58.6699 267.353 58.3689 269.005 58.3689H271.609C271.609 57.6549 271.392 57.1089 270.958 56.7309C270.524 56.3389 269.873 56.1429 269.005 56.1429C268.403 56.1429 267.808 56.2409 267.22 56.4369C266.646 56.6189 266.156 56.8709 265.75 57.1929L264.574 54.9039C265.19 54.4699 265.925 54.1339 266.779 53.8959C267.647 53.6579 268.536 53.5389 269.446 53.5389ZM269.194 62.9679C269.754 62.9679 270.251 62.8419 270.685 62.5899C271.119 62.3239 271.427 61.9389 271.609 61.4349V60.2799H269.362C268.018 60.2799 267.346 60.7209 267.346 61.6029C267.346 62.0229 267.507 62.3589 267.829 62.6109C268.165 62.8489 268.62 62.9679 269.194 62.9679ZM277.73 53.7069H280.985V58.1169H285.899V53.7069H289.175V65.0049H285.899V60.7839H280.985V65.0049H277.73V53.7069ZM292.29 53.7069H295.566V65.0049H292.29V53.7069ZM293.928 52.1319C293.326 52.1319 292.836 51.9569 292.458 51.6069C292.08 51.2569 291.891 50.8229 291.891 50.3049C291.891 49.7869 292.08 49.3529 292.458 49.0029C292.836 48.6529 293.326 48.4779 293.928 48.4779C294.53 48.4779 295.02 48.6459 295.398 48.9819C295.776 49.3179 295.965 49.7379 295.965 50.2419C295.965 50.7879 295.776 51.2429 295.398 51.6069C295.02 51.9569 294.53 52.1319 293.928 52.1319ZM315.64 59.3979C315.64 59.4399 315.619 59.7339 315.577 60.2799H307.03C307.184 60.9799 307.548 61.5329 308.122 61.9389C308.696 62.3449 309.41 62.5479 310.264 62.5479C310.852 62.5479 311.37 62.4639 311.818 62.2959C312.28 62.1139 312.707 61.8339 313.099 61.4559L314.842 63.3459C313.778 64.5639 312.224 65.1729 310.18 65.1729C308.906 65.1729 307.779 64.9279 306.799 64.4379C305.819 63.9339 305.063 63.2409 304.531 62.3589C303.999 61.4769 303.733 60.4759 303.733 59.3559C303.733 58.2499 303.992 57.2559 304.51 56.3739C305.042 55.4779 305.763 54.7849 306.673 54.2949C307.597 53.7909 308.626 53.5389 309.76 53.5389C310.866 53.5389 311.867 53.7769 312.763 54.2529C313.659 54.7289 314.359 55.4149 314.863 56.3109C315.381 57.1929 315.64 58.2219 315.64 59.3979ZM309.781 56.0169C309.039 56.0169 308.416 56.2269 307.912 56.6469C307.408 57.0669 307.1 57.6409 306.988 58.3689H312.553C312.441 57.6549 312.133 57.0879 311.629 56.6679C311.125 56.2339 310.509 56.0169 309.781 56.0169ZM323.128 60.7209H321.427V65.0049H318.151V53.7069H321.427V58.0959H323.191L326.257 53.7069H329.743L325.795 59.1249L330.016 65.0049H326.152L323.128 60.7209ZM336.652 65.1729C335.448 65.1729 334.363 64.9279 333.397 64.4379C332.445 63.9339 331.696 63.2409 331.15 62.3589C330.618 61.4769 330.352 60.4759 330.352 59.3559C330.352 58.2359 330.618 57.2349 331.15 56.3529C331.696 55.4709 332.445 54.7849 333.397 54.2949C334.363 53.7909 335.448 53.5389 336.652 53.5389C337.842 53.5389 338.878 53.7909 339.76 54.2949C340.656 54.7849 341.307 55.4919 341.713 56.4159L339.172 57.7809C338.584 56.7449 337.737 56.2269 336.631 56.2269C335.777 56.2269 335.07 56.5069 334.51 57.0669C333.95 57.6269 333.67 58.3899 333.67 59.3559C333.67 60.3219 333.95 61.0849 334.51 61.6449C335.07 62.2049 335.777 62.4849 336.631 62.4849C337.751 62.4849 338.598 61.9669 339.172 60.9309L341.713 62.3169C341.307 63.2129 340.656 63.9129 339.76 64.4169C338.878 64.9209 337.842 65.1729 336.652 65.1729ZM354.939 53.7069V65.0049H351.663V56.3949H346.959V65.0049H343.704V53.7069H354.939ZM369.063 59.3979C369.063 59.4399 369.042 59.7339 369 60.2799H360.453C360.607 60.9799 360.971 61.5329 361.545 61.9389C362.119 62.3449 362.833 62.5479 363.687 62.5479C364.275 62.5479 364.793 62.4639 365.241 62.2959C365.703 62.1139 366.13 61.8339 366.522 61.4559L368.265 63.3459C367.201 64.5639 365.647 65.1729 363.603 65.1729C362.329 65.1729 361.202 64.9279 360.222 64.4379C359.242 63.9339 358.486 63.2409 357.954 62.3589C357.422 61.4769 357.156 60.4759 357.156 59.3559C357.156 58.2499 357.415 57.2559 357.933 56.3739C358.465 55.4779 359.186 54.7849 360.096 54.2949C361.02 53.7909 362.049 53.5389 363.183 53.5389C364.289 53.5389 365.29 53.7769 366.186 54.2529C367.082 54.7289 367.782 55.4149 368.286 56.3109C368.804 57.1929 369.063 58.2219 369.063 59.3979ZM363.204 56.0169C362.462 56.0169 361.839 56.2269 361.335 56.6469C360.831 57.0669 360.523 57.6409 360.411 58.3689H365.976C365.864 57.6549 365.556 57.0879 365.052 56.6679C364.548 56.2339 363.932 56.0169 363.204 56.0169ZM378.231 53.5389C379.281 53.5389 380.233 53.7839 381.087 54.2739C381.955 54.7499 382.634 55.4289 383.124 56.3109C383.614 57.1789 383.859 58.1939 383.859 59.3559C383.859 60.5179 383.614 61.5399 383.124 62.4219C382.634 63.2899 381.955 63.9689 381.087 64.4589C380.233 64.9349 379.281 65.1729 378.231 65.1729C376.789 65.1729 375.655 64.7179 374.829 63.8079V69.0789H371.553V53.7069H374.682V55.0089C375.494 54.0289 376.677 53.5389 378.231 53.5389ZM377.664 62.4849C378.504 62.4849 379.19 62.2049 379.722 61.6449C380.268 61.0709 380.541 60.3079 380.541 59.3559C380.541 58.4039 380.268 57.6479 379.722 57.0879C379.19 56.5139 378.504 56.2269 377.664 56.2269C376.824 56.2269 376.131 56.5139 375.585 57.0879C375.053 57.6479 374.787 58.4039 374.787 59.3559C374.787 60.3079 375.053 61.0709 375.585 61.6449C376.131 62.2049 376.824 62.4849 377.664 62.4849ZM395.237 56.3949H391.415V65.0049H388.16V56.3949H384.338V53.7069H395.237V56.3949ZM396.983 53.7069H400.238V60.4269L405.74 53.7069H408.743V65.0049H405.488V58.2849L400.007 65.0049H396.983V53.7069ZM427.332 56.3949H423.51V65.0049H420.255V56.3949H416.433V53.7069H427.332V56.3949ZM433.467 53.5389C435.217 53.5389 436.561 53.9589 437.499 54.7989C438.437 55.6249 438.906 56.8779 438.906 58.5579V65.0049H435.84V63.5979C435.224 64.6479 434.076 65.1729 432.396 65.1729C431.528 65.1729 430.772 65.0259 430.128 64.7319C429.498 64.4379 429.015 64.0319 428.679 63.5139C428.343 62.9959 428.175 62.4079 428.175 61.7499C428.175 60.6999 428.567 59.8739 429.351 59.2719C430.149 58.6699 431.374 58.3689 433.026 58.3689H435.63C435.63 57.6549 435.413 57.1089 434.979 56.7309C434.545 56.3389 433.894 56.1429 433.026 56.1429C432.424 56.1429 431.829 56.2409 431.241 56.4369C430.667 56.6189 430.177 56.8709 429.771 57.1929L428.595 54.9039C429.211 54.4699 429.946 54.1339 430.8 53.8959C431.668 53.6579 432.557 53.5389 433.467 53.5389ZM433.215 62.9679C433.775 62.9679 434.272 62.8419 434.706 62.5899C435.14 62.3239 435.448 61.9389 435.63 61.4349V60.2799H433.383C432.039 60.2799 431.367 60.7209 431.367 61.6029C431.367 62.0229 431.528 62.3589 431.85 62.6109C432.186 62.8489 432.641 62.9679 433.215 62.9679ZM456.33 59.1039C457.66 59.5519 458.325 60.4479 458.325 61.7919C458.325 62.8139 457.94 63.6049 457.17 64.1649C456.4 64.7249 455.252 65.0049 453.726 65.0049H447.699V53.7069H453.474C454.888 53.7069 455.994 53.9659 456.792 54.4839C457.59 54.9879 457.989 55.7019 457.989 56.6259C457.989 57.1859 457.842 57.6829 457.548 58.1169C457.268 58.5369 456.862 58.8659 456.33 59.1039ZM450.702 58.3479H453.18C454.328 58.3479 454.902 57.9419 454.902 57.1299C454.902 56.3319 454.328 55.9329 453.18 55.9329H450.702V58.3479ZM453.453 62.7789C454.657 62.7789 455.259 62.3659 455.259 61.5399C455.259 61.1059 455.119 60.7909 454.839 60.5949C454.559 60.3849 454.118 60.2799 453.516 60.2799H450.702V62.7789H453.453ZM471.599 53.7069V65.0049H468.323V56.3949H464.753L464.648 58.3899C464.592 59.8739 464.452 61.1059 464.228 62.0859C464.004 63.0659 463.64 63.8359 463.136 64.3959C462.632 64.9559 461.932 65.2359 461.036 65.2359C460.56 65.2359 459.993 65.1519 459.335 64.9839L459.503 62.2959C459.727 62.3239 459.888 62.3379 459.986 62.3379C460.476 62.3379 460.84 62.1629 461.078 61.8129C461.33 61.4489 461.498 60.9939 461.582 60.4479C461.666 59.8879 461.729 59.1529 461.771 58.2429L461.939 53.7069H471.599ZM479.138 53.5389C480.888 53.5389 482.232 53.9589 483.17 54.7989C484.108 55.6249 484.577 56.8779 484.577 58.5579V65.0049H481.511V63.5979C480.895 64.6479 479.747 65.1729 478.067 65.1729C477.199 65.1729 476.443 65.0259 475.799 64.7319C475.169 64.4379 474.686 64.0319 474.35 63.5139C474.014 62.9959 473.846 62.4079 473.846 61.7499C473.846 60.6999 474.238 59.8739 475.022 59.2719C475.82 58.6699 477.045 58.3689 478.697 58.3689H481.301C481.301 57.6549 481.084 57.1089 480.65 56.7309C480.216 56.3389 479.565 56.1429 478.697 56.1429C478.095 56.1429 477.5 56.2409 476.912 56.4369C476.338 56.6189 475.848 56.8709 475.442 57.1929L474.266 54.9039C474.882 54.4699 475.617 54.1339 476.471 53.8959C477.339 53.6579 478.228 53.5389 479.138 53.5389ZM478.886 62.9679C479.446 62.9679 479.943 62.8419 480.377 62.5899C480.811 62.3239 481.119 61.9389 481.301 61.4349V60.2799H479.054C477.71 60.2799 477.038 60.7209 477.038 61.6029C477.038 62.0229 477.199 62.3589 477.521 62.6109C477.857 62.8489 478.312 62.9679 478.886 62.9679ZM492.799 65.1729C491.595 65.1729 490.51 64.9279 489.544 64.4379C488.592 63.9339 487.843 63.2409 487.297 62.3589C486.765 61.4769 486.499 60.4759 486.499 59.3559C486.499 58.2359 486.765 57.2349 487.297 56.3529C487.843 55.4709 488.592 54.7849 489.544 54.2949C490.51 53.7909 491.595 53.5389 492.799 53.5389C493.989 53.5389 495.025 53.7909 495.907 54.2949C496.803 54.7849 497.454 55.4919 497.86 56.4159L495.319 57.7809C494.731 56.7449 493.884 56.2269 492.778 56.2269C491.924 56.2269 491.217 56.5069 490.657 57.0669C490.097 57.6269 489.817 58.3899 489.817 59.3559C489.817 60.3219 490.097 61.0849 490.657 61.6449C491.217 62.2049 491.924 62.4849 492.778 62.4849C493.898 62.4849 494.745 61.9669 495.319 60.9309L497.86 62.3169C497.454 63.2129 496.803 63.9129 495.907 64.4169C495.025 64.9209 493.989 65.1729 492.799 65.1729ZM499.851 53.7069H503.106V58.1169H508.02V53.7069H511.296V65.0049H508.02V60.7839H503.106V65.0049H499.851V53.7069ZM518.821 53.5389C520.571 53.5389 521.915 53.9589 522.853 54.7989C523.791 55.6249 524.26 56.8779 524.26 58.5579V65.0049H521.194V63.5979C520.578 64.6479 519.43 65.1729 517.75 65.1729C516.882 65.1729 516.126 65.0259 515.482 64.7319C514.852 64.4379 514.369 64.0319 514.033 63.5139C513.697 62.9959 513.529 62.4079 513.529 61.7499C513.529 60.6999 513.921 59.8739 514.705 59.2719C515.503 58.6699 516.728 58.3689 518.38 58.3689H520.984C520.984 57.6549 520.767 57.1089 520.333 56.7309C519.899 56.3389 519.248 56.1429 518.38 56.1429C517.778 56.1429 517.183 56.2409 516.595 56.4369C516.021 56.6189 515.531 56.8709 515.125 57.1929L513.949 54.9039C514.565 54.4699 515.3 54.1339 516.154 53.8959C517.022 53.6579 517.911 53.5389 518.821 53.5389ZM518.569 62.9679C519.129 62.9679 519.626 62.8419 520.06 62.5899C520.494 62.3239 520.802 61.9389 520.984 61.4349V60.2799H518.737C517.393 60.2799 516.721 60.7209 516.721 61.6029C516.721 62.0229 516.882 62.3589 517.204 62.6109C517.54 62.8489 517.995 62.9679 518.569 62.9679ZM157.501 79.7069V91.0049H154.225V82.3949H150.655L150.55 84.3899C150.494 85.8739 150.354 87.1059 150.13 88.0859C149.906 89.0659 149.542 89.8359 149.038 90.3959C148.534 90.9559 147.834 91.2359 146.938 91.2359C146.462 91.2359 145.895 91.1519 145.237 90.9839L145.405 88.2959C145.629 88.3239 145.79 88.3379 145.888 88.3379C146.378 88.3379 146.742 88.1629 146.98 87.8129C147.232 87.4489 147.4 86.9939 147.484 86.4479C147.568 85.8879 147.631 85.1529 147.673 84.2429L147.841 79.7069H157.501ZM165.04 79.5389C166.79 79.5389 168.134 79.9589 169.072 80.7989C170.01 81.6249 170.479 82.8779 170.479 84.5579V91.0049H167.413V89.5979C166.797 90.6479 165.649 91.1729 163.969 91.1729C163.101 91.1729 162.345 91.0259 161.701 90.7319C161.071 90.4379 160.588 90.0319 160.252 89.5139C159.916 88.9959 159.748 88.4079 159.748 87.7499C159.748 86.6999 160.14 85.8739 160.924 85.2719C161.722 84.6699 162.947 84.3689 164.599 84.3689H167.203C167.203 83.6549 166.986 83.1089 166.552 82.7309C166.118 82.3389 165.467 82.1429 164.599 82.1429C163.997 82.1429 163.402 82.2409 162.814 82.4369C162.24 82.6189 161.75 82.8709 161.344 83.1929L160.168 80.9039C160.784 80.4699 161.519 80.1339 162.373 79.8959C163.241 79.6579 164.13 79.5389 165.04 79.5389ZM164.788 88.9679C165.348 88.9679 165.845 88.8419 166.279 88.5899C166.713 88.3239 167.021 87.9389 167.203 87.4349V86.2799H164.956C163.612 86.2799 162.94 86.7209 162.94 87.6029C162.94 88.0229 163.101 88.3589 163.423 88.6109C163.759 88.8489 164.214 88.9679 164.788 88.9679ZM179.856 80.4839C180.934 80.4839 181.879 80.7079 182.691 81.1559C183.503 81.5899 184.126 82.2059 184.56 83.0039C185.008 83.8019 185.232 84.7259 185.232 85.7759C185.232 86.8539 184.966 87.8129 184.434 88.6529C183.916 89.4789 183.188 90.1229 182.25 90.5849C181.312 91.0329 180.248 91.2569 179.058 91.2569C177.084 91.2569 175.53 90.6269 174.396 89.3669C173.276 88.0929 172.716 86.2309 172.716 83.7809C172.716 81.5129 173.206 79.7069 174.186 78.3629C175.18 77.0049 176.699 76.1159 178.743 75.6959L184.119 74.6249L184.56 77.4389L179.814 78.3839C178.526 78.6359 177.567 79.0559 176.937 79.6439C176.321 80.2319 175.957 81.0649 175.845 82.1429C176.335 81.6109 176.923 81.2049 177.609 80.9249C178.295 80.6309 179.044 80.4839 179.856 80.4839ZM179.079 88.7159C179.919 88.7159 180.591 88.4429 181.095 87.8969C181.613 87.3509 181.872 86.6579 181.872 85.8179C181.872 84.9639 181.613 84.2849 181.095 83.7809C180.591 83.2769 179.919 83.0249 179.079 83.0249C178.225 83.0249 177.539 83.2769 177.021 83.7809C176.503 84.2849 176.244 84.9639 176.244 85.8179C176.244 86.6719 176.51 87.3719 177.042 87.9179C177.574 88.4499 178.253 88.7159 179.079 88.7159ZM192.747 91.1729C191.557 91.1729 190.486 90.9279 189.534 90.4379C188.596 89.9339 187.861 89.2409 187.329 88.3589C186.797 87.4769 186.531 86.4759 186.531 85.3559C186.531 84.2359 186.797 83.2349 187.329 82.3529C187.861 81.4709 188.596 80.7849 189.534 80.2949C190.486 79.7909 191.557 79.5389 192.747 79.5389C193.937 79.5389 195.001 79.7909 195.939 80.2949C196.877 80.7849 197.612 81.4709 198.144 82.3529C198.676 83.2349 198.942 84.2359 198.942 85.3559C198.942 86.4759 198.676 87.4769 198.144 88.3589C197.612 89.2409 196.877 89.9339 195.939 90.4379C195.001 90.9279 193.937 91.1729 192.747 91.1729ZM192.747 88.4849C193.587 88.4849 194.273 88.2049 194.805 87.6449C195.351 87.0709 195.624 86.3079 195.624 85.3559C195.624 84.4039 195.351 83.6479 194.805 83.0879C194.273 82.5139 193.587 82.2269 192.747 82.2269C191.907 82.2269 191.214 82.5139 190.668 83.0879C190.122 83.6479 189.849 84.4039 189.849 85.3559C189.849 86.3079 190.122 87.0709 190.668 87.6449C191.214 88.2049 191.907 88.4849 192.747 88.4849ZM207.852 79.5389C208.902 79.5389 209.854 79.7839 210.708 80.2739C211.576 80.7499 212.255 81.4289 212.745 82.3109C213.235 83.1789 213.48 84.1939 213.48 85.3559C213.48 86.5179 213.235 87.5399 212.745 88.4219C212.255 89.2899 211.576 89.9689 210.708 90.4589C209.854 90.9349 208.902 91.1729 207.852 91.1729C206.41 91.1729 205.276 90.7179 204.45 89.8079V95.0789H201.174V79.7069H204.303V81.0089C205.115 80.0289 206.298 79.5389 207.852 79.5389ZM207.285 88.4849C208.125 88.4849 208.811 88.2049 209.343 87.6449C209.889 87.0709 210.162 86.3079 210.162 85.3559C210.162 84.4039 209.889 83.6479 209.343 83.0879C208.811 82.5139 208.125 82.2269 207.285 82.2269C206.445 82.2269 205.752 82.5139 205.206 83.0879C204.674 83.6479 204.408 84.4039 204.408 85.3559C204.408 86.3079 204.674 87.0709 205.206 87.6449C205.752 88.2049 206.445 88.4849 207.285 88.4849ZM219.981 79.5389C221.731 79.5389 223.075 79.9589 224.013 80.7989C224.951 81.6249 225.42 82.8779 225.42 84.5579V91.0049H222.354V89.5979C221.738 90.6479 220.59 91.1729 218.91 91.1729C218.042 91.1729 217.286 91.0259 216.642 90.7319C216.012 90.4379 215.529 90.0319 215.193 89.5139C214.857 88.9959 214.689 88.4079 214.689 87.7499C214.689 86.6999 215.081 85.8739 215.865 85.2719C216.663 84.6699 217.888 84.3689 219.54 84.3689H222.144C222.144 83.6549 221.927 83.1089 221.493 82.7309C221.059 82.3389 220.408 82.1429 219.54 82.1429C218.938 82.1429 218.343 82.2409 217.755 82.4369C217.181 82.6189 216.691 82.8709 216.285 83.1929L215.109 80.9039C215.725 80.4699 216.46 80.1339 217.314 79.8959C218.182 79.6579 219.071 79.5389 219.981 79.5389ZM219.729 88.9679C220.289 88.9679 220.786 88.8419 221.22 88.5899C221.654 88.3239 221.962 87.9389 222.144 87.4349V86.2799H219.897C218.553 86.2799 217.881 86.7209 217.881 87.6029C217.881 88.0229 218.042 88.3589 218.364 88.6109C218.7 88.8489 219.155 88.9679 219.729 88.9679ZM237.758 82.3949H233.936V91.0049H230.681V82.3949H226.859V79.7069H237.758V82.3949ZM244.324 91.1729C243.134 91.1729 242.063 90.9279 241.111 90.4379C240.173 89.9339 239.438 89.2409 238.906 88.3589C238.374 87.4769 238.108 86.4759 238.108 85.3559C238.108 84.2359 238.374 83.2349 238.906 82.3529C239.438 81.4709 240.173 80.7849 241.111 80.2949C242.063 79.7909 243.134 79.5389 244.324 79.5389C245.514 79.5389 246.578 79.7909 247.516 80.2949C248.454 80.7849 249.189 81.4709 249.721 82.3529C250.253 83.2349 250.519 84.2359 250.519 85.3559C250.519 86.4759 250.253 87.4769 249.721 88.3589C249.189 89.2409 248.454 89.9339 247.516 90.4379C246.578 90.9279 245.514 91.1729 244.324 91.1729ZM244.324 88.4849C245.164 88.4849 245.85 88.2049 246.382 87.6449C246.928 87.0709 247.201 86.3079 247.201 85.3559C247.201 84.4039 246.928 83.6479 246.382 83.0879C245.85 82.5139 245.164 82.2269 244.324 82.2269C243.484 82.2269 242.791 82.5139 242.245 83.0879C241.699 83.6479 241.426 84.4039 241.426 85.3559C241.426 86.3079 241.699 87.0709 242.245 87.6449C242.791 88.2049 243.484 88.4849 244.324 88.4849ZM259.429 79.5389C260.479 79.5389 261.431 79.7839 262.285 80.2739C263.153 80.7499 263.832 81.4289 264.322 82.3109C264.812 83.1789 265.057 84.1939 265.057 85.3559C265.057 86.5179 264.812 87.5399 264.322 88.4219C263.832 89.2899 263.153 89.9689 262.285 90.4589C261.431 90.9349 260.479 91.1729 259.429 91.1729C257.987 91.1729 256.853 90.7179 256.027 89.8079V95.0789H252.751V79.7069H255.88V81.0089C256.692 80.0289 257.875 79.5389 259.429 79.5389ZM258.862 88.4849C259.702 88.4849 260.388 88.2049 260.92 87.6449C261.466 87.0709 261.739 86.3079 261.739 85.3559C261.739 84.4039 261.466 83.6479 260.92 83.0879C260.388 82.5139 259.702 82.2269 258.862 82.2269C258.022 82.2269 257.329 82.5139 256.783 83.0879C256.251 83.6479 255.985 84.4039 255.985 85.3559C255.985 86.3079 256.251 87.0709 256.783 87.6449C257.329 88.2049 258.022 88.4849 258.862 88.4849ZM267.332 79.7069H270.608V91.0049H267.332V79.7069ZM268.97 78.1319C268.368 78.1319 267.878 77.9569 267.5 77.6069C267.122 77.2569 266.933 76.8229 266.933 76.3049C266.933 75.7869 267.122 75.3529 267.5 75.0029C267.878 74.6529 268.368 74.4779 268.97 74.4779C269.572 74.4779 270.062 74.6459 270.44 74.9819C270.818 75.3179 271.007 75.7379 271.007 76.2419C271.007 76.7879 270.818 77.2429 270.44 77.6069C270.062 77.9569 269.572 78.1319 268.97 78.1319ZM283.79 79.7069V91.0049H280.871V87.7709H278.456L276.314 91.0049H272.828L275.411 87.3089C274.627 87.0009 274.025 86.5599 273.605 85.9859C273.199 85.3979 272.996 84.6909 272.996 83.8649C272.996 82.5349 273.472 81.5129 274.424 80.7989C275.39 80.0709 276.713 79.7069 278.393 79.7069H283.79ZM278.456 82.3739C277.756 82.3739 277.224 82.4999 276.86 82.7519C276.51 83.0039 276.335 83.4099 276.335 83.9699C276.335 84.5299 276.503 84.9429 276.839 85.2089C277.189 85.4609 277.714 85.5869 278.414 85.5869H280.871V82.3739H278.456Z" fill="white"/>
<defs>
<clipPath id="clip0">
<rect width="77.5349" height="75.3315" fill="white" transform="translate(30.7069 29.834)"/>
</clipPath>
</defs>
</svg>
