<svg width="542" height="114" viewBox="0 0 542 114" fill="none" xmlns="http://www.w3.org/2000/svg">
<rect x="25.4347" y="14.415" width="516.565" height="85.2381" fill="#3E4671"/>
<path d="M108.217 56.7209C108.217 86.9972 84.3854 111.442 55.1084 111.442C25.8314 111.442 2 86.9972 2 56.7209C2 26.4446 25.8314 2 55.1084 2C84.3854 2 108.217 26.4446 108.217 56.7209Z" fill="white" stroke="#3E4671" stroke-width="4"/>
<path d="M80.9938 50.6024C79.7586 44.5875 76.483 39.1129 71.769 35.1874C66.9484 31.1956 60.9578 29.0222 54.784 29.0254C47.5064 29.0254 40.7091 31.9271 35.6272 37.1965C30.7161 42.2953 28.0246 49.0273 28.0461 56.1475C28.0463 61.3678 29.5271 66.4732 32.3049 70.8306L32.8246 71.5786L29.9575 84.4145L43.6717 80.8834C43.6717 80.8834 43.9465 80.9786 44.1495 81.059C44.3526 81.1394 46.1004 81.833 47.9544 82.3695C49.4954 82.8146 52.7018 83.4823 55.2141 83.4823C62.3399 83.4823 68.9939 80.6263 73.9492 75.4385C78.8603 70.2915 81.5649 63.4482 81.5649 56.1623C81.5653 54.2933 81.3738 52.4296 80.9938 50.6024V50.6024ZM43.3372 60.6763C42.5811 60.6763 41.842 60.4443 41.2134 60.0095C40.5847 59.5748 40.0948 58.9569 39.8054 58.234C39.5161 57.511 39.4404 56.7156 39.5879 55.9481C39.7354 55.1806 40.0995 54.4757 40.6341 53.9224C41.1687 53.3691 41.8499 52.9923 42.5914 52.8396C43.333 52.6869 44.1016 52.7653 44.8001 53.0647C45.4986 53.3642 46.0957 53.8713 46.5157 54.5219C46.9358 55.1725 47.16 55.9374 47.16 56.7199C47.16 57.7692 46.7572 58.7755 46.0403 59.5175C45.3234 60.2595 44.3511 60.6763 43.3372 60.6763ZM54.8055 60.6763C54.0494 60.6763 53.3103 60.4443 52.6817 60.0095C52.053 59.5748 51.5631 58.9569 51.2737 58.234C50.9844 57.511 50.9087 56.7156 51.0562 55.9481C51.2037 55.1806 51.5678 54.4757 52.1024 53.9224C52.637 53.3691 53.3182 52.9923 54.0597 52.8396C54.8013 52.6869 55.5699 52.7653 56.2684 53.0647C56.9669 53.3642 57.564 53.8713 57.984 54.5219C58.4041 55.1725 58.6283 55.9374 58.6283 56.7199C58.6283 57.7692 58.2255 58.7755 57.5086 59.5175C56.7917 60.2595 55.8194 60.6763 54.8055 60.6763V60.6763ZM66.2738 60.6763C65.5177 60.6763 64.7786 60.4443 64.15 60.0095C63.5213 59.5748 63.0314 58.9569 62.742 58.234C62.4527 57.511 62.377 56.7156 62.5245 55.9481C62.672 55.1806 63.0361 54.4757 63.5707 53.9224C64.1053 53.3691 64.7865 52.9923 65.528 52.8396C66.2696 52.6869 67.0382 52.7653 67.7367 53.0647C68.4352 53.3642 69.0323 53.8713 69.4523 54.5219C69.8724 55.1725 70.0966 55.9374 70.0966 56.7199C70.0966 57.7692 69.6938 58.7755 68.9769 59.5175C68.26 60.2595 67.2877 60.6763 66.2738 60.6763Z" fill="#3E4671"/>
<path d="M122.455 63.352C121.074 63.352 119.827 63.0544 118.712 62.459C117.61 61.8637 116.742 61.0467 116.109 60.008C115.488 58.9567 115.178 57.7787 115.178 56.474C115.178 55.1694 115.488 53.9977 116.109 52.959C116.742 51.9077 117.61 51.0844 118.712 50.489C119.827 49.8937 121.074 49.596 122.455 49.596C123.836 49.596 125.077 49.8937 126.179 50.489C127.281 51.0844 128.149 51.9077 128.782 52.959C129.415 53.9977 129.732 55.1694 129.732 56.474C129.732 57.7787 129.415 58.9567 128.782 60.008C128.149 61.0467 127.281 61.8637 126.179 62.459C125.077 63.0544 123.836 63.352 122.455 63.352ZM122.455 60.73C123.24 60.73 123.95 60.5527 124.583 60.198C125.216 59.8307 125.71 59.324 126.065 58.678C126.432 58.032 126.616 57.2974 126.616 56.474C126.616 55.6507 126.432 54.916 126.065 54.27C125.71 53.624 125.216 53.1237 124.583 52.769C123.95 52.4017 123.24 52.218 122.455 52.218C121.67 52.218 120.96 52.4017 120.327 52.769C119.694 53.1237 119.193 53.624 118.826 54.27C118.471 54.916 118.294 55.6507 118.294 56.474C118.294 57.2974 118.471 58.032 118.826 58.678C119.193 59.324 119.694 59.8307 120.327 60.198C120.96 60.5527 121.67 60.73 122.455 60.73ZM131.875 52.902H134.82V56.892H139.266V52.902H142.23V63.124H139.266V59.305H134.82V63.124H131.875V52.902ZM154.871 52.902V63.124H151.907V55.334H148.677L148.582 57.139C148.532 58.4817 148.405 59.5964 148.202 60.483C148 61.3697 147.67 62.0664 147.214 62.573C146.758 63.0797 146.125 63.333 145.314 63.333C144.884 63.333 144.371 63.257 143.775 63.105L143.927 60.673C144.13 60.6984 144.276 60.711 144.364 60.711C144.808 60.711 145.137 60.5527 145.352 60.236C145.58 59.9067 145.732 59.495 145.808 59.001C145.884 58.4944 145.941 57.8294 145.979 57.006L146.131 52.902H154.871ZM161.693 52.75C163.276 52.75 164.492 53.13 165.341 53.89C166.189 54.6374 166.614 55.771 166.614 57.291V63.124H163.84V61.851C163.282 62.801 162.244 63.276 160.724 63.276C159.938 63.276 159.254 63.143 158.672 62.877C158.102 62.611 157.665 62.2437 157.361 61.775C157.057 61.3064 156.905 60.7744 156.905 60.179C156.905 59.229 157.259 58.4817 157.969 57.937C158.691 57.3924 159.799 57.12 161.294 57.12H163.65C163.65 56.474 163.453 55.98 163.061 55.638C162.668 55.2834 162.079 55.106 161.294 55.106C160.749 55.106 160.211 55.1947 159.679 55.372C159.159 55.5367 158.716 55.7647 158.349 56.056L157.285 53.985C157.842 53.5924 158.507 53.2884 159.28 53.073C160.065 52.8577 160.869 52.75 161.693 52.75ZM161.465 61.281C161.971 61.281 162.421 61.167 162.814 60.939C163.206 60.6984 163.485 60.35 163.65 59.894V58.849H161.617C160.401 58.849 159.793 59.248 159.793 60.046C159.793 60.426 159.938 60.73 160.23 60.958C160.534 61.1734 160.945 61.281 161.465 61.281ZM169.189 52.902H172.134V58.982L177.112 52.902H179.829V63.124H176.884V57.044L171.925 63.124H169.189V52.902ZM174.319 51.8C172.089 51.8 170.968 50.8184 170.956 48.855H172.894C172.906 49.2984 173.027 49.6467 173.255 49.9C173.495 50.1407 173.844 50.261 174.3 50.261C174.756 50.261 175.104 50.1407 175.345 49.9C175.598 49.6467 175.725 49.2984 175.725 48.855H177.701C177.688 50.8184 176.561 51.8 174.319 51.8ZM182.678 52.902H185.623V56.892H190.069V52.902H193.033V63.124H190.069V59.305H185.623V63.124H182.678V52.902ZM201.232 52.902H204.196V63.124H201.232V52.902ZM202.714 51.477C202.169 51.477 201.726 51.3187 201.384 51.002C201.042 50.6854 200.871 50.2927 200.871 49.824C200.871 49.3554 201.042 48.9627 201.384 48.646C201.726 48.3294 202.169 48.171 202.714 48.171C203.259 48.171 203.702 48.323 204.044 48.627C204.386 48.931 204.557 49.311 204.557 49.767C204.557 50.261 204.386 50.6727 204.044 51.002C203.702 51.3187 203.259 51.477 202.714 51.477ZM207.04 52.902H209.985V56.892H214.431V52.902H217.395V63.124H214.431V59.305H209.985V63.124H207.04V52.902ZM234.349 57.975C234.349 59.5584 233.817 60.8124 232.753 61.737C231.702 62.649 230.195 63.1747 228.231 63.314V66.81H225.514V63.314C223.551 63.1747 222.037 62.6554 220.973 61.756C219.922 60.844 219.396 59.5837 219.396 57.975C219.396 56.3917 219.916 55.163 220.954 54.289C222.006 53.415 223.526 52.9084 225.514 52.769V49.026H228.231V52.769C230.195 52.9084 231.702 53.4214 232.753 54.308C233.817 55.1947 234.349 56.417 234.349 57.975ZM222.265 57.975C222.265 58.887 222.525 59.59 223.044 60.084C223.564 60.578 224.387 60.8884 225.514 61.015V55.068C224.387 55.182 223.564 55.4797 223.044 55.961C222.525 56.4297 222.265 57.101 222.265 57.975ZM228.231 61.015C229.359 60.8884 230.182 60.578 230.701 60.084C231.233 59.59 231.499 58.887 231.499 57.975C231.499 57.101 231.233 56.4297 230.701 55.961C230.182 55.4797 229.359 55.182 228.231 55.068V61.015ZM241.145 63.276C240.068 63.276 239.099 63.0544 238.238 62.611C237.389 62.155 236.724 61.528 236.243 60.73C235.761 59.932 235.521 59.0264 235.521 58.013C235.521 56.9997 235.761 56.094 236.243 55.296C236.724 54.498 237.389 53.8774 238.238 53.434C239.099 52.978 240.068 52.75 241.145 52.75C242.221 52.75 243.184 52.978 244.033 53.434C244.881 53.8774 245.546 54.498 246.028 55.296C246.509 56.094 246.75 56.9997 246.75 58.013C246.75 59.0264 246.509 59.932 246.028 60.73C245.546 61.528 244.881 62.155 244.033 62.611C243.184 63.0544 242.221 63.276 241.145 63.276ZM241.145 60.844C241.905 60.844 242.525 60.5907 243.007 60.084C243.501 59.5647 243.748 58.8744 243.748 58.013C243.748 57.1517 243.501 56.4677 243.007 55.961C242.525 55.4417 241.905 55.182 241.145 55.182C240.385 55.182 239.758 55.4417 239.264 55.961C238.77 56.4677 238.523 57.1517 238.523 58.013C238.523 58.8744 238.77 59.5647 239.264 60.084C239.758 60.5907 240.385 60.844 241.145 60.844ZM254.811 52.75C255.761 52.75 256.622 52.9717 257.395 53.415C258.18 53.8457 258.795 54.46 259.238 55.258C259.681 56.0434 259.903 56.9617 259.903 58.013C259.903 59.0644 259.681 59.989 259.238 60.787C258.795 61.5724 258.18 62.1867 257.395 62.63C256.622 63.0607 255.761 63.276 254.811 63.276C253.506 63.276 252.48 62.8644 251.733 62.041V66.81H248.769V52.902H251.6V54.08C252.335 53.1934 253.405 52.75 254.811 52.75ZM254.298 60.844C255.058 60.844 255.679 60.5907 256.16 60.084C256.654 59.5647 256.901 58.8744 256.901 58.013C256.901 57.1517 256.654 56.4677 256.16 55.961C255.679 55.4417 255.058 55.182 254.298 55.182C253.538 55.182 252.911 55.4417 252.417 55.961C251.936 56.4677 251.695 57.1517 251.695 58.013C251.695 58.8744 251.936 59.5647 252.417 60.084C252.911 60.5907 253.538 60.844 254.298 60.844ZM271.956 63.124V57.006L268.897 62.136H267.643L264.66 56.987V63.124H261.981V52.902H265.078L268.346 58.811L271.823 52.902H274.597L274.635 63.124H271.956ZM287.715 52.902L283.098 63.751C282.629 64.929 282.046 65.7587 281.35 66.24C280.666 66.7214 279.836 66.962 278.861 66.962C278.329 66.962 277.803 66.8797 277.284 66.715C276.764 66.5504 276.34 66.3224 276.011 66.031L277.094 63.922C277.322 64.1247 277.581 64.283 277.873 64.397C278.177 64.511 278.474 64.568 278.766 64.568C279.171 64.568 279.5 64.4667 279.754 64.264C280.007 64.074 280.235 63.751 280.438 63.295L280.476 63.2L276.049 52.902H279.108L281.977 59.837L284.865 52.902H287.715ZM296.954 57.785C298.157 58.1904 298.759 59.001 298.759 60.217C298.759 61.1417 298.41 61.8574 297.714 62.364C297.017 62.8707 295.978 63.124 294.598 63.124H289.145V52.902H294.37C295.649 52.902 296.65 53.1364 297.372 53.605C298.094 54.061 298.455 54.707 298.455 55.543C298.455 56.0497 298.322 56.4994 298.056 56.892C297.802 57.272 297.435 57.5697 296.954 57.785ZM291.862 57.101H294.104C295.142 57.101 295.662 56.7337 295.662 55.999C295.662 55.277 295.142 54.916 294.104 54.916H291.862V57.101ZM294.351 61.11C295.44 61.11 295.985 60.7364 295.985 59.989C295.985 59.5964 295.858 59.3114 295.605 59.134C295.351 58.944 294.952 58.849 294.408 58.849H291.862V61.11H294.351ZM304.935 52.75C306.518 52.75 307.734 53.13 308.583 53.89C309.432 54.6374 309.856 55.771 309.856 57.291V63.124H307.082V61.851C306.525 62.801 305.486 63.276 303.966 63.276C303.181 63.276 302.497 63.143 301.914 62.877C301.344 62.611 300.907 62.2437 300.603 61.775C300.299 61.3064 300.147 60.7744 300.147 60.179C300.147 59.229 300.502 58.4817 301.211 57.937C301.933 57.3924 303.041 57.12 304.536 57.12H306.892C306.892 56.474 306.696 55.98 306.303 55.638C305.91 55.2834 305.321 55.106 304.536 55.106C303.991 55.106 303.453 55.1947 302.921 55.372C302.402 55.5367 301.958 55.7647 301.591 56.056L300.527 53.985C301.084 53.5924 301.749 53.2884 302.522 53.073C303.307 52.8577 304.112 52.75 304.935 52.75ZM304.707 61.281C305.214 61.281 305.663 61.167 306.056 60.939C306.449 60.6984 306.727 60.35 306.892 59.894V58.849H304.859C303.643 58.849 303.035 59.248 303.035 60.046C303.035 60.426 303.181 60.73 303.472 60.958C303.776 61.1734 304.188 61.281 304.707 61.281ZM312.431 52.902H315.376V56.892H319.822V52.902H322.786V63.124H319.822V59.305H315.376V63.124H312.431V52.902ZM325.623 52.902H328.568V56.892H333.014V52.902H335.978V63.124H333.014V59.305H328.568V63.124H325.623V52.902ZM347.898 52.902V63.124H345.257V60.198H343.072L341.134 63.124H337.98L340.317 59.78C339.607 59.5014 339.063 59.1024 338.683 58.583C338.315 58.051 338.132 57.4114 338.132 56.664C338.132 55.4607 338.562 54.536 339.424 53.89C340.298 53.2314 341.495 52.902 343.015 52.902H347.898ZM343.072 55.315C342.438 55.315 341.957 55.429 341.628 55.657C341.311 55.885 341.153 56.2524 341.153 56.759C341.153 57.2657 341.305 57.6394 341.609 57.88C341.925 58.108 342.4 58.222 343.034 58.222H345.257V55.315H343.072ZM360.63 59.248H359.091V63.124H356.127V52.902H359.091V56.873H360.687L363.461 52.902H366.615L363.043 57.804L366.862 63.124H363.366L360.63 59.248ZM378.121 52.902V63.124H375.157V55.334H371.927L371.832 57.139C371.782 58.4817 371.655 59.5964 371.452 60.483C371.25 61.3697 370.92 62.0664 370.464 62.573C370.008 63.0797 369.375 63.333 368.564 63.333C368.134 63.333 367.621 63.257 367.025 63.105L367.177 60.673C367.38 60.6984 367.526 60.711 367.614 60.711C368.058 60.711 368.387 60.5527 368.602 60.236C368.83 59.9067 368.982 59.495 369.058 59.001C369.134 58.4944 369.191 57.8294 369.229 57.006L369.381 52.902H378.121ZM380.953 52.902H383.917V63.124H380.953V52.902ZM382.435 51.477C381.89 51.477 381.447 51.3187 381.105 51.002C380.763 50.6854 380.592 50.2927 380.592 49.824C380.592 49.3554 380.763 48.9627 381.105 48.646C381.447 48.3294 381.89 48.171 382.435 48.171C382.979 48.171 383.423 48.323 383.765 48.627C384.107 48.931 384.278 49.311 384.278 49.767C384.278 50.261 384.107 50.6727 383.765 51.002C383.423 51.3187 382.979 51.477 382.435 51.477ZM391.682 63.314C390.58 63.314 389.592 63.0924 388.718 62.649C387.856 62.193 387.179 61.5597 386.685 60.749C386.191 59.9384 385.944 59.0264 385.944 58.013C385.944 56.9997 386.191 56.0877 386.685 55.277C387.179 54.4664 387.856 53.8394 388.718 53.396C389.592 52.94 390.58 52.712 391.682 52.712C392.657 52.712 393.537 52.8767 394.323 53.206C395.121 53.5227 395.779 53.985 396.299 54.593L394.608 56.189C393.835 55.391 392.898 54.992 391.796 54.992C391.061 54.992 390.428 55.1757 389.896 55.543C389.364 55.9104 389.003 56.4107 388.813 57.044H393.107V59.077H388.851C389.053 59.685 389.414 60.1664 389.934 60.521C390.453 60.8757 391.074 61.053 391.796 61.053C392.885 61.053 393.822 60.6477 394.608 59.837L396.299 61.414C395.779 62.0347 395.121 62.5097 394.323 62.839C393.537 63.1557 392.657 63.314 391.682 63.314ZM398.005 52.902H400.95V56.892H405.396V52.902H408.36V63.124H405.396V59.305H400.95V63.124H398.005V52.902ZM419.785 55.334H416.327V63.124H413.382V55.334H409.924V52.902H419.785V55.334ZM425.336 52.75C426.92 52.75 428.136 53.13 428.984 53.89C429.833 54.6374 430.257 55.771 430.257 57.291V63.124H427.483V61.851C426.926 62.801 425.887 63.276 424.367 63.276C423.582 63.276 422.898 63.143 422.315 62.877C421.745 62.611 421.308 62.2437 421.004 61.775C420.7 61.3064 420.548 60.7744 420.548 60.179C420.548 59.229 420.903 58.4817 421.612 57.937C422.334 57.3924 423.443 57.12 424.937 57.12H427.293C427.293 56.474 427.097 55.98 426.704 55.638C426.312 55.2834 425.723 55.106 424.937 55.106C424.393 55.106 423.854 55.1947 423.322 55.372C422.803 55.5367 422.36 55.7647 421.992 56.056L420.928 53.985C421.486 53.5924 422.151 53.2884 422.923 53.073C423.709 52.8577 424.513 52.75 425.336 52.75ZM425.108 61.281C425.615 61.281 426.065 61.167 426.457 60.939C426.85 60.6984 427.129 60.35 427.293 59.894V58.849H425.26C424.044 58.849 423.436 59.248 423.436 60.046C423.436 60.426 423.582 60.73 423.873 60.958C424.177 61.1734 424.589 61.281 425.108 61.281Z" fill="white"/>
</svg>
