<svg width="645" height="135" viewBox="0 0 645 135" fill="none" xmlns="http://www.w3.org/2000/svg">
<rect x="30.9888" y="17.1543" width="614.011" height="101.436" fill="#3E4671"/>
<path d="M133.614 67.5C133.614 103.666 104.16 133 67.8069 133C31.4542 133 2 103.666 2 67.5C2 31.3339 31.4542 2 67.8069 2C104.16 2 133.614 31.3339 133.614 67.5Z" fill="white" stroke="#3E4671" stroke-width="4"/>
<path d="M86.21 39.251C88.9129 39.251 91.5051 40.3257 93.4163 42.2388C95.3275 44.1519 96.4013 46.7466 96.4013 49.4521V85.5485C96.4013 88.254 95.3275 90.8487 93.4163 92.7617C91.5051 94.6748 88.9129 95.7496 86.21 95.7496H50.1489C47.446 95.7496 44.8538 94.6748 42.9426 92.7617C41.0314 90.8487 39.9576 88.254 39.9576 85.5485V49.4521C39.9576 46.7466 41.0314 44.1519 42.9426 42.2388C44.8538 40.3257 47.446 39.251 50.1489 39.251H86.21ZM86.21 43.9592H50.1489C48.6935 43.9592 47.2977 44.5379 46.2685 45.568C45.2394 46.5982 44.6613 47.9953 44.6613 49.4521V85.5485C44.6613 88.5805 47.1197 91.0414 50.1489 91.0414H86.21C87.6654 91.0414 89.0612 90.4627 90.0903 89.4325C91.1195 88.4024 91.6976 87.0053 91.6976 85.5485V49.4521C91.6976 47.9953 91.1195 46.5982 90.0903 45.568C89.0612 44.5379 87.6654 43.9592 86.21 43.9592Z" fill="#3E4671"/>
<path d="M72.0991 54.9453C72.7229 54.9453 73.3211 55.1933 73.7621 55.6348C74.2032 56.0763 74.4509 56.6751 74.4509 57.2994V65.9312H79.1546V57.2994C79.1546 56.6751 79.4024 56.0763 79.8434 55.6348C80.2845 55.1933 80.8827 54.9453 81.5064 54.9453C82.1301 54.9453 82.7283 55.1933 83.1694 55.6348C83.6104 56.0763 83.8582 56.6751 83.8582 57.2994V77.6075C83.8582 78.2319 83.6104 78.8307 83.1694 79.2721C82.7283 79.7136 82.1301 79.9616 81.5064 79.9616C80.8827 79.9616 80.2845 79.7136 79.8434 79.2721C79.4024 78.8307 79.1546 78.2319 79.1546 77.6075V70.6394H72.0991C71.4754 70.6394 70.8772 70.3914 70.4361 69.9499C69.9951 69.5084 69.7473 68.9096 69.7473 68.2853V57.2994C69.7473 56.6751 69.9951 56.0763 70.4361 55.6348C70.8772 55.1933 71.4754 54.9453 72.0991 54.9453Z" fill="#3E4671"/>
<path d="M54.0684 57.2806C55.1565 56.0816 56.9376 54.9453 59.556 54.9453C63.1683 54.9453 65.4951 57.4313 66.3135 60.1589C67.1069 62.8175 66.6271 66.1069 64.3693 68.3763C63.5948 69.1547 62.6823 69.8609 61.8827 70.4793L61.7573 70.5766C60.8792 71.2546 60.0953 71.8698 59.4054 72.554C58.6058 73.3576 57.9504 74.2333 57.571 75.3476H64.2596C64.8833 75.3476 65.4815 75.5956 65.9226 76.0371C66.3636 76.4786 66.6114 77.0773 66.6114 77.7017C66.6114 78.326 66.3636 78.9248 65.9226 79.3663C65.4815 79.8078 64.8833 80.0558 64.2596 80.0558H54.8523C54.2286 80.0558 53.6304 79.8078 53.1893 79.3663C52.7483 78.9248 52.5005 78.326 52.5005 77.7017C52.5005 73.7876 54.1436 71.1635 56.0878 69.2238C57.016 68.2947 58.0257 67.5131 58.8786 66.8508L58.888 66.8445C59.7849 66.1509 60.481 65.611 61.036 65.0554C61.889 64.1954 62.1869 62.7798 61.8074 61.5086C61.4468 60.3127 60.6472 59.6535 59.556 59.6535C58.449 59.6535 57.8783 60.0835 57.5491 60.4476C57.3576 60.6607 57.2019 60.9035 57.0881 61.1664L57.0818 61.1759C56.8851 61.764 56.4644 62.2507 55.9111 62.53C55.3579 62.8094 54.7169 62.859 54.1274 62.6679C53.5378 62.4769 53.0475 62.0607 52.7628 61.5098C52.4781 60.9588 52.4222 60.3177 52.6071 59.7257L52.7169 59.4244C53.0391 58.6371 53.4953 57.9117 54.0652 57.2806H54.0684Z" fill="#3E4671"/>
<path d="M149.309 60.0362C147.811 60.0362 146.453 59.7142 145.235 59.0702C144.031 58.4122 143.079 57.5092 142.379 56.3612C141.693 55.1992 141.35 53.8902 141.35 52.4342C141.35 50.9782 141.693 49.6762 142.379 48.5282C143.079 47.3662 144.031 46.4632 145.235 45.8192C146.453 45.1612 147.818 44.8322 149.33 44.8322C150.604 44.8322 151.752 45.0562 152.774 45.5042C153.81 45.9522 154.678 46.5962 155.378 47.4362L153.194 49.4522C152.2 48.3042 150.968 47.7302 149.498 47.7302C148.588 47.7302 147.776 47.9332 147.062 48.3392C146.348 48.7312 145.788 49.2842 145.382 49.9982C144.99 50.7122 144.794 51.5242 144.794 52.4342C144.794 53.3442 144.99 54.1562 145.382 54.8702C145.788 55.5842 146.348 56.1442 147.062 56.5502C147.776 56.9422 148.588 57.1382 149.498 57.1382C150.968 57.1382 152.2 56.5572 153.194 55.3952L155.378 57.4112C154.678 58.2652 153.81 58.9162 152.774 59.3642C151.738 59.8122 150.583 60.0362 149.309 60.0362ZM166.527 51.1742H162.705V59.7842H159.45V51.1742H155.628V48.4862H166.527V51.1742ZM174.931 48.3182C175.981 48.3182 176.933 48.5632 177.787 49.0532C178.655 49.5292 179.334 50.2082 179.824 51.0902C180.314 51.9582 180.559 52.9732 180.559 54.1352C180.559 55.2972 180.314 56.3192 179.824 57.2012C179.334 58.0692 178.655 58.7482 177.787 59.2382C176.933 59.7142 175.981 59.9522 174.931 59.9522C173.489 59.9522 172.355 59.4972 171.529 58.5872V63.8582H168.253V48.4862H171.382V49.7882C172.194 48.8082 173.377 48.3182 174.931 48.3182ZM174.364 57.2642C175.204 57.2642 175.89 56.9842 176.422 56.4242C176.968 55.8502 177.241 55.0872 177.241 54.1352C177.241 53.1832 176.968 52.4272 176.422 51.8672C175.89 51.2932 175.204 51.0062 174.364 51.0062C173.524 51.0062 172.831 51.2932 172.285 51.8672C171.753 52.4272 171.487 53.1832 171.487 54.1352C171.487 55.0872 171.753 55.8502 172.285 56.4242C172.831 56.9842 173.524 57.2642 174.364 57.2642ZM188.147 59.9522C186.957 59.9522 185.886 59.7072 184.934 59.2172C183.996 58.7132 183.261 58.0202 182.729 57.1382C182.197 56.2562 181.931 55.2552 181.931 54.1352C181.931 53.0152 182.197 52.0142 182.729 51.1322C183.261 50.2502 183.996 49.5642 184.934 49.0742C185.886 48.5702 186.957 48.3182 188.147 48.3182C189.337 48.3182 190.401 48.5702 191.339 49.0742C192.277 49.5642 193.012 50.2502 193.544 51.1322C194.076 52.0142 194.342 53.0152 194.342 54.1352C194.342 55.2552 194.076 56.2562 193.544 57.1382C193.012 58.0202 192.277 58.7132 191.339 59.2172C190.401 59.7072 189.337 59.9522 188.147 59.9522ZM188.147 57.2642C188.987 57.2642 189.673 56.9842 190.205 56.4242C190.751 55.8502 191.024 55.0872 191.024 54.1352C191.024 53.1832 190.751 52.4272 190.205 51.8672C189.673 51.2932 188.987 51.0062 188.147 51.0062C187.307 51.0062 186.614 51.2932 186.068 51.8672C185.522 52.4272 185.249 53.1832 185.249 54.1352C185.249 55.0872 185.522 55.8502 186.068 56.4242C186.614 56.9842 187.307 57.2642 188.147 57.2642ZM201.572 55.5002H199.871V59.7842H196.595V48.4862H199.871V52.8752H201.635L204.701 48.4862H208.187L204.239 53.9042L208.46 59.7842H204.596L201.572 55.5002ZM224.647 53.8832C225.977 54.3312 226.642 55.2272 226.642 56.5712C226.642 57.5932 226.257 58.3842 225.487 58.9442C224.717 59.5042 223.569 59.7842 222.043 59.7842H216.016V48.4862H221.791C223.205 48.4862 224.311 48.7452 225.109 49.2632C225.907 49.7672 226.306 50.4812 226.306 51.4052C226.306 51.9652 226.159 52.4622 225.865 52.8962C225.585 53.3162 225.179 53.6452 224.647 53.8832ZM219.019 53.1272H221.497C222.645 53.1272 223.219 52.7212 223.219 51.9092C223.219 51.1112 222.645 50.7122 221.497 50.7122H219.019V53.1272ZM221.77 57.5582C222.974 57.5582 223.576 57.1452 223.576 56.3192C223.576 55.8852 223.436 55.5702 223.156 55.3742C222.876 55.1642 222.435 55.0592 221.833 55.0592H219.019V57.5582H221.77ZM229.079 48.4862H232.334V55.2062L237.836 48.4862H240.839V59.7842H237.584V53.0642L232.103 59.7842H229.079V48.4862ZM256.652 57.0962V62.2202H253.607V59.7842H245.669V62.2202H242.624V57.0962H243.086C243.786 57.0822 244.269 56.6692 244.535 55.8572C244.801 55.0452 244.969 53.8902 245.039 52.3922L245.186 48.4862H255.035V57.0962H256.652ZM248 52.6232C247.958 53.7712 247.867 54.7092 247.727 55.4372C247.601 56.1652 247.356 56.7182 246.992 57.0962H251.759V51.1742H248.063L248 52.6232ZM263.102 48.3182C264.852 48.3182 266.196 48.7382 267.134 49.5782C268.072 50.4042 268.541 51.6572 268.541 53.3372V59.7842H265.475V58.3772C264.859 59.4272 263.711 59.9522 262.031 59.9522C261.163 59.9522 260.407 59.8052 259.763 59.5112C259.133 59.2172 258.65 58.8112 258.314 58.2932C257.978 57.7752 257.81 57.1872 257.81 56.5292C257.81 55.4792 258.202 54.6532 258.986 54.0512C259.784 53.4492 261.009 53.1482 262.661 53.1482H265.265C265.265 52.4342 265.048 51.8882 264.614 51.5102C264.18 51.1182 263.529 50.9222 262.661 50.9222C262.059 50.9222 261.464 51.0202 260.876 51.2162C260.302 51.3982 259.812 51.6502 259.406 51.9722L258.23 49.6832C258.846 49.2492 259.581 48.9132 260.435 48.6752C261.303 48.4372 262.192 48.3182 263.102 48.3182ZM262.85 57.7472C263.41 57.7472 263.907 57.6212 264.341 57.3692C264.775 57.1032 265.083 56.7182 265.265 56.2142V55.0592H263.018C261.674 55.0592 261.002 55.5002 261.002 56.3822C261.002 56.8022 261.163 57.1382 261.485 57.3902C261.821 57.6282 262.276 57.7472 262.85 57.7472ZM271.387 48.4862H274.642V52.8962H279.556V48.4862H282.832V59.7842H279.556V55.5632H274.642V59.7842H271.387V48.4862ZM285.968 48.4862H289.223V52.8962H294.137V48.4862H297.413V59.7842H294.137V55.5632H289.223V59.7842H285.968V48.4862ZM310.587 48.4862V59.7842H307.668V56.5502H305.253L303.111 59.7842H299.625L302.208 56.0882C301.424 55.7802 300.822 55.3392 300.402 54.7652C299.996 54.1772 299.793 53.4702 299.793 52.6442C299.793 51.3142 300.269 50.2922 301.221 49.5782C302.187 48.8502 303.51 48.4862 305.19 48.4862H310.587ZM305.253 51.1532C304.553 51.1532 304.021 51.2792 303.657 51.5312C303.307 51.7832 303.132 52.1892 303.132 52.7492C303.132 53.3092 303.3 53.7222 303.636 53.9882C303.986 54.2402 304.511 54.3662 305.211 54.3662H307.668V51.1532H305.253ZM325.059 59.9522C323.855 59.9522 322.77 59.7072 321.804 59.2172C320.852 58.7132 320.103 58.0202 319.557 57.1382C319.025 56.2562 318.759 55.2552 318.759 54.1352C318.759 53.0152 319.025 52.0142 319.557 51.1322C320.103 50.2502 320.852 49.5642 321.804 49.0742C322.77 48.5702 323.855 48.3182 325.059 48.3182C326.249 48.3182 327.285 48.5702 328.167 49.0742C329.063 49.5642 329.714 50.2712 330.12 51.1952L327.579 52.5602C326.991 51.5242 326.144 51.0062 325.038 51.0062C324.184 51.0062 323.477 51.2862 322.917 51.8462C322.357 52.4062 322.077 53.1692 322.077 54.1352C322.077 55.1012 322.357 55.8642 322.917 56.4242C323.477 56.9842 324.184 57.2642 325.038 57.2642C326.158 57.2642 327.005 56.7462 327.579 55.7102L330.12 57.0962C329.714 57.9922 329.063 58.6922 328.167 59.1962C327.285 59.7002 326.249 59.9522 325.059 59.9522ZM342.8 48.3182C343.948 48.3182 344.977 48.5702 345.887 49.0742C346.797 49.5642 347.511 50.2502 348.029 51.1322C348.547 52.0142 348.806 53.0152 348.806 54.1352C348.806 55.2552 348.547 56.2562 348.029 57.1382C347.511 58.0202 346.797 58.7132 345.887 59.2172C344.977 59.7072 343.948 59.9522 342.8 59.9522C341.806 59.9522 340.896 59.7702 340.07 59.4062C339.244 59.0282 338.558 58.5032 338.012 57.8312C337.466 57.1452 337.102 56.3612 336.92 55.4792H335.366V59.7842H332.111V48.4862H335.366V52.6442H336.941C337.263 51.3282 337.949 50.2782 338.999 49.4942C340.049 48.7102 341.316 48.3182 342.8 48.3182ZM342.8 57.2642C343.598 57.2642 344.256 56.9842 344.774 56.4242C345.306 55.8502 345.572 55.0872 345.572 54.1352C345.572 53.1692 345.306 52.4062 344.774 51.8462C344.256 51.2862 343.598 51.0062 342.8 51.0062C341.988 51.0062 341.316 51.2862 340.784 51.8462C340.266 52.4062 340.007 53.1692 340.007 54.1352C340.007 55.0872 340.266 55.8502 340.784 56.4242C341.316 56.9842 341.988 57.2642 342.8 57.2642ZM357.737 48.3182C358.787 48.3182 359.739 48.5632 360.593 49.0532C361.461 49.5292 362.14 50.2082 362.63 51.0902C363.12 51.9582 363.365 52.9732 363.365 54.1352C363.365 55.2972 363.12 56.3192 362.63 57.2012C362.14 58.0692 361.461 58.7482 360.593 59.2382C359.739 59.7142 358.787 59.9522 357.737 59.9522C356.295 59.9522 355.161 59.4972 354.335 58.5872V63.8582H351.059V48.4862H354.188V49.7882C355 48.8082 356.183 48.3182 357.737 48.3182ZM357.17 57.2642C358.01 57.2642 358.696 56.9842 359.228 56.4242C359.774 55.8502 360.047 55.0872 360.047 54.1352C360.047 53.1832 359.774 52.4272 359.228 51.8672C358.696 51.2932 358.01 51.0062 357.17 51.0062C356.33 51.0062 355.637 51.2932 355.091 51.8672C354.559 52.4272 354.293 53.1832 354.293 54.1352C354.293 55.0872 354.559 55.8502 355.091 56.4242C355.637 56.9842 356.33 57.2642 357.17 57.2642ZM374.292 53.8832C375.622 54.3312 376.287 55.2272 376.287 56.5712C376.287 57.5932 375.902 58.3842 375.132 58.9442C374.362 59.5042 373.214 59.7842 371.688 59.7842H365.661V48.4862H371.436C372.85 48.4862 373.956 48.7452 374.754 49.2632C375.552 49.7672 375.951 50.4812 375.951 51.4052C375.951 51.9652 375.804 52.4622 375.51 52.8962C375.23 53.3162 374.824 53.6452 374.292 53.8832ZM368.664 53.1272H371.142C372.29 53.1272 372.864 52.7212 372.864 51.9092C372.864 51.1112 372.29 50.7122 371.142 50.7122H368.664V53.1272ZM371.415 57.5582C372.619 57.5582 373.221 57.1452 373.221 56.3192C373.221 55.8852 373.081 55.5702 372.801 55.3742C372.521 55.1642 372.08 55.0592 371.478 55.0592H368.664V57.5582H371.415ZM389.708 54.1772C389.708 54.2192 389.687 54.5132 389.645 55.0592H381.098C381.252 55.7592 381.616 56.3122 382.19 56.7182C382.764 57.1242 383.478 57.3272 384.332 57.3272C384.92 57.3272 385.438 57.2432 385.886 57.0752C386.348 56.8932 386.775 56.6132 387.167 56.2352L388.91 58.1252C387.846 59.3432 386.292 59.9522 384.248 59.9522C382.974 59.9522 381.847 59.7072 380.867 59.2172C379.887 58.7132 379.131 58.0202 378.599 57.1382C378.067 56.2562 377.801 55.2552 377.801 54.1352C377.801 53.0292 378.06 52.0352 378.578 51.1532C379.11 50.2572 379.831 49.5642 380.741 49.0742C381.665 48.5702 382.694 48.3182 383.828 48.3182C384.934 48.3182 385.935 48.5562 386.831 49.0322C387.727 49.5082 388.427 50.1942 388.931 51.0902C389.449 51.9722 389.708 53.0012 389.708 54.1772ZM383.849 50.7962C383.107 50.7962 382.484 51.0062 381.98 51.4262C381.476 51.8462 381.168 52.4202 381.056 53.1482H386.621C386.509 52.4342 386.201 51.8672 385.697 51.4472C385.193 51.0132 384.577 50.7962 383.849 50.7962ZM392.219 48.4862H395.474V55.2062L400.976 48.4862H403.979V59.7842H400.724V53.0642L395.243 59.7842H392.219V48.4862ZM397.889 47.2682C395.425 47.2682 394.186 46.1832 394.172 44.0132H396.314C396.328 44.5032 396.461 44.8882 396.713 45.1682C396.979 45.4342 397.364 45.5672 397.868 45.5672C398.372 45.5672 398.757 45.4342 399.023 45.1682C399.303 44.8882 399.443 44.5032 399.443 44.0132H401.627C401.613 46.1832 400.367 47.2682 397.889 47.2682ZM418.111 54.1772C418.111 54.2192 418.09 54.5132 418.048 55.0592H409.501C409.655 55.7592 410.019 56.3122 410.593 56.7182C411.167 57.1242 411.881 57.3272 412.735 57.3272C413.323 57.3272 413.841 57.2432 414.289 57.0752C414.751 56.8932 415.178 56.6132 415.57 56.2352L417.313 58.1252C416.249 59.3432 414.695 59.9522 412.651 59.9522C411.377 59.9522 410.25 59.7072 409.27 59.2172C408.29 58.7132 407.534 58.0202 407.002 57.1382C406.47 56.2562 406.204 55.2552 406.204 54.1352C406.204 53.0292 406.463 52.0352 406.981 51.1532C407.513 50.2572 408.234 49.5642 409.144 49.0742C410.068 48.5702 411.097 48.3182 412.231 48.3182C413.337 48.3182 414.338 48.5562 415.234 49.0322C416.13 49.5082 416.83 50.1942 417.334 51.0902C417.852 51.9722 418.111 53.0012 418.111 54.1772ZM412.252 50.7962C411.51 50.7962 410.887 51.0062 410.383 51.4262C409.879 51.8462 409.571 52.4202 409.459 53.1482H415.024C414.912 52.4342 414.604 51.8672 414.1 51.4472C413.596 51.0132 412.98 50.7962 412.252 50.7962ZM427.279 48.3182C428.329 48.3182 429.281 48.5632 430.135 49.0532C431.003 49.5292 431.682 50.2082 432.172 51.0902C432.662 51.9582 432.907 52.9732 432.907 54.1352C432.907 55.2972 432.662 56.3192 432.172 57.2012C431.682 58.0692 431.003 58.7482 430.135 59.2382C429.281 59.7142 428.329 59.9522 427.279 59.9522C425.837 59.9522 424.703 59.4972 423.877 58.5872V63.8582H420.601V48.4862H423.73V49.7882C424.542 48.8082 425.725 48.3182 427.279 48.3182ZM426.712 57.2642C427.552 57.2642 428.238 56.9842 428.77 56.4242C429.316 55.8502 429.589 55.0872 429.589 54.1352C429.589 53.1832 429.316 52.4272 428.77 51.8672C428.238 51.2932 427.552 51.0062 426.712 51.0062C425.872 51.0062 425.179 51.2932 424.633 51.8672C424.101 52.4272 423.835 53.1832 423.835 54.1352C423.835 55.0872 424.101 55.8502 424.633 56.4242C425.179 56.9842 425.872 57.2642 426.712 57.2642ZM440.579 59.9522C439.375 59.9522 438.29 59.7072 437.324 59.2172C436.372 58.7132 435.623 58.0202 435.077 57.1382C434.545 56.2562 434.279 55.2552 434.279 54.1352C434.279 53.0152 434.545 52.0142 435.077 51.1322C435.623 50.2502 436.372 49.5642 437.324 49.0742C438.29 48.5702 439.375 48.3182 440.579 48.3182C441.769 48.3182 442.805 48.5702 443.687 49.0742C444.583 49.5642 445.234 50.2712 445.64 51.1952L443.099 52.5602C442.511 51.5242 441.664 51.0062 440.558 51.0062C439.704 51.0062 438.997 51.2862 438.437 51.8462C437.877 52.4062 437.597 53.1692 437.597 54.1352C437.597 55.1012 437.877 55.8642 438.437 56.4242C438.997 56.9842 439.704 57.2642 440.558 57.2642C441.678 57.2642 442.525 56.7462 443.099 55.7102L445.64 57.0962C445.234 57.9922 444.583 58.6922 443.687 59.1962C442.805 59.7002 441.769 59.9522 440.579 59.9522ZM453.742 52.0982C455.212 52.1122 456.339 52.4482 457.123 53.1062C457.907 53.7502 458.299 54.6672 458.299 55.8572C458.299 57.1032 457.858 58.0762 456.976 58.7762C456.108 59.4622 454.883 59.8052 453.301 59.8052L447.631 59.7842V48.4862H450.886V52.0982H453.742ZM453.007 57.4742C453.637 57.4882 454.12 57.3552 454.456 57.0752C454.792 56.7952 454.96 56.3752 454.96 55.8152C454.96 55.2692 454.792 54.8702 454.456 54.6182C454.134 54.3662 453.651 54.2332 453.007 54.2192L450.886 54.1982V57.4742H453.007ZM465.323 55.5002H463.622V59.7842H460.346V48.4862H463.622V52.8752H465.386L468.452 48.4862H471.938L467.99 53.9042L472.211 59.7842H468.347L465.323 55.5002ZM478.763 59.9522C477.573 59.9522 476.502 59.7072 475.55 59.2172C474.612 58.7132 473.877 58.0202 473.345 57.1382C472.813 56.2562 472.547 55.2552 472.547 54.1352C472.547 53.0152 472.813 52.0142 473.345 51.1322C473.877 50.2502 474.612 49.5642 475.55 49.0742C476.502 48.5702 477.573 48.3182 478.763 48.3182C479.953 48.3182 481.017 48.5702 481.955 49.0742C482.893 49.5642 483.628 50.2502 484.16 51.1322C484.692 52.0142 484.958 53.0152 484.958 54.1352C484.958 55.2552 484.692 56.2562 484.16 57.1382C483.628 58.0202 482.893 58.7132 481.955 59.2172C481.017 59.7072 479.953 59.9522 478.763 59.9522ZM478.763 57.2642C479.603 57.2642 480.289 56.9842 480.821 56.4242C481.367 55.8502 481.64 55.0872 481.64 54.1352C481.64 53.1832 481.367 52.4272 480.821 51.8672C480.289 51.2932 479.603 51.0062 478.763 51.0062C477.923 51.0062 477.23 51.2932 476.684 51.8672C476.138 52.4272 475.865 53.1832 475.865 54.1352C475.865 55.0872 476.138 55.8502 476.684 56.4242C477.23 56.9842 477.923 57.2642 478.763 57.2642ZM496.262 51.1742H490.466V59.7842H487.211V48.4862H496.262V51.1742ZM502.819 59.9522C501.629 59.9522 500.558 59.7072 499.606 59.2172C498.668 58.7132 497.933 58.0202 497.401 57.1382C496.869 56.2562 496.603 55.2552 496.603 54.1352C496.603 53.0152 496.869 52.0142 497.401 51.1322C497.933 50.2502 498.668 49.5642 499.606 49.0742C500.558 48.5702 501.629 48.3182 502.819 48.3182C504.009 48.3182 505.073 48.5702 506.011 49.0742C506.949 49.5642 507.684 50.2502 508.216 51.1322C508.748 52.0142 509.014 53.0152 509.014 54.1352C509.014 55.2552 508.748 56.2562 508.216 57.1382C507.684 58.0202 506.949 58.7132 506.011 59.2172C505.073 59.7072 504.009 59.9522 502.819 59.9522ZM502.819 57.2642C503.659 57.2642 504.345 56.9842 504.877 56.4242C505.423 55.8502 505.696 55.0872 505.696 54.1352C505.696 53.1832 505.423 52.4272 504.877 51.8672C504.345 51.2932 503.659 51.0062 502.819 51.0062C501.979 51.0062 501.286 51.2932 500.74 51.8672C500.194 52.4272 499.921 53.1832 499.921 54.1352C499.921 55.0872 500.194 55.8502 500.74 56.4242C501.286 56.9842 501.979 57.2642 502.819 57.2642ZM524.543 53.9042C525.215 54.1142 525.733 54.4362 526.097 54.8702C526.475 55.3042 526.664 55.8222 526.664 56.4242C526.664 57.1382 526.419 57.7682 525.929 58.3142C525.439 58.8462 524.767 59.2592 523.913 59.5532C523.059 59.8472 522.093 59.9942 521.015 59.9942C520.133 59.9942 519.265 59.9032 518.411 59.7212C517.557 59.5392 516.766 59.2662 516.038 58.9022L516.92 56.6132C518.11 57.1872 519.426 57.4742 520.868 57.4742C521.638 57.4742 522.24 57.3622 522.674 57.1382C523.122 56.9002 523.346 56.5712 523.346 56.1512C523.346 55.7872 523.192 55.5142 522.884 55.3322C522.576 55.1362 522.128 55.0382 521.54 55.0382H519.23V53.0012H521.246C521.82 53.0012 522.261 52.9102 522.569 52.7282C522.877 52.5462 523.031 52.2802 523.031 51.9302C523.031 51.5662 522.835 51.2862 522.443 51.0902C522.065 50.8942 521.519 50.7962 520.805 50.7962C519.713 50.7962 518.523 51.0552 517.235 51.5732L516.437 49.3052C518.005 48.6192 519.531 48.2762 521.015 48.2762C522.037 48.2762 522.947 48.4022 523.745 48.6542C524.557 48.9062 525.194 49.2772 525.656 49.7672C526.118 50.2432 526.349 50.8032 526.349 51.4472C526.349 51.9792 526.188 52.4622 525.866 52.8962C525.544 53.3162 525.103 53.6522 524.543 53.9042ZM537.678 53.8832C539.008 54.3312 539.673 55.2272 539.673 56.5712C539.673 57.5932 539.288 58.3842 538.518 58.9442C537.748 59.5042 536.6 59.7842 535.074 59.7842H529.047V48.4862H534.822C536.236 48.4862 537.342 48.7452 538.14 49.2632C538.938 49.7672 539.337 50.4812 539.337 51.4052C539.337 51.9652 539.19 52.4622 538.896 52.8962C538.616 53.3162 538.21 53.6452 537.678 53.8832ZM532.05 53.1272H534.528C535.676 53.1272 536.25 52.7212 536.25 51.9092C536.25 51.1112 535.676 50.7122 534.528 50.7122H532.05V53.1272ZM534.801 57.5582C536.005 57.5582 536.607 57.1452 536.607 56.3192C536.607 55.8852 536.467 55.5702 536.187 55.3742C535.907 55.1642 535.466 55.0592 534.864 55.0592H532.05V57.5582H534.801ZM542.09 48.4862H545.366V59.7842H542.09V48.4862ZM543.728 46.9112C543.126 46.9112 542.636 46.7362 542.258 46.3862C541.88 46.0362 541.691 45.6022 541.691 45.0842C541.691 44.5662 541.88 44.1322 542.258 43.7822C542.636 43.4322 543.126 43.2572 543.728 43.2572C544.33 43.2572 544.82 43.4252 545.198 43.7612C545.576 44.0972 545.765 44.5172 545.765 45.0212C545.765 45.5672 545.576 46.0222 545.198 46.3862C544.82 46.7362 544.33 46.9112 543.728 46.9112ZM558.001 51.1742H554.179V59.7842H550.924V51.1742H547.102V48.4862H558.001V51.1742ZM571.169 48.4862L566.066 60.4772C565.548 61.7792 564.904 62.6962 564.134 63.2282C563.378 63.7602 562.461 64.0262 561.383 64.0262C560.795 64.0262 560.214 63.9352 559.64 63.7532C559.066 63.5712 558.597 63.3192 558.233 62.9972L559.43 60.6662C559.682 60.8902 559.969 61.0652 560.291 61.1912C560.627 61.3172 560.956 61.3802 561.278 61.3802C561.726 61.3802 562.09 61.2682 562.37 61.0442C562.65 60.8342 562.902 60.4772 563.126 59.9732L563.168 59.8682L558.275 48.4862H561.656L564.827 56.1512L568.019 48.4862H571.169ZM588.924 57.0122V59.7842H577.815V57.5792L583.485 52.2242C584.087 51.6502 584.493 51.1602 584.703 50.7542C584.913 50.3342 585.018 49.9212 585.018 49.5152C585.018 48.9272 584.815 48.4792 584.409 48.1712C584.017 47.8492 583.436 47.6882 582.666 47.6882C582.022 47.6882 581.441 47.8142 580.923 48.0662C580.405 48.3042 579.971 48.6682 579.621 49.1582L577.143 47.5622C577.717 46.7082 578.508 46.0432 579.516 45.5672C580.524 45.0772 581.679 44.8322 582.981 44.8322C584.073 44.8322 585.025 45.0142 585.837 45.3782C586.663 45.7282 587.3 46.2322 587.748 46.8902C588.21 47.5342 588.441 48.2972 588.441 49.1792C588.441 49.9772 588.273 50.7262 587.937 51.4262C587.601 52.1262 586.95 52.9242 585.984 53.8202L582.603 57.0122H588.924ZM603.583 56.6972H601.189V59.7842H597.871V56.6972H589.954V54.4082L596.884 45.0842H600.454L594.028 53.9252H597.976V51.1742H601.189V53.9252H603.583V56.6972ZM151.157 77.1742H145.361V85.7842H142.106V74.4862H151.157V77.1742ZM157.713 85.9522C156.523 85.9522 155.452 85.7072 154.5 85.2172C153.562 84.7132 152.827 84.0202 152.295 83.1382C151.763 82.2562 151.497 81.2552 151.497 80.1352C151.497 79.0152 151.763 78.0142 152.295 77.1322C152.827 76.2502 153.562 75.5642 154.5 75.0742C155.452 74.5702 156.523 74.3182 157.713 74.3182C158.903 74.3182 159.967 74.5702 160.905 75.0742C161.843 75.5642 162.578 76.2502 163.11 77.1322C163.642 78.0142 163.908 79.0152 163.908 80.1352C163.908 81.2552 163.642 82.2562 163.11 83.1382C162.578 84.0202 161.843 84.7132 160.905 85.2172C159.967 85.7072 158.903 85.9522 157.713 85.9522ZM157.713 83.2642C158.553 83.2642 159.239 82.9842 159.771 82.4242C160.317 81.8502 160.59 81.0872 160.59 80.1352C160.59 79.1832 160.317 78.4272 159.771 77.8672C159.239 77.2932 158.553 77.0062 157.713 77.0062C156.873 77.0062 156.18 77.2932 155.634 77.8672C155.088 78.4272 154.815 79.1832 154.815 80.1352C154.815 81.0872 155.088 81.8502 155.634 82.4242C156.18 82.9842 156.873 83.2642 157.713 83.2642ZM178.66 83.0962V88.2202H175.615V85.7842H167.677V88.2202H164.632V83.0962H165.094C165.794 83.0822 166.277 82.6692 166.543 81.8572C166.809 81.0452 166.977 79.8902 167.047 78.3922L167.194 74.4862H177.043V83.0962H178.66ZM170.008 78.6232C169.966 79.7712 169.875 80.7092 169.735 81.4372C169.609 82.1652 169.364 82.7182 169 83.0962H173.767V77.1742H170.071L170.008 78.6232ZM180.722 74.4862H183.977V81.2062L189.479 74.4862H192.482V85.7842H189.227V79.0642L183.746 85.7842H180.722V74.4862ZM195.631 74.4862H198.886V78.8962H203.8V74.4862H207.076V85.7842H203.8V81.5632H198.886V85.7842H195.631V74.4862ZM210.212 74.4862H213.467V81.2062L218.969 74.4862H221.972V85.7842H218.717V79.0642L213.236 85.7842H210.212V74.4862ZM242.304 74.4862V85.7842H239.028V77.1742H234.324V85.7842H231.069V74.4862H242.304ZM245.424 74.4862H248.7V85.7842H245.424V74.4862ZM247.062 72.9112C246.46 72.9112 245.97 72.7362 245.592 72.3862C245.214 72.0362 245.025 71.6022 245.025 71.0842C245.025 70.5662 245.214 70.1322 245.592 69.7822C245.97 69.4322 246.46 69.2572 247.062 69.2572C247.664 69.2572 248.154 69.4252 248.532 69.7612C248.91 70.0972 249.099 70.5172 249.099 71.0212C249.099 71.5672 248.91 72.0222 248.532 72.3862C248.154 72.7362 247.664 72.9112 247.062 72.9112ZM257.219 85.9522C256.015 85.9522 254.93 85.7072 253.964 85.2172C253.012 84.7132 252.263 84.0202 251.717 83.1382C251.185 82.2562 250.919 81.2552 250.919 80.1352C250.919 79.0152 251.185 78.0142 251.717 77.1322C252.263 76.2502 253.012 75.5642 253.964 75.0742C254.93 74.5702 256.015 74.3182 257.219 74.3182C258.409 74.3182 259.445 74.5702 260.327 75.0742C261.223 75.5642 261.874 76.2712 262.28 77.1952L259.739 78.5602C259.151 77.5242 258.304 77.0062 257.198 77.0062C256.344 77.0062 255.637 77.2862 255.077 77.8462C254.517 78.4062 254.237 79.1692 254.237 80.1352C254.237 81.1012 254.517 81.8642 255.077 82.4242C255.637 82.9842 256.344 83.2642 257.198 83.2642C258.318 83.2642 259.165 82.7462 259.739 81.7102L262.28 83.0962C261.874 83.9922 261.223 84.6922 260.327 85.1962C259.445 85.7002 258.409 85.9522 257.219 85.9522ZM274.943 74.4862V85.7842H271.667V77.1742H268.097L267.992 79.1692C267.936 80.6532 267.796 81.8852 267.572 82.8652C267.348 83.8452 266.984 84.6152 266.48 85.1752C265.976 85.7352 265.276 86.0152 264.38 86.0152C263.904 86.0152 263.337 85.9312 262.679 85.7632L262.847 83.0752C263.071 83.1032 263.232 83.1172 263.33 83.1172C263.82 83.1172 264.184 82.9422 264.422 82.5922C264.674 82.2282 264.842 81.7732 264.926 81.2272C265.01 80.6672 265.073 79.9322 265.115 79.0222L265.283 74.4862H274.943ZM288.131 74.4862V85.7842H285.212V82.5502H282.797L280.655 85.7842H277.169L279.752 82.0882C278.968 81.7802 278.366 81.3392 277.946 80.7652C277.54 80.1772 277.337 79.4702 277.337 78.6442C277.337 77.3142 277.813 76.2922 278.765 75.5782C279.731 74.8502 281.054 74.4862 282.734 74.4862H288.131ZM282.797 77.1532C282.097 77.1532 281.565 77.2792 281.201 77.5312C280.851 77.7832 280.676 78.1892 280.676 78.7492C280.676 79.3092 280.844 79.7222 281.18 79.9882C281.53 80.2402 282.055 80.3662 282.755 80.3662H285.212V77.1532H282.797ZM304.556 79.9042C305.228 80.1142 305.746 80.4362 306.11 80.8702C306.488 81.3042 306.677 81.8222 306.677 82.4242C306.677 83.1382 306.432 83.7682 305.942 84.3142C305.452 84.8462 304.78 85.2592 303.926 85.5532C303.072 85.8472 302.106 85.9942 301.028 85.9942C300.146 85.9942 299.278 85.9032 298.424 85.7212C297.57 85.5392 296.779 85.2662 296.051 84.9022L296.933 82.6132C298.123 83.1872 299.439 83.4742 300.881 83.4742C301.651 83.4742 302.253 83.3622 302.687 83.1382C303.135 82.9002 303.359 82.5712 303.359 82.1512C303.359 81.7872 303.205 81.5142 302.897 81.3322C302.589 81.1362 302.141 81.0382 301.553 81.0382H299.243V79.0012H301.259C301.833 79.0012 302.274 78.9102 302.582 78.7282C302.89 78.5462 303.044 78.2802 303.044 77.9302C303.044 77.5662 302.848 77.2862 302.456 77.0902C302.078 76.8942 301.532 76.7962 300.818 76.7962C299.726 76.7962 298.536 77.0552 297.248 77.5732L296.45 75.3052C298.018 74.6192 299.544 74.2762 301.028 74.2762C302.05 74.2762 302.96 74.4022 303.758 74.6542C304.57 74.9062 305.207 75.2772 305.669 75.7672C306.131 76.2432 306.362 76.8032 306.362 77.4472C306.362 77.9792 306.201 78.4622 305.879 78.8962C305.557 79.3162 305.116 79.6522 304.556 79.9042ZM313.449 74.3182C315.199 74.3182 316.543 74.7382 317.481 75.5782C318.419 76.4042 318.888 77.6572 318.888 79.3372V85.7842H315.822V84.3772C315.206 85.4272 314.058 85.9522 312.378 85.9522C311.51 85.9522 310.754 85.8052 310.11 85.5112C309.48 85.2172 308.997 84.8112 308.661 84.2932C308.325 83.7752 308.157 83.1872 308.157 82.5292C308.157 81.4792 308.549 80.6532 309.333 80.0512C310.131 79.4492 311.356 79.1482 313.008 79.1482H315.612C315.612 78.4342 315.395 77.8882 314.961 77.5102C314.527 77.1182 313.876 76.9222 313.008 76.9222C312.406 76.9222 311.811 77.0202 311.223 77.2162C310.649 77.3982 310.159 77.6502 309.753 77.9722L308.577 75.6832C309.193 75.2492 309.928 74.9132 310.782 74.6752C311.65 74.4372 312.539 74.3182 313.449 74.3182ZM313.197 83.7472C313.757 83.7472 314.254 83.6212 314.688 83.3692C315.122 83.1032 315.43 82.7182 315.612 82.2142V81.0592H313.365C312.021 81.0592 311.349 81.5002 311.349 82.3822C311.349 82.8022 311.51 83.1382 311.832 83.3902C312.168 83.6282 312.623 83.7472 313.197 83.7472ZM326.711 81.5002H325.01V85.7842H321.734V74.4862H325.01V78.8752H326.774L329.84 74.4862H333.326L329.378 79.9042L333.599 85.7842H329.735L326.711 81.5002ZM335.186 74.4862H338.462V85.7842H335.186V74.4862ZM336.824 72.9112C336.222 72.9112 335.732 72.7362 335.354 72.3862C334.976 72.0362 334.787 71.6022 334.787 71.0842C334.787 70.5662 334.976 70.1322 335.354 69.7822C335.732 69.4322 336.222 69.2572 336.824 69.2572C337.426 69.2572 337.916 69.4252 338.294 69.7612C338.672 70.0972 338.861 70.5172 338.861 71.0212C338.861 71.5672 338.672 72.0222 338.294 72.3862C337.916 72.7362 337.426 72.9112 336.824 72.9112ZM341.606 74.4862H344.861V78.8962H349.775V74.4862H353.051V85.7842H349.775V81.5632H344.861V85.7842H341.606V74.4862ZM366.351 74.4862V85.7842H363.075V81.5842C362.123 82.0602 361.073 82.2982 359.925 82.2982C358.399 82.2982 357.244 81.9552 356.46 81.2692C355.69 80.5692 355.305 79.4912 355.305 78.0352V74.4862H358.581V77.8252C358.581 78.5112 358.756 79.0082 359.106 79.3162C359.47 79.6242 359.988 79.7782 360.66 79.7782C361.514 79.7782 362.319 79.5962 363.075 79.2322V74.4862H366.351ZM380.479 80.1772C380.479 80.2192 380.458 80.5132 380.416 81.0592H371.869C372.023 81.7592 372.387 82.3122 372.961 82.7182C373.535 83.1242 374.249 83.3272 375.103 83.3272C375.691 83.3272 376.209 83.2432 376.657 83.0752C377.119 82.8932 377.546 82.6132 377.938 82.2352L379.681 84.1252C378.617 85.3432 377.063 85.9522 375.019 85.9522C373.745 85.9522 372.618 85.7072 371.638 85.2172C370.658 84.7132 369.902 84.0202 369.37 83.1382C368.838 82.2562 368.572 81.2552 368.572 80.1352C368.572 79.0292 368.831 78.0352 369.349 77.1532C369.881 76.2572 370.602 75.5642 371.512 75.0742C372.436 74.5702 373.465 74.3182 374.599 74.3182C375.705 74.3182 376.706 74.5562 377.602 75.0322C378.498 75.5082 379.198 76.1942 379.702 77.0902C380.22 77.9722 380.479 79.0012 380.479 80.1772ZM374.62 76.7962C373.878 76.7962 373.255 77.0062 372.751 77.4262C372.247 77.8462 371.939 78.4202 371.827 79.1482H377.392C377.28 78.4342 376.972 77.8672 376.468 77.4472C375.964 77.0132 375.348 76.7962 374.62 76.7962ZM382.991 74.4862H386.246V78.8962H391.16V74.4862H394.436V85.7842H391.16V81.5632H386.246V85.7842H382.991V74.4862ZM397.572 74.4862H400.827V78.8962H405.741V74.4862H409.017V85.7842H405.741V81.5632H400.827V85.7842H397.572V74.4862ZM422.191 74.4862V85.7842H419.272V82.5502H416.857L414.715 85.7842H411.229L413.812 82.0882C413.028 81.7802 412.426 81.3392 412.006 80.7652C411.6 80.1772 411.397 79.4702 411.397 78.6442C411.397 77.3142 411.873 76.2922 412.825 75.5782C413.791 74.8502 415.114 74.4862 416.794 74.4862H422.191ZM416.857 77.1532C416.157 77.1532 415.625 77.2792 415.261 77.5312C414.911 77.7832 414.736 78.1892 414.736 78.7492C414.736 79.3092 414.904 79.7222 415.24 79.9882C415.59 80.2402 416.115 80.3662 416.815 80.3662H419.272V77.1532H416.857ZM431.265 74.4862H434.541V85.7842H431.265V74.4862ZM432.903 72.9112C432.301 72.9112 431.811 72.7362 431.433 72.3862C431.055 72.0362 430.866 71.6022 430.866 71.0842C430.866 70.5662 431.055 70.1322 431.433 69.7822C431.811 69.4322 432.301 69.2572 432.903 69.2572C433.505 69.2572 433.995 69.4252 434.373 69.7612C434.751 70.0972 434.94 70.5172 434.94 71.0212C434.94 71.5672 434.751 72.0222 434.373 72.3862C433.995 72.7362 433.505 72.9112 432.903 72.9112ZM437.685 74.4862H440.94V78.8962H445.854V74.4862H449.13V85.7842H445.854V81.5632H440.94V85.7842H437.685V74.4862ZM457.642 85.9522C456.438 85.9522 455.353 85.7072 454.387 85.2172C453.435 84.7132 452.686 84.0202 452.14 83.1382C451.608 82.2562 451.342 81.2552 451.342 80.1352C451.342 79.0152 451.608 78.0142 452.14 77.1322C452.686 76.2502 453.435 75.5642 454.387 75.0742C455.353 74.5702 456.438 74.3182 457.642 74.3182C458.832 74.3182 459.868 74.5702 460.75 75.0742C461.646 75.5642 462.297 76.2712 462.703 77.1952L460.162 78.5602C459.574 77.5242 458.727 77.0062 457.621 77.0062C456.767 77.0062 456.06 77.2862 455.5 77.8462C454.94 78.4062 454.66 79.1692 454.66 80.1352C454.66 81.1012 454.94 81.8642 455.5 82.4242C456.06 82.9842 456.767 83.2642 457.621 83.2642C458.741 83.2642 459.588 82.7462 460.162 81.7102L462.703 83.0962C462.297 83.9922 461.646 84.6922 460.75 85.1962C459.868 85.7002 458.832 85.9522 457.642 85.9522ZM475.929 74.4862V85.7842H472.653V77.1742H467.949V85.7842H464.694V74.4862H475.929ZM490.053 80.1772C490.053 80.2192 490.032 80.5132 489.99 81.0592H481.443C481.597 81.7592 481.961 82.3122 482.535 82.7182C483.109 83.1242 483.823 83.3272 484.677 83.3272C485.265 83.3272 485.783 83.2432 486.231 83.0752C486.693 82.8932 487.12 82.6132 487.512 82.2352L489.255 84.1252C488.191 85.3432 486.637 85.9522 484.593 85.9522C483.319 85.9522 482.192 85.7072 481.212 85.2172C480.232 84.7132 479.476 84.0202 478.944 83.1382C478.412 82.2562 478.146 81.2552 478.146 80.1352C478.146 79.0292 478.405 78.0352 478.923 77.1532C479.455 76.2572 480.176 75.5642 481.086 75.0742C482.01 74.5702 483.039 74.3182 484.173 74.3182C485.279 74.3182 486.28 74.5562 487.176 75.0322C488.072 75.5082 488.772 76.1942 489.276 77.0902C489.794 77.9722 490.053 79.0012 490.053 80.1772ZM484.194 76.7962C483.452 76.7962 482.829 77.0062 482.325 77.4262C481.821 77.8462 481.513 78.4202 481.401 79.1482H486.966C486.854 78.4342 486.546 77.8672 486.042 77.4472C485.538 77.0132 484.922 76.7962 484.194 76.7962ZM497.541 81.5002H495.84V85.7842H492.564V74.4862H495.84V78.8752H497.604L500.67 74.4862H504.156L500.208 79.9042L504.429 85.7842H500.565L497.541 81.5002ZM518.763 83.0962V88.2622H515.718V85.7842H506.037V74.4862H509.292V83.0962H513.849V74.4862H517.125V83.0962H518.763ZM520.803 74.4862H524.079V85.7842H520.803V74.4862ZM522.441 72.9112C521.839 72.9112 521.349 72.7362 520.971 72.3862C520.593 72.0362 520.404 71.6022 520.404 71.0842C520.404 70.5662 520.593 70.1322 520.971 69.7822C521.349 69.4322 521.839 69.2572 522.441 69.2572C523.043 69.2572 523.533 69.4252 523.911 69.7612C524.289 70.0972 524.478 70.5172 524.478 71.0212C524.478 71.5672 524.289 72.0222 523.911 72.3862C523.533 72.7362 523.043 72.9112 522.441 72.9112ZM527.159 74.4862H530.435V85.7842H527.159V74.4862ZM527.075 72.9112C526.683 72.9112 526.354 72.7782 526.088 72.5122C525.836 72.2462 525.71 71.9032 525.71 71.4832C525.71 71.0632 525.836 70.7202 526.088 70.4542C526.354 70.1882 526.683 70.0552 527.075 70.0552C527.467 70.0552 527.796 70.1882 528.062 70.4542C528.328 70.7202 528.461 71.0632 528.461 71.4832C528.461 71.9032 528.328 72.2462 528.062 72.5122C527.796 72.7782 527.467 72.9112 527.075 72.9112ZM530.519 72.9112C530.127 72.9112 529.798 72.7782 529.532 72.5122C529.266 72.2462 529.133 71.9032 529.133 71.4832C529.133 71.0632 529.266 70.7202 529.532 70.4542C529.798 70.1882 530.127 70.0552 530.519 70.0552C530.911 70.0552 531.233 70.1882 531.485 70.4542C531.751 70.7202 531.884 71.0632 531.884 71.4832C531.884 71.9032 531.751 72.2462 531.485 72.5122C531.233 72.7782 530.911 72.9112 530.519 72.9112Z" fill="white"/>
</svg>
