<svg width="542" height="114" viewBox="0 0 542 114" fill="none" xmlns="http://www.w3.org/2000/svg">
<rect x="26.0402" y="14.415" width="515.96" height="85.2381" fill="#3E4671"/>
<path d="M111.958 56.7209C111.958 86.9339 87.3513 111.442 56.9788 111.442C26.6063 111.442 2 86.9339 2 56.7209C2 26.5079 26.6063 2 56.9788 2C87.3513 2 111.958 26.5079 111.958 56.7209Z" fill="white" stroke="#3E4671" stroke-width="4"/>
<path d="M72.4431 32.9834C74.7144 32.9834 76.8926 33.8865 78.4986 35.4941C80.1047 37.1017 81.0069 39.2821 81.0069 41.5555V71.8876C81.0069 74.1611 80.1047 76.3415 78.4986 77.949C76.8926 79.5566 74.7144 80.4598 72.4431 80.4598H42.1406C39.8693 80.4598 37.6911 79.5566 36.0851 77.949C34.479 76.3415 33.5768 74.1611 33.5768 71.8876V41.5555C33.5768 39.2821 34.479 37.1017 36.0851 35.4941C37.6911 33.8865 39.8693 32.9834 42.1406 32.9834H72.4431ZM72.4431 36.9398H42.1406C40.9176 36.9398 39.7447 37.4261 38.8799 38.2917C38.0151 39.1573 37.5293 40.3313 37.5293 41.5555V71.8876C37.5293 74.4355 39.5951 76.5034 42.1406 76.5034H72.4431C73.6661 76.5034 74.839 76.0171 75.7038 75.1515C76.5686 74.2858 77.0544 73.1118 77.0544 71.8876V41.5555C77.0544 40.3313 76.5686 39.1573 75.7038 38.2917C74.839 37.4261 73.6661 36.9398 72.4431 36.9398Z" fill="#3E4671"/>
<path d="M60.5856 46.1709C61.1098 46.1709 61.6124 46.3793 61.9831 46.7503C62.3537 47.1213 62.5619 47.6244 62.5619 48.1491V55.4024H66.5144V48.1491C66.5144 47.6244 66.7226 47.1213 67.0932 46.7503C67.4639 46.3793 67.9665 46.1709 68.4907 46.1709C69.0148 46.1709 69.5175 46.3793 69.8881 46.7503C70.2587 47.1213 70.4669 47.6244 70.4669 48.1491V65.2142C70.4669 65.7388 70.2587 66.242 69.8881 66.613C69.5175 66.984 69.0148 67.1924 68.4907 67.1924C67.9665 67.1924 67.4639 66.984 67.0932 66.613C66.7226 66.242 66.5144 65.7388 66.5144 65.2142V59.3588H60.5856C60.0615 59.3588 59.5588 59.1504 59.1882 58.7794C58.8176 58.4084 58.6094 57.9052 58.6094 57.3806V48.1491C58.6094 47.6244 58.8176 47.1213 59.1882 46.7503C59.5588 46.3793 60.0615 46.1709 60.5856 46.1709V46.1709Z" fill="#3E4671"/>
<path d="M45.4342 48.1333C46.3485 47.1257 47.8452 46.1709 50.0455 46.1709C53.081 46.1709 55.0362 48.2599 55.7239 50.5519C56.3906 52.7859 55.9874 55.5501 54.0902 57.4571C53.4393 58.1112 52.6726 58.7047 52.0006 59.2243L51.8952 59.306C51.1574 59.8757 50.4987 60.3927 49.919 60.9677C49.247 61.6429 48.6963 62.3788 48.3775 63.3151H53.998C54.5221 63.3151 55.0248 63.5236 55.3954 63.8945C55.766 64.2655 55.9742 64.7687 55.9742 65.2933C55.9742 65.818 55.766 66.3211 55.3954 66.6921C55.0248 67.0631 54.5221 67.2715 53.998 67.2715H46.0929C45.5688 67.2715 45.0661 67.0631 44.6955 66.6921C44.3249 66.3211 44.1167 65.818 44.1167 65.2933C44.1167 62.0043 45.4974 59.7992 47.1311 58.1692C47.9111 57.3885 48.7596 56.7317 49.4763 56.1752L49.4842 56.1699C50.2378 55.587 50.8228 55.1334 51.2892 54.6665C52.0059 53.9438 52.2562 52.7543 51.9374 51.6861C51.6344 50.6812 50.9624 50.1273 50.0455 50.1273C49.1153 50.1273 48.6357 50.4886 48.359 50.7946C48.1981 50.9736 48.0673 51.1776 47.9717 51.3986L47.9664 51.4065C47.8011 51.9007 47.4476 52.3096 46.9827 52.5444C46.5178 52.7792 45.9791 52.8208 45.4838 52.6603C44.9884 52.4998 44.5763 52.15 44.3371 51.6871C44.0979 51.2241 44.0509 50.6854 44.2063 50.1879L44.2985 49.9347C44.5692 49.2731 44.9526 48.6636 45.4316 48.1333H45.4342Z" fill="#3E4671"/>
<path d="M119.577 37.7H125.619C127.063 37.7 128.336 37.9787 129.438 38.536C130.553 39.0807 131.414 39.8533 132.022 40.854C132.643 41.8547 132.953 43.02 132.953 44.35C132.953 45.68 132.643 46.8453 132.022 47.846C131.414 48.8467 130.553 49.6257 129.438 50.183C128.336 50.7277 127.063 51 125.619 51H119.577V37.7ZM125.467 48.473C126.797 48.473 127.855 48.1057 128.64 47.371C129.438 46.6237 129.837 45.6167 129.837 44.35C129.837 43.0833 129.438 42.0827 128.64 41.348C127.855 40.6007 126.797 40.227 125.467 40.227H122.655V48.473H125.467ZM145.078 45.927C145.078 45.965 145.059 46.231 145.021 46.725H137.288C137.428 47.3583 137.757 47.8587 138.276 48.226C138.796 48.5933 139.442 48.777 140.214 48.777C140.746 48.777 141.215 48.701 141.62 48.549C142.038 48.3843 142.425 48.131 142.779 47.789L144.356 49.499C143.394 50.601 141.988 51.152 140.138 51.152C138.986 51.152 137.966 50.9303 137.079 50.487C136.193 50.031 135.509 49.404 135.027 48.606C134.546 47.808 134.305 46.9023 134.305 45.889C134.305 44.8883 134.54 43.989 135.008 43.191C135.49 42.3803 136.142 41.7533 136.965 41.31C137.801 40.854 138.732 40.626 139.758 40.626C140.759 40.626 141.665 40.8413 142.475 41.272C143.286 41.7027 143.919 42.3233 144.375 43.134C144.844 43.932 145.078 44.863 145.078 45.927ZM139.777 42.868C139.106 42.868 138.542 43.058 138.086 43.438C137.63 43.818 137.352 44.3373 137.25 44.996H142.285C142.184 44.35 141.905 43.837 141.449 43.457C140.993 43.0643 140.436 42.868 139.777 42.868ZM150.896 40.626C152.48 40.626 153.696 41.006 154.544 41.766C155.393 42.5133 155.817 43.647 155.817 45.167V51H153.043V49.727C152.486 50.677 151.447 51.152 149.927 51.152C149.142 51.152 148.458 51.019 147.875 50.753C147.305 50.487 146.868 50.1197 146.564 49.651C146.26 49.1823 146.108 48.6503 146.108 48.055C146.108 47.105 146.463 46.3577 147.172 45.813C147.894 45.2683 149.003 44.996 150.497 44.996H152.853C152.853 44.35 152.657 43.856 152.264 43.514C151.872 43.1593 151.283 42.982 150.497 42.982C149.953 42.982 149.414 43.0707 148.882 43.248C148.363 43.4127 147.92 43.6407 147.552 43.932L146.488 41.861C147.046 41.4683 147.711 41.1643 148.483 40.949C149.269 40.7337 150.073 40.626 150.896 40.626ZM150.668 49.157C151.175 49.157 151.625 49.043 152.017 48.815C152.41 48.5743 152.689 48.226 152.853 47.77V46.725H150.82C149.604 46.725 148.996 47.124 148.996 47.922C148.996 48.302 149.142 48.606 149.433 48.834C149.737 49.0493 150.149 49.157 150.668 49.157ZM169.023 36.902V51H166.192V49.822C165.457 50.7087 164.393 51.152 163 51.152C162.037 51.152 161.163 50.9367 160.378 50.506C159.605 50.0753 158.997 49.461 158.554 48.663C158.111 47.865 157.889 46.9403 157.889 45.889C157.889 44.8377 158.111 43.913 158.554 43.115C158.997 42.317 159.605 41.7027 160.378 41.272C161.163 40.8413 162.037 40.626 163 40.626C164.305 40.626 165.324 41.0377 166.059 41.861V36.902H169.023ZM163.513 48.72C164.26 48.72 164.881 48.4667 165.375 47.96C165.869 47.4407 166.116 46.7503 166.116 45.889C166.116 45.0277 165.869 44.3437 165.375 43.837C164.881 43.3177 164.26 43.058 163.513 43.058C162.753 43.058 162.126 43.3177 161.632 43.837C161.138 44.3437 160.891 45.0277 160.891 45.889C160.891 46.7503 161.138 47.4407 161.632 47.96C162.126 48.4667 162.753 48.72 163.513 48.72ZM171.766 36.902H174.73V51H171.766V36.902ZM177.481 40.778H180.445V51H177.481V40.778ZM178.963 39.353C178.419 39.353 177.975 39.1947 177.633 38.878C177.291 38.5613 177.12 38.1687 177.12 37.7C177.12 37.2313 177.291 36.8387 177.633 36.522C177.975 36.2053 178.419 36.047 178.963 36.047C179.508 36.047 179.951 36.199 180.293 36.503C180.635 36.807 180.806 37.187 180.806 37.643C180.806 38.137 180.635 38.5487 180.293 38.878C179.951 39.1947 179.508 39.353 178.963 39.353ZM189.409 40.626C190.676 40.626 191.695 41.006 192.468 41.766C193.253 42.526 193.646 43.6533 193.646 45.148V51H190.682V45.604C190.682 44.7933 190.505 44.1917 190.15 43.799C189.795 43.3937 189.282 43.191 188.611 43.191C187.864 43.191 187.268 43.4253 186.825 43.894C186.382 44.35 186.16 45.034 186.16 45.946V51H183.196V40.778H186.027V41.975C186.42 41.5443 186.907 41.215 187.49 40.987C188.073 40.7463 188.712 40.626 189.409 40.626ZM206.457 45.927C206.457 45.965 206.438 46.231 206.4 46.725H198.667C198.807 47.3583 199.136 47.8587 199.655 48.226C200.175 48.5933 200.821 48.777 201.593 48.777C202.125 48.777 202.594 48.701 202.999 48.549C203.417 48.3843 203.804 48.131 204.158 47.789L205.735 49.499C204.773 50.601 203.367 51.152 201.517 51.152C200.365 51.152 199.345 50.9303 198.458 50.487C197.572 50.031 196.888 49.404 196.406 48.606C195.925 47.808 195.684 46.9023 195.684 45.889C195.684 44.8883 195.919 43.989 196.387 43.191C196.869 42.3803 197.521 41.7533 198.344 41.31C199.18 40.854 200.111 40.626 201.137 40.626C202.138 40.626 203.044 40.8413 203.854 41.272C204.665 41.7027 205.298 42.3233 205.754 43.134C206.223 43.932 206.457 44.863 206.457 45.927ZM201.156 42.868C200.485 42.868 199.921 43.058 199.465 43.438C199.009 43.818 198.731 44.3373 198.629 44.996H203.664C203.563 44.35 203.284 43.837 202.828 43.457C202.372 43.0643 201.815 42.868 201.156 42.868ZM217.06 41.006H219.682V43.286H217.136V51H214.172V43.286H212.595V41.006H214.172V40.55C214.172 39.3847 214.514 38.46 215.198 37.776C215.895 37.092 216.87 36.75 218.124 36.75C218.568 36.75 218.986 36.8007 219.378 36.902C219.784 36.9907 220.119 37.1237 220.385 37.301L219.606 39.448C219.264 39.2073 218.865 39.087 218.409 39.087C217.51 39.087 217.06 39.581 217.06 40.569V41.006ZM225.893 51.152C224.816 51.152 223.847 50.9303 222.986 50.487C222.137 50.031 221.472 49.404 220.991 48.606C220.51 47.808 220.269 46.9023 220.269 45.889C220.269 44.8757 220.51 43.97 220.991 43.172C221.472 42.374 222.137 41.7533 222.986 41.31C223.847 40.854 224.816 40.626 225.893 40.626C226.97 40.626 227.932 40.854 228.781 41.31C229.63 41.7533 230.295 42.374 230.776 43.172C231.257 43.97 231.498 44.8757 231.498 45.889C231.498 46.9023 231.257 47.808 230.776 48.606C230.295 49.404 229.63 50.031 228.781 50.487C227.932 50.9303 226.97 51.152 225.893 51.152ZM225.893 48.72C226.653 48.72 227.274 48.4667 227.755 47.96C228.249 47.4407 228.496 46.7503 228.496 45.889C228.496 45.0277 228.249 44.3437 227.755 43.837C227.274 43.3177 226.653 43.058 225.893 43.058C225.133 43.058 224.506 43.3177 224.012 43.837C223.518 44.3437 223.271 45.0277 223.271 45.889C223.271 46.7503 223.518 47.4407 224.012 47.96C224.506 48.4667 225.133 48.72 225.893 48.72ZM236.31 42.127C236.665 41.633 237.14 41.2593 237.735 41.006C238.343 40.7527 239.04 40.626 239.825 40.626V43.362C239.496 43.3367 239.274 43.324 239.16 43.324C238.312 43.324 237.647 43.5647 237.165 44.046C236.684 44.5147 236.443 45.224 236.443 46.174V51H233.479V40.778H236.31V42.127ZM247.043 40.778H250.007V51H247.043V40.778ZM248.525 39.353C247.98 39.353 247.537 39.1947 247.195 38.878C246.853 38.5613 246.682 38.1687 246.682 37.7C246.682 37.2313 246.853 36.8387 247.195 36.522C247.537 36.2053 247.98 36.047 248.525 36.047C249.069 36.047 249.513 36.199 249.855 36.503C250.197 36.807 250.368 37.187 250.368 37.643C250.368 38.137 250.197 38.5487 249.855 38.878C249.513 39.1947 249.069 39.353 248.525 39.353ZM256.197 51.152C255.348 51.152 254.518 51.0507 253.708 50.848C252.897 50.6327 252.251 50.3667 251.77 50.05L252.758 47.922C253.214 48.2133 253.765 48.454 254.411 48.644C255.057 48.8213 255.69 48.91 256.311 48.91C257.565 48.91 258.192 48.5997 258.192 47.979C258.192 47.6877 258.021 47.4787 257.679 47.352C257.337 47.2253 256.811 47.1177 256.102 47.029C255.266 46.9023 254.575 46.7567 254.031 46.592C253.486 46.4273 253.011 46.136 252.606 45.718C252.213 45.3 252.017 44.7047 252.017 43.932C252.017 43.286 252.2 42.716 252.568 42.222C252.948 41.7153 253.492 41.3227 254.202 41.044C254.924 40.7653 255.772 40.626 256.748 40.626C257.47 40.626 258.185 40.7083 258.895 40.873C259.617 41.025 260.212 41.2403 260.681 41.519L259.693 43.628C258.793 43.1213 257.812 42.868 256.748 42.868C256.114 42.868 255.639 42.9567 255.323 43.134C255.006 43.3113 254.848 43.5393 254.848 43.818C254.848 44.1347 255.019 44.3563 255.361 44.483C255.703 44.6097 256.247 44.73 256.995 44.844C257.831 44.9833 258.515 45.1353 259.047 45.3C259.579 45.452 260.041 45.737 260.434 46.155C260.826 46.573 261.023 47.1557 261.023 47.903C261.023 48.5363 260.833 49.1 260.453 49.594C260.073 50.088 259.515 50.4743 258.781 50.753C258.059 51.019 257.197 51.152 256.197 51.152ZM266.29 51.152C265.442 51.152 264.612 51.0507 263.801 50.848C262.991 50.6327 262.345 50.3667 261.863 50.05L262.851 47.922C263.307 48.2133 263.858 48.454 264.504 48.644C265.15 48.8213 265.784 48.91 266.404 48.91C267.658 48.91 268.285 48.5997 268.285 47.979C268.285 47.6877 268.114 47.4787 267.772 47.352C267.43 47.2253 266.905 47.1177 266.195 47.029C265.359 46.9023 264.669 46.7567 264.124 46.592C263.58 46.4273 263.105 46.136 262.699 45.718C262.307 45.3 262.11 44.7047 262.11 43.932C262.11 43.286 262.294 42.716 262.661 42.222C263.041 41.7153 263.586 41.3227 264.295 41.044C265.017 40.7653 265.866 40.626 266.841 40.626C267.563 40.626 268.279 40.7083 268.988 40.873C269.71 41.025 270.306 41.2403 270.774 41.519L269.786 43.628C268.887 43.1213 267.905 42.868 266.841 42.868C266.208 42.868 265.733 42.9567 265.416 43.134C265.1 43.3113 264.941 43.5393 264.941 43.818C264.941 44.1347 265.112 44.3563 265.454 44.483C265.796 44.6097 266.341 44.73 267.088 44.844C267.924 44.9833 268.608 45.1353 269.14 45.3C269.672 45.452 270.135 45.737 270.527 46.155C270.92 46.573 271.116 47.1557 271.116 47.903C271.116 48.5363 270.926 49.1 270.546 49.594C270.166 50.088 269.609 50.4743 268.874 50.753C268.152 51.019 267.291 51.152 266.29 51.152ZM283.243 40.778V51H280.431V49.784C280.038 50.2273 279.57 50.5693 279.025 50.81C278.48 51.038 277.891 51.152 277.258 51.152C275.915 51.152 274.851 50.7657 274.066 49.993C273.281 49.2203 272.888 48.074 272.888 46.554V40.778H275.852V46.117C275.852 47.7637 276.542 48.587 277.923 48.587C278.632 48.587 279.202 48.359 279.633 47.903C280.064 47.4343 280.279 46.744 280.279 45.832V40.778H283.243ZM285.989 40.778H288.953V51H285.989V40.778ZM287.471 39.353C286.926 39.353 286.483 39.1947 286.141 38.878C285.799 38.5613 285.628 38.1687 285.628 37.7C285.628 37.2313 285.799 36.8387 286.141 36.522C286.483 36.2053 286.926 36.047 287.471 36.047C288.016 36.047 288.459 36.199 288.801 36.503C289.143 36.807 289.314 37.187 289.314 37.643C289.314 38.137 289.143 38.5487 288.801 38.878C288.459 39.1947 288.016 39.353 287.471 39.353ZM297.917 40.626C299.184 40.626 300.203 41.006 300.976 41.766C301.761 42.526 302.154 43.6533 302.154 45.148V51H299.19V45.604C299.19 44.7933 299.013 44.1917 298.658 43.799C298.303 43.3937 297.79 43.191 297.119 43.191C296.372 43.191 295.776 43.4253 295.333 43.894C294.89 44.35 294.668 45.034 294.668 45.946V51H291.704V40.778H294.535V41.975C294.928 41.5443 295.415 41.215 295.998 40.987C296.581 40.7463 297.22 40.626 297.917 40.626ZM315.497 40.778V49.29C315.497 51.1647 315.009 52.558 314.034 53.47C313.059 54.382 311.634 54.838 309.759 54.838C308.771 54.838 307.834 54.7177 306.947 54.477C306.06 54.2363 305.326 53.888 304.743 53.432L305.921 51.304C306.352 51.6587 306.896 51.9373 307.555 52.14C308.214 52.3553 308.872 52.463 309.531 52.463C310.557 52.463 311.311 52.2287 311.792 51.76C312.286 51.304 312.533 50.6073 312.533 49.67V49.233C311.76 50.0817 310.684 50.506 309.303 50.506C308.366 50.506 307.504 50.3033 306.719 49.898C305.946 49.48 305.332 48.8973 304.876 48.15C304.42 47.4027 304.192 46.5413 304.192 45.566C304.192 44.5907 304.42 43.7293 304.876 42.982C305.332 42.2347 305.946 41.6583 306.719 41.253C307.504 40.835 308.366 40.626 309.303 40.626C310.785 40.626 311.912 41.1137 312.685 42.089V40.778H315.497ZM309.892 48.074C310.677 48.074 311.317 47.846 311.811 47.39C312.318 46.9213 312.571 46.3133 312.571 45.566C312.571 44.8187 312.318 44.217 311.811 43.761C311.317 43.2923 310.677 43.058 309.892 43.058C309.107 43.058 308.461 43.2923 307.954 43.761C307.447 44.217 307.194 44.8187 307.194 45.566C307.194 46.3133 307.447 46.9213 307.954 47.39C308.461 47.846 309.107 48.074 309.892 48.074ZM327.76 40.626C329.343 40.626 330.559 41.006 331.408 41.766C332.256 42.5133 332.681 43.647 332.681 45.167V51H329.907V49.727C329.349 50.677 328.311 51.152 326.791 51.152C326.005 51.152 325.321 51.019 324.739 50.753C324.169 50.487 323.732 50.1197 323.428 49.651C323.124 49.1823 322.972 48.6503 322.972 48.055C322.972 47.105 323.326 46.3577 324.036 45.813C324.758 45.2683 325.866 44.996 327.361 44.996H329.717C329.717 44.35 329.52 43.856 329.128 43.514C328.735 43.1593 328.146 42.982 327.361 42.982C326.816 42.982 326.278 43.0707 325.746 43.248C325.226 43.4127 324.783 43.6407 324.416 43.932L323.352 41.861C323.909 41.4683 324.574 41.1643 325.347 40.949C326.132 40.7337 326.936 40.626 327.76 40.626ZM327.532 49.157C328.038 49.157 328.488 49.043 328.881 48.815C329.273 48.5743 329.552 48.226 329.717 47.77V46.725H327.684C326.468 46.725 325.86 47.124 325.86 47.922C325.86 48.302 326.005 48.606 326.297 48.834C326.601 49.0493 327.012 49.157 327.532 49.157ZM344.183 51.152C343.334 51.152 342.505 51.0507 341.694 50.848C340.883 50.6327 340.237 50.3667 339.756 50.05L340.744 47.922C341.2 48.2133 341.751 48.454 342.397 48.644C343.043 48.8213 343.676 48.91 344.297 48.91C345.551 48.91 346.178 48.5997 346.178 47.979C346.178 47.6877 346.007 47.4787 345.665 47.352C345.323 47.2253 344.797 47.1177 344.088 47.029C343.252 46.9023 342.562 46.7567 342.017 46.592C341.472 46.4273 340.997 46.136 340.592 45.718C340.199 45.3 340.003 44.7047 340.003 43.932C340.003 43.286 340.187 42.716 340.554 42.222C340.934 41.7153 341.479 41.3227 342.188 41.044C342.91 40.7653 343.759 40.626 344.734 40.626C345.456 40.626 346.172 40.7083 346.881 40.873C347.603 41.025 348.198 41.2403 348.667 41.519L347.679 43.628C346.78 43.1213 345.798 42.868 344.734 42.868C344.101 42.868 343.626 42.9567 343.309 43.134C342.992 43.3113 342.834 43.5393 342.834 43.818C342.834 44.1347 343.005 44.3563 343.347 44.483C343.689 44.6097 344.234 44.73 344.981 44.844C345.817 44.9833 346.501 45.1353 347.033 45.3C347.565 45.452 348.027 45.737 348.42 46.155C348.813 46.573 349.009 47.1557 349.009 47.903C349.009 48.5363 348.819 49.1 348.439 49.594C348.059 50.088 347.502 50.4743 346.767 50.753C346.045 51.019 345.184 51.152 344.183 51.152ZM361.136 40.778V51H358.324V49.784C357.931 50.2273 357.462 50.5693 356.918 50.81C356.373 51.038 355.784 51.152 355.151 51.152C353.808 51.152 352.744 50.7657 351.959 49.993C351.173 49.2203 350.781 48.074 350.781 46.554V40.778H353.745V46.117C353.745 47.7637 354.435 48.587 355.816 48.587C356.525 48.587 357.095 48.359 357.526 47.903C357.956 47.4343 358.172 46.744 358.172 45.832V40.778H361.136ZM366.713 42.127C367.067 41.633 367.542 41.2593 368.138 41.006C368.746 40.7527 369.442 40.626 370.228 40.626V43.362C369.898 43.3367 369.677 43.324 369.563 43.324C368.714 43.324 368.049 43.5647 367.568 44.046C367.086 44.5147 366.846 45.224 366.846 46.174V51H363.882V40.778H366.713V42.127ZM382.489 40.778L378.176 51H375.117L370.823 40.778H373.882L376.713 47.732L379.639 40.778H382.489ZM393.433 45.927C393.433 45.965 393.414 46.231 393.376 46.725H385.643C385.782 47.3583 386.111 47.8587 386.631 48.226C387.15 48.5933 387.796 48.777 388.569 48.777C389.101 48.777 389.569 48.701 389.975 48.549C390.393 48.3843 390.779 48.131 391.134 47.789L392.711 49.499C391.748 50.601 390.342 51.152 388.493 51.152C387.34 51.152 386.32 50.9303 385.434 50.487C384.547 50.031 383.863 49.404 383.382 48.606C382.9 47.808 382.66 46.9023 382.66 45.889C382.66 44.8883 382.894 43.989 383.363 43.191C383.844 42.3803 384.496 41.7533 385.32 41.31C386.156 40.854 387.087 40.626 388.113 40.626C389.113 40.626 390.019 40.8413 390.83 41.272C391.64 41.7027 392.274 42.3233 392.73 43.134C393.198 43.932 393.433 44.863 393.433 45.927ZM388.132 42.868C387.46 42.868 386.897 43.058 386.441 43.438C385.985 43.818 385.706 44.3373 385.605 44.996H390.64C390.538 44.35 390.26 43.837 389.804 43.457C389.348 43.0643 388.79 42.868 388.132 42.868ZM405.367 40.778L400.75 51.627C400.281 52.805 399.698 53.6347 399.002 54.116C398.318 54.5973 397.488 54.838 396.513 54.838C395.981 54.838 395.455 54.7557 394.936 54.591C394.416 54.4263 393.992 54.1983 393.663 53.907L394.746 51.798C394.974 52.0007 395.233 52.159 395.525 52.273C395.829 52.387 396.126 52.444 396.418 52.444C396.823 52.444 397.152 52.3427 397.406 52.14C397.659 51.95 397.887 51.627 398.09 51.171L398.128 51.076L393.701 40.778H396.76L399.629 47.713L402.517 40.778H405.367ZM414.788 42.127C415.143 41.633 415.618 41.2593 416.213 41.006C416.821 40.7527 417.518 40.626 418.303 40.626V43.362C417.974 43.3367 417.752 43.324 417.638 43.324C416.789 43.324 416.124 43.5647 415.643 44.046C415.162 44.5147 414.921 45.224 414.921 46.174V51H411.957V40.778H414.788V42.127ZM429.985 45.927C429.985 45.965 429.966 46.231 429.928 46.725H422.195C422.335 47.3583 422.664 47.8587 423.183 48.226C423.703 48.5933 424.349 48.777 425.121 48.777C425.653 48.777 426.122 48.701 426.527 48.549C426.945 48.3843 427.332 48.131 427.686 47.789L429.263 49.499C428.301 50.601 426.895 51.152 425.045 51.152C423.893 51.152 422.873 50.9303 421.986 50.487C421.1 50.031 420.416 49.404 419.934 48.606C419.453 47.808 419.212 46.9023 419.212 45.889C419.212 44.8883 419.447 43.989 419.915 43.191C420.397 42.3803 421.049 41.7533 421.872 41.31C422.708 40.854 423.639 40.626 424.665 40.626C425.666 40.626 426.572 40.8413 427.382 41.272C428.193 41.7027 428.826 42.3233 429.282 43.134C429.751 43.932 429.985 44.863 429.985 45.927ZM424.684 42.868C424.013 42.868 423.449 43.058 422.993 43.438C422.537 43.818 422.259 44.3373 422.157 44.996H427.192C427.091 44.35 426.812 43.837 426.356 43.457C425.9 43.0643 425.343 42.868 424.684 42.868ZM438.001 40.626C438.951 40.626 439.812 40.8477 440.585 41.291C441.37 41.7217 441.984 42.336 442.428 43.134C442.871 43.9193 443.093 44.8377 443.093 45.889C443.093 46.9403 442.871 47.865 442.428 48.663C441.984 49.4483 441.37 50.0627 440.585 50.506C439.812 50.9367 438.951 51.152 438.001 51.152C436.696 51.152 435.67 50.7403 434.923 49.917V54.686H431.959V40.778H434.79V41.956C435.524 41.0693 436.595 40.626 438.001 40.626ZM437.488 48.72C438.248 48.72 438.868 48.4667 439.35 47.96C439.844 47.4407 440.091 46.7503 440.091 45.889C440.091 45.0277 439.844 44.3437 439.35 43.837C438.868 43.3177 438.248 43.058 437.488 43.058C436.728 43.058 436.101 43.3177 435.607 43.837C435.125 44.3437 434.885 45.0277 434.885 45.889C434.885 46.7503 435.125 47.4407 435.607 47.96C436.101 48.4667 436.728 48.72 437.488 48.72ZM449.941 51.152C448.864 51.152 447.895 50.9303 447.034 50.487C446.185 50.031 445.52 49.404 445.039 48.606C444.558 47.808 444.317 46.9023 444.317 45.889C444.317 44.8757 444.558 43.97 445.039 43.172C445.52 42.374 446.185 41.7533 447.034 41.31C447.895 40.854 448.864 40.626 449.941 40.626C451.018 40.626 451.98 40.854 452.829 41.31C453.678 41.7533 454.343 42.374 454.824 43.172C455.305 43.97 455.546 44.8757 455.546 45.889C455.546 46.9023 455.305 47.808 454.824 48.606C454.343 49.404 453.678 50.031 452.829 50.487C451.98 50.9303 451.018 51.152 449.941 51.152ZM449.941 48.72C450.701 48.72 451.322 48.4667 451.803 47.96C452.297 47.4407 452.544 46.7503 452.544 45.889C452.544 45.0277 452.297 44.3437 451.803 43.837C451.322 43.3177 450.701 43.058 449.941 43.058C449.181 43.058 448.554 43.3177 448.06 43.837C447.566 44.3437 447.319 45.0277 447.319 45.889C447.319 46.7503 447.566 47.4407 448.06 47.96C448.554 48.4667 449.181 48.72 449.941 48.72ZM460.358 42.127C460.713 41.633 461.188 41.2593 461.783 41.006C462.391 40.7527 463.088 40.626 463.873 40.626V43.362C463.544 43.3367 463.322 43.324 463.208 43.324C462.36 43.324 461.695 43.5647 461.213 44.046C460.732 44.5147 460.491 45.224 460.491 46.174V51H457.527V40.778H460.358V42.127ZM472.581 50.506C472.29 50.7213 471.929 50.886 471.498 51C471.08 51.1013 470.637 51.152 470.168 51.152C468.952 51.152 468.008 50.8417 467.337 50.221C466.678 49.6003 466.349 48.6883 466.349 47.485V43.286H464.772V41.006H466.349V38.517H469.313V41.006H471.859V43.286H469.313V47.447C469.313 47.8777 469.421 48.2133 469.636 48.454C469.864 48.682 470.181 48.796 470.586 48.796C471.055 48.796 471.454 48.6693 471.783 48.416L472.581 50.506ZM479.626 40.778H482.59V51H479.626V40.778ZM481.108 39.353C480.563 39.353 480.12 39.1947 479.778 38.878C479.436 38.5613 479.265 38.1687 479.265 37.7C479.265 37.2313 479.436 36.8387 479.778 36.522C480.12 36.2053 480.563 36.047 481.108 36.047C481.652 36.047 482.096 36.199 482.438 36.503C482.78 36.807 482.951 37.187 482.951 37.643C482.951 38.137 482.78 38.5487 482.438 38.878C482.096 39.1947 481.652 39.353 481.108 39.353ZM488.78 51.152C487.931 51.152 487.101 51.0507 486.291 50.848C485.48 50.6327 484.834 50.3667 484.353 50.05L485.341 47.922C485.797 48.2133 486.348 48.454 486.994 48.644C487.64 48.8213 488.273 48.91 488.894 48.91C490.148 48.91 490.775 48.5997 490.775 47.979C490.775 47.6877 490.604 47.4787 490.262 47.352C489.92 47.2253 489.394 47.1177 488.685 47.029C487.849 46.9023 487.158 46.7567 486.614 46.592C486.069 46.4273 485.594 46.136 485.189 45.718C484.796 45.3 484.6 44.7047 484.6 43.932C484.6 43.286 484.783 42.716 485.151 42.222C485.531 41.7153 486.075 41.3227 486.785 41.044C487.507 40.7653 488.355 40.626 489.331 40.626C490.053 40.626 490.768 40.7083 491.478 40.873C492.2 41.025 492.795 41.2403 493.264 41.519L492.276 43.628C491.376 43.1213 490.395 42.868 489.331 42.868C488.697 42.868 488.222 42.9567 487.906 43.134C487.589 43.3113 487.431 43.5393 487.431 43.818C487.431 44.1347 487.602 44.3563 487.944 44.483C488.286 44.6097 488.83 44.73 489.578 44.844C490.414 44.9833 491.098 45.1353 491.63 45.3C492.162 45.452 492.624 45.737 493.017 46.155C493.409 46.573 493.606 47.1557 493.606 47.903C493.606 48.5363 493.416 49.1 493.036 49.594C492.656 50.088 492.098 50.4743 491.364 50.753C490.642 51.019 489.78 51.152 488.78 51.152ZM510.125 48.492V51H500.074V49.005L505.204 44.16C505.749 43.6407 506.116 43.1973 506.306 42.83C506.496 42.45 506.591 42.0763 506.591 41.709C506.591 41.177 506.408 40.7717 506.04 40.493C505.686 40.2017 505.16 40.056 504.463 40.056C503.881 40.056 503.355 40.17 502.886 40.398C502.418 40.6133 502.025 40.9427 501.708 41.386L499.466 39.942C499.986 39.1693 500.701 38.5677 501.613 38.137C502.525 37.6937 503.57 37.472 504.748 37.472C505.736 37.472 506.598 37.6367 507.332 37.966C508.08 38.2827 508.656 38.7387 509.061 39.334C509.479 39.9167 509.688 40.607 509.688 41.405C509.688 42.127 509.536 42.8047 509.232 43.438C508.928 44.0713 508.339 44.7933 507.465 45.604L504.406 48.492H510.125ZM523.389 48.207H521.223V51H518.221V48.207H511.058V46.136L517.328 37.7H520.558L514.744 45.699H518.316V43.21H521.223V45.699H523.389V48.207ZM125.581 63.626C126.848 63.626 127.867 64.006 128.64 64.766C129.425 65.526 129.818 66.6533 129.818 68.148V74H126.854V68.604C126.854 67.7933 126.677 67.1917 126.322 66.799C125.967 66.3937 125.454 66.191 124.783 66.191C124.036 66.191 123.44 66.4253 122.997 66.894C122.554 67.35 122.332 68.034 122.332 68.946V74H119.368V59.902H122.332V64.842C122.725 64.4493 123.2 64.1517 123.757 63.949C124.314 63.7337 124.922 63.626 125.581 63.626ZM137.48 74.152C136.403 74.152 135.434 73.9303 134.573 73.487C133.724 73.031 133.059 72.404 132.578 71.606C132.097 70.808 131.856 69.9023 131.856 68.889C131.856 67.8757 132.097 66.97 132.578 66.172C133.059 65.374 133.724 64.7533 134.573 64.31C135.434 63.854 136.403 63.626 137.48 63.626C138.557 63.626 139.519 63.854 140.368 64.31C141.217 64.7533 141.882 65.374 142.363 66.172C142.844 66.97 143.085 67.8757 143.085 68.889C143.085 69.9023 142.844 70.808 142.363 71.606C141.882 72.404 141.217 73.031 140.368 73.487C139.519 73.9303 138.557 74.152 137.48 74.152ZM137.48 71.72C138.24 71.72 138.861 71.4667 139.342 70.96C139.836 70.4407 140.083 69.7503 140.083 68.889C140.083 68.0277 139.836 67.3437 139.342 66.837C138.861 66.3177 138.24 66.058 137.48 66.058C136.72 66.058 136.093 66.3177 135.599 66.837C135.105 67.3437 134.858 68.0277 134.858 68.889C134.858 69.7503 135.105 70.4407 135.599 70.96C136.093 71.4667 136.72 71.72 137.48 71.72ZM155.364 63.778V74H152.552V72.784C152.16 73.2273 151.691 73.5693 151.146 73.81C150.602 74.038 150.013 74.152 149.379 74.152C148.037 74.152 146.973 73.7657 146.187 72.993C145.402 72.2203 145.009 71.074 145.009 69.554V63.778H147.973V69.117C147.973 70.7637 148.664 71.587 150.044 71.587C150.754 71.587 151.324 71.359 151.754 70.903C152.185 70.4343 152.4 69.744 152.4 68.832V63.778H155.364ZM160.941 65.127C161.296 64.633 161.771 64.2593 162.366 64.006C162.974 63.7527 163.671 63.626 164.456 63.626V66.362C164.127 66.3367 163.905 66.324 163.791 66.324C162.943 66.324 162.278 66.5647 161.796 67.046C161.315 67.5147 161.074 68.224 161.074 69.174V74H158.11V63.778H160.941V65.127ZM169.695 74.152C168.846 74.152 168.016 74.0507 167.206 73.848C166.395 73.6327 165.749 73.3667 165.268 73.05L166.256 70.922C166.712 71.2133 167.263 71.454 167.909 71.644C168.555 71.8213 169.188 71.91 169.809 71.91C171.063 71.91 171.69 71.5997 171.69 70.979C171.69 70.6877 171.519 70.4787 171.177 70.352C170.835 70.2253 170.309 70.1177 169.6 70.029C168.764 69.9023 168.073 69.7567 167.529 69.592C166.984 69.4273 166.509 69.136 166.104 68.718C165.711 68.3 165.515 67.7047 165.515 66.932C165.515 66.286 165.698 65.716 166.066 65.222C166.446 64.7153 166.99 64.3227 167.7 64.044C168.422 63.7653 169.27 63.626 170.246 63.626C170.968 63.626 171.683 63.7083 172.393 63.873C173.115 64.025 173.71 64.2403 174.179 64.519L173.191 66.628C172.291 66.1213 171.31 65.868 170.246 65.868C169.612 65.868 169.137 65.9567 168.821 66.134C168.504 66.3113 168.346 66.5393 168.346 66.818C168.346 67.1347 168.517 67.3563 168.859 67.483C169.201 67.6097 169.745 67.73 170.493 67.844C171.329 67.9833 172.013 68.1353 172.545 68.3C173.077 68.452 173.539 68.737 173.932 69.155C174.324 69.573 174.521 70.1557 174.521 70.903C174.521 71.5363 174.331 72.1 173.951 72.594C173.571 73.088 173.013 73.4743 172.279 73.753C171.557 74.019 170.695 74.152 169.695 74.152ZM185.853 63.626C187.437 63.626 188.653 64.006 189.501 64.766C190.35 65.5133 190.774 66.647 190.774 68.167V74H188V72.727C187.443 73.677 186.404 74.152 184.884 74.152C184.099 74.152 183.415 74.019 182.832 73.753C182.262 73.487 181.825 73.1197 181.521 72.651C181.217 72.1823 181.065 71.6503 181.065 71.055C181.065 70.105 181.42 69.3577 182.129 68.813C182.851 68.2683 183.96 67.996 185.454 67.996H187.81C187.81 67.35 187.614 66.856 187.221 66.514C186.829 66.1593 186.24 65.982 185.454 65.982C184.91 65.982 184.371 66.0707 183.839 66.248C183.32 66.4127 182.877 66.6407 182.509 66.932L181.445 64.861C182.003 64.4683 182.668 64.1643 183.44 63.949C184.226 63.7337 185.03 63.626 185.853 63.626ZM185.625 72.157C186.132 72.157 186.582 72.043 186.974 71.815C187.367 71.5743 187.646 71.226 187.81 70.77V69.725H185.777C184.561 69.725 183.953 70.124 183.953 70.922C183.953 71.302 184.099 71.606 184.39 71.834C184.694 72.0493 185.106 72.157 185.625 72.157ZM196.706 64.006H199.328V66.286H196.782V74H193.818V66.286H192.241V64.006H193.818V63.55C193.818 62.3847 194.16 61.46 194.844 60.776C195.541 60.092 196.516 59.75 197.77 59.75C198.213 59.75 198.631 59.8007 199.024 59.902C199.429 59.9907 199.765 60.1237 200.031 60.301L199.252 62.448C198.91 62.2073 198.511 62.087 198.055 62.087C197.156 62.087 196.706 62.581 196.706 63.569V64.006ZM207.398 73.506C207.106 73.7213 206.745 73.886 206.315 74C205.897 74.1013 205.453 74.152 204.985 74.152C203.769 74.152 202.825 73.8417 202.154 73.221C201.495 72.6003 201.166 71.6883 201.166 70.485V66.286H199.589V64.006H201.166V61.517H204.13V64.006H206.676V66.286H204.13V70.447C204.13 70.8777 204.237 71.2133 204.453 71.454C204.681 71.682 204.997 71.796 205.403 71.796C205.871 71.796 206.27 71.6693 206.6 71.416L207.398 73.506ZM218.759 68.927C218.759 68.965 218.74 69.231 218.702 69.725H210.969C211.108 70.3583 211.438 70.8587 211.957 71.226C212.476 71.5933 213.122 71.777 213.895 71.777C214.427 71.777 214.896 71.701 215.301 71.549C215.719 71.3843 216.105 71.131 216.46 70.789L218.037 72.499C217.074 73.601 215.668 74.152 213.819 74.152C212.666 74.152 211.647 73.9303 210.76 73.487C209.873 73.031 209.189 72.404 208.708 71.606C208.227 70.808 207.986 69.9023 207.986 68.889C207.986 67.8883 208.22 66.989 208.689 66.191C209.17 65.3803 209.823 64.7533 210.646 64.31C211.482 63.854 212.413 63.626 213.439 63.626C214.44 63.626 215.345 63.8413 216.156 64.272C216.967 64.7027 217.6 65.3233 218.056 66.134C218.525 66.932 218.759 67.863 218.759 68.927ZM213.458 65.868C212.787 65.868 212.223 66.058 211.767 66.438C211.311 66.818 211.032 67.3373 210.931 67.996H215.966C215.865 67.35 215.586 66.837 215.13 66.457C214.674 66.0643 214.117 65.868 213.458 65.868ZM223.563 65.127C223.918 64.633 224.393 64.2593 224.988 64.006C225.596 63.7527 226.293 63.626 227.078 63.626V66.362C226.749 66.3367 226.527 66.324 226.413 66.324C225.565 66.324 224.9 66.5647 224.418 67.046C223.937 67.5147 223.696 68.224 223.696 69.174V74H220.732V63.778H223.563V65.127ZM240.889 73.506C240.597 73.7213 240.236 73.886 239.806 74C239.388 74.1013 238.944 74.152 238.476 74.152C237.26 74.152 236.316 73.8417 235.645 73.221C234.986 72.6003 234.657 71.6883 234.657 70.485V66.286H233.08V64.006H234.657V61.517H237.621V64.006H240.167V66.286H237.621V70.447C237.621 70.8777 237.728 71.2133 237.944 71.454C238.172 71.682 238.488 71.796 238.894 71.796C239.362 71.796 239.761 71.6693 240.091 71.416L240.889 73.506ZM248.766 63.626C250.032 63.626 251.052 64.006 251.825 64.766C252.61 65.526 253.003 66.6533 253.003 68.148V74H250.039V68.604C250.039 67.7933 249.861 67.1917 249.507 66.799C249.152 66.3937 248.639 66.191 247.968 66.191C247.22 66.191 246.625 66.4253 246.182 66.894C245.738 67.35 245.517 68.034 245.517 68.946V74H242.553V59.902H245.517V64.842C245.909 64.4493 246.384 64.1517 246.942 63.949C247.499 63.7337 248.107 63.626 248.766 63.626ZM265.814 68.927C265.814 68.965 265.795 69.231 265.757 69.725H258.024C258.163 70.3583 258.492 70.8587 259.012 71.226C259.531 71.5933 260.177 71.777 260.95 71.777C261.482 71.777 261.95 71.701 262.356 71.549C262.774 71.3843 263.16 71.131 263.515 70.789L265.092 72.499C264.129 73.601 262.723 74.152 260.874 74.152C259.721 74.152 258.701 73.9303 257.815 73.487C256.928 73.031 256.244 72.404 255.763 71.606C255.281 70.808 255.041 69.9023 255.041 68.889C255.041 67.8883 255.275 66.989 255.744 66.191C256.225 65.3803 256.877 64.7533 257.701 64.31C258.537 63.854 259.468 63.626 260.494 63.626C261.494 63.626 262.4 63.8413 263.211 64.272C264.021 64.7027 264.655 65.3233 265.111 66.134C265.579 66.932 265.814 67.863 265.814 68.927ZM260.513 65.868C259.841 65.868 259.278 66.058 258.822 66.438C258.366 66.818 258.087 67.3373 257.986 67.996H263.021C262.919 67.35 262.641 66.837 262.185 66.457C261.729 66.0643 261.171 65.868 260.513 65.868ZM283.181 68.927C283.181 68.965 283.162 69.231 283.124 69.725H275.391C275.53 70.3583 275.859 70.8587 276.379 71.226C276.898 71.5933 277.544 71.777 278.317 71.777C278.849 71.777 279.317 71.701 279.723 71.549C280.141 71.3843 280.527 71.131 280.882 70.789L282.459 72.499C281.496 73.601 280.09 74.152 278.241 74.152C277.088 74.152 276.068 73.9303 275.182 73.487C274.295 73.031 273.611 72.404 273.13 71.606C272.648 70.808 272.408 69.9023 272.408 68.889C272.408 67.8883 272.642 66.989 273.111 66.191C273.592 65.3803 274.244 64.7533 275.068 64.31C275.904 63.854 276.835 63.626 277.861 63.626C278.861 63.626 279.767 63.8413 280.578 64.272C281.388 64.7027 282.022 65.3233 282.478 66.134C282.946 66.932 283.181 67.863 283.181 68.927ZM277.88 65.868C277.208 65.868 276.645 66.058 276.189 66.438C275.733 66.818 275.454 67.3373 275.353 67.996H280.388C280.286 67.35 280.008 66.837 279.552 66.457C279.096 66.0643 278.538 65.868 277.88 65.868ZM291.367 63.626C292.634 63.626 293.653 64.006 294.426 64.766C295.211 65.526 295.604 66.6533 295.604 68.148V74H292.64V68.604C292.64 67.7933 292.463 67.1917 292.108 66.799C291.753 66.3937 291.24 66.191 290.569 66.191C289.822 66.191 289.226 66.4253 288.783 66.894C288.34 67.35 288.118 68.034 288.118 68.946V74H285.154V63.778H287.985V64.975C288.378 64.5443 288.865 64.215 289.448 63.987C290.031 63.7463 290.67 63.626 291.367 63.626ZM308.814 59.902V74H305.983V72.822C305.249 73.7087 304.185 74.152 302.791 74.152C301.829 74.152 300.955 73.9367 300.169 73.506C299.397 73.0753 298.789 72.461 298.345 71.663C297.902 70.865 297.68 69.9403 297.68 68.889C297.68 67.8377 297.902 66.913 298.345 66.115C298.789 65.317 299.397 64.7027 300.169 64.272C300.955 63.8413 301.829 63.626 302.791 63.626C304.096 63.626 305.116 64.0377 305.85 64.861V59.902H308.814ZM303.304 71.72C304.052 71.72 304.672 71.4667 305.166 70.96C305.66 70.4407 305.907 69.7503 305.907 68.889C305.907 68.0277 305.66 67.3437 305.166 66.837C304.672 66.3177 304.052 66.058 303.304 66.058C302.544 66.058 301.917 66.3177 301.423 66.837C300.929 67.3437 300.682 68.0277 300.682 68.889C300.682 69.7503 300.929 70.4407 301.423 70.96C301.917 71.4667 302.544 71.72 303.304 71.72ZM321.802 74.152C320.726 74.152 319.757 73.9303 318.895 73.487C318.047 73.031 317.382 72.404 316.9 71.606C316.419 70.808 316.178 69.9023 316.178 68.889C316.178 67.8757 316.419 66.97 316.9 66.172C317.382 65.374 318.047 64.7533 318.895 64.31C319.757 63.854 320.726 63.626 321.802 63.626C322.879 63.626 323.842 63.854 324.69 64.31C325.539 64.7533 326.204 65.374 326.685 66.172C327.167 66.97 327.407 67.8757 327.407 68.889C327.407 69.9023 327.167 70.808 326.685 71.606C326.204 72.404 325.539 73.031 324.69 73.487C323.842 73.9303 322.879 74.152 321.802 74.152ZM321.802 71.72C322.562 71.72 323.183 71.4667 323.664 70.96C324.158 70.4407 324.405 69.7503 324.405 68.889C324.405 68.0277 324.158 67.3437 323.664 66.837C323.183 66.3177 322.562 66.058 321.802 66.058C321.042 66.058 320.415 66.3177 319.921 66.837C319.427 67.3437 319.18 68.0277 319.18 68.889C319.18 69.7503 319.427 70.4407 319.921 70.96C320.415 71.4667 321.042 71.72 321.802 71.72ZM332.638 64.006H335.26V66.286H332.714V74H329.75V66.286H328.173V64.006H329.75V63.55C329.75 62.3847 330.092 61.46 330.776 60.776C331.472 60.092 332.448 59.75 333.702 59.75C334.145 59.75 334.563 59.8007 334.956 59.902C335.361 59.9907 335.697 60.1237 335.963 60.301L335.184 62.448C334.842 62.2073 334.443 62.087 333.987 62.087C333.087 62.087 332.638 62.581 332.638 63.569V64.006ZM348.71 73.506C348.419 73.7213 348.058 73.886 347.627 74C347.209 74.1013 346.766 74.152 346.297 74.152C345.081 74.152 344.137 73.8417 343.466 73.221C342.807 72.6003 342.478 71.6883 342.478 70.485V66.286H340.901V64.006H342.478V61.517H345.442V64.006H347.988V66.286H345.442V70.447C345.442 70.8777 345.55 71.2133 345.765 71.454C345.993 71.682 346.31 71.796 346.715 71.796C347.184 71.796 347.583 71.6693 347.912 71.416L348.71 73.506ZM356.587 63.626C357.854 63.626 358.873 64.006 359.646 64.766C360.431 65.526 360.824 66.6533 360.824 68.148V74H357.86V68.604C357.86 67.7933 357.683 67.1917 357.328 66.799C356.973 66.3937 356.46 66.191 355.789 66.191C355.042 66.191 354.446 66.4253 354.003 66.894C353.56 67.35 353.338 68.034 353.338 68.946V74H350.374V59.902H353.338V64.842C353.731 64.4493 354.206 64.1517 354.763 63.949C355.32 63.7337 355.928 63.626 356.587 63.626ZM373.635 68.927C373.635 68.965 373.616 69.231 373.578 69.725H365.845C365.984 70.3583 366.314 70.8587 366.833 71.226C367.352 71.5933 367.998 71.777 368.771 71.777C369.303 71.777 369.772 71.701 370.177 71.549C370.595 71.3843 370.981 71.131 371.336 70.789L372.913 72.499C371.95 73.601 370.544 74.152 368.695 74.152C367.542 74.152 366.523 73.9303 365.636 73.487C364.749 73.031 364.065 72.404 363.584 71.606C363.103 70.808 362.862 69.9023 362.862 68.889C362.862 67.8883 363.096 66.989 363.565 66.191C364.046 65.3803 364.699 64.7533 365.522 64.31C366.358 63.854 367.289 63.626 368.315 63.626C369.316 63.626 370.221 63.8413 371.032 64.272C371.843 64.7027 372.476 65.3233 372.932 66.134C373.401 66.932 373.635 67.863 373.635 68.927ZM368.334 65.868C367.663 65.868 367.099 66.058 366.643 66.438C366.187 66.818 365.908 67.3373 365.807 67.996H370.842C370.741 67.35 370.462 66.837 370.006 66.457C369.55 66.0643 368.993 65.868 368.334 65.868ZM380.989 63.778H383.953V74H380.989V63.778ZM382.471 62.353C381.926 62.353 381.483 62.1947 381.141 61.878C380.799 61.5613 380.628 61.1687 380.628 60.7C380.628 60.2313 380.799 59.8387 381.141 59.522C381.483 59.2053 381.926 59.047 382.471 59.047C383.016 59.047 383.459 59.199 383.801 59.503C384.143 59.807 384.314 60.187 384.314 60.643C384.314 61.137 384.143 61.5487 383.801 61.878C383.459 62.1947 383.016 62.353 382.471 62.353ZM392.917 63.626C394.184 63.626 395.203 64.006 395.976 64.766C396.761 65.526 397.154 66.6533 397.154 68.148V74H394.19V68.604C394.19 67.7933 394.013 67.1917 393.658 66.799C393.303 66.3937 392.79 66.191 392.119 66.191C391.372 66.191 390.776 66.4253 390.333 66.894C389.89 67.35 389.668 68.034 389.668 68.946V74H386.704V63.778H389.535V64.975C389.928 64.5443 390.415 64.215 390.998 63.987C391.581 63.7463 392.22 63.626 392.917 63.626ZM403.28 74.152C402.431 74.152 401.601 74.0507 400.791 73.848C399.98 73.6327 399.334 73.3667 398.853 73.05L399.841 70.922C400.297 71.2133 400.848 71.454 401.494 71.644C402.14 71.8213 402.773 71.91 403.394 71.91C404.648 71.91 405.275 71.5997 405.275 70.979C405.275 70.6877 405.104 70.4787 404.762 70.352C404.42 70.2253 403.894 70.1177 403.185 70.029C402.349 69.9023 401.658 69.7567 401.114 69.592C400.569 69.4273 400.094 69.136 399.689 68.718C399.296 68.3 399.1 67.7047 399.1 66.932C399.1 66.286 399.283 65.716 399.651 65.222C400.031 64.7153 400.575 64.3227 401.285 64.044C402.007 63.7653 402.855 63.626 403.831 63.626C404.553 63.626 405.268 63.7083 405.978 63.873C406.7 64.025 407.295 64.2403 407.764 64.519L406.776 66.628C405.876 66.1213 404.895 65.868 403.831 65.868C403.197 65.868 402.722 65.9567 402.406 66.134C402.089 66.3113 401.931 66.5393 401.931 66.818C401.931 67.1347 402.102 67.3563 402.444 67.483C402.786 67.6097 403.33 67.73 404.078 67.844C404.914 67.9833 405.598 68.1353 406.13 68.3C406.662 68.452 407.124 68.737 407.517 69.155C407.909 69.573 408.106 70.1557 408.106 70.903C408.106 71.5363 407.916 72.1 407.536 72.594C407.156 73.088 406.598 73.4743 405.864 73.753C405.142 74.019 404.28 74.152 403.28 74.152ZM415.976 63.626C416.926 63.626 417.788 63.8477 418.56 64.291C419.346 64.7217 419.96 65.336 420.403 66.134C420.847 66.9193 421.068 67.8377 421.068 68.889C421.068 69.9403 420.847 70.865 420.403 71.663C419.96 72.4483 419.346 73.0627 418.56 73.506C417.788 73.9367 416.926 74.152 415.976 74.152C414.672 74.152 413.646 73.7403 412.898 72.917V77.686H409.934V63.778H412.765V64.956C413.5 64.0693 414.57 63.626 415.976 63.626ZM415.463 71.72C416.223 71.72 416.844 71.4667 417.325 70.96C417.819 70.4407 418.066 69.7503 418.066 68.889C418.066 68.0277 417.819 67.3437 417.325 66.837C416.844 66.3177 416.223 66.058 415.463 66.058C414.703 66.058 414.076 66.3177 413.582 66.837C413.101 67.3437 412.86 68.0277 412.86 68.889C412.86 69.7503 413.101 70.4407 413.582 70.96C414.076 71.4667 414.703 71.72 415.463 71.72ZM433.066 68.927C433.066 68.965 433.047 69.231 433.009 69.725H425.276C425.415 70.3583 425.744 70.8587 426.264 71.226C426.783 71.5933 427.429 71.777 428.202 71.777C428.734 71.777 429.202 71.701 429.608 71.549C430.026 71.3843 430.412 71.131 430.767 70.789L432.344 72.499C431.381 73.601 429.975 74.152 428.126 74.152C426.973 74.152 425.953 73.9303 425.067 73.487C424.18 73.031 423.496 72.404 423.015 71.606C422.533 70.808 422.293 69.9023 422.293 68.889C422.293 67.8883 422.527 66.989 422.996 66.191C423.477 65.3803 424.129 64.7533 424.953 64.31C425.789 63.854 426.72 63.626 427.746 63.626C428.746 63.626 429.652 63.8413 430.463 64.272C431.273 64.7027 431.907 65.3233 432.363 66.134C432.831 66.932 433.066 67.863 433.066 68.927ZM427.765 65.868C427.093 65.868 426.53 66.058 426.074 66.438C425.618 66.818 425.339 67.3373 425.238 67.996H430.273C430.171 67.35 429.893 66.837 429.437 66.457C428.981 66.0643 428.423 65.868 427.765 65.868ZM439.979 74.152C438.89 74.152 437.908 73.9303 437.034 73.487C436.173 73.031 435.495 72.404 435.001 71.606C434.52 70.808 434.279 69.9023 434.279 68.889C434.279 67.8757 434.52 66.97 435.001 66.172C435.495 65.374 436.173 64.7533 437.034 64.31C437.908 63.854 438.89 63.626 439.979 63.626C441.056 63.626 441.993 63.854 442.791 64.31C443.602 64.7533 444.191 65.393 444.558 66.229L442.259 67.464C441.727 66.5267 440.961 66.058 439.96 66.058C439.187 66.058 438.548 66.3113 438.041 66.818C437.534 67.3247 437.281 68.015 437.281 68.889C437.281 69.763 437.534 70.4533 438.041 70.96C438.548 71.4667 439.187 71.72 439.96 71.72C440.973 71.72 441.74 71.2513 442.259 70.314L444.558 71.568C444.191 72.3787 443.602 73.012 442.791 73.468C441.993 73.924 441.056 74.152 439.979 74.152ZM453.006 73.506C452.715 73.7213 452.354 73.886 451.923 74C451.505 74.1013 451.062 74.152 450.593 74.152C449.377 74.152 448.433 73.8417 447.762 73.221C447.103 72.6003 446.774 71.6883 446.774 70.485V66.286H445.197V64.006H446.774V61.517H449.738V64.006H452.284V66.286H449.738V70.447C449.738 70.8777 449.846 71.2133 450.061 71.454C450.289 71.682 450.606 71.796 451.011 71.796C451.48 71.796 451.879 71.6693 452.208 71.416L453.006 73.506ZM454.67 63.778H457.634V74H454.67V63.778ZM456.152 62.353C455.607 62.353 455.164 62.1947 454.822 61.878C454.48 61.5613 454.309 61.1687 454.309 60.7C454.309 60.2313 454.48 59.8387 454.822 59.522C455.164 59.2053 455.607 59.047 456.152 59.047C456.696 59.047 457.14 59.199 457.482 59.503C457.824 59.807 457.995 60.187 457.995 60.643C457.995 61.137 457.824 61.5487 457.482 61.878C457.14 62.1947 456.696 62.353 456.152 62.353ZM465.249 74.152C464.172 74.152 463.203 73.9303 462.342 73.487C461.493 73.031 460.828 72.404 460.347 71.606C459.865 70.808 459.625 69.9023 459.625 68.889C459.625 67.8757 459.865 66.97 460.347 66.172C460.828 65.374 461.493 64.7533 462.342 64.31C463.203 63.854 464.172 63.626 465.249 63.626C466.325 63.626 467.288 63.854 468.137 64.31C468.985 64.7533 469.65 65.374 470.132 66.172C470.613 66.97 470.854 67.8757 470.854 68.889C470.854 69.9023 470.613 70.808 470.132 71.606C469.65 72.404 468.985 73.031 468.137 73.487C467.288 73.9303 466.325 74.152 465.249 74.152ZM465.249 71.72C466.009 71.72 466.629 71.4667 467.111 70.96C467.605 70.4407 467.852 69.7503 467.852 68.889C467.852 68.0277 467.605 67.3437 467.111 66.837C466.629 66.3177 466.009 66.058 465.249 66.058C464.489 66.058 463.862 66.3177 463.368 66.837C462.874 67.3437 462.627 68.0277 462.627 68.889C462.627 69.7503 462.874 70.4407 463.368 70.96C463.862 71.4667 464.489 71.72 465.249 71.72ZM479.048 63.626C480.314 63.626 481.334 64.006 482.107 64.766C482.892 65.526 483.285 66.6533 483.285 68.148V74H480.321V68.604C480.321 67.7933 480.143 67.1917 479.789 66.799C479.434 66.3937 478.921 66.191 478.25 66.191C477.502 66.191 476.907 66.4253 476.464 66.894C476.02 67.35 475.799 68.034 475.799 68.946V74H472.835V63.778H475.666V64.975C476.058 64.5443 476.546 64.215 477.129 63.987C477.711 63.7463 478.351 63.626 479.048 63.626Z" fill="white"/>
</svg>
