<svg width="645" height="135" viewBox="0 0 645 135" fill="none" xmlns="http://www.w3.org/2000/svg">
<rect x="30.9888" y="17.1543" width="614.011" height="101.436" fill="#3E4671"/>
<path d="M133.614 67.5C133.614 103.666 104.16 133 67.8069 133C31.4542 133 2 103.666 2 67.5C2 31.3339 31.4542 2 67.8069 2C104.16 2 133.614 31.3339 133.614 67.5Z" fill="white" stroke="#3E4671" stroke-width="4"/>
<g clip-path="url(#clip0)">
<path d="M29.8052 67.4997C29.8052 57.5102 33.7697 47.9297 40.8265 40.866C47.8833 33.8023 57.4544 29.834 67.4343 29.834C77.4141 29.834 86.9852 33.8023 94.042 40.866C101.099 47.9297 105.063 57.5102 105.063 67.4997C105.063 77.4893 101.099 87.0697 94.042 94.1334C86.9852 101.197 77.4141 105.165 67.4343 105.165C57.4544 105.165 47.8833 101.197 40.8265 94.1334C33.7697 87.0697 29.8052 77.4893 29.8052 67.4997ZM65.0824 34.9047C61.931 35.8652 58.8031 38.7655 56.2067 43.6385C55.3512 45.2586 54.6155 46.9392 54.0054 48.6669H65.0824V34.9047ZM49.043 48.6669C49.827 46.1659 50.8345 43.7408 52.0534 41.4209C52.8667 39.8816 53.8059 38.4123 54.8614 37.0281C49.0337 39.4474 44.0196 43.486 40.4119 48.6669H49.043ZM46.3055 65.1456C46.4466 61.0165 46.9546 57.0569 47.7731 53.3751H37.6791C35.9252 57.0713 34.8786 61.0636 34.5935 65.1456H46.3055ZM52.6037 53.3751C51.6786 57.2349 51.1459 61.1785 51.0139 65.1456H65.0824V53.3751H52.6037ZM69.7861 53.3751V65.1456H83.8499C83.7196 61.1786 83.1885 57.235 82.2648 53.3751H69.7861ZM51.0186 69.8538C51.1491 73.8208 51.6801 77.7644 52.6037 81.6244H65.0824V69.8538H51.0186ZM69.7861 69.8538V81.6244H82.2648C83.1444 78.0226 83.7041 74.0536 83.8546 69.8538H69.7861ZM54.0054 86.3326C54.6545 88.15 55.3929 89.8355 56.2067 91.361C58.8031 96.234 61.9357 99.1295 65.0824 100.095V86.3326H54.0054ZM54.8614 97.9713C53.8058 96.5872 52.8666 95.1179 52.0534 93.5785C50.8345 91.2586 49.827 88.8335 49.043 86.3326H40.4119C44.0194 91.5136 49.0335 95.5523 54.8614 97.9713ZM47.7731 81.6244C46.9225 77.7545 46.4312 73.8142 46.3055 69.8538H34.5935C34.8851 74.0442 35.9622 78.0132 37.6791 81.6244H47.7731ZM80.0071 97.9713C85.835 95.5523 90.8491 91.5136 94.4566 86.3326H85.8255C85.0414 88.8335 84.0339 91.2586 82.8151 93.5785C82.0021 95.118 81.0628 96.5873 80.0071 97.9713ZM69.7861 86.3326V100.095C72.9375 99.1342 76.0654 96.234 78.6618 91.361C79.4756 89.8355 80.214 88.15 80.8631 86.3326H69.7861ZM87.0954 81.6244H97.1894C98.9063 78.0132 99.9834 74.0442 100.275 69.8538H88.563C88.4374 73.8142 87.9461 77.7545 87.0954 81.6244ZM100.275 65.1456C99.9898 61.0637 98.9432 57.0713 97.1894 53.3751H87.0954C87.9139 57.0569 88.4219 61.0165 88.563 65.1456H100.275ZM82.8151 41.4209C83.9769 43.6055 84.9882 46.035 85.8255 48.6669H94.4566C90.8491 43.4859 85.835 39.4471 80.0071 37.0281C81.0325 38.3653 81.9732 39.8437 82.8151 41.4209ZM80.8631 48.6669C80.2531 46.9392 79.5173 45.2585 78.6618 43.6385C76.0654 38.7655 72.9375 35.8699 69.7861 34.9047V48.6669H80.8631Z" fill="#3E4671"/>
</g>
<path d="M153.068 70.7867C153.908 71.0527 154.566 71.5007 155.042 72.1307C155.518 72.7467 155.756 73.5097 155.756 74.4197C155.756 75.7077 155.252 76.7017 154.244 77.4017C153.25 78.0877 151.794 78.4307 149.876 78.4307H142.274V63.7307H149.456C151.248 63.7307 152.62 64.0737 153.572 64.7597C154.538 65.4457 155.021 66.3767 155.021 67.5527C155.021 68.2667 154.846 68.9037 154.496 69.4637C154.16 70.0237 153.684 70.4647 153.068 70.7867ZM145.655 66.2927V69.7577H149.036C149.876 69.7577 150.513 69.6107 150.947 69.3167C151.381 69.0227 151.598 68.5887 151.598 68.0147C151.598 67.4407 151.381 67.0137 150.947 66.7337C150.513 66.4397 149.876 66.2927 149.036 66.2927H145.655ZM149.624 75.8687C150.52 75.8687 151.192 75.7217 151.64 75.4277C152.102 75.1337 152.333 74.6787 152.333 74.0627C152.333 72.8447 151.43 72.2357 149.624 72.2357H145.655V75.8687H149.624ZM161.229 68.6237C161.621 68.0777 162.146 67.6647 162.804 67.3847C163.476 67.1047 164.246 66.9647 165.114 66.9647V69.9887C164.75 69.9607 164.505 69.9467 164.379 69.9467C163.441 69.9467 162.706 70.2127 162.174 70.7447C161.642 71.2627 161.376 72.0467 161.376 73.0967V78.4307H158.1V67.1327H161.229V68.6237ZM171.558 66.9647C173.308 66.9647 174.652 67.3847 175.59 68.2247C176.528 69.0507 176.997 70.3037 176.997 71.9837V78.4307H173.931V77.0237C173.315 78.0737 172.167 78.5987 170.487 78.5987C169.619 78.5987 168.863 78.4517 168.219 78.1577C167.589 77.8637 167.106 77.4577 166.77 76.9397C166.434 76.4217 166.266 75.8337 166.266 75.1757C166.266 74.1257 166.658 73.2997 167.442 72.6977C168.24 72.0957 169.465 71.7947 171.117 71.7947H173.721C173.721 71.0807 173.504 70.5347 173.07 70.1567C172.636 69.7647 171.985 69.5687 171.117 69.5687C170.515 69.5687 169.92 69.6667 169.332 69.8627C168.758 70.0447 168.268 70.2967 167.862 70.6187L166.686 68.3297C167.302 67.8957 168.037 67.5597 168.891 67.3217C169.759 67.0837 170.648 66.9647 171.558 66.9647ZM171.306 76.3937C171.866 76.3937 172.363 76.2677 172.797 76.0157C173.231 75.7497 173.539 75.3647 173.721 74.8607V73.7057H171.474C170.13 73.7057 169.458 74.1467 169.458 75.0287C169.458 75.4487 169.619 75.7847 169.941 76.0367C170.277 76.2747 170.732 76.3937 171.306 76.3937ZM186.829 66.9647C188.229 66.9647 189.356 67.3847 190.21 68.2247C191.078 69.0647 191.512 70.3107 191.512 71.9627V78.4307H188.236V72.4667C188.236 71.5707 188.04 70.9057 187.648 70.4717C187.256 70.0237 186.689 69.7997 185.947 69.7997C185.121 69.7997 184.463 70.0587 183.973 70.5767C183.483 71.0807 183.238 71.8367 183.238 72.8447V78.4307H179.962V67.1327H183.091V68.4557C183.525 67.9797 184.064 67.6157 184.708 67.3637C185.352 67.0977 186.059 66.9647 186.829 66.9647ZM200.064 78.5987C198.86 78.5987 197.775 78.3537 196.809 77.8637C195.857 77.3597 195.108 76.6667 194.562 75.7847C194.03 74.9027 193.764 73.9017 193.764 72.7817C193.764 71.6617 194.03 70.6607 194.562 69.7787C195.108 68.8967 195.857 68.2107 196.809 67.7207C197.775 67.2167 198.86 66.9647 200.064 66.9647C201.254 66.9647 202.29 67.2167 203.172 67.7207C204.068 68.2107 204.719 68.9177 205.125 69.8417L202.584 71.2067C201.996 70.1707 201.149 69.6527 200.043 69.6527C199.189 69.6527 198.482 69.9327 197.922 70.4927C197.362 71.0527 197.082 71.8157 197.082 72.7817C197.082 73.7477 197.362 74.5107 197.922 75.0707C198.482 75.6307 199.189 75.9107 200.043 75.9107C201.163 75.9107 202.01 75.3927 202.584 74.3567L205.125 75.7427C204.719 76.6387 204.068 77.3387 203.172 77.8427C202.29 78.3467 201.254 78.5987 200.064 78.5987ZM213.796 66.9647C215.196 66.9647 216.323 67.3847 217.177 68.2247C218.045 69.0647 218.479 70.3107 218.479 71.9627V78.4307H215.203V72.4667C215.203 71.5707 215.007 70.9057 214.615 70.4717C214.223 70.0237 213.656 69.7997 212.914 69.7997C212.088 69.7997 211.43 70.0587 210.94 70.5767C210.45 71.0807 210.205 71.8367 210.205 72.8447V78.4307H206.929V62.8487H210.205V68.3087C210.639 67.8747 211.164 67.5457 211.78 67.3217C212.396 67.0837 213.068 66.9647 213.796 66.9647ZM232.772 78.5987C231.582 78.5987 230.511 78.3537 229.559 77.8637C228.621 77.3597 227.886 76.6667 227.354 75.7847C226.822 74.9027 226.556 73.9017 226.556 72.7817C226.556 71.6617 226.822 70.6607 227.354 69.7787C227.886 68.8967 228.621 68.2107 229.559 67.7207C230.511 67.2167 231.582 66.9647 232.772 66.9647C233.962 66.9647 235.026 67.2167 235.964 67.7207C236.902 68.2107 237.637 68.8967 238.169 69.7787C238.701 70.6607 238.967 71.6617 238.967 72.7817C238.967 73.9017 238.701 74.9027 238.169 75.7847C237.637 76.6667 236.902 77.3597 235.964 77.8637C235.026 78.3537 233.962 78.5987 232.772 78.5987ZM232.772 75.9107C233.612 75.9107 234.298 75.6307 234.83 75.0707C235.376 74.4967 235.649 73.7337 235.649 72.7817C235.649 71.8297 235.376 71.0737 234.83 70.5137C234.298 69.9397 233.612 69.6527 232.772 69.6527C231.932 69.6527 231.239 69.9397 230.693 70.5137C230.147 71.0737 229.874 71.8297 229.874 72.7817C229.874 73.7337 230.147 74.4967 230.693 75.0707C231.239 75.6307 231.932 75.9107 232.772 75.9107ZM244.748 67.3847H247.646V69.9047H244.832V78.4307H241.556V69.9047H239.813V67.3847H241.556V66.8807C241.556 65.5927 241.934 64.5707 242.69 63.8147C243.46 63.0587 244.538 62.6807 245.924 62.6807C246.414 62.6807 246.876 62.7367 247.31 62.8487C247.758 62.9467 248.129 63.0937 248.423 63.2897L247.562 65.6627C247.184 65.3967 246.743 65.2637 246.239 65.2637C245.245 65.2637 244.748 65.8097 244.748 66.9017V67.3847ZM252.869 67.3847H255.767V69.9047H252.953V78.4307H249.677V69.9047H247.934V67.3847H249.677V66.8807C249.677 65.5927 250.055 64.5707 250.811 63.8147C251.581 63.0587 252.659 62.6807 254.045 62.6807C254.535 62.6807 254.997 62.7367 255.431 62.8487C255.879 62.9467 256.25 63.0937 256.544 63.2897L255.683 65.6627C255.305 65.3967 254.864 65.2637 254.36 65.2637C253.366 65.2637 252.869 65.8097 252.869 66.9017V67.3847ZM259.085 67.1327H262.361V78.4307H259.085V67.1327ZM260.723 65.5577C260.121 65.5577 259.631 65.3827 259.253 65.0327C258.875 64.6827 258.686 64.2487 258.686 63.7307C258.686 63.2127 258.875 62.7787 259.253 62.4287C259.631 62.0787 260.121 61.9037 260.723 61.9037C261.325 61.9037 261.815 62.0717 262.193 62.4077C262.571 62.7437 262.76 63.1637 262.76 63.6677C262.76 64.2137 262.571 64.6687 262.193 65.0327C261.815 65.3827 261.325 65.5577 260.723 65.5577ZM270.857 78.5987C269.653 78.5987 268.568 78.3537 267.602 77.8637C266.65 77.3597 265.901 76.6667 265.355 75.7847C264.823 74.9027 264.557 73.9017 264.557 72.7817C264.557 71.6617 264.823 70.6607 265.355 69.7787C265.901 68.8967 266.65 68.2107 267.602 67.7207C268.568 67.2167 269.653 66.9647 270.857 66.9647C272.047 66.9647 273.083 67.2167 273.965 67.7207C274.861 68.2107 275.512 68.9177 275.918 69.8417L273.377 71.2067C272.789 70.1707 271.942 69.6527 270.836 69.6527C269.982 69.6527 269.275 69.9327 268.715 70.4927C268.155 71.0527 267.875 71.8157 267.875 72.7817C267.875 73.7477 268.155 74.5107 268.715 75.0707C269.275 75.6307 269.982 75.9107 270.836 75.9107C271.956 75.9107 272.803 75.3927 273.377 74.3567L275.918 75.7427C275.512 76.6387 274.861 77.3387 273.965 77.8427C273.083 78.3467 272.047 78.5987 270.857 78.5987ZM288.728 72.8237C288.728 72.8657 288.707 73.1597 288.665 73.7057H280.118C280.272 74.4057 280.636 74.9587 281.21 75.3647C281.784 75.7707 282.498 75.9737 283.352 75.9737C283.94 75.9737 284.458 75.8897 284.906 75.7217C285.368 75.5397 285.795 75.2597 286.187 74.8817L287.93 76.7717C286.866 77.9897 285.312 78.5987 283.268 78.5987C281.994 78.5987 280.867 78.3537 279.887 77.8637C278.907 77.3597 278.151 76.6667 277.619 75.7847C277.087 74.9027 276.821 73.9017 276.821 72.7817C276.821 71.6757 277.08 70.6817 277.598 69.7997C278.13 68.9037 278.851 68.2107 279.761 67.7207C280.685 67.2167 281.714 66.9647 282.848 66.9647C283.954 66.9647 284.955 67.2027 285.851 67.6787C286.747 68.1547 287.447 68.8407 287.951 69.7367C288.469 70.6187 288.728 71.6477 288.728 72.8237ZM282.869 69.4427C282.127 69.4427 281.504 69.6527 281 70.0727C280.496 70.4927 280.188 71.0667 280.076 71.7947H285.641C285.529 71.0807 285.221 70.5137 284.717 70.0937C284.213 69.6597 283.597 69.4427 282.869 69.4427ZM303.723 66.9647C305.123 66.9647 306.25 67.3847 307.104 68.2247C307.972 69.0647 308.406 70.3107 308.406 71.9627V78.4307H305.13V72.4667C305.13 71.5707 304.934 70.9057 304.542 70.4717C304.15 70.0237 303.583 69.7997 302.841 69.7997C302.015 69.7997 301.357 70.0587 300.867 70.5767C300.377 71.0807 300.132 71.8367 300.132 72.8447V78.4307H296.856V67.1327H299.985V68.4557C300.419 67.9797 300.958 67.6157 301.602 67.3637C302.246 67.0977 302.953 66.9647 303.723 66.9647ZM322.566 72.8237C322.566 72.8657 322.545 73.1597 322.503 73.7057H313.956C314.11 74.4057 314.474 74.9587 315.048 75.3647C315.622 75.7707 316.336 75.9737 317.19 75.9737C317.778 75.9737 318.296 75.8897 318.744 75.7217C319.206 75.5397 319.633 75.2597 320.025 74.8817L321.768 76.7717C320.704 77.9897 319.15 78.5987 317.106 78.5987C315.832 78.5987 314.705 78.3537 313.725 77.8637C312.745 77.3597 311.989 76.6667 311.457 75.7847C310.925 74.9027 310.659 73.9017 310.659 72.7817C310.659 71.6757 310.918 70.6817 311.436 69.7997C311.968 68.9037 312.689 68.2107 313.599 67.7207C314.523 67.2167 315.552 66.9647 316.686 66.9647C317.792 66.9647 318.793 67.2027 319.689 67.6787C320.585 68.1547 321.285 68.8407 321.789 69.7367C322.307 70.6187 322.566 71.6477 322.566 72.8237ZM316.707 69.4427C315.965 69.4427 315.342 69.6527 314.838 70.0727C314.334 70.4927 314.026 71.0667 313.914 71.7947H319.479C319.367 71.0807 319.059 70.5137 318.555 70.0937C318.051 69.6597 317.435 69.4427 316.707 69.4427ZM332.034 77.8847C331.712 78.1227 331.313 78.3047 330.837 78.4307C330.375 78.5427 329.885 78.5987 329.367 78.5987C328.023 78.5987 326.98 78.2557 326.238 77.5697C325.51 76.8837 325.146 75.8757 325.146 74.5457V69.9047H323.403V67.3847H325.146V64.6337H328.422V67.3847H331.236V69.9047H328.422V74.5037C328.422 74.9797 328.541 75.3507 328.779 75.6167C329.031 75.8687 329.381 75.9947 329.829 75.9947C330.347 75.9947 330.788 75.8547 331.152 75.5747L332.034 77.8847ZM351.812 67.1327L347.717 78.4307H344.567L342.026 71.4167L339.401 78.4307H336.251L332.177 67.1327H335.264L337.931 74.7767L340.703 67.1327H343.475L346.163 74.7767L348.914 67.1327H351.812ZM358.403 78.5987C357.213 78.5987 356.142 78.3537 355.19 77.8637C354.252 77.3597 353.517 76.6667 352.985 75.7847C352.453 74.9027 352.187 73.9017 352.187 72.7817C352.187 71.6617 352.453 70.6607 352.985 69.7787C353.517 68.8967 354.252 68.2107 355.19 67.7207C356.142 67.2167 357.213 66.9647 358.403 66.9647C359.593 66.9647 360.657 67.2167 361.595 67.7207C362.533 68.2107 363.268 68.8967 363.8 69.7787C364.332 70.6607 364.598 71.6617 364.598 72.7817C364.598 73.9017 364.332 74.9027 363.8 75.7847C363.268 76.6667 362.533 77.3597 361.595 77.8637C360.657 78.3537 359.593 78.5987 358.403 78.5987ZM358.403 75.9107C359.243 75.9107 359.929 75.6307 360.461 75.0707C361.007 74.4967 361.28 73.7337 361.28 72.7817C361.28 71.8297 361.007 71.0737 360.461 70.5137C359.929 69.9397 359.243 69.6527 358.403 69.6527C357.563 69.6527 356.87 69.9397 356.324 70.5137C355.778 71.0737 355.505 71.8297 355.505 72.7817C355.505 73.7337 355.778 74.4967 356.324 75.0707C356.87 75.6307 357.563 75.9107 358.403 75.9107ZM369.917 68.6237C370.309 68.0777 370.834 67.6647 371.492 67.3847C372.164 67.1047 372.934 66.9647 373.802 66.9647V69.9887C373.438 69.9607 373.193 69.9467 373.067 69.9467C372.129 69.9467 371.394 70.2127 370.862 70.7447C370.33 71.2627 370.064 72.0467 370.064 73.0967V78.4307H366.788V67.1327H369.917V68.6237ZM380.601 73.9997L379.026 75.5537V78.4307H375.75V62.8487H379.026V71.6687L383.814 67.1327H387.72L383.016 71.9207L388.14 78.4307H384.171L380.601 73.9997ZM400.117 66.9647C401.867 66.9647 403.211 67.3847 404.149 68.2247C405.087 69.0507 405.556 70.3037 405.556 71.9837V78.4307H402.49V77.0237C401.874 78.0737 400.726 78.5987 399.046 78.5987C398.178 78.5987 397.422 78.4517 396.778 78.1577C396.148 77.8637 395.665 77.4577 395.329 76.9397C394.993 76.4217 394.825 75.8337 394.825 75.1757C394.825 74.1257 395.217 73.2997 396.001 72.6977C396.799 72.0957 398.024 71.7947 399.676 71.7947H402.28C402.28 71.0807 402.063 70.5347 401.629 70.1567C401.195 69.7647 400.544 69.5687 399.676 69.5687C399.074 69.5687 398.479 69.6667 397.891 69.8627C397.317 70.0447 396.827 70.2967 396.421 70.6187L395.245 68.3297C395.861 67.8957 396.596 67.5597 397.45 67.3217C398.318 67.0837 399.207 66.9647 400.117 66.9647ZM399.865 76.3937C400.425 76.3937 400.922 76.2677 401.356 76.0157C401.79 75.7497 402.098 75.3647 402.28 74.8607V73.7057H400.033C398.689 73.7057 398.017 74.1467 398.017 75.0287C398.017 75.4487 398.178 75.7847 398.5 76.0367C398.836 76.2747 399.291 76.3937 399.865 76.3937ZM415.199 66.9647C416.249 66.9647 417.201 67.2097 418.055 67.6997C418.923 68.1757 419.602 68.8547 420.092 69.7367C420.582 70.6047 420.827 71.6197 420.827 72.7817C420.827 73.9437 420.582 74.9657 420.092 75.8477C419.602 76.7157 418.923 77.3947 418.055 77.8847C417.201 78.3607 416.249 78.5987 415.199 78.5987C413.645 78.5987 412.462 78.1087 411.65 77.1287V78.4307H408.521V62.8487H411.797V68.3297C412.623 67.4197 413.757 66.9647 415.199 66.9647ZM414.632 75.9107C415.472 75.9107 416.158 75.6307 416.69 75.0707C417.236 74.4967 417.509 73.7337 417.509 72.7817C417.509 71.8297 417.236 71.0737 416.69 70.5137C416.158 69.9397 415.472 69.6527 414.632 69.6527C413.792 69.6527 413.099 69.9397 412.553 70.5137C412.021 71.0737 411.755 71.8297 411.755 72.7817C411.755 73.7337 412.021 74.4967 412.553 75.0707C413.099 75.6307 413.792 75.9107 414.632 75.9107ZM426.149 68.6237C426.541 68.0777 427.066 67.6647 427.724 67.3847C428.396 67.1047 429.166 66.9647 430.034 66.9647V69.9887C429.67 69.9607 429.425 69.9467 429.299 69.9467C428.361 69.9467 427.626 70.2127 427.094 70.7447C426.562 71.2627 426.296 72.0467 426.296 73.0967V78.4307H423.02V67.1327H426.149V68.6237ZM437.256 78.5987C436.066 78.5987 434.995 78.3537 434.043 77.8637C433.105 77.3597 432.37 76.6667 431.838 75.7847C431.306 74.9027 431.04 73.9017 431.04 72.7817C431.04 71.6617 431.306 70.6607 431.838 69.7787C432.37 68.8967 433.105 68.2107 434.043 67.7207C434.995 67.2167 436.066 66.9647 437.256 66.9647C438.446 66.9647 439.51 67.2167 440.448 67.7207C441.386 68.2107 442.121 68.8967 442.653 69.7787C443.185 70.6607 443.451 71.6617 443.451 72.7817C443.451 73.9017 443.185 74.9027 442.653 75.7847C442.121 76.6667 441.386 77.3597 440.448 77.8637C439.51 78.3537 438.446 78.5987 437.256 78.5987ZM437.256 75.9107C438.096 75.9107 438.782 75.6307 439.314 75.0707C439.86 74.4967 440.133 73.7337 440.133 72.7817C440.133 71.8297 439.86 71.0737 439.314 70.5137C438.782 69.9397 438.096 69.6527 437.256 69.6527C436.416 69.6527 435.723 69.9397 435.177 70.5137C434.631 71.0737 434.358 71.8297 434.358 72.7817C434.358 73.7337 434.631 74.4967 435.177 75.0707C435.723 75.6307 436.416 75.9107 437.256 75.9107ZM450.013 66.9647C451.763 66.9647 453.107 67.3847 454.045 68.2247C454.983 69.0507 455.452 70.3037 455.452 71.9837V78.4307H452.386V77.0237C451.77 78.0737 450.622 78.5987 448.942 78.5987C448.074 78.5987 447.318 78.4517 446.674 78.1577C446.044 77.8637 445.561 77.4577 445.225 76.9397C444.889 76.4217 444.721 75.8337 444.721 75.1757C444.721 74.1257 445.113 73.2997 445.897 72.6977C446.695 72.0957 447.92 71.7947 449.572 71.7947H452.176C452.176 71.0807 451.959 70.5347 451.525 70.1567C451.091 69.7647 450.44 69.5687 449.572 69.5687C448.97 69.5687 448.375 69.6667 447.787 69.8627C447.213 70.0447 446.723 70.2967 446.317 70.6187L445.141 68.3297C445.757 67.8957 446.492 67.5597 447.346 67.3217C448.214 67.0837 449.103 66.9647 450.013 66.9647ZM449.761 76.3937C450.321 76.3937 450.818 76.2677 451.252 76.0157C451.686 75.7497 451.994 75.3647 452.176 74.8607V73.7057H449.929C448.585 73.7057 447.913 74.1467 447.913 75.0287C447.913 75.4487 448.074 75.7847 448.396 76.0367C448.732 76.2747 449.187 76.3937 449.761 76.3937ZM470.048 62.8487V78.4307H466.919V77.1287C466.107 78.1087 464.931 78.5987 463.391 78.5987C462.327 78.5987 461.361 78.3607 460.493 77.8847C459.639 77.4087 458.967 76.7297 458.477 75.8477C457.987 74.9657 457.742 73.9437 457.742 72.7817C457.742 71.6197 457.987 70.5977 458.477 69.7157C458.967 68.8337 459.639 68.1547 460.493 67.6787C461.361 67.2027 462.327 66.9647 463.391 66.9647C464.833 66.9647 465.96 67.4197 466.772 68.3297V62.8487H470.048ZM463.958 75.9107C464.784 75.9107 465.47 75.6307 466.016 75.0707C466.562 74.4967 466.835 73.7337 466.835 72.7817C466.835 71.8297 466.562 71.0737 466.016 70.5137C465.47 69.9397 464.784 69.6527 463.958 69.6527C463.118 69.6527 462.425 69.9397 461.879 70.5137C461.333 71.0737 461.06 71.8297 461.06 72.7817C461.06 73.7337 461.333 74.4967 461.879 75.0707C462.425 75.6307 463.118 75.9107 463.958 75.9107Z" fill="white"/>
<defs>
<clipPath id="clip0">
<rect width="75.2582" height="75.3315" fill="white" transform="translate(29.8052 29.834)"/>
</clipPath>
</defs>
</svg>
