<svg width="645" height="135" viewBox="0 0 645 135" fill="none" xmlns="http://www.w3.org/2000/svg">
<rect x="31" y="17" width="614" height="106" fill="#3E4671"/>
<path d="M133.711 67.5C133.711 103.665 104.236 133 67.8555 133C31.4746 133 2 103.665 2 67.5C2 31.3352 31.4746 2 67.8555 2C104.236 2 133.711 31.3352 133.711 67.5Z" fill="white" stroke="#3E4671" stroke-width="4"/>
<path d="M67.4826 36.8965C66.0117 36.8965 64.5501 37.3908 63.291 38.2948L59.3936 41.0162L54.9031 41.6047H54.8302L54.7572 41.6777C53.2845 42.0104 51.9362 42.7537 50.8685 43.8216C49.8009 44.8895 49.0578 46.2381 48.7252 47.7113L48.6546 47.7842V47.8572L48.0662 52.4195L45.3455 55.9506L45.2702 56.0236V56.0966C43.6251 58.7261 43.5522 62.1208 45.3455 64.6302L48.1392 68.5286L48.8758 72.5777L41.2999 84.1246L38.8734 87.7311H50.1255L52.8462 94.0566L54.5383 98.1033L56.9648 94.4238L64.3925 83.2418C66.3882 84.0611 68.6405 84.1364 70.5728 83.2418L78.0004 94.4238L80.4269 98.1033L82.1191 94.0566L84.8397 87.7311H96.0918L93.6653 84.1246L86.3106 72.945L86.899 68.531L89.6197 64.6326L89.695 64.5596V64.4866C91.3401 61.8571 91.413 58.5355 89.6197 56.026L86.899 52.1252L86.0165 47.7113H86.0894C86.08 47.6548 86.0259 47.6171 86.0165 47.563C85.5928 44.4838 83.1569 41.9837 80.0597 41.6047H79.9844L75.5716 41.0162L71.6742 38.2948C70.457 37.4029 68.9914 36.914 67.4826 36.8965ZM67.4826 41.6777C68.0239 41.6777 68.5582 41.8425 68.9536 42.1203L73.1451 45.1359L73.6606 45.5031L74.2489 45.5784L79.3984 46.3129H79.469C80.5281 46.4306 81.2624 47.1675 81.3824 48.2268V48.3728L82.3403 53.5965L82.4109 54.1121L82.7804 54.5523L85.7952 58.745C86.3577 59.5265 86.4307 60.8519 85.7223 61.9819L82.4132 66.6171L82.3379 67.2056L81.6036 72.3564V72.4271C81.5645 72.795 81.4386 73.1483 81.2365 73.4582L81.0882 73.5335V73.6041C80.7385 74.0243 80.2368 74.2892 79.6926 74.3409H79.5443L74.176 75.2991L73.5876 75.3697L73.1451 75.7393L68.9536 78.7549C68.1722 79.3175 66.7742 79.3905 65.6445 78.6819L61.8201 75.7393L61.3776 75.372L60.7163 75.2967L55.5668 74.5622H55.4962C55.1634 74.5328 54.8426 74.4238 54.5608 74.2444C54.279 74.0649 54.0444 73.8203 53.877 73.5311C53.7206 73.2596 53.6206 72.9594 53.5828 72.6483V72.5024L52.6273 67.1327L52.552 66.5441L52.1848 66.1016L49.17 61.9089C48.6075 61.1273 48.5345 59.729 49.243 58.599L52.1848 54.7736L52.552 54.331L52.6249 53.6695L53.2886 48.74C53.298 48.7047 53.3522 48.7047 53.3616 48.667C53.5083 48.1003 53.8039 47.5832 54.2177 47.1693C54.6316 46.7554 55.1485 46.4597 55.7151 46.3129C55.7527 46.3035 55.7527 46.2494 55.788 46.2399L60.7163 45.5761L61.3047 45.5055L61.8201 45.1359L66.0117 42.1203C66.4071 41.8448 66.9413 41.6777 67.4826 41.6777ZM83.7359 77.5049L87.3415 83.0229H81.6742L81.0859 84.4942L79.469 88.2443L74.4678 80.5935L75.5693 79.786L80.2057 78.9762V79.0492C80.2598 79.0397 80.2951 78.9856 80.3516 78.9762C81.5903 78.7974 82.7582 78.2893 83.7336 77.5049H83.7359ZM51.2293 77.5778C52.2513 78.5072 53.5351 79.0983 54.9055 79.2704H54.9784L59.4666 79.859L60.4951 80.6688L55.4939 88.2443L53.877 84.4942L53.2886 83.0229H47.6261L51.2293 77.5778Z" fill="#3E4671"/>
<path d="M149.709 55.5616C148.211 55.5616 146.853 55.2396 145.635 54.5956C144.431 53.9376 143.479 53.0346 142.779 51.8866C142.093 50.7246 141.75 49.4156 141.75 47.9596C141.75 46.5036 142.093 45.2016 142.779 44.0536C143.479 42.8916 144.431 41.9886 145.635 41.3446C146.853 40.6866 148.218 40.3576 149.73 40.3576C151.004 40.3576 152.152 40.5816 153.174 41.0296C154.21 41.4776 155.078 42.1216 155.778 42.9616L153.594 44.9776C152.6 43.8296 151.368 43.2556 149.898 43.2556C148.988 43.2556 148.176 43.4586 147.462 43.8646C146.748 44.2566 146.188 44.8096 145.782 45.5236C145.39 46.2376 145.194 47.0496 145.194 47.9596C145.194 48.8696 145.39 49.6816 145.782 50.3956C146.188 51.1096 146.748 51.6696 147.462 52.0756C148.176 52.4676 148.988 52.6636 149.898 52.6636C151.368 52.6636 152.6 52.0826 153.594 50.9206L155.778 52.9366C155.078 53.7906 154.21 54.4416 153.174 54.8896C152.138 55.3376 150.983 55.5616 149.709 55.5616ZM168.336 49.7026C168.336 49.7446 168.315 50.0386 168.273 50.5846H159.726C159.88 51.2846 160.244 51.8376 160.818 52.2436C161.392 52.6496 162.106 52.8526 162.96 52.8526C163.548 52.8526 164.066 52.7686 164.514 52.6006C164.976 52.4186 165.403 52.1386 165.795 51.7606L167.538 53.6506C166.474 54.8686 164.92 55.4776 162.876 55.4776C161.602 55.4776 160.475 55.2326 159.495 54.7426C158.515 54.2386 157.759 53.5456 157.227 52.6636C156.695 51.7816 156.429 50.7806 156.429 49.6606C156.429 48.5546 156.688 47.5606 157.206 46.6786C157.738 45.7826 158.459 45.0896 159.369 44.5996C160.293 44.0956 161.322 43.8436 162.456 43.8436C163.562 43.8436 164.563 44.0816 165.459 44.5576C166.355 45.0336 167.055 45.7196 167.559 46.6156C168.077 47.4976 168.336 48.5266 168.336 49.7026ZM162.477 46.3216C161.735 46.3216 161.112 46.5316 160.608 46.9516C160.104 47.3716 159.796 47.9456 159.684 48.6736H165.249C165.137 47.9596 164.829 47.3926 164.325 46.9726C163.821 46.5386 163.205 46.3216 162.477 46.3216ZM177.504 43.8436C178.554 43.8436 179.506 44.0886 180.36 44.5786C181.228 45.0546 181.907 45.7336 182.397 46.6156C182.887 47.4836 183.132 48.4986 183.132 49.6606C183.132 50.8226 182.887 51.8446 182.397 52.7266C181.907 53.5946 181.228 54.2736 180.36 54.7636C179.506 55.2396 178.554 55.4776 177.504 55.4776C176.062 55.4776 174.928 55.0226 174.102 54.1126V59.3836H170.826V44.0116H173.955V45.3136C174.767 44.3336 175.95 43.8436 177.504 43.8436ZM176.937 52.7896C177.777 52.7896 178.463 52.5096 178.995 51.9496C179.541 51.3756 179.814 50.6126 179.814 49.6606C179.814 48.7086 179.541 47.9526 178.995 47.3926C178.463 46.8186 177.777 46.5316 176.937 46.5316C176.097 46.5316 175.404 46.8186 174.858 47.3926C174.326 47.9526 174.06 48.7086 174.06 49.6606C174.06 50.6126 174.326 51.3756 174.858 51.9496C175.404 52.5096 176.097 52.7896 176.937 52.7896ZM194.51 46.6996H190.688V55.3096H187.433V46.6996H183.611V44.0116H194.51V46.6996ZM196.257 44.0116H199.512V50.7316L205.014 44.0116H208.017V55.3096H204.762V48.5896L199.281 55.3096H196.257V44.0116ZM226.769 49.6186C226.769 51.3686 226.181 52.7546 225.005 53.7766C223.843 54.7846 222.177 55.3656 220.007 55.5196V59.3836H217.004V55.5196C214.834 55.3656 213.161 54.7916 211.985 53.7976C210.823 52.7896 210.242 51.3966 210.242 49.6186C210.242 47.8686 210.816 46.5106 211.964 45.5446C213.126 44.5786 214.806 44.0186 217.004 43.8646V39.7276H220.007V43.8646C222.177 44.0186 223.843 44.5856 225.005 45.5656C226.181 46.5456 226.769 47.8966 226.769 49.6186ZM213.413 49.6186C213.413 50.6266 213.7 51.4036 214.274 51.9496C214.848 52.4956 215.758 52.8386 217.004 52.9786V46.4056C215.758 46.5316 214.848 46.8606 214.274 47.3926C213.7 47.9106 213.413 48.6526 213.413 49.6186ZM220.007 52.9786C221.253 52.8386 222.163 52.4956 222.737 51.9496C223.325 51.4036 223.619 50.6266 223.619 49.6186C223.619 48.6526 223.325 47.9106 222.737 47.3926C222.163 46.8606 221.253 46.5316 220.007 46.4056V52.9786ZM228.966 44.0116H232.242V55.3096H228.966V44.0116ZM230.604 42.4366C230.002 42.4366 229.512 42.2616 229.134 41.9116C228.756 41.5616 228.567 41.1276 228.567 40.6096C228.567 40.0916 228.756 39.6576 229.134 39.3076C229.512 38.9576 230.002 38.7826 230.604 38.7826C231.206 38.7826 231.696 38.9506 232.074 39.2866C232.452 39.6226 232.641 40.0426 232.641 40.5466C232.641 41.0926 232.452 41.5476 232.074 41.9116C231.696 42.2616 231.206 42.4366 230.604 42.4366ZM240.362 51.0256H238.661V55.3096H235.385V44.0116H238.661V48.4006H240.425L243.491 44.0116H246.977L243.029 49.4296L247.25 55.3096H243.386L240.362 51.0256ZM253.043 43.8436C254.793 43.8436 256.137 44.2636 257.075 45.1036C258.013 45.9296 258.482 47.1826 258.482 48.8626V55.3096H255.416V53.9026C254.8 54.9526 253.652 55.4776 251.972 55.4776C251.104 55.4776 250.348 55.3306 249.704 55.0366C249.074 54.7426 248.591 54.3366 248.255 53.8186C247.919 53.3006 247.751 52.7126 247.751 52.0546C247.751 51.0046 248.143 50.1786 248.927 49.5766C249.725 48.9746 250.95 48.6736 252.602 48.6736H255.206C255.206 47.9596 254.989 47.4136 254.555 47.0356C254.121 46.6436 253.47 46.4476 252.602 46.4476C252 46.4476 251.405 46.5456 250.817 46.7416C250.243 46.9236 249.753 47.1756 249.347 47.4976L248.171 45.2086C248.787 44.7746 249.522 44.4386 250.376 44.2006C251.244 43.9626 252.133 43.8436 253.043 43.8436ZM252.791 53.2726C253.351 53.2726 253.848 53.1466 254.282 52.8946C254.716 52.6286 255.024 52.2436 255.206 51.7396V50.5846H252.959C251.615 50.5846 250.943 51.0256 250.943 51.9076C250.943 52.3276 251.104 52.6636 251.426 52.9156C251.762 53.1536 252.217 53.2726 252.791 53.2726ZM274.054 52.6216V57.7876H271.009V55.3096H261.328V44.0116H264.583V52.6216H269.14V44.0116H272.416V52.6216H274.054ZM276.093 44.0116H279.369V55.3096H276.093V44.0116ZM277.731 42.4366C277.129 42.4366 276.639 42.2616 276.261 41.9116C275.883 41.5616 275.694 41.1276 275.694 40.6096C275.694 40.0916 275.883 39.6576 276.261 39.3076C276.639 38.9576 277.129 38.7826 277.731 38.7826C278.333 38.7826 278.823 38.9506 279.201 39.2866C279.579 39.6226 279.768 40.0426 279.768 40.5466C279.768 41.0926 279.579 41.5476 279.201 41.9116C278.823 42.2616 278.333 42.4366 277.731 42.4366ZM292.55 44.0116V55.3096H289.631V52.0756H287.216L285.074 55.3096H281.588L284.171 51.6136C283.387 51.3056 282.785 50.8646 282.365 50.2906C281.959 49.7026 281.756 48.9956 281.756 48.1696C281.756 46.8396 282.232 45.8176 283.184 45.1036C284.15 44.3756 285.473 44.0116 287.153 44.0116H292.55ZM287.216 46.6786C286.516 46.6786 285.984 46.8046 285.62 47.0566C285.27 47.3086 285.095 47.7146 285.095 48.2746C285.095 48.8346 285.263 49.2476 285.599 49.5136C285.949 49.7656 286.474 49.8916 287.174 49.8916H289.631V46.6786H287.216ZM308.975 49.4296C309.647 49.6396 310.165 49.9616 310.529 50.3956C310.907 50.8296 311.096 51.3476 311.096 51.9496C311.096 52.6636 310.851 53.2936 310.361 53.8396C309.871 54.3716 309.199 54.7846 308.345 55.0786C307.491 55.3726 306.525 55.5196 305.447 55.5196C304.565 55.5196 303.697 55.4286 302.843 55.2466C301.989 55.0646 301.198 54.7916 300.47 54.4276L301.352 52.1386C302.542 52.7126 303.858 52.9996 305.3 52.9996C306.07 52.9996 306.672 52.8876 307.106 52.6636C307.554 52.4256 307.778 52.0966 307.778 51.6766C307.778 51.3126 307.624 51.0396 307.316 50.8576C307.008 50.6616 306.56 50.5636 305.972 50.5636H303.662V48.5266H305.678C306.252 48.5266 306.693 48.4356 307.001 48.2536C307.309 48.0716 307.463 47.8056 307.463 47.4556C307.463 47.0916 307.267 46.8116 306.875 46.6156C306.497 46.4196 305.951 46.3216 305.237 46.3216C304.145 46.3216 302.955 46.5806 301.667 47.0986L300.869 44.8306C302.437 44.1446 303.963 43.8016 305.447 43.8016C306.469 43.8016 307.379 43.9276 308.177 44.1796C308.989 44.4316 309.626 44.8026 310.088 45.2926C310.55 45.7686 310.781 46.3286 310.781 46.9726C310.781 47.5046 310.62 47.9876 310.298 48.4216C309.976 48.8416 309.535 49.1776 308.975 49.4296ZM322.53 46.6996H316.734V55.3096H313.479V44.0116H322.53V46.6996ZM324.245 44.0116H327.521V55.3096H324.245V44.0116ZM325.883 42.4366C325.281 42.4366 324.791 42.2616 324.413 41.9116C324.035 41.5616 323.846 41.1276 323.846 40.6096C323.846 40.0916 324.035 39.6576 324.413 39.3076C324.791 38.9576 325.281 38.7826 325.883 38.7826C326.485 38.7826 326.975 38.9506 327.353 39.2866C327.731 39.6226 327.92 40.0426 327.92 40.5466C327.92 41.0926 327.731 41.5476 327.353 41.9116C326.975 42.2616 326.485 42.4366 325.883 42.4366ZM343.328 52.6216V57.7456H340.283V55.3096H332.345V57.7456H329.3V52.6216H329.762C330.462 52.6076 330.945 52.1946 331.211 51.3826C331.477 50.5706 331.645 49.4156 331.715 47.9176L331.862 44.0116H341.711V52.6216H343.328ZM334.676 48.1486C334.634 49.2966 334.543 50.2346 334.403 50.9626C334.277 51.6906 334.032 52.2436 333.668 52.6216H338.435V46.6996H334.739L334.676 48.1486ZM345.389 44.0116H348.644V48.4216H353.558V44.0116H356.834V55.3096H353.558V51.0886H348.644V55.3096H345.389V44.0116ZM365.262 55.4776C364.072 55.4776 363.001 55.2326 362.049 54.7426C361.111 54.2386 360.376 53.5456 359.844 52.6636C359.312 51.7816 359.046 50.7806 359.046 49.6606C359.046 48.5406 359.312 47.5396 359.844 46.6576C360.376 45.7756 361.111 45.0896 362.049 44.5996C363.001 44.0956 364.072 43.8436 365.262 43.8436C366.452 43.8436 367.516 44.0956 368.454 44.5996C369.392 45.0896 370.127 45.7756 370.659 46.6576C371.191 47.5396 371.457 48.5406 371.457 49.6606C371.457 50.7806 371.191 51.7816 370.659 52.6636C370.127 53.5456 369.392 54.2386 368.454 54.7426C367.516 55.2326 366.452 55.4776 365.262 55.4776ZM365.262 52.7896C366.102 52.7896 366.788 52.5096 367.32 51.9496C367.866 51.3756 368.139 50.6126 368.139 49.6606C368.139 48.7086 367.866 47.9526 367.32 47.3926C366.788 46.8186 366.102 46.5316 365.262 46.5316C364.422 46.5316 363.729 46.8186 363.183 47.3926C362.637 47.9526 362.364 48.7086 362.364 49.6606C362.364 50.6126 362.637 51.3756 363.183 51.9496C363.729 52.5096 364.422 52.7896 365.262 52.7896ZM385.034 55.4776C383.83 55.4776 382.745 55.2326 381.779 54.7426C380.827 54.2386 380.078 53.5456 379.532 52.6636C379 51.7816 378.734 50.7806 378.734 49.6606C378.734 48.5406 379 47.5396 379.532 46.6576C380.078 45.7756 380.827 45.0896 381.779 44.5996C382.745 44.0956 383.83 43.8436 385.034 43.8436C386.224 43.8436 387.26 44.0956 388.142 44.5996C389.038 45.0896 389.689 45.7966 390.095 46.7206L387.554 48.0856C386.966 47.0496 386.119 46.5316 385.013 46.5316C384.159 46.5316 383.452 46.8116 382.892 47.3716C382.332 47.9316 382.052 48.6946 382.052 49.6606C382.052 50.6266 382.332 51.3896 382.892 51.9496C383.452 52.5096 384.159 52.7896 385.013 52.7896C386.133 52.7896 386.98 52.2716 387.554 51.2356L390.095 52.6216C389.689 53.5176 389.038 54.2176 388.142 54.7216C387.26 55.2256 386.224 55.4776 385.034 55.4776ZM401.537 46.6996H397.715V55.3096H394.46V46.6996H390.638V44.0116H401.537V46.6996ZM407.672 43.8436C409.422 43.8436 410.766 44.2636 411.704 45.1036C412.642 45.9296 413.111 47.1826 413.111 48.8626V55.3096H410.045V53.9026C409.429 54.9526 408.281 55.4776 406.601 55.4776C405.733 55.4776 404.977 55.3306 404.333 55.0366C403.703 54.7426 403.22 54.3366 402.884 53.8186C402.548 53.3006 402.38 52.7126 402.38 52.0546C402.38 51.0046 402.772 50.1786 403.556 49.5766C404.354 48.9746 405.579 48.6736 407.231 48.6736H409.835C409.835 47.9596 409.618 47.4136 409.184 47.0356C408.75 46.6436 408.099 46.4476 407.231 46.4476C406.629 46.4476 406.034 46.5456 405.446 46.7416C404.872 46.9236 404.382 47.1756 403.976 47.4976L402.8 45.2086C403.416 44.7746 404.151 44.4386 405.005 44.2006C405.873 43.9626 406.762 43.8436 407.672 43.8436ZM407.42 53.2726C407.98 53.2726 408.477 53.1466 408.911 52.8946C409.345 52.6286 409.653 52.2436 409.835 51.7396V50.5846H407.588C406.244 50.5846 405.572 51.0256 405.572 51.9076C405.572 52.3276 405.733 52.6636 406.055 52.9156C406.391 53.1536 406.846 53.2726 407.42 53.2726ZM415.957 44.0116H419.212V48.4216H424.126V44.0116H427.402V55.3096H424.126V51.0886H419.212V55.3096H415.957V44.0116ZM443.201 52.6216V57.7456H440.156V55.3096H432.218V57.7456H429.173V52.6216H429.635C430.335 52.6076 430.818 52.1946 431.084 51.3826C431.35 50.5706 431.518 49.4156 431.588 47.9176L431.735 44.0116H441.584V52.6216H443.201ZM434.549 48.1486C434.507 49.2966 434.416 50.2346 434.276 50.9626C434.15 51.6906 433.905 52.2436 433.541 52.6216H438.308V46.6996H434.612L434.549 48.1486ZM449.651 43.8436C451.401 43.8436 452.745 44.2636 453.683 45.1036C454.621 45.9296 455.09 47.1826 455.09 48.8626V55.3096H452.024V53.9026C451.408 54.9526 450.26 55.4776 448.58 55.4776C447.712 55.4776 446.956 55.3306 446.312 55.0366C445.682 54.7426 445.199 54.3366 444.863 53.8186C444.527 53.3006 444.359 52.7126 444.359 52.0546C444.359 51.0046 444.751 50.1786 445.535 49.5766C446.333 48.9746 447.558 48.6736 449.21 48.6736H451.814C451.814 47.9596 451.597 47.4136 451.163 47.0356C450.729 46.6436 450.078 46.4476 449.21 46.4476C448.608 46.4476 448.013 46.5456 447.425 46.7416C446.851 46.9236 446.361 47.1756 445.955 47.4976L444.779 45.2086C445.395 44.7746 446.13 44.4386 446.984 44.2006C447.852 43.9626 448.741 43.8436 449.651 43.8436ZM449.399 53.2726C449.959 53.2726 450.456 53.1466 450.89 52.8946C451.324 52.6286 451.632 52.2436 451.814 51.7396V50.5846H449.567C448.223 50.5846 447.551 51.0256 447.551 51.9076C447.551 52.3276 447.712 52.6636 448.034 52.9156C448.37 53.1536 448.825 53.2726 449.399 53.2726ZM464.593 43.8436C465.643 43.8436 466.595 44.0886 467.449 44.5786C468.317 45.0546 468.996 45.7336 469.486 46.6156C469.976 47.4836 470.221 48.4986 470.221 49.6606C470.221 50.8226 469.976 51.8446 469.486 52.7266C468.996 53.5946 468.317 54.2736 467.449 54.7636C466.595 55.2396 465.643 55.4776 464.593 55.4776C463.151 55.4776 462.017 55.0226 461.191 54.1126V59.3836H457.915V44.0116H461.044V45.3136C461.856 44.3336 463.039 43.8436 464.593 43.8436ZM464.026 52.7896C464.866 52.7896 465.552 52.5096 466.084 51.9496C466.63 51.3756 466.903 50.6126 466.903 49.6606C466.903 48.7086 466.63 47.9526 466.084 47.3926C465.552 46.8186 464.866 46.5316 464.026 46.5316C463.186 46.5316 462.493 46.8186 461.947 47.3926C461.415 47.9526 461.149 48.7086 461.149 49.6606C461.149 50.6126 461.415 51.3756 461.947 51.9496C462.493 52.5096 463.186 52.7896 464.026 52.7896ZM481.599 46.6996H477.777V55.3096H474.522V46.6996H470.7V44.0116H481.599V46.6996ZM483.324 44.0116H486.6V55.3096H483.324V44.0116ZM484.962 42.4366C484.36 42.4366 483.87 42.2616 483.492 41.9116C483.114 41.5616 482.925 41.1276 482.925 40.6096C482.925 40.0916 483.114 39.6576 483.492 39.3076C483.87 38.9576 484.36 38.7826 484.962 38.7826C485.564 38.7826 486.054 38.9506 486.432 39.2866C486.81 39.6226 486.999 40.0426 486.999 40.5466C486.999 41.0926 486.81 41.5476 486.432 41.9116C486.054 42.2616 485.564 42.4366 484.962 42.4366ZM498.375 49.4086C499.705 49.8566 500.37 50.7526 500.37 52.0966C500.37 53.1186 499.985 53.9096 499.215 54.4696C498.445 55.0296 497.297 55.3096 495.771 55.3096H489.744V44.0116H495.519C496.933 44.0116 498.039 44.2706 498.837 44.7886C499.635 45.2926 500.034 46.0066 500.034 46.9306C500.034 47.4906 499.887 47.9876 499.593 48.4216C499.313 48.8416 498.907 49.1706 498.375 49.4086ZM492.747 48.6526H495.225C496.373 48.6526 496.947 48.2466 496.947 47.4346C496.947 46.6366 496.373 46.2376 495.225 46.2376H492.747V48.6526ZM495.498 53.0836C496.702 53.0836 497.304 52.6706 497.304 51.8446C497.304 51.4106 497.164 51.0956 496.884 50.8996C496.604 50.6896 496.163 50.5846 495.561 50.5846H492.747V53.0836H495.498ZM508.923 40.6096H512.325V55.3096H508.923V40.6096ZM520.643 55.5616C519.481 55.5616 518.354 55.4076 517.262 55.0996C516.184 54.7776 515.316 54.3646 514.658 53.8606L515.813 51.2986C516.443 51.7606 517.192 52.1316 518.06 52.4116C518.928 52.6916 519.796 52.8316 520.664 52.8316C521.63 52.8316 522.344 52.6916 522.806 52.4116C523.268 52.1176 523.499 51.7326 523.499 51.2566C523.499 50.9066 523.359 50.6196 523.079 50.3956C522.813 50.1576 522.463 49.9686 522.029 49.8286C521.609 49.6886 521.035 49.5346 520.307 49.3666C519.187 49.1006 518.27 48.8346 517.556 48.5686C516.842 48.3026 516.226 47.8756 515.708 47.2876C515.204 46.6996 514.952 45.9156 514.952 44.9356C514.952 44.0816 515.183 43.3116 515.645 42.6256C516.107 41.9256 516.8 41.3726 517.724 40.9666C518.662 40.5606 519.803 40.3576 521.147 40.3576C522.085 40.3576 523.002 40.4696 523.898 40.6936C524.794 40.9176 525.578 41.2396 526.25 41.6596L525.2 44.2426C523.842 43.4726 522.484 43.0876 521.126 43.0876C520.174 43.0876 519.467 43.2416 519.005 43.5496C518.557 43.8576 518.333 44.2636 518.333 44.7676C518.333 45.2716 518.592 45.6496 519.11 45.9016C519.642 46.1396 520.447 46.3776 521.525 46.6156C522.645 46.8816 523.562 47.1476 524.276 47.4136C524.99 47.6796 525.599 48.0996 526.103 48.6736C526.621 49.2476 526.88 50.0246 526.88 51.0046C526.88 51.8446 526.642 52.6146 526.166 53.3146C525.704 54.0006 525.004 54.5466 524.066 54.9526C523.128 55.3586 521.987 55.5616 520.643 55.5616ZM536.324 55.5616C534.798 55.5616 533.419 55.2326 532.187 54.5746C530.969 53.9166 530.01 53.0136 529.31 51.8656C528.624 50.7036 528.281 49.4016 528.281 47.9596C528.281 46.5176 528.624 45.2226 529.31 44.0746C530.01 42.9126 530.969 42.0026 532.187 41.3446C533.419 40.6866 534.798 40.3576 536.324 40.3576C537.85 40.3576 539.222 40.6866 540.44 41.3446C541.658 42.0026 542.617 42.9126 543.317 44.0746C544.017 45.2226 544.367 46.5176 544.367 47.9596C544.367 49.4016 544.017 50.7036 543.317 51.8656C542.617 53.0136 541.658 53.9166 540.44 54.5746C539.222 55.2326 537.85 55.5616 536.324 55.5616ZM536.324 52.6636C537.192 52.6636 537.976 52.4676 538.676 52.0756C539.376 51.6696 539.922 51.1096 540.314 50.3956C540.72 49.6816 540.923 48.8696 540.923 47.9596C540.923 47.0496 540.72 46.2376 540.314 45.5236C539.922 44.8096 539.376 44.2566 538.676 43.8646C537.976 43.4586 537.192 43.2556 536.324 43.2556C535.456 43.2556 534.672 43.4586 533.972 43.8646C533.272 44.2566 532.719 44.8096 532.313 45.5236C531.921 46.2376 531.725 47.0496 531.725 47.9596C531.725 48.8696 531.921 49.6816 532.313 50.3956C532.719 51.1096 533.272 51.6696 533.972 52.0756C534.672 52.4676 535.456 52.6636 536.324 52.6636ZM547.542 51.4036C548.13 51.4036 548.613 51.5926 548.991 51.9706C549.369 52.3346 549.558 52.8176 549.558 53.4196C549.558 53.6996 549.523 53.9796 549.453 54.2596C549.383 54.5396 549.229 54.9596 548.991 55.5196L547.794 58.5436H545.715L546.639 55.2046C546.289 55.0646 546.009 54.8406 545.799 54.5326C545.603 54.2106 545.505 53.8396 545.505 53.4196C545.505 52.8176 545.694 52.3346 546.072 51.9706C546.464 51.5926 546.954 51.4036 547.542 51.4036ZM567.89 47.7286H570.998V53.6926C570.2 54.2946 569.276 54.7566 568.226 55.0786C567.176 55.4006 566.119 55.5616 565.055 55.5616C563.529 55.5616 562.157 55.2396 560.939 54.5956C559.721 53.9376 558.762 53.0346 558.062 51.8866C557.376 50.7246 557.033 49.4156 557.033 47.9596C557.033 46.5036 557.376 45.2016 558.062 44.0536C558.762 42.8916 559.728 41.9886 560.96 41.3446C562.192 40.6866 563.578 40.3576 565.118 40.3576C566.406 40.3576 567.575 40.5746 568.625 41.0086C569.675 41.4426 570.557 42.0726 571.271 42.8986L569.087 44.9146C568.037 43.8086 566.77 43.2556 565.286 43.2556C564.348 43.2556 563.515 43.4516 562.787 43.8436C562.059 44.2356 561.492 44.7886 561.086 45.5026C560.68 46.2166 560.477 47.0356 560.477 47.9596C560.477 48.8696 560.68 49.6816 561.086 50.3956C561.492 51.1096 562.052 51.6696 562.766 52.0756C563.494 52.4676 564.32 52.6636 565.244 52.6636C566.224 52.6636 567.106 52.4536 567.89 52.0336V47.7286ZM583.839 52.1596H577.014L575.712 55.3096H572.226L578.778 40.6096H582.138L588.711 55.3096H585.141L583.839 52.1596ZM582.768 49.5766L580.437 43.9486L578.106 49.5766H582.768ZM593.638 43.3396V47.2246H600.442V49.9546H593.638V55.3096H590.236V40.6096H601.345V43.3396H593.638ZM606.796 43.3816H602.092V40.6096H614.902V43.3816H610.198V55.3096H606.796V43.3816ZM625.675 52.1596H618.85L617.548 55.3096H614.062L620.614 40.6096H623.974L630.547 55.3096H626.977L625.675 52.1596ZM624.604 49.5766L622.273 43.9486L619.942 49.5766H624.604ZM633.778 51.4036C634.366 51.4036 634.849 51.5926 635.227 51.9706C635.605 52.3346 635.794 52.8176 635.794 53.4196C635.794 53.6996 635.759 53.9796 635.689 54.2596C635.619 54.5396 635.465 54.9596 635.227 55.5196L634.03 58.5436H631.951L632.875 55.2046C632.525 55.0646 632.245 54.8406 632.035 54.5326C631.839 54.2106 631.741 53.8396 631.741 53.4196C631.741 52.8176 631.93 52.3346 632.308 51.9706C632.7 51.5926 633.19 51.4036 633.778 51.4036ZM146.076 69.3396V73.2246H152.88V75.9546H146.076V81.3096H142.674V66.6096H153.783V69.3396H146.076ZM163.061 81.5616C161.535 81.5616 160.156 81.2326 158.924 80.5746C157.706 79.9166 156.747 79.0136 156.047 77.8656C155.361 76.7036 155.018 75.4016 155.018 73.9596C155.018 72.5176 155.361 71.2226 156.047 70.0746C156.747 68.9126 157.706 68.0026 158.924 67.3446C160.156 66.6866 161.535 66.3576 163.061 66.3576C164.587 66.3576 165.959 66.6866 167.177 67.3446C168.395 68.0026 169.354 68.9126 170.054 70.0746C170.754 71.2226 171.104 72.5176 171.104 73.9596C171.104 75.4016 170.754 76.7036 170.054 77.8656C169.354 79.0136 168.395 79.9166 167.177 80.5746C165.959 81.2326 164.587 81.5616 163.061 81.5616ZM163.061 78.6636C163.929 78.6636 164.713 78.4676 165.413 78.0756C166.113 77.6696 166.659 77.1096 167.051 76.3956C167.457 75.6816 167.66 74.8696 167.66 73.9596C167.66 73.0496 167.457 72.2376 167.051 71.5236C166.659 70.8096 166.113 70.2566 165.413 69.8646C164.713 69.4586 163.929 69.2556 163.061 69.2556C162.193 69.2556 161.409 69.4586 160.709 69.8646C160.009 70.2566 159.456 70.8096 159.05 71.5236C158.658 72.2376 158.462 73.0496 158.462 73.9596C158.462 74.8696 158.658 75.6816 159.05 76.3956C159.456 77.1096 160.009 77.6696 160.709 78.0756C161.409 78.4676 162.193 78.6636 163.061 78.6636ZM178.491 81.5616C177.329 81.5616 176.202 81.4076 175.11 81.0996C174.032 80.7776 173.164 80.3646 172.506 79.8606L173.661 77.2986C174.291 77.7606 175.04 78.1316 175.908 78.4116C176.776 78.6916 177.644 78.8316 178.512 78.8316C179.478 78.8316 180.192 78.6916 180.654 78.4116C181.116 78.1176 181.347 77.7326 181.347 77.2566C181.347 76.9066 181.207 76.6196 180.927 76.3956C180.661 76.1576 180.311 75.9686 179.877 75.8286C179.457 75.6886 178.883 75.5346 178.155 75.3666C177.035 75.1006 176.118 74.8346 175.404 74.5686C174.69 74.3026 174.074 73.8756 173.556 73.2876C173.052 72.6996 172.8 71.9156 172.8 70.9356C172.8 70.0816 173.031 69.3116 173.493 68.6256C173.955 67.9256 174.648 67.3726 175.572 66.9666C176.51 66.5606 177.651 66.3576 178.995 66.3576C179.933 66.3576 180.85 66.4696 181.746 66.6936C182.642 66.9176 183.426 67.2396 184.098 67.6596L183.048 70.2426C181.69 69.4726 180.332 69.0876 178.974 69.0876C178.022 69.0876 177.315 69.2416 176.853 69.5496C176.405 69.8576 176.181 70.2636 176.181 70.7676C176.181 71.2716 176.44 71.6496 176.958 71.9016C177.49 72.1396 178.295 72.3776 179.373 72.6156C180.493 72.8816 181.41 73.1476 182.124 73.4136C182.838 73.6796 183.447 74.0996 183.951 74.6736C184.469 75.2476 184.728 76.0246 184.728 77.0046C184.728 77.8446 184.49 78.6146 184.014 79.3146C183.552 80.0006 182.852 80.5466 181.914 80.9526C180.976 81.3586 179.835 81.5616 178.491 81.5616ZM190.454 69.3396V73.2246H197.258V75.9546H190.454V81.3096H187.052V66.6096H198.161V69.3396H190.454ZM209.53 78.1596H202.705L201.403 81.3096H197.917L204.469 66.6096H207.829L214.402 81.3096H210.832L209.53 78.1596ZM208.459 75.5766L206.128 69.9486L203.797 75.5766H208.459ZM217.633 77.4036C218.221 77.4036 218.704 77.5926 219.082 77.9706C219.46 78.3346 219.649 78.8176 219.649 79.4196C219.649 79.6996 219.614 79.9796 219.544 80.2596C219.474 80.5396 219.32 80.9596 219.082 81.5196L217.885 84.5436H215.806L216.73 81.2046C216.38 81.0646 216.1 80.8406 215.89 80.5326C215.694 80.2106 215.596 79.8396 215.596 79.4196C215.596 78.8176 215.785 78.3346 216.163 77.9706C216.555 77.5926 217.045 77.4036 217.633 77.4036ZM238.044 70.0116V81.3096H234.768V77.1096C233.816 77.5856 232.766 77.8236 231.618 77.8236C230.092 77.8236 228.937 77.4806 228.153 76.7946C227.383 76.0946 226.998 75.0166 226.998 73.5606V70.0116H230.274V73.3506C230.274 74.0366 230.449 74.5336 230.799 74.8416C231.163 75.1496 231.681 75.3036 232.353 75.3036C233.207 75.3036 234.012 75.1216 234.768 74.7576V70.0116H238.044ZM252.025 70.0116V81.3096H248.749V72.6996H245.179L245.074 74.6946C245.018 76.1786 244.878 77.4106 244.654 78.3906C244.43 79.3706 244.066 80.1406 243.562 80.7006C243.058 81.2606 242.358 81.5406 241.462 81.5406C240.986 81.5406 240.419 81.4566 239.761 81.2886L239.929 78.6006C240.153 78.6286 240.314 78.6426 240.412 78.6426C240.902 78.6426 241.266 78.4676 241.504 78.1176C241.756 77.7536 241.924 77.2986 242.008 76.7526C242.092 76.1926 242.155 75.4576 242.197 74.5476L242.365 70.0116H252.025ZM266.158 75.7026C266.158 75.7446 266.137 76.0386 266.095 76.5846H257.548C257.702 77.2846 258.066 77.8376 258.64 78.2436C259.214 78.6496 259.928 78.8526 260.782 78.8526C261.37 78.8526 261.888 78.7686 262.336 78.6006C262.798 78.4186 263.225 78.1386 263.617 77.7606L265.36 79.6506C264.296 80.8686 262.742 81.4776 260.698 81.4776C259.424 81.4776 258.297 81.2326 257.317 80.7426C256.337 80.2386 255.581 79.5456 255.049 78.6636C254.517 77.7816 254.251 76.7806 254.251 75.6606C254.251 74.5546 254.51 73.5606 255.028 72.6786C255.56 71.7826 256.281 71.0896 257.191 70.5996C258.115 70.0956 259.144 69.8436 260.278 69.8436C261.384 69.8436 262.385 70.0816 263.281 70.5576C264.177 71.0336 264.877 71.7196 265.381 72.6156C265.899 73.4976 266.158 74.5266 266.158 75.7026ZM260.299 72.3216C259.557 72.3216 258.934 72.5316 258.43 72.9516C257.926 73.3716 257.618 73.9456 257.506 74.6736H263.071C262.959 73.9596 262.651 73.3926 262.147 72.9726C261.643 72.5386 261.027 72.3216 260.299 72.3216ZM268.67 70.0116H271.925V74.4216H276.839V70.0116H280.115V81.3096H276.839V77.0886H271.925V81.3096H268.67V70.0116ZM288.627 81.4776C287.423 81.4776 286.338 81.2326 285.372 80.7426C284.42 80.2386 283.671 79.5456 283.125 78.6636C282.593 77.7816 282.327 76.7806 282.327 75.6606C282.327 74.5406 282.593 73.5396 283.125 72.6576C283.671 71.7756 284.42 71.0896 285.372 70.5996C286.338 70.0956 287.423 69.8436 288.627 69.8436C289.817 69.8436 290.853 70.0956 291.735 70.5996C292.631 71.0896 293.282 71.7966 293.688 72.7206L291.147 74.0856C290.559 73.0496 289.712 72.5316 288.606 72.5316C287.752 72.5316 287.045 72.8116 286.485 73.3716C285.925 73.9316 285.645 74.6946 285.645 75.6606C285.645 76.6266 285.925 77.3896 286.485 77.9496C287.045 78.5096 287.752 78.7896 288.606 78.7896C289.726 78.7896 290.573 78.2716 291.147 77.2356L293.688 78.6216C293.282 79.5176 292.631 80.2176 291.735 80.7216C290.853 81.2256 289.817 81.4776 288.627 81.4776ZM305.129 72.6996H301.307V81.3096H298.052V72.6996H294.23V70.0116H305.129V72.6996ZM315.507 75.4086C316.837 75.8566 317.502 76.7526 317.502 78.0966C317.502 79.1186 317.117 79.9096 316.347 80.4696C315.577 81.0296 314.429 81.3096 312.903 81.3096H306.876V70.0116H312.651C314.065 70.0116 315.171 70.2706 315.969 70.7886C316.767 71.2926 317.166 72.0066 317.166 72.9306C317.166 73.4906 317.019 73.9876 316.725 74.4216C316.445 74.8416 316.039 75.1706 315.507 75.4086ZM309.879 74.6526H312.357C313.505 74.6526 314.079 74.2466 314.079 73.4346C314.079 72.6366 313.505 72.2376 312.357 72.2376H309.879V74.6526ZM312.63 79.0836C313.834 79.0836 314.436 78.6706 314.436 77.8446C314.436 77.4106 314.296 77.0956 314.016 76.8996C313.736 76.6896 313.295 76.5846 312.693 76.5846H309.879V79.0836H312.63ZM325.231 81.4776C324.041 81.4776 322.97 81.2326 322.018 80.7426C321.08 80.2386 320.345 79.5456 319.813 78.6636C319.281 77.7816 319.015 76.7806 319.015 75.6606C319.015 74.5406 319.281 73.5396 319.813 72.6576C320.345 71.7756 321.08 71.0896 322.018 70.5996C322.97 70.0956 324.041 69.8436 325.231 69.8436C326.421 69.8436 327.485 70.0956 328.423 70.5996C329.361 71.0896 330.096 71.7756 330.628 72.6576C331.16 73.5396 331.426 74.5406 331.426 75.6606C331.426 76.7806 331.16 77.7816 330.628 78.6636C330.096 79.5456 329.361 80.2386 328.423 80.7426C327.485 81.2326 326.421 81.4776 325.231 81.4776ZM325.231 78.7896C326.071 78.7896 326.757 78.5096 327.289 77.9496C327.835 77.3756 328.108 76.6126 328.108 75.6606C328.108 74.7086 327.835 73.9526 327.289 73.3926C326.757 72.8186 326.071 72.5316 325.231 72.5316C324.391 72.5316 323.698 72.8186 323.152 73.3926C322.606 73.9526 322.333 74.7086 322.333 75.6606C322.333 76.6126 322.606 77.3756 323.152 77.9496C323.698 78.5096 324.391 78.7896 325.231 78.7896ZM348.258 75.4086C349.588 75.8566 350.253 76.7526 350.253 78.0966C350.253 79.1186 349.868 79.9096 349.098 80.4696C348.328 81.0296 347.18 81.3096 345.654 81.3096H339.627V70.0116H345.402C346.816 70.0116 347.922 70.2706 348.72 70.7886C349.518 71.2926 349.917 72.0066 349.917 72.9306C349.917 73.4906 349.77 73.9876 349.476 74.4216C349.196 74.8416 348.79 75.1706 348.258 75.4086ZM342.63 74.6526H345.108C346.256 74.6526 346.83 74.2466 346.83 73.4346C346.83 72.6366 346.256 72.2376 345.108 72.2376H342.63V74.6526ZM345.381 79.0836C346.585 79.0836 347.187 78.6706 347.187 77.8446C347.187 77.4106 347.047 77.0956 346.767 76.8996C346.487 76.6896 346.046 76.5846 345.444 76.5846H342.63V79.0836H345.381ZM361.85 69.3816H357.146V66.6096H369.956V69.3816H365.252V81.3096H361.85V69.3816ZM371.787 66.6096H375.189V81.3096H371.787V66.6096ZM385.712 81.5616C384.214 81.5616 382.856 81.2396 381.638 80.5956C380.434 79.9376 379.482 79.0346 378.782 77.8866C378.096 76.7246 377.753 75.4156 377.753 73.9596C377.753 72.5036 378.096 71.2016 378.782 70.0536C379.482 68.8916 380.434 67.9886 381.638 67.3446C382.856 66.6866 384.221 66.3576 385.733 66.3576C387.007 66.3576 388.155 66.5816 389.177 67.0296C390.213 67.4776 391.081 68.1216 391.781 68.9616L389.597 70.9776C388.603 69.8296 387.371 69.2556 385.901 69.2556C384.991 69.2556 384.179 69.4586 383.465 69.8646C382.751 70.2566 382.191 70.8096 381.785 71.5236C381.393 72.2376 381.197 73.0496 381.197 73.9596C381.197 74.8696 381.393 75.6816 381.785 76.3956C382.191 77.1096 382.751 77.6696 383.465 78.0756C384.179 78.4676 384.991 78.6636 385.901 78.6636C387.371 78.6636 388.603 78.0826 389.597 76.9206L391.781 78.9366C391.081 79.7906 390.213 80.4416 389.177 80.8896C388.141 81.3376 386.986 81.5616 385.712 81.5616ZM407.061 81.5616C405.563 81.5616 404.205 81.2396 402.987 80.5956C401.783 79.9376 400.831 79.0346 400.131 77.8866C399.445 76.7246 399.102 75.4156 399.102 73.9596C399.102 72.5036 399.445 71.2016 400.131 70.0536C400.831 68.8916 401.783 67.9886 402.987 67.3446C404.205 66.6866 405.57 66.3576 407.082 66.3576C408.356 66.3576 409.504 66.5816 410.526 67.0296C411.562 67.4776 412.43 68.1216 413.13 68.9616L410.946 70.9776C409.952 69.8296 408.72 69.2556 407.25 69.2556C406.34 69.2556 405.528 69.4586 404.814 69.8646C404.1 70.2566 403.54 70.8096 403.134 71.5236C402.742 72.2376 402.546 73.0496 402.546 73.9596C402.546 74.8696 402.742 75.6816 403.134 76.3956C403.54 77.1096 404.1 77.6696 404.814 78.0756C405.528 78.4676 406.34 78.6636 407.25 78.6636C408.72 78.6636 409.952 78.0826 410.946 76.9206L413.13 78.9366C412.43 79.7906 411.562 80.4416 410.526 80.8896C409.49 81.3376 408.335 81.5616 407.061 81.5616ZM420.183 81.4776C418.993 81.4776 417.922 81.2326 416.97 80.7426C416.032 80.2386 415.297 79.5456 414.765 78.6636C414.233 77.7816 413.967 76.7806 413.967 75.6606C413.967 74.5406 414.233 73.5396 414.765 72.6576C415.297 71.7756 416.032 71.0896 416.97 70.5996C417.922 70.0956 418.993 69.8436 420.183 69.8436C421.373 69.8436 422.437 70.0956 423.375 70.5996C424.313 71.0896 425.048 71.7756 425.58 72.6576C426.112 73.5396 426.378 74.5406 426.378 75.6606C426.378 76.7806 426.112 77.7816 425.58 78.6636C425.048 79.5456 424.313 80.2386 423.375 80.7426C422.437 81.2326 421.373 81.4776 420.183 81.4776ZM420.183 78.7896C421.023 78.7896 421.709 78.5096 422.241 77.9496C422.787 77.3756 423.06 76.6126 423.06 75.6606C423.06 74.7086 422.787 73.9526 422.241 73.3926C421.709 72.8186 421.023 72.5316 420.183 72.5316C419.343 72.5316 418.65 72.8186 418.104 73.3926C417.558 73.9526 417.285 74.7086 417.285 75.6606C417.285 76.6126 417.558 77.3756 418.104 77.9496C418.65 78.5096 419.343 78.7896 420.183 78.7896ZM439.95 70.0116V81.3096H436.842V79.9656C436.408 80.4556 435.89 80.8336 435.288 81.0996C434.686 81.3516 434.035 81.4776 433.335 81.4776C431.851 81.4776 430.675 81.0506 429.807 80.1966C428.939 79.3426 428.505 78.0756 428.505 76.3956V70.0116H431.781V75.9126C431.781 77.7326 432.544 78.6426 434.07 78.6426C434.854 78.6426 435.484 78.3906 435.96 77.8866C436.436 77.3686 436.674 76.6056 436.674 75.5976V70.0116H439.95ZM449.852 69.8436C451.252 69.8436 452.379 70.2636 453.233 71.1036C454.101 71.9436 454.535 73.1896 454.535 74.8416V81.3096H451.259V75.3456C451.259 74.4496 451.063 73.7846 450.671 73.3506C450.279 72.9026 449.712 72.6786 448.97 72.6786C448.144 72.6786 447.486 72.9376 446.996 73.4556C446.506 73.9596 446.261 74.7156 446.261 75.7236V81.3096H442.985V70.0116H446.114V71.3346C446.548 70.8586 447.087 70.4946 447.731 70.2426C448.375 69.9766 449.082 69.8436 449.852 69.8436ZM463.087 81.4776C461.883 81.4776 460.798 81.2326 459.832 80.7426C458.88 80.2386 458.131 79.5456 457.585 78.6636C457.053 77.7816 456.787 76.7806 456.787 75.6606C456.787 74.5406 457.053 73.5396 457.585 72.6576C458.131 71.7756 458.88 71.0896 459.832 70.5996C460.798 70.0956 461.883 69.8436 463.087 69.8436C464.277 69.8436 465.313 70.0956 466.195 70.5996C467.091 71.0896 467.742 71.7966 468.148 72.7206L465.607 74.0856C465.019 73.0496 464.172 72.5316 463.066 72.5316C462.212 72.5316 461.505 72.8116 460.945 73.3716C460.385 73.9316 460.105 74.6946 460.105 75.6606C460.105 76.6266 460.385 77.3896 460.945 77.9496C461.505 78.5096 462.212 78.7896 463.066 78.7896C464.186 78.7896 465.033 78.2716 465.607 77.2356L468.148 78.6216C467.742 79.5176 467.091 80.2176 466.195 80.7216C465.313 81.2256 464.277 81.4776 463.087 81.4776ZM470.034 70.0116H473.31V81.3096H470.034V70.0116ZM471.672 68.4366C471.07 68.4366 470.58 68.2616 470.202 67.9116C469.824 67.5616 469.635 67.1276 469.635 66.6096C469.635 66.0916 469.824 65.6576 470.202 65.3076C470.58 64.9576 471.07 64.7826 471.672 64.7826C472.274 64.7826 472.764 64.9506 473.142 65.2866C473.52 65.6226 473.709 66.0426 473.709 66.5466C473.709 67.0926 473.52 67.5476 473.142 67.9116C472.764 68.2616 472.274 68.4366 471.672 68.4366ZM476.351 65.7276H479.627V81.3096H476.351V65.7276Z" fill="white"/>
</svg>
