<svg width="645" height="135" viewBox="0 0 645 135" fill="none" xmlns="http://www.w3.org/2000/svg">
<rect x="31" y="17" width="614" height="106" fill="#3E4671"/>
<path d="M133.711 67.5C133.711 103.665 104.236 133 67.8555 133C31.4746 133 2 103.665 2 67.5C2 31.3352 31.4746 2 67.8555 2C104.236 2 133.711 31.3352 133.711 67.5Z" fill="white" stroke="#3E4671" stroke-width="4"/>
<path d="M67.4826 36.8965C66.0117 36.8965 64.5501 37.3908 63.291 38.2948L59.3936 41.0162L54.9031 41.6047H54.8302L54.7572 41.6777C53.2845 42.0104 51.9362 42.7537 50.8685 43.8216C49.8009 44.8895 49.0578 46.2381 48.7252 47.7113L48.6546 47.7842V47.8572L48.0662 52.4195L45.3455 55.9506L45.2702 56.0236V56.0966C43.6251 58.7261 43.5522 62.1208 45.3455 64.6302L48.1392 68.5286L48.8758 72.5777L41.2999 84.1246L38.8734 87.7311H50.1255L52.8462 94.0566L54.5383 98.1033L56.9648 94.4238L64.3925 83.2418C66.3882 84.0611 68.6405 84.1364 70.5728 83.2418L78.0004 94.4238L80.4269 98.1033L82.1191 94.0566L84.8397 87.7311H96.0918L93.6653 84.1246L86.3106 72.945L86.899 68.531L89.6197 64.6326L89.695 64.5596V64.4866C91.3401 61.8571 91.413 58.5355 89.6197 56.026L86.899 52.1252L86.0165 47.7113H86.0894C86.08 47.6548 86.0259 47.6171 86.0165 47.563C85.5928 44.4838 83.1569 41.9837 80.0597 41.6047H79.9844L75.5716 41.0162L71.6742 38.2948C70.457 37.4029 68.9914 36.914 67.4826 36.8965ZM67.4826 41.6777C68.0239 41.6777 68.5582 41.8425 68.9536 42.1203L73.1451 45.1359L73.6606 45.5031L74.2489 45.5784L79.3984 46.3129H79.469C80.5281 46.4306 81.2624 47.1675 81.3824 48.2268V48.3728L82.3403 53.5965L82.4109 54.1121L82.7804 54.5523L85.7952 58.745C86.3577 59.5265 86.4307 60.8519 85.7223 61.9819L82.4132 66.6171L82.3379 67.2056L81.6036 72.3564V72.4271C81.5645 72.795 81.4386 73.1483 81.2365 73.4582L81.0882 73.5335V73.6041C80.7385 74.0243 80.2368 74.2892 79.6926 74.3409H79.5443L74.176 75.2991L73.5876 75.3697L73.1451 75.7393L68.9536 78.7549C68.1722 79.3175 66.7742 79.3905 65.6445 78.6819L61.8201 75.7393L61.3776 75.372L60.7163 75.2967L55.5668 74.5622H55.4962C55.1634 74.5328 54.8426 74.4238 54.5608 74.2444C54.279 74.0649 54.0444 73.8203 53.877 73.5311C53.7206 73.2596 53.6206 72.9594 53.5828 72.6483V72.5024L52.6273 67.1327L52.552 66.5441L52.1848 66.1016L49.17 61.9089C48.6075 61.1273 48.5345 59.729 49.243 58.599L52.1848 54.7736L52.552 54.331L52.6249 53.6695L53.2886 48.74C53.298 48.7047 53.3522 48.7047 53.3616 48.667C53.5083 48.1003 53.8039 47.5832 54.2177 47.1693C54.6316 46.7554 55.1485 46.4597 55.7151 46.3129C55.7527 46.3035 55.7527 46.2494 55.788 46.2399L60.7163 45.5761L61.3047 45.5055L61.8201 45.1359L66.0117 42.1203C66.4071 41.8448 66.9413 41.6777 67.4826 41.6777ZM83.7359 77.5049L87.3415 83.0229H81.6742L81.0859 84.4942L79.469 88.2443L74.4678 80.5935L75.5693 79.786L80.2057 78.9762V79.0492C80.2598 79.0397 80.2951 78.9856 80.3516 78.9762C81.5903 78.7974 82.7582 78.2893 83.7336 77.5049H83.7359ZM51.2293 77.5778C52.2513 78.5072 53.5351 79.0983 54.9055 79.2704H54.9784L59.4666 79.859L60.4951 80.6688L55.4939 88.2443L53.877 84.4942L53.2886 83.0229H47.6261L51.2293 77.5778Z" fill="#3E4671"/>
<path d="M149.709 55.5616C148.211 55.5616 146.853 55.2396 145.635 54.5956C144.431 53.9376 143.479 53.0346 142.779 51.8866C142.093 50.7246 141.75 49.4156 141.75 47.9596C141.75 46.5036 142.093 45.2016 142.779 44.0536C143.479 42.8916 144.431 41.9886 145.635 41.3446C146.853 40.6866 148.218 40.3576 149.73 40.3576C151.004 40.3576 152.152 40.5816 153.174 41.0296C154.21 41.4776 155.078 42.1216 155.778 42.9616L153.594 44.9776C152.6 43.8296 151.368 43.2556 149.898 43.2556C148.988 43.2556 148.176 43.4586 147.462 43.8646C146.748 44.2566 146.188 44.8096 145.782 45.5236C145.39 46.2376 145.194 47.0496 145.194 47.9596C145.194 48.8696 145.39 49.6816 145.782 50.3956C146.188 51.1096 146.748 51.6696 147.462 52.0756C148.176 52.4676 148.988 52.6636 149.898 52.6636C151.368 52.6636 152.6 52.0826 153.594 50.9206L155.778 52.9366C155.078 53.7906 154.21 54.4416 153.174 54.8896C152.138 55.3376 150.983 55.5616 149.709 55.5616ZM168.521 49.7026C168.521 49.7446 168.5 50.0386 168.458 50.5846H159.911C160.065 51.2846 160.429 51.8376 161.003 52.2436C161.577 52.6496 162.291 52.8526 163.145 52.8526C163.733 52.8526 164.251 52.7686 164.699 52.6006C165.161 52.4186 165.588 52.1386 165.98 51.7606L167.723 53.6506C166.659 54.8686 165.105 55.4776 163.061 55.4776C161.787 55.4776 160.66 55.2326 159.68 54.7426C158.7 54.2386 157.944 53.5456 157.412 52.6636C156.88 51.7816 156.614 50.7806 156.614 49.6606C156.614 48.5546 156.873 47.5606 157.391 46.6786C157.923 45.7826 158.644 45.0896 159.554 44.5996C160.478 44.0956 161.507 43.8436 162.641 43.8436C163.747 43.8436 164.748 44.0816 165.644 44.5576C166.54 45.0336 167.24 45.7196 167.744 46.6156C168.262 47.4976 168.521 48.5266 168.521 49.7026ZM162.662 46.3216C161.92 46.3216 161.297 46.5316 160.793 46.9516C160.289 47.3716 159.981 47.9456 159.869 48.6736H165.434C165.322 47.9596 165.014 47.3926 164.51 46.9726C164.006 46.5386 163.39 46.3216 162.662 46.3216ZM173.831 45.5026C174.223 44.9566 174.748 44.5436 175.406 44.2636C176.078 43.9836 176.848 43.8436 177.716 43.8436V46.8676C177.352 46.8396 177.107 46.8256 176.981 46.8256C176.043 46.8256 175.308 47.0916 174.776 47.6236C174.244 48.1416 173.978 48.9256 173.978 49.9756V55.3096H170.702V44.0116H173.831V45.5026ZM187.341 54.7636C187.019 55.0016 186.62 55.1836 186.144 55.3096C185.682 55.4216 185.192 55.4776 184.674 55.4776C183.33 55.4776 182.287 55.1346 181.545 54.4486C180.817 53.7626 180.453 52.7546 180.453 51.4246V46.7836H178.71V44.2636H180.453V41.5126H183.729V44.2636H186.543V46.7836H183.729V51.3826C183.729 51.8586 183.848 52.2296 184.086 52.4956C184.338 52.7476 184.688 52.8736 185.136 52.8736C185.654 52.8736 186.095 52.7336 186.459 52.4536L187.341 54.7636ZM189.18 44.0116H192.456V55.3096H189.18V44.0116ZM190.818 42.4366C190.216 42.4366 189.726 42.2616 189.348 41.9116C188.97 41.5616 188.781 41.1276 188.781 40.6096C188.781 40.0916 188.97 39.6576 189.348 39.3076C189.726 38.9576 190.216 38.7826 190.818 38.7826C191.42 38.7826 191.91 38.9506 192.288 39.2866C192.666 39.6226 192.855 40.0426 192.855 40.5466C192.855 41.0926 192.666 41.5476 192.288 41.9116C191.91 42.2616 191.42 42.4366 190.818 42.4366ZM199.087 44.2636H201.985V46.7836H199.171V55.3096H195.895V46.7836H194.152V44.2636H195.895V43.7596C195.895 42.4716 196.273 41.4496 197.029 40.6936C197.799 39.9376 198.877 39.5596 200.263 39.5596C200.753 39.5596 201.215 39.6156 201.649 39.7276C202.097 39.8256 202.468 39.9726 202.762 40.1686L201.901 42.5416C201.523 42.2756 201.082 42.1426 200.578 42.1426C199.584 42.1426 199.087 42.6886 199.087 43.7806V44.2636ZM205.303 44.0116H208.579V55.3096H205.303V44.0116ZM206.941 42.4366C206.339 42.4366 205.849 42.2616 205.471 41.9116C205.093 41.5616 204.904 41.1276 204.904 40.6096C204.904 40.0916 205.093 39.6576 205.471 39.3076C205.849 38.9576 206.339 38.7826 206.941 38.7826C207.543 38.7826 208.033 38.9506 208.411 39.2866C208.789 39.6226 208.978 40.0426 208.978 40.5466C208.978 41.0926 208.789 41.5476 208.411 41.9116C208.033 42.2616 207.543 42.4366 206.941 42.4366ZM217.075 55.4776C215.871 55.4776 214.786 55.2326 213.82 54.7426C212.868 54.2386 212.119 53.5456 211.573 52.6636C211.041 51.7816 210.775 50.7806 210.775 49.6606C210.775 48.5406 211.041 47.5396 211.573 46.6576C212.119 45.7756 212.868 45.0896 213.82 44.5996C214.786 44.0956 215.871 43.8436 217.075 43.8436C218.265 43.8436 219.301 44.0956 220.183 44.5996C221.079 45.0896 221.73 45.7966 222.136 46.7206L219.595 48.0856C219.007 47.0496 218.16 46.5316 217.054 46.5316C216.2 46.5316 215.493 46.8116 214.933 47.3716C214.373 47.9316 214.093 48.6946 214.093 49.6606C214.093 50.6266 214.373 51.3896 214.933 51.9496C215.493 52.5096 216.2 52.7896 217.054 52.7896C218.174 52.7896 219.021 52.2716 219.595 51.2356L222.136 52.6216C221.73 53.5176 221.079 54.2176 220.183 54.7216C219.301 55.2256 218.265 55.4776 217.075 55.4776ZM228.58 43.8436C230.33 43.8436 231.674 44.2636 232.612 45.1036C233.55 45.9296 234.019 47.1826 234.019 48.8626V55.3096H230.953V53.9026C230.337 54.9526 229.189 55.4776 227.509 55.4776C226.641 55.4776 225.885 55.3306 225.241 55.0366C224.611 54.7426 224.128 54.3366 223.792 53.8186C223.456 53.3006 223.288 52.7126 223.288 52.0546C223.288 51.0046 223.68 50.1786 224.464 49.5766C225.262 48.9746 226.487 48.6736 228.139 48.6736H230.743C230.743 47.9596 230.526 47.4136 230.092 47.0356C229.658 46.6436 229.007 46.4476 228.139 46.4476C227.537 46.4476 226.942 46.5456 226.354 46.7416C225.78 46.9236 225.29 47.1756 224.884 47.4976L223.708 45.2086C224.324 44.7746 225.059 44.4386 225.913 44.2006C226.781 43.9626 227.67 43.8436 228.58 43.8436ZM228.328 53.2726C228.888 53.2726 229.385 53.1466 229.819 52.8946C230.253 52.6286 230.561 52.2436 230.743 51.7396V50.5846H228.496C227.152 50.5846 226.48 51.0256 226.48 51.9076C226.48 52.3276 226.641 52.6636 226.963 52.9156C227.299 53.1536 227.754 53.2726 228.328 53.2726ZM244.271 54.7636C243.949 55.0016 243.55 55.1836 243.074 55.3096C242.612 55.4216 242.122 55.4776 241.604 55.4776C240.26 55.4776 239.217 55.1346 238.475 54.4486C237.747 53.7626 237.383 52.7546 237.383 51.4246V46.7836H235.64V44.2636H237.383V41.5126H240.659V44.2636H243.473V46.7836H240.659V51.3826C240.659 51.8586 240.778 52.2296 241.016 52.4956C241.268 52.7476 241.618 52.8736 242.066 52.8736C242.584 52.8736 243.025 52.7336 243.389 52.4536L244.271 54.7636ZM246.11 44.0116H249.386V55.3096H246.11V44.0116ZM247.748 42.4366C247.146 42.4366 246.656 42.2616 246.278 41.9116C245.9 41.5616 245.711 41.1276 245.711 40.6096C245.711 40.0916 245.9 39.6576 246.278 39.3076C246.656 38.9576 247.146 38.7826 247.748 38.7826C248.35 38.7826 248.84 38.9506 249.218 39.2866C249.596 39.6226 249.785 40.0426 249.785 40.5466C249.785 41.0926 249.596 41.5476 249.218 41.9116C248.84 42.2616 248.35 42.4366 247.748 42.4366ZM257.802 55.4776C256.612 55.4776 255.541 55.2326 254.589 54.7426C253.651 54.2386 252.916 53.5456 252.384 52.6636C251.852 51.7816 251.586 50.7806 251.586 49.6606C251.586 48.5406 251.852 47.5396 252.384 46.6576C252.916 45.7756 253.651 45.0896 254.589 44.5996C255.541 44.0956 256.612 43.8436 257.802 43.8436C258.992 43.8436 260.056 44.0956 260.994 44.5996C261.932 45.0896 262.667 45.7756 263.199 46.6576C263.731 47.5396 263.997 48.5406 263.997 49.6606C263.997 50.7806 263.731 51.7816 263.199 52.6636C262.667 53.5456 261.932 54.2386 260.994 54.7426C260.056 55.2326 258.992 55.4776 257.802 55.4776ZM257.802 52.7896C258.642 52.7896 259.328 52.5096 259.86 51.9496C260.406 51.3756 260.679 50.6126 260.679 49.6606C260.679 48.7086 260.406 47.9526 259.86 47.3926C259.328 46.8186 258.642 46.5316 257.802 46.5316C256.962 46.5316 256.269 46.8186 255.723 47.3926C255.177 47.9526 254.904 48.7086 254.904 49.6606C254.904 50.6126 255.177 51.3756 255.723 51.9496C256.269 52.5096 256.962 52.7896 257.802 52.7896ZM273.054 43.8436C274.454 43.8436 275.581 44.2636 276.435 45.1036C277.303 45.9436 277.737 47.1896 277.737 48.8416V55.3096H274.461V49.3456C274.461 48.4496 274.265 47.7846 273.873 47.3506C273.481 46.9026 272.914 46.6786 272.172 46.6786C271.346 46.6786 270.688 46.9376 270.198 47.4556C269.708 47.9596 269.463 48.7156 269.463 49.7236V55.3096H266.187V44.0116H269.316V45.3346C269.75 44.8586 270.289 44.4946 270.933 44.2426C271.577 43.9766 272.284 43.8436 273.054 43.8436ZM291.21 43.8436C292.96 43.8436 294.304 44.2636 295.242 45.1036C296.18 45.9296 296.649 47.1826 296.649 48.8626V55.3096H293.583V53.9026C292.967 54.9526 291.819 55.4776 290.139 55.4776C289.271 55.4776 288.515 55.3306 287.871 55.0366C287.241 54.7426 286.758 54.3366 286.422 53.8186C286.086 53.3006 285.918 52.7126 285.918 52.0546C285.918 51.0046 286.31 50.1786 287.094 49.5766C287.892 48.9746 289.117 48.6736 290.769 48.6736H293.373C293.373 47.9596 293.156 47.4136 292.722 47.0356C292.288 46.6436 291.637 46.4476 290.769 46.4476C290.167 46.4476 289.572 46.5456 288.984 46.7416C288.41 46.9236 287.92 47.1756 287.514 47.4976L286.338 45.2086C286.954 44.7746 287.689 44.4386 288.543 44.2006C289.411 43.9626 290.3 43.8436 291.21 43.8436ZM290.958 53.2726C291.518 53.2726 292.015 53.1466 292.449 52.8946C292.883 52.6286 293.191 52.2436 293.373 51.7396V50.5846H291.126C289.782 50.5846 289.11 51.0256 289.11 51.9076C289.11 52.3276 289.271 52.6636 289.593 52.9156C289.929 53.1536 290.384 53.2726 290.958 53.2726ZM305.197 55.4776C303.993 55.4776 302.908 55.2326 301.942 54.7426C300.99 54.2386 300.241 53.5456 299.695 52.6636C299.163 51.7816 298.897 50.7806 298.897 49.6606C298.897 48.5406 299.163 47.5396 299.695 46.6576C300.241 45.7756 300.99 45.0896 301.942 44.5996C302.908 44.0956 303.993 43.8436 305.197 43.8436C306.387 43.8436 307.423 44.0956 308.305 44.5996C309.201 45.0896 309.852 45.7966 310.258 46.7206L307.717 48.0856C307.129 47.0496 306.282 46.5316 305.176 46.5316C304.322 46.5316 303.615 46.8116 303.055 47.3716C302.495 47.9316 302.215 48.6946 302.215 49.6606C302.215 50.6266 302.495 51.3896 303.055 51.9496C303.615 52.5096 304.322 52.7896 305.176 52.7896C306.296 52.7896 307.143 52.2716 307.717 51.2356L310.258 52.6216C309.852 53.5176 309.201 54.2176 308.305 54.7216C307.423 55.2256 306.387 55.4776 305.197 55.4776ZM317.461 55.4776C316.257 55.4776 315.172 55.2326 314.206 54.7426C313.254 54.2386 312.505 53.5456 311.959 52.6636C311.427 51.7816 311.161 50.7806 311.161 49.6606C311.161 48.5406 311.427 47.5396 311.959 46.6576C312.505 45.7756 313.254 45.0896 314.206 44.5996C315.172 44.0956 316.257 43.8436 317.461 43.8436C318.651 43.8436 319.687 44.0956 320.569 44.5996C321.465 45.0896 322.116 45.7966 322.522 46.7206L319.981 48.0856C319.393 47.0496 318.546 46.5316 317.44 46.5316C316.586 46.5316 315.879 46.8116 315.319 47.3716C314.759 47.9316 314.479 48.6946 314.479 49.6606C314.479 50.6266 314.759 51.3896 315.319 51.9496C315.879 52.5096 316.586 52.7896 317.44 52.7896C318.56 52.7896 319.407 52.2716 319.981 51.2356L322.522 52.6216C322.116 53.5176 321.465 54.2176 320.569 54.7216C319.687 55.2256 318.651 55.4776 317.461 55.4776ZM329.641 55.4776C328.451 55.4776 327.38 55.2326 326.428 54.7426C325.49 54.2386 324.755 53.5456 324.223 52.6636C323.691 51.7816 323.425 50.7806 323.425 49.6606C323.425 48.5406 323.691 47.5396 324.223 46.6576C324.755 45.7756 325.49 45.0896 326.428 44.5996C327.38 44.0956 328.451 43.8436 329.641 43.8436C330.831 43.8436 331.895 44.0956 332.833 44.5996C333.771 45.0896 334.506 45.7756 335.038 46.6576C335.57 47.5396 335.836 48.5406 335.836 49.6606C335.836 50.7806 335.57 51.7816 335.038 52.6636C334.506 53.5456 333.771 54.2386 332.833 54.7426C331.895 55.2326 330.831 55.4776 329.641 55.4776ZM329.641 52.7896C330.481 52.7896 331.167 52.5096 331.699 51.9496C332.245 51.3756 332.518 50.6126 332.518 49.6606C332.518 48.7086 332.245 47.9526 331.699 47.3926C331.167 46.8186 330.481 46.5316 329.641 46.5316C328.801 46.5316 328.108 46.8186 327.562 47.3926C327.016 47.9526 326.743 48.7086 326.743 49.6606C326.743 50.6126 327.016 51.3756 327.562 51.9496C328.108 52.5096 328.801 52.7896 329.641 52.7896ZM341.155 45.5026C341.547 44.9566 342.072 44.5436 342.73 44.2636C343.402 43.9836 344.172 43.8436 345.04 43.8436V46.8676C344.676 46.8396 344.431 46.8256 344.305 46.8256C343.367 46.8256 342.632 47.0916 342.1 47.6236C341.568 48.1416 341.302 48.9256 341.302 49.9756V55.3096H338.026V44.0116H341.155V45.5026ZM358.393 39.7276V55.3096H355.264V54.0076C354.452 54.9876 353.276 55.4776 351.736 55.4776C350.672 55.4776 349.706 55.2396 348.838 54.7636C347.984 54.2876 347.312 53.6086 346.822 52.7266C346.332 51.8446 346.087 50.8226 346.087 49.6606C346.087 48.4986 346.332 47.4766 346.822 46.5946C347.312 45.7126 347.984 45.0336 348.838 44.5576C349.706 44.0816 350.672 43.8436 351.736 43.8436C353.178 43.8436 354.305 44.2986 355.117 45.2086V39.7276H358.393ZM352.303 52.7896C353.129 52.7896 353.815 52.5096 354.361 51.9496C354.907 51.3756 355.18 50.6126 355.18 49.6606C355.18 48.7086 354.907 47.9526 354.361 47.3926C353.815 46.8186 353.129 46.5316 352.303 46.5316C351.463 46.5316 350.77 46.8186 350.224 47.3926C349.678 47.9526 349.405 48.7086 349.405 49.6606C349.405 50.6126 349.678 51.3756 350.224 51.9496C350.77 52.5096 351.463 52.7896 352.303 52.7896ZM361.425 44.0116H364.701V55.3096H361.425V44.0116ZM363.063 42.4366C362.461 42.4366 361.971 42.2616 361.593 41.9116C361.215 41.5616 361.026 41.1276 361.026 40.6096C361.026 40.0916 361.215 39.6576 361.593 39.3076C361.971 38.9576 362.461 38.7826 363.063 38.7826C363.665 38.7826 364.155 38.9506 364.533 39.2866C364.911 39.6226 365.1 40.0426 365.1 40.5466C365.1 41.0926 364.911 41.5476 364.533 41.9116C364.155 42.2616 363.665 42.4366 363.063 42.4366ZM374.608 43.8436C376.008 43.8436 377.135 44.2636 377.989 45.1036C378.857 45.9436 379.291 47.1896 379.291 48.8416V55.3096H376.015V49.3456C376.015 48.4496 375.819 47.7846 375.427 47.3506C375.035 46.9026 374.468 46.6786 373.726 46.6786C372.9 46.6786 372.242 46.9376 371.752 47.4556C371.262 47.9596 371.017 48.7156 371.017 49.7236V55.3096H367.741V44.0116H370.87V45.3346C371.304 44.8586 371.843 44.4946 372.487 44.2426C373.131 43.9766 373.838 43.8436 374.608 43.8436ZM394.039 44.0116V53.4196C394.039 55.4916 393.5 57.0316 392.422 58.0396C391.344 59.0476 389.769 59.5516 387.697 59.5516C386.605 59.5516 385.569 59.4186 384.589 59.1526C383.609 58.8866 382.797 58.5016 382.153 57.9976L383.455 55.6456C383.931 56.0376 384.533 56.3456 385.261 56.5696C385.989 56.8076 386.717 56.9266 387.445 56.9266C388.579 56.9266 389.412 56.6676 389.944 56.1496C390.49 55.6456 390.763 54.8756 390.763 53.8396V53.3566C389.909 54.2946 388.719 54.7636 387.193 54.7636C386.157 54.7636 385.205 54.5396 384.337 54.0916C383.483 53.6296 382.804 52.9856 382.3 52.1596C381.796 51.3336 381.544 50.3816 381.544 49.3036C381.544 48.2256 381.796 47.2736 382.3 46.4476C382.804 45.6216 383.483 44.9846 384.337 44.5366C385.205 44.0746 386.157 43.8436 387.193 43.8436C388.831 43.8436 390.077 44.3826 390.931 45.4606V44.0116H394.039ZM387.844 52.0756C388.712 52.0756 389.419 51.8236 389.965 51.3196C390.525 50.8016 390.805 50.1296 390.805 49.3036C390.805 48.4776 390.525 47.8126 389.965 47.3086C389.419 46.7906 388.712 46.5316 387.844 46.5316C386.976 46.5316 386.262 46.7906 385.702 47.3086C385.142 47.8126 384.862 48.4776 384.862 49.3036C384.862 50.1296 385.142 50.8016 385.702 51.3196C386.262 51.8236 386.976 52.0756 387.844 52.0756ZM410.322 54.7636C410 55.0016 409.601 55.1836 409.125 55.3096C408.663 55.4216 408.173 55.4776 407.655 55.4776C406.311 55.4776 405.268 55.1346 404.526 54.4486C403.798 53.7626 403.434 52.7546 403.434 51.4246V46.7836H401.691V44.2636H403.434V41.5126H406.71V44.2636H409.524V46.7836H406.71V51.3826C406.71 51.8586 406.829 52.2296 407.067 52.4956C407.319 52.7476 407.669 52.8736 408.117 52.8736C408.635 52.8736 409.076 52.7336 409.44 52.4536L410.322 54.7636ZM417.189 55.4776C415.999 55.4776 414.928 55.2326 413.976 54.7426C413.038 54.2386 412.303 53.5456 411.771 52.6636C411.239 51.7816 410.973 50.7806 410.973 49.6606C410.973 48.5406 411.239 47.5396 411.771 46.6576C412.303 45.7756 413.038 45.0896 413.976 44.5996C414.928 44.0956 415.999 43.8436 417.189 43.8436C418.379 43.8436 419.443 44.0956 420.381 44.5996C421.319 45.0896 422.054 45.7756 422.586 46.6576C423.118 47.5396 423.384 48.5406 423.384 49.6606C423.384 50.7806 423.118 51.7816 422.586 52.6636C422.054 53.5456 421.319 54.2386 420.381 54.7426C419.443 55.2326 418.379 55.4776 417.189 55.4776ZM417.189 52.7896C418.029 52.7896 418.715 52.5096 419.247 51.9496C419.793 51.3756 420.066 50.6126 420.066 49.6606C420.066 48.7086 419.793 47.9526 419.247 47.3926C418.715 46.8186 418.029 46.5316 417.189 46.5316C416.349 46.5316 415.656 46.8186 415.11 47.3926C414.564 47.9526 414.291 48.7086 414.291 49.6606C414.291 50.6126 414.564 51.3756 415.11 51.9496C415.656 52.5096 416.349 52.7896 417.189 52.7896ZM431.752 40.6096H435.154V55.3096H431.752V40.6096ZM443.472 55.5616C442.31 55.5616 441.183 55.4076 440.091 55.0996C439.013 54.7776 438.145 54.3646 437.487 53.8606L438.642 51.2986C439.272 51.7606 440.021 52.1316 440.889 52.4116C441.757 52.6916 442.625 52.8316 443.493 52.8316C444.459 52.8316 445.173 52.6916 445.635 52.4116C446.097 52.1176 446.328 51.7326 446.328 51.2566C446.328 50.9066 446.188 50.6196 445.908 50.3956C445.642 50.1576 445.292 49.9686 444.858 49.8286C444.438 49.6886 443.864 49.5346 443.136 49.3666C442.016 49.1006 441.099 48.8346 440.385 48.5686C439.671 48.3026 439.055 47.8756 438.537 47.2876C438.033 46.6996 437.781 45.9156 437.781 44.9356C437.781 44.0816 438.012 43.3116 438.474 42.6256C438.936 41.9256 439.629 41.3726 440.553 40.9666C441.491 40.5606 442.632 40.3576 443.976 40.3576C444.914 40.3576 445.831 40.4696 446.727 40.6936C447.623 40.9176 448.407 41.2396 449.079 41.6596L448.029 44.2426C446.671 43.4726 445.313 43.0876 443.955 43.0876C443.003 43.0876 442.296 43.2416 441.834 43.5496C441.386 43.8576 441.162 44.2636 441.162 44.7676C441.162 45.2716 441.421 45.6496 441.939 45.9016C442.471 46.1396 443.276 46.3776 444.354 46.6156C445.474 46.8816 446.391 47.1476 447.105 47.4136C447.819 47.6796 448.428 48.0996 448.932 48.6736C449.45 49.2476 449.709 50.0246 449.709 51.0046C449.709 51.8446 449.471 52.6146 448.995 53.3146C448.533 54.0006 447.833 54.5466 446.895 54.9526C445.957 55.3586 444.816 55.5616 443.472 55.5616ZM459.153 55.5616C457.627 55.5616 456.248 55.2326 455.016 54.5746C453.798 53.9166 452.839 53.0136 452.139 51.8656C451.453 50.7036 451.11 49.4016 451.11 47.9596C451.11 46.5176 451.453 45.2226 452.139 44.0746C452.839 42.9126 453.798 42.0026 455.016 41.3446C456.248 40.6866 457.627 40.3576 459.153 40.3576C460.679 40.3576 462.051 40.6866 463.269 41.3446C464.487 42.0026 465.446 42.9126 466.146 44.0746C466.846 45.2226 467.196 46.5176 467.196 47.9596C467.196 49.4016 466.846 50.7036 466.146 51.8656C465.446 53.0136 464.487 53.9166 463.269 54.5746C462.051 55.2326 460.679 55.5616 459.153 55.5616ZM459.153 52.6636C460.021 52.6636 460.805 52.4676 461.505 52.0756C462.205 51.6696 462.751 51.1096 463.143 50.3956C463.549 49.6816 463.752 48.8696 463.752 47.9596C463.752 47.0496 463.549 46.2376 463.143 45.5236C462.751 44.8096 462.205 44.2566 461.505 43.8646C460.805 43.4586 460.021 43.2556 459.153 43.2556C458.285 43.2556 457.501 43.4586 456.801 43.8646C456.101 44.2566 455.548 44.8096 455.142 45.5236C454.75 46.2376 454.554 47.0496 454.554 47.9596C454.554 48.8696 454.75 49.6816 455.142 50.3956C455.548 51.1096 456.101 51.6696 456.801 52.0756C457.501 52.4676 458.285 52.6636 459.153 52.6636ZM470.371 51.4036C470.959 51.4036 471.442 51.5926 471.82 51.9706C472.198 52.3346 472.387 52.8176 472.387 53.4196C472.387 53.6996 472.352 53.9796 472.282 54.2596C472.212 54.5396 472.058 54.9596 471.82 55.5196L470.623 58.5436H468.544L469.468 55.2046C469.118 55.0646 468.838 54.8406 468.628 54.5326C468.432 54.2106 468.334 53.8396 468.334 53.4196C468.334 52.8176 468.523 52.3346 468.901 51.9706C469.293 51.5926 469.783 51.4036 470.371 51.4036ZM490.719 47.7286H493.827V53.6926C493.029 54.2946 492.105 54.7566 491.055 55.0786C490.005 55.4006 488.948 55.5616 487.884 55.5616C486.358 55.5616 484.986 55.2396 483.768 54.5956C482.55 53.9376 481.591 53.0346 480.891 51.8866C480.205 50.7246 479.862 49.4156 479.862 47.9596C479.862 46.5036 480.205 45.2016 480.891 44.0536C481.591 42.8916 482.557 41.9886 483.789 41.3446C485.021 40.6866 486.407 40.3576 487.947 40.3576C489.235 40.3576 490.404 40.5746 491.454 41.0086C492.504 41.4426 493.386 42.0726 494.1 42.8986L491.916 44.9146C490.866 43.8086 489.599 43.2556 488.115 43.2556C487.177 43.2556 486.344 43.4516 485.616 43.8436C484.888 44.2356 484.321 44.7886 483.915 45.5026C483.509 46.2166 483.306 47.0356 483.306 47.9596C483.306 48.8696 483.509 49.6816 483.915 50.3956C484.321 51.1096 484.881 51.6696 485.595 52.0756C486.323 52.4676 487.149 52.6636 488.073 52.6636C489.053 52.6636 489.935 52.4536 490.719 52.0336V47.7286ZM506.668 52.1596H499.843L498.541 55.3096H495.055L501.607 40.6096H504.967L511.54 55.3096H507.97L506.668 52.1596ZM505.597 49.5766L503.266 43.9486L500.935 49.5766H505.597ZM516.467 43.3396V47.2246H523.271V49.9546H516.467V55.3096H513.065V40.6096H524.174V43.3396H516.467ZM529.625 43.3816H524.921V40.6096H537.731V43.3816H533.027V55.3096H529.625V43.3816ZM548.504 52.1596H541.679L540.377 55.3096H536.891L543.443 40.6096H546.803L553.376 55.3096H549.806L548.504 52.1596ZM547.433 49.5766L545.102 43.9486L542.771 49.5766H547.433ZM556.607 51.4036C557.195 51.4036 557.678 51.5926 558.056 51.9706C558.434 52.3346 558.623 52.8176 558.623 53.4196C558.623 53.6996 558.588 53.9796 558.518 54.2596C558.448 54.5396 558.294 54.9596 558.056 55.5196L556.859 58.5436H554.78L555.704 55.2046C555.354 55.0646 555.074 54.8406 554.864 54.5326C554.668 54.2106 554.57 53.8396 554.57 53.4196C554.57 52.8176 554.759 52.3346 555.137 51.9706C555.529 51.5926 556.019 51.4036 556.607 51.4036ZM570.423 43.3396V47.2246H577.227V49.9546H570.423V55.3096H567.021V40.6096H578.13V43.3396H570.423ZM587.409 55.5616C585.883 55.5616 584.504 55.2326 583.272 54.5746C582.054 53.9166 581.095 53.0136 580.395 51.8656C579.709 50.7036 579.366 49.4016 579.366 47.9596C579.366 46.5176 579.709 45.2226 580.395 44.0746C581.095 42.9126 582.054 42.0026 583.272 41.3446C584.504 40.6866 585.883 40.3576 587.409 40.3576C588.935 40.3576 590.307 40.6866 591.525 41.3446C592.743 42.0026 593.702 42.9126 594.402 44.0746C595.102 45.2226 595.452 46.5176 595.452 47.9596C595.452 49.4016 595.102 50.7036 594.402 51.8656C593.702 53.0136 592.743 53.9166 591.525 54.5746C590.307 55.2326 588.935 55.5616 587.409 55.5616ZM587.409 52.6636C588.277 52.6636 589.061 52.4676 589.761 52.0756C590.461 51.6696 591.007 51.1096 591.399 50.3956C591.805 49.6816 592.008 48.8696 592.008 47.9596C592.008 47.0496 591.805 46.2376 591.399 45.5236C591.007 44.8096 590.461 44.2566 589.761 43.8646C589.061 43.4586 588.277 43.2556 587.409 43.2556C586.541 43.2556 585.757 43.4586 585.057 43.8646C584.357 44.2566 583.804 44.8096 583.398 45.5236C583.006 46.2376 582.81 47.0496 582.81 47.9596C582.81 48.8696 583.006 49.6816 583.398 50.3956C583.804 51.1096 584.357 51.6696 585.057 52.0756C585.757 52.4676 586.541 52.6636 587.409 52.6636ZM602.839 55.5616C601.677 55.5616 600.55 55.4076 599.458 55.0996C598.38 54.7776 597.512 54.3646 596.854 53.8606L598.009 51.2986C598.639 51.7606 599.388 52.1316 600.256 52.4116C601.124 52.6916 601.992 52.8316 602.86 52.8316C603.826 52.8316 604.54 52.6916 605.002 52.4116C605.464 52.1176 605.695 51.7326 605.695 51.2566C605.695 50.9066 605.555 50.6196 605.275 50.3956C605.009 50.1576 604.659 49.9686 604.225 49.8286C603.805 49.6886 603.231 49.5346 602.503 49.3666C601.383 49.1006 600.466 48.8346 599.752 48.5686C599.038 48.3026 598.422 47.8756 597.904 47.2876C597.4 46.6996 597.148 45.9156 597.148 44.9356C597.148 44.0816 597.379 43.3116 597.841 42.6256C598.303 41.9256 598.996 41.3726 599.92 40.9666C600.858 40.5606 601.999 40.3576 603.343 40.3576C604.281 40.3576 605.198 40.4696 606.094 40.6936C606.99 40.9176 607.774 41.2396 608.446 41.6596L607.396 44.2426C606.038 43.4726 604.68 43.0876 603.322 43.0876C602.37 43.0876 601.663 43.2416 601.201 43.5496C600.753 43.8576 600.529 44.2636 600.529 44.7676C600.529 45.2716 600.788 45.6496 601.306 45.9016C601.838 46.1396 602.643 46.3776 603.721 46.6156C604.841 46.8816 605.758 47.1476 606.472 47.4136C607.186 47.6796 607.795 48.0996 608.299 48.6736C608.817 49.2476 609.076 50.0246 609.076 51.0046C609.076 51.8446 608.838 52.6146 608.362 53.3146C607.9 54.0006 607.2 54.5466 606.262 54.9526C605.324 55.3586 604.183 55.5616 602.839 55.5616ZM614.802 43.3396V47.2246H621.606V49.9546H614.802V55.3096H611.4V40.6096H622.509V43.3396H614.802ZM633.878 52.1596H627.053L625.751 55.3096H622.265L628.817 40.6096H632.177L638.75 55.3096H635.18L633.878 52.1596ZM632.807 49.5766L630.476 43.9486L628.145 49.5766H632.807ZM641.981 51.4036C642.569 51.4036 643.052 51.5926 643.43 51.9706C643.808 52.3346 643.997 52.8176 643.997 53.4196C643.997 53.6996 643.962 53.9796 643.892 54.2596C643.822 54.5396 643.668 54.9596 643.43 55.5196L642.233 58.5436H640.154L641.078 55.2046C640.728 55.0646 640.448 54.8406 640.238 54.5326C640.042 54.2106 639.944 53.8396 639.944 53.4196C639.944 52.8176 640.133 52.3346 640.511 51.9706C640.903 51.5926 641.393 51.4036 641.981 51.4036ZM156.912 69.8436C158.326 69.8436 159.446 70.2636 160.272 71.1036C161.112 71.9296 161.532 73.1756 161.532 74.8416V81.3096H158.256V75.3456C158.256 74.4496 158.067 73.7846 157.689 73.3506C157.325 72.9026 156.8 72.6786 156.114 72.6786C155.344 72.6786 154.735 72.9306 154.287 73.4346C153.839 73.9246 153.615 74.6596 153.615 75.6396V81.3096H150.339V75.3456C150.339 73.5676 149.625 72.6786 148.197 72.6786C147.441 72.6786 146.839 72.9306 146.391 73.4346C145.943 73.9246 145.719 74.6596 145.719 75.6396V81.3096H142.443V70.0116H145.572V71.3136C145.992 70.8376 146.503 70.4736 147.105 70.2216C147.721 69.9696 148.393 69.8436 149.121 69.8436C149.919 69.8436 150.64 70.0046 151.284 70.3266C151.928 70.6346 152.446 71.0896 152.838 71.6916C153.3 71.1036 153.881 70.6486 154.581 70.3266C155.295 70.0046 156.072 69.8436 156.912 69.8436ZM175.658 75.7026C175.658 75.7446 175.637 76.0386 175.595 76.5846H167.048C167.202 77.2846 167.566 77.8376 168.14 78.2436C168.714 78.6496 169.428 78.8526 170.282 78.8526C170.87 78.8526 171.388 78.7686 171.836 78.6006C172.298 78.4186 172.725 78.1386 173.117 77.7606L174.86 79.6506C173.796 80.8686 172.242 81.4776 170.198 81.4776C168.924 81.4776 167.797 81.2326 166.817 80.7426C165.837 80.2386 165.081 79.5456 164.549 78.6636C164.017 77.7816 163.751 76.7806 163.751 75.6606C163.751 74.5546 164.01 73.5606 164.528 72.6786C165.06 71.7826 165.781 71.0896 166.691 70.5996C167.615 70.0956 168.644 69.8436 169.778 69.8436C170.884 69.8436 171.885 70.0816 172.781 70.5576C173.677 71.0336 174.377 71.7196 174.881 72.6156C175.399 73.4976 175.658 74.5266 175.658 75.7026ZM169.799 72.3216C169.057 72.3216 168.434 72.5316 167.93 72.9516C167.426 73.3716 167.118 73.9456 167.006 74.6736H172.571C172.459 73.9596 172.151 73.3926 171.647 72.9726C171.143 72.5386 170.527 72.3216 169.799 72.3216ZM192.308 69.8436C193.722 69.8436 194.842 70.2636 195.668 71.1036C196.508 71.9296 196.928 73.1756 196.928 74.8416V81.3096H193.652V75.3456C193.652 74.4496 193.463 73.7846 193.085 73.3506C192.721 72.9026 192.196 72.6786 191.51 72.6786C190.74 72.6786 190.131 72.9306 189.683 73.4346C189.235 73.9246 189.011 74.6596 189.011 75.6396V81.3096H185.735V75.3456C185.735 73.5676 185.021 72.6786 183.593 72.6786C182.837 72.6786 182.235 72.9306 181.787 73.4346C181.339 73.9246 181.115 74.6596 181.115 75.6396V81.3096H177.839V70.0116H180.968V71.3136C181.388 70.8376 181.899 70.4736 182.501 70.2216C183.117 69.9696 183.789 69.8436 184.517 69.8436C185.315 69.8436 186.036 70.0046 186.68 70.3266C187.324 70.6346 187.842 71.0896 188.234 71.6916C188.696 71.1036 189.277 70.6486 189.977 70.3266C190.691 70.0046 191.468 69.8436 192.308 69.8436ZM206.542 69.8436C207.592 69.8436 208.544 70.0886 209.398 70.5786C210.266 71.0546 210.945 71.7336 211.435 72.6156C211.925 73.4836 212.17 74.4986 212.17 75.6606C212.17 76.8226 211.925 77.8446 211.435 78.7266C210.945 79.5946 210.266 80.2736 209.398 80.7636C208.544 81.2396 207.592 81.4776 206.542 81.4776C204.988 81.4776 203.805 80.9876 202.993 80.0076V81.3096H199.864V65.7276H203.14V71.2086C203.966 70.2986 205.1 69.8436 206.542 69.8436ZM205.975 78.7896C206.815 78.7896 207.501 78.5096 208.033 77.9496C208.579 77.3756 208.852 76.6126 208.852 75.6606C208.852 74.7086 208.579 73.9526 208.033 73.3926C207.501 72.8186 206.815 72.5316 205.975 72.5316C205.135 72.5316 204.442 72.8186 203.896 73.3926C203.364 73.9526 203.098 74.7086 203.098 75.6606C203.098 76.6126 203.364 77.3756 203.896 77.9496C204.442 78.5096 205.135 78.7896 205.975 78.7896ZM225.43 75.7026C225.43 75.7446 225.409 76.0386 225.367 76.5846H216.82C216.974 77.2846 217.338 77.8376 217.912 78.2436C218.486 78.6496 219.2 78.8526 220.054 78.8526C220.642 78.8526 221.16 78.7686 221.608 78.6006C222.07 78.4186 222.497 78.1386 222.889 77.7606L224.632 79.6506C223.568 80.8686 222.014 81.4776 219.97 81.4776C218.696 81.4776 217.569 81.2326 216.589 80.7426C215.609 80.2386 214.853 79.5456 214.321 78.6636C213.789 77.7816 213.523 76.7806 213.523 75.6606C213.523 74.5546 213.782 73.5606 214.3 72.6786C214.832 71.7826 215.553 71.0896 216.463 70.5996C217.387 70.0956 218.416 69.8436 219.55 69.8436C220.656 69.8436 221.657 70.0816 222.553 70.5576C223.449 71.0336 224.149 71.7196 224.653 72.6156C225.171 73.4976 225.43 74.5266 225.43 75.7026ZM219.571 72.3216C218.829 72.3216 218.206 72.5316 217.702 72.9516C217.198 73.3716 216.89 73.9456 216.778 74.6736H222.343C222.231 73.9596 221.923 73.3926 221.419 72.9726C220.915 72.5386 220.299 72.3216 219.571 72.3216ZM230.74 71.5026C231.132 70.9566 231.657 70.5436 232.315 70.2636C232.987 69.9836 233.757 69.8436 234.625 69.8436V72.8676C234.261 72.8396 234.016 72.8256 233.89 72.8256C232.952 72.8256 232.217 73.0916 231.685 73.6236C231.153 74.1416 230.887 74.9256 230.887 75.9756V81.3096H227.611V70.0116H230.74V71.5026ZM240.415 81.4776C239.477 81.4776 238.56 81.3656 237.664 81.1416C236.768 80.9036 236.054 80.6096 235.522 80.2596L236.614 77.9076C237.118 78.2296 237.727 78.4956 238.441 78.7056C239.155 78.9016 239.855 78.9996 240.541 78.9996C241.927 78.9996 242.62 78.6566 242.62 77.9706C242.62 77.6486 242.431 77.4176 242.053 77.2776C241.675 77.1376 241.094 77.0186 240.31 76.9206C239.386 76.7806 238.623 76.6196 238.021 76.4376C237.419 76.2556 236.894 75.9336 236.446 75.4716C236.012 75.0096 235.795 74.3516 235.795 73.4976C235.795 72.7836 235.998 72.1536 236.404 71.6076C236.824 71.0476 237.426 70.6136 238.21 70.3056C239.008 69.9976 239.946 69.8436 241.024 69.8436C241.822 69.8436 242.613 69.9346 243.397 70.1166C244.195 70.2846 244.853 70.5226 245.371 70.8306L244.279 73.1616C243.285 72.6016 242.2 72.3216 241.024 72.3216C240.324 72.3216 239.799 72.4196 239.449 72.6156C239.099 72.8116 238.924 73.0636 238.924 73.3716C238.924 73.7216 239.113 73.9666 239.491 74.1066C239.869 74.2466 240.471 74.3796 241.297 74.5056C242.221 74.6596 242.977 74.8276 243.565 75.0096C244.153 75.1776 244.664 75.4926 245.098 75.9546C245.532 76.4166 245.749 77.0606 245.749 77.8866C245.749 78.5866 245.539 79.2096 245.119 79.7556C244.699 80.3016 244.083 80.7286 243.271 81.0366C242.473 81.3306 241.521 81.4776 240.415 81.4776ZM254.638 69.8436C256.038 69.8436 257.165 70.2636 258.019 71.1036C258.887 71.9436 259.321 73.1896 259.321 74.8416V81.3096H256.045V75.3456C256.045 74.4496 255.849 73.7846 255.457 73.3506C255.065 72.9026 254.498 72.6786 253.756 72.6786C252.93 72.6786 252.272 72.9376 251.782 73.4556C251.292 73.9596 251.047 74.7156 251.047 75.7236V81.3096H247.771V65.7276H251.047V71.1876C251.481 70.7536 252.006 70.4246 252.622 70.2006C253.238 69.9626 253.91 69.8436 254.638 69.8436ZM262.29 70.0116H265.566V81.3096H262.29V70.0116ZM263.928 68.4366C263.326 68.4366 262.836 68.2616 262.458 67.9116C262.08 67.5616 261.891 67.1276 261.891 66.6096C261.891 66.0916 262.08 65.6576 262.458 65.3076C262.836 64.9576 263.326 64.7826 263.928 64.7826C264.53 64.7826 265.02 64.9506 265.398 65.2866C265.776 65.6226 265.965 66.0426 265.965 66.5466C265.965 67.0926 265.776 67.5476 265.398 67.9116C265.02 68.2616 264.53 68.4366 263.928 68.4366ZM275.285 69.8436C276.335 69.8436 277.287 70.0886 278.141 70.5786C279.009 71.0546 279.688 71.7336 280.178 72.6156C280.668 73.4836 280.913 74.4986 280.913 75.6606C280.913 76.8226 280.668 77.8446 280.178 78.7266C279.688 79.5946 279.009 80.2736 278.141 80.7636C277.287 81.2396 276.335 81.4776 275.285 81.4776C273.843 81.4776 272.709 81.0226 271.883 80.1126V85.3836H268.607V70.0116H271.736V71.3136C272.548 70.3336 273.731 69.8436 275.285 69.8436ZM274.718 78.7896C275.558 78.7896 276.244 78.5096 276.776 77.9496C277.322 77.3756 277.595 76.6126 277.595 75.6606C277.595 74.7086 277.322 73.9526 276.776 73.3926C276.244 72.8186 275.558 72.5316 274.718 72.5316C273.878 72.5316 273.185 72.8186 272.639 73.3926C272.107 73.9526 271.841 74.7086 271.841 75.6606C271.841 76.6126 272.107 77.3756 272.639 77.9496C273.185 78.5096 273.878 78.7896 274.718 78.7896ZM289.053 70.0116H292.329V81.3096H289.053V70.0116ZM290.691 68.4366C290.089 68.4366 289.599 68.2616 289.221 67.9116C288.843 67.5616 288.654 67.1276 288.654 66.6096C288.654 66.0916 288.843 65.6576 289.221 65.3076C289.599 64.9576 290.089 64.7826 290.691 64.7826C291.293 64.7826 291.783 64.9506 292.161 65.2866C292.539 65.6226 292.728 66.0426 292.728 66.5466C292.728 67.0926 292.539 67.5476 292.161 67.9116C291.783 68.2616 291.293 68.4366 290.691 68.4366ZM302.236 69.8436C303.636 69.8436 304.763 70.2636 305.617 71.1036C306.485 71.9436 306.919 73.1896 306.919 74.8416V81.3096H303.643V75.3456C303.643 74.4496 303.447 73.7846 303.055 73.3506C302.663 72.9026 302.096 72.6786 301.354 72.6786C300.528 72.6786 299.87 72.9376 299.38 73.4556C298.89 73.9596 298.645 74.7156 298.645 75.7236V81.3096H295.369V70.0116H298.498V71.3346C298.932 70.8586 299.471 70.4946 300.115 70.2426C300.759 69.9766 301.466 69.8436 302.236 69.8436ZM319.112 69.3816H314.408V66.6096H327.218V69.3816H322.514V81.3096H319.112V69.3816ZM329.049 66.6096H332.451V81.3096H329.049V66.6096ZM342.974 81.5616C341.476 81.5616 340.118 81.2396 338.9 80.5956C337.696 79.9376 336.744 79.0346 336.044 77.8866C335.358 76.7246 335.015 75.4156 335.015 73.9596C335.015 72.5036 335.358 71.2016 336.044 70.0536C336.744 68.8916 337.696 67.9886 338.9 67.3446C340.118 66.6866 341.483 66.3576 342.995 66.3576C344.269 66.3576 345.417 66.5816 346.439 67.0296C347.475 67.4776 348.343 68.1216 349.043 68.9616L346.859 70.9776C345.865 69.8296 344.633 69.2556 343.163 69.2556C342.253 69.2556 341.441 69.4586 340.727 69.8646C340.013 70.2566 339.453 70.8096 339.047 71.5236C338.655 72.2376 338.459 73.0496 338.459 73.9596C338.459 74.8696 338.655 75.6816 339.047 76.3956C339.453 77.1096 340.013 77.6696 340.727 78.0756C341.441 78.4676 342.253 78.6636 343.163 78.6636C344.633 78.6636 345.865 78.0826 346.859 76.9206L349.043 78.9366C348.343 79.7906 347.475 80.4416 346.439 80.8896C345.403 81.3376 344.248 81.5616 342.974 81.5616ZM364.323 81.5616C362.825 81.5616 361.467 81.2396 360.249 80.5956C359.045 79.9376 358.093 79.0346 357.393 77.8866C356.707 76.7246 356.364 75.4156 356.364 73.9596C356.364 72.5036 356.707 71.2016 357.393 70.0536C358.093 68.8916 359.045 67.9886 360.249 67.3446C361.467 66.6866 362.832 66.3576 364.344 66.3576C365.618 66.3576 366.766 66.5816 367.788 67.0296C368.824 67.4776 369.692 68.1216 370.392 68.9616L368.208 70.9776C367.214 69.8296 365.982 69.2556 364.512 69.2556C363.602 69.2556 362.79 69.4586 362.076 69.8646C361.362 70.2566 360.802 70.8096 360.396 71.5236C360.004 72.2376 359.808 73.0496 359.808 73.9596C359.808 74.8696 360.004 75.6816 360.396 76.3956C360.802 77.1096 361.362 77.6696 362.076 78.0756C362.79 78.4676 363.602 78.6636 364.512 78.6636C365.982 78.6636 367.214 78.0826 368.208 76.9206L370.392 78.9366C369.692 79.7906 368.824 80.4416 367.788 80.8896C366.752 81.3376 365.597 81.5616 364.323 81.5616ZM377.445 81.4776C376.255 81.4776 375.184 81.2326 374.232 80.7426C373.294 80.2386 372.559 79.5456 372.027 78.6636C371.495 77.7816 371.229 76.7806 371.229 75.6606C371.229 74.5406 371.495 73.5396 372.027 72.6576C372.559 71.7756 373.294 71.0896 374.232 70.5996C375.184 70.0956 376.255 69.8436 377.445 69.8436C378.635 69.8436 379.699 70.0956 380.637 70.5996C381.575 71.0896 382.31 71.7756 382.842 72.6576C383.374 73.5396 383.64 74.5406 383.64 75.6606C383.64 76.7806 383.374 77.7816 382.842 78.6636C382.31 79.5456 381.575 80.2386 380.637 80.7426C379.699 81.2326 378.635 81.4776 377.445 81.4776ZM377.445 78.7896C378.285 78.7896 378.971 78.5096 379.503 77.9496C380.049 77.3756 380.322 76.6126 380.322 75.6606C380.322 74.7086 380.049 73.9526 379.503 73.3926C378.971 72.8186 378.285 72.5316 377.445 72.5316C376.605 72.5316 375.912 72.8186 375.366 73.3926C374.82 73.9526 374.547 74.7086 374.547 75.6606C374.547 76.6126 374.82 77.3756 375.366 77.9496C375.912 78.5096 376.605 78.7896 377.445 78.7896ZM397.211 70.0116V81.3096H394.103V79.9656C393.669 80.4556 393.151 80.8336 392.549 81.0996C391.947 81.3516 391.296 81.4776 390.596 81.4776C389.112 81.4776 387.936 81.0506 387.068 80.1966C386.2 79.3426 385.766 78.0756 385.766 76.3956V70.0116H389.042V75.9126C389.042 77.7326 389.805 78.6426 391.331 78.6426C392.115 78.6426 392.745 78.3906 393.221 77.8866C393.697 77.3686 393.935 76.6056 393.935 75.5976V70.0116H397.211ZM407.113 69.8436C408.513 69.8436 409.64 70.2636 410.494 71.1036C411.362 71.9436 411.796 73.1896 411.796 74.8416V81.3096H408.52V75.3456C408.52 74.4496 408.324 73.7846 407.932 73.3506C407.54 72.9026 406.973 72.6786 406.231 72.6786C405.405 72.6786 404.747 72.9376 404.257 73.4556C403.767 73.9596 403.522 74.7156 403.522 75.7236V81.3096H400.246V70.0116H403.375V71.3346C403.809 70.8586 404.348 70.4946 404.992 70.2426C405.636 69.9766 406.343 69.8436 407.113 69.8436ZM420.349 81.4776C419.145 81.4776 418.06 81.2326 417.094 80.7426C416.142 80.2386 415.393 79.5456 414.847 78.6636C414.315 77.7816 414.049 76.7806 414.049 75.6606C414.049 74.5406 414.315 73.5396 414.847 72.6576C415.393 71.7756 416.142 71.0896 417.094 70.5996C418.06 70.0956 419.145 69.8436 420.349 69.8436C421.539 69.8436 422.575 70.0956 423.457 70.5996C424.353 71.0896 425.004 71.7966 425.41 72.7206L422.869 74.0856C422.281 73.0496 421.434 72.5316 420.328 72.5316C419.474 72.5316 418.767 72.8116 418.207 73.3716C417.647 73.9316 417.367 74.6946 417.367 75.6606C417.367 76.6266 417.647 77.3896 418.207 77.9496C418.767 78.5096 419.474 78.7896 420.328 78.7896C421.448 78.7896 422.295 78.2716 422.869 77.2356L425.41 78.6216C425.004 79.5176 424.353 80.2176 423.457 80.7216C422.575 81.2256 421.539 81.4776 420.349 81.4776ZM427.296 70.0116H430.572V81.3096H427.296V70.0116ZM428.934 68.4366C428.332 68.4366 427.842 68.2616 427.464 67.9116C427.086 67.5616 426.897 67.1276 426.897 66.6096C426.897 66.0916 427.086 65.6576 427.464 65.3076C427.842 64.9576 428.332 64.7826 428.934 64.7826C429.536 64.7826 430.026 64.9506 430.404 65.2866C430.782 65.6226 430.971 66.0426 430.971 66.5466C430.971 67.0926 430.782 67.5476 430.404 67.9116C430.026 68.2616 429.536 68.4366 428.934 68.4366ZM433.612 65.7276H436.888V81.3096H433.612V65.7276Z" fill="white"/>
</svg>
