<svg width="645" height="135" viewBox="0 0 645 135" fill="none" xmlns="http://www.w3.org/2000/svg">
<rect x="30.2682" y="17.1543" width="614.732" height="101.436" fill="#3E4671"/>
<path d="M129.162 67.5C129.162 103.729 100.642 133 65.581 133C30.5202 133 2 103.729 2 67.5C2 31.2706 30.5202 2 65.581 2C100.642 2 129.162 31.2706 129.162 67.5Z" fill="white" stroke="#3E4671" stroke-width="4"/>
<path d="M96.3856 60.2185C94.9157 53.0605 91.0176 46.5455 85.4078 41.8741C79.6711 37.1236 72.542 34.5373 65.195 34.541C56.5344 34.541 48.4453 37.9942 42.3976 44.265C36.5533 50.3327 33.3504 58.344 33.3759 66.8173C33.3761 73.0297 35.1384 79.1053 38.4441 84.2907L39.0625 85.1809L35.6506 100.456L51.9709 96.254C51.9709 96.254 52.2979 96.3673 52.5396 96.4629C52.7813 96.5586 54.8611 97.384 57.0675 98.0225C58.9014 98.5522 62.7171 99.3467 65.7068 99.3467C74.1868 99.3467 82.1053 95.948 88.0023 89.7743C93.8466 83.6492 97.0652 75.5055 97.0652 66.835C97.0656 64.6108 96.8379 62.3929 96.3856 60.2185ZM51.5729 72.2068C50.6731 72.2068 49.7936 71.9306 49.0455 71.4133C48.2973 70.896 47.7142 70.1606 47.3699 69.3003C47.0256 68.44 46.9355 67.4933 47.1111 66.58C47.2866 65.6667 47.7199 64.8278 48.3561 64.1693C48.9923 63.5109 49.8029 63.0625 50.6854 62.8808C51.5678 62.6991 52.4825 62.7924 53.3138 63.1487C54.1451 63.5051 54.8555 64.1085 55.3554 64.8828C55.8553 65.6571 56.1221 66.5674 56.1221 67.4986C56.1221 68.7472 55.6428 69.9448 54.7897 70.8278C53.9365 71.7107 52.7794 72.2068 51.5729 72.2068ZM65.2206 72.2068C64.3208 72.2068 63.4413 71.9306 62.6931 71.4133C61.945 70.896 61.3619 70.1606 61.0176 69.3003C60.6733 68.44 60.5832 67.4933 60.7587 66.58C60.9343 65.6667 61.3676 64.8278 62.0038 64.1693C62.64 63.5109 63.4506 63.0625 64.3331 62.8808C65.2155 62.6991 66.1302 62.7924 66.9615 63.1487C67.7927 63.5051 68.5032 64.1085 69.0031 64.8828C69.503 65.6571 69.7698 66.5674 69.7698 67.4986C69.7698 68.7472 69.2905 69.9448 68.4374 70.8278C67.5842 71.7107 66.4271 72.2068 65.2206 72.2068ZM78.8683 72.2068C77.9685 72.2068 77.089 71.9306 76.3408 71.4133C75.5927 70.896 75.0096 70.1606 74.6653 69.3003C74.321 68.44 74.2309 67.4933 74.4064 66.58C74.582 65.6667 75.0152 64.8278 75.6515 64.1693C76.2877 63.5109 77.0983 63.0625 77.9808 62.8808C78.8632 62.6991 79.7779 62.7924 80.6092 63.1487C81.4404 63.5051 82.1509 64.1085 82.6508 64.8828C83.1507 65.6571 83.4175 66.5674 83.4175 67.4986C83.4175 68.7472 82.9382 69.9448 82.0851 70.8278C81.2319 71.7107 80.0748 72.2068 78.8683 72.2068Z" fill="#3E4671"/>
<path d="M145.069 74.9512C143.543 74.9512 142.164 74.6222 140.932 73.9642C139.714 73.3062 138.755 72.4032 138.055 71.2552C137.369 70.0932 137.026 68.7912 137.026 67.3492C137.026 65.9072 137.369 64.6122 138.055 63.4642C138.755 62.3022 139.714 61.3922 140.932 60.7342C142.164 60.0762 143.543 59.7472 145.069 59.7472C146.595 59.7472 147.967 60.0762 149.185 60.7342C150.403 61.3922 151.362 62.3022 152.062 63.4642C152.762 64.6122 153.112 65.9072 153.112 67.3492C153.112 68.7912 152.762 70.0932 152.062 71.2552C151.362 72.4032 150.403 73.3062 149.185 73.9642C147.967 74.6222 146.595 74.9512 145.069 74.9512ZM145.069 72.0532C145.937 72.0532 146.721 71.8572 147.421 71.4652C148.121 71.0592 148.667 70.4992 149.059 69.7852C149.465 69.0712 149.668 68.2592 149.668 67.3492C149.668 66.4392 149.465 65.6272 149.059 64.9132C148.667 64.1992 148.121 63.6462 147.421 63.2542C146.721 62.8482 145.937 62.6452 145.069 62.6452C144.201 62.6452 143.417 62.8482 142.717 63.2542C142.017 63.6462 141.464 64.1992 141.058 64.9132C140.666 65.6272 140.47 66.4392 140.47 67.3492C140.47 68.2592 140.666 69.0712 141.058 69.7852C141.464 70.4992 142.017 71.0592 142.717 71.4652C143.417 71.8572 144.201 72.0532 145.069 72.0532ZM162.305 63.2332C163.705 63.2332 164.832 63.6532 165.686 64.4932C166.554 65.3332 166.988 66.5792 166.988 68.2312V74.6992H163.712V68.7352C163.712 67.8392 163.516 67.1742 163.124 66.7402C162.732 66.2922 162.165 66.0682 161.423 66.0682C160.597 66.0682 159.939 66.3272 159.449 66.8452C158.959 67.3492 158.714 68.1052 158.714 69.1132V74.6992H155.438V63.4012H158.567V64.7242C159.001 64.2482 159.54 63.8842 160.184 63.6322C160.828 63.3662 161.535 63.2332 162.305 63.2332ZM169.537 67.4752H175.48V70.1002H169.537V67.4752ZM178.058 59.1172H181.334V74.6992H178.058V59.1172ZM184.374 63.4012H187.65V74.6992H184.374V63.4012ZM186.012 61.8262C185.41 61.8262 184.92 61.6512 184.542 61.3012C184.164 60.9512 183.975 60.5172 183.975 59.9992C183.975 59.4812 184.164 59.0472 184.542 58.6972C184.92 58.3472 185.41 58.1722 186.012 58.1722C186.614 58.1722 187.104 58.3402 187.482 58.6762C187.86 59.0122 188.049 59.4322 188.049 59.9362C188.049 60.4822 187.86 60.9372 187.482 61.3012C187.104 61.6512 186.614 61.8262 186.012 61.8262ZM197.557 63.2332C198.957 63.2332 200.084 63.6532 200.938 64.4932C201.806 65.3332 202.24 66.5792 202.24 68.2312V74.6992H198.964V68.7352C198.964 67.8392 198.768 67.1742 198.376 66.7402C197.984 66.2922 197.417 66.0682 196.675 66.0682C195.849 66.0682 195.191 66.3272 194.701 66.8452C194.211 67.3492 193.966 68.1052 193.966 69.1132V74.6992H190.69V63.4012H193.819V64.7242C194.253 64.2482 194.792 63.8842 195.436 63.6322C196.08 63.3662 196.787 63.2332 197.557 63.2332ZM216.4 69.0922C216.4 69.1342 216.379 69.4282 216.337 69.9742H207.79C207.944 70.6742 208.308 71.2272 208.882 71.6332C209.456 72.0392 210.17 72.2422 211.024 72.2422C211.612 72.2422 212.13 72.1582 212.578 71.9902C213.04 71.8082 213.467 71.5282 213.859 71.1502L215.602 73.0402C214.538 74.2582 212.984 74.8672 210.94 74.8672C209.666 74.8672 208.539 74.6222 207.559 74.1322C206.579 73.6282 205.823 72.9352 205.291 72.0532C204.759 71.1712 204.493 70.1702 204.493 69.0502C204.493 67.9442 204.752 66.9502 205.27 66.0682C205.802 65.1722 206.523 64.4792 207.433 63.9892C208.357 63.4852 209.386 63.2332 210.52 63.2332C211.626 63.2332 212.627 63.4712 213.523 63.9472C214.419 64.4232 215.119 65.1092 215.623 66.0052C216.141 66.8872 216.4 67.9162 216.4 69.0922ZM210.541 65.7112C209.799 65.7112 209.176 65.9212 208.672 66.3412C208.168 66.7612 207.86 67.3352 207.748 68.0632H213.313C213.201 67.3492 212.893 66.7822 212.389 66.3622C211.885 65.9282 211.269 65.7112 210.541 65.7112ZM224.57 63.4012H227.846V74.6992H224.57V63.4012ZM226.208 61.8262C225.606 61.8262 225.116 61.6512 224.738 61.3012C224.36 60.9512 224.171 60.5172 224.171 59.9992C224.171 59.4812 224.36 59.0472 224.738 58.6972C225.116 58.3472 225.606 58.1722 226.208 58.1722C226.81 58.1722 227.3 58.3402 227.678 58.6762C228.056 59.0122 228.245 59.4322 228.245 59.9362C228.245 60.4822 228.056 60.9372 227.678 61.3012C227.3 61.6512 226.81 61.8262 226.208 61.8262ZM230.99 63.4012H234.245V67.8112H239.159V63.4012H242.435V74.6992H239.159V70.4782H234.245V74.6992H230.99V63.4012ZM261.174 69.0082C261.174 70.7582 260.586 72.1442 259.41 73.1662C258.248 74.1742 256.582 74.7552 254.412 74.9092V78.7732H251.409V74.9092C249.239 74.7552 247.566 74.1812 246.39 73.1872C245.228 72.1792 244.647 70.7862 244.647 69.0082C244.647 67.2582 245.221 65.9002 246.369 64.9342C247.531 63.9682 249.211 63.4082 251.409 63.2542V59.1172H254.412V63.2542C256.582 63.4082 258.248 63.9752 259.41 64.9552C260.586 65.9352 261.174 67.2862 261.174 69.0082ZM247.818 69.0082C247.818 70.0162 248.105 70.7932 248.679 71.3392C249.253 71.8852 250.163 72.2282 251.409 72.3682V65.7952C250.163 65.9212 249.253 66.2502 248.679 66.7822C248.105 67.3002 247.818 68.0422 247.818 69.0082ZM254.412 72.3682C255.658 72.2282 256.568 71.8852 257.142 71.3392C257.73 70.7932 258.024 70.0162 258.024 69.0082C258.024 68.0422 257.73 67.3002 257.142 66.7822C256.568 66.2502 255.658 65.9212 254.412 65.7952V72.3682ZM268.684 74.8672C267.494 74.8672 266.423 74.6222 265.471 74.1322C264.533 73.6282 263.798 72.9352 263.266 72.0532C262.734 71.1712 262.468 70.1702 262.468 69.0502C262.468 67.9302 262.734 66.9292 263.266 66.0472C263.798 65.1652 264.533 64.4792 265.471 63.9892C266.423 63.4852 267.494 63.2332 268.684 63.2332C269.874 63.2332 270.938 63.4852 271.876 63.9892C272.814 64.4792 273.549 65.1652 274.081 66.0472C274.613 66.9292 274.879 67.9302 274.879 69.0502C274.879 70.1702 274.613 71.1712 274.081 72.0532C273.549 72.9352 272.814 73.6282 271.876 74.1322C270.938 74.6222 269.874 74.8672 268.684 74.8672ZM268.684 72.1792C269.524 72.1792 270.21 71.8992 270.742 71.3392C271.288 70.7652 271.561 70.0022 271.561 69.0502C271.561 68.0982 271.288 67.3422 270.742 66.7822C270.21 66.2082 269.524 65.9212 268.684 65.9212C267.844 65.9212 267.151 66.2082 266.605 66.7822C266.059 67.3422 265.786 68.0982 265.786 69.0502C265.786 70.0022 266.059 70.7652 266.605 71.3392C267.151 71.8992 267.844 72.1792 268.684 72.1792ZM283.789 63.2332C284.839 63.2332 285.791 63.4782 286.645 63.9682C287.513 64.4442 288.192 65.1232 288.682 66.0052C289.172 66.8732 289.417 67.8882 289.417 69.0502C289.417 70.2122 289.172 71.2342 288.682 72.1162C288.192 72.9842 287.513 73.6632 286.645 74.1532C285.791 74.6292 284.839 74.8672 283.789 74.8672C282.347 74.8672 281.213 74.4122 280.387 73.5022V78.7732H277.111V63.4012H280.24V64.7032C281.052 63.7232 282.235 63.2332 283.789 63.2332ZM283.222 72.1792C284.062 72.1792 284.748 71.8992 285.28 71.3392C285.826 70.7652 286.099 70.0022 286.099 69.0502C286.099 68.0982 285.826 67.3422 285.28 66.7822C284.748 66.2082 284.062 65.9212 283.222 65.9212C282.382 65.9212 281.689 66.2082 281.143 66.7822C280.611 67.3422 280.345 68.0982 280.345 69.0502C280.345 70.0022 280.611 70.7652 281.143 71.3392C281.689 71.8992 282.382 72.1792 283.222 72.1792ZM302.738 74.6992V67.9372L299.357 73.6072H297.971L294.674 67.9162V74.6992H291.713V63.4012H295.136L298.748 69.9322L302.591 63.4012H305.657L305.699 74.6992H302.738ZM320.156 63.4012L315.053 75.3922C314.535 76.6942 313.891 77.6112 313.121 78.1432C312.365 78.6752 311.448 78.9412 310.37 78.9412C309.782 78.9412 309.201 78.8502 308.627 78.6682C308.053 78.4862 307.584 78.2342 307.22 77.9122L308.417 75.5812C308.669 75.8052 308.956 75.9802 309.278 76.1062C309.614 76.2322 309.943 76.2952 310.265 76.2952C310.713 76.2952 311.077 76.1832 311.357 75.9592C311.637 75.7492 311.889 75.3922 312.113 74.8882L312.155 74.7832L307.262 63.4012H310.643L313.814 71.0662L317.006 63.4012H320.156ZM330.368 68.7982C331.698 69.2462 332.363 70.1422 332.363 71.4862C332.363 72.5082 331.978 73.2992 331.208 73.8592C330.438 74.4192 329.29 74.6992 327.764 74.6992H321.737V63.4012H327.512C328.926 63.4012 330.032 63.6602 330.83 64.1782C331.628 64.6822 332.027 65.3962 332.027 66.3202C332.027 66.8802 331.88 67.3772 331.586 67.8112C331.306 68.2312 330.9 68.5602 330.368 68.7982ZM324.74 68.0422H327.218C328.366 68.0422 328.94 67.6362 328.94 66.8242C328.94 66.0262 328.366 65.6272 327.218 65.6272H324.74V68.0422ZM327.491 72.4732C328.695 72.4732 329.297 72.0602 329.297 71.2342C329.297 70.8002 329.157 70.4852 328.877 70.2892C328.597 70.0792 328.156 69.9742 327.554 69.9742H324.74V72.4732H327.491ZM339.189 63.2332C340.939 63.2332 342.283 63.6532 343.221 64.4932C344.159 65.3192 344.628 66.5722 344.628 68.2522V74.6992H341.562V73.2922C340.946 74.3422 339.798 74.8672 338.118 74.8672C337.25 74.8672 336.494 74.7202 335.85 74.4262C335.22 74.1322 334.737 73.7262 334.401 73.2082C334.065 72.6902 333.897 72.1022 333.897 71.4442C333.897 70.3942 334.289 69.5682 335.073 68.9662C335.871 68.3642 337.096 68.0632 338.748 68.0632H341.352C341.352 67.3492 341.135 66.8032 340.701 66.4252C340.267 66.0332 339.616 65.8372 338.748 65.8372C338.146 65.8372 337.551 65.9352 336.963 66.1312C336.389 66.3132 335.899 66.5652 335.493 66.8872L334.317 64.5982C334.933 64.1642 335.668 63.8282 336.522 63.5902C337.39 63.3522 338.279 63.2332 339.189 63.2332ZM338.937 72.6622C339.497 72.6622 339.994 72.5362 340.428 72.2842C340.862 72.0182 341.17 71.6332 341.352 71.1292V69.9742H339.105C337.761 69.9742 337.089 70.4152 337.089 71.2972C337.089 71.7172 337.25 72.0532 337.572 72.3052C337.908 72.5432 338.363 72.6622 338.937 72.6622ZM347.474 63.4012H350.729V67.8112H355.643V63.4012H358.919V74.6992H355.643V70.4782H350.729V74.6992H347.474V63.4012ZM362.055 63.4012H365.31V67.8112H370.224V63.4012H373.5V74.6992H370.224V70.4782H365.31V74.6992H362.055V63.4012ZM386.674 63.4012V74.6992H383.755V71.4652H381.34L379.198 74.6992H375.712L378.295 71.0032C377.511 70.6952 376.909 70.2542 376.489 69.6802C376.083 69.0922 375.88 68.3852 375.88 67.5592C375.88 66.2292 376.356 65.2072 377.308 64.4932C378.274 63.7652 379.597 63.4012 381.277 63.4012H386.674ZM381.34 66.0682C380.64 66.0682 380.108 66.1942 379.744 66.4462C379.394 66.6982 379.219 67.1042 379.219 67.6642C379.219 68.2242 379.387 68.6372 379.723 68.9032C380.073 69.1552 380.598 69.2812 381.298 69.2812H383.755V66.0682H381.34ZM400.747 70.4152H399.046V74.6992H395.77V63.4012H399.046V67.7902H400.81L403.876 63.4012H407.362L403.414 68.8192L407.635 74.6992H403.771L400.747 70.4152ZM420.08 63.4012V74.6992H416.804V66.0892H413.234L413.129 68.0842C413.073 69.5682 412.933 70.8002 412.709 71.7802C412.485 72.7602 412.121 73.5302 411.617 74.0902C411.113 74.6502 410.413 74.9302 409.517 74.9302C409.041 74.9302 408.474 74.8462 407.816 74.6782L407.984 71.9902C408.208 72.0182 408.369 72.0322 408.467 72.0322C408.957 72.0322 409.321 71.8572 409.559 71.5072C409.811 71.1432 409.979 70.6882 410.063 70.1422C410.147 69.5822 410.21 68.8472 410.252 67.9372L410.42 63.4012H420.08ZM423.209 63.4012H426.485V74.6992H423.209V63.4012ZM424.847 61.8262C424.245 61.8262 423.755 61.6512 423.377 61.3012C422.999 60.9512 422.81 60.5172 422.81 59.9992C422.81 59.4812 422.999 59.0472 423.377 58.6972C423.755 58.3472 424.245 58.1722 424.847 58.1722C425.449 58.1722 425.939 58.3402 426.317 58.6762C426.695 59.0122 426.884 59.4322 426.884 59.9362C426.884 60.4822 426.695 60.9372 426.317 61.3012C425.939 61.6512 425.449 61.8262 424.847 61.8262ZM435.067 74.9092C433.849 74.9092 432.757 74.6642 431.791 74.1742C430.839 73.6702 430.09 72.9702 429.544 72.0742C428.998 71.1782 428.725 70.1702 428.725 69.0502C428.725 67.9302 428.998 66.9222 429.544 66.0262C430.09 65.1302 430.839 64.4372 431.791 63.9472C432.757 63.4432 433.849 63.1912 435.067 63.1912C436.145 63.1912 437.118 63.3732 437.986 63.7372C438.868 64.0872 439.596 64.5982 440.17 65.2702L438.301 67.0342C437.447 66.1522 436.411 65.7112 435.193 65.7112C434.381 65.7112 433.681 65.9142 433.093 66.3202C432.505 66.7262 432.106 67.2792 431.896 67.9792H436.642V70.2262H431.938C432.162 70.8982 432.561 71.4302 433.135 71.8222C433.709 72.2142 434.395 72.4102 435.193 72.4102C436.397 72.4102 437.433 71.9622 438.301 71.0662L440.17 72.8092C439.596 73.4952 438.868 74.0202 437.986 74.3842C437.118 74.7342 436.145 74.9092 435.067 74.9092ZM442.056 63.4012H445.311V67.8112H450.225V63.4012H453.501V74.6992H450.225V70.4782H445.311V74.6992H442.056V63.4012ZM466.129 66.0892H462.307V74.6992H459.052V66.0892H455.23V63.4012H466.129V66.0892ZM472.265 63.2332C474.015 63.2332 475.359 63.6532 476.297 64.4932C477.235 65.3192 477.704 66.5722 477.704 68.2522V74.6992H474.638V73.2922C474.022 74.3422 472.874 74.8672 471.194 74.8672C470.326 74.8672 469.57 74.7202 468.926 74.4262C468.296 74.1322 467.813 73.7262 467.477 73.2082C467.141 72.6902 466.973 72.1022 466.973 71.4442C466.973 70.3942 467.365 69.5682 468.149 68.9662C468.947 68.3642 470.172 68.0632 471.824 68.0632H474.428C474.428 67.3492 474.211 66.8032 473.777 66.4252C473.343 66.0332 472.692 65.8372 471.824 65.8372C471.222 65.8372 470.627 65.9352 470.039 66.1312C469.465 66.3132 468.975 66.5652 468.569 66.8872L467.393 64.5982C468.009 64.1642 468.744 63.8282 469.598 63.5902C470.466 63.3522 471.355 63.2332 472.265 63.2332ZM472.013 72.6622C472.573 72.6622 473.07 72.5362 473.504 72.2842C473.938 72.0182 474.246 71.6332 474.428 71.1292V69.9742H472.181C470.837 69.9742 470.165 70.4152 470.165 71.2972C470.165 71.7172 470.326 72.0532 470.648 72.3052C470.984 72.5432 471.439 72.6622 472.013 72.6622Z" fill="white"/>
</svg>
