<svg width="542" height="114" viewBox="0 0 542 114" fill="none" xmlns="http://www.w3.org/2000/svg">
<rect x="26.0402" y="14.415" width="515.96" height="85.2381" fill="#3E4671"/>
<path d="M111.958 56.7209C111.958 86.9339 87.3513 111.442 56.9788 111.442C26.6063 111.442 2 86.9339 2 56.7209C2 26.5079 26.6063 2 56.9788 2C87.3513 2 111.958 26.5079 111.958 56.7209Z" fill="white" stroke="#3E4671" stroke-width="4"/>
<g clip-path="url(#clip0_207:57)">
<path d="M25.0456 56.7202C25.0456 48.3259 28.377 40.2754 34.3069 34.3397C40.2368 28.404 48.2795 25.0693 56.6657 25.0693C65.0519 25.0693 73.0946 28.404 79.0245 34.3397C84.9544 40.2754 88.2858 48.3259 88.2858 56.7202C88.2858 65.1146 84.9544 73.1651 79.0245 79.1008C73.0946 85.0365 65.0519 88.3711 56.6657 88.3711C48.2795 88.3711 40.2368 85.0365 34.3069 79.1008C28.377 73.1651 25.0456 65.1146 25.0456 56.7202ZM54.6894 29.3303C52.0412 30.1374 49.4128 32.5746 47.231 36.6694C46.5122 38.0308 45.894 39.443 45.3813 40.8948H54.6894V29.3303ZM41.2114 40.8948C41.8701 38.7932 42.7168 36.7554 43.741 34.8059C44.4244 33.5124 45.2136 32.2778 46.1006 31.1147C41.2035 33.1475 36.9901 36.5413 33.9585 40.8948H41.2114ZM38.911 54.7421C39.0296 51.2723 39.4565 47.945 40.1442 44.8512H31.6621C30.1883 47.9571 29.3088 51.3119 29.0693 54.7421H38.911ZM44.2034 44.8512C43.426 48.0946 42.9784 51.4084 42.8675 54.7421H54.6894V44.8512H44.2034ZM58.6419 44.8512V54.7421H70.46C70.3504 51.4086 69.9042 48.0947 69.128 44.8512H58.6419ZM42.8714 58.6984C42.9811 62.0319 43.4274 65.3458 44.2034 68.5893H54.6894V58.6984H42.8714ZM58.6419 58.6984V68.5893H69.128C69.8671 65.5627 70.3374 62.2275 70.4639 58.6984H58.6419ZM45.3813 72.5457C45.9267 74.0728 46.5473 75.4892 47.231 76.7711C49.4128 80.8659 52.0452 83.2991 54.6894 84.1101V72.5457H45.3813ZM46.1006 82.3258C45.2136 81.1627 44.4243 79.9281 43.741 78.6345C42.7168 76.6851 41.8702 74.6472 41.2114 72.5457H33.9585C36.9899 76.8993 41.2034 80.2931 46.1006 82.3258ZM40.1442 68.5893C39.4294 65.3375 39.0166 62.0264 38.911 58.6984H29.0693C29.3143 62.2196 30.2194 65.5548 31.6621 68.5893H40.1442ZM67.2308 82.3258C72.128 80.2931 76.3414 76.8993 79.3729 72.5457H72.12C71.4612 74.6472 70.6146 76.6851 69.5904 78.6345C68.9072 79.9282 68.1179 81.1628 67.2308 82.3258ZM58.6419 72.5457V84.1101C61.2901 83.303 63.9185 80.8659 66.1003 76.7711C66.7841 75.4892 67.4047 74.0728 67.9501 72.5457H58.6419ZM73.1872 68.5893H81.6693C83.1119 65.5548 84.0171 62.2196 84.2621 58.6984H74.4204C74.3148 62.0264 73.902 65.3375 73.1872 68.5893ZM84.2621 54.7421C84.0225 51.3119 83.143 47.9571 81.6693 44.8512H73.1872C73.8749 47.945 74.3018 51.2723 74.4204 54.7421H84.2621ZM69.5904 34.8059C70.5667 36.6417 71.4165 38.6832 72.12 40.8948H79.3729C76.3414 36.5411 72.128 33.1474 67.2308 31.1147C68.0924 32.2383 68.8829 33.4806 69.5904 34.8059ZM67.9501 40.8948C67.4375 39.443 66.8192 38.0307 66.1003 36.6694C63.9185 32.5746 61.2901 30.1414 58.6419 29.3303V40.8948H67.9501Z" fill="#3E4671"/>
</g>
<path d="M126.031 66.4878C124.676 66.4878 123.447 66.1964 122.345 65.6138C121.256 65.0184 120.395 64.2014 119.761 63.1628C119.141 62.1114 118.83 60.9271 118.83 59.6098C118.83 58.2924 119.141 57.1144 119.761 56.0758C120.395 55.0244 121.256 54.2074 122.345 53.6248C123.447 53.0294 124.682 52.7318 126.05 52.7318C127.203 52.7318 128.242 52.9344 129.166 53.3398C130.104 53.7451 130.889 54.3278 131.522 55.0878L129.546 56.9118C128.647 55.8731 127.532 55.3538 126.202 55.3538C125.379 55.3538 124.644 55.5374 123.998 55.9048C123.352 56.2594 122.846 56.7598 122.478 57.4058C122.124 58.0518 121.946 58.7864 121.946 59.6098C121.946 60.4331 122.124 61.1678 122.478 61.8138C122.846 62.4598 123.352 62.9664 123.998 63.3338C124.644 63.6884 125.379 63.8658 126.202 63.8658C127.532 63.8658 128.647 63.3401 129.546 62.2888L131.522 64.1128C130.889 64.8854 130.104 65.4744 129.166 65.8798C128.229 66.2851 127.184 66.4878 126.031 66.4878ZM142.885 61.1868C142.885 61.2248 142.866 61.4908 142.828 61.9848H135.095C135.234 62.6181 135.564 63.1184 136.083 63.4858C136.602 63.8531 137.248 64.0368 138.021 64.0368C138.553 64.0368 139.022 63.9608 139.427 63.8088C139.845 63.6441 140.231 63.3908 140.586 63.0488L142.163 64.7588C141.2 65.8608 139.794 66.4118 137.945 66.4118C136.792 66.4118 135.773 66.1901 134.886 65.7468C133.999 65.2908 133.315 64.6638 132.834 63.8658C132.353 63.0678 132.112 62.1621 132.112 61.1488C132.112 60.1481 132.346 59.2488 132.815 58.4508C133.296 57.6401 133.949 57.0131 134.772 56.5698C135.608 56.1138 136.539 55.8858 137.565 55.8858C138.566 55.8858 139.471 56.1011 140.282 56.5318C141.093 56.9624 141.726 57.5831 142.182 58.3938C142.651 59.1918 142.885 60.1228 142.885 61.1868ZM137.584 58.1278C136.913 58.1278 136.349 58.3178 135.893 58.6978C135.437 59.0778 135.158 59.5971 135.057 60.2558H140.092C139.991 59.6098 139.712 59.0968 139.256 58.7168C138.8 58.3241 138.243 58.1278 137.584 58.1278ZM153.392 58.4698H149.934V66.2598H146.989V58.4698H143.531V56.0378H153.392V58.4698ZM160.501 59.3058C161.831 59.3184 162.851 59.6224 163.56 60.2178C164.27 60.8004 164.624 61.6301 164.624 62.7068C164.624 63.8341 164.225 64.7144 163.427 65.3478C162.642 65.9684 161.534 66.2788 160.102 66.2788L154.972 66.2598V56.0378H157.917V59.3058H160.501ZM159.836 64.1698C160.406 64.1824 160.843 64.0621 161.147 63.8088C161.451 63.5554 161.603 63.1754 161.603 62.6688C161.603 62.1748 161.451 61.8138 161.147 61.5858C160.856 61.3578 160.419 61.2374 159.836 61.2248L157.917 61.2058V64.1698H159.836ZM185.974 61.1108C185.974 62.6941 185.442 63.9481 184.378 64.8728C183.327 65.7848 181.82 66.3104 179.856 66.4498V69.9458H177.139V66.4498C175.176 66.3104 173.662 65.7911 172.598 64.8918C171.547 63.9798 171.021 62.7194 171.021 61.1108C171.021 59.5274 171.541 58.2988 172.579 57.4248C173.631 56.5508 175.151 56.0441 177.139 55.9048V52.1618H179.856V55.9048C181.82 56.0441 183.327 56.5571 184.378 57.4438C185.442 58.3304 185.974 59.5528 185.974 61.1108ZM173.89 61.1108C173.89 62.0228 174.15 62.7258 174.669 63.2198C175.189 63.7138 176.012 64.0241 177.139 64.1508V58.2038C176.012 58.3178 175.189 58.6154 174.669 59.0968C174.15 59.5654 173.89 60.2368 173.89 61.1108ZM179.856 64.1508C180.984 64.0241 181.807 63.7138 182.326 63.2198C182.858 62.7258 183.124 62.0228 183.124 61.1108C183.124 60.2368 182.858 59.5654 182.326 59.0968C181.807 58.6154 180.984 58.3178 179.856 58.2038V64.1508ZM187.981 56.0378H190.926V62.1178L195.904 56.0378H198.621V66.2598H195.676V60.1798L190.717 66.2598H187.981V56.0378ZM211.274 56.0378V66.2598H208.31V58.4698H205.08L204.985 60.2748C204.935 61.6174 204.808 62.7321 204.605 63.6188C204.403 64.5054 204.073 65.2021 203.617 65.7088C203.161 66.2154 202.528 66.4688 201.717 66.4688C201.287 66.4688 200.774 66.3928 200.178 66.2408L200.33 63.8088C200.533 63.8341 200.679 63.8468 200.767 63.8468C201.211 63.8468 201.54 63.6884 201.755 63.3718C201.983 63.0424 202.135 62.6308 202.211 62.1368C202.287 61.6301 202.344 60.9651 202.382 60.1418L202.534 56.0378H211.274ZM214.125 56.0378H217.07V62.1178L222.048 56.0378H224.765V66.2598H221.82V60.1798L216.861 66.2598H214.125V56.0378ZM231.585 55.8858C233.168 55.8858 234.384 56.2658 235.233 57.0258C236.082 57.7731 236.506 58.9068 236.506 60.4268V66.2598H233.732V64.9868C233.175 65.9368 232.136 66.4118 230.616 66.4118C229.831 66.4118 229.147 66.2788 228.564 66.0128C227.994 65.7468 227.557 65.3794 227.253 64.9108C226.949 64.4421 226.797 63.9101 226.797 63.3148C226.797 62.3648 227.152 61.6174 227.861 61.0728C228.583 60.5281 229.691 60.2558 231.186 60.2558H233.542C233.542 59.6098 233.346 59.1158 232.953 58.7738C232.56 58.4191 231.971 58.2418 231.186 58.2418C230.641 58.2418 230.103 58.3304 229.571 58.5078C229.052 58.6724 228.608 58.9004 228.241 59.1918L227.177 57.1208C227.734 56.7281 228.399 56.4241 229.172 56.2088C229.957 55.9934 230.762 55.8858 231.585 55.8858ZM231.357 64.4168C231.864 64.4168 232.313 64.3028 232.706 64.0748C233.099 63.8341 233.377 63.4858 233.542 63.0298V61.9848H231.509C230.293 61.9848 229.685 62.3838 229.685 63.1818C229.685 63.5618 229.831 63.8658 230.122 64.0938C230.426 64.3091 230.838 64.4168 231.357 64.4168ZM248.885 56.0378V66.2598H245.921V58.4698H242.691L242.596 60.2748C242.545 61.6174 242.418 62.7321 242.216 63.6188C242.013 64.5054 241.684 65.2021 241.228 65.7088C240.772 66.2154 240.138 66.4688 239.328 66.4688C238.897 66.4688 238.384 66.3928 237.789 66.2408L237.941 63.8088C238.143 63.8341 238.289 63.8468 238.378 63.8468C238.821 63.8468 239.15 63.6884 239.366 63.3718C239.594 63.0424 239.746 62.6308 239.822 62.1368C239.898 61.6301 239.955 60.9651 239.993 60.1418L240.145 56.0378H248.885ZM256.523 66.4118C255.446 66.4118 254.477 66.1901 253.616 65.7468C252.767 65.2908 252.102 64.6638 251.621 63.8658C251.14 63.0678 250.899 62.1621 250.899 61.1488C250.899 60.1354 251.14 59.2298 251.621 58.4318C252.102 57.6338 252.767 57.0131 253.616 56.5698C254.477 56.1138 255.446 55.8858 256.523 55.8858C257.6 55.8858 258.562 56.1138 259.411 56.5698C260.26 57.0131 260.925 57.6338 261.406 58.4318C261.887 59.2298 262.128 60.1354 262.128 61.1488C262.128 62.1621 261.887 63.0678 261.406 63.8658C260.925 64.6638 260.26 65.2908 259.411 65.7468C258.562 66.1901 257.6 66.4118 256.523 66.4118ZM256.523 63.9798C257.283 63.9798 257.904 63.7264 258.385 63.2198C258.879 62.7004 259.126 62.0101 259.126 61.1488C259.126 60.2874 258.879 59.6034 258.385 59.0968C257.904 58.5774 257.283 58.3178 256.523 58.3178C255.763 58.3178 255.136 58.5774 254.642 59.0968C254.148 59.6034 253.901 60.2874 253.901 61.1488C253.901 62.0101 254.148 62.7004 254.642 63.2198C255.136 63.7264 255.763 63.9798 256.523 63.9798ZM271.976 60.9208C273.179 61.3261 273.781 62.1368 273.781 63.3528C273.781 64.2774 273.432 64.9931 272.736 65.4998C272.039 66.0064 271 66.2598 269.62 66.2598H264.167V56.0378H269.392C270.671 56.0378 271.672 56.2721 272.394 56.7408C273.116 57.1968 273.477 57.8428 273.477 58.6788C273.477 59.1854 273.344 59.6351 273.078 60.0278C272.824 60.4078 272.457 60.7054 271.976 60.9208ZM266.884 60.2368H269.126C270.164 60.2368 270.684 59.8694 270.684 59.1348C270.684 58.4128 270.164 58.0518 269.126 58.0518H266.884V60.2368ZM269.373 64.2458C270.462 64.2458 271.007 63.8721 271.007 63.1248C271.007 62.7321 270.88 62.4471 270.627 62.2698C270.373 62.0798 269.974 61.9848 269.43 61.9848H266.884V64.2458H269.373ZM287.998 60.9398C288.606 61.1298 289.075 61.4211 289.404 61.8138C289.746 62.2064 289.917 62.6751 289.917 63.2198C289.917 63.8658 289.695 64.4358 289.252 64.9298C288.809 65.4111 288.201 65.7848 287.428 66.0508C286.655 66.3168 285.781 66.4498 284.806 66.4498C284.008 66.4498 283.223 66.3674 282.45 66.2028C281.677 66.0381 280.962 65.7911 280.303 65.4618L281.101 63.3908C282.178 63.9101 283.368 64.1698 284.673 64.1698C285.37 64.1698 285.914 64.0684 286.307 63.8658C286.712 63.6504 286.915 63.3528 286.915 62.9728C286.915 62.6434 286.776 62.3964 286.497 62.2318C286.218 62.0544 285.813 61.9658 285.281 61.9658H283.191V60.1228H285.015C285.534 60.1228 285.933 60.0404 286.212 59.8758C286.491 59.7111 286.63 59.4704 286.63 59.1538C286.63 58.8244 286.453 58.5711 286.098 58.3938C285.756 58.2164 285.262 58.1278 284.616 58.1278C283.628 58.1278 282.551 58.3621 281.386 58.8308L280.664 56.7788C282.083 56.1581 283.463 55.8478 284.806 55.8478C285.731 55.8478 286.554 55.9618 287.276 56.1898C288.011 56.4178 288.587 56.7534 289.005 57.1968C289.423 57.6274 289.632 58.1341 289.632 58.7168C289.632 59.1981 289.486 59.6351 289.195 60.0278C288.904 60.4078 288.505 60.7118 287.998 60.9398ZM296.044 55.8858C297.627 55.8858 298.843 56.2658 299.692 57.0258C300.541 57.7731 300.965 58.9068 300.965 60.4268V66.2598H298.191V64.9868C297.634 65.9368 296.595 66.4118 295.075 66.4118C294.29 66.4118 293.606 66.2788 293.023 66.0128C292.453 65.7468 292.016 65.3794 291.712 64.9108C291.408 64.4421 291.256 63.9101 291.256 63.3148C291.256 62.3648 291.611 61.6174 292.32 61.0728C293.042 60.5281 294.15 60.2558 295.645 60.2558H298.001C298.001 59.6098 297.805 59.1158 297.412 58.7738C297.019 58.4191 296.43 58.2418 295.645 58.2418C295.1 58.2418 294.562 58.3304 294.03 58.5078C293.511 58.6724 293.067 58.9004 292.7 59.1918L291.636 57.1208C292.193 56.7281 292.858 56.4241 293.631 56.2088C294.416 55.9934 295.221 55.8858 296.044 55.8858ZM295.816 64.4168C296.323 64.4168 296.772 64.3028 297.165 64.0748C297.558 63.8341 297.836 63.4858 298.001 63.0298V61.9848H295.968C294.752 61.9848 294.144 62.3838 294.144 63.1818C294.144 63.5618 294.29 63.8658 294.581 64.0938C294.885 64.3091 295.297 64.4168 295.816 64.4168ZM317.11 58.4698H311.866V66.2598H308.921V56.0378H317.11V58.4698ZM324.703 55.8858C325.653 55.8858 326.515 56.1074 327.287 56.5508C328.073 56.9814 328.687 57.5958 329.13 58.3938C329.574 59.1791 329.795 60.0974 329.795 61.1488C329.795 62.2001 329.574 63.1248 329.13 63.9228C328.687 64.7081 328.073 65.3224 327.287 65.7658C326.515 66.1964 325.653 66.4118 324.703 66.4118C323.399 66.4118 322.373 66.0001 321.625 65.1768V69.9458H318.661V56.0378H321.492V57.2158C322.227 56.3291 323.297 55.8858 324.703 55.8858ZM324.19 63.9798C324.95 63.9798 325.571 63.7264 326.052 63.2198C326.546 62.7004 326.793 62.0101 326.793 61.1488C326.793 60.2874 326.546 59.6034 326.052 59.0968C325.571 58.5774 324.95 58.3178 324.19 58.3178C323.43 58.3178 322.803 58.5774 322.309 59.0968C321.828 59.6034 321.587 60.2874 321.587 61.1488C321.587 62.0101 321.828 62.7004 322.309 63.2198C322.803 63.7264 323.43 63.9798 324.19 63.9798ZM335.677 55.8858C337.26 55.8858 338.476 56.2658 339.325 57.0258C340.173 57.7731 340.598 58.9068 340.598 60.4268V66.2598H337.824V64.9868C337.266 65.9368 336.228 66.4118 334.708 66.4118C333.922 66.4118 333.238 66.2788 332.656 66.0128C332.086 65.7468 331.649 65.3794 331.345 64.9108C331.041 64.4421 330.889 63.9101 330.889 63.3148C330.889 62.3648 331.243 61.6174 331.953 61.0728C332.675 60.5281 333.783 60.2558 335.278 60.2558H337.634C337.634 59.6098 337.437 59.1158 337.045 58.7738C336.652 58.4191 336.063 58.2418 335.278 58.2418C334.733 58.2418 334.195 58.3304 333.663 58.5078C333.143 58.6724 332.7 58.9004 332.333 59.1918L331.269 57.1208C331.826 56.7281 332.491 56.4241 333.264 56.2088C334.049 55.9934 334.853 55.8858 335.677 55.8858ZM335.449 64.4168C335.955 64.4168 336.405 64.3028 336.798 64.0748C337.19 63.8341 337.469 63.4858 337.634 63.0298V61.9848H335.601C334.385 61.9848 333.777 62.3838 333.777 63.1818C333.777 63.5618 333.922 63.8658 334.214 64.0938C334.518 64.3091 334.929 64.4168 335.449 64.4168ZM343.173 56.0378H346.118V60.0278H350.564V56.0378H353.528V66.2598H350.564V62.4408H346.118V66.2598H343.173V56.0378ZM356.365 56.0378H359.31V62.1178L364.288 56.0378H367.005V66.2598H364.06V60.1798L359.101 66.2598H356.365V56.0378ZM381.368 63.8278V68.5018H378.613V66.2598H369.854V56.0378H372.799V63.8278H376.922V56.0378H379.886V63.8278H381.368ZM393.169 61.1868C393.169 61.2248 393.15 61.4908 393.112 61.9848H385.379C385.519 62.6181 385.848 63.1184 386.367 63.4858C386.887 63.8531 387.533 64.0368 388.305 64.0368C388.837 64.0368 389.306 63.9608 389.711 63.8088C390.129 63.6441 390.516 63.3908 390.87 63.0488L392.447 64.7588C391.485 65.8608 390.079 66.4118 388.229 66.4118C387.077 66.4118 386.057 66.1901 385.17 65.7468C384.284 65.2908 383.6 64.6638 383.118 63.8658C382.637 63.0678 382.396 62.1621 382.396 61.1488C382.396 60.1481 382.631 59.2488 383.099 58.4508C383.581 57.6401 384.233 57.0131 385.056 56.5698C385.892 56.1138 386.823 55.8858 387.849 55.8858C388.85 55.8858 389.756 56.1011 390.566 56.5318C391.377 56.9624 392.01 57.5831 392.466 58.3938C392.935 59.1918 393.169 60.1228 393.169 61.1868ZM387.868 58.1278C387.197 58.1278 386.633 58.3178 386.177 58.6978C385.721 59.0778 385.443 59.5971 385.341 60.2558H390.376C390.275 59.6098 389.996 59.0968 389.54 58.7168C389.084 58.3241 388.527 58.1278 387.868 58.1278ZM395.441 56.0378H398.386V62.1178L403.364 56.0378H406.081V66.2598H403.136V60.1798L398.177 66.2598H395.441V56.0378ZM400.571 54.9358C398.342 54.9358 397.221 53.9541 397.208 51.9908H399.146C399.159 52.4341 399.279 52.7824 399.507 53.0358C399.748 53.2764 400.096 53.3968 400.552 53.3968C401.008 53.3968 401.357 53.2764 401.597 53.0358C401.851 52.7824 401.977 52.4341 401.977 51.9908H403.953C403.941 53.9541 402.813 54.9358 400.571 54.9358Z" fill="white"/>
<defs>
<clipPath id="clip0_207:57">
<rect width="63.2402" height="63.3018" fill="white" transform="translate(25.0456 25.0693)"/>
</clipPath>
</defs>
</svg>
