<svg width="542" height="114" viewBox="0 0 542 114" fill="none" xmlns="http://www.w3.org/2000/svg">
<rect x="27.7302" y="14.2852" width="514.27" height="85.7116" fill="#3E4671"/>
<path d="M115.405 56.7209C115.405 86.8783 90.0837 111.442 58.7025 111.442C27.3213 111.442 2 86.8783 2 56.7209C2 26.5636 27.3213 2 58.7025 2C90.0837 2 115.405 26.5636 115.405 56.7209Z" fill="white" stroke="#3E4671" stroke-width="4"/>
<g clip-path="url(#clip0_207:35)">
<path d="M90.1059 63.5784C90.1059 65.161 86.9677 66.216 83.3065 66.7435C80.9529 62.2596 76.2456 58.8308 70.7538 56.457C71.2769 55.6657 71.7999 55.1382 72.3229 54.3469H74.415C82.522 54.0831 90.1059 59.0945 90.1059 63.5784ZM45.1255 54.0831H43.0334C34.9264 54.0831 27.3425 59.0945 27.3425 63.5784C27.3425 65.161 30.4807 66.216 34.1419 66.7435C36.4955 62.2596 41.2028 58.8308 46.6946 56.457L45.1255 54.0831ZM58.7242 56.7207C64.4775 56.7207 69.1848 51.9731 69.1848 46.1704C69.1848 40.3678 64.4775 35.6201 58.7242 35.6201C52.9709 35.6201 48.2636 40.3678 48.2636 46.1704C48.2636 51.9731 52.9709 56.7207 58.7242 56.7207ZM58.7242 59.3583C48.0021 59.3583 37.8031 66.216 37.8031 72.5462C37.8031 77.8213 58.7242 77.8213 58.7242 77.8213C58.7242 77.8213 79.6453 77.8213 79.6453 72.5462C79.6453 66.216 69.4463 59.3583 58.7242 59.3583ZM73.6305 51.4456H74.415C78.8608 51.4456 82.2605 48.0167 82.2605 43.5328C82.2605 39.049 78.8608 35.6201 74.415 35.6201C73.1075 35.6201 72.0614 35.8839 71.0154 36.4114C73.1075 39.049 74.415 42.4778 74.415 46.1704C74.415 48.0167 74.1535 49.863 73.6305 51.4456ZM43.0334 51.4456H43.8179C43.2949 49.863 43.0334 48.0167 43.0334 46.1704C43.0334 42.4778 44.3409 39.049 46.433 36.4114C45.387 35.8839 44.3409 35.6201 43.0334 35.6201C38.5876 35.6201 35.1879 39.049 35.1879 43.5328C35.1879 48.0167 38.5876 51.4456 43.0334 51.4456Z" fill="#3E4671"/>
</g>
<path d="M135.696 41.0516V54.3516H132.637V43.5596H126.633V54.3516H123.574V41.0516H135.696ZM148.701 49.2786C148.701 49.3166 148.682 49.5826 148.644 50.0766H140.911C141.051 50.7099 141.38 51.2102 141.899 51.5776C142.419 51.9449 143.065 52.1286 143.837 52.1286C144.369 52.1286 144.838 52.0526 145.243 51.9006C145.661 51.7359 146.048 51.4826 146.402 51.1406L147.979 52.8506C147.017 53.9526 145.611 54.5036 143.761 54.5036C142.609 54.5036 141.589 54.2819 140.702 53.8386C139.816 53.3826 139.132 52.7556 138.65 51.9576C138.169 51.1596 137.928 50.2539 137.928 49.2406C137.928 48.2399 138.163 47.3406 138.631 46.5426C139.113 45.7319 139.765 45.1049 140.588 44.6616C141.424 44.2056 142.355 43.9776 143.381 43.9776C144.382 43.9776 145.288 44.1929 146.098 44.6236C146.909 45.0542 147.542 45.6749 147.998 46.4856C148.467 47.2836 148.701 48.2146 148.701 49.2786ZM143.4 46.2196C142.729 46.2196 142.165 46.4096 141.709 46.7896C141.253 47.1696 140.975 47.6889 140.873 48.3476H145.908C145.807 47.7016 145.528 47.1886 145.072 46.8086C144.616 46.4159 144.059 46.2196 143.4 46.2196ZM156.996 43.9776C157.946 43.9776 158.808 44.1992 159.58 44.6426C160.366 45.0732 160.98 45.6876 161.423 46.4856C161.867 47.2709 162.088 48.1892 162.088 49.2406C162.088 50.2919 161.867 51.2166 161.423 52.0146C160.98 52.7999 160.366 53.4142 159.58 53.8576C158.808 54.2882 157.946 54.5036 156.996 54.5036C155.692 54.5036 154.666 54.0919 153.918 53.2686V58.0376H150.954V44.1296H153.785V45.3076C154.52 44.4209 155.59 43.9776 156.996 43.9776ZM156.483 52.0716C157.243 52.0716 157.864 51.8182 158.345 51.3116C158.839 50.7922 159.086 50.1019 159.086 49.2406C159.086 48.3792 158.839 47.6952 158.345 47.1886C157.864 46.6692 157.243 46.4096 156.483 46.4096C155.723 46.4096 155.096 46.6692 154.602 47.1886C154.121 47.6952 153.88 48.3792 153.88 49.2406C153.88 50.1019 154.121 50.7922 154.602 51.3116C155.096 51.8182 155.723 52.0716 156.483 52.0716ZM169.03 54.5036C167.941 54.5036 166.959 54.2819 166.085 53.8386C165.224 53.3826 164.546 52.7556 164.052 51.9576C163.571 51.1596 163.33 50.2539 163.33 49.2406C163.33 48.2272 163.571 47.3216 164.052 46.5236C164.546 45.7256 165.224 45.1049 166.085 44.6616C166.959 44.2056 167.941 43.9776 169.03 43.9776C170.107 43.9776 171.044 44.2056 171.842 44.6616C172.653 45.1049 173.242 45.7446 173.609 46.5806L171.31 47.8156C170.778 46.8782 170.012 46.4096 169.011 46.4096C168.238 46.4096 167.599 46.6629 167.092 47.1696C166.585 47.6762 166.332 48.3666 166.332 49.2406C166.332 50.1146 166.585 50.8049 167.092 51.3116C167.599 51.8182 168.238 52.0716 169.011 52.0716C170.024 52.0716 170.791 51.6029 171.31 50.6656L173.609 51.9196C173.242 52.7302 172.653 53.3636 171.842 53.8196C171.044 54.2756 170.107 54.5036 169.03 54.5036ZM180.068 54.5036C178.991 54.5036 178.022 54.2819 177.161 53.8386C176.312 53.3826 175.647 52.7556 175.166 51.9576C174.685 51.1596 174.444 50.2539 174.444 49.2406C174.444 48.2272 174.685 47.3216 175.166 46.5236C175.647 45.7256 176.312 45.1049 177.161 44.6616C178.022 44.2056 178.991 43.9776 180.068 43.9776C181.145 43.9776 182.107 44.2056 182.956 44.6616C183.805 45.1049 184.47 45.7256 184.951 46.5236C185.432 47.3216 185.673 48.2272 185.673 49.2406C185.673 50.2539 185.432 51.1596 184.951 51.9576C184.47 52.7556 183.805 53.3826 182.956 53.8386C182.107 54.2819 181.145 54.5036 180.068 54.5036ZM180.068 52.0716C180.828 52.0716 181.449 51.8182 181.93 51.3116C182.424 50.7922 182.671 50.1019 182.671 49.2406C182.671 48.3792 182.424 47.6952 181.93 47.1886C181.449 46.6692 180.828 46.4096 180.068 46.4096C179.308 46.4096 178.681 46.6692 178.187 47.1886C177.693 47.6952 177.446 48.3792 177.446 49.2406C177.446 50.1019 177.693 50.7922 178.187 51.3116C178.681 51.8182 179.308 52.0716 180.068 52.0716ZM187.712 44.1296H190.657V48.1196H195.103V44.1296H198.067V54.3516H195.103V50.5326H190.657V54.3516H187.712V44.1296ZM204.875 43.9776C206.458 43.9776 207.674 44.3576 208.523 45.1176C209.372 45.8649 209.796 46.9986 209.796 48.5186V54.3516H207.022V53.0786C206.465 54.0286 205.426 54.5036 203.906 54.5036C203.121 54.5036 202.437 54.3706 201.854 54.1046C201.284 53.8386 200.847 53.4712 200.543 53.0026C200.239 52.5339 200.087 52.0019 200.087 51.4066C200.087 50.4566 200.442 49.7092 201.151 49.1646C201.873 48.6199 202.981 48.3476 204.476 48.3476H206.832C206.832 47.7016 206.636 47.2076 206.243 46.8656C205.85 46.5109 205.261 46.3336 204.476 46.3336C203.931 46.3336 203.393 46.4222 202.861 46.5996C202.342 46.7642 201.898 46.9922 201.531 47.2836L200.467 45.2126C201.024 44.8199 201.689 44.5159 202.462 44.3006C203.247 44.0852 204.052 43.9776 204.875 43.9776ZM204.647 52.5086C205.154 52.5086 205.603 52.3946 205.996 52.1666C206.389 51.9259 206.667 51.5776 206.832 51.1216V50.0766H204.799C203.583 50.0766 202.975 50.4756 202.975 51.2736C202.975 51.6536 203.121 51.9576 203.412 52.1856C203.716 52.4009 204.128 52.5086 204.647 52.5086ZM222.175 44.1296V54.3516H219.211V46.5616H215.981L215.886 48.3666C215.835 49.7092 215.709 50.8239 215.506 51.7106C215.303 52.5972 214.974 53.2939 214.518 53.8006C214.062 54.3072 213.429 54.5606 212.618 54.5606C212.187 54.5606 211.674 54.4846 211.079 54.3326L211.231 51.9006C211.434 51.9259 211.579 51.9386 211.668 51.9386C212.111 51.9386 212.441 51.7802 212.656 51.4636C212.884 51.1342 213.036 50.7226 213.112 50.2286C213.188 49.7219 213.245 49.0569 213.283 48.2336L213.435 44.1296H222.175ZM230.554 47.3976C231.884 47.4102 232.904 47.7142 233.613 48.3096C234.323 48.8922 234.677 49.7219 234.677 50.7986C234.677 51.9259 234.278 52.8062 233.48 53.4396C232.695 54.0602 231.587 54.3706 230.155 54.3706L225.025 54.3516V44.1296H227.97V47.3976H230.554ZM229.889 52.2616C230.459 52.2742 230.896 52.1539 231.2 51.9006C231.504 51.6472 231.656 51.2672 231.656 50.7606C231.656 50.2666 231.504 49.9056 231.2 49.6776C230.909 49.4496 230.472 49.3292 229.889 49.3166L227.97 49.2976V52.2616H229.889ZM236.529 44.1296H239.474V48.1196H243.92V44.1296H246.884V54.3516H243.92V50.5326H239.474V54.3516H236.529V44.1296ZM255.099 47.3976C256.429 47.4102 257.436 47.7079 258.12 48.2906C258.804 48.8732 259.146 49.7092 259.146 50.7986C259.146 51.9386 258.759 52.8189 257.987 53.4396C257.214 54.0602 256.118 54.3706 254.7 54.3706L249.722 54.3516V44.1296H252.667V47.3976H255.099ZM260.248 44.1296H263.193V54.3516H260.248V44.1296ZM254.434 52.2616C255.004 52.2742 255.441 52.1539 255.745 51.9006C256.049 51.6472 256.201 51.2672 256.201 50.7606C256.201 50.2666 256.049 49.9056 255.745 49.6776C255.453 49.4496 255.016 49.3292 254.434 49.3166L252.667 49.2976V52.2616H254.434ZM266.05 44.1296H268.995V50.2096L273.973 44.1296H276.69V54.3516H273.745V48.2716L268.786 54.3516H266.05V44.1296ZM271.18 43.0276C268.95 43.0276 267.829 42.0459 267.817 40.0826H269.755C269.767 40.5259 269.888 40.8742 270.116 41.1276C270.356 41.3682 270.705 41.4886 271.161 41.4886C271.617 41.4886 271.965 41.3682 272.206 41.1276C272.459 40.8742 272.586 40.5259 272.586 40.0826H274.562C274.549 42.0459 273.422 43.0276 271.18 43.0276ZM294.895 54.3516V48.2336L291.836 53.3636H290.582L287.599 48.2146V54.3516H284.92V44.1296H288.017L291.285 50.0386L294.762 44.1296H297.536L297.574 54.3516H294.895ZM310.35 49.2786C310.35 49.3166 310.331 49.5826 310.293 50.0766H302.56C302.699 50.7099 303.029 51.2102 303.548 51.5776C304.067 51.9449 304.713 52.1286 305.486 52.1286C306.018 52.1286 306.487 52.0526 306.892 51.9006C307.31 51.7359 307.696 51.4826 308.051 51.1406L309.628 52.8506C308.665 53.9526 307.259 54.5036 305.41 54.5036C304.257 54.5036 303.238 54.2819 302.351 53.8386C301.464 53.3826 300.78 52.7556 300.299 51.9576C299.818 51.1596 299.577 50.2539 299.577 49.2406C299.577 48.2399 299.811 47.3406 300.28 46.5426C300.761 45.7319 301.414 45.1049 302.237 44.6616C303.073 44.2056 304.004 43.9776 305.03 43.9776C306.031 43.9776 306.936 44.1929 307.747 44.6236C308.558 45.0542 309.191 45.6749 309.647 46.4856C310.116 47.2836 310.35 48.2146 310.35 49.2786ZM305.049 46.2196C304.378 46.2196 303.814 46.4096 303.358 46.7896C302.902 47.1696 302.623 47.6889 302.522 48.3476H307.557C307.456 47.7016 307.177 47.1886 306.721 46.8086C306.265 46.4159 305.708 46.2196 305.049 46.2196ZM312.622 44.1296H315.567V48.1196H320.013V44.1296H322.977V54.3516H320.013V50.5326H315.567V54.3516H312.622V44.1296ZM335.751 49.2786C335.751 49.3166 335.732 49.5826 335.694 50.0766H327.961C328.101 50.7099 328.43 51.2102 328.949 51.5776C329.469 51.9449 330.115 52.1286 330.887 52.1286C331.419 52.1286 331.888 52.0526 332.293 51.9006C332.711 51.7359 333.098 51.4826 333.452 51.1406L335.029 52.8506C334.067 53.9526 332.661 54.5036 330.811 54.5036C329.659 54.5036 328.639 54.2819 327.752 53.8386C326.866 53.3826 326.182 52.7556 325.7 51.9576C325.219 51.1596 324.978 50.2539 324.978 49.2406C324.978 48.2399 325.213 47.3406 325.681 46.5426C326.163 45.7319 326.815 45.1049 327.638 44.6616C328.474 44.2056 329.405 43.9776 330.431 43.9776C331.432 43.9776 332.338 44.1929 333.148 44.6236C333.959 45.0542 334.592 45.6749 335.048 46.4856C335.517 47.2836 335.751 48.2146 335.751 49.2786ZM330.45 46.2196C329.779 46.2196 329.215 46.4096 328.759 46.7896C328.303 47.1696 328.025 47.6889 327.923 48.3476H332.958C332.857 47.7016 332.578 47.1886 332.122 46.8086C331.666 46.4159 331.109 46.2196 330.45 46.2196ZM349.387 51.9196V56.5556H346.632V54.3516H339.45V56.5556H336.695V51.9196H337.113C337.747 51.9069 338.184 51.5332 338.424 50.7986C338.665 50.0639 338.817 49.0189 338.88 47.6636L339.013 44.1296H347.924V51.9196H349.387ZM341.559 47.8726C341.521 48.9112 341.439 49.7599 341.312 50.4186C341.198 51.0772 340.977 51.5776 340.647 51.9196H344.96V46.5616H341.616L341.559 47.8726ZM361.38 50.4756H359.955V54.3516H357.029V50.4756H355.604L353.438 54.3516H349.942L353.153 49.0696L350.17 44.1296H353.305L355.566 48.1006H357.029V44.1296H359.955V48.1006H361.399L363.679 44.1296H366.814L363.831 49.0696L367.061 54.3516H363.546L361.38 50.4756ZM378.223 49.2786C378.223 49.3166 378.204 49.5826 378.166 50.0766H370.433C370.572 50.7099 370.902 51.2102 371.421 51.5776C371.94 51.9449 372.586 52.1286 373.359 52.1286C373.891 52.1286 374.36 52.0526 374.765 51.9006C375.183 51.7359 375.569 51.4826 375.924 51.1406L377.501 52.8506C376.538 53.9526 375.132 54.5036 373.283 54.5036C372.13 54.5036 371.111 54.2819 370.224 53.8386C369.337 53.3826 368.653 52.7556 368.172 51.9576C367.691 51.1596 367.45 50.2539 367.45 49.2406C367.45 48.2399 367.684 47.3406 368.153 46.5426C368.634 45.7319 369.287 45.1049 370.11 44.6616C370.946 44.2056 371.877 43.9776 372.903 43.9776C373.904 43.9776 374.809 44.1929 375.62 44.6236C376.431 45.0542 377.064 45.6749 377.52 46.4856C377.989 47.2836 378.223 48.2146 378.223 49.2786ZM372.922 46.2196C372.251 46.2196 371.687 46.4096 371.231 46.7896C370.775 47.1696 370.496 47.6889 370.395 48.3476H375.43C375.329 47.7016 375.05 47.1886 374.594 46.8086C374.138 46.4159 373.581 46.2196 372.922 46.2196ZM386.518 43.9776C387.468 43.9776 388.329 44.1992 389.102 44.6426C389.887 45.0732 390.502 45.6876 390.945 46.4856C391.388 47.2709 391.61 48.1892 391.61 49.2406C391.61 50.2919 391.388 51.2166 390.945 52.0146C390.502 52.7999 389.887 53.4142 389.102 53.8576C388.329 54.2882 387.468 54.5036 386.518 54.5036C385.213 54.5036 384.187 54.0919 383.44 53.2686V58.0376H380.476V44.1296H383.307V45.3076C384.042 44.4209 385.112 43.9776 386.518 43.9776ZM386.005 52.0716C386.765 52.0716 387.386 51.8182 387.867 51.3116C388.361 50.7922 388.608 50.1019 388.608 49.2406C388.608 48.3792 388.361 47.6952 387.867 47.1886C387.386 46.6692 386.765 46.4096 386.005 46.4096C385.245 46.4096 384.618 46.6692 384.124 47.1886C383.643 47.6952 383.402 48.3792 383.402 49.2406C383.402 50.1019 383.643 50.7922 384.124 51.3116C384.618 51.8182 385.245 52.0716 386.005 52.0716ZM410.525 51.9196V56.5556H407.77V54.3516H400.588V56.5556H397.833V51.9196H398.251C398.885 51.9069 399.322 51.5332 399.562 50.7986C399.803 50.0639 399.955 49.0189 400.018 47.6636L400.151 44.1296H409.062V51.9196H410.525ZM402.697 47.8726C402.659 48.9112 402.577 49.7599 402.45 50.4186C402.336 51.0772 402.115 51.5776 401.785 51.9196H406.098V46.5616H402.754L402.697 47.8726ZM422.194 44.1296V54.3516H419.23V46.5616H416L415.905 48.3666C415.855 49.7092 415.728 50.8239 415.525 51.7106C415.323 52.5972 414.993 53.2939 414.537 53.8006C414.081 54.3072 413.448 54.5606 412.637 54.5606C412.207 54.5606 411.694 54.4846 411.098 54.3326L411.25 51.9006C411.453 51.9259 411.599 51.9386 411.687 51.9386C412.131 51.9386 412.46 51.7802 412.675 51.4636C412.903 51.1342 413.055 50.7226 413.131 50.2286C413.207 49.7219 413.264 49.0569 413.302 48.2336L413.454 44.1296H422.194ZM434.127 44.1296V54.3516H431.486V51.4256H429.301L427.363 54.3516H424.209L426.546 51.0076C425.836 50.7289 425.292 50.3299 424.912 49.8106C424.544 49.2786 424.361 48.6389 424.361 47.8916C424.361 46.6882 424.791 45.7636 425.653 45.1176C426.527 44.4589 427.724 44.1296 429.244 44.1296H434.127ZM429.301 46.5426C428.667 46.5426 428.186 46.6566 427.857 46.8846C427.54 47.1126 427.382 47.4799 427.382 47.9866C427.382 48.4932 427.534 48.8669 427.838 49.1076C428.154 49.3356 428.629 49.4496 429.263 49.4496H431.486V46.5426H429.301ZM446.859 50.4756H445.32V54.3516H442.356V44.1296H445.32V48.1006H446.916L449.69 44.1296H452.844L449.272 49.0316L453.091 54.3516H449.595L446.859 50.4756ZM458.332 43.9776C459.915 43.9776 461.131 44.3576 461.98 45.1176C462.829 45.8649 463.253 46.9986 463.253 48.5186V54.3516H460.479V53.0786C459.922 54.0286 458.883 54.5036 457.363 54.5036C456.578 54.5036 455.894 54.3706 455.311 54.1046C454.741 53.8386 454.304 53.4712 454 53.0026C453.696 52.5339 453.544 52.0019 453.544 51.4066C453.544 50.4566 453.899 49.7092 454.608 49.1646C455.33 48.6199 456.438 48.3476 457.933 48.3476H460.289C460.289 47.7016 460.093 47.2076 459.7 46.8656C459.307 46.5109 458.718 46.3336 457.933 46.3336C457.388 46.3336 456.85 46.4222 456.318 46.5996C455.799 46.7642 455.355 46.9922 454.988 47.2836L453.924 45.2126C454.481 44.8199 455.146 44.5159 455.919 44.3006C456.704 44.0852 457.509 43.9776 458.332 43.9776ZM458.104 52.5086C458.611 52.5086 459.06 52.3946 459.453 52.1666C459.846 51.9259 460.124 51.5776 460.289 51.1216V50.0766H458.256C457.04 50.0766 456.432 50.4756 456.432 51.2736C456.432 51.6536 456.578 51.9576 456.869 52.1856C457.173 52.4009 457.585 52.5086 458.104 52.5086ZM475.955 50.4756H474.53V54.3516H471.604V50.4756H470.179L468.013 54.3516H464.517L467.728 49.0696L464.745 44.1296H467.88L470.141 48.1006H471.604V44.1296H474.53V48.1006H475.974L478.254 44.1296H481.389L478.406 49.0696L481.636 54.3516H478.121L475.955 50.4756ZM494.634 51.9196V56.5556H491.879V54.3516H484.697V56.5556H481.942V51.9196H482.36C482.993 51.9069 483.43 51.5332 483.671 50.7986C483.911 50.0639 484.063 49.0189 484.127 47.6636L484.26 44.1296H493.171V51.9196H494.634ZM486.806 47.8726C486.768 48.9112 486.685 49.7599 486.559 50.4186C486.445 51.0772 486.223 51.5776 485.894 51.9196H490.207V46.5616H486.863L486.806 47.8726ZM501.287 54.5036C500.21 54.5036 499.241 54.2819 498.38 53.8386C497.531 53.3826 496.866 52.7556 496.385 51.9576C495.904 51.1596 495.663 50.2539 495.663 49.2406C495.663 48.2272 495.904 47.3216 496.385 46.5236C496.866 45.7256 497.531 45.1049 498.38 44.6616C499.241 44.2056 500.21 43.9776 501.287 43.9776C502.364 43.9776 503.326 44.2056 504.175 44.6616C505.024 45.1049 505.689 45.7256 506.17 46.5236C506.651 47.3216 506.892 48.2272 506.892 49.2406C506.892 50.2539 506.651 51.1596 506.17 51.9576C505.689 52.7556 505.024 53.3826 504.175 53.8386C503.326 54.2819 502.364 54.5036 501.287 54.5036ZM501.287 52.0716C502.047 52.0716 502.668 51.8182 503.149 51.3116C503.643 50.7922 503.89 50.1019 503.89 49.2406C503.89 48.3792 503.643 47.6952 503.149 47.1886C502.668 46.6692 502.047 46.4096 501.287 46.4096C500.527 46.4096 499.9 46.6692 499.406 47.1886C498.912 47.6952 498.665 48.3792 498.665 49.2406C498.665 50.1019 498.912 50.7922 499.406 51.3116C499.9 51.8182 500.527 52.0716 501.287 52.0716ZM517.119 46.5616H511.875V54.3516H508.93V44.1296H517.119V46.5616ZM523.052 54.5036C521.975 54.5036 521.006 54.2819 520.145 53.8386C519.296 53.3826 518.631 52.7556 518.15 51.9576C517.668 51.1596 517.428 50.2539 517.428 49.2406C517.428 48.2272 517.668 47.3216 518.15 46.5236C518.631 45.7256 519.296 45.1049 520.145 44.6616C521.006 44.2056 521.975 43.9776 523.052 43.9776C524.128 43.9776 525.091 44.2056 525.94 44.6616C526.788 45.1049 527.453 45.7256 527.935 46.5236C528.416 47.3216 528.657 48.2272 528.657 49.2406C528.657 50.2539 528.416 51.1596 527.935 51.9576C527.453 52.7556 526.788 53.3826 525.94 53.8386C525.091 54.2819 524.128 54.5036 523.052 54.5036ZM523.052 52.0716C523.812 52.0716 524.432 51.8182 524.914 51.3116C525.408 50.7922 525.655 50.1019 525.655 49.2406C525.655 48.3792 525.408 47.6952 524.914 47.1886C524.432 46.6692 523.812 46.4096 523.052 46.4096C522.292 46.4096 521.665 46.6692 521.171 47.1886C520.677 47.6952 520.43 48.3792 520.43 49.2406C520.43 50.1019 520.677 50.7922 521.171 51.3116C521.665 51.8182 522.292 52.0716 523.052 52.0716ZM127.849 73.4756H126.31V77.3516H123.346V67.1296H126.31V71.1006H127.906L130.68 67.1296H133.834L130.262 72.0316L134.081 77.3516H130.585L127.849 73.4756ZM145.34 67.1296V77.3516H142.376V69.5616H139.146L139.051 71.3666C139 72.7092 138.874 73.8239 138.671 74.7106C138.468 75.5972 138.139 76.2939 137.683 76.8006C137.227 77.3072 136.594 77.5606 135.783 77.5606C135.352 77.5606 134.839 77.4846 134.244 77.3326L134.396 74.9006C134.599 74.9259 134.744 74.9386 134.833 74.9386C135.276 74.9386 135.606 74.7802 135.821 74.4636C136.049 74.1342 136.201 73.7226 136.277 73.2286C136.353 72.7219 136.41 72.0569 136.448 71.2336L136.6 67.1296H145.34ZM148.19 67.1296H151.135V73.2096L156.113 67.1296H158.83V77.3516H155.885V71.2716L150.926 77.3516H148.19V67.1296ZM171.617 72.2786C171.617 72.3166 171.598 72.5826 171.56 73.0766H163.827C163.966 73.7099 164.295 74.2102 164.815 74.5776C165.334 74.9449 165.98 75.1286 166.753 75.1286C167.285 75.1286 167.753 75.0526 168.159 74.9006C168.577 74.7359 168.963 74.4826 169.318 74.1406L170.895 75.8506C169.932 76.9526 168.526 77.5036 166.677 77.5036C165.524 77.5036 164.504 77.2819 163.618 76.8386C162.731 76.3826 162.047 75.7556 161.566 74.9576C161.084 74.1596 160.844 73.2539 160.844 72.2406C160.844 71.2399 161.078 70.3406 161.547 69.5426C162.028 68.7319 162.68 68.1049 163.504 67.6616C164.34 67.2056 165.271 66.9776 166.297 66.9776C167.297 66.9776 168.203 67.1929 169.014 67.6236C169.824 68.0542 170.458 68.6749 170.914 69.4856C171.382 70.2836 171.617 71.2146 171.617 72.2786ZM166.316 69.2196C165.644 69.2196 165.081 69.4096 164.625 69.7896C164.169 70.1696 163.89 70.6889 163.789 71.3476H168.824C168.722 70.7016 168.444 70.1886 167.988 69.8086C167.532 69.4159 166.974 69.2196 166.316 69.2196ZM173.889 67.1296H176.834V71.1196H181.28V67.1296H184.244V77.3516H181.28V73.5326H176.834V77.3516H173.889V67.1296ZM195.669 69.5616H192.211V77.3516H189.266V69.5616H185.808V67.1296H195.669V69.5616ZM201.22 66.9776C202.803 66.9776 204.019 67.3576 204.868 68.1176C205.717 68.8649 206.141 69.9986 206.141 71.5186V77.3516H203.367V76.0786C202.81 77.0286 201.771 77.5036 200.251 77.5036C199.466 77.5036 198.782 77.3706 198.199 77.1046C197.629 76.8386 197.192 76.4712 196.888 76.0026C196.584 75.5339 196.432 75.0019 196.432 74.4066C196.432 73.4566 196.787 72.7092 197.496 72.1646C198.218 71.6199 199.326 71.3476 200.821 71.3476H203.177C203.177 70.7016 202.981 70.2076 202.588 69.8656C202.195 69.5109 201.606 69.3336 200.821 69.3336C200.276 69.3336 199.738 69.4222 199.206 69.5996C198.687 69.7642 198.243 69.9922 197.876 70.2836L196.812 68.2126C197.369 67.8199 198.034 67.5159 198.807 67.3006C199.592 67.0852 200.397 66.9776 201.22 66.9776ZM200.992 75.5086C201.499 75.5086 201.948 75.3946 202.341 75.1666C202.734 74.9259 203.012 74.5776 203.177 74.1216V73.0766H201.144C199.928 73.0766 199.32 73.4756 199.32 74.2736C199.32 74.6536 199.466 74.9576 199.757 75.1856C200.061 75.4009 200.473 75.5086 200.992 75.5086Z" fill="white"/>
<defs>
<clipPath id="clip0_207:35">
<rect width="62.7633" height="63.3018" fill="white" transform="translate(27.3425 25.0693)"/>
</clipPath>
</defs>
</svg>
