<svg width="645" height="135" viewBox="0 0 645 135" fill="none" xmlns="http://www.w3.org/2000/svg">
<rect x="31" y="17" width="614" height="106" fill="#3E4671"/>
<path d="M133.711 67.5C133.711 103.665 104.236 133 67.8555 133C31.4746 133 2 103.665 2 67.5C2 31.3352 31.4746 2 67.8555 2C104.236 2 133.711 31.3352 133.711 67.5Z" fill="white" stroke="#3E4671" stroke-width="4"/>
<path d="M67.4826 36.8965C66.0117 36.8965 64.5501 37.3908 63.291 38.2948L59.3936 41.0162L54.9031 41.6047H54.8302L54.7572 41.6777C53.2845 42.0104 51.9362 42.7537 50.8685 43.8216C49.8009 44.8895 49.0578 46.2381 48.7252 47.7113L48.6546 47.7842V47.8572L48.0662 52.4195L45.3455 55.9506L45.2702 56.0236V56.0966C43.6251 58.7261 43.5522 62.1208 45.3455 64.6302L48.1392 68.5286L48.8758 72.5777L41.2999 84.1246L38.8734 87.7311H50.1255L52.8462 94.0566L54.5383 98.1033L56.9648 94.4238L64.3925 83.2418C66.3882 84.0611 68.6405 84.1364 70.5728 83.2418L78.0004 94.4238L80.4269 98.1033L82.1191 94.0566L84.8397 87.7311H96.0918L93.6653 84.1246L86.3106 72.945L86.899 68.531L89.6197 64.6326L89.695 64.5596V64.4866C91.3401 61.8571 91.413 58.5355 89.6197 56.026L86.899 52.1252L86.0165 47.7113H86.0894C86.08 47.6548 86.0259 47.6171 86.0165 47.563C85.5928 44.4838 83.1569 41.9837 80.0597 41.6047H79.9844L75.5716 41.0162L71.6742 38.2948C70.457 37.4029 68.9914 36.914 67.4826 36.8965ZM67.4826 41.6777C68.0239 41.6777 68.5582 41.8425 68.9536 42.1203L73.1451 45.1359L73.6606 45.5031L74.2489 45.5784L79.3984 46.3129H79.469C80.5281 46.4306 81.2624 47.1675 81.3824 48.2268V48.3728L82.3403 53.5965L82.4109 54.1121L82.7804 54.5523L85.7952 58.745C86.3577 59.5265 86.4307 60.8519 85.7223 61.9819L82.4132 66.6171L82.3379 67.2056L81.6036 72.3564V72.4271C81.5645 72.795 81.4386 73.1483 81.2365 73.4582L81.0882 73.5335V73.6041C80.7385 74.0243 80.2368 74.2892 79.6926 74.3409H79.5443L74.176 75.2991L73.5876 75.3697L73.1451 75.7393L68.9536 78.7549C68.1722 79.3175 66.7742 79.3905 65.6445 78.6819L61.8201 75.7393L61.3776 75.372L60.7163 75.2967L55.5668 74.5622H55.4962C55.1634 74.5328 54.8426 74.4238 54.5608 74.2444C54.279 74.0649 54.0444 73.8203 53.877 73.5311C53.7206 73.2596 53.6206 72.9594 53.5828 72.6483V72.5024L52.6273 67.1327L52.552 66.5441L52.1848 66.1016L49.17 61.9089C48.6075 61.1273 48.5345 59.729 49.243 58.599L52.1848 54.7736L52.552 54.331L52.6249 53.6695L53.2886 48.74C53.298 48.7047 53.3522 48.7047 53.3616 48.667C53.5083 48.1003 53.8039 47.5832 54.2177 47.1693C54.6316 46.7554 55.1485 46.4597 55.7151 46.3129C55.7527 46.3035 55.7527 46.2494 55.788 46.2399L60.7163 45.5761L61.3047 45.5055L61.8201 45.1359L66.0117 42.1203C66.4071 41.8448 66.9413 41.6777 67.4826 41.6777ZM83.7359 77.5049L87.3415 83.0229H81.6742L81.0859 84.4942L79.469 88.2443L74.4678 80.5935L75.5693 79.786L80.2057 78.9762V79.0492C80.2598 79.0397 80.2951 78.9856 80.3516 78.9762C81.5903 78.7974 82.7582 78.2893 83.7336 77.5049H83.7359ZM51.2293 77.5778C52.2513 78.5072 53.5351 79.0983 54.9055 79.2704H54.9784L59.4666 79.859L60.4951 80.6688L55.4939 88.2443L53.877 84.4942L53.2886 83.0229H47.6261L51.2293 77.5778Z" fill="#3E4671"/>
<path d="M149.709 55.5616C148.211 55.5616 146.853 55.2396 145.635 54.5956C144.431 53.9376 143.479 53.0346 142.779 51.8866C142.093 50.7246 141.75 49.4156 141.75 47.9596C141.75 46.5036 142.093 45.2016 142.779 44.0536C143.479 42.8916 144.431 41.9886 145.635 41.3446C146.853 40.6866 148.218 40.3576 149.73 40.3576C151.004 40.3576 152.152 40.5816 153.174 41.0296C154.21 41.4776 155.078 42.1216 155.778 42.9616L153.594 44.9776C152.6 43.8296 151.368 43.2556 149.898 43.2556C148.988 43.2556 148.176 43.4586 147.462 43.8646C146.748 44.2566 146.188 44.8096 145.782 45.5236C145.39 46.2376 145.194 47.0496 145.194 47.9596C145.194 48.8696 145.39 49.6816 145.782 50.3956C146.188 51.1096 146.748 51.6696 147.462 52.0756C148.176 52.4676 148.988 52.6636 149.898 52.6636C151.368 52.6636 152.6 52.0826 153.594 50.9206L155.778 52.9366C155.078 53.7906 154.21 54.4416 153.174 54.8896C152.138 55.3376 150.983 55.5616 149.709 55.5616ZM168.336 49.7026C168.336 49.7446 168.315 50.0386 168.273 50.5846H159.726C159.88 51.2846 160.244 51.8376 160.818 52.2436C161.392 52.6496 162.106 52.8526 162.96 52.8526C163.548 52.8526 164.066 52.7686 164.514 52.6006C164.976 52.4186 165.403 52.1386 165.795 51.7606L167.538 53.6506C166.474 54.8686 164.92 55.4776 162.876 55.4776C161.602 55.4776 160.475 55.2326 159.495 54.7426C158.515 54.2386 157.759 53.5456 157.227 52.6636C156.695 51.7816 156.429 50.7806 156.429 49.6606C156.429 48.5546 156.688 47.5606 157.206 46.6786C157.738 45.7826 158.459 45.0896 159.369 44.5996C160.293 44.0956 161.322 43.8436 162.456 43.8436C163.562 43.8436 164.563 44.0816 165.459 44.5576C166.355 45.0336 167.055 45.7196 167.559 46.6156C168.077 47.4976 168.336 48.5266 168.336 49.7026ZM162.477 46.3216C161.735 46.3216 161.112 46.5316 160.608 46.9516C160.104 47.3716 159.796 47.9456 159.684 48.6736H165.249C165.137 47.9596 164.829 47.3926 164.325 46.9726C163.821 46.5386 163.205 46.3216 162.477 46.3216ZM177.504 43.8436C178.554 43.8436 179.506 44.0886 180.36 44.5786C181.228 45.0546 181.907 45.7336 182.397 46.6156C182.887 47.4836 183.132 48.4986 183.132 49.6606C183.132 50.8226 182.887 51.8446 182.397 52.7266C181.907 53.5946 181.228 54.2736 180.36 54.7636C179.506 55.2396 178.554 55.4776 177.504 55.4776C176.062 55.4776 174.928 55.0226 174.102 54.1126V59.3836H170.826V44.0116H173.955V45.3136C174.767 44.3336 175.95 43.8436 177.504 43.8436ZM176.937 52.7896C177.777 52.7896 178.463 52.5096 178.995 51.9496C179.541 51.3756 179.814 50.6126 179.814 49.6606C179.814 48.7086 179.541 47.9526 178.995 47.3926C178.463 46.8186 177.777 46.5316 176.937 46.5316C176.097 46.5316 175.404 46.8186 174.858 47.3926C174.326 47.9526 174.06 48.7086 174.06 49.6606C174.06 50.6126 174.326 51.3756 174.858 51.9496C175.404 52.5096 176.097 52.7896 176.937 52.7896ZM194.51 46.6996H190.688V55.3096H187.433V46.6996H183.611V44.0116H194.51V46.6996ZM196.257 44.0116H199.512V50.7316L205.014 44.0116H208.017V55.3096H204.762V48.5896L199.281 55.3096H196.257V44.0116ZM226.769 49.6186C226.769 51.3686 226.181 52.7546 225.005 53.7766C223.843 54.7846 222.177 55.3656 220.007 55.5196V59.3836H217.004V55.5196C214.834 55.3656 213.161 54.7916 211.985 53.7976C210.823 52.7896 210.242 51.3966 210.242 49.6186C210.242 47.8686 210.816 46.5106 211.964 45.5446C213.126 44.5786 214.806 44.0186 217.004 43.8646V39.7276H220.007V43.8646C222.177 44.0186 223.843 44.5856 225.005 45.5656C226.181 46.5456 226.769 47.8966 226.769 49.6186ZM213.413 49.6186C213.413 50.6266 213.7 51.4036 214.274 51.9496C214.848 52.4956 215.758 52.8386 217.004 52.9786V46.4056C215.758 46.5316 214.848 46.8606 214.274 47.3926C213.7 47.9106 213.413 48.6526 213.413 49.6186ZM220.007 52.9786C221.253 52.8386 222.163 52.4956 222.737 51.9496C223.325 51.4036 223.619 50.6266 223.619 49.6186C223.619 48.6526 223.325 47.9106 222.737 47.3926C222.163 46.8606 221.253 46.5316 220.007 46.4056V52.9786ZM228.987 44.0116H232.242V50.7316L237.744 44.0116H240.747V55.3096H237.492V48.5896L232.011 55.3096H228.987V44.0116ZM248.873 51.0256H247.172V55.3096H243.896V44.0116H247.172V48.4006H248.936L252.002 44.0116H255.488L251.54 49.4296L255.761 55.3096H251.897L248.873 51.0256ZM261.554 43.8436C263.304 43.8436 264.648 44.2636 265.586 45.1036C266.524 45.9296 266.993 47.1826 266.993 48.8626V55.3096H263.927V53.9026C263.311 54.9526 262.163 55.4776 260.483 55.4776C259.615 55.4776 258.859 55.3306 258.215 55.0366C257.585 54.7426 257.102 54.3366 256.766 53.8186C256.43 53.3006 256.262 52.7126 256.262 52.0546C256.262 51.0046 256.654 50.1786 257.438 49.5766C258.236 48.9746 259.461 48.6736 261.113 48.6736H263.717C263.717 47.9596 263.5 47.4136 263.066 47.0356C262.632 46.6436 261.981 46.4476 261.113 46.4476C260.511 46.4476 259.916 46.5456 259.328 46.7416C258.754 46.9236 258.264 47.1756 257.858 47.4976L256.682 45.2086C257.298 44.7746 258.033 44.4386 258.887 44.2006C259.755 43.9626 260.644 43.8436 261.554 43.8436ZM261.302 53.2726C261.862 53.2726 262.359 53.1466 262.793 52.8946C263.227 52.6286 263.535 52.2436 263.717 51.7396V50.5846H261.47C260.126 50.5846 259.454 51.0256 259.454 51.9076C259.454 52.3276 259.615 52.6636 259.937 52.9156C260.273 53.1536 260.728 53.2726 261.302 53.2726ZM282.565 52.6216V57.7876H279.52V55.3096H269.839V44.0116H273.094V52.6216H277.651V44.0116H280.927V52.6216H282.565ZM284.625 44.0116H287.88V50.7316L293.382 44.0116H296.385V55.3096H293.13V48.5896L287.649 55.3096H284.625V44.0116ZM309.572 44.0116V55.3096H306.653V52.0756H304.238L302.096 55.3096H298.61L301.193 51.6136C300.409 51.3056 299.807 50.8646 299.387 50.2906C298.981 49.7026 298.778 48.9956 298.778 48.1696C298.778 46.8396 299.254 45.8176 300.206 45.1036C301.172 44.3756 302.495 44.0116 304.175 44.0116H309.572ZM304.238 46.6786C303.538 46.6786 303.006 46.8046 302.642 47.0566C302.292 47.3086 302.117 47.7146 302.117 48.2746C302.117 48.8346 302.285 49.2476 302.621 49.5136C302.971 49.7656 303.496 49.8916 304.196 49.8916H306.653V46.6786H304.238ZM329.903 44.0116V55.3096H326.627V46.6996H321.923V55.3096H318.668V44.0116H329.903ZM338.336 55.4776C337.146 55.4776 336.075 55.2326 335.123 54.7426C334.185 54.2386 333.45 53.5456 332.918 52.6636C332.386 51.7816 332.12 50.7806 332.12 49.6606C332.12 48.5406 332.386 47.5396 332.918 46.6576C333.45 45.7756 334.185 45.0896 335.123 44.5996C336.075 44.0956 337.146 43.8436 338.336 43.8436C339.526 43.8436 340.59 44.0956 341.528 44.5996C342.466 45.0896 343.201 45.7756 343.733 46.6576C344.265 47.5396 344.531 48.5406 344.531 49.6606C344.531 50.7806 344.265 51.7816 343.733 52.6636C343.201 53.5456 342.466 54.2386 341.528 54.7426C340.59 55.2326 339.526 55.4776 338.336 55.4776ZM338.336 52.7896C339.176 52.7896 339.862 52.5096 340.394 51.9496C340.94 51.3756 341.213 50.6126 341.213 49.6606C341.213 48.7086 340.94 47.9526 340.394 47.3926C339.862 46.8186 339.176 46.5316 338.336 46.5316C337.496 46.5316 336.803 46.8186 336.257 47.3926C335.711 47.9526 335.438 48.7086 335.438 49.6606C335.438 50.6126 335.711 51.3756 336.257 51.9496C336.803 52.5096 337.496 52.7896 338.336 52.7896ZM358.107 55.4776C356.903 55.4776 355.818 55.2326 354.852 54.7426C353.9 54.2386 353.151 53.5456 352.605 52.6636C352.073 51.7816 351.807 50.7806 351.807 49.6606C351.807 48.5406 352.073 47.5396 352.605 46.6576C353.151 45.7756 353.9 45.0896 354.852 44.5996C355.818 44.0956 356.903 43.8436 358.107 43.8436C359.297 43.8436 360.333 44.0956 361.215 44.5996C362.111 45.0896 362.762 45.7966 363.168 46.7206L360.627 48.0856C360.039 47.0496 359.192 46.5316 358.086 46.5316C357.232 46.5316 356.525 46.8116 355.965 47.3716C355.405 47.9316 355.125 48.6946 355.125 49.6606C355.125 50.6266 355.405 51.3896 355.965 51.9496C356.525 52.5096 357.232 52.7896 358.086 52.7896C359.206 52.7896 360.053 52.2716 360.627 51.2356L363.168 52.6216C362.762 53.5176 362.111 54.2176 361.215 54.7216C360.333 55.2256 359.297 55.4776 358.107 55.4776ZM374.61 46.6996H370.788V55.3096H367.533V46.6996H363.711V44.0116H374.61V46.6996ZM380.745 43.8436C382.495 43.8436 383.839 44.2636 384.777 45.1036C385.715 45.9296 386.184 47.1826 386.184 48.8626V55.3096H383.118V53.9026C382.502 54.9526 381.354 55.4776 379.674 55.4776C378.806 55.4776 378.05 55.3306 377.406 55.0366C376.776 54.7426 376.293 54.3366 375.957 53.8186C375.621 53.3006 375.453 52.7126 375.453 52.0546C375.453 51.0046 375.845 50.1786 376.629 49.5766C377.427 48.9746 378.652 48.6736 380.304 48.6736H382.908C382.908 47.9596 382.691 47.4136 382.257 47.0356C381.823 46.6436 381.172 46.4476 380.304 46.4476C379.702 46.4476 379.107 46.5456 378.519 46.7416C377.945 46.9236 377.455 47.1756 377.049 47.4976L375.873 45.2086C376.489 44.7746 377.224 44.4386 378.078 44.2006C378.946 43.9626 379.835 43.8436 380.745 43.8436ZM380.493 53.2726C381.053 53.2726 381.55 53.1466 381.984 52.8946C382.418 52.6286 382.726 52.2436 382.908 51.7396V50.5846H380.661C379.317 50.5846 378.645 51.0256 378.645 51.9076C378.645 52.3276 378.806 52.6636 379.128 52.9156C379.464 53.1536 379.919 53.2726 380.493 53.2726ZM389.03 44.0116H392.285V48.4216H397.199V44.0116H400.475V55.3096H397.199V51.0886H392.285V55.3096H389.03V44.0116ZM416.274 52.6216V57.7456H413.229V55.3096H405.291V57.7456H402.246V52.6216H402.708C403.408 52.6076 403.891 52.1946 404.157 51.3826C404.423 50.5706 404.591 49.4156 404.661 47.9176L404.808 44.0116H414.657V52.6216H416.274ZM407.622 48.1486C407.58 49.2966 407.489 50.2346 407.349 50.9626C407.223 51.6906 406.978 52.2436 406.614 52.6216H411.381V46.6996H407.685L407.622 48.1486ZM422.725 43.8436C424.475 43.8436 425.819 44.2636 426.757 45.1036C427.695 45.9296 428.164 47.1826 428.164 48.8626V55.3096H425.098V53.9026C424.482 54.9526 423.334 55.4776 421.654 55.4776C420.786 55.4776 420.03 55.3306 419.386 55.0366C418.756 54.7426 418.273 54.3366 417.937 53.8186C417.601 53.3006 417.433 52.7126 417.433 52.0546C417.433 51.0046 417.825 50.1786 418.609 49.5766C419.407 48.9746 420.632 48.6736 422.284 48.6736H424.888C424.888 47.9596 424.671 47.4136 424.237 47.0356C423.803 46.6436 423.152 46.4476 422.284 46.4476C421.682 46.4476 421.087 46.5456 420.499 46.7416C419.925 46.9236 419.435 47.1756 419.029 47.4976L417.853 45.2086C418.469 44.7746 419.204 44.4386 420.058 44.2006C420.926 43.9626 421.815 43.8436 422.725 43.8436ZM422.473 53.2726C423.033 53.2726 423.53 53.1466 423.964 52.8946C424.398 52.6286 424.706 52.2436 424.888 51.7396V50.5846H422.641C421.297 50.5846 420.625 51.0256 420.625 51.9076C420.625 52.3276 420.786 52.6636 421.108 52.9156C421.444 53.1536 421.899 53.2726 422.473 53.2726ZM437.666 43.8436C438.716 43.8436 439.668 44.0886 440.522 44.5786C441.39 45.0546 442.069 45.7336 442.559 46.6156C443.049 47.4836 443.294 48.4986 443.294 49.6606C443.294 50.8226 443.049 51.8446 442.559 52.7266C442.069 53.5946 441.39 54.2736 440.522 54.7636C439.668 55.2396 438.716 55.4776 437.666 55.4776C436.224 55.4776 435.09 55.0226 434.264 54.1126V59.3836H430.988V44.0116H434.117V45.3136C434.929 44.3336 436.112 43.8436 437.666 43.8436ZM437.099 52.7896C437.939 52.7896 438.625 52.5096 439.157 51.9496C439.703 51.3756 439.976 50.6126 439.976 49.6606C439.976 48.7086 439.703 47.9526 439.157 47.3926C438.625 46.8186 437.939 46.5316 437.099 46.5316C436.259 46.5316 435.566 46.8186 435.02 47.3926C434.488 47.9526 434.222 48.7086 434.222 49.6606C434.222 50.6126 434.488 51.3756 435.02 51.9496C435.566 52.5096 436.259 52.7896 437.099 52.7896ZM454.672 46.6996H450.85V55.3096H447.595V46.6996H443.773V44.0116H454.672V46.6996ZM460.808 43.8436C462.558 43.8436 463.902 44.2636 464.84 45.1036C465.778 45.9296 466.247 47.1826 466.247 48.8626V55.3096H463.181V53.9026C462.565 54.9526 461.417 55.4776 459.737 55.4776C458.869 55.4776 458.113 55.3306 457.469 55.0366C456.839 54.7426 456.356 54.3366 456.02 53.8186C455.684 53.3006 455.516 52.7126 455.516 52.0546C455.516 51.0046 455.908 50.1786 456.692 49.5766C457.49 48.9746 458.715 48.6736 460.367 48.6736H462.971C462.971 47.9596 462.754 47.4136 462.32 47.0356C461.886 46.6436 461.235 46.4476 460.367 46.4476C459.765 46.4476 459.17 46.5456 458.582 46.7416C458.008 46.9236 457.518 47.1756 457.112 47.4976L455.936 45.2086C456.552 44.7746 457.287 44.4386 458.141 44.2006C459.009 43.9626 459.898 43.8436 460.808 43.8436ZM460.556 53.2726C461.116 53.2726 461.613 53.1466 462.047 52.8946C462.481 52.6286 462.789 52.2436 462.971 51.7396V50.5846H460.724C459.38 50.5846 458.708 51.0256 458.708 51.9076C458.708 52.3276 458.869 52.6636 459.191 52.9156C459.527 53.1536 459.982 53.2726 460.556 53.2726ZM480.117 55.3096V48.5476L476.736 54.2176H475.35L472.053 48.5266V55.3096H469.092V44.0116H472.515L476.127 50.5426L479.97 44.0116H483.036L483.078 55.3096H480.117ZM492.332 40.6096H495.734V55.3096H492.332V40.6096ZM504.052 55.5616C502.89 55.5616 501.763 55.4076 500.671 55.0996C499.593 54.7776 498.725 54.3646 498.067 53.8606L499.222 51.2986C499.852 51.7606 500.601 52.1316 501.469 52.4116C502.337 52.6916 503.205 52.8316 504.073 52.8316C505.039 52.8316 505.753 52.6916 506.215 52.4116C506.677 52.1176 506.908 51.7326 506.908 51.2566C506.908 50.9066 506.768 50.6196 506.488 50.3956C506.222 50.1576 505.872 49.9686 505.438 49.8286C505.018 49.6886 504.444 49.5346 503.716 49.3666C502.596 49.1006 501.679 48.8346 500.965 48.5686C500.251 48.3026 499.635 47.8756 499.117 47.2876C498.613 46.6996 498.361 45.9156 498.361 44.9356C498.361 44.0816 498.592 43.3116 499.054 42.6256C499.516 41.9256 500.209 41.3726 501.133 40.9666C502.071 40.5606 503.212 40.3576 504.556 40.3576C505.494 40.3576 506.411 40.4696 507.307 40.6936C508.203 40.9176 508.987 41.2396 509.659 41.6596L508.609 44.2426C507.251 43.4726 505.893 43.0876 504.535 43.0876C503.583 43.0876 502.876 43.2416 502.414 43.5496C501.966 43.8576 501.742 44.2636 501.742 44.7676C501.742 45.2716 502.001 45.6496 502.519 45.9016C503.051 46.1396 503.856 46.3776 504.934 46.6156C506.054 46.8816 506.971 47.1476 507.685 47.4136C508.399 47.6796 509.008 48.0996 509.512 48.6736C510.03 49.2476 510.289 50.0246 510.289 51.0046C510.289 51.8446 510.051 52.6146 509.575 53.3146C509.113 54.0006 508.413 54.5466 507.475 54.9526C506.537 55.3586 505.396 55.5616 504.052 55.5616ZM519.733 55.5616C518.207 55.5616 516.828 55.2326 515.596 54.5746C514.378 53.9166 513.419 53.0136 512.719 51.8656C512.033 50.7036 511.69 49.4016 511.69 47.9596C511.69 46.5176 512.033 45.2226 512.719 44.0746C513.419 42.9126 514.378 42.0026 515.596 41.3446C516.828 40.6866 518.207 40.3576 519.733 40.3576C521.259 40.3576 522.631 40.6866 523.849 41.3446C525.067 42.0026 526.026 42.9126 526.726 44.0746C527.426 45.2226 527.776 46.5176 527.776 47.9596C527.776 49.4016 527.426 50.7036 526.726 51.8656C526.026 53.0136 525.067 53.9166 523.849 54.5746C522.631 55.2326 521.259 55.5616 519.733 55.5616ZM519.733 52.6636C520.601 52.6636 521.385 52.4676 522.085 52.0756C522.785 51.6696 523.331 51.1096 523.723 50.3956C524.129 49.6816 524.332 48.8696 524.332 47.9596C524.332 47.0496 524.129 46.2376 523.723 45.5236C523.331 44.8096 522.785 44.2566 522.085 43.8646C521.385 43.4586 520.601 43.2556 519.733 43.2556C518.865 43.2556 518.081 43.4586 517.381 43.8646C516.681 44.2566 516.128 44.8096 515.722 45.5236C515.33 46.2376 515.134 47.0496 515.134 47.9596C515.134 48.8696 515.33 49.6816 515.722 50.3956C516.128 51.1096 516.681 51.6696 517.381 52.0756C518.081 52.4676 518.865 52.6636 519.733 52.6636ZM530.952 51.4036C531.54 51.4036 532.023 51.5926 532.401 51.9706C532.779 52.3346 532.968 52.8176 532.968 53.4196C532.968 53.6996 532.933 53.9796 532.863 54.2596C532.793 54.5396 532.639 54.9596 532.401 55.5196L531.204 58.5436H529.125L530.049 55.2046C529.699 55.0646 529.419 54.8406 529.209 54.5326C529.013 54.2106 528.915 53.8396 528.915 53.4196C528.915 52.8176 529.104 52.3346 529.482 51.9706C529.874 51.5926 530.364 51.4036 530.952 51.4036ZM551.299 47.7286H554.407V53.6926C553.609 54.2946 552.685 54.7566 551.635 55.0786C550.585 55.4006 549.528 55.5616 548.464 55.5616C546.938 55.5616 545.566 55.2396 544.348 54.5956C543.13 53.9376 542.171 53.0346 541.471 51.8866C540.785 50.7246 540.442 49.4156 540.442 47.9596C540.442 46.5036 540.785 45.2016 541.471 44.0536C542.171 42.8916 543.137 41.9886 544.369 41.3446C545.601 40.6866 546.987 40.3576 548.527 40.3576C549.815 40.3576 550.984 40.5746 552.034 41.0086C553.084 41.4426 553.966 42.0726 554.68 42.8986L552.496 44.9146C551.446 43.8086 550.179 43.2556 548.695 43.2556C547.757 43.2556 546.924 43.4516 546.196 43.8436C545.468 44.2356 544.901 44.7886 544.495 45.5026C544.089 46.2166 543.886 47.0356 543.886 47.9596C543.886 48.8696 544.089 49.6816 544.495 50.3956C544.901 51.1096 545.461 51.6696 546.175 52.0756C546.903 52.4676 547.729 52.6636 548.653 52.6636C549.633 52.6636 550.515 52.4536 551.299 52.0336V47.7286ZM567.248 52.1596H560.423L559.121 55.3096H555.635L562.187 40.6096H565.547L572.12 55.3096H568.55L567.248 52.1596ZM566.177 49.5766L563.846 43.9486L561.515 49.5766H566.177ZM577.047 43.3396V47.2246H583.851V49.9546H577.047V55.3096H573.645V40.6096H584.754V43.3396H577.047ZM590.205 43.3816H585.501V40.6096H598.311V43.3816H593.607V55.3096H590.205V43.3816ZM609.084 52.1596H602.259L600.957 55.3096H597.471L604.023 40.6096H607.383L613.956 55.3096H610.386L609.084 52.1596ZM608.013 49.5766L605.682 43.9486L603.351 49.5766H608.013ZM617.187 51.4036C617.775 51.4036 618.258 51.5926 618.636 51.9706C619.014 52.3346 619.203 52.8176 619.203 53.4196C619.203 53.6996 619.168 53.9796 619.098 54.2596C619.028 54.5396 618.874 54.9596 618.636 55.5196L617.439 58.5436H615.36L616.284 55.2046C615.934 55.0646 615.654 54.8406 615.444 54.5326C615.248 54.2106 615.15 53.8396 615.15 53.4196C615.15 52.8176 615.339 52.3346 615.717 51.9706C616.109 51.5926 616.599 51.4036 617.187 51.4036ZM146.076 69.3396V73.2246H152.88V75.9546H146.076V81.3096H142.674V66.6096H153.783V69.3396H146.076ZM163.061 81.5616C161.535 81.5616 160.156 81.2326 158.924 80.5746C157.706 79.9166 156.747 79.0136 156.047 77.8656C155.361 76.7036 155.018 75.4016 155.018 73.9596C155.018 72.5176 155.361 71.2226 156.047 70.0746C156.747 68.9126 157.706 68.0026 158.924 67.3446C160.156 66.6866 161.535 66.3576 163.061 66.3576C164.587 66.3576 165.959 66.6866 167.177 67.3446C168.395 68.0026 169.354 68.9126 170.054 70.0746C170.754 71.2226 171.104 72.5176 171.104 73.9596C171.104 75.4016 170.754 76.7036 170.054 77.8656C169.354 79.0136 168.395 79.9166 167.177 80.5746C165.959 81.2326 164.587 81.5616 163.061 81.5616ZM163.061 78.6636C163.929 78.6636 164.713 78.4676 165.413 78.0756C166.113 77.6696 166.659 77.1096 167.051 76.3956C167.457 75.6816 167.66 74.8696 167.66 73.9596C167.66 73.0496 167.457 72.2376 167.051 71.5236C166.659 70.8096 166.113 70.2566 165.413 69.8646C164.713 69.4586 163.929 69.2556 163.061 69.2556C162.193 69.2556 161.409 69.4586 160.709 69.8646C160.009 70.2566 159.456 70.8096 159.05 71.5236C158.658 72.2376 158.462 73.0496 158.462 73.9596C158.462 74.8696 158.658 75.6816 159.05 76.3956C159.456 77.1096 160.009 77.6696 160.709 78.0756C161.409 78.4676 162.193 78.6636 163.061 78.6636ZM178.491 81.5616C177.329 81.5616 176.202 81.4076 175.11 81.0996C174.032 80.7776 173.164 80.3646 172.506 79.8606L173.661 77.2986C174.291 77.7606 175.04 78.1316 175.908 78.4116C176.776 78.6916 177.644 78.8316 178.512 78.8316C179.478 78.8316 180.192 78.6916 180.654 78.4116C181.116 78.1176 181.347 77.7326 181.347 77.2566C181.347 76.9066 181.207 76.6196 180.927 76.3956C180.661 76.1576 180.311 75.9686 179.877 75.8286C179.457 75.6886 178.883 75.5346 178.155 75.3666C177.035 75.1006 176.118 74.8346 175.404 74.5686C174.69 74.3026 174.074 73.8756 173.556 73.2876C173.052 72.6996 172.8 71.9156 172.8 70.9356C172.8 70.0816 173.031 69.3116 173.493 68.6256C173.955 67.9256 174.648 67.3726 175.572 66.9666C176.51 66.5606 177.651 66.3576 178.995 66.3576C179.933 66.3576 180.85 66.4696 181.746 66.6936C182.642 66.9176 183.426 67.2396 184.098 67.6596L183.048 70.2426C181.69 69.4726 180.332 69.0876 178.974 69.0876C178.022 69.0876 177.315 69.2416 176.853 69.5496C176.405 69.8576 176.181 70.2636 176.181 70.7676C176.181 71.2716 176.44 71.6496 176.958 71.9016C177.49 72.1396 178.295 72.3776 179.373 72.6156C180.493 72.8816 181.41 73.1476 182.124 73.4136C182.838 73.6796 183.447 74.0996 183.951 74.6736C184.469 75.2476 184.728 76.0246 184.728 77.0046C184.728 77.8446 184.49 78.6146 184.014 79.3146C183.552 80.0006 182.852 80.5466 181.914 80.9526C180.976 81.3586 179.835 81.5616 178.491 81.5616ZM190.454 69.3396V73.2246H197.258V75.9546H190.454V81.3096H187.052V66.6096H198.161V69.3396H190.454ZM209.53 78.1596H202.705L201.403 81.3096H197.917L204.469 66.6096H207.829L214.402 81.3096H210.832L209.53 78.1596ZM208.459 75.5766L206.128 69.9486L203.797 75.5766H208.459ZM217.633 77.4036C218.221 77.4036 218.704 77.5926 219.082 77.9706C219.46 78.3346 219.649 78.8176 219.649 79.4196C219.649 79.6996 219.614 79.9796 219.544 80.2596C219.474 80.5396 219.32 80.9596 219.082 81.5196L217.885 84.5436H215.806L216.73 81.2046C216.38 81.0646 216.1 80.8406 215.89 80.5326C215.694 80.2106 215.596 79.8396 215.596 79.4196C215.596 78.8176 215.785 78.3346 216.163 77.9706C216.555 77.5926 217.045 77.4036 217.633 77.4036ZM238.044 70.0116V81.3096H234.768V77.1096C233.816 77.5856 232.766 77.8236 231.618 77.8236C230.092 77.8236 228.937 77.4806 228.153 76.7946C227.383 76.0946 226.998 75.0166 226.998 73.5606V70.0116H230.274V73.3506C230.274 74.0366 230.449 74.5336 230.799 74.8416C231.163 75.1496 231.681 75.3036 232.353 75.3036C233.207 75.3036 234.012 75.1216 234.768 74.7576V70.0116H238.044ZM252.025 70.0116V81.3096H248.749V72.6996H245.179L245.074 74.6946C245.018 76.1786 244.878 77.4106 244.654 78.3906C244.43 79.3706 244.066 80.1406 243.562 80.7006C243.058 81.2606 242.358 81.5406 241.462 81.5406C240.986 81.5406 240.419 81.4566 239.761 81.2886L239.929 78.6006C240.153 78.6286 240.314 78.6426 240.412 78.6426C240.902 78.6426 241.266 78.4676 241.504 78.1176C241.756 77.7536 241.924 77.2986 242.008 76.7526C242.092 76.1926 242.155 75.4576 242.197 74.5476L242.365 70.0116H252.025ZM266.158 75.7026C266.158 75.7446 266.137 76.0386 266.095 76.5846H257.548C257.702 77.2846 258.066 77.8376 258.64 78.2436C259.214 78.6496 259.928 78.8526 260.782 78.8526C261.37 78.8526 261.888 78.7686 262.336 78.6006C262.798 78.4186 263.225 78.1386 263.617 77.7606L265.36 79.6506C264.296 80.8686 262.742 81.4776 260.698 81.4776C259.424 81.4776 258.297 81.2326 257.317 80.7426C256.337 80.2386 255.581 79.5456 255.049 78.6636C254.517 77.7816 254.251 76.7806 254.251 75.6606C254.251 74.5546 254.51 73.5606 255.028 72.6786C255.56 71.7826 256.281 71.0896 257.191 70.5996C258.115 70.0956 259.144 69.8436 260.278 69.8436C261.384 69.8436 262.385 70.0816 263.281 70.5576C264.177 71.0336 264.877 71.7196 265.381 72.6156C265.899 73.4976 266.158 74.5266 266.158 75.7026ZM260.299 72.3216C259.557 72.3216 258.934 72.5316 258.43 72.9516C257.926 73.3716 257.618 73.9456 257.506 74.6736H263.071C262.959 73.9596 262.651 73.3926 262.147 72.9726C261.643 72.5386 261.027 72.3216 260.299 72.3216ZM268.67 70.0116H271.925V74.4216H276.839V70.0116H280.115V81.3096H276.839V77.0886H271.925V81.3096H268.67V70.0116ZM288.627 81.4776C287.423 81.4776 286.338 81.2326 285.372 80.7426C284.42 80.2386 283.671 79.5456 283.125 78.6636C282.593 77.7816 282.327 76.7806 282.327 75.6606C282.327 74.5406 282.593 73.5396 283.125 72.6576C283.671 71.7756 284.42 71.0896 285.372 70.5996C286.338 70.0956 287.423 69.8436 288.627 69.8436C289.817 69.8436 290.853 70.0956 291.735 70.5996C292.631 71.0896 293.282 71.7966 293.688 72.7206L291.147 74.0856C290.559 73.0496 289.712 72.5316 288.606 72.5316C287.752 72.5316 287.045 72.8116 286.485 73.3716C285.925 73.9316 285.645 74.6946 285.645 75.6606C285.645 76.6266 285.925 77.3896 286.485 77.9496C287.045 78.5096 287.752 78.7896 288.606 78.7896C289.726 78.7896 290.573 78.2716 291.147 77.2356L293.688 78.6216C293.282 79.5176 292.631 80.2176 291.735 80.7216C290.853 81.2256 289.817 81.4776 288.627 81.4776ZM305.129 72.6996H301.307V81.3096H298.052V72.6996H294.23V70.0116H305.129V72.6996ZM315.507 75.4086C316.837 75.8566 317.502 76.7526 317.502 78.0966C317.502 79.1186 317.117 79.9096 316.347 80.4696C315.577 81.0296 314.429 81.3096 312.903 81.3096H306.876V70.0116H312.651C314.065 70.0116 315.171 70.2706 315.969 70.7886C316.767 71.2926 317.166 72.0066 317.166 72.9306C317.166 73.4906 317.019 73.9876 316.725 74.4216C316.445 74.8416 316.039 75.1706 315.507 75.4086ZM309.879 74.6526H312.357C313.505 74.6526 314.079 74.2466 314.079 73.4346C314.079 72.6366 313.505 72.2376 312.357 72.2376H309.879V74.6526ZM312.63 79.0836C313.834 79.0836 314.436 78.6706 314.436 77.8446C314.436 77.4106 314.296 77.0956 314.016 76.8996C313.736 76.6896 313.295 76.5846 312.693 76.5846H309.879V79.0836H312.63ZM325.231 81.4776C324.041 81.4776 322.97 81.2326 322.018 80.7426C321.08 80.2386 320.345 79.5456 319.813 78.6636C319.281 77.7816 319.015 76.7806 319.015 75.6606C319.015 74.5406 319.281 73.5396 319.813 72.6576C320.345 71.7756 321.08 71.0896 322.018 70.5996C322.97 70.0956 324.041 69.8436 325.231 69.8436C326.421 69.8436 327.485 70.0956 328.423 70.5996C329.361 71.0896 330.096 71.7756 330.628 72.6576C331.16 73.5396 331.426 74.5406 331.426 75.6606C331.426 76.7806 331.16 77.7816 330.628 78.6636C330.096 79.5456 329.361 80.2386 328.423 80.7426C327.485 81.2326 326.421 81.4776 325.231 81.4776ZM325.231 78.7896C326.071 78.7896 326.757 78.5096 327.289 77.9496C327.835 77.3756 328.108 76.6126 328.108 75.6606C328.108 74.7086 327.835 73.9526 327.289 73.3926C326.757 72.8186 326.071 72.5316 325.231 72.5316C324.391 72.5316 323.698 72.8186 323.152 73.3926C322.606 73.9526 322.333 74.7086 322.333 75.6606C322.333 76.6126 322.606 77.3756 323.152 77.9496C323.698 78.5096 324.391 78.7896 325.231 78.7896ZM348.258 75.4086C349.588 75.8566 350.253 76.7526 350.253 78.0966C350.253 79.1186 349.868 79.9096 349.098 80.4696C348.328 81.0296 347.18 81.3096 345.654 81.3096H339.627V70.0116H345.402C346.816 70.0116 347.922 70.2706 348.72 70.7886C349.518 71.2926 349.917 72.0066 349.917 72.9306C349.917 73.4906 349.77 73.9876 349.476 74.4216C349.196 74.8416 348.79 75.1706 348.258 75.4086ZM342.63 74.6526H345.108C346.256 74.6526 346.83 74.2466 346.83 73.4346C346.83 72.6366 346.256 72.2376 345.108 72.2376H342.63V74.6526ZM345.381 79.0836C346.585 79.0836 347.187 78.6706 347.187 77.8446C347.187 77.4106 347.047 77.0956 346.767 76.8996C346.487 76.6896 346.046 76.5846 345.444 76.5846H342.63V79.0836H345.381ZM361.85 69.3816H357.146V66.6096H369.956V69.3816H365.252V81.3096H361.85V69.3816ZM371.787 66.6096H375.189V81.3096H371.787V66.6096ZM385.712 81.5616C384.214 81.5616 382.856 81.2396 381.638 80.5956C380.434 79.9376 379.482 79.0346 378.782 77.8866C378.096 76.7246 377.753 75.4156 377.753 73.9596C377.753 72.5036 378.096 71.2016 378.782 70.0536C379.482 68.8916 380.434 67.9886 381.638 67.3446C382.856 66.6866 384.221 66.3576 385.733 66.3576C387.007 66.3576 388.155 66.5816 389.177 67.0296C390.213 67.4776 391.081 68.1216 391.781 68.9616L389.597 70.9776C388.603 69.8296 387.371 69.2556 385.901 69.2556C384.991 69.2556 384.179 69.4586 383.465 69.8646C382.751 70.2566 382.191 70.8096 381.785 71.5236C381.393 72.2376 381.197 73.0496 381.197 73.9596C381.197 74.8696 381.393 75.6816 381.785 76.3956C382.191 77.1096 382.751 77.6696 383.465 78.0756C384.179 78.4676 384.991 78.6636 385.901 78.6636C387.371 78.6636 388.603 78.0826 389.597 76.9206L391.781 78.9366C391.081 79.7906 390.213 80.4416 389.177 80.8896C388.141 81.3376 386.986 81.5616 385.712 81.5616ZM407.061 81.5616C405.563 81.5616 404.205 81.2396 402.987 80.5956C401.783 79.9376 400.831 79.0346 400.131 77.8866C399.445 76.7246 399.102 75.4156 399.102 73.9596C399.102 72.5036 399.445 71.2016 400.131 70.0536C400.831 68.8916 401.783 67.9886 402.987 67.3446C404.205 66.6866 405.57 66.3576 407.082 66.3576C408.356 66.3576 409.504 66.5816 410.526 67.0296C411.562 67.4776 412.43 68.1216 413.13 68.9616L410.946 70.9776C409.952 69.8296 408.72 69.2556 407.25 69.2556C406.34 69.2556 405.528 69.4586 404.814 69.8646C404.1 70.2566 403.54 70.8096 403.134 71.5236C402.742 72.2376 402.546 73.0496 402.546 73.9596C402.546 74.8696 402.742 75.6816 403.134 76.3956C403.54 77.1096 404.1 77.6696 404.814 78.0756C405.528 78.4676 406.34 78.6636 407.25 78.6636C408.72 78.6636 409.952 78.0826 410.946 76.9206L413.13 78.9366C412.43 79.7906 411.562 80.4416 410.526 80.8896C409.49 81.3376 408.335 81.5616 407.061 81.5616ZM420.183 81.4776C418.993 81.4776 417.922 81.2326 416.97 80.7426C416.032 80.2386 415.297 79.5456 414.765 78.6636C414.233 77.7816 413.967 76.7806 413.967 75.6606C413.967 74.5406 414.233 73.5396 414.765 72.6576C415.297 71.7756 416.032 71.0896 416.97 70.5996C417.922 70.0956 418.993 69.8436 420.183 69.8436C421.373 69.8436 422.437 70.0956 423.375 70.5996C424.313 71.0896 425.048 71.7756 425.58 72.6576C426.112 73.5396 426.378 74.5406 426.378 75.6606C426.378 76.7806 426.112 77.7816 425.58 78.6636C425.048 79.5456 424.313 80.2386 423.375 80.7426C422.437 81.2326 421.373 81.4776 420.183 81.4776ZM420.183 78.7896C421.023 78.7896 421.709 78.5096 422.241 77.9496C422.787 77.3756 423.06 76.6126 423.06 75.6606C423.06 74.7086 422.787 73.9526 422.241 73.3926C421.709 72.8186 421.023 72.5316 420.183 72.5316C419.343 72.5316 418.65 72.8186 418.104 73.3926C417.558 73.9526 417.285 74.7086 417.285 75.6606C417.285 76.6126 417.558 77.3756 418.104 77.9496C418.65 78.5096 419.343 78.7896 420.183 78.7896ZM439.95 70.0116V81.3096H436.842V79.9656C436.408 80.4556 435.89 80.8336 435.288 81.0996C434.686 81.3516 434.035 81.4776 433.335 81.4776C431.851 81.4776 430.675 81.0506 429.807 80.1966C428.939 79.3426 428.505 78.0756 428.505 76.3956V70.0116H431.781V75.9126C431.781 77.7326 432.544 78.6426 434.07 78.6426C434.854 78.6426 435.484 78.3906 435.96 77.8866C436.436 77.3686 436.674 76.6056 436.674 75.5976V70.0116H439.95ZM449.852 69.8436C451.252 69.8436 452.379 70.2636 453.233 71.1036C454.101 71.9436 454.535 73.1896 454.535 74.8416V81.3096H451.259V75.3456C451.259 74.4496 451.063 73.7846 450.671 73.3506C450.279 72.9026 449.712 72.6786 448.97 72.6786C448.144 72.6786 447.486 72.9376 446.996 73.4556C446.506 73.9596 446.261 74.7156 446.261 75.7236V81.3096H442.985V70.0116H446.114V71.3346C446.548 70.8586 447.087 70.4946 447.731 70.2426C448.375 69.9766 449.082 69.8436 449.852 69.8436ZM463.087 81.4776C461.883 81.4776 460.798 81.2326 459.832 80.7426C458.88 80.2386 458.131 79.5456 457.585 78.6636C457.053 77.7816 456.787 76.7806 456.787 75.6606C456.787 74.5406 457.053 73.5396 457.585 72.6576C458.131 71.7756 458.88 71.0896 459.832 70.5996C460.798 70.0956 461.883 69.8436 463.087 69.8436C464.277 69.8436 465.313 70.0956 466.195 70.5996C467.091 71.0896 467.742 71.7966 468.148 72.7206L465.607 74.0856C465.019 73.0496 464.172 72.5316 463.066 72.5316C462.212 72.5316 461.505 72.8116 460.945 73.3716C460.385 73.9316 460.105 74.6946 460.105 75.6606C460.105 76.6266 460.385 77.3896 460.945 77.9496C461.505 78.5096 462.212 78.7896 463.066 78.7896C464.186 78.7896 465.033 78.2716 465.607 77.2356L468.148 78.6216C467.742 79.5176 467.091 80.2176 466.195 80.7216C465.313 81.2256 464.277 81.4776 463.087 81.4776ZM470.034 70.0116H473.31V81.3096H470.034V70.0116ZM471.672 68.4366C471.07 68.4366 470.58 68.2616 470.202 67.9116C469.824 67.5616 469.635 67.1276 469.635 66.6096C469.635 66.0916 469.824 65.6576 470.202 65.3076C470.58 64.9576 471.07 64.7826 471.672 64.7826C472.274 64.7826 472.764 64.9506 473.142 65.2866C473.52 65.6226 473.709 66.0426 473.709 66.5466C473.709 67.0926 473.52 67.5476 473.142 67.9116C472.764 68.2616 472.274 68.4366 471.672 68.4366ZM476.351 65.7276H479.627V81.3096H476.351V65.7276Z" fill="white"/>
</svg>
