<svg width="542" height="114" viewBox="0 0 542 114" fill="none" xmlns="http://www.w3.org/2000/svg">
<rect x="26.0402" y="14.415" width="515.96" height="85.2381" fill="#3E4671"/>
<path d="M111.958 56.7209C111.958 86.9339 87.3513 111.442 56.9788 111.442C26.6063 111.442 2 86.9339 2 56.7209C2 26.5079 26.6063 2 56.9788 2C87.3513 2 111.958 26.5079 111.958 56.7209Z" fill="white" stroke="#3E4671" stroke-width="4"/>
<path d="M72.4431 32.9834C74.7144 32.9834 76.8926 33.8865 78.4986 35.4941C80.1047 37.1017 81.0069 39.2821 81.0069 41.5555V71.8876C81.0069 74.1611 80.1047 76.3415 78.4986 77.949C76.8926 79.5566 74.7144 80.4598 72.4431 80.4598H42.1406C39.8693 80.4598 37.6911 79.5566 36.0851 77.949C34.479 76.3415 33.5768 74.1611 33.5768 71.8876V41.5555C33.5768 39.2821 34.479 37.1017 36.0851 35.4941C37.6911 33.8865 39.8693 32.9834 42.1406 32.9834H72.4431ZM72.4431 36.9398H42.1406C40.9176 36.9398 39.7447 37.4261 38.8799 38.2917C38.0151 39.1573 37.5293 40.3313 37.5293 41.5555V71.8876C37.5293 74.4355 39.5951 76.5034 42.1406 76.5034H72.4431C73.6661 76.5034 74.839 76.0171 75.7038 75.1515C76.5686 74.2858 77.0544 73.1118 77.0544 71.8876V41.5555C77.0544 40.3313 76.5686 39.1573 75.7038 38.2917C74.839 37.4261 73.6661 36.9398 72.4431 36.9398Z" fill="#3E4671"/>
<path d="M60.5856 46.1709C61.1098 46.1709 61.6124 46.3793 61.9831 46.7503C62.3537 47.1213 62.5619 47.6244 62.5619 48.1491V55.4024H66.5144V48.1491C66.5144 47.6244 66.7226 47.1213 67.0932 46.7503C67.4639 46.3793 67.9665 46.1709 68.4907 46.1709C69.0148 46.1709 69.5175 46.3793 69.8881 46.7503C70.2587 47.1213 70.4669 47.6244 70.4669 48.1491V65.2142C70.4669 65.7388 70.2587 66.242 69.8881 66.613C69.5175 66.984 69.0148 67.1924 68.4907 67.1924C67.9665 67.1924 67.4639 66.984 67.0932 66.613C66.7226 66.242 66.5144 65.7388 66.5144 65.2142V59.3588H60.5856C60.0615 59.3588 59.5588 59.1504 59.1882 58.7794C58.8176 58.4084 58.6094 57.9052 58.6094 57.3806V48.1491C58.6094 47.6244 58.8176 47.1213 59.1882 46.7503C59.5588 46.3793 60.0615 46.1709 60.5856 46.1709Z" fill="#3E4671"/>
<path d="M45.4342 48.1333C46.3485 47.1257 47.8452 46.1709 50.0455 46.1709C53.081 46.1709 55.0362 48.2599 55.7239 50.5519C56.3906 52.7859 55.9874 55.5501 54.0902 57.4571C53.4393 58.1112 52.6726 58.7047 52.0006 59.2243L51.8952 59.306C51.1574 59.8757 50.4987 60.3927 49.919 60.9677C49.247 61.6429 48.6963 62.3788 48.3775 63.3151H53.998C54.5221 63.3151 55.0248 63.5236 55.3954 63.8945C55.766 64.2655 55.9742 64.7687 55.9742 65.2933C55.9742 65.818 55.766 66.3211 55.3954 66.6921C55.0248 67.0631 54.5221 67.2715 53.998 67.2715H46.0929C45.5688 67.2715 45.0661 67.0631 44.6955 66.6921C44.3249 66.3211 44.1167 65.818 44.1167 65.2933C44.1167 62.0043 45.4974 59.7992 47.1311 58.1692C47.9111 57.3885 48.7596 56.7317 49.4763 56.1752L49.4842 56.1699C50.2378 55.587 50.8228 55.1334 51.2892 54.6665C52.0059 53.9438 52.2562 52.7543 51.9374 51.6861C51.6344 50.6812 50.9624 50.1273 50.0455 50.1273C49.1153 50.1273 48.6357 50.4886 48.359 50.7946C48.1981 50.9736 48.0673 51.1776 47.9717 51.3986L47.9664 51.4065C47.8011 51.9007 47.4476 52.3096 46.9827 52.5444C46.5178 52.7792 45.9791 52.8208 45.4838 52.6603C44.9884 52.4998 44.5763 52.15 44.3371 51.6871C44.0979 51.2241 44.0509 50.6854 44.2063 50.1879L44.2985 49.9347C44.5692 49.2731 44.9526 48.6636 45.4316 48.1333H45.4342Z" fill="#3E4671"/>
<path d="M125.942 51.228C124.587 51.228 123.358 50.9367 122.256 50.354C121.167 49.7587 120.305 48.9417 119.672 47.903C119.051 46.8517 118.741 45.6673 118.741 44.35C118.741 43.0327 119.051 41.8547 119.672 40.816C120.305 39.7647 121.167 38.9477 122.256 38.365C123.358 37.7697 124.593 37.472 125.961 37.472C127.114 37.472 128.152 37.6747 129.077 38.08C130.014 38.4853 130.8 39.068 131.433 39.828L129.457 41.652C128.558 40.6133 127.443 40.094 126.113 40.094C125.29 40.094 124.555 40.2777 123.909 40.645C123.263 40.9997 122.756 41.5 122.389 42.146C122.034 42.792 121.857 43.5267 121.857 44.35C121.857 45.1733 122.034 45.908 122.389 46.554C122.756 47.2 123.263 47.7067 123.909 48.074C124.555 48.4287 125.29 48.606 126.113 48.606C127.443 48.606 128.558 48.0803 129.457 47.029L131.433 48.853C130.8 49.6257 130.014 50.2147 129.077 50.62C128.14 51.0253 127.095 51.228 125.942 51.228ZM139.234 40.626C140.184 40.626 141.045 40.8477 141.818 41.291C142.603 41.7217 143.218 42.336 143.661 43.134C144.104 43.9193 144.326 44.8377 144.326 45.889C144.326 46.9403 144.104 47.865 143.661 48.663C143.218 49.4483 142.603 50.0627 141.818 50.506C141.045 50.9367 140.184 51.152 139.234 51.152C137.929 51.152 136.903 50.7403 136.156 49.917V54.686H133.192V40.778H136.023V41.956C136.758 41.0693 137.828 40.626 139.234 40.626ZM138.721 48.72C139.481 48.72 140.102 48.4667 140.583 47.96C141.077 47.4407 141.324 46.7503 141.324 45.889C141.324 45.0277 141.077 44.3437 140.583 43.837C140.102 43.3177 139.481 43.058 138.721 43.058C137.961 43.058 137.334 43.3177 136.84 43.837C136.359 44.3437 136.118 45.0277 136.118 45.889C136.118 46.7503 136.359 47.4407 136.84 47.96C137.334 48.4667 137.961 48.72 138.721 48.72ZM151.192 51.152C150.115 51.152 149.146 50.9303 148.285 50.487C147.436 50.031 146.771 49.404 146.29 48.606C145.808 47.808 145.568 46.9023 145.568 45.889C145.568 44.8757 145.808 43.97 146.29 43.172C146.771 42.374 147.436 41.7533 148.285 41.31C149.146 40.854 150.115 40.626 151.192 40.626C152.268 40.626 153.231 40.854 154.08 41.31C154.928 41.7533 155.593 42.374 156.075 43.172C156.556 43.97 156.797 44.8757 156.797 45.889C156.797 46.9023 156.556 47.808 156.075 48.606C155.593 49.404 154.928 50.031 154.08 50.487C153.231 50.9303 152.268 51.152 151.192 51.152ZM151.192 48.72C151.952 48.72 152.572 48.4667 153.054 47.96C153.548 47.4407 153.795 46.7503 153.795 45.889C153.795 45.0277 153.548 44.3437 153.054 43.837C152.572 43.3177 151.952 43.058 151.192 43.058C150.432 43.058 149.805 43.3177 149.311 43.837C148.817 44.3437 148.57 45.0277 148.57 45.889C148.57 46.7503 148.817 47.4407 149.311 47.96C149.805 48.4667 150.432 48.72 151.192 48.72ZM163.338 47.124H161.799V51H158.835V40.778H161.799V44.749H163.395L166.169 40.778H169.323L165.751 45.68L169.57 51H166.074L163.338 47.124ZM184.215 45.661C185.419 46.0663 186.02 46.877 186.02 48.093C186.02 49.0177 185.672 49.7333 184.975 50.24C184.279 50.7467 183.24 51 181.859 51H176.406V40.778H181.631C182.911 40.778 183.911 41.0123 184.633 41.481C185.355 41.937 185.716 42.583 185.716 43.419C185.716 43.9257 185.583 44.3753 185.317 44.768C185.064 45.148 184.697 45.4457 184.215 45.661ZM179.123 44.977H181.365C182.404 44.977 182.923 44.6097 182.923 43.875C182.923 43.153 182.404 42.792 181.365 42.792H179.123V44.977ZM181.612 48.986C182.702 48.986 183.246 48.6123 183.246 47.865C183.246 47.4723 183.12 47.1873 182.866 47.01C182.613 46.82 182.214 46.725 181.669 46.725H179.123V48.986H181.612ZM193.603 44.046C194.933 44.0587 195.94 44.3563 196.624 44.939C197.308 45.5217 197.65 46.3577 197.65 47.447C197.65 48.587 197.263 49.4673 196.491 50.088C195.718 50.7087 194.622 51.019 193.204 51.019L188.226 51V40.778H191.171V44.046H193.603ZM198.752 40.778H201.697V51H198.752V40.778ZM192.938 48.91C193.508 48.9227 193.945 48.8023 194.249 48.549C194.553 48.2957 194.705 47.9157 194.705 47.409C194.705 46.915 194.553 46.554 194.249 46.326C193.957 46.098 193.52 45.9777 192.938 45.965L191.171 45.946V48.91H192.938ZM216.011 48.568V53.204H213.256V51H206.074V53.204H203.319V48.568H203.737C204.37 48.5553 204.807 48.1817 205.048 47.447C205.289 46.7123 205.441 45.6673 205.504 44.312L205.637 40.778H214.548V48.568H216.011ZM208.183 44.521C208.145 45.5597 208.063 46.4083 207.936 47.067C207.822 47.7257 207.6 48.226 207.271 48.568H211.584V43.21H208.24L208.183 44.521ZM221.847 40.626C223.431 40.626 224.647 41.006 225.495 41.766C226.344 42.5133 226.768 43.647 226.768 45.167V51H223.994V49.727C223.437 50.677 222.398 51.152 220.878 51.152C220.093 51.152 219.409 51.019 218.826 50.753C218.256 50.487 217.819 50.1197 217.515 49.651C217.211 49.1823 217.059 48.6503 217.059 48.055C217.059 47.105 217.414 46.3577 218.123 45.813C218.845 45.2683 219.954 44.996 221.448 44.996H223.804C223.804 44.35 223.608 43.856 223.215 43.514C222.823 43.1593 222.234 42.982 221.448 42.982C220.904 42.982 220.365 43.0707 219.833 43.248C219.314 43.4127 218.871 43.6407 218.503 43.932L217.439 41.861C217.997 41.4683 218.662 41.1643 219.434 40.949C220.22 40.7337 221.024 40.626 221.847 40.626ZM221.619 49.157C222.126 49.157 222.576 49.043 222.968 48.815C223.361 48.5743 223.64 48.226 223.804 47.77V46.725H221.771C220.555 46.725 219.947 47.124 219.947 47.922C219.947 48.302 220.093 48.606 220.384 48.834C220.688 49.0493 221.1 49.157 221.619 49.157ZM238.539 40.778V51H235.575V47.2C234.714 47.6307 233.764 47.846 232.725 47.846C231.344 47.846 230.299 47.5357 229.59 46.915C228.893 46.2817 228.545 45.3063 228.545 43.989V40.778H231.509V43.799C231.509 44.4197 231.667 44.8693 231.984 45.148C232.313 45.4267 232.782 45.566 233.39 45.566C234.163 45.566 234.891 45.4013 235.575 45.072V40.778H238.539ZM241.385 40.778H244.33V46.858L249.308 40.778H252.025V51H249.08V44.92L244.121 51H241.385V40.778ZM265.119 51.152C264.03 51.152 263.048 50.9303 262.174 50.487C261.313 50.031 260.635 49.404 260.141 48.606C259.66 47.808 259.419 46.9023 259.419 45.889C259.419 44.8757 259.66 43.97 260.141 43.172C260.635 42.374 261.313 41.7533 262.174 41.31C263.048 40.854 264.03 40.626 265.119 40.626C266.196 40.626 267.133 40.854 267.931 41.31C268.742 41.7533 269.331 42.393 269.698 43.229L267.399 44.464C266.867 43.5267 266.101 43.058 265.1 43.058C264.327 43.058 263.688 43.3113 263.181 43.818C262.674 44.3247 262.421 45.015 262.421 45.889C262.421 46.763 262.674 47.4533 263.181 47.96C263.688 48.4667 264.327 48.72 265.1 48.72C266.113 48.72 266.88 48.2513 267.399 47.314L269.698 48.568C269.331 49.3787 268.742 50.012 267.931 50.468C267.133 50.924 266.196 51.152 265.119 51.152ZM281.17 40.626C282.209 40.626 283.14 40.854 283.963 41.31C284.787 41.7533 285.433 42.374 285.901 43.172C286.37 43.97 286.604 44.8757 286.604 45.889C286.604 46.9023 286.37 47.808 285.901 48.606C285.433 49.404 284.787 50.031 283.963 50.487C283.14 50.9303 282.209 51.152 281.17 51.152C280.271 51.152 279.448 50.9873 278.7 50.658C277.953 50.316 277.332 49.841 276.838 49.233C276.344 48.6123 276.015 47.903 275.85 47.105H274.444V51H271.499V40.778H274.444V44.54H275.869C276.161 43.3493 276.781 42.3993 277.731 41.69C278.681 40.9807 279.828 40.626 281.17 40.626ZM281.17 48.72C281.892 48.72 282.488 48.4667 282.956 47.96C283.438 47.4407 283.678 46.7503 283.678 45.889C283.678 45.015 283.438 44.3247 282.956 43.818C282.488 43.3113 281.892 43.058 281.17 43.058C280.436 43.058 279.828 43.3113 279.346 43.818C278.878 44.3247 278.643 45.015 278.643 45.889C278.643 46.7503 278.878 47.4407 279.346 47.96C279.828 48.4667 280.436 48.72 281.17 48.72ZM294.685 40.626C295.635 40.626 296.497 40.8477 297.269 41.291C298.055 41.7217 298.669 42.336 299.112 43.134C299.556 43.9193 299.777 44.8377 299.777 45.889C299.777 46.9403 299.556 47.865 299.112 48.663C298.669 49.4483 298.055 50.0627 297.269 50.506C296.497 50.9367 295.635 51.152 294.685 51.152C293.381 51.152 292.355 50.7403 291.607 49.917V54.686H288.643V40.778H291.474V41.956C292.209 41.0693 293.279 40.626 294.685 40.626ZM294.172 48.72C294.932 48.72 295.553 48.4667 296.034 47.96C296.528 47.4407 296.775 46.7503 296.775 45.889C296.775 45.0277 296.528 44.3437 296.034 43.837C295.553 43.3177 294.932 43.058 294.172 43.058C293.412 43.058 292.785 43.3177 292.291 43.837C291.81 44.3437 291.569 45.0277 291.569 45.889C291.569 46.7503 291.81 47.4407 292.291 47.96C292.785 48.4667 293.412 48.72 294.172 48.72ZM309.664 45.661C310.867 46.0663 311.469 46.877 311.469 48.093C311.469 49.0177 311.12 49.7333 310.424 50.24C309.727 50.7467 308.688 51 307.308 51H301.855V40.778H307.08C308.359 40.778 309.36 41.0123 310.082 41.481C310.804 41.937 311.165 42.583 311.165 43.419C311.165 43.9257 311.032 44.3753 310.766 44.768C310.512 45.148 310.145 45.4457 309.664 45.661ZM304.572 44.977H306.814C307.852 44.977 308.372 44.6097 308.372 43.875C308.372 43.153 307.852 42.792 306.814 42.792H304.572V44.977ZM307.061 48.986C308.15 48.986 308.695 48.6123 308.695 47.865C308.695 47.4723 308.568 47.1873 308.315 47.01C308.061 46.82 307.662 46.725 307.118 46.725H304.572V48.986H307.061ZM323.611 45.927C323.611 45.965 323.592 46.231 323.554 46.725H315.821C315.96 47.3583 316.29 47.8587 316.809 48.226C317.328 48.5933 317.974 48.777 318.747 48.777C319.279 48.777 319.748 48.701 320.153 48.549C320.571 48.3843 320.957 48.131 321.312 47.789L322.889 49.499C321.926 50.601 320.52 51.152 318.671 51.152C317.518 51.152 316.499 50.9303 315.612 50.487C314.725 50.031 314.041 49.404 313.56 48.606C313.079 47.808 312.838 46.9023 312.838 45.889C312.838 44.8883 313.072 43.989 313.541 43.191C314.022 42.3803 314.675 41.7533 315.498 41.31C316.334 40.854 317.265 40.626 318.291 40.626C319.292 40.626 320.197 40.8413 321.008 41.272C321.819 41.7027 322.452 42.3233 322.908 43.134C323.377 43.932 323.611 44.863 323.611 45.927ZM318.31 42.868C317.639 42.868 317.075 43.058 316.619 43.438C316.163 43.818 315.884 44.3373 315.783 44.996H320.818C320.717 44.35 320.438 43.837 319.982 43.457C319.526 43.0643 318.969 42.868 318.31 42.868ZM325.883 40.778H328.828V46.858L333.806 40.778H336.523V51H333.578V44.92L328.619 51H325.883V40.778ZM331.013 39.676C328.784 39.676 327.663 38.6943 327.65 36.731H329.588C329.601 37.1743 329.721 37.5227 329.949 37.776C330.19 38.0167 330.538 38.137 330.994 38.137C331.45 38.137 331.798 38.0167 332.039 37.776C332.292 37.5227 332.419 37.1743 332.419 36.731H334.395C334.382 38.6943 333.255 39.676 331.013 39.676ZM349.309 45.927C349.309 45.965 349.29 46.231 349.252 46.725H341.519C341.659 47.3583 341.988 47.8587 342.507 48.226C343.027 48.5933 343.673 48.777 344.445 48.777C344.977 48.777 345.446 48.701 345.851 48.549C346.269 48.3843 346.656 48.131 347.01 47.789L348.587 49.499C347.625 50.601 346.219 51.152 344.369 51.152C343.217 51.152 342.197 50.9303 341.31 50.487C340.424 50.031 339.74 49.404 339.258 48.606C338.777 47.808 338.536 46.9023 338.536 45.889C338.536 44.8883 338.771 43.989 339.239 43.191C339.721 42.3803 340.373 41.7533 341.196 41.31C342.032 40.854 342.963 40.626 343.989 40.626C344.99 40.626 345.896 40.8413 346.706 41.272C347.517 41.7027 348.15 42.3233 348.606 43.134C349.075 43.932 349.309 44.863 349.309 45.927ZM344.008 42.868C343.337 42.868 342.773 43.058 342.317 43.438C341.861 43.818 341.583 44.3373 341.481 44.996H346.516C346.415 44.35 346.136 43.837 345.68 43.457C345.224 43.0643 344.667 42.868 344.008 42.868ZM357.604 40.626C358.554 40.626 359.416 40.8477 360.188 41.291C360.974 41.7217 361.588 42.336 362.031 43.134C362.475 43.9193 362.696 44.8377 362.696 45.889C362.696 46.9403 362.475 47.865 362.031 48.663C361.588 49.4483 360.974 50.0627 360.188 50.506C359.416 50.9367 358.554 51.152 357.604 51.152C356.3 51.152 355.274 50.7403 354.526 49.917V54.686H351.562V40.778H354.393V41.956C355.128 41.0693 356.198 40.626 357.604 40.626ZM357.091 48.72C357.851 48.72 358.472 48.4667 358.953 47.96C359.447 47.4407 359.694 46.7503 359.694 45.889C359.694 45.0277 359.447 44.3437 358.953 43.837C358.472 43.3177 357.851 43.058 357.091 43.058C356.331 43.058 355.704 43.3177 355.21 43.837C354.729 44.3437 354.488 45.0277 354.488 45.889C354.488 46.7503 354.729 47.4407 355.21 47.96C355.704 48.4667 356.331 48.72 357.091 48.72ZM369.638 51.152C368.548 51.152 367.567 50.9303 366.693 50.487C365.831 50.031 365.154 49.404 364.66 48.606C364.178 47.808 363.938 46.9023 363.938 45.889C363.938 44.8757 364.178 43.97 364.66 43.172C365.154 42.374 365.831 41.7533 366.693 41.31C367.567 40.854 368.548 40.626 369.638 40.626C370.714 40.626 371.652 40.854 372.45 41.31C373.26 41.7533 373.849 42.393 374.217 43.229L371.918 44.464C371.386 43.5267 370.619 43.058 369.619 43.058C368.846 43.058 368.206 43.3113 367.7 43.818C367.193 44.3247 366.94 45.015 366.94 45.889C366.94 46.763 367.193 47.4533 367.7 47.96C368.206 48.4667 368.846 48.72 369.619 48.72C370.632 48.72 371.398 48.2513 371.918 47.314L374.217 48.568C373.849 49.3787 373.26 50.012 372.45 50.468C371.652 50.924 370.714 51.152 369.638 51.152ZM380.521 47.124H378.982V51H376.018V40.778H378.982V44.749H380.578L383.352 40.778H386.506L382.934 45.68L386.753 51H383.257L380.521 47.124ZM392.681 51.152C391.604 51.152 390.635 50.9303 389.774 50.487C388.925 50.031 388.26 49.404 387.779 48.606C387.297 47.808 387.057 46.9023 387.057 45.889C387.057 44.8757 387.297 43.97 387.779 43.172C388.26 42.374 388.925 41.7533 389.774 41.31C390.635 40.854 391.604 40.626 392.681 40.626C393.757 40.626 394.72 40.854 395.569 41.31C396.417 41.7533 397.082 42.374 397.564 43.172C398.045 43.97 398.286 44.8757 398.286 45.889C398.286 46.9023 398.045 47.808 397.564 48.606C397.082 49.404 396.417 50.031 395.569 50.487C394.72 50.9303 393.757 51.152 392.681 51.152ZM392.681 48.72C393.441 48.72 394.061 48.4667 394.543 47.96C395.037 47.4407 395.284 46.7503 395.284 45.889C395.284 45.0277 395.037 44.3437 394.543 43.837C394.061 43.3177 393.441 43.058 392.681 43.058C391.921 43.058 391.294 43.3177 390.8 43.837C390.306 44.3437 390.059 45.0277 390.059 45.889C390.059 46.7503 390.306 47.4407 390.8 47.96C391.294 48.4667 391.921 48.72 392.681 48.72ZM408.513 43.21H403.269V51H400.324V40.778H408.513V43.21ZM414.445 51.152C413.369 51.152 412.4 50.9303 411.538 50.487C410.69 50.031 410.025 49.404 409.543 48.606C409.062 47.808 408.821 46.9023 408.821 45.889C408.821 44.8757 409.062 43.97 409.543 43.172C410.025 42.374 410.69 41.7533 411.538 41.31C412.4 40.854 413.369 40.626 414.445 40.626C415.522 40.626 416.485 40.854 417.333 41.31C418.182 41.7533 418.847 42.374 419.328 43.172C419.81 43.97 420.05 44.8757 420.05 45.889C420.05 46.9023 419.81 47.808 419.328 48.606C418.847 49.404 418.182 50.031 417.333 50.487C416.485 50.9303 415.522 51.152 414.445 51.152ZM414.445 48.72C415.205 48.72 415.826 48.4667 416.307 47.96C416.801 47.4407 417.048 46.7503 417.048 45.889C417.048 45.0277 416.801 44.3437 416.307 43.837C415.826 43.3177 415.205 43.058 414.445 43.058C413.685 43.058 413.058 43.3177 412.564 43.837C412.07 44.3437 411.823 45.0277 411.823 45.889C411.823 46.7503 412.07 47.4407 412.564 47.96C413.058 48.4667 413.685 48.72 414.445 48.72ZM432.258 51.152C431.181 51.152 430.212 50.9303 429.351 50.487C428.502 50.031 427.837 49.404 427.356 48.606C426.875 47.808 426.634 46.9023 426.634 45.889C426.634 44.8757 426.875 43.97 427.356 43.172C427.837 42.374 428.502 41.7533 429.351 41.31C430.212 40.854 431.181 40.626 432.258 40.626C433.335 40.626 434.297 40.854 435.146 41.31C435.995 41.7533 436.66 42.374 437.141 43.172C437.622 43.97 437.863 44.8757 437.863 45.889C437.863 46.9023 437.622 47.808 437.141 48.606C436.66 49.404 435.995 50.031 435.146 50.487C434.297 50.9303 433.335 51.152 432.258 51.152ZM432.258 48.72C433.018 48.72 433.639 48.4667 434.12 47.96C434.614 47.4407 434.861 46.7503 434.861 45.889C434.861 45.0277 434.614 44.3437 434.12 43.837C433.639 43.3177 433.018 43.058 432.258 43.058C431.498 43.058 430.871 43.3177 430.377 43.837C429.883 44.3437 429.636 45.0277 429.636 45.889C429.636 46.7503 429.883 47.4407 430.377 47.96C430.871 48.4667 431.498 48.72 432.258 48.72ZM448.118 43.21H444.66V51H441.715V43.21H438.257V40.778H448.118V43.21ZM458.894 40.778V51H455.93V47.2C455.069 47.6307 454.119 47.846 453.08 47.846C451.7 47.846 450.655 47.5357 449.945 46.915C449.249 46.2817 448.9 45.3063 448.9 43.989V40.778H451.864V43.799C451.864 44.4197 452.023 44.8693 452.339 45.148C452.669 45.4267 453.137 45.566 453.745 45.566C454.518 45.566 455.246 45.4013 455.93 45.072V40.778H458.894ZM471.677 45.927C471.677 45.965 471.658 46.231 471.62 46.725H463.887C464.027 47.3583 464.356 47.8587 464.875 48.226C465.395 48.5933 466.041 48.777 466.813 48.777C467.345 48.777 467.814 48.701 468.219 48.549C468.637 48.3843 469.024 48.131 469.378 47.789L470.955 49.499C469.993 50.601 468.587 51.152 466.737 51.152C465.585 51.152 464.565 50.9303 463.678 50.487C462.792 50.031 462.108 49.404 461.626 48.606C461.145 47.808 460.904 46.9023 460.904 45.889C460.904 44.8883 461.139 43.989 461.607 43.191C462.089 42.3803 462.741 41.7533 463.564 41.31C464.4 40.854 465.331 40.626 466.357 40.626C467.358 40.626 468.264 40.8413 469.074 41.272C469.885 41.7027 470.518 42.3233 470.974 43.134C471.443 43.932 471.677 44.863 471.677 45.927ZM466.376 42.868C465.705 42.868 465.141 43.058 464.685 43.438C464.229 43.818 463.951 44.3373 463.849 44.996H468.884C468.783 44.35 468.504 43.837 468.048 43.457C467.592 43.0643 467.035 42.868 466.376 42.868ZM482.185 43.21H478.727V51H475.782V43.21H472.324V40.778H482.185V43.21ZM487.736 40.626C489.319 40.626 490.535 41.006 491.384 41.766C492.233 42.5133 492.657 43.647 492.657 45.167V51H489.883V49.727C489.326 50.677 488.287 51.152 486.767 51.152C485.982 51.152 485.298 51.019 484.715 50.753C484.145 50.487 483.708 50.1197 483.404 49.651C483.1 49.1823 482.948 48.6503 482.948 48.055C482.948 47.105 483.303 46.3577 484.012 45.813C484.734 45.2683 485.842 44.996 487.337 44.996H489.693C489.693 44.35 489.497 43.856 489.104 43.514C488.711 43.1593 488.122 42.982 487.337 42.982C486.792 42.982 486.254 43.0707 485.722 43.248C485.203 43.4127 484.759 43.6407 484.392 43.932L483.328 41.861C483.885 41.4683 484.55 41.1643 485.323 40.949C486.108 40.7337 486.913 40.626 487.736 40.626ZM487.508 49.157C488.015 49.157 488.464 49.043 488.857 48.815C489.25 48.5743 489.528 48.226 489.693 47.77V46.725H487.66C486.444 46.725 485.836 47.124 485.836 47.922C485.836 48.302 485.982 48.606 486.273 48.834C486.577 49.0493 486.989 49.157 487.508 49.157ZM509.866 48.492V51H499.814V49.005L504.945 44.16C505.489 43.6407 505.857 43.1973 506.047 42.83C506.237 42.45 506.332 42.0763 506.332 41.709C506.332 41.177 506.148 40.7717 505.781 40.493C505.426 40.2017 504.9 40.056 504.203 40.056C503.621 40.056 503.095 40.17 502.627 40.398C502.158 40.6133 501.765 40.9427 501.449 41.386L499.207 39.942C499.726 39.1693 500.442 38.5677 501.354 38.137C502.266 37.6937 503.311 37.472 504.489 37.472C505.477 37.472 506.338 37.6367 507.073 37.966C507.82 38.2827 508.396 38.7387 508.802 39.334C509.22 39.9167 509.429 40.607 509.429 41.405C509.429 42.127 509.277 42.8047 508.973 43.438C508.669 44.0713 508.08 44.7933 507.206 45.604L504.147 48.492H509.866ZM523.129 48.207H520.963V51H517.961V48.207H510.798V46.136L517.068 37.7H520.298L514.484 45.699H518.056V43.21H520.963V45.699H523.129V48.207ZM128.621 63.778V74H125.657V70.2C124.796 70.6307 123.846 70.846 122.807 70.846C121.426 70.846 120.381 70.5357 119.672 69.915C118.975 69.2817 118.627 68.3063 118.627 66.989V63.778H121.591V66.799C121.591 67.4197 121.749 67.8693 122.066 68.148C122.395 68.4267 122.864 68.566 123.472 68.566C124.245 68.566 124.973 68.4013 125.657 68.072V63.778H128.621ZM135.438 63.626C137.021 63.626 138.237 64.006 139.086 64.766C139.935 65.5133 140.359 66.647 140.359 68.167V74H137.585V72.727C137.028 73.677 135.989 74.152 134.469 74.152C133.684 74.152 133 74.019 132.417 73.753C131.847 73.487 131.41 73.1197 131.106 72.651C130.802 72.1823 130.65 71.6503 130.65 71.055C130.65 70.105 131.005 69.3577 131.714 68.813C132.436 68.2683 133.544 67.996 135.039 67.996H137.395C137.395 67.35 137.199 66.856 136.806 66.514C136.413 66.1593 135.824 65.982 135.039 65.982C134.494 65.982 133.956 66.0707 133.424 66.248C132.905 66.4127 132.461 66.6407 132.094 66.932L131.03 64.861C131.587 64.4683 132.252 64.1643 133.025 63.949C133.81 63.7337 134.615 63.626 135.438 63.626ZM135.21 72.157C135.717 72.157 136.166 72.043 136.559 71.815C136.952 71.5743 137.23 71.226 137.395 70.77V69.725H135.362C134.146 69.725 133.538 70.124 133.538 70.922C133.538 71.302 133.684 71.606 133.975 71.834C134.279 72.0493 134.691 72.157 135.21 72.157ZM147.798 74.152C146.708 74.152 145.727 73.9303 144.853 73.487C143.991 73.031 143.314 72.404 142.82 71.606C142.338 70.808 142.098 69.9023 142.098 68.889C142.098 67.8757 142.338 66.97 142.82 66.172C143.314 65.374 143.991 64.7533 144.853 64.31C145.727 63.854 146.708 63.626 147.798 63.626C148.874 63.626 149.812 63.854 150.61 64.31C151.42 64.7533 152.009 65.393 152.377 66.229L150.078 67.464C149.546 66.5267 148.779 66.058 147.779 66.058C147.006 66.058 146.366 66.3113 145.86 66.818C145.353 67.3247 145.1 68.015 145.1 68.889C145.1 69.763 145.353 70.4533 145.86 70.96C146.366 71.4667 147.006 71.72 147.779 71.72C148.792 71.72 149.558 71.2513 150.078 70.314L152.377 71.568C152.009 72.3787 151.42 73.012 150.61 73.468C149.812 73.924 148.874 74.152 147.798 74.152ZM158.149 63.626C159.732 63.626 160.948 64.006 161.797 64.766C162.646 65.5133 163.07 66.647 163.07 68.167V74H160.296V72.727C159.739 73.677 158.7 74.152 157.18 74.152C156.395 74.152 155.711 74.019 155.128 73.753C154.558 73.487 154.121 73.1197 153.817 72.651C153.513 72.1823 153.361 71.6503 153.361 71.055C153.361 70.105 153.716 69.3577 154.425 68.813C155.147 68.2683 156.255 67.996 157.75 67.996H160.106C160.106 67.35 159.91 66.856 159.517 66.514C159.124 66.1593 158.535 65.982 157.75 65.982C157.205 65.982 156.667 66.0707 156.135 66.248C155.616 66.4127 155.172 66.6407 154.805 66.932L153.741 64.861C154.298 64.4683 154.963 64.1643 155.736 63.949C156.521 63.7337 157.326 63.626 158.149 63.626ZM157.921 72.157C158.428 72.157 158.877 72.043 159.27 71.815C159.663 71.5743 159.941 71.226 160.106 70.77V69.725H158.073C156.857 69.725 156.249 70.124 156.249 70.922C156.249 71.302 156.395 71.606 156.686 71.834C156.99 72.0493 157.402 72.157 157.921 72.157ZM181.191 63.778V74H178.227V66.21H173.971V74H171.026V63.778H181.191ZM188.82 74.152C187.744 74.152 186.775 73.9303 185.913 73.487C185.065 73.031 184.4 72.404 183.918 71.606C183.437 70.808 183.196 69.9023 183.196 68.889C183.196 67.8757 183.437 66.97 183.918 66.172C184.4 65.374 185.065 64.7533 185.913 64.31C186.775 63.854 187.744 63.626 188.82 63.626C189.897 63.626 190.86 63.854 191.708 64.31C192.557 64.7533 193.222 65.374 193.703 66.172C194.185 66.97 194.425 67.8757 194.425 68.889C194.425 69.9023 194.185 70.808 193.703 71.606C193.222 72.404 192.557 73.031 191.708 73.487C190.86 73.9303 189.897 74.152 188.82 74.152ZM188.82 71.72C189.58 71.72 190.201 71.4667 190.682 70.96C191.176 70.4407 191.423 69.7503 191.423 68.889C191.423 68.0277 191.176 67.3437 190.682 66.837C190.201 66.3177 189.58 66.058 188.82 66.058C188.06 66.058 187.433 66.3177 186.939 66.837C186.445 67.3437 186.198 68.0277 186.198 68.889C186.198 69.7503 186.445 70.4407 186.939 70.96C187.433 71.4667 188.06 71.72 188.82 71.72ZM201.328 74.152C200.239 74.152 199.257 73.9303 198.383 73.487C197.522 73.031 196.844 72.404 196.35 71.606C195.869 70.808 195.628 69.9023 195.628 68.889C195.628 67.8757 195.869 66.97 196.35 66.172C196.844 65.374 197.522 64.7533 198.383 64.31C199.257 63.854 200.239 63.626 201.328 63.626C202.405 63.626 203.342 63.854 204.14 64.31C204.951 64.7533 205.54 65.393 205.907 66.229L203.608 67.464C203.076 66.5267 202.31 66.058 201.309 66.058C200.536 66.058 199.897 66.3113 199.39 66.818C198.883 67.3247 198.63 68.015 198.63 68.889C198.63 69.763 198.883 70.4533 199.39 70.96C199.897 71.4667 200.536 71.72 201.309 71.72C202.322 71.72 203.089 71.2513 203.608 70.314L205.907 71.568C205.54 72.3787 204.951 73.012 204.14 73.468C203.342 73.924 202.405 74.152 201.328 74.152ZM217.364 63.778V74H214.4V66.21H211.17L211.075 68.015C211.024 69.3577 210.897 70.4723 210.695 71.359C210.492 72.2457 210.163 72.9423 209.707 73.449C209.251 73.9557 208.617 74.209 207.807 74.209C207.376 74.209 206.863 74.133 206.268 73.981L206.42 71.549C206.622 71.5743 206.768 71.587 206.857 71.587C207.3 71.587 207.629 71.4287 207.845 71.112C208.073 70.7827 208.225 70.371 208.301 69.877C208.377 69.3703 208.434 68.7053 208.472 67.882L208.624 63.778H217.364ZM230.151 68.927C230.151 68.965 230.132 69.231 230.094 69.725H222.361C222.5 70.3583 222.83 70.8587 223.349 71.226C223.868 71.5933 224.514 71.777 225.287 71.777C225.819 71.777 226.288 71.701 226.693 71.549C227.111 71.3843 227.497 71.131 227.852 70.789L229.429 72.499C228.466 73.601 227.06 74.152 225.211 74.152C224.058 74.152 223.039 73.9303 222.152 73.487C221.265 73.031 220.581 72.404 220.1 71.606C219.619 70.808 219.378 69.9023 219.378 68.889C219.378 67.8883 219.612 66.989 220.081 66.191C220.562 65.3803 221.215 64.7533 222.038 64.31C222.874 63.854 223.805 63.626 224.831 63.626C225.832 63.626 226.737 63.8413 227.548 64.272C228.359 64.7027 228.992 65.3233 229.448 66.134C229.917 66.932 230.151 67.863 230.151 68.927ZM224.85 65.868C224.179 65.868 223.615 66.058 223.159 66.438C222.703 66.818 222.424 67.3373 222.323 67.996H227.358C227.257 67.35 226.978 66.837 226.522 66.457C226.066 66.0643 225.509 65.868 224.85 65.868ZM242.592 74.152C241.515 74.152 240.546 73.9303 239.685 73.487C238.836 73.031 238.171 72.404 237.69 71.606C237.209 70.808 236.968 69.9023 236.968 68.889C236.968 67.8757 237.209 66.97 237.69 66.172C238.171 65.374 238.836 64.7533 239.685 64.31C240.546 63.854 241.515 63.626 242.592 63.626C243.669 63.626 244.631 63.854 245.48 64.31C246.329 64.7533 246.994 65.374 247.475 66.172C247.956 66.97 248.197 67.8757 248.197 68.889C248.197 69.9023 247.956 70.808 247.475 71.606C246.994 72.404 246.329 73.031 245.48 73.487C244.631 73.9303 243.669 74.152 242.592 74.152ZM242.592 71.72C243.352 71.72 243.973 71.4667 244.454 70.96C244.948 70.4407 245.195 69.7503 245.195 68.889C245.195 68.0277 244.948 67.3437 244.454 66.837C243.973 66.3177 243.352 66.058 242.592 66.058C241.832 66.058 241.205 66.3177 240.711 66.837C240.217 67.3437 239.97 68.0277 239.97 68.889C239.97 69.7503 240.217 70.4407 240.711 70.96C241.205 71.4667 241.832 71.72 242.592 71.72ZM254.739 70.124H253.2V74H250.236V63.778H253.2V67.749H254.796L257.57 63.778H260.724L257.152 68.68L260.971 74H257.475L254.739 70.124ZM266.899 74.152C265.822 74.152 264.853 73.9303 263.992 73.487C263.143 73.031 262.478 72.404 261.997 71.606C261.515 70.808 261.275 69.9023 261.275 68.889C261.275 67.8757 261.515 66.97 261.997 66.172C262.478 65.374 263.143 64.7533 263.992 64.31C264.853 63.854 265.822 63.626 266.899 63.626C267.975 63.626 268.938 63.854 269.787 64.31C270.635 64.7533 271.3 65.374 271.782 66.172C272.263 66.97 272.504 67.8757 272.504 68.889C272.504 69.9023 272.263 70.808 271.782 71.606C271.3 72.404 270.635 73.031 269.787 73.487C268.938 73.9303 267.975 74.152 266.899 74.152ZM266.899 71.72C267.659 71.72 268.279 71.4667 268.761 70.96C269.255 70.4407 269.502 69.7503 269.502 68.889C269.502 68.0277 269.255 67.3437 268.761 66.837C268.279 66.3177 267.659 66.058 266.899 66.058C266.139 66.058 265.512 66.3177 265.018 66.837C264.524 67.3437 264.277 68.0277 264.277 68.889C264.277 69.7503 264.524 70.4407 265.018 70.96C265.512 71.4667 266.139 71.72 266.899 71.72ZM274.542 63.778H277.487V67.768H281.933V63.778H284.897V74H281.933V70.181H277.487V74H274.542V63.778ZM296.931 63.778V74H293.967V70.2C293.105 70.6307 292.155 70.846 291.117 70.846C289.736 70.846 288.691 70.5357 287.982 69.915C287.285 69.2817 286.937 68.3063 286.937 66.989V63.778H289.901V66.799C289.901 67.4197 290.059 67.8693 290.376 68.148C290.705 68.4267 291.174 68.566 291.782 68.566C292.554 68.566 293.283 68.4013 293.967 68.072V63.778H296.931ZM303.748 63.626C305.331 63.626 306.547 64.006 307.396 64.766C308.244 65.5133 308.669 66.647 308.669 68.167V74H305.895V72.727C305.337 73.677 304.299 74.152 302.779 74.152C301.993 74.152 301.309 74.019 300.727 73.753C300.157 73.487 299.72 73.1197 299.416 72.651C299.112 72.1823 298.96 71.6503 298.96 71.055C298.96 70.105 299.314 69.3577 300.024 68.813C300.746 68.2683 301.854 67.996 303.349 67.996H305.705C305.705 67.35 305.508 66.856 305.116 66.514C304.723 66.1593 304.134 65.982 303.349 65.982C302.804 65.982 302.266 66.0707 301.734 66.248C301.214 66.4127 300.771 66.6407 300.404 66.932L299.34 64.861C299.897 64.4683 300.562 64.1643 301.335 63.949C302.12 63.7337 302.924 63.626 303.748 63.626ZM303.52 72.157C304.026 72.157 304.476 72.043 304.869 71.815C305.261 71.5743 305.54 71.226 305.705 70.77V69.725H303.672C302.456 69.725 301.848 70.124 301.848 70.922C301.848 71.302 301.993 71.606 302.285 71.834C302.589 72.0493 303 72.157 303.52 72.157ZM311.243 63.778H314.188V67.768H318.634V63.778H321.598V74H318.634V70.181H314.188V74H311.243V63.778ZM324.436 63.778H327.381V69.858L332.359 63.778H335.076V74H332.131V67.92L327.172 74H324.436V63.778ZM347.007 63.778V74H344.366V71.074H342.181L340.243 74H337.089L339.426 70.656C338.717 70.3773 338.172 69.9783 337.792 69.459C337.425 68.927 337.241 68.2873 337.241 67.54C337.241 66.3367 337.672 65.412 338.533 64.766C339.407 64.1073 340.604 63.778 342.124 63.778H347.007ZM342.181 66.191C341.548 66.191 341.066 66.305 340.737 66.533C340.42 66.761 340.262 67.1283 340.262 67.635C340.262 68.1417 340.414 68.5153 340.718 68.756C341.035 68.984 341.51 69.098 342.143 69.098H344.366V66.191H342.181ZM355.237 63.778H358.182V69.858L363.16 63.778H365.877V74H362.932V67.92L357.973 74H355.237V63.778ZM368.726 63.778H371.671V67.768H376.117V63.778H379.081V74H376.117V70.181H371.671V74H368.726V63.778ZM386.782 74.152C385.693 74.152 384.711 73.9303 383.837 73.487C382.976 73.031 382.298 72.404 381.804 71.606C381.323 70.808 381.082 69.9023 381.082 68.889C381.082 67.8757 381.323 66.97 381.804 66.172C382.298 65.374 382.976 64.7533 383.837 64.31C384.711 63.854 385.693 63.626 386.782 63.626C387.859 63.626 388.796 63.854 389.594 64.31C390.405 64.7533 390.994 65.393 391.361 66.229L389.062 67.464C388.53 66.5267 387.764 66.058 386.763 66.058C385.99 66.058 385.351 66.3113 384.844 66.818C384.337 67.3247 384.084 68.015 384.084 68.889C384.084 69.763 384.337 70.4533 384.844 70.96C385.351 71.4667 385.99 71.72 386.763 71.72C387.776 71.72 388.543 71.2513 389.062 70.314L391.361 71.568C390.994 72.3787 390.405 73.012 389.594 73.468C388.796 73.924 387.859 74.152 386.782 74.152ZM403.327 63.778V74H400.363V66.21H396.107V74H393.162V63.778H403.327ZM416.106 68.927C416.106 68.965 416.087 69.231 416.049 69.725H408.316C408.455 70.3583 408.785 70.8587 409.304 71.226C409.823 71.5933 410.469 71.777 411.242 71.777C411.774 71.777 412.243 71.701 412.648 71.549C413.066 71.3843 413.452 71.131 413.807 70.789L415.384 72.499C414.421 73.601 413.015 74.152 411.166 74.152C410.013 74.152 408.994 73.9303 408.107 73.487C407.22 73.031 406.536 72.404 406.055 71.606C405.574 70.808 405.333 69.9023 405.333 68.889C405.333 67.8883 405.567 66.989 406.036 66.191C406.517 65.3803 407.17 64.7533 407.993 64.31C408.829 63.854 409.76 63.626 410.786 63.626C411.787 63.626 412.692 63.8413 413.503 64.272C414.314 64.7027 414.947 65.3233 415.403 66.134C415.872 66.932 416.106 67.863 416.106 68.927ZM410.805 65.868C410.134 65.868 409.57 66.058 409.114 66.438C408.658 66.818 408.379 67.3373 408.278 67.996H413.313C413.212 67.35 412.933 66.837 412.477 66.457C412.021 66.0643 411.464 65.868 410.805 65.868ZM422.881 70.124H421.342V74H418.378V63.778H421.342V67.749H422.938L425.712 63.778H428.866L425.294 68.68L429.113 74H425.617L422.881 70.124ZM442.083 71.568V76.242H439.328V74H430.569V63.778H433.514V71.568H437.637V63.778H440.601V71.568H442.083ZM443.946 63.778H446.891V69.858L451.869 63.778H454.586V74H451.641V67.92L446.682 74H443.946V63.778ZM457.436 63.778H460.381V69.858L465.359 63.778H468.076V74H465.131V67.92L460.172 74H457.436V63.778Z" fill="white"/>
</svg>
