<svg width="542" height="114" viewBox="0 0 542 114" fill="none" xmlns="http://www.w3.org/2000/svg">
<rect x="27.7302" y="14.2852" width="514.27" height="85.7116" fill="#3E4671"/>
<path d="M115.405 56.7209C115.405 86.8783 90.0837 111.442 58.7025 111.442C27.3213 111.442 2 86.8783 2 56.7209C2 26.5636 27.3213 2 58.7025 2C90.0837 2 115.405 26.5636 115.405 56.7209Z" fill="white" stroke="#3E4671" stroke-width="4"/>
<g clip-path="url(#clip0_207:35)">
<path d="M90.1059 63.5784C90.1059 65.161 86.9677 66.216 83.3065 66.7435C80.9529 62.2596 76.2456 58.8308 70.7538 56.457C71.2769 55.6657 71.7999 55.1382 72.3229 54.3469H74.415C82.522 54.0831 90.1059 59.0945 90.1059 63.5784V63.5784ZM45.1255 54.0831H43.0334C34.9264 54.0831 27.3425 59.0945 27.3425 63.5784C27.3425 65.161 30.4807 66.216 34.1419 66.7435C36.4955 62.2596 41.2028 58.8308 46.6946 56.457L45.1255 54.0831V54.0831ZM58.7242 56.7207C64.4775 56.7207 69.1848 51.9731 69.1848 46.1704C69.1848 40.3678 64.4775 35.6201 58.7242 35.6201C52.9709 35.6201 48.2636 40.3678 48.2636 46.1704C48.2636 51.9731 52.9709 56.7207 58.7242 56.7207ZM58.7242 59.3583C48.0021 59.3583 37.8031 66.216 37.8031 72.5462C37.8031 77.8213 58.7242 77.8213 58.7242 77.8213C58.7242 77.8213 79.6453 77.8213 79.6453 72.5462C79.6453 66.216 69.4463 59.3583 58.7242 59.3583ZM73.6305 51.4456H74.415C78.8608 51.4456 82.2605 48.0167 82.2605 43.5328C82.2605 39.049 78.8608 35.6201 74.415 35.6201C73.1075 35.6201 72.0614 35.8839 71.0154 36.4114C73.1075 39.049 74.415 42.4778 74.415 46.1704C74.415 48.0167 74.1535 49.863 73.6305 51.4456ZM43.0334 51.4456H43.8179C43.2949 49.863 43.0334 48.0167 43.0334 46.1704C43.0334 42.4778 44.3409 39.049 46.433 36.4114C45.387 35.8839 44.3409 35.6201 43.0334 35.6201C38.5876 35.6201 35.1879 39.049 35.1879 43.5328C35.1879 48.0167 38.5876 51.4456 43.0334 51.4456Z" fill="#3E4671"/>
</g>
<path d="M135.696 41.0516V54.3516H132.637V43.5596H126.633V54.3516H123.574V41.0516H135.696ZM148.701 49.2786C148.701 49.3166 148.682 49.5826 148.644 50.0766H140.911C141.051 50.7099 141.38 51.2102 141.899 51.5776C142.419 51.9449 143.065 52.1286 143.837 52.1286C144.369 52.1286 144.838 52.0526 145.243 51.9006C145.661 51.7359 146.048 51.4826 146.402 51.1406L147.979 52.8506C147.017 53.9526 145.611 54.5036 143.761 54.5036C142.609 54.5036 141.589 54.2819 140.702 53.8386C139.816 53.3826 139.132 52.7556 138.65 51.9576C138.169 51.1596 137.928 50.2539 137.928 49.2406C137.928 48.2399 138.163 47.3406 138.631 46.5426C139.113 45.7319 139.765 45.1049 140.588 44.6616C141.424 44.2056 142.355 43.9776 143.381 43.9776C144.382 43.9776 145.288 44.1929 146.098 44.6236C146.909 45.0542 147.542 45.6749 147.998 46.4856C148.467 47.2836 148.701 48.2146 148.701 49.2786ZM143.4 46.2196C142.729 46.2196 142.165 46.4096 141.709 46.7896C141.253 47.1696 140.975 47.6889 140.873 48.3476H145.908C145.807 47.7016 145.528 47.1886 145.072 46.8086C144.616 46.4159 144.059 46.2196 143.4 46.2196ZM156.996 43.9776C157.946 43.9776 158.808 44.1992 159.58 44.6426C160.366 45.0732 160.98 45.6876 161.423 46.4856C161.867 47.2709 162.088 48.1892 162.088 49.2406C162.088 50.2919 161.867 51.2166 161.423 52.0146C160.98 52.7999 160.366 53.4142 159.58 53.8576C158.808 54.2882 157.946 54.5036 156.996 54.5036C155.692 54.5036 154.666 54.0919 153.918 53.2686V58.0376H150.954V44.1296H153.785V45.3076C154.52 44.4209 155.59 43.9776 156.996 43.9776ZM156.483 52.0716C157.243 52.0716 157.864 51.8182 158.345 51.3116C158.839 50.7922 159.086 50.1019 159.086 49.2406C159.086 48.3792 158.839 47.6952 158.345 47.1886C157.864 46.6692 157.243 46.4096 156.483 46.4096C155.723 46.4096 155.096 46.6692 154.602 47.1886C154.121 47.6952 153.88 48.3792 153.88 49.2406C153.88 50.1019 154.121 50.7922 154.602 51.3116C155.096 51.8182 155.723 52.0716 156.483 52.0716ZM169.03 54.5036C167.941 54.5036 166.959 54.2819 166.085 53.8386C165.224 53.3826 164.546 52.7556 164.052 51.9576C163.571 51.1596 163.33 50.2539 163.33 49.2406C163.33 48.2272 163.571 47.3216 164.052 46.5236C164.546 45.7256 165.224 45.1049 166.085 44.6616C166.959 44.2056 167.941 43.9776 169.03 43.9776C170.107 43.9776 171.044 44.2056 171.842 44.6616C172.653 45.1049 173.242 45.7446 173.609 46.5806L171.31 47.8156C170.778 46.8782 170.012 46.4096 169.011 46.4096C168.238 46.4096 167.599 46.6629 167.092 47.1696C166.585 47.6762 166.332 48.3666 166.332 49.2406C166.332 50.1146 166.585 50.8049 167.092 51.3116C167.599 51.8182 168.238 52.0716 169.011 52.0716C170.024 52.0716 170.791 51.6029 171.31 50.6656L173.609 51.9196C173.242 52.7302 172.653 53.3636 171.842 53.8196C171.044 54.2756 170.107 54.5036 169.03 54.5036ZM180.068 54.5036C178.991 54.5036 178.022 54.2819 177.161 53.8386C176.312 53.3826 175.647 52.7556 175.166 51.9576C174.685 51.1596 174.444 50.2539 174.444 49.2406C174.444 48.2272 174.685 47.3216 175.166 46.5236C175.647 45.7256 176.312 45.1049 177.161 44.6616C178.022 44.2056 178.991 43.9776 180.068 43.9776C181.145 43.9776 182.107 44.2056 182.956 44.6616C183.805 45.1049 184.47 45.7256 184.951 46.5236C185.432 47.3216 185.673 48.2272 185.673 49.2406C185.673 50.2539 185.432 51.1596 184.951 51.9576C184.47 52.7556 183.805 53.3826 182.956 53.8386C182.107 54.2819 181.145 54.5036 180.068 54.5036ZM180.068 52.0716C180.828 52.0716 181.449 51.8182 181.93 51.3116C182.424 50.7922 182.671 50.1019 182.671 49.2406C182.671 48.3792 182.424 47.6952 181.93 47.1886C181.449 46.6692 180.828 46.4096 180.068 46.4096C179.308 46.4096 178.681 46.6692 178.187 47.1886C177.693 47.6952 177.446 48.3792 177.446 49.2406C177.446 50.1019 177.693 50.7922 178.187 51.3116C178.681 51.8182 179.308 52.0716 180.068 52.0716ZM187.712 44.1296H190.657V48.1196H195.103V44.1296H198.067V54.3516H195.103V50.5326H190.657V54.3516H187.712V44.1296ZM204.875 43.9776C206.458 43.9776 207.674 44.3576 208.523 45.1176C209.372 45.8649 209.796 46.9986 209.796 48.5186V54.3516H207.022V53.0786C206.465 54.0286 205.426 54.5036 203.906 54.5036C203.121 54.5036 202.437 54.3706 201.854 54.1046C201.284 53.8386 200.847 53.4712 200.543 53.0026C200.239 52.5339 200.087 52.0019 200.087 51.4066C200.087 50.4566 200.442 49.7092 201.151 49.1646C201.873 48.6199 202.981 48.3476 204.476 48.3476H206.832C206.832 47.7016 206.636 47.2076 206.243 46.8656C205.85 46.5109 205.261 46.3336 204.476 46.3336C203.931 46.3336 203.393 46.4222 202.861 46.5996C202.342 46.7642 201.898 46.9922 201.531 47.2836L200.467 45.2126C201.024 44.8199 201.689 44.5159 202.462 44.3006C203.247 44.0852 204.052 43.9776 204.875 43.9776ZM204.647 52.5086C205.154 52.5086 205.603 52.3946 205.996 52.1666C206.389 51.9259 206.667 51.5776 206.832 51.1216V50.0766H204.799C203.583 50.0766 202.975 50.4756 202.975 51.2736C202.975 51.6536 203.121 51.9576 203.412 52.1856C203.716 52.4009 204.128 52.5086 204.647 52.5086ZM222.175 44.1296V54.3516H219.211V46.5616H215.981L215.886 48.3666C215.835 49.7092 215.709 50.8239 215.506 51.7106C215.303 52.5972 214.974 53.2939 214.518 53.8006C214.062 54.3072 213.429 54.5606 212.618 54.5606C212.187 54.5606 211.674 54.4846 211.079 54.3326L211.231 51.9006C211.434 51.9259 211.579 51.9386 211.668 51.9386C212.111 51.9386 212.441 51.7802 212.656 51.4636C212.884 51.1342 213.036 50.7226 213.112 50.2286C213.188 49.7219 213.245 49.0569 213.283 48.2336L213.435 44.1296H222.175ZM230.554 47.3976C231.884 47.4102 232.904 47.7142 233.613 48.3096C234.323 48.8922 234.677 49.7219 234.677 50.7986C234.677 51.9259 234.278 52.8062 233.48 53.4396C232.695 54.0602 231.587 54.3706 230.155 54.3706L225.025 54.3516V44.1296H227.97V47.3976H230.554ZM229.889 52.2616C230.459 52.2742 230.896 52.1539 231.2 51.9006C231.504 51.6472 231.656 51.2672 231.656 50.7606C231.656 50.2666 231.504 49.9056 231.2 49.6776C230.909 49.4496 230.472 49.3292 229.889 49.3166L227.97 49.2976V52.2616H229.889ZM236.529 44.1296H239.474V48.1196H243.92V44.1296H246.884V54.3516H243.92V50.5326H239.474V54.3516H236.529V44.1296ZM249.722 44.1296H252.667V50.2096L257.645 44.1296H260.362V54.3516H257.417V48.2716L252.458 54.3516H249.722V44.1296ZM263.211 44.1296H266.156V50.2096L271.134 44.1296H273.851V54.3516H270.906V48.2716L265.947 54.3516H263.211V44.1296ZM268.341 43.0276C266.111 43.0276 264.99 42.0459 264.978 40.0826H266.916C266.928 40.5259 267.049 40.8742 267.277 41.1276C267.517 41.3682 267.866 41.4886 268.322 41.4886C268.778 41.4886 269.126 41.3682 269.367 41.1276C269.62 40.8742 269.747 40.5259 269.747 40.0826H271.723C271.71 42.0459 270.583 43.0276 268.341 43.0276ZM292.056 54.3516V48.2336L288.997 53.3636H287.743L284.76 48.2146V54.3516H282.081V44.1296H285.178L288.446 50.0386L291.923 44.1296H294.697L294.735 54.3516H292.056ZM307.511 49.2786C307.511 49.3166 307.492 49.5826 307.454 50.0766H299.721C299.86 50.7099 300.19 51.2102 300.709 51.5776C301.228 51.9449 301.874 52.1286 302.647 52.1286C303.179 52.1286 303.648 52.0526 304.053 51.9006C304.471 51.7359 304.857 51.4826 305.212 51.1406L306.789 52.8506C305.826 53.9526 304.42 54.5036 302.571 54.5036C301.418 54.5036 300.399 54.2819 299.512 53.8386C298.625 53.3826 297.941 52.7556 297.46 51.9576C296.979 51.1596 296.738 50.2539 296.738 49.2406C296.738 48.2399 296.972 47.3406 297.441 46.5426C297.922 45.7319 298.575 45.1049 299.398 44.6616C300.234 44.2056 301.165 43.9776 302.191 43.9776C303.192 43.9776 304.097 44.1929 304.908 44.6236C305.719 45.0542 306.352 45.6749 306.808 46.4856C307.277 47.2836 307.511 48.2146 307.511 49.2786ZM302.21 46.2196C301.539 46.2196 300.975 46.4096 300.519 46.7896C300.063 47.1696 299.784 47.6889 299.683 48.3476H304.718C304.617 47.7016 304.338 47.1886 303.882 46.8086C303.426 46.4159 302.869 46.2196 302.21 46.2196ZM309.783 44.1296H312.728V48.1196H317.174V44.1296H320.138V54.3516H317.174V50.5326H312.728V54.3516H309.783V44.1296ZM332.912 49.2786C332.912 49.3166 332.893 49.5826 332.855 50.0766H325.122C325.262 50.7099 325.591 51.2102 326.11 51.5776C326.63 51.9449 327.276 52.1286 328.048 52.1286C328.58 52.1286 329.049 52.0526 329.454 51.9006C329.872 51.7359 330.259 51.4826 330.613 51.1406L332.19 52.8506C331.228 53.9526 329.822 54.5036 327.972 54.5036C326.82 54.5036 325.8 54.2819 324.913 53.8386C324.027 53.3826 323.343 52.7556 322.861 51.9576C322.38 51.1596 322.139 50.2539 322.139 49.2406C322.139 48.2399 322.374 47.3406 322.842 46.5426C323.324 45.7319 323.976 45.1049 324.799 44.6616C325.635 44.2056 326.566 43.9776 327.592 43.9776C328.593 43.9776 329.499 44.1929 330.309 44.6236C331.12 45.0542 331.753 45.6749 332.209 46.4856C332.678 47.2836 332.912 48.2146 332.912 49.2786ZM327.611 46.2196C326.94 46.2196 326.376 46.4096 325.92 46.7896C325.464 47.1696 325.186 47.6889 325.084 48.3476H330.119C330.018 47.7016 329.739 47.1886 329.283 46.8086C328.827 46.4159 328.27 46.2196 327.611 46.2196ZM346.549 51.9196V56.5556H343.794V54.3516H336.612V56.5556H333.857V51.9196H334.275C334.908 51.9069 335.345 51.5332 335.586 50.7986C335.826 50.0639 335.978 49.0189 336.042 47.6636L336.175 44.1296H345.086V51.9196H346.549ZM338.721 47.8726C338.683 48.9112 338.6 49.7599 338.474 50.4186C338.36 51.0772 338.138 51.5776 337.809 51.9196H342.122V46.5616H338.778L338.721 47.8726ZM358.541 50.4756H357.116V54.3516H354.19V50.4756H352.765L350.599 54.3516H347.103L350.314 49.0696L347.331 44.1296H350.466L352.727 48.1006H354.19V44.1296H357.116V48.1006H358.56L360.84 44.1296H363.975L360.992 49.0696L364.222 54.3516H360.707L358.541 50.4756ZM375.384 49.2786C375.384 49.3166 375.365 49.5826 375.327 50.0766H367.594C367.733 50.7099 368.063 51.2102 368.582 51.5776C369.101 51.9449 369.747 52.1286 370.52 52.1286C371.052 52.1286 371.521 52.0526 371.926 51.9006C372.344 51.7359 372.73 51.4826 373.085 51.1406L374.662 52.8506C373.699 53.9526 372.293 54.5036 370.444 54.5036C369.291 54.5036 368.272 54.2819 367.385 53.8386C366.498 53.3826 365.814 52.7556 365.333 51.9576C364.852 51.1596 364.611 50.2539 364.611 49.2406C364.611 48.2399 364.845 47.3406 365.314 46.5426C365.795 45.7319 366.448 45.1049 367.271 44.6616C368.107 44.2056 369.038 43.9776 370.064 43.9776C371.065 43.9776 371.97 44.1929 372.781 44.6236C373.592 45.0542 374.225 45.6749 374.681 46.4856C375.15 47.2836 375.384 48.2146 375.384 49.2786ZM370.083 46.2196C369.412 46.2196 368.848 46.4096 368.392 46.7896C367.936 47.1696 367.657 47.6889 367.556 48.3476H372.591C372.49 47.7016 372.211 47.1886 371.755 46.8086C371.299 46.4159 370.742 46.2196 370.083 46.2196ZM383.679 43.9776C384.629 43.9776 385.49 44.1992 386.263 44.6426C387.048 45.0732 387.663 45.6876 388.106 46.4856C388.549 47.2709 388.771 48.1892 388.771 49.2406C388.771 50.2919 388.549 51.2166 388.106 52.0146C387.663 52.7999 387.048 53.4142 386.263 53.8576C385.49 54.2882 384.629 54.5036 383.679 54.5036C382.374 54.5036 381.348 54.0919 380.601 53.2686V58.0376H377.637V44.1296H380.468V45.3076C381.203 44.4209 382.273 43.9776 383.679 43.9776ZM383.166 52.0716C383.926 52.0716 384.547 51.8182 385.028 51.3116C385.522 50.7922 385.769 50.1019 385.769 49.2406C385.769 48.3792 385.522 47.6952 385.028 47.1886C384.547 46.6692 383.926 46.4096 383.166 46.4096C382.406 46.4096 381.779 46.6692 381.285 47.1886C380.804 47.6952 380.563 48.3792 380.563 49.2406C380.563 50.1019 380.804 50.7922 381.285 51.3116C381.779 51.8182 382.406 52.0716 383.166 52.0716ZM407.686 51.9196V56.5556H404.931V54.3516H397.749V56.5556H394.994V51.9196H395.412C396.046 51.9069 396.483 51.5332 396.723 50.7986C396.964 50.0639 397.116 49.0189 397.179 47.6636L397.312 44.1296H406.223V51.9196H407.686ZM399.858 47.8726C399.82 48.9112 399.738 49.7599 399.611 50.4186C399.497 51.0772 399.276 51.5776 398.946 51.9196H403.259V46.5616H399.915L399.858 47.8726ZM419.356 44.1296V54.3516H416.392V46.5616H413.162L413.067 48.3666C413.016 49.7092 412.889 50.8239 412.687 51.7106C412.484 52.5972 412.155 53.2939 411.699 53.8006C411.243 54.3072 410.609 54.5606 409.799 54.5606C409.368 54.5606 408.855 54.4846 408.26 54.3326L408.412 51.9006C408.614 51.9259 408.76 51.9386 408.849 51.9386C409.292 51.9386 409.621 51.7802 409.837 51.4636C410.065 51.1342 410.217 50.7226 410.293 50.2286C410.369 49.7219 410.426 49.0569 410.464 48.2336L410.616 44.1296H419.356ZM431.288 44.1296V54.3516H428.647V51.4256H426.462L424.524 54.3516H421.37L423.707 51.0076C422.998 50.7289 422.453 50.3299 422.073 49.8106C421.706 49.2786 421.522 48.6389 421.522 47.8916C421.522 46.6882 421.953 45.7636 422.814 45.1176C423.688 44.4589 424.885 44.1296 426.405 44.1296H431.288ZM426.462 46.5426C425.829 46.5426 425.347 46.6566 425.018 46.8846C424.701 47.1126 424.543 47.4799 424.543 47.9866C424.543 48.4932 424.695 48.8669 424.999 49.1076C425.316 49.3356 425.791 49.4496 426.424 49.4496H428.647V46.5426H426.462ZM444.02 50.4756H442.481V54.3516H439.517V44.1296H442.481V48.1006H444.077L446.851 44.1296H450.005L446.433 49.0316L450.252 54.3516H446.756L444.02 50.4756ZM456.18 54.5036C455.104 54.5036 454.135 54.2819 453.273 53.8386C452.425 53.3826 451.76 52.7556 451.278 51.9576C450.797 51.1596 450.556 50.2539 450.556 49.2406C450.556 48.2272 450.797 47.3216 451.278 46.5236C451.76 45.7256 452.425 45.1049 453.273 44.6616C454.135 44.2056 455.104 43.9776 456.18 43.9776C457.257 43.9776 458.22 44.2056 459.068 44.6616C459.917 45.1049 460.582 45.7256 461.063 46.5236C461.545 47.3216 461.785 48.2272 461.785 49.2406C461.785 50.2539 461.545 51.1596 461.063 51.9576C460.582 52.7556 459.917 53.3826 459.068 53.8386C458.22 54.2819 457.257 54.5036 456.18 54.5036ZM456.18 52.0716C456.94 52.0716 457.561 51.8182 458.042 51.3116C458.536 50.7922 458.783 50.1019 458.783 49.2406C458.783 48.3792 458.536 47.6952 458.042 47.1886C457.561 46.6692 456.94 46.4096 456.18 46.4096C455.42 46.4096 454.793 46.6692 454.299 47.1886C453.805 47.6952 453.558 48.3792 453.558 49.2406C453.558 50.1019 453.805 50.7922 454.299 51.3116C454.793 51.8182 455.42 52.0716 456.18 52.0716ZM473.636 50.4756H472.211V54.3516H469.285V50.4756H467.86L465.694 54.3516H462.198L465.409 49.0696L462.426 44.1296H465.561L467.822 48.1006H469.285V44.1296H472.211V48.1006H473.655L475.935 44.1296H479.07L476.087 49.0696L479.317 54.3516H475.802L473.636 50.4756ZM480.857 44.1296H483.802V48.1196H488.248V44.1296H491.212V54.3516H488.248V50.5326H483.802V54.3516H480.857V44.1296ZM498.838 54.5036C497.761 54.5036 496.792 54.2819 495.931 53.8386C495.082 53.3826 494.417 52.7556 493.936 51.9576C493.454 51.1596 493.214 50.2539 493.214 49.2406C493.214 48.2272 493.454 47.3216 493.936 46.5236C494.417 45.7256 495.082 45.1049 495.931 44.6616C496.792 44.2056 497.761 43.9776 498.838 43.9776C499.914 43.9776 500.877 44.2056 501.726 44.6616C502.574 45.1049 503.239 45.7256 503.721 46.5236C504.202 47.3216 504.443 48.2272 504.443 49.2406C504.443 50.2539 504.202 51.1596 503.721 51.9576C503.239 52.7556 502.574 53.3826 501.726 53.8386C500.877 54.2819 499.914 54.5036 498.838 54.5036ZM498.838 52.0716C499.598 52.0716 500.218 51.8182 500.7 51.3116C501.194 50.7922 501.441 50.1019 501.441 49.2406C501.441 48.3792 501.194 47.6952 500.7 47.1886C500.218 46.6692 499.598 46.4096 498.838 46.4096C498.078 46.4096 497.451 46.6692 496.957 47.1886C496.463 47.6952 496.216 48.3792 496.216 49.2406C496.216 50.1019 496.463 50.7922 496.957 51.3116C497.451 51.8182 498.078 52.0716 498.838 52.0716ZM514.67 46.5616H509.426V54.3516H506.481V44.1296H514.67V46.5616ZM520.602 54.5036C519.526 54.5036 518.557 54.2819 517.695 53.8386C516.847 53.3826 516.182 52.7556 515.7 51.9576C515.219 51.1596 514.978 50.2539 514.978 49.2406C514.978 48.2272 515.219 47.3216 515.7 46.5236C516.182 45.7256 516.847 45.1049 517.695 44.6616C518.557 44.2056 519.526 43.9776 520.602 43.9776C521.679 43.9776 522.642 44.2056 523.49 44.6616C524.339 45.1049 525.004 45.7256 525.485 46.5236C525.967 47.3216 526.207 48.2272 526.207 49.2406C526.207 50.2539 525.967 51.1596 525.485 51.9576C525.004 52.7556 524.339 53.3826 523.49 53.8386C522.642 54.2819 521.679 54.5036 520.602 54.5036ZM520.602 52.0716C521.362 52.0716 521.983 51.8182 522.464 51.3116C522.958 50.7922 523.205 50.1019 523.205 49.2406C523.205 48.3792 522.958 47.6952 522.464 47.1886C521.983 46.6692 521.362 46.4096 520.602 46.4096C519.842 46.4096 519.215 46.6692 518.721 47.1886C518.227 47.6952 517.98 48.3792 517.98 49.2406C517.98 50.1019 518.227 50.7922 518.721 51.3116C519.215 51.8182 519.842 52.0716 520.602 52.0716ZM127.849 73.4756H126.31V77.3516H123.346V67.1296H126.31V71.1006H127.906L130.68 67.1296H133.834L130.262 72.0316L134.081 77.3516H130.585L127.849 73.4756ZM145.34 67.1296V77.3516H142.376V69.5616H139.146L139.051 71.3666C139 72.7092 138.874 73.8239 138.671 74.7106C138.468 75.5972 138.139 76.2939 137.683 76.8006C137.227 77.3072 136.594 77.5606 135.783 77.5606C135.352 77.5606 134.839 77.4846 134.244 77.3326L134.396 74.9006C134.599 74.9259 134.744 74.9386 134.833 74.9386C135.276 74.9386 135.606 74.7802 135.821 74.4636C136.049 74.1342 136.201 73.7226 136.277 73.2286C136.353 72.7219 136.41 72.0569 136.448 71.2336L136.6 67.1296H145.34ZM148.171 67.1296H151.135V77.3516H148.171V67.1296ZM149.653 65.7046C149.109 65.7046 148.665 65.5462 148.323 65.2296C147.981 64.9129 147.81 64.5202 147.81 64.0516C147.81 63.5829 147.981 63.1902 148.323 62.8736C148.665 62.5569 149.109 62.3986 149.653 62.3986C150.198 62.3986 150.641 62.5506 150.983 62.8546C151.325 63.1586 151.496 63.5386 151.496 63.9946C151.496 64.4886 151.325 64.9002 150.983 65.2296C150.641 65.5462 150.198 65.7046 149.653 65.7046ZM158.9 77.5416C157.798 77.5416 156.81 77.3199 155.936 76.8766C155.075 76.4206 154.397 75.7872 153.903 74.9766C153.409 74.1659 153.162 73.2539 153.162 72.2406C153.162 71.2272 153.409 70.3152 153.903 69.5046C154.397 68.6939 155.075 68.0669 155.936 67.6236C156.81 67.1676 157.798 66.9396 158.9 66.9396C159.876 66.9396 160.756 67.1042 161.541 67.4336C162.339 67.7502 162.998 68.2126 163.517 68.8206L161.826 70.4166C161.054 69.6186 160.116 69.2196 159.014 69.2196C158.28 69.2196 157.646 69.4032 157.114 69.7706C156.582 70.1379 156.221 70.6382 156.031 71.2716H160.325V73.3046H156.069C156.272 73.9126 156.633 74.3939 157.152 74.7486C157.672 75.1032 158.292 75.2806 159.014 75.2806C160.104 75.2806 161.041 74.8752 161.826 74.0646L163.517 75.6416C162.998 76.2622 162.339 76.7372 161.541 77.0666C160.756 77.3832 159.876 77.5416 158.9 77.5416ZM165.223 67.1296H168.168V71.1196H172.614V67.1296H175.578V77.3516H172.614V73.5326H168.168V77.3516H165.223V67.1296ZM187.004 69.5616H183.546V77.3516H180.601V69.5616H177.143V67.1296H187.004V69.5616ZM192.555 66.9776C194.138 66.9776 195.354 67.3576 196.203 68.1176C197.051 68.8649 197.476 69.9986 197.476 71.5186V77.3516H194.702V76.0786C194.144 77.0286 193.106 77.5036 191.586 77.5036C190.8 77.5036 190.116 77.3706 189.534 77.1046C188.964 76.8386 188.527 76.4712 188.223 76.0026C187.919 75.5339 187.767 75.0019 187.767 74.4066C187.767 73.4566 188.121 72.7092 188.831 72.1646C189.553 71.6199 190.661 71.3476 192.156 71.3476H194.512C194.512 70.7016 194.315 70.2076 193.923 69.8656C193.53 69.5109 192.941 69.3336 192.156 69.3336C191.611 69.3336 191.073 69.4222 190.541 69.5996C190.021 69.7642 189.578 69.9922 189.211 70.2836L188.147 68.2126C188.704 67.8199 189.369 67.5159 190.142 67.3006C190.927 67.0852 191.731 66.9776 192.555 66.9776ZM192.327 75.5086C192.833 75.5086 193.283 75.3946 193.676 75.1666C194.068 74.9259 194.347 74.5776 194.512 74.1216V73.0766H192.479C191.263 73.0766 190.655 73.4756 190.655 74.2736C190.655 74.6536 190.8 74.9576 191.092 75.1856C191.396 75.4009 191.807 75.5086 192.327 75.5086Z" fill="white"/>
<defs>
<clipPath id="clip0_207:35">
<rect width="62.7633" height="63.3018" fill="white" transform="translate(27.3425 25.0693)"/>
</clipPath>
</defs>
</svg>
