<svg width="542" height="114" viewBox="0 0 542 114" fill="none" xmlns="http://www.w3.org/2000/svg">
<rect x="25.4347" y="14.415" width="516.565" height="85.2381" fill="#3E4671"/>
<path d="M108.217 56.7209C108.217 86.9972 84.3853 111.442 55.1084 111.442C25.8314 111.442 2 86.9972 2 56.7209C2 26.4446 25.8314 2 55.1084 2C84.3853 2 108.217 26.4446 108.217 56.7209Z" fill="white" stroke="#3E4671" stroke-width="4"/>
<path d="M80.9938 50.6024C79.7586 44.5875 76.483 39.1129 71.769 35.1874C66.9484 31.1956 60.9578 29.0222 54.784 29.0254C47.5064 29.0254 40.7091 31.9271 35.6272 37.1965C30.7161 42.2953 28.0246 49.0273 28.0461 56.1475C28.0463 61.3678 29.5271 66.4732 32.3049 70.8306L32.8246 71.5786L29.9575 84.4145L43.6717 80.8834C43.6717 80.8834 43.9465 80.9786 44.1495 81.059C44.3526 81.1394 46.1004 81.833 47.9544 82.3695C49.4954 82.8146 52.7018 83.4823 55.2141 83.4823C62.3399 83.4823 68.9939 80.6263 73.9492 75.4385C78.8603 70.2915 81.5649 63.4482 81.5649 56.1623C81.5653 54.2933 81.3738 52.4296 80.9938 50.6024ZM43.3372 60.6763C42.5811 60.6763 41.842 60.4443 41.2134 60.0095C40.5847 59.5748 40.0948 58.9569 39.8054 58.234C39.5161 57.511 39.4404 56.7156 39.5879 55.9481C39.7354 55.1806 40.0995 54.4757 40.6341 53.9224C41.1687 53.3691 41.8499 52.9923 42.5914 52.8396C43.333 52.6869 44.1016 52.7653 44.8001 53.0647C45.4986 53.3642 46.0957 53.8713 46.5157 54.5219C46.9358 55.1725 47.16 55.9374 47.16 56.7199C47.16 57.7692 46.7572 58.7755 46.0403 59.5175C45.3234 60.2595 44.3511 60.6763 43.3372 60.6763ZM54.8055 60.6763C54.0494 60.6763 53.3103 60.4443 52.6817 60.0095C52.053 59.5748 51.5631 58.9569 51.2737 58.234C50.9844 57.511 50.9087 56.7156 51.0562 55.9481C51.2037 55.1806 51.5678 54.4757 52.1024 53.9224C52.637 53.3691 53.3182 52.9923 54.0597 52.8396C54.8013 52.6869 55.5699 52.7653 56.2684 53.0647C56.9669 53.3642 57.564 53.8713 57.984 54.5219C58.4041 55.1725 58.6283 55.9374 58.6283 56.7199C58.6283 57.7692 58.2255 58.7755 57.5086 59.5175C56.7917 60.2595 55.8194 60.6763 54.8055 60.6763ZM66.2738 60.6763C65.5177 60.6763 64.7786 60.4443 64.15 60.0095C63.5213 59.5748 63.0314 58.9569 62.742 58.234C62.4527 57.511 62.377 56.7156 62.5245 55.9481C62.672 55.1806 63.0361 54.4757 63.5707 53.9224C64.1053 53.3691 64.7865 52.9923 65.528 52.8396C66.2696 52.6869 67.0382 52.7653 67.7367 53.0647C68.4352 53.3642 69.0323 53.8713 69.4523 54.5219C69.8724 55.1725 70.0966 55.9374 70.0966 56.7199C70.0966 57.7692 69.6938 58.7755 68.9769 59.5175C68.26 60.2595 67.2877 60.6763 66.2738 60.6763Z" fill="#3E4671"/>
<path d="M122.455 63.352C121.074 63.352 119.827 63.0544 118.712 62.459C117.61 61.8637 116.742 61.0467 116.109 60.008C115.488 58.9567 115.178 57.7787 115.178 56.474C115.178 55.1694 115.488 53.9977 116.109 52.959C116.742 51.9077 117.61 51.0844 118.712 50.489C119.827 49.8937 121.074 49.596 122.455 49.596C123.836 49.596 125.077 49.8937 126.179 50.489C127.281 51.0844 128.149 51.9077 128.782 52.959C129.415 53.9977 129.732 55.1694 129.732 56.474C129.732 57.7787 129.415 58.9567 128.782 60.008C128.149 61.0467 127.281 61.8637 126.179 62.459C125.077 63.0544 123.836 63.352 122.455 63.352ZM122.455 60.73C123.24 60.73 123.95 60.5527 124.583 60.198C125.216 59.8307 125.71 59.324 126.065 58.678C126.432 58.032 126.616 57.2974 126.616 56.474C126.616 55.6507 126.432 54.916 126.065 54.27C125.71 53.624 125.216 53.1237 124.583 52.769C123.95 52.4017 123.24 52.218 122.455 52.218C121.67 52.218 120.96 52.4017 120.327 52.769C119.694 53.1237 119.193 53.624 118.826 54.27C118.471 54.916 118.294 55.6507 118.294 56.474C118.294 57.2974 118.471 58.032 118.826 58.678C119.193 59.324 119.694 59.8307 120.327 60.198C120.96 60.5527 121.67 60.73 122.455 60.73ZM131.875 52.902H134.82V56.892H139.266V52.902H142.23V63.124H139.266V59.305H134.82V63.124H131.875V52.902ZM154.871 52.902V63.124H151.907V55.334H148.677L148.582 57.139C148.532 58.4817 148.405 59.5964 148.202 60.483C148 61.3697 147.67 62.0664 147.214 62.573C146.758 63.0797 146.125 63.333 145.314 63.333C144.884 63.333 144.371 63.257 143.775 63.105L143.927 60.673C144.13 60.6984 144.276 60.711 144.364 60.711C144.808 60.711 145.137 60.5527 145.352 60.236C145.58 59.9067 145.732 59.495 145.808 59.001C145.884 58.4944 145.941 57.8294 145.979 57.006L146.131 52.902H154.871ZM161.693 52.75C163.276 52.75 164.492 53.13 165.341 53.89C166.189 54.6374 166.614 55.771 166.614 57.291V63.124H163.84V61.851C163.282 62.801 162.244 63.276 160.724 63.276C159.938 63.276 159.254 63.143 158.672 62.877C158.102 62.611 157.665 62.2437 157.361 61.775C157.057 61.3064 156.905 60.7744 156.905 60.179C156.905 59.229 157.259 58.4817 157.969 57.937C158.691 57.3924 159.799 57.12 161.294 57.12H163.65C163.65 56.474 163.453 55.98 163.061 55.638C162.668 55.2834 162.079 55.106 161.294 55.106C160.749 55.106 160.211 55.1947 159.679 55.372C159.159 55.5367 158.716 55.7647 158.349 56.056L157.285 53.985C157.842 53.5924 158.507 53.2884 159.28 53.073C160.065 52.8577 160.869 52.75 161.693 52.75ZM161.465 61.281C161.971 61.281 162.421 61.167 162.814 60.939C163.206 60.6984 163.485 60.35 163.65 59.894V58.849H161.617C160.401 58.849 159.793 59.248 159.793 60.046C159.793 60.426 159.938 60.73 160.23 60.958C160.534 61.1734 160.945 61.281 161.465 61.281ZM169.189 52.902H172.134V58.982L177.112 52.902H179.829V63.124H176.884V57.044L171.925 63.124H169.189V52.902ZM174.319 51.8C172.089 51.8 170.968 50.8184 170.956 48.855H172.894C172.906 49.2984 173.027 49.6467 173.255 49.9C173.495 50.1407 173.844 50.261 174.3 50.261C174.756 50.261 175.104 50.1407 175.345 49.9C175.598 49.6467 175.725 49.2984 175.725 48.855H177.701C177.688 50.8184 176.561 51.8 174.319 51.8ZM182.678 52.902H185.623V56.892H190.069V52.902H193.033V63.124H190.069V59.305H185.623V63.124H182.678V52.902ZM201.251 52.902H204.196V58.982L209.174 52.902H211.891V63.124H208.946V57.044L203.987 63.124H201.251V52.902ZM214.74 52.902H217.685V56.892H222.131V52.902H225.095V63.124H222.131V59.305H217.685V63.124H214.74V52.902ZM242.05 57.975C242.05 59.5584 241.518 60.8124 240.454 61.737C239.402 62.649 237.895 63.1747 235.932 63.314V66.81H233.215V63.314C231.251 63.1747 229.738 62.6554 228.674 61.756C227.622 60.844 227.097 59.5837 227.097 57.975C227.097 56.3917 227.616 55.163 228.655 54.289C229.706 53.415 231.226 52.9084 233.215 52.769V49.026H235.932V52.769C237.895 52.9084 239.402 53.4214 240.454 54.308C241.518 55.1947 242.05 56.417 242.05 57.975ZM229.966 57.975C229.966 58.887 230.225 59.59 230.745 60.084C231.264 60.578 232.087 60.8884 233.215 61.015V55.068C232.087 55.182 231.264 55.4797 230.745 55.961C230.225 56.4297 229.966 57.101 229.966 57.975ZM235.932 61.015C237.059 60.8884 237.882 60.578 238.402 60.084C238.934 59.59 239.2 58.887 239.2 57.975C239.2 57.101 238.934 56.4297 238.402 55.961C237.882 55.4797 237.059 55.182 235.932 55.068V61.015ZM248.845 63.276C247.768 63.276 246.799 63.0544 245.938 62.611C245.089 62.155 244.424 61.528 243.943 60.73C243.461 59.932 243.221 59.0264 243.221 58.013C243.221 56.9997 243.461 56.094 243.943 55.296C244.424 54.498 245.089 53.8774 245.938 53.434C246.799 52.978 247.768 52.75 248.845 52.75C249.921 52.75 250.884 52.978 251.733 53.434C252.581 53.8774 253.246 54.498 253.728 55.296C254.209 56.094 254.45 56.9997 254.45 58.013C254.45 59.0264 254.209 59.932 253.728 60.73C253.246 61.528 252.581 62.155 251.733 62.611C250.884 63.0544 249.921 63.276 248.845 63.276ZM248.845 60.844C249.605 60.844 250.225 60.5907 250.707 60.084C251.201 59.5647 251.448 58.8744 251.448 58.013C251.448 57.1517 251.201 56.4677 250.707 55.961C250.225 55.4417 249.605 55.182 248.845 55.182C248.085 55.182 247.458 55.4417 246.964 55.961C246.47 56.4677 246.223 57.1517 246.223 58.013C246.223 58.8744 246.47 59.5647 246.964 60.084C247.458 60.5907 248.085 60.844 248.845 60.844ZM262.511 52.75C263.461 52.75 264.323 52.9717 265.095 53.415C265.881 53.8457 266.495 54.46 266.938 55.258C267.382 56.0434 267.603 56.9617 267.603 58.013C267.603 59.0644 267.382 59.989 266.938 60.787C266.495 61.5724 265.881 62.1867 265.095 62.63C264.323 63.0607 263.461 63.276 262.511 63.276C261.207 63.276 260.181 62.8644 259.433 62.041V66.81H256.469V52.902H259.3V54.08C260.035 53.1934 261.105 52.75 262.511 52.75ZM261.998 60.844C262.758 60.844 263.379 60.5907 263.86 60.084C264.354 59.5647 264.601 58.8744 264.601 58.013C264.601 57.1517 264.354 56.4677 263.86 55.961C263.379 55.4417 262.758 55.182 261.998 55.182C261.238 55.182 260.611 55.4417 260.117 55.961C259.636 56.4677 259.395 57.1517 259.395 58.013C259.395 58.8744 259.636 59.5647 260.117 60.084C260.611 60.5907 261.238 60.844 261.998 60.844ZM279.656 63.124V57.006L276.597 62.136H275.343L272.36 56.987V63.124H269.681V52.902H272.778L276.046 58.811L279.523 52.902H282.297L282.335 63.124H279.656ZM285.174 52.902H288.119V58.982L293.097 52.902H295.814V63.124H292.869V57.044L287.91 63.124H285.174V52.902ZM304.686 52.75C305.636 52.75 306.497 52.9717 307.27 53.415C308.055 53.8457 308.67 54.46 309.113 55.258C309.556 56.0434 309.778 56.9617 309.778 58.013C309.778 59.0644 309.556 59.989 309.113 60.787C308.67 61.5724 308.055 62.1867 307.27 62.63C306.497 63.0607 305.636 63.276 304.686 63.276C303.381 63.276 302.355 62.8644 301.608 62.041V66.81H298.644V52.902H301.475V54.08C302.21 53.1934 303.28 52.75 304.686 52.75ZM304.173 60.844C304.933 60.844 305.554 60.5907 306.035 60.084C306.529 59.5647 306.776 58.8744 306.776 58.013C306.776 57.1517 306.529 56.4677 306.035 55.961C305.554 55.4417 304.933 55.182 304.173 55.182C303.413 55.182 302.786 55.4417 302.292 55.961C301.811 56.4677 301.57 57.1517 301.57 58.013C301.57 58.8744 301.811 59.5647 302.292 60.084C302.786 60.5907 303.413 60.844 304.173 60.844ZM316.644 63.276C315.567 63.276 314.598 63.0544 313.737 62.611C312.888 62.155 312.223 61.528 311.742 60.73C311.26 59.932 311.02 59.0264 311.02 58.013C311.02 56.9997 311.26 56.094 311.742 55.296C312.223 54.498 312.888 53.8774 313.737 53.434C314.598 52.978 315.567 52.75 316.644 52.75C317.72 52.75 318.683 52.978 319.532 53.434C320.38 53.8774 321.045 54.498 321.527 55.296C322.008 56.094 322.249 56.9997 322.249 58.013C322.249 59.0264 322.008 59.932 321.527 60.73C321.045 61.528 320.38 62.155 319.532 62.611C318.683 63.0544 317.72 63.276 316.644 63.276ZM316.644 60.844C317.404 60.844 318.024 60.5907 318.506 60.084C319 59.5647 319.247 58.8744 319.247 58.013C319.247 57.1517 319 56.4677 318.506 55.961C318.024 55.4417 317.404 55.182 316.644 55.182C315.884 55.182 315.257 55.4417 314.763 55.961C314.269 56.4677 314.022 57.1517 314.022 58.013C314.022 58.8744 314.269 59.5647 314.763 60.084C315.257 60.5907 315.884 60.844 316.644 60.844ZM332.096 57.785C333.3 58.1904 333.901 59.001 333.901 60.217C333.901 61.1417 333.553 61.8574 332.856 62.364C332.16 62.8707 331.121 63.124 329.74 63.124H324.287V52.902H329.512C330.792 52.902 331.792 53.1364 332.514 53.605C333.236 54.061 333.597 54.707 333.597 55.543C333.597 56.0497 333.464 56.4994 333.198 56.892C332.945 57.272 332.578 57.5697 332.096 57.785ZM327.004 57.101H329.246C330.285 57.101 330.804 56.7337 330.804 55.999C330.804 55.277 330.285 54.916 329.246 54.916H327.004V57.101ZM329.493 61.11C330.583 61.11 331.127 60.7364 331.127 59.989C331.127 59.5964 331.001 59.3114 330.747 59.134C330.494 58.944 330.095 58.849 329.55 58.849H327.004V61.11H329.493ZM340.078 52.75C341.661 52.75 342.877 53.13 343.726 53.89C344.574 54.6374 344.999 55.771 344.999 57.291V63.124H342.225V61.851C341.667 62.801 340.629 63.276 339.109 63.276C338.323 63.276 337.639 63.143 337.057 62.877C336.487 62.611 336.05 62.2437 335.746 61.775C335.442 61.3064 335.29 60.7744 335.29 60.179C335.29 59.229 335.644 58.4817 336.354 57.937C337.076 57.3924 338.184 57.12 339.679 57.12H342.035C342.035 56.474 341.838 55.98 341.446 55.638C341.053 55.2834 340.464 55.106 339.679 55.106C339.134 55.106 338.596 55.1947 338.064 55.372C337.544 55.5367 337.101 55.7647 336.734 56.056L335.67 53.985C336.227 53.5924 336.892 53.2884 337.665 53.073C338.45 52.8577 339.254 52.75 340.078 52.75ZM339.85 61.281C340.356 61.281 340.806 61.167 341.199 60.939C341.591 60.6984 341.87 60.35 342.035 59.894V58.849H340.002C338.786 58.849 338.178 59.248 338.178 60.046C338.178 60.426 338.323 60.73 338.615 60.958C338.919 61.1734 339.33 61.281 339.85 61.281ZM347.573 52.902H350.518V56.892H354.964V52.902H357.928V63.124H354.964V59.305H350.518V63.124H347.573V52.902ZM360.766 52.902H363.711V58.982L368.689 52.902H371.406V63.124H368.461V57.044L363.502 63.124H360.766V52.902ZM384.192 58.051C384.192 58.089 384.173 58.355 384.135 58.849H376.402C376.541 59.4824 376.871 59.9827 377.39 60.35C377.909 60.7174 378.555 60.901 379.328 60.901C379.86 60.901 380.329 60.825 380.734 60.673C381.152 60.5084 381.538 60.255 381.893 59.913L383.47 61.623C382.507 62.725 381.101 63.276 379.252 63.276C378.099 63.276 377.08 63.0544 376.193 62.611C375.306 62.155 374.622 61.528 374.141 60.73C373.66 59.932 373.419 59.0264 373.419 58.013C373.419 57.0124 373.653 56.113 374.122 55.315C374.603 54.5044 375.256 53.8774 376.079 53.434C376.915 52.978 377.846 52.75 378.872 52.75C379.873 52.75 380.778 52.9654 381.589 53.396C382.4 53.8267 383.033 54.4474 383.489 55.258C383.958 56.056 384.192 56.987 384.192 58.051ZM378.891 54.992C378.22 54.992 377.656 55.182 377.2 55.562C376.744 55.942 376.465 56.4614 376.364 57.12H381.399C381.298 56.474 381.019 55.961 380.563 55.581C380.107 55.1884 379.55 54.992 378.891 54.992ZM396.348 59.248H394.809V63.124H391.845V52.902H394.809V56.873H396.405L399.179 52.902H402.333L398.761 57.804L402.58 63.124H399.084L396.348 59.248ZM413.839 52.902V63.124H410.875V55.334H407.645L407.55 57.139C407.5 58.4817 407.373 59.5964 407.17 60.483C406.968 61.3697 406.638 62.0664 406.182 62.573C405.726 63.0797 405.093 63.333 404.282 63.333C403.852 63.333 403.339 63.257 402.743 63.105L402.895 60.673C403.098 60.6984 403.244 60.711 403.332 60.711C403.776 60.711 404.105 60.5527 404.32 60.236C404.548 59.9067 404.7 59.495 404.776 59.001C404.852 58.4944 404.909 57.8294 404.947 57.006L405.099 52.902H413.839ZM416.69 52.902H419.635V58.982L424.613 52.902H427.33V63.124H424.385V57.044L419.426 63.124H416.69V52.902ZM440.116 58.051C440.116 58.089 440.097 58.355 440.059 58.849H432.326C432.465 59.4824 432.794 59.9827 433.314 60.35C433.833 60.7174 434.479 60.901 435.252 60.901C435.784 60.901 436.252 60.825 436.658 60.673C437.076 60.5084 437.462 60.255 437.817 59.913L439.394 61.623C438.431 62.725 437.025 63.276 435.176 63.276C434.023 63.276 433.003 63.0544 432.117 62.611C431.23 62.155 430.546 61.528 430.065 60.73C429.583 59.932 429.343 59.0264 429.343 58.013C429.343 57.0124 429.577 56.113 430.046 55.315C430.527 54.5044 431.179 53.8774 432.003 53.434C432.839 52.978 433.77 52.75 434.796 52.75C435.796 52.75 436.702 52.9654 437.513 53.396C438.323 53.8267 438.957 54.4474 439.413 55.258C439.881 56.056 440.116 56.987 440.116 58.051ZM434.815 54.992C434.143 54.992 433.58 55.182 433.124 55.562C432.668 55.942 432.389 56.4614 432.288 57.12H437.323C437.221 56.474 436.943 55.961 436.487 55.581C436.031 55.1884 435.473 54.992 434.815 54.992ZM442.388 52.902H445.333V56.892H449.779V52.902H452.743V63.124H449.779V59.305H445.333V63.124H442.388V52.902ZM464.168 55.334H460.71V63.124H457.765V55.334H454.307V52.902H464.168V55.334ZM469.719 52.75C471.302 52.75 472.518 53.13 473.367 53.89C474.216 54.6374 474.64 55.771 474.64 57.291V63.124H471.866V61.851C471.309 62.801 470.27 63.276 468.75 63.276C467.965 63.276 467.281 63.143 466.698 62.877C466.128 62.611 465.691 62.2437 465.387 61.775C465.083 61.3064 464.931 60.7744 464.931 60.179C464.931 59.229 465.286 58.4817 465.995 57.937C466.717 57.3924 467.825 57.12 469.32 57.12H471.676C471.676 56.474 471.48 55.98 471.087 55.638C470.694 55.2834 470.105 55.106 469.32 55.106C468.775 55.106 468.237 55.1947 467.705 55.372C467.186 55.5367 466.742 55.7647 466.375 56.056L465.311 53.985C465.868 53.5924 466.533 53.2884 467.306 53.073C468.091 52.8577 468.896 52.75 469.719 52.75ZM469.491 61.281C469.998 61.281 470.447 61.167 470.84 60.939C471.233 60.6984 471.511 60.35 471.676 59.894V58.849H469.643C468.427 58.849 467.819 59.248 467.819 60.046C467.819 60.426 467.965 60.73 468.256 60.958C468.56 61.1734 468.972 61.281 469.491 61.281Z" fill="white"/>
</svg>
