<svg width="645" height="135" viewBox="0 0 645 135" fill="none" xmlns="http://www.w3.org/2000/svg">
<rect x="33" y="17" width="612" height="102" fill="#3E4671"/>
<path d="M137.716 67.5C137.716 103.61 107.4 133 69.8582 133C32.3158 133 2 103.61 2 67.5C2 31.3895 32.3158 2 69.8582 2C107.4 2 137.716 31.3895 137.716 67.5Z" fill="white" stroke="#3E4671" stroke-width="4"/>
<g clip-path="url(#clip0)">
<path d="M107.229 75.6611C107.229 77.5443 103.495 78.7999 99.1378 79.4276C96.3369 74.0917 90.7351 70.0112 84.1996 67.1863C84.8221 66.2446 85.4445 65.6169 86.0669 64.6752H88.5566C98.2041 64.3613 107.229 70.3251 107.229 75.6611ZM53.7009 64.3613H51.2112C41.5637 64.3613 32.5386 70.3251 32.5386 75.6611C32.5386 77.5443 36.2731 78.7999 40.6301 79.4276C43.431 74.0917 49.0328 70.0112 55.5682 67.1863L53.7009 64.3613ZM69.8839 67.5001C76.7306 67.5001 82.3324 61.8503 82.3324 54.9449C82.3324 48.0395 76.7306 42.3896 69.8839 42.3896C63.0373 42.3896 57.4355 48.0395 57.4355 54.9449C57.4355 61.8503 63.0373 67.5001 69.8839 67.5001ZM69.8839 70.639C57.1243 70.639 44.987 78.7999 44.987 86.333C44.987 92.6106 69.8839 92.6106 69.8839 92.6106C69.8839 92.6106 94.7808 92.6106 94.7808 86.333C94.7808 78.7999 82.6436 70.639 69.8839 70.639ZM87.623 61.2225H88.5566C93.8472 61.2225 97.8929 57.1421 97.8929 51.8061C97.8929 46.4701 93.8472 42.3896 88.5566 42.3896C87.0005 42.3896 85.7557 42.7035 84.5109 43.3313C87.0005 46.4701 88.5566 50.5506 88.5566 54.9449C88.5566 57.1421 88.2454 59.3392 87.623 61.2225ZM51.2112 61.2225H52.1449C51.5225 59.3392 51.2112 57.1421 51.2112 54.9449C51.2112 50.5506 52.7673 46.4701 55.257 43.3313C54.0121 42.7035 52.7673 42.3896 51.2112 42.3896C45.9207 42.3896 41.8749 46.4701 41.8749 51.8061C41.8749 57.1421 45.9207 61.2225 51.2112 61.2225Z" fill="#3E4671"/>
</g>
<path d="M153.196 49.5598C154.498 49.5598 155.625 49.7768 156.577 50.2108C157.543 50.6448 158.285 51.2608 158.803 52.0588C159.321 52.8568 159.58 53.8018 159.58 54.8938C159.58 55.9718 159.321 56.9168 158.803 57.7288C158.285 58.5268 157.543 59.1428 156.577 59.5768C155.625 59.9968 154.498 60.2068 153.196 60.2068H150.235V64.2598H146.833V49.5598H153.196ZM153.007 57.4348C154.029 57.4348 154.806 57.2178 155.338 56.7838C155.87 56.3358 156.136 55.7058 156.136 54.8938C156.136 54.0678 155.87 53.4378 155.338 53.0038C154.806 52.5558 154.029 52.3318 153.007 52.3318H150.235V57.4348H153.007ZM172.824 58.6528C172.824 58.6948 172.803 58.9888 172.761 59.5348H164.214C164.368 60.2348 164.732 60.7878 165.306 61.1938C165.88 61.5998 166.594 61.8028 167.448 61.8028C168.036 61.8028 168.554 61.7188 169.002 61.5508C169.464 61.3688 169.891 61.0888 170.283 60.7108L172.026 62.6008C170.962 63.8188 169.408 64.4278 167.364 64.4278C166.09 64.4278 164.963 64.1828 163.983 63.6928C163.003 63.1888 162.247 62.4958 161.715 61.6138C161.183 60.7318 160.917 59.7308 160.917 58.6108C160.917 57.5048 161.176 56.5108 161.694 55.6288C162.226 54.7328 162.947 54.0398 163.857 53.5498C164.781 53.0458 165.81 52.7938 166.944 52.7938C168.05 52.7938 169.051 53.0318 169.947 53.5078C170.843 53.9838 171.543 54.6698 172.047 55.5658C172.565 56.4478 172.824 57.4768 172.824 58.6528ZM166.965 55.2718C166.223 55.2718 165.6 55.4818 165.096 55.9018C164.592 56.3218 164.284 56.8958 164.172 57.6238H169.737C169.625 56.9098 169.317 56.3428 168.813 55.9228C168.309 55.4888 167.693 55.2718 166.965 55.2718ZM178.134 54.4528C178.526 53.9068 179.051 53.4938 179.709 53.2138C180.381 52.9338 181.151 52.7938 182.019 52.7938V55.8178C181.655 55.7898 181.41 55.7758 181.284 55.7758C180.346 55.7758 179.611 56.0418 179.079 56.5738C178.547 57.0918 178.281 57.8758 178.281 58.9258V64.2598H175.005V52.9618H178.134V54.4528ZM187.809 64.4278C186.871 64.4278 185.954 64.3158 185.058 64.0918C184.162 63.8538 183.448 63.5598 182.916 63.2098L184.008 60.8578C184.512 61.1798 185.121 61.4458 185.835 61.6558C186.549 61.8518 187.249 61.9498 187.935 61.9498C189.321 61.9498 190.014 61.6068 190.014 60.9208C190.014 60.5988 189.825 60.3678 189.447 60.2278C189.069 60.0878 188.488 59.9688 187.704 59.8708C186.78 59.7308 186.017 59.5698 185.415 59.3878C184.813 59.2058 184.288 58.8838 183.84 58.4218C183.406 57.9598 183.189 57.3018 183.189 56.4478C183.189 55.7338 183.392 55.1038 183.798 54.5578C184.218 53.9978 184.82 53.5638 185.604 53.2558C186.402 52.9478 187.34 52.7938 188.418 52.7938C189.216 52.7938 190.007 52.8848 190.791 53.0668C191.589 53.2348 192.247 53.4728 192.765 53.7808L191.673 56.1118C190.679 55.5518 189.594 55.2718 188.418 55.2718C187.718 55.2718 187.193 55.3698 186.843 55.5658C186.493 55.7618 186.318 56.0138 186.318 56.3218C186.318 56.6718 186.507 56.9168 186.885 57.0568C187.263 57.1968 187.865 57.3298 188.691 57.4558C189.615 57.6098 190.371 57.7778 190.959 57.9598C191.547 58.1278 192.058 58.4428 192.492 58.9048C192.926 59.3668 193.143 60.0108 193.143 60.8368C193.143 61.5368 192.933 62.1598 192.513 62.7058C192.093 63.2518 191.477 63.6788 190.665 63.9868C189.867 64.2808 188.915 64.4278 187.809 64.4278ZM200.54 64.4278C199.35 64.4278 198.279 64.1828 197.327 63.6928C196.389 63.1888 195.654 62.4958 195.122 61.6138C194.59 60.7318 194.324 59.7308 194.324 58.6108C194.324 57.4908 194.59 56.4898 195.122 55.6078C195.654 54.7258 196.389 54.0398 197.327 53.5498C198.279 53.0458 199.35 52.7938 200.54 52.7938C201.73 52.7938 202.794 53.0458 203.732 53.5498C204.67 54.0398 205.405 54.7258 205.937 55.6078C206.469 56.4898 206.735 57.4908 206.735 58.6108C206.735 59.7308 206.469 60.7318 205.937 61.6138C205.405 62.4958 204.67 63.1888 203.732 63.6928C202.794 64.1828 201.73 64.4278 200.54 64.4278ZM200.54 61.7398C201.38 61.7398 202.066 61.4598 202.598 60.8998C203.144 60.3258 203.417 59.5628 203.417 58.6108C203.417 57.6588 203.144 56.9028 202.598 56.3428C202.066 55.7688 201.38 55.4818 200.54 55.4818C199.7 55.4818 199.007 55.7688 198.461 56.3428C197.915 56.9028 197.642 57.6588 197.642 58.6108C197.642 59.5628 197.915 60.3258 198.461 60.8998C199.007 61.4598 199.7 61.7398 200.54 61.7398ZM215.792 52.7938C217.192 52.7938 218.319 53.2138 219.173 54.0538C220.041 54.8938 220.475 56.1398 220.475 57.7918V64.2598H217.199V58.2958C217.199 57.3998 217.003 56.7348 216.611 56.3008C216.219 55.8528 215.652 55.6288 214.91 55.6288C214.084 55.6288 213.426 55.8878 212.936 56.4058C212.446 56.9098 212.201 57.6658 212.201 58.6738V64.2598H208.925V52.9618H212.054V54.2848C212.488 53.8088 213.027 53.4448 213.671 53.1928C214.315 52.9268 215.022 52.7938 215.792 52.7938ZM228.002 52.7938C229.752 52.7938 231.096 53.2138 232.034 54.0538C232.972 54.8798 233.441 56.1328 233.441 57.8128V64.2598H230.375V62.8528C229.759 63.9028 228.611 64.4278 226.931 64.4278C226.063 64.4278 225.307 64.2808 224.663 63.9868C224.033 63.6928 223.55 63.2868 223.214 62.7688C222.878 62.2508 222.71 61.6628 222.71 61.0048C222.71 59.9548 223.102 59.1288 223.886 58.5268C224.684 57.9248 225.909 57.6238 227.561 57.6238H230.165C230.165 56.9098 229.948 56.3638 229.514 55.9858C229.08 55.5938 228.429 55.3978 227.561 55.3978C226.959 55.3978 226.364 55.4958 225.776 55.6918C225.202 55.8738 224.712 56.1258 224.306 56.4478L223.13 54.1588C223.746 53.7248 224.481 53.3888 225.335 53.1508C226.203 52.9128 227.092 52.7938 228.002 52.7938ZM227.75 62.2228C228.31 62.2228 228.807 62.0968 229.241 61.8448C229.675 61.5788 229.983 61.1938 230.165 60.6898V59.5348H227.918C226.574 59.5348 225.902 59.9758 225.902 60.8578C225.902 61.2778 226.063 61.6138 226.385 61.8658C226.721 62.1038 227.176 62.2228 227.75 62.2228ZM236.406 48.6778H239.682V64.2598H236.406V48.6778ZM263.138 52.7938C264.552 52.7938 265.672 53.2138 266.498 54.0538C267.338 54.8798 267.758 56.1258 267.758 57.7918V64.2598H264.482V58.2958C264.482 57.3998 264.293 56.7348 263.915 56.3008C263.551 55.8528 263.026 55.6288 262.34 55.6288C261.57 55.6288 260.961 55.8808 260.513 56.3848C260.065 56.8748 259.841 57.6098 259.841 58.5898V64.2598H256.565V58.2958C256.565 56.5178 255.851 55.6288 254.423 55.6288C253.667 55.6288 253.065 55.8808 252.617 56.3848C252.169 56.8748 251.945 57.6098 251.945 58.5898V64.2598H248.669V52.9618H251.798V54.2638C252.218 53.7878 252.729 53.4238 253.331 53.1718C253.947 52.9198 254.619 52.7938 255.347 52.7938C256.145 52.7938 256.866 52.9548 257.51 53.2768C258.154 53.5848 258.672 54.0398 259.064 54.6418C259.526 54.0538 260.107 53.5988 260.807 53.2768C261.521 52.9548 262.298 52.7938 263.138 52.7938ZM275.252 52.7938C277.002 52.7938 278.346 53.2138 279.284 54.0538C280.222 54.8798 280.691 56.1328 280.691 57.8128V64.2598H277.625V62.8528C277.009 63.9028 275.861 64.4278 274.181 64.4278C273.313 64.4278 272.557 64.2808 271.913 63.9868C271.283 63.6928 270.8 63.2868 270.464 62.7688C270.128 62.2508 269.96 61.6628 269.96 61.0048C269.96 59.9548 270.352 59.1288 271.136 58.5268C271.934 57.9248 273.159 57.6238 274.811 57.6238H277.415C277.415 56.9098 277.198 56.3638 276.764 55.9858C276.33 55.5938 275.679 55.3978 274.811 55.3978C274.209 55.3978 273.614 55.4958 273.026 55.6918C272.452 55.8738 271.962 56.1258 271.556 56.4478L270.38 54.1588C270.996 53.7248 271.731 53.3888 272.585 53.1508C273.453 52.9128 274.342 52.7938 275.252 52.7938ZM275 62.2228C275.56 62.2228 276.057 62.0968 276.491 61.8448C276.925 61.5788 277.233 61.1938 277.415 60.6898V59.5348H275.168C273.824 59.5348 273.152 59.9758 273.152 60.8578C273.152 61.2778 273.313 61.6138 273.635 61.8658C273.971 62.1038 274.426 62.2228 275 62.2228ZM290.523 52.7938C291.923 52.7938 293.05 53.2138 293.904 54.0538C294.772 54.8938 295.206 56.1398 295.206 57.7918V64.2598H291.93V58.2958C291.93 57.3998 291.734 56.7348 291.342 56.3008C290.95 55.8528 290.383 55.6288 289.641 55.6288C288.815 55.6288 288.157 55.8878 287.667 56.4058C287.177 56.9098 286.932 57.6658 286.932 58.6738V64.2598H283.656V52.9618H286.785V54.2848C287.219 53.8088 287.758 53.4448 288.402 53.1928C289.046 52.9268 289.753 52.7938 290.523 52.7938ZM302.732 52.7938C304.482 52.7938 305.826 53.2138 306.764 54.0538C307.702 54.8798 308.171 56.1328 308.171 57.8128V64.2598H305.105V62.8528C304.489 63.9028 303.341 64.4278 301.661 64.4278C300.793 64.4278 300.037 64.2808 299.393 63.9868C298.763 63.6928 298.28 63.2868 297.944 62.7688C297.608 62.2508 297.44 61.6628 297.44 61.0048C297.44 59.9548 297.832 59.1288 298.616 58.5268C299.414 57.9248 300.639 57.6238 302.291 57.6238H304.895C304.895 56.9098 304.678 56.3638 304.244 55.9858C303.81 55.5938 303.159 55.3978 302.291 55.3978C301.689 55.3978 301.094 55.4958 300.506 55.6918C299.932 55.8738 299.442 56.1258 299.036 56.4478L297.86 54.1588C298.476 53.7248 299.211 53.3888 300.065 53.1508C300.933 52.9128 301.822 52.7938 302.732 52.7938ZM302.48 62.2228C303.04 62.2228 303.537 62.0968 303.971 61.8448C304.405 61.5788 304.713 61.1938 304.895 60.6898V59.5348H302.648C301.304 59.5348 300.632 59.9758 300.632 60.8578C300.632 61.2778 300.793 61.6138 301.115 61.8658C301.451 62.1038 301.906 62.2228 302.48 62.2228ZM322.914 52.9618V62.3698C322.914 64.4418 322.375 65.9818 321.297 66.9898C320.219 67.9978 318.644 68.5018 316.572 68.5018C315.48 68.5018 314.444 68.3688 313.464 68.1028C312.484 67.8368 311.672 67.4518 311.028 66.9478L312.33 64.5958C312.806 64.9878 313.408 65.2958 314.136 65.5198C314.864 65.7578 315.592 65.8768 316.32 65.8768C317.454 65.8768 318.287 65.6178 318.819 65.0998C319.365 64.5958 319.638 63.8258 319.638 62.7898V62.3068C318.784 63.2448 317.594 63.7138 316.068 63.7138C315.032 63.7138 314.08 63.4898 313.212 63.0418C312.358 62.5798 311.679 61.9358 311.175 61.1098C310.671 60.2838 310.419 59.3318 310.419 58.2538C310.419 57.1758 310.671 56.2238 311.175 55.3978C311.679 54.5718 312.358 53.9348 313.212 53.4868C314.08 53.0248 315.032 52.7938 316.068 52.7938C317.706 52.7938 318.952 53.3328 319.806 54.4108V52.9618H322.914ZM316.719 61.0258C317.587 61.0258 318.294 60.7738 318.84 60.2698C319.4 59.7518 319.68 59.0798 319.68 58.2538C319.68 57.4278 319.4 56.7628 318.84 56.2588C318.294 55.7408 317.587 55.4818 316.719 55.4818C315.851 55.4818 315.137 55.7408 314.577 56.2588C314.017 56.7628 313.737 57.4278 313.737 58.2538C313.737 59.0798 314.017 59.7518 314.577 60.2698C315.137 60.7738 315.851 61.0258 316.719 61.0258ZM337.03 58.6528C337.03 58.6948 337.009 58.9888 336.967 59.5348H328.42C328.574 60.2348 328.938 60.7878 329.512 61.1938C330.086 61.5998 330.8 61.8028 331.654 61.8028C332.242 61.8028 332.76 61.7188 333.208 61.5508C333.67 61.3688 334.097 61.0888 334.489 60.7108L336.232 62.6008C335.168 63.8188 333.614 64.4278 331.57 64.4278C330.296 64.4278 329.169 64.1828 328.189 63.6928C327.209 63.1888 326.453 62.4958 325.921 61.6138C325.389 60.7318 325.123 59.7308 325.123 58.6108C325.123 57.5048 325.382 56.5108 325.9 55.6288C326.432 54.7328 327.153 54.0398 328.063 53.5498C328.987 53.0458 330.016 52.7938 331.15 52.7938C332.256 52.7938 333.257 53.0318 334.153 53.5078C335.049 53.9838 335.749 54.6698 336.253 55.5658C336.771 56.4478 337.03 57.4768 337.03 58.6528ZM331.171 55.2718C330.429 55.2718 329.806 55.4818 329.302 55.9018C328.798 56.3218 328.49 56.8958 328.378 57.6238H333.943C333.831 56.9098 333.523 56.3428 333.019 55.9228C332.515 55.4888 331.899 55.2718 331.171 55.2718ZM342.34 54.4528C342.732 53.9068 343.257 53.4938 343.915 53.2138C344.587 52.9338 345.357 52.7938 346.225 52.7938V55.8178C345.861 55.7898 345.616 55.7758 345.49 55.7758C344.552 55.7758 343.817 56.0418 343.285 56.5738C342.753 57.0918 342.487 57.8758 342.487 58.9258V64.2598H339.211V52.9618H342.34V54.4528ZM357.794 53.2138H360.692V55.7338H357.878V64.2598H354.602V55.7338H352.859V53.2138H354.602V52.7098C354.602 51.4218 354.98 50.3998 355.736 49.6438C356.506 48.8878 357.584 48.5098 358.97 48.5098C359.46 48.5098 359.922 48.5658 360.356 48.6778C360.804 48.7758 361.175 48.9228 361.469 49.1188L360.608 51.4918C360.23 51.2258 359.789 51.0928 359.285 51.0928C358.291 51.0928 357.794 51.6388 357.794 52.7308V53.2138ZM367.556 64.4278C366.366 64.4278 365.295 64.1828 364.343 63.6928C363.405 63.1888 362.67 62.4958 362.138 61.6138C361.606 60.7318 361.34 59.7308 361.34 58.6108C361.34 57.4908 361.606 56.4898 362.138 55.6078C362.67 54.7258 363.405 54.0398 364.343 53.5498C365.295 53.0458 366.366 52.7938 367.556 52.7938C368.746 52.7938 369.81 53.0458 370.748 53.5498C371.686 54.0398 372.421 54.7258 372.953 55.6078C373.485 56.4898 373.751 57.4908 373.751 58.6108C373.751 59.7308 373.485 60.7318 372.953 61.6138C372.421 62.4958 371.686 63.1888 370.748 63.6928C369.81 64.1828 368.746 64.4278 367.556 64.4278ZM367.556 61.7398C368.396 61.7398 369.082 61.4598 369.614 60.8998C370.16 60.3258 370.433 59.5628 370.433 58.6108C370.433 57.6588 370.16 56.9028 369.614 56.3428C369.082 55.7688 368.396 55.4818 367.556 55.4818C366.716 55.4818 366.023 55.7688 365.477 56.3428C364.931 56.9028 364.658 57.6588 364.658 58.6108C364.658 59.5628 364.931 60.3258 365.477 60.8998C366.023 61.4598 366.716 61.7398 367.556 61.7398ZM379.07 54.4528C379.462 53.9068 379.987 53.4938 380.645 53.2138C381.317 52.9338 382.087 52.7938 382.955 52.7938V55.8178C382.591 55.7898 382.346 55.7758 382.22 55.7758C381.282 55.7758 380.547 56.0418 380.015 56.5738C379.483 57.0918 379.217 57.8758 379.217 58.9258V64.2598H375.941V52.9618H379.07V54.4528ZM401.999 58.6528C401.999 58.6948 401.978 58.9888 401.936 59.5348H393.389C393.543 60.2348 393.907 60.7878 394.481 61.1938C395.055 61.5998 395.769 61.8028 396.623 61.8028C397.211 61.8028 397.729 61.7188 398.177 61.5508C398.639 61.3688 399.066 61.0888 399.458 60.7108L401.201 62.6008C400.137 63.8188 398.583 64.4278 396.539 64.4278C395.265 64.4278 394.138 64.1828 393.158 63.6928C392.178 63.1888 391.422 62.4958 390.89 61.6138C390.358 60.7318 390.092 59.7308 390.092 58.6108C390.092 57.5048 390.351 56.5108 390.869 55.6288C391.401 54.7328 392.122 54.0398 393.032 53.5498C393.956 53.0458 394.985 52.7938 396.119 52.7938C397.225 52.7938 398.226 53.0318 399.122 53.5078C400.018 53.9838 400.718 54.6698 401.222 55.5658C401.74 56.4478 401.999 57.4768 401.999 58.6528ZM396.14 55.2718C395.398 55.2718 394.775 55.4818 394.271 55.9018C393.767 56.3218 393.459 56.8958 393.347 57.6238H398.912C398.8 56.9098 398.492 56.3428 397.988 55.9228C397.484 55.4888 396.868 55.2718 396.14 55.2718ZM408.429 52.7938C410.179 52.7938 411.523 53.2138 412.461 54.0538C413.399 54.8798 413.868 56.1328 413.868 57.8128V64.2598H410.802V62.8528C410.186 63.9028 409.038 64.4278 407.358 64.4278C406.49 64.4278 405.734 64.2808 405.09 63.9868C404.46 63.6928 403.977 63.2868 403.641 62.7688C403.305 62.2508 403.137 61.6628 403.137 61.0048C403.137 59.9548 403.529 59.1288 404.313 58.5268C405.111 57.9248 406.336 57.6238 407.988 57.6238H410.592C410.592 56.9098 410.375 56.3638 409.941 55.9858C409.507 55.5938 408.856 55.3978 407.988 55.3978C407.386 55.3978 406.791 55.4958 406.203 55.6918C405.629 55.8738 405.139 56.1258 404.733 56.4478L403.557 54.1588C404.173 53.7248 404.908 53.3888 405.762 53.1508C406.63 52.9128 407.519 52.7938 408.429 52.7938ZM408.177 62.2228C408.737 62.2228 409.234 62.0968 409.668 61.8448C410.102 61.5788 410.41 61.1938 410.592 60.6898V59.5348H408.345C407.001 59.5348 406.329 59.9758 406.329 60.8578C406.329 61.2778 406.49 61.6138 406.812 61.8658C407.148 62.1038 407.603 62.2228 408.177 62.2228ZM422.416 64.4278C421.212 64.4278 420.127 64.1828 419.161 63.6928C418.209 63.1888 417.46 62.4958 416.914 61.6138C416.382 60.7318 416.116 59.7308 416.116 58.6108C416.116 57.4908 416.382 56.4898 416.914 55.6078C417.46 54.7258 418.209 54.0398 419.161 53.5498C420.127 53.0458 421.212 52.7938 422.416 52.7938C423.606 52.7938 424.642 53.0458 425.524 53.5498C426.42 54.0398 427.071 54.7468 427.477 55.6708L424.936 57.0358C424.348 55.9998 423.501 55.4818 422.395 55.4818C421.541 55.4818 420.834 55.7618 420.274 56.3218C419.714 56.8818 419.434 57.6448 419.434 58.6108C419.434 59.5768 419.714 60.3398 420.274 60.8998C420.834 61.4598 421.541 61.7398 422.395 61.7398C423.515 61.7398 424.362 61.2218 424.936 60.1858L427.477 61.5718C427.071 62.4678 426.42 63.1678 425.524 63.6718C424.642 64.1758 423.606 64.4278 422.416 64.4278ZM436.149 52.7938C437.549 52.7938 438.676 53.2138 439.53 54.0538C440.398 54.8938 440.832 56.1398 440.832 57.7918V64.2598H437.556V58.2958C437.556 57.3998 437.36 56.7348 436.968 56.3008C436.576 55.8528 436.009 55.6288 435.267 55.6288C434.441 55.6288 433.783 55.8878 433.293 56.4058C432.803 56.9098 432.558 57.6658 432.558 58.6738V64.2598H429.282V48.6778H432.558V54.1378C432.992 53.7038 433.517 53.3748 434.133 53.1508C434.749 52.9128 435.421 52.7938 436.149 52.7938ZM455.208 64.4278C454.004 64.4278 452.919 64.1828 451.953 63.6928C451.001 63.1888 450.252 62.4958 449.706 61.6138C449.174 60.7318 448.908 59.7308 448.908 58.6108C448.908 57.4908 449.174 56.4898 449.706 55.6078C450.252 54.7258 451.001 54.0398 451.953 53.5498C452.919 53.0458 454.004 52.7938 455.208 52.7938C456.398 52.7938 457.434 53.0458 458.316 53.5498C459.212 54.0398 459.863 54.7468 460.269 55.6708L457.728 57.0358C457.14 55.9998 456.293 55.4818 455.187 55.4818C454.333 55.4818 453.626 55.7618 453.066 56.3218C452.506 56.8818 452.226 57.6448 452.226 58.6108C452.226 59.5768 452.506 60.3398 453.066 60.8998C453.626 61.4598 454.333 61.7398 455.187 61.7398C456.307 61.7398 457.154 61.2218 457.728 60.1858L460.269 61.5718C459.863 62.4678 459.212 63.1678 458.316 63.6718C457.434 64.1758 456.398 64.4278 455.208 64.4278ZM462.074 48.6778H465.35V64.2598H462.074V48.6778ZM468.39 52.9618H471.666V64.2598H468.39V52.9618ZM470.028 51.3868C469.426 51.3868 468.936 51.2118 468.558 50.8618C468.18 50.5118 467.991 50.0778 467.991 49.5598C467.991 49.0418 468.18 48.6078 468.558 48.2578C468.936 47.9078 469.426 47.7328 470.028 47.7328C470.63 47.7328 471.12 47.9008 471.498 48.2368C471.876 48.5728 472.065 48.9928 472.065 49.4968C472.065 50.0428 471.876 50.4978 471.498 50.8618C471.12 51.2118 470.63 51.3868 470.028 51.3868ZM485.773 58.6528C485.773 58.6948 485.752 58.9888 485.71 59.5348H477.163C477.317 60.2348 477.681 60.7878 478.255 61.1938C478.829 61.5998 479.543 61.8028 480.397 61.8028C480.985 61.8028 481.503 61.7188 481.951 61.5508C482.413 61.3688 482.84 61.0888 483.232 60.7108L484.975 62.6008C483.911 63.8188 482.357 64.4278 480.313 64.4278C479.039 64.4278 477.912 64.1828 476.932 63.6928C475.952 63.1888 475.196 62.4958 474.664 61.6138C474.132 60.7318 473.866 59.7308 473.866 58.6108C473.866 57.5048 474.125 56.5108 474.643 55.6288C475.175 54.7328 475.896 54.0398 476.806 53.5498C477.73 53.0458 478.759 52.7938 479.893 52.7938C480.999 52.7938 482 53.0318 482.896 53.5078C483.792 53.9838 484.492 54.6698 484.996 55.5658C485.514 56.4478 485.773 57.4768 485.773 58.6528ZM479.914 55.2718C479.172 55.2718 478.549 55.4818 478.045 55.9018C477.541 56.3218 477.233 56.8958 477.121 57.6238H482.686C482.574 56.9098 482.266 56.3428 481.762 55.9228C481.258 55.4888 480.642 55.2718 479.914 55.2718ZM494.822 52.7938C496.222 52.7938 497.349 53.2138 498.203 54.0538C499.071 54.8938 499.505 56.1398 499.505 57.7918V64.2598H496.229V58.2958C496.229 57.3998 496.033 56.7348 495.641 56.3008C495.249 55.8528 494.682 55.6288 493.94 55.6288C493.114 55.6288 492.456 55.8878 491.966 56.4058C491.476 56.9098 491.231 57.6658 491.231 58.6738V64.2598H487.955V52.9618H491.084V54.2848C491.518 53.8088 492.057 53.4448 492.701 53.1928C493.345 52.9268 494.052 52.7938 494.822 52.7938ZM509.761 63.7138C509.439 63.9518 509.04 64.1338 508.564 64.2598C508.102 64.3718 507.612 64.4278 507.094 64.4278C505.75 64.4278 504.707 64.0848 503.965 63.3988C503.237 62.7128 502.873 61.7048 502.873 60.3748V55.7338H501.13V53.2138H502.873V50.4628H506.149V53.2138H508.963V55.7338H506.149V60.3328C506.149 60.8088 506.268 61.1798 506.506 61.4458C506.758 61.6978 507.108 61.8238 507.556 61.8238C508.074 61.8238 508.515 61.6838 508.879 61.4038L509.761 63.7138Z" fill="white"/>
<defs>
<clipPath id="clip0">
<rect width="74.6907" height="75.3315" fill="white" transform="translate(32.5386 29.834)"/>
</clipPath>
</defs>
</svg>
