<svg width="645" height="135" viewBox="0 0 645 135" fill="none" xmlns="http://www.w3.org/2000/svg">
<rect x="33" y="17" width="612" height="102" fill="#3E4671"/>
<path d="M137.716 67.5C137.716 103.61 107.4 133 69.8582 133C32.3158 133 2 103.61 2 67.5C2 31.3895 32.3158 2 69.8582 2C107.4 2 137.716 31.3895 137.716 67.5Z" fill="white" stroke="#3E4671" stroke-width="4"/>
<g clip-path="url(#clip0)">
<path d="M107.229 75.6611C107.229 77.5443 103.495 78.7999 99.1378 79.4276C96.3369 74.0917 90.7351 70.0112 84.1996 67.1863C84.8221 66.2446 85.4445 65.6169 86.0669 64.6752H88.5566C98.2041 64.3613 107.229 70.3251 107.229 75.6611ZM53.7009 64.3613H51.2112C41.5637 64.3613 32.5386 70.3251 32.5386 75.6611C32.5386 77.5443 36.2731 78.7999 40.6301 79.4276C43.431 74.0917 49.0328 70.0112 55.5682 67.1863L53.7009 64.3613ZM69.8839 67.5001C76.7306 67.5001 82.3324 61.8503 82.3324 54.9449C82.3324 48.0395 76.7306 42.3896 69.8839 42.3896C63.0373 42.3896 57.4355 48.0395 57.4355 54.9449C57.4355 61.8503 63.0373 67.5001 69.8839 67.5001ZM69.8839 70.639C57.1243 70.639 44.987 78.7999 44.987 86.333C44.987 92.6106 69.8839 92.6106 69.8839 92.6106C69.8839 92.6106 94.7808 92.6106 94.7808 86.333C94.7808 78.7999 82.6436 70.639 69.8839 70.639ZM87.623 61.2225H88.5566C93.8472 61.2225 97.8929 57.1421 97.8929 51.8061C97.8929 46.4701 93.8472 42.3896 88.5566 42.3896C87.0005 42.3896 85.7557 42.7035 84.5109 43.3313C87.0005 46.4701 88.5566 50.5506 88.5566 54.9449C88.5566 57.1421 88.2454 59.3392 87.623 61.2225ZM51.2112 61.2225H52.1449C51.5225 59.3392 51.2112 57.1421 51.2112 54.9449C51.2112 50.5506 52.7673 46.4701 55.257 43.3313C54.0121 42.7035 52.7673 42.3896 51.2112 42.3896C45.9207 42.3896 41.8749 46.4701 41.8749 51.8061C41.8749 57.1421 45.9207 61.2225 51.2112 61.2225Z" fill="#3E4671"/>
</g>
<path d="M160.315 49.5598V64.2598H156.934V52.3318H150.298V64.2598H146.917V49.5598H160.315ZM174.69 58.6528C174.69 58.6948 174.669 58.9888 174.627 59.5348H166.08C166.234 60.2348 166.598 60.7878 167.172 61.1938C167.746 61.5998 168.46 61.8028 169.314 61.8028C169.902 61.8028 170.42 61.7188 170.868 61.5508C171.33 61.3688 171.757 61.0888 172.149 60.7108L173.892 62.6008C172.828 63.8188 171.274 64.4278 169.23 64.4278C167.956 64.4278 166.829 64.1828 165.849 63.6928C164.869 63.1888 164.113 62.4958 163.581 61.6138C163.049 60.7318 162.783 59.7308 162.783 58.6108C162.783 57.5048 163.042 56.5108 163.56 55.6288C164.092 54.7328 164.813 54.0398 165.723 53.5498C166.647 53.0458 167.676 52.7938 168.81 52.7938C169.916 52.7938 170.917 53.0318 171.813 53.5078C172.709 53.9838 173.409 54.6698 173.913 55.5658C174.431 56.4478 174.69 57.4768 174.69 58.6528ZM168.831 55.2718C168.089 55.2718 167.466 55.4818 166.962 55.9018C166.458 56.3218 166.15 56.8958 166.038 57.6238H171.603C171.491 56.9098 171.183 56.3428 170.679 55.9228C170.175 55.4888 169.559 55.2718 168.831 55.2718ZM183.858 52.7938C184.908 52.7938 185.86 53.0388 186.714 53.5288C187.582 54.0048 188.261 54.6838 188.751 55.5658C189.241 56.4338 189.486 57.4488 189.486 58.6108C189.486 59.7728 189.241 60.7948 188.751 61.6768C188.261 62.5448 187.582 63.2238 186.714 63.7138C185.86 64.1898 184.908 64.4278 183.858 64.4278C182.416 64.4278 181.282 63.9728 180.456 63.0628V68.3338H177.18V52.9618H180.309V54.2638C181.121 53.2838 182.304 52.7938 183.858 52.7938ZM183.291 61.7398C184.131 61.7398 184.817 61.4598 185.349 60.8998C185.895 60.3258 186.168 59.5628 186.168 58.6108C186.168 57.6588 185.895 56.9028 185.349 56.3428C184.817 55.7688 184.131 55.4818 183.291 55.4818C182.451 55.4818 181.758 55.7688 181.212 56.3428C180.68 56.9028 180.414 57.6588 180.414 58.6108C180.414 59.5628 180.68 60.3258 181.212 60.8998C181.758 61.4598 182.451 61.7398 183.291 61.7398ZM197.158 64.4278C195.954 64.4278 194.869 64.1828 193.903 63.6928C192.951 63.1888 192.202 62.4958 191.656 61.6138C191.124 60.7318 190.858 59.7308 190.858 58.6108C190.858 57.4908 191.124 56.4898 191.656 55.6078C192.202 54.7258 192.951 54.0398 193.903 53.5498C194.869 53.0458 195.954 52.7938 197.158 52.7938C198.348 52.7938 199.384 53.0458 200.266 53.5498C201.162 54.0398 201.813 54.7468 202.219 55.6708L199.678 57.0358C199.09 55.9998 198.243 55.4818 197.137 55.4818C196.283 55.4818 195.576 55.7618 195.016 56.3218C194.456 56.8818 194.176 57.6448 194.176 58.6108C194.176 59.5768 194.456 60.3398 195.016 60.8998C195.576 61.4598 196.283 61.7398 197.137 61.7398C198.257 61.7398 199.104 61.2218 199.678 60.1858L202.219 61.5718C201.813 62.4678 201.162 63.1678 200.266 63.6718C199.384 64.1758 198.348 64.4278 197.158 64.4278ZM209.358 64.4278C208.168 64.4278 207.097 64.1828 206.145 63.6928C205.207 63.1888 204.472 62.4958 203.94 61.6138C203.408 60.7318 203.142 59.7308 203.142 58.6108C203.142 57.4908 203.408 56.4898 203.94 55.6078C204.472 54.7258 205.207 54.0398 206.145 53.5498C207.097 53.0458 208.168 52.7938 209.358 52.7938C210.548 52.7938 211.612 53.0458 212.55 53.5498C213.488 54.0398 214.223 54.7258 214.755 55.6078C215.287 56.4898 215.553 57.4908 215.553 58.6108C215.553 59.7308 215.287 60.7318 214.755 61.6138C214.223 62.4958 213.488 63.1888 212.55 63.6928C211.612 64.1828 210.548 64.4278 209.358 64.4278ZM209.358 61.7398C210.198 61.7398 210.884 61.4598 211.416 60.8998C211.962 60.3258 212.235 59.5628 212.235 58.6108C212.235 57.6588 211.962 56.9028 211.416 56.3428C210.884 55.7688 210.198 55.4818 209.358 55.4818C208.518 55.4818 207.825 55.7688 207.279 56.3428C206.733 56.9028 206.46 57.6588 206.46 58.6108C206.46 59.5628 206.733 60.3258 207.279 60.8998C207.825 61.4598 208.518 61.7398 209.358 61.7398ZM217.807 52.9618H221.062V57.3718H225.976V52.9618H229.252V64.2598H225.976V60.0388H221.062V64.2598H217.807V52.9618ZM236.777 52.7938C238.527 52.7938 239.871 53.2138 240.809 54.0538C241.747 54.8798 242.216 56.1328 242.216 57.8128V64.2598H239.15V62.8528C238.534 63.9028 237.386 64.4278 235.706 64.4278C234.838 64.4278 234.082 64.2808 233.438 63.9868C232.808 63.6928 232.325 63.2868 231.989 62.7688C231.653 62.2508 231.485 61.6628 231.485 61.0048C231.485 59.9548 231.877 59.1288 232.661 58.5268C233.459 57.9248 234.684 57.6238 236.336 57.6238H238.94C238.94 56.9098 238.723 56.3638 238.289 55.9858C237.855 55.5938 237.204 55.3978 236.336 55.3978C235.734 55.3978 235.139 55.4958 234.551 55.6918C233.977 55.8738 233.487 56.1258 233.081 56.4478L231.905 54.1588C232.521 53.7248 233.256 53.3888 234.11 53.1508C234.978 52.9128 235.867 52.7938 236.777 52.7938ZM236.525 62.2228C237.085 62.2228 237.582 62.0968 238.016 61.8448C238.45 61.5788 238.758 61.1938 238.94 60.6898V59.5348H236.693C235.349 59.5348 234.677 59.9758 234.677 60.8578C234.677 61.2778 234.838 61.6138 235.16 61.8658C235.496 62.1038 235.951 62.2228 236.525 62.2228ZM255.897 52.9618V64.2598H252.621V55.6498H249.051L248.946 57.6448C248.89 59.1288 248.75 60.3608 248.526 61.3408C248.302 62.3208 247.938 63.0908 247.434 63.6508C246.93 64.2108 246.23 64.4908 245.334 64.4908C244.858 64.4908 244.291 64.4068 243.633 64.2388L243.801 61.5508C244.025 61.5788 244.186 61.5928 244.284 61.5928C244.774 61.5928 245.138 61.4178 245.376 61.0678C245.628 60.7038 245.796 60.2488 245.88 59.7028C245.964 59.1428 246.027 58.4078 246.069 57.4978L246.237 52.9618H255.897ZM265.159 56.5738C266.629 56.5878 267.756 56.9238 268.54 57.5818C269.324 58.2258 269.716 59.1428 269.716 60.3328C269.716 61.5788 269.275 62.5518 268.393 63.2518C267.525 63.9378 266.3 64.2808 264.718 64.2808L259.048 64.2598V52.9618H262.303V56.5738H265.159ZM264.424 61.9498C265.054 61.9638 265.537 61.8308 265.873 61.5508C266.209 61.2708 266.377 60.8508 266.377 60.2908C266.377 59.7448 266.209 59.3458 265.873 59.0938C265.551 58.8418 265.068 58.7088 264.424 58.6948L262.303 58.6738V61.9498H264.424ZM271.763 52.9618H275.018V57.3718H279.932V52.9618H283.208V64.2598H279.932V60.0388H275.018V64.2598H271.763V52.9618ZM286.344 52.9618H289.599V59.6818L295.101 52.9618H298.104V64.2598H294.849V57.5398L289.368 64.2598H286.344V52.9618ZM301.253 52.9618H304.508V59.6818L310.01 52.9618H313.013V64.2598H309.758V57.5398L304.277 64.2598H301.253V52.9618ZM306.923 51.7438C304.459 51.7438 303.22 50.6588 303.206 48.4888H305.348C305.362 48.9788 305.495 49.3638 305.747 49.6438C306.013 49.9098 306.398 50.0428 306.902 50.0428C307.406 50.0428 307.791 49.9098 308.057 49.6438C308.337 49.3638 308.477 48.9788 308.477 48.4888H310.661C310.647 50.6588 309.401 51.7438 306.923 51.7438ZM333.134 64.2598V57.4978L329.753 63.1678H328.367L325.07 57.4768V64.2598H322.109V52.9618H325.532L329.144 59.4928L332.987 52.9618H336.053L336.095 64.2598H333.134ZM350.216 58.6528C350.216 58.6948 350.195 58.9888 350.153 59.5348H341.606C341.76 60.2348 342.124 60.7878 342.698 61.1938C343.272 61.5998 343.986 61.8028 344.84 61.8028C345.428 61.8028 345.946 61.7188 346.394 61.5508C346.856 61.3688 347.283 61.0888 347.675 60.7108L349.418 62.6008C348.354 63.8188 346.8 64.4278 344.756 64.4278C343.482 64.4278 342.355 64.1828 341.375 63.6928C340.395 63.1888 339.639 62.4958 339.107 61.6138C338.575 60.7318 338.309 59.7308 338.309 58.6108C338.309 57.5048 338.568 56.5108 339.086 55.6288C339.618 54.7328 340.339 54.0398 341.249 53.5498C342.173 53.0458 343.202 52.7938 344.336 52.7938C345.442 52.7938 346.443 53.0318 347.339 53.5078C348.235 53.9838 348.935 54.6698 349.439 55.5658C349.957 56.4478 350.216 57.4768 350.216 58.6528ZM344.357 55.2718C343.615 55.2718 342.992 55.4818 342.488 55.9018C341.984 56.3218 341.676 56.8958 341.564 57.6238H347.129C347.017 56.9098 346.709 56.3428 346.205 55.9228C345.701 55.4888 345.085 55.2718 344.357 55.2718ZM352.727 52.9618H355.982V57.3718H360.896V52.9618H364.172V64.2598H360.896V60.0388H355.982V64.2598H352.727V52.9618ZM378.292 58.6528C378.292 58.6948 378.271 58.9888 378.229 59.5348H369.682C369.836 60.2348 370.2 60.7878 370.774 61.1938C371.348 61.5998 372.062 61.8028 372.916 61.8028C373.504 61.8028 374.022 61.7188 374.47 61.5508C374.932 61.3688 375.359 61.0888 375.751 60.7108L377.494 62.6008C376.43 63.8188 374.876 64.4278 372.832 64.4278C371.558 64.4278 370.431 64.1828 369.451 63.6928C368.471 63.1888 367.715 62.4958 367.183 61.6138C366.651 60.7318 366.385 59.7308 366.385 58.6108C366.385 57.5048 366.644 56.5108 367.162 55.6288C367.694 54.7328 368.415 54.0398 369.325 53.5498C370.249 53.0458 371.278 52.7938 372.412 52.7938C373.518 52.7938 374.519 53.0318 375.415 53.5078C376.311 53.9838 377.011 54.6698 377.515 55.5658C378.033 56.4478 378.292 57.4768 378.292 58.6528ZM372.433 55.2718C371.691 55.2718 371.068 55.4818 370.564 55.9018C370.06 56.3218 369.752 56.8958 369.64 57.6238H375.205C375.093 56.9098 374.785 56.3428 374.281 55.9228C373.777 55.4888 373.161 55.2718 372.433 55.2718ZM393.363 61.5718V66.6958H390.318V64.2598H382.38V66.6958H379.335V61.5718H379.797C380.497 61.5578 380.98 61.1448 381.246 60.3328C381.512 59.5208 381.68 58.3658 381.75 56.8678L381.897 52.9618H391.746V61.5718H393.363ZM384.711 57.0988C384.669 58.2468 384.578 59.1848 384.438 59.9128C384.312 60.6408 384.067 61.1938 383.703 61.5718H388.47V55.6498H384.774L384.711 57.0988ZM406.618 59.9758H405.043V64.2598H401.809V59.9758H400.234L397.84 64.2598H393.976L397.525 58.4218L394.228 52.9618H397.693L400.192 57.3508H401.809V52.9618H405.043V57.3508H406.639L409.159 52.9618H412.624L409.327 58.4218L412.897 64.2598H409.012L406.618 59.9758ZM425.234 58.6528C425.234 58.6948 425.213 58.9888 425.171 59.5348H416.624C416.778 60.2348 417.142 60.7878 417.716 61.1938C418.29 61.5998 419.004 61.8028 419.858 61.8028C420.446 61.8028 420.964 61.7188 421.412 61.5508C421.874 61.3688 422.301 61.0888 422.693 60.7108L424.436 62.6008C423.372 63.8188 421.818 64.4278 419.774 64.4278C418.5 64.4278 417.373 64.1828 416.393 63.6928C415.413 63.1888 414.657 62.4958 414.125 61.6138C413.593 60.7318 413.327 59.7308 413.327 58.6108C413.327 57.5048 413.586 56.5108 414.104 55.6288C414.636 54.7328 415.357 54.0398 416.267 53.5498C417.191 53.0458 418.22 52.7938 419.354 52.7938C420.46 52.7938 421.461 53.0318 422.357 53.5078C423.253 53.9838 423.953 54.6698 424.457 55.5658C424.975 56.4478 425.234 57.4768 425.234 58.6528ZM419.375 55.2718C418.633 55.2718 418.01 55.4818 417.506 55.9018C417.002 56.3218 416.694 56.8958 416.582 57.6238H422.147C422.035 56.9098 421.727 56.3428 421.223 55.9228C420.719 55.4888 420.103 55.2718 419.375 55.2718ZM434.402 52.7938C435.452 52.7938 436.404 53.0388 437.258 53.5288C438.126 54.0048 438.805 54.6838 439.295 55.5658C439.785 56.4338 440.03 57.4488 440.03 58.6108C440.03 59.7728 439.785 60.7948 439.295 61.6768C438.805 62.5448 438.126 63.2238 437.258 63.7138C436.404 64.1898 435.452 64.4278 434.402 64.4278C432.96 64.4278 431.826 63.9728 431 63.0628V68.3338H427.724V52.9618H430.853V54.2638C431.665 53.2838 432.848 52.7938 434.402 52.7938ZM433.835 61.7398C434.675 61.7398 435.361 61.4598 435.893 60.8998C436.439 60.3258 436.712 59.5628 436.712 58.6108C436.712 57.6588 436.439 56.9028 435.893 56.3428C435.361 55.7688 434.675 55.4818 433.835 55.4818C432.995 55.4818 432.302 55.7688 431.756 56.3428C431.224 56.9028 430.958 57.6588 430.958 58.6108C430.958 59.5628 431.224 60.3258 431.756 60.8998C432.302 61.4598 432.995 61.7398 433.835 61.7398ZM460.936 61.5718V66.6958H457.891V64.2598H449.953V66.6958H446.908V61.5718H447.37C448.07 61.5578 448.553 61.1448 448.819 60.3328C449.085 59.5208 449.253 58.3658 449.323 56.8678L449.47 52.9618H459.319V61.5718H460.936ZM452.284 57.0988C452.242 58.2468 452.151 59.1848 452.011 59.9128C451.885 60.6408 451.64 61.1938 451.276 61.5718H456.043V55.6498H452.347L452.284 57.0988ZM473.834 52.9618V64.2598H470.558V55.6498H466.988L466.883 57.6448C466.827 59.1288 466.687 60.3608 466.463 61.3408C466.239 62.3208 465.875 63.0908 465.371 63.6508C464.867 64.2108 464.167 64.4908 463.271 64.4908C462.795 64.4908 462.228 64.4068 461.57 64.2388L461.738 61.5508C461.962 61.5788 462.123 61.5928 462.221 61.5928C462.711 61.5928 463.075 61.4178 463.313 61.0678C463.565 60.7038 463.733 60.2488 463.817 59.7028C463.901 59.1428 463.964 58.4078 464.006 57.4978L464.174 52.9618H473.834ZM487.022 52.9618V64.2598H484.103V61.0258H481.688L479.546 64.2598H476.06L478.643 60.5638C477.859 60.2558 477.257 59.8148 476.837 59.2408C476.431 58.6528 476.228 57.9458 476.228 57.1198C476.228 55.7898 476.704 54.7678 477.656 54.0538C478.622 53.3258 479.945 52.9618 481.625 52.9618H487.022ZM481.688 55.6288C480.988 55.6288 480.456 55.7548 480.092 56.0068C479.742 56.2588 479.567 56.6648 479.567 57.2248C479.567 57.7848 479.735 58.1978 480.071 58.4638C480.421 58.7158 480.946 58.8418 481.646 58.8418H484.103V55.6288H481.688ZM501.095 59.9758H499.394V64.2598H496.118V52.9618H499.394V57.3508H501.158L504.224 52.9618H507.71L503.762 58.3798L507.983 64.2598H504.119L501.095 59.9758ZM514.535 64.4278C513.345 64.4278 512.274 64.1828 511.322 63.6928C510.384 63.1888 509.649 62.4958 509.117 61.6138C508.585 60.7318 508.319 59.7308 508.319 58.6108C508.319 57.4908 508.585 56.4898 509.117 55.6078C509.649 54.7258 510.384 54.0398 511.322 53.5498C512.274 53.0458 513.345 52.7938 514.535 52.7938C515.725 52.7938 516.789 53.0458 517.727 53.5498C518.665 54.0398 519.4 54.7258 519.932 55.6078C520.464 56.4898 520.73 57.4908 520.73 58.6108C520.73 59.7308 520.464 60.7318 519.932 61.6138C519.4 62.4958 518.665 63.1888 517.727 63.6928C516.789 64.1828 515.725 64.4278 514.535 64.4278ZM514.535 61.7398C515.375 61.7398 516.061 61.4598 516.593 60.8998C517.139 60.3258 517.412 59.5628 517.412 58.6108C517.412 57.6588 517.139 56.9028 516.593 56.3428C516.061 55.7688 515.375 55.4818 514.535 55.4818C513.695 55.4818 513.002 55.7688 512.456 56.3428C511.91 56.9028 511.637 57.6588 511.637 58.6108C511.637 59.5628 511.91 60.3258 512.456 60.8998C513.002 61.4598 513.695 61.7398 514.535 61.7398ZM533.828 59.9758H532.253V64.2598H529.019V59.9758H527.444L525.05 64.2598H521.186L524.735 58.4218L521.438 52.9618H524.903L527.402 57.3508H529.019V52.9618H532.253V57.3508H533.849L536.369 52.9618H539.834L536.537 58.4218L540.107 64.2598H536.222L533.828 59.9758ZM541.809 52.9618H545.064V57.3718H549.978V52.9618H553.254V64.2598H549.978V60.0388H545.064V64.2598H541.809V52.9618ZM561.683 64.4278C560.493 64.4278 559.422 64.1828 558.47 63.6928C557.532 63.1888 556.797 62.4958 556.265 61.6138C555.733 60.7318 555.467 59.7308 555.467 58.6108C555.467 57.4908 555.733 56.4898 556.265 55.6078C556.797 54.7258 557.532 54.0398 558.47 53.5498C559.422 53.0458 560.493 52.7938 561.683 52.7938C562.873 52.7938 563.937 53.0458 564.875 53.5498C565.813 54.0398 566.548 54.7258 567.08 55.6078C567.612 56.4898 567.878 57.4908 567.878 58.6108C567.878 59.7308 567.612 60.7318 567.08 61.6138C566.548 62.4958 565.813 63.1888 564.875 63.6928C563.937 64.1828 562.873 64.4278 561.683 64.4278ZM561.683 61.7398C562.523 61.7398 563.209 61.4598 563.741 60.8998C564.287 60.3258 564.56 59.5628 564.56 58.6108C564.56 57.6588 564.287 56.9028 563.741 56.3428C563.209 55.7688 562.523 55.4818 561.683 55.4818C560.843 55.4818 560.15 55.7688 559.604 56.3428C559.058 56.9028 558.785 57.6588 558.785 58.6108C558.785 59.5628 559.058 60.3258 559.604 60.8998C560.15 61.4598 560.843 61.7398 561.683 61.7398ZM579.182 55.6498H573.386V64.2598H570.131V52.9618H579.182V55.6498ZM585.738 64.4278C584.548 64.4278 583.477 64.1828 582.525 63.6928C581.587 63.1888 580.852 62.4958 580.32 61.6138C579.788 60.7318 579.522 59.7308 579.522 58.6108C579.522 57.4908 579.788 56.4898 580.32 55.6078C580.852 54.7258 581.587 54.0398 582.525 53.5498C583.477 53.0458 584.548 52.7938 585.738 52.7938C586.928 52.7938 587.992 53.0458 588.93 53.5498C589.868 54.0398 590.603 54.7258 591.135 55.6078C591.667 56.4898 591.933 57.4908 591.933 58.6108C591.933 59.7308 591.667 60.7318 591.135 61.6138C590.603 62.4958 589.868 63.1888 588.93 63.6928C587.992 64.1828 586.928 64.4278 585.738 64.4278ZM585.738 61.7398C586.578 61.7398 587.264 61.4598 587.796 60.8998C588.342 60.3258 588.615 59.5628 588.615 58.6108C588.615 57.6588 588.342 56.9028 587.796 56.3428C587.264 55.7688 586.578 55.4818 585.738 55.4818C584.898 55.4818 584.205 55.7688 583.659 56.3428C583.113 56.9028 582.84 57.6588 582.84 58.6108C582.84 59.5628 583.113 60.3258 583.659 60.8998C584.205 61.4598 584.898 61.7398 585.738 61.7398ZM151.642 85.9758H149.941V90.2598H146.665V78.9618H149.941V83.3508H151.705L154.771 78.9618H158.257L154.309 84.3798L158.53 90.2598H154.666L151.642 85.9758ZM170.975 78.9618V90.2598H167.699V81.6498H164.129L164.024 83.6448C163.968 85.1288 163.828 86.3608 163.604 87.3408C163.38 88.3208 163.016 89.0908 162.512 89.6508C162.008 90.2108 161.308 90.4908 160.412 90.4908C159.936 90.4908 159.369 90.4068 158.711 90.2388L158.879 87.5508C159.103 87.5788 159.264 87.5928 159.362 87.5928C159.852 87.5928 160.216 87.4178 160.454 87.0678C160.706 86.7038 160.874 86.2488 160.958 85.7028C161.042 85.1428 161.105 84.4078 161.147 83.4978L161.315 78.9618H170.975ZM174.104 78.9618H177.38V90.2598H174.104V78.9618ZM175.742 77.3868C175.14 77.3868 174.65 77.2118 174.272 76.8618C173.894 76.5118 173.705 76.0778 173.705 75.5598C173.705 75.0418 173.894 74.6078 174.272 74.2578C174.65 73.9078 175.14 73.7328 175.742 73.7328C176.344 73.7328 176.834 73.9008 177.212 74.2368C177.59 74.5728 177.779 74.9928 177.779 75.4968C177.779 76.0428 177.59 76.4978 177.212 76.8618C176.834 77.2118 176.344 77.3868 175.742 77.3868ZM185.962 90.4698C184.744 90.4698 183.652 90.2248 182.686 89.7348C181.734 89.2308 180.985 88.5308 180.439 87.6348C179.893 86.7388 179.62 85.7308 179.62 84.6108C179.62 83.4908 179.893 82.4828 180.439 81.5868C180.985 80.6908 181.734 79.9978 182.686 79.5078C183.652 79.0038 184.744 78.7518 185.962 78.7518C187.04 78.7518 188.013 78.9338 188.881 79.2978C189.763 79.6478 190.491 80.1588 191.065 80.8308L189.196 82.5948C188.342 81.7128 187.306 81.2718 186.088 81.2718C185.276 81.2718 184.576 81.4748 183.988 81.8808C183.4 82.2868 183.001 82.8398 182.791 83.5398H187.537V85.7868H182.833C183.057 86.4588 183.456 86.9908 184.03 87.3828C184.604 87.7748 185.29 87.9708 186.088 87.9708C187.292 87.9708 188.328 87.5228 189.196 86.6268L191.065 88.3698C190.491 89.0558 189.763 89.5808 188.881 89.9448C188.013 90.2948 187.04 90.4698 185.962 90.4698ZM192.951 78.9618H196.206V83.3718H201.12V78.9618H204.396V90.2598H201.12V86.0388H196.206V90.2598H192.951V78.9618ZM217.024 81.6498H213.202V90.2598H209.947V81.6498H206.125V78.9618H217.024V81.6498ZM223.159 78.7938C224.909 78.7938 226.253 79.2138 227.191 80.0538C228.129 80.8798 228.598 82.1328 228.598 83.8128V90.2598H225.532V88.8528C224.916 89.9028 223.768 90.4278 222.088 90.4278C221.22 90.4278 220.464 90.2808 219.82 89.9868C219.19 89.6928 218.707 89.2868 218.371 88.7688C218.035 88.2508 217.867 87.6628 217.867 87.0048C217.867 85.9548 218.259 85.1288 219.043 84.5268C219.841 83.9248 221.066 83.6238 222.718 83.6238H225.322C225.322 82.9098 225.105 82.3638 224.671 81.9858C224.237 81.5938 223.586 81.3978 222.718 81.3978C222.116 81.3978 221.521 81.4958 220.933 81.6918C220.359 81.8738 219.869 82.1258 219.463 82.4478L218.287 80.1588C218.903 79.7248 219.638 79.3888 220.492 79.1508C221.36 78.9128 222.249 78.7938 223.159 78.7938ZM222.907 88.2228C223.467 88.2228 223.964 88.0968 224.398 87.8448C224.832 87.5788 225.14 87.1938 225.322 86.6898V85.5348H223.075C221.731 85.5348 221.059 85.9758 221.059 86.8578C221.059 87.2778 221.22 87.6138 221.542 87.8658C221.878 88.1038 222.333 88.2228 222.907 88.2228Z" fill="white"/>
<defs>
<clipPath id="clip0">
<rect width="74.6907" height="75.3315" fill="white" transform="translate(32.5386 29.834)"/>
</clipPath>
</defs>
</svg>
