<svg width="645" height="135" viewBox="0 0 645 135" fill="none" xmlns="http://www.w3.org/2000/svg">
<rect x="30.9888" y="17.1543" width="614.011" height="101.436" fill="#3E4671"/>
<path d="M133.614 67.5C133.614 103.666 104.16 133 67.8069 133C31.4542 133 2 103.666 2 67.5C2 31.3339 31.4542 2 67.8069 2C104.16 2 133.614 31.3339 133.614 67.5Z" fill="white" stroke="#3E4671" stroke-width="4"/>
<path d="M86.21 39.251C88.9129 39.251 91.5051 40.3257 93.4163 42.2388C95.3275 44.1519 96.4013 46.7466 96.4013 49.4521V85.5485C96.4013 88.254 95.3275 90.8487 93.4163 92.7617C91.5051 94.6748 88.9129 95.7496 86.21 95.7496H50.1489C47.446 95.7496 44.8538 94.6748 42.9426 92.7617C41.0314 90.8487 39.9576 88.254 39.9576 85.5485V49.4521C39.9576 46.7466 41.0314 44.1519 42.9426 42.2388C44.8538 40.3257 47.446 39.251 50.1489 39.251H86.21ZM86.21 43.9592H50.1489C48.6935 43.9592 47.2977 44.5379 46.2685 45.568C45.2394 46.5982 44.6613 47.9953 44.6613 49.4521V85.5485C44.6613 88.5805 47.1197 91.0414 50.1489 91.0414H86.21C87.6654 91.0414 89.0612 90.4627 90.0903 89.4325C91.1195 88.4024 91.6976 87.0053 91.6976 85.5485V49.4521C91.6976 47.9953 91.1195 46.5982 90.0903 45.568C89.0612 44.5379 87.6654 43.9592 86.21 43.9592Z" fill="#3E4671"/>
<path d="M72.0991 54.9453C72.7229 54.9453 73.3211 55.1933 73.7621 55.6348C74.2032 56.0763 74.4509 56.6751 74.4509 57.2994V65.9312H79.1546V57.2994C79.1546 56.6751 79.4024 56.0763 79.8434 55.6348C80.2845 55.1933 80.8827 54.9453 81.5064 54.9453C82.1301 54.9453 82.7283 55.1933 83.1694 55.6348C83.6104 56.0763 83.8582 56.6751 83.8582 57.2994V77.6075C83.8582 78.2319 83.6104 78.8307 83.1694 79.2721C82.7283 79.7136 82.1301 79.9616 81.5064 79.9616C80.8827 79.9616 80.2845 79.7136 79.8434 79.2721C79.4024 78.8307 79.1546 78.2319 79.1546 77.6075V70.6394H72.0991C71.4754 70.6394 70.8772 70.3914 70.4361 69.9499C69.9951 69.5084 69.7473 68.9096 69.7473 68.2853V57.2994C69.7473 56.6751 69.9951 56.0763 70.4361 55.6348C70.8772 55.1933 71.4754 54.9453 72.0991 54.9453Z" fill="#3E4671"/>
<path d="M54.0684 57.2806C55.1565 56.0816 56.9376 54.9453 59.556 54.9453C63.1683 54.9453 65.4951 57.4313 66.3135 60.1589C67.1069 62.8175 66.6271 66.1069 64.3693 68.3763C63.5948 69.1547 62.6823 69.8609 61.8827 70.4793L61.7573 70.5766C60.8792 71.2546 60.0953 71.8698 59.4054 72.554C58.6058 73.3576 57.9504 74.2333 57.571 75.3476H64.2596C64.8833 75.3476 65.4815 75.5956 65.9226 76.0371C66.3636 76.4786 66.6114 77.0773 66.6114 77.7017C66.6114 78.326 66.3636 78.9248 65.9226 79.3663C65.4815 79.8078 64.8833 80.0558 64.2596 80.0558H54.8523C54.2286 80.0558 53.6304 79.8078 53.1893 79.3663C52.7483 78.9248 52.5005 78.326 52.5005 77.7017C52.5005 73.7876 54.1436 71.1635 56.0878 69.2238C57.016 68.2947 58.0257 67.5131 58.8786 66.8508L58.888 66.8445C59.7849 66.1509 60.481 65.611 61.036 65.0554C61.889 64.1954 62.1869 62.7798 61.8074 61.5086C61.4468 60.3127 60.6472 59.6535 59.556 59.6535C58.449 59.6535 57.8783 60.0835 57.5491 60.4476C57.3576 60.6607 57.2019 60.9035 57.0881 61.1664L57.0818 61.1759C56.8851 61.764 56.4644 62.2507 55.9111 62.53C55.3579 62.8094 54.7169 62.859 54.1274 62.6679C53.5378 62.4769 53.0475 62.0607 52.7628 61.5098C52.4781 60.9588 52.4222 60.3177 52.6071 59.7257L52.7169 59.4244C53.0391 58.6371 53.4953 57.9117 54.0652 57.2806H54.0684Z" fill="#3E4671"/>
<path d="M142.274 45.0842H148.952C150.548 45.0842 151.955 45.3922 153.173 46.0082C154.405 46.6102 155.357 47.4642 156.029 48.5702C156.715 49.6762 157.058 50.9642 157.058 52.4342C157.058 53.9042 156.715 55.1922 156.029 56.2982C155.357 57.4042 154.405 58.2652 153.173 58.8812C151.955 59.4832 150.548 59.7842 148.952 59.7842H142.274V45.0842ZM148.784 56.9912C150.254 56.9912 151.423 56.5852 152.291 55.7732C153.173 54.9472 153.614 53.8342 153.614 52.4342C153.614 51.0342 153.173 49.9282 152.291 49.1162C151.423 48.2902 150.254 47.8772 148.784 47.8772H145.676V56.9912H148.784ZM170.459 54.1772C170.459 54.2192 170.438 54.5132 170.396 55.0592H161.849C162.003 55.7592 162.367 56.3122 162.941 56.7182C163.515 57.1242 164.229 57.3272 165.083 57.3272C165.671 57.3272 166.189 57.2432 166.637 57.0752C167.099 56.8932 167.526 56.6132 167.918 56.2352L169.661 58.1252C168.597 59.3432 167.043 59.9522 164.999 59.9522C163.725 59.9522 162.598 59.7072 161.618 59.2172C160.638 58.7132 159.882 58.0202 159.35 57.1382C158.818 56.2562 158.552 55.2552 158.552 54.1352C158.552 53.0292 158.811 52.0352 159.329 51.1532C159.861 50.2572 160.582 49.5642 161.492 49.0742C162.416 48.5702 163.445 48.3182 164.579 48.3182C165.685 48.3182 166.686 48.5562 167.582 49.0322C168.478 49.5082 169.178 50.1942 169.682 51.0902C170.2 51.9722 170.459 53.0012 170.459 54.1772ZM164.6 50.7962C163.858 50.7962 163.235 51.0062 162.731 51.4262C162.227 51.8462 161.919 52.4202 161.807 53.1482H167.372C167.26 52.4342 166.952 51.8672 166.448 51.4472C165.944 51.0132 165.328 50.7962 164.6 50.7962ZM176.89 48.3182C178.64 48.3182 179.984 48.7382 180.922 49.5782C181.86 50.4042 182.329 51.6572 182.329 53.3372V59.7842H179.263V58.3772C178.647 59.4272 177.499 59.9522 175.819 59.9522C174.951 59.9522 174.195 59.8052 173.551 59.5112C172.921 59.2172 172.438 58.8112 172.102 58.2932C171.766 57.7752 171.598 57.1872 171.598 56.5292C171.598 55.4792 171.99 54.6532 172.774 54.0512C173.572 53.4492 174.797 53.1482 176.449 53.1482H179.053C179.053 52.4342 178.836 51.8882 178.402 51.5102C177.968 51.1182 177.317 50.9222 176.449 50.9222C175.847 50.9222 175.252 51.0202 174.664 51.2162C174.09 51.3982 173.6 51.6502 173.194 51.9722L172.018 49.6832C172.634 49.2492 173.369 48.9132 174.223 48.6752C175.091 48.4372 175.98 48.3182 176.89 48.3182ZM176.638 57.7472C177.198 57.7472 177.695 57.6212 178.129 57.3692C178.563 57.1032 178.871 56.7182 179.053 56.2142V55.0592H176.806C175.462 55.0592 174.79 55.5002 174.79 56.3822C174.79 56.8022 174.951 57.1382 175.273 57.3902C175.609 57.6282 176.064 57.7472 176.638 57.7472ZM196.925 44.2022V59.7842H193.796V58.4822C192.984 59.4622 191.808 59.9522 190.268 59.9522C189.204 59.9522 188.238 59.7142 187.37 59.2382C186.516 58.7622 185.844 58.0832 185.354 57.2012C184.864 56.3192 184.619 55.2972 184.619 54.1352C184.619 52.9732 184.864 51.9512 185.354 51.0692C185.844 50.1872 186.516 49.5082 187.37 49.0322C188.238 48.5562 189.204 48.3182 190.268 48.3182C191.71 48.3182 192.837 48.7732 193.649 49.6832V44.2022H196.925ZM190.835 57.2642C191.661 57.2642 192.347 56.9842 192.893 56.4242C193.439 55.8502 193.712 55.0872 193.712 54.1352C193.712 53.1832 193.439 52.4272 192.893 51.8672C192.347 51.2932 191.661 51.0062 190.835 51.0062C189.995 51.0062 189.302 51.2932 188.756 51.8672C188.21 52.4272 187.937 53.1832 187.937 54.1352C187.937 55.0872 188.21 55.8502 188.756 56.4242C189.302 56.9842 189.995 57.2642 190.835 57.2642ZM199.957 44.2022H203.233V59.7842H199.957V44.2022ZM206.273 48.4862H209.549V59.7842H206.273V48.4862ZM207.911 46.9112C207.309 46.9112 206.819 46.7362 206.441 46.3862C206.063 46.0362 205.874 45.6022 205.874 45.0842C205.874 44.5662 206.063 44.1322 206.441 43.7822C206.819 43.4322 207.309 43.2572 207.911 43.2572C208.513 43.2572 209.003 43.4252 209.381 43.7612C209.759 44.0972 209.948 44.5172 209.948 45.0212C209.948 45.5672 209.759 46.0222 209.381 46.3862C209.003 46.7362 208.513 46.9112 207.911 46.9112ZM219.457 48.3182C220.857 48.3182 221.984 48.7382 222.838 49.5782C223.706 50.4182 224.14 51.6642 224.14 53.3162V59.7842H220.864V53.8202C220.864 52.9242 220.668 52.2592 220.276 51.8252C219.884 51.3772 219.317 51.1532 218.575 51.1532C217.749 51.1532 217.091 51.4122 216.601 51.9302C216.111 52.4342 215.866 53.1902 215.866 54.1982V59.7842H212.59V48.4862H215.719V49.8092C216.153 49.3332 216.692 48.9692 217.336 48.7172C217.98 48.4512 218.687 48.3182 219.457 48.3182ZM238.299 54.1772C238.299 54.2192 238.278 54.5132 238.236 55.0592H229.689C229.843 55.7592 230.207 56.3122 230.781 56.7182C231.355 57.1242 232.069 57.3272 232.923 57.3272C233.511 57.3272 234.029 57.2432 234.477 57.0752C234.939 56.8932 235.366 56.6132 235.758 56.2352L237.501 58.1252C236.437 59.3432 234.883 59.9522 232.839 59.9522C231.565 59.9522 230.438 59.7072 229.458 59.2172C228.478 58.7132 227.722 58.0202 227.19 57.1382C226.658 56.2562 226.392 55.2552 226.392 54.1352C226.392 53.0292 226.651 52.0352 227.169 51.1532C227.701 50.2572 228.422 49.5642 229.332 49.0742C230.256 48.5702 231.285 48.3182 232.419 48.3182C233.525 48.3182 234.526 48.5562 235.422 49.0322C236.318 49.5082 237.018 50.1942 237.522 51.0902C238.04 51.9722 238.299 53.0012 238.299 54.1772ZM232.44 50.7962C231.698 50.7962 231.075 51.0062 230.571 51.4262C230.067 51.8462 229.759 52.4202 229.647 53.1482H235.212C235.1 52.4342 234.792 51.8672 234.288 51.4472C233.784 51.0132 233.168 50.7962 232.44 50.7962ZM250.019 48.7382H252.917V51.2582H250.103V59.7842H246.827V51.2582H245.084V48.7382H246.827V48.2342C246.827 46.9462 247.205 45.9242 247.961 45.1682C248.731 44.4122 249.809 44.0342 251.195 44.0342C251.685 44.0342 252.147 44.0902 252.581 44.2022C253.029 44.3002 253.4 44.4472 253.694 44.6432L252.833 47.0162C252.455 46.7502 252.014 46.6172 251.51 46.6172C250.516 46.6172 250.019 47.1632 250.019 48.2552V48.7382ZM259.781 59.9522C258.591 59.9522 257.52 59.7072 256.568 59.2172C255.63 58.7132 254.895 58.0202 254.363 57.1382C253.831 56.2562 253.565 55.2552 253.565 54.1352C253.565 53.0152 253.831 52.0142 254.363 51.1322C254.895 50.2502 255.63 49.5642 256.568 49.0742C257.52 48.5702 258.591 48.3182 259.781 48.3182C260.971 48.3182 262.035 48.5702 262.973 49.0742C263.911 49.5642 264.646 50.2502 265.178 51.1322C265.71 52.0142 265.976 53.0152 265.976 54.1352C265.976 55.2552 265.71 56.2562 265.178 57.1382C264.646 58.0202 263.911 58.7132 262.973 59.2172C262.035 59.7072 260.971 59.9522 259.781 59.9522ZM259.781 57.2642C260.621 57.2642 261.307 56.9842 261.839 56.4242C262.385 55.8502 262.658 55.0872 262.658 54.1352C262.658 53.1832 262.385 52.4272 261.839 51.8672C261.307 51.2932 260.621 51.0062 259.781 51.0062C258.941 51.0062 258.248 51.2932 257.702 51.8672C257.156 52.4272 256.883 53.1832 256.883 54.1352C256.883 55.0872 257.156 55.8502 257.702 56.4242C258.248 56.9842 258.941 57.2642 259.781 57.2642ZM271.295 49.9772C271.687 49.4312 272.212 49.0182 272.87 48.7382C273.542 48.4582 274.312 48.3182 275.18 48.3182V51.3422C274.816 51.3142 274.571 51.3002 274.445 51.3002C273.507 51.3002 272.772 51.5662 272.24 52.0982C271.708 52.6162 271.442 53.4002 271.442 54.4502V59.7842H268.166V48.4862H271.295V49.9772ZM283.157 48.4862H286.433V59.7842H283.157V48.4862ZM284.795 46.9112C284.193 46.9112 283.703 46.7362 283.325 46.3862C282.947 46.0362 282.758 45.6022 282.758 45.0842C282.758 44.5662 282.947 44.1322 283.325 43.7822C283.703 43.4322 284.193 43.2572 284.795 43.2572C285.397 43.2572 285.887 43.4252 286.265 43.7612C286.643 44.0972 286.832 44.5172 286.832 45.0212C286.832 45.5672 286.643 46.0222 286.265 46.3862C285.887 46.7362 285.397 46.9112 284.795 46.9112ZM293.274 59.9522C292.336 59.9522 291.419 59.8402 290.523 59.6162C289.627 59.3782 288.913 59.0842 288.381 58.7342L289.473 56.3822C289.977 56.7042 290.586 56.9702 291.3 57.1802C292.014 57.3762 292.714 57.4742 293.4 57.4742C294.786 57.4742 295.479 57.1312 295.479 56.4452C295.479 56.1232 295.29 55.8922 294.912 55.7522C294.534 55.6122 293.953 55.4932 293.169 55.3952C292.245 55.2552 291.482 55.0942 290.88 54.9122C290.278 54.7302 289.753 54.4082 289.305 53.9462C288.871 53.4842 288.654 52.8262 288.654 51.9722C288.654 51.2582 288.857 50.6282 289.263 50.0822C289.683 49.5222 290.285 49.0882 291.069 48.7802C291.867 48.4722 292.805 48.3182 293.883 48.3182C294.681 48.3182 295.472 48.4092 296.256 48.5912C297.054 48.7592 297.712 48.9972 298.23 49.3052L297.138 51.6362C296.144 51.0762 295.059 50.7962 293.883 50.7962C293.183 50.7962 292.658 50.8942 292.308 51.0902C291.958 51.2862 291.783 51.5382 291.783 51.8462C291.783 52.1962 291.972 52.4412 292.35 52.5812C292.728 52.7212 293.33 52.8542 294.156 52.9802C295.08 53.1342 295.836 53.3022 296.424 53.4842C297.012 53.6522 297.523 53.9672 297.957 54.4292C298.391 54.8912 298.608 55.5352 298.608 56.3612C298.608 57.0612 298.398 57.6842 297.978 58.2302C297.558 58.7762 296.942 59.2032 296.13 59.5112C295.332 59.8052 294.38 59.9522 293.274 59.9522ZM304.431 59.9522C303.493 59.9522 302.576 59.8402 301.68 59.6162C300.784 59.3782 300.07 59.0842 299.538 58.7342L300.63 56.3822C301.134 56.7042 301.743 56.9702 302.457 57.1802C303.171 57.3762 303.871 57.4742 304.557 57.4742C305.943 57.4742 306.636 57.1312 306.636 56.4452C306.636 56.1232 306.447 55.8922 306.069 55.7522C305.691 55.6122 305.11 55.4932 304.326 55.3952C303.402 55.2552 302.639 55.0942 302.037 54.9122C301.435 54.7302 300.91 54.4082 300.462 53.9462C300.028 53.4842 299.811 52.8262 299.811 51.9722C299.811 51.2582 300.014 50.6282 300.42 50.0822C300.84 49.5222 301.442 49.0882 302.226 48.7802C303.024 48.4722 303.962 48.3182 305.04 48.3182C305.838 48.3182 306.629 48.4092 307.413 48.5912C308.211 48.7592 308.869 48.9972 309.387 49.3052L308.295 51.6362C307.301 51.0762 306.216 50.7962 305.04 50.7962C304.34 50.7962 303.815 50.8942 303.465 51.0902C303.115 51.2862 302.94 51.5382 302.94 51.8462C302.94 52.1962 303.129 52.4412 303.507 52.5812C303.885 52.7212 304.487 52.8542 305.313 52.9802C306.237 53.1342 306.993 53.3022 307.581 53.4842C308.169 53.6522 308.68 53.9672 309.114 54.4292C309.548 54.8912 309.765 55.5352 309.765 56.3612C309.765 57.0612 309.555 57.6842 309.135 58.2302C308.715 58.7762 308.099 59.2032 307.287 59.5112C306.489 59.8052 305.537 59.9522 304.431 59.9522ZM323.168 48.4862V59.7842H320.06V58.4402C319.626 58.9302 319.108 59.3082 318.506 59.5742C317.904 59.8262 317.253 59.9522 316.553 59.9522C315.069 59.9522 313.893 59.5252 313.025 58.6712C312.157 57.8172 311.723 56.5502 311.723 54.8702V48.4862H314.999V54.3872C314.999 56.2072 315.762 57.1172 317.288 57.1172C318.072 57.1172 318.702 56.8652 319.178 56.3612C319.654 55.8432 319.892 55.0802 319.892 54.0722V48.4862H323.168ZM326.203 48.4862H329.479V59.7842H326.203V48.4862ZM327.841 46.9112C327.239 46.9112 326.749 46.7362 326.371 46.3862C325.993 46.0362 325.804 45.6022 325.804 45.0842C325.804 44.5662 325.993 44.1322 326.371 43.7822C326.749 43.4322 327.239 43.2572 327.841 43.2572C328.443 43.2572 328.933 43.4252 329.311 43.7612C329.689 44.0972 329.878 44.5172 329.878 45.0212C329.878 45.5672 329.689 46.0222 329.311 46.3862C328.933 46.7362 328.443 46.9112 327.841 46.9112ZM339.386 48.3182C340.786 48.3182 341.913 48.7382 342.767 49.5782C343.635 50.4182 344.069 51.6642 344.069 53.3162V59.7842H340.793V53.8202C340.793 52.9242 340.597 52.2592 340.205 51.8252C339.813 51.3772 339.246 51.1532 338.504 51.1532C337.678 51.1532 337.02 51.4122 336.53 51.9302C336.04 52.4342 335.795 53.1902 335.795 54.1982V59.7842H332.519V48.4862H335.648V49.8092C336.082 49.3332 336.621 48.9692 337.265 48.7172C337.909 48.4512 338.616 48.3182 339.386 48.3182ZM358.817 48.4862V57.8942C358.817 59.9662 358.278 61.5062 357.2 62.5142C356.122 63.5222 354.547 64.0262 352.475 64.0262C351.383 64.0262 350.347 63.8932 349.367 63.6272C348.387 63.3612 347.575 62.9762 346.931 62.4722L348.233 60.1202C348.709 60.5122 349.311 60.8202 350.039 61.0442C350.767 61.2822 351.495 61.4012 352.223 61.4012C353.357 61.4012 354.19 61.1422 354.722 60.6242C355.268 60.1202 355.541 59.3502 355.541 58.3142V57.8312C354.687 58.7692 353.497 59.2382 351.971 59.2382C350.935 59.2382 349.983 59.0142 349.115 58.5662C348.261 58.1042 347.582 57.4602 347.078 56.6342C346.574 55.8082 346.322 54.8562 346.322 53.7782C346.322 52.7002 346.574 51.7482 347.078 50.9222C347.582 50.0962 348.261 49.4592 349.115 49.0112C349.983 48.5492 350.935 48.3182 351.971 48.3182C353.609 48.3182 354.855 48.8572 355.709 49.9352V48.4862H358.817ZM352.622 56.5502C353.49 56.5502 354.197 56.2982 354.743 55.7942C355.303 55.2762 355.583 54.6042 355.583 53.7782C355.583 52.9522 355.303 52.2872 354.743 51.7832C354.197 51.2652 353.49 51.0062 352.622 51.0062C351.754 51.0062 351.04 51.2652 350.48 51.7832C349.92 52.2872 349.64 52.9522 349.64 53.7782C349.64 54.6042 349.92 55.2762 350.48 55.7942C351.04 56.2982 351.754 56.5502 352.622 56.5502ZM372.37 48.3182C374.12 48.3182 375.464 48.7382 376.402 49.5782C377.34 50.4042 377.809 51.6572 377.809 53.3372V59.7842H374.743V58.3772C374.127 59.4272 372.979 59.9522 371.299 59.9522C370.431 59.9522 369.675 59.8052 369.031 59.5112C368.401 59.2172 367.918 58.8112 367.582 58.2932C367.246 57.7752 367.078 57.1872 367.078 56.5292C367.078 55.4792 367.47 54.6532 368.254 54.0512C369.052 53.4492 370.277 53.1482 371.929 53.1482H374.533C374.533 52.4342 374.316 51.8882 373.882 51.5102C373.448 51.1182 372.797 50.9222 371.929 50.9222C371.327 50.9222 370.732 51.0202 370.144 51.2162C369.57 51.3982 369.08 51.6502 368.674 51.9722L367.498 49.6832C368.114 49.2492 368.849 48.9132 369.703 48.6752C370.571 48.4372 371.46 48.3182 372.37 48.3182ZM372.118 57.7472C372.678 57.7472 373.175 57.6212 373.609 57.3692C374.043 57.1032 374.351 56.7182 374.533 56.2142V55.0592H372.286C370.942 55.0592 370.27 55.5002 370.27 56.3822C370.27 56.8022 370.431 57.1382 370.753 57.3902C371.089 57.6282 371.544 57.7472 372.118 57.7472ZM390.522 59.9522C389.584 59.9522 388.667 59.8402 387.771 59.6162C386.875 59.3782 386.161 59.0842 385.629 58.7342L386.721 56.3822C387.225 56.7042 387.834 56.9702 388.548 57.1802C389.262 57.3762 389.962 57.4742 390.648 57.4742C392.034 57.4742 392.727 57.1312 392.727 56.4452C392.727 56.1232 392.538 55.8922 392.16 55.7522C391.782 55.6122 391.201 55.4932 390.417 55.3952C389.493 55.2552 388.73 55.0942 388.128 54.9122C387.526 54.7302 387.001 54.4082 386.553 53.9462C386.119 53.4842 385.902 52.8262 385.902 51.9722C385.902 51.2582 386.105 50.6282 386.511 50.0822C386.931 49.5222 387.533 49.0882 388.317 48.7802C389.115 48.4722 390.053 48.3182 391.131 48.3182C391.929 48.3182 392.72 48.4092 393.504 48.5912C394.302 48.7592 394.96 48.9972 395.478 49.3052L394.386 51.6362C393.392 51.0762 392.307 50.7962 391.131 50.7962C390.431 50.7962 389.906 50.8942 389.556 51.0902C389.206 51.2862 389.031 51.5382 389.031 51.8462C389.031 52.1962 389.22 52.4412 389.598 52.5812C389.976 52.7212 390.578 52.8542 391.404 52.9802C392.328 53.1342 393.084 53.3022 393.672 53.4842C394.26 53.6522 394.771 53.9672 395.205 54.4292C395.639 54.8912 395.856 55.5352 395.856 56.3612C395.856 57.0612 395.646 57.6842 395.226 58.2302C394.806 58.7762 394.19 59.2032 393.378 59.5112C392.58 59.8052 391.628 59.9522 390.522 59.9522ZM409.26 48.4862V59.7842H406.152V58.4402C405.718 58.9302 405.2 59.3082 404.598 59.5742C403.996 59.8262 403.345 59.9522 402.645 59.9522C401.161 59.9522 399.985 59.5252 399.117 58.6712C398.249 57.8172 397.815 56.5502 397.815 54.8702V48.4862H401.091V54.3872C401.091 56.2072 401.854 57.1172 403.38 57.1172C404.164 57.1172 404.794 56.8652 405.27 56.3612C405.746 55.8432 405.984 55.0802 405.984 54.0722V48.4862H409.26ZM415.424 49.9772C415.816 49.4312 416.341 49.0182 416.999 48.7382C417.671 48.4582 418.441 48.3182 419.309 48.3182V51.3422C418.945 51.3142 418.7 51.3002 418.574 51.3002C417.636 51.3002 416.901 51.5662 416.369 52.0982C415.837 52.6162 415.571 53.4002 415.571 54.4502V59.7842H412.295V48.4862H415.424V49.9772ZM432.86 48.4862L428.093 59.7842H424.712L419.966 48.4862H423.347L426.476 56.1722L429.71 48.4862H432.86ZM444.956 54.1772C444.956 54.2192 444.935 54.5132 444.893 55.0592H436.346C436.5 55.7592 436.864 56.3122 437.438 56.7182C438.012 57.1242 438.726 57.3272 439.58 57.3272C440.168 57.3272 440.686 57.2432 441.134 57.0752C441.596 56.8932 442.023 56.6132 442.415 56.2352L444.158 58.1252C443.094 59.3432 441.54 59.9522 439.496 59.9522C438.222 59.9522 437.095 59.7072 436.115 59.2172C435.135 58.7132 434.379 58.0202 433.847 57.1382C433.315 56.2562 433.049 55.2552 433.049 54.1352C433.049 53.0292 433.308 52.0352 433.826 51.1532C434.358 50.2572 435.079 49.5642 435.989 49.0742C436.913 48.5702 437.942 48.3182 439.076 48.3182C440.182 48.3182 441.183 48.5562 442.079 49.0322C442.975 49.5082 443.675 50.1942 444.179 51.0902C444.697 51.9722 444.956 53.0012 444.956 54.1772ZM439.097 50.7962C438.355 50.7962 437.732 51.0062 437.228 51.4262C436.724 51.8462 436.416 52.4202 436.304 53.1482H441.869C441.757 52.4342 441.449 51.8672 440.945 51.4472C440.441 51.0132 439.825 50.7962 439.097 50.7962ZM458.146 48.4862L453.043 60.4772C452.525 61.7792 451.881 62.6962 451.111 63.2282C450.355 63.7602 449.438 64.0262 448.36 64.0262C447.772 64.0262 447.191 63.9352 446.617 63.7532C446.043 63.5712 445.574 63.3192 445.21 62.9972L446.407 60.6662C446.659 60.8902 446.946 61.0652 447.268 61.1912C447.604 61.3172 447.933 61.3802 448.255 61.3802C448.703 61.3802 449.067 61.2682 449.347 61.0442C449.627 60.8342 449.879 60.4772 450.103 59.9732L450.145 59.8682L445.252 48.4862H448.633L451.804 56.1512L454.996 48.4862H458.146ZM468.559 49.9772C468.951 49.4312 469.476 49.0182 470.134 48.7382C470.806 48.4582 471.576 48.3182 472.444 48.3182V51.3422C472.08 51.3142 471.835 51.3002 471.709 51.3002C470.771 51.3002 470.036 51.5662 469.504 52.0982C468.972 52.6162 468.706 53.4002 468.706 54.4502V59.7842H465.43V48.4862H468.559V49.9772ZM485.357 54.1772C485.357 54.2192 485.336 54.5132 485.294 55.0592H476.747C476.901 55.7592 477.265 56.3122 477.839 56.7182C478.413 57.1242 479.127 57.3272 479.981 57.3272C480.569 57.3272 481.087 57.2432 481.535 57.0752C481.997 56.8932 482.424 56.6132 482.816 56.2352L484.559 58.1252C483.495 59.3432 481.941 59.9522 479.897 59.9522C478.623 59.9522 477.496 59.7072 476.516 59.2172C475.536 58.7132 474.78 58.0202 474.248 57.1382C473.716 56.2562 473.45 55.2552 473.45 54.1352C473.45 53.0292 473.709 52.0352 474.227 51.1532C474.759 50.2572 475.48 49.5642 476.39 49.0742C477.314 48.5702 478.343 48.3182 479.477 48.3182C480.583 48.3182 481.584 48.5562 482.48 49.0322C483.376 49.5082 484.076 50.1942 484.58 51.0902C485.098 51.9722 485.357 53.0012 485.357 54.1772ZM479.498 50.7962C478.756 50.7962 478.133 51.0062 477.629 51.4262C477.125 51.8462 476.817 52.4202 476.705 53.1482H482.27C482.158 52.4342 481.85 51.8672 481.346 51.4472C480.842 51.0132 480.226 50.7962 479.498 50.7962ZM494.216 48.3182C495.266 48.3182 496.218 48.5632 497.072 49.0532C497.94 49.5292 498.619 50.2082 499.109 51.0902C499.599 51.9582 499.844 52.9732 499.844 54.1352C499.844 55.2972 499.599 56.3192 499.109 57.2012C498.619 58.0692 497.94 58.7482 497.072 59.2382C496.218 59.7142 495.266 59.9522 494.216 59.9522C492.774 59.9522 491.64 59.4972 490.814 58.5872V63.8582H487.538V48.4862H490.667V49.7882C491.479 48.8082 492.662 48.3182 494.216 48.3182ZM493.649 57.2642C494.489 57.2642 495.175 56.9842 495.707 56.4242C496.253 55.8502 496.526 55.0872 496.526 54.1352C496.526 53.1832 496.253 52.4272 495.707 51.8672C495.175 51.2932 494.489 51.0062 493.649 51.0062C492.809 51.0062 492.116 51.2932 491.57 51.8672C491.038 52.4272 490.772 53.1832 490.772 54.1352C490.772 55.0872 491.038 55.8502 491.57 56.4242C492.116 56.9842 492.809 57.2642 493.649 57.2642ZM507.413 59.9522C506.223 59.9522 505.152 59.7072 504.2 59.2172C503.262 58.7132 502.527 58.0202 501.995 57.1382C501.463 56.2562 501.197 55.2552 501.197 54.1352C501.197 53.0152 501.463 52.0142 501.995 51.1322C502.527 50.2502 503.262 49.5642 504.2 49.0742C505.152 48.5702 506.223 48.3182 507.413 48.3182C508.603 48.3182 509.667 48.5702 510.605 49.0742C511.543 49.5642 512.278 50.2502 512.81 51.1322C513.342 52.0142 513.608 53.0152 513.608 54.1352C513.608 55.2552 513.342 56.2562 512.81 57.1382C512.278 58.0202 511.543 58.7132 510.605 59.2172C509.667 59.7072 508.603 59.9522 507.413 59.9522ZM507.413 57.2642C508.253 57.2642 508.939 56.9842 509.471 56.4242C510.017 55.8502 510.29 55.0872 510.29 54.1352C510.29 53.1832 510.017 52.4272 509.471 51.8672C508.939 51.2932 508.253 51.0062 507.413 51.0062C506.573 51.0062 505.88 51.2932 505.334 51.8672C504.788 52.4272 504.515 53.1832 504.515 54.1352C504.515 55.0872 504.788 55.8502 505.334 56.4242C505.88 56.9842 506.573 57.2642 507.413 57.2642ZM518.927 49.9772C519.319 49.4312 519.844 49.0182 520.502 48.7382C521.174 48.4582 521.944 48.3182 522.812 48.3182V51.3422C522.448 51.3142 522.203 51.3002 522.077 51.3002C521.139 51.3002 520.404 51.5662 519.872 52.0982C519.34 52.6162 519.074 53.4002 519.074 54.4502V59.7842H515.798V48.4862H518.927V49.9772ZM532.436 59.2382C532.114 59.4762 531.715 59.6582 531.239 59.7842C530.777 59.8962 530.287 59.9522 529.769 59.9522C528.425 59.9522 527.382 59.6092 526.64 58.9232C525.912 58.2372 525.548 57.2292 525.548 55.8992V51.2582H523.805V48.7382H525.548V45.9872H528.824V48.7382H531.638V51.2582H528.824V55.8572C528.824 56.3332 528.943 56.7042 529.181 56.9702C529.433 57.2222 529.783 57.3482 530.231 57.3482C530.749 57.3482 531.19 57.2082 531.554 56.9282L532.436 59.2382ZM540.222 48.4862H543.498V59.7842H540.222V48.4862ZM541.86 46.9112C541.258 46.9112 540.768 46.7362 540.39 46.3862C540.012 46.0362 539.823 45.6022 539.823 45.0842C539.823 44.5662 540.012 44.1322 540.39 43.7822C540.768 43.4322 541.258 43.2572 541.86 43.2572C542.462 43.2572 542.952 43.4252 543.33 43.7612C543.708 44.0972 543.897 44.5172 543.897 45.0212C543.897 45.5672 543.708 46.0222 543.33 46.3862C542.952 46.7362 542.462 46.9112 541.86 46.9112ZM550.34 59.9522C549.402 59.9522 548.485 59.8402 547.589 59.6162C546.693 59.3782 545.979 59.0842 545.447 58.7342L546.539 56.3822C547.043 56.7042 547.652 56.9702 548.366 57.1802C549.08 57.3762 549.78 57.4742 550.466 57.4742C551.852 57.4742 552.545 57.1312 552.545 56.4452C552.545 56.1232 552.356 55.8922 551.978 55.7522C551.6 55.6122 551.019 55.4932 550.235 55.3952C549.311 55.2552 548.548 55.0942 547.946 54.9122C547.344 54.7302 546.819 54.4082 546.371 53.9462C545.937 53.4842 545.72 52.8262 545.72 51.9722C545.72 51.2582 545.923 50.6282 546.329 50.0822C546.749 49.5222 547.351 49.0882 548.135 48.7802C548.933 48.4722 549.871 48.3182 550.949 48.3182C551.747 48.3182 552.538 48.4092 553.322 48.5912C554.12 48.7592 554.778 48.9972 555.296 49.3052L554.204 51.6362C553.21 51.0762 552.125 50.7962 550.949 50.7962C550.249 50.7962 549.724 50.8942 549.374 51.0902C549.024 51.2862 548.849 51.5382 548.849 51.8462C548.849 52.1962 549.038 52.4412 549.416 52.5812C549.794 52.7212 550.396 52.8542 551.222 52.9802C552.146 53.1342 552.902 53.3022 553.49 53.4842C554.078 53.6522 554.589 53.9672 555.023 54.4292C555.457 54.8912 555.674 55.5352 555.674 56.3612C555.674 57.0612 555.464 57.6842 555.044 58.2302C554.624 58.7762 554.008 59.2032 553.196 59.5112C552.398 59.8052 551.446 59.9522 550.34 59.9522ZM573.932 57.0122V59.7842H562.823V57.5792L568.493 52.2242C569.095 51.6502 569.501 51.1602 569.711 50.7542C569.921 50.3342 570.026 49.9212 570.026 49.5152C570.026 48.9272 569.823 48.4792 569.417 48.1712C569.025 47.8492 568.444 47.6882 567.674 47.6882C567.03 47.6882 566.449 47.8142 565.931 48.0662C565.413 48.3042 564.979 48.6682 564.629 49.1582L562.151 47.5622C562.725 46.7082 563.516 46.0432 564.524 45.5672C565.532 45.0772 566.687 44.8322 567.989 44.8322C569.081 44.8322 570.033 45.0142 570.845 45.3782C571.671 45.7282 572.308 46.2322 572.756 46.8902C573.218 47.5342 573.449 48.2972 573.449 49.1792C573.449 49.9772 573.281 50.7262 572.945 51.4262C572.609 52.1262 571.958 52.9242 570.992 53.8202L567.611 57.0122H573.932ZM588.592 56.6972H586.198V59.7842H582.88V56.6972H574.963V54.4082L581.893 45.0842H585.463L579.037 53.9252H582.985V51.1742H586.198V53.9252H588.592V56.6972ZM148.91 74.3182C150.31 74.3182 151.437 74.7382 152.291 75.5782C153.159 76.4182 153.593 77.6642 153.593 79.3162V85.7842H150.317V79.8202C150.317 78.9242 150.121 78.2592 149.729 77.8252C149.337 77.3772 148.77 77.1532 148.028 77.1532C147.202 77.1532 146.544 77.4122 146.054 77.9302C145.564 78.4342 145.319 79.1902 145.319 80.1982V85.7842H142.043V70.2022H145.319V75.6622C145.753 75.2282 146.278 74.8992 146.894 74.6752C147.51 74.4372 148.182 74.3182 148.91 74.3182ZM162.061 85.9522C160.871 85.9522 159.8 85.7072 158.848 85.2172C157.91 84.7132 157.175 84.0202 156.643 83.1382C156.111 82.2562 155.845 81.2552 155.845 80.1352C155.845 79.0152 156.111 78.0142 156.643 77.1322C157.175 76.2502 157.91 75.5642 158.848 75.0742C159.8 74.5702 160.871 74.3182 162.061 74.3182C163.251 74.3182 164.315 74.5702 165.253 75.0742C166.191 75.5642 166.926 76.2502 167.458 77.1322C167.99 78.0142 168.256 79.0152 168.256 80.1352C168.256 81.2552 167.99 82.2562 167.458 83.1382C166.926 84.0202 166.191 84.7132 165.253 85.2172C164.315 85.7072 163.251 85.9522 162.061 85.9522ZM162.061 83.2642C162.901 83.2642 163.587 82.9842 164.119 82.4242C164.665 81.8502 164.938 81.0872 164.938 80.1352C164.938 79.1832 164.665 78.4272 164.119 77.8672C163.587 77.2932 162.901 77.0062 162.061 77.0062C161.221 77.0062 160.528 77.2932 159.982 77.8672C159.436 78.4272 159.163 79.1832 159.163 80.1352C159.163 81.0872 159.436 81.8502 159.982 82.4242C160.528 82.9842 161.221 83.2642 162.061 83.2642ZM181.828 74.4862V85.7842H178.72V84.4402C178.286 84.9302 177.768 85.3082 177.166 85.5742C176.564 85.8262 175.913 85.9522 175.213 85.9522C173.729 85.9522 172.553 85.5252 171.685 84.6712C170.817 83.8172 170.383 82.5502 170.383 80.8702V74.4862H173.659V80.3872C173.659 82.2072 174.422 83.1172 175.948 83.1172C176.732 83.1172 177.362 82.8652 177.838 82.3612C178.314 81.8432 178.552 81.0802 178.552 80.0722V74.4862H181.828ZM187.992 75.9772C188.384 75.4312 188.909 75.0182 189.567 74.7382C190.239 74.4582 191.009 74.3182 191.877 74.3182V77.3422C191.513 77.3142 191.268 77.3002 191.142 77.3002C190.204 77.3002 189.469 77.5662 188.937 78.0982C188.405 78.6162 188.139 79.4002 188.139 80.4502V85.7842H184.863V74.4862H187.992V75.9772ZM197.667 85.9522C196.729 85.9522 195.812 85.8402 194.916 85.6162C194.02 85.3782 193.306 85.0842 192.774 84.7342L193.866 82.3822C194.37 82.7042 194.979 82.9702 195.693 83.1802C196.407 83.3762 197.107 83.4742 197.793 83.4742C199.179 83.4742 199.872 83.1312 199.872 82.4452C199.872 82.1232 199.683 81.8922 199.305 81.7522C198.927 81.6122 198.346 81.4932 197.562 81.3952C196.638 81.2552 195.875 81.0942 195.273 80.9122C194.671 80.7302 194.146 80.4082 193.698 79.9462C193.264 79.4842 193.047 78.8262 193.047 77.9722C193.047 77.2582 193.25 76.6282 193.656 76.0822C194.076 75.5222 194.678 75.0882 195.462 74.7802C196.26 74.4722 197.198 74.3182 198.276 74.3182C199.074 74.3182 199.865 74.4092 200.649 74.5912C201.447 74.7592 202.105 74.9972 202.623 75.3052L201.531 77.6362C200.537 77.0762 199.452 76.7962 198.276 76.7962C197.576 76.7962 197.051 76.8942 196.701 77.0902C196.351 77.2862 196.176 77.5382 196.176 77.8462C196.176 78.1962 196.365 78.4412 196.743 78.5812C197.121 78.7212 197.723 78.8542 198.549 78.9802C199.473 79.1342 200.229 79.3022 200.817 79.4842C201.405 79.6522 201.916 79.9672 202.35 80.4292C202.784 80.8912 203.001 81.5352 203.001 82.3612C203.001 83.0612 202.791 83.6842 202.371 84.2302C201.951 84.7762 201.335 85.2032 200.523 85.5112C199.725 85.8052 198.773 85.9522 197.667 85.9522ZM215.527 74.3182C217.277 74.3182 218.621 74.7382 219.559 75.5782C220.497 76.4042 220.966 77.6572 220.966 79.3372V85.7842H217.9V84.3772C217.284 85.4272 216.136 85.9522 214.456 85.9522C213.588 85.9522 212.832 85.8052 212.188 85.5112C211.558 85.2172 211.075 84.8112 210.739 84.2932C210.403 83.7752 210.235 83.1872 210.235 82.5292C210.235 81.4792 210.627 80.6532 211.411 80.0512C212.209 79.4492 213.434 79.1482 215.086 79.1482H217.69C217.69 78.4342 217.473 77.8882 217.039 77.5102C216.605 77.1182 215.954 76.9222 215.086 76.9222C214.484 76.9222 213.889 77.0202 213.301 77.2162C212.727 77.3982 212.237 77.6502 211.831 77.9722L210.655 75.6832C211.271 75.2492 212.006 74.9132 212.86 74.6752C213.728 74.4372 214.617 74.3182 215.527 74.3182ZM215.275 83.7472C215.835 83.7472 216.332 83.6212 216.766 83.3692C217.2 83.1032 217.508 82.7182 217.69 82.2142V81.0592H215.443C214.099 81.0592 213.427 81.5002 213.427 82.3822C213.427 82.8022 213.588 83.1382 213.91 83.3902C214.246 83.6282 214.701 83.7472 215.275 83.7472ZM227.521 74.7382H230.419V77.2582H227.605V85.7842H224.329V77.2582H222.586V74.7382H224.329V74.2342C224.329 72.9462 224.707 71.9242 225.463 71.1682C226.233 70.4122 227.311 70.0342 228.697 70.0342C229.187 70.0342 229.649 70.0902 230.083 70.2022C230.531 70.3002 230.902 70.4472 231.196 70.6432L230.335 73.0162C229.957 72.7502 229.516 72.6172 229.012 72.6172C228.018 72.6172 227.521 73.1632 227.521 74.2552V74.7382ZM239.339 85.2382C239.017 85.4762 238.618 85.6582 238.142 85.7842C237.68 85.8962 237.19 85.9522 236.672 85.9522C235.328 85.9522 234.285 85.6092 233.543 84.9232C232.815 84.2372 232.451 83.2292 232.451 81.8992V77.2582H230.708V74.7382H232.451V71.9872H235.727V74.7382H238.541V77.2582H235.727V81.8572C235.727 82.3332 235.846 82.7042 236.084 82.9702C236.336 83.2222 236.686 83.3482 237.134 83.3482C237.652 83.3482 238.093 83.2082 238.457 82.9282L239.339 85.2382ZM251.896 80.1772C251.896 80.2192 251.875 80.5132 251.833 81.0592H243.286C243.44 81.7592 243.804 82.3122 244.378 82.7182C244.952 83.1242 245.666 83.3272 246.52 83.3272C247.108 83.3272 247.626 83.2432 248.074 83.0752C248.536 82.8932 248.963 82.6132 249.355 82.2352L251.098 84.1252C250.034 85.3432 248.48 85.9522 246.436 85.9522C245.162 85.9522 244.035 85.7072 243.055 85.2172C242.075 84.7132 241.319 84.0202 240.787 83.1382C240.255 82.2562 239.989 81.2552 239.989 80.1352C239.989 79.0292 240.248 78.0352 240.766 77.1532C241.298 76.2572 242.019 75.5642 242.929 75.0742C243.853 74.5702 244.882 74.3182 246.016 74.3182C247.122 74.3182 248.123 74.5562 249.019 75.0322C249.915 75.5082 250.615 76.1942 251.119 77.0902C251.637 77.9722 251.896 79.0012 251.896 80.1772ZM246.037 76.7962C245.295 76.7962 244.672 77.0062 244.168 77.4262C243.664 77.8462 243.356 78.4202 243.244 79.1482H248.809C248.697 78.4342 248.389 77.8672 247.885 77.4472C247.381 77.0132 246.765 76.7962 246.037 76.7962ZM257.206 75.9772C257.598 75.4312 258.123 75.0182 258.781 74.7382C259.453 74.4582 260.223 74.3182 261.091 74.3182V77.3422C260.727 77.3142 260.482 77.3002 260.356 77.3002C259.418 77.3002 258.683 77.5662 258.151 78.0982C257.619 78.6162 257.353 79.4002 257.353 80.4502V85.7842H254.077V74.4862H257.206V75.9772ZM276.355 85.2382C276.033 85.4762 275.634 85.6582 275.158 85.7842C274.696 85.8962 274.206 85.9522 273.688 85.9522C272.344 85.9522 271.301 85.6092 270.559 84.9232C269.831 84.2372 269.467 83.2292 269.467 81.8992V77.2582H267.724V74.7382H269.467V71.9872H272.743V74.7382H275.557V77.2582H272.743V81.8572C272.743 82.3332 272.862 82.7042 273.1 82.9702C273.352 83.2222 273.702 83.3482 274.15 83.3482C274.668 83.3482 275.109 83.2082 275.473 82.9282L276.355 85.2382ZM285.061 74.3182C286.461 74.3182 287.588 74.7382 288.442 75.5782C289.31 76.4182 289.744 77.6642 289.744 79.3162V85.7842H286.468V79.8202C286.468 78.9242 286.272 78.2592 285.88 77.8252C285.488 77.3772 284.921 77.1532 284.179 77.1532C283.353 77.1532 282.695 77.4122 282.205 77.9302C281.715 78.4342 281.47 79.1902 281.47 80.1982V85.7842H278.194V70.2022H281.47V75.6622C281.904 75.2282 282.429 74.8992 283.045 74.6752C283.661 74.4372 284.333 74.3182 285.061 74.3182ZM303.904 80.1772C303.904 80.2192 303.883 80.5132 303.841 81.0592H295.294C295.448 81.7592 295.812 82.3122 296.386 82.7182C296.96 83.1242 297.674 83.3272 298.528 83.3272C299.116 83.3272 299.634 83.2432 300.082 83.0752C300.544 82.8932 300.971 82.6132 301.363 82.2352L303.106 84.1252C302.042 85.3432 300.488 85.9522 298.444 85.9522C297.17 85.9522 296.043 85.7072 295.063 85.2172C294.083 84.7132 293.327 84.0202 292.795 83.1382C292.263 82.2562 291.997 81.2552 291.997 80.1352C291.997 79.0292 292.256 78.0352 292.774 77.1532C293.306 76.2572 294.027 75.5642 294.937 75.0742C295.861 74.5702 296.89 74.3182 298.024 74.3182C299.13 74.3182 300.131 74.5562 301.027 75.0322C301.923 75.5082 302.623 76.1942 303.127 77.0902C303.645 77.9722 303.904 79.0012 303.904 80.1772ZM298.045 76.7962C297.303 76.7962 296.68 77.0062 296.176 77.4262C295.672 77.8462 295.364 78.4202 295.252 79.1482H300.817C300.705 78.4342 300.397 77.8672 299.893 77.4472C299.389 77.0132 298.773 76.7962 298.045 76.7962ZM323.099 80.1772C323.099 80.2192 323.078 80.5132 323.036 81.0592H314.489C314.643 81.7592 315.007 82.3122 315.581 82.7182C316.155 83.1242 316.869 83.3272 317.723 83.3272C318.311 83.3272 318.829 83.2432 319.277 83.0752C319.739 82.8932 320.166 82.6132 320.558 82.2352L322.301 84.1252C321.237 85.3432 319.683 85.9522 317.639 85.9522C316.365 85.9522 315.238 85.7072 314.258 85.2172C313.278 84.7132 312.522 84.0202 311.99 83.1382C311.458 82.2562 311.192 81.2552 311.192 80.1352C311.192 79.0292 311.451 78.0352 311.969 77.1532C312.501 76.2572 313.222 75.5642 314.132 75.0742C315.056 74.5702 316.085 74.3182 317.219 74.3182C318.325 74.3182 319.326 74.5562 320.222 75.0322C321.118 75.5082 321.818 76.1942 322.322 77.0902C322.84 77.9722 323.099 79.0012 323.099 80.1772ZM317.24 76.7962C316.498 76.7962 315.875 77.0062 315.371 77.4262C314.867 77.8462 314.559 78.4202 314.447 79.1482H320.012C319.9 78.4342 319.592 77.8672 319.088 77.4472C318.584 77.0132 317.968 76.7962 317.24 76.7962ZM332.147 74.3182C333.547 74.3182 334.674 74.7382 335.528 75.5782C336.396 76.4182 336.83 77.6642 336.83 79.3162V85.7842H333.554V79.8202C333.554 78.9242 333.358 78.2592 332.966 77.8252C332.574 77.3772 332.007 77.1532 331.265 77.1532C330.439 77.1532 329.781 77.4122 329.291 77.9302C328.801 78.4342 328.556 79.1902 328.556 80.1982V85.7842H325.28V74.4862H328.409V75.8092C328.843 75.3332 329.382 74.9692 330.026 74.7172C330.67 74.4512 331.377 74.3182 332.147 74.3182ZM351.431 70.2022V85.7842H348.302V84.4822C347.49 85.4622 346.314 85.9522 344.774 85.9522C343.71 85.9522 342.744 85.7142 341.876 85.2382C341.022 84.7622 340.35 84.0832 339.86 83.2012C339.37 82.3192 339.125 81.2972 339.125 80.1352C339.125 78.9732 339.37 77.9512 339.86 77.0692C340.35 76.1872 341.022 75.5082 341.876 75.0322C342.744 74.5562 343.71 74.3182 344.774 74.3182C346.216 74.3182 347.343 74.7732 348.155 75.6832V70.2022H351.431ZM345.341 83.2642C346.167 83.2642 346.853 82.9842 347.399 82.4242C347.945 81.8502 348.218 81.0872 348.218 80.1352C348.218 79.1832 347.945 78.4272 347.399 77.8672C346.853 77.2932 346.167 77.0062 345.341 77.0062C344.501 77.0062 343.808 77.2932 343.262 77.8672C342.716 78.4272 342.443 79.1832 342.443 80.1352C342.443 81.0872 342.716 81.8502 343.262 82.4242C343.808 82.9842 344.501 83.2642 345.341 83.2642ZM365.786 85.9522C364.596 85.9522 363.525 85.7072 362.573 85.2172C361.635 84.7132 360.9 84.0202 360.368 83.1382C359.836 82.2562 359.57 81.2552 359.57 80.1352C359.57 79.0152 359.836 78.0142 360.368 77.1322C360.9 76.2502 361.635 75.5642 362.573 75.0742C363.525 74.5702 364.596 74.3182 365.786 74.3182C366.976 74.3182 368.04 74.5702 368.978 75.0742C369.916 75.5642 370.651 76.2502 371.183 77.1322C371.715 78.0142 371.981 79.0152 371.981 80.1352C371.981 81.2552 371.715 82.2562 371.183 83.1382C370.651 84.0202 369.916 84.7132 368.978 85.2172C368.04 85.7072 366.976 85.9522 365.786 85.9522ZM365.786 83.2642C366.626 83.2642 367.312 82.9842 367.844 82.4242C368.39 81.8502 368.663 81.0872 368.663 80.1352C368.663 79.1832 368.39 78.4272 367.844 77.8672C367.312 77.2932 366.626 77.0062 365.786 77.0062C364.946 77.0062 364.253 77.2932 363.707 77.8672C363.161 78.4272 362.888 79.1832 362.888 80.1352C362.888 81.0872 363.161 81.8502 363.707 82.4242C364.253 82.9842 364.946 83.2642 365.786 83.2642ZM377.762 74.7382H380.66V77.2582H377.846V85.7842H374.57V77.2582H372.827V74.7382H374.57V74.2342C374.57 72.9462 374.948 71.9242 375.704 71.1682C376.474 70.4122 377.552 70.0342 378.938 70.0342C379.428 70.0342 379.89 70.0902 380.324 70.2022C380.772 70.3002 381.143 70.4472 381.437 70.6432L380.576 73.0162C380.198 72.7502 379.757 72.6172 379.253 72.6172C378.259 72.6172 377.762 73.1632 377.762 74.2552V74.7382ZM395.526 85.2382C395.204 85.4762 394.805 85.6582 394.329 85.7842C393.867 85.8962 393.377 85.9522 392.859 85.9522C391.515 85.9522 390.472 85.6092 389.73 84.9232C389.002 84.2372 388.638 83.2292 388.638 81.8992V77.2582H386.895V74.7382H388.638V71.9872H391.914V74.7382H394.728V77.2582H391.914V81.8572C391.914 82.3332 392.033 82.7042 392.271 82.9702C392.523 83.2222 392.873 83.3482 393.321 83.3482C393.839 83.3482 394.28 83.2082 394.644 82.9282L395.526 85.2382ZM404.232 74.3182C405.632 74.3182 406.759 74.7382 407.613 75.5782C408.481 76.4182 408.915 77.6642 408.915 79.3162V85.7842H405.639V79.8202C405.639 78.9242 405.443 78.2592 405.051 77.8252C404.659 77.3772 404.092 77.1532 403.35 77.1532C402.524 77.1532 401.866 77.4122 401.376 77.9302C400.886 78.4342 400.641 79.1902 400.641 80.1982V85.7842H397.365V70.2022H400.641V75.6622C401.075 75.2282 401.6 74.8992 402.216 74.6752C402.832 74.4372 403.504 74.3182 404.232 74.3182ZM423.075 80.1772C423.075 80.2192 423.054 80.5132 423.012 81.0592H414.465C414.619 81.7592 414.983 82.3122 415.557 82.7182C416.131 83.1242 416.845 83.3272 417.699 83.3272C418.287 83.3272 418.805 83.2432 419.253 83.0752C419.715 82.8932 420.142 82.6132 420.534 82.2352L422.277 84.1252C421.213 85.3432 419.659 85.9522 417.615 85.9522C416.341 85.9522 415.214 85.7072 414.234 85.2172C413.254 84.7132 412.498 84.0202 411.966 83.1382C411.434 82.2562 411.168 81.2552 411.168 80.1352C411.168 79.0292 411.427 78.0352 411.945 77.1532C412.477 76.2572 413.198 75.5642 414.108 75.0742C415.032 74.5702 416.061 74.3182 417.195 74.3182C418.301 74.3182 419.302 74.5562 420.198 75.0322C421.094 75.5082 421.794 76.1942 422.298 77.0902C422.816 77.9722 423.075 79.0012 423.075 80.1772ZM417.216 76.7962C416.474 76.7962 415.851 77.0062 415.347 77.4262C414.843 77.8462 414.535 78.4202 414.423 79.1482H419.988C419.876 78.4342 419.568 77.8672 419.064 77.4472C418.56 77.0132 417.944 76.7962 417.216 76.7962ZM431.203 74.4862H434.479V85.7842H431.203V74.4862ZM432.841 72.9112C432.239 72.9112 431.749 72.7362 431.371 72.3862C430.993 72.0362 430.804 71.6022 430.804 71.0842C430.804 70.5662 430.993 70.1322 431.371 69.7822C431.749 69.4322 432.239 69.2572 432.841 69.2572C433.443 69.2572 433.933 69.4252 434.311 69.7612C434.689 70.0972 434.878 70.5172 434.878 71.0212C434.878 71.5672 434.689 72.0222 434.311 72.3862C433.933 72.7362 433.443 72.9112 432.841 72.9112ZM444.386 74.3182C445.786 74.3182 446.913 74.7382 447.767 75.5782C448.635 76.4182 449.069 77.6642 449.069 79.3162V85.7842H445.793V79.8202C445.793 78.9242 445.597 78.2592 445.205 77.8252C444.813 77.3772 444.246 77.1532 443.504 77.1532C442.678 77.1532 442.02 77.4122 441.53 77.9302C441.04 78.4342 440.795 79.1902 440.795 80.1982V85.7842H437.519V74.4862H440.648V75.8092C441.082 75.3332 441.621 74.9692 442.265 74.7172C442.909 74.4512 443.616 74.3182 444.386 74.3182ZM455.84 85.9522C454.902 85.9522 453.985 85.8402 453.089 85.6162C452.193 85.3782 451.479 85.0842 450.947 84.7342L452.039 82.3822C452.543 82.7042 453.152 82.9702 453.866 83.1802C454.58 83.3762 455.28 83.4742 455.966 83.4742C457.352 83.4742 458.045 83.1312 458.045 82.4452C458.045 82.1232 457.856 81.8922 457.478 81.7522C457.1 81.6122 456.519 81.4932 455.735 81.3952C454.811 81.2552 454.048 81.0942 453.446 80.9122C452.844 80.7302 452.319 80.4082 451.871 79.9462C451.437 79.4842 451.22 78.8262 451.22 77.9722C451.22 77.2582 451.423 76.6282 451.829 76.0822C452.249 75.5222 452.851 75.0882 453.635 74.7802C454.433 74.4722 455.371 74.3182 456.449 74.3182C457.247 74.3182 458.038 74.4092 458.822 74.5912C459.62 74.7592 460.278 74.9972 460.796 75.3052L459.704 77.6362C458.71 77.0762 457.625 76.7962 456.449 76.7962C455.749 76.7962 455.224 76.8942 454.874 77.0902C454.524 77.2862 454.349 77.5382 454.349 77.8462C454.349 78.1962 454.538 78.4412 454.916 78.5812C455.294 78.7212 455.896 78.8542 456.722 78.9802C457.646 79.1342 458.402 79.3022 458.99 79.4842C459.578 79.6522 460.089 79.9672 460.523 80.4292C460.957 80.8912 461.174 81.5352 461.174 82.3612C461.174 83.0612 460.964 83.6842 460.544 84.2302C460.124 84.7762 459.508 85.2032 458.696 85.5112C457.898 85.8052 456.946 85.9522 455.84 85.9522ZM469.873 74.3182C470.923 74.3182 471.875 74.5632 472.729 75.0532C473.597 75.5292 474.276 76.2082 474.766 77.0902C475.256 77.9582 475.501 78.9732 475.501 80.1352C475.501 81.2972 475.256 82.3192 474.766 83.2012C474.276 84.0692 473.597 84.7482 472.729 85.2382C471.875 85.7142 470.923 85.9522 469.873 85.9522C468.431 85.9522 467.297 85.4972 466.471 84.5872V89.8582H463.195V74.4862H466.324V75.7882C467.136 74.8082 468.319 74.3182 469.873 74.3182ZM469.306 83.2642C470.146 83.2642 470.832 82.9842 471.364 82.4242C471.91 81.8502 472.183 81.0872 472.183 80.1352C472.183 79.1832 471.91 78.4272 471.364 77.8672C470.832 77.2932 470.146 77.0062 469.306 77.0062C468.466 77.0062 467.773 77.2932 467.227 77.8672C466.695 78.4272 466.429 79.1832 466.429 80.1352C466.429 81.0872 466.695 81.8502 467.227 82.4242C467.773 82.9842 468.466 83.2642 469.306 83.2642ZM488.761 80.1772C488.761 80.2192 488.74 80.5132 488.698 81.0592H480.151C480.305 81.7592 480.669 82.3122 481.243 82.7182C481.817 83.1242 482.531 83.3272 483.385 83.3272C483.973 83.3272 484.491 83.2432 484.939 83.0752C485.401 82.8932 485.828 82.6132 486.22 82.2352L487.963 84.1252C486.899 85.3432 485.345 85.9522 483.301 85.9522C482.027 85.9522 480.9 85.7072 479.92 85.2172C478.94 84.7132 478.184 84.0202 477.652 83.1382C477.12 82.2562 476.854 81.2552 476.854 80.1352C476.854 79.0292 477.113 78.0352 477.631 77.1532C478.163 76.2572 478.884 75.5642 479.794 75.0742C480.718 74.5702 481.747 74.3182 482.881 74.3182C483.987 74.3182 484.988 74.5562 485.884 75.0322C486.78 75.5082 487.48 76.1942 487.984 77.0902C488.502 77.9722 488.761 79.0012 488.761 80.1772ZM482.902 76.7962C482.16 76.7962 481.537 77.0062 481.033 77.4262C480.529 77.8462 480.221 78.4202 480.109 79.1482H485.674C485.562 78.4342 485.254 77.8672 484.75 77.4472C484.246 77.0132 483.63 76.7962 482.902 76.7962ZM496.402 85.9522C495.198 85.9522 494.113 85.7072 493.147 85.2172C492.195 84.7132 491.446 84.0202 490.9 83.1382C490.368 82.2562 490.102 81.2552 490.102 80.1352C490.102 79.0152 490.368 78.0142 490.9 77.1322C491.446 76.2502 492.195 75.5642 493.147 75.0742C494.113 74.5702 495.198 74.3182 496.402 74.3182C497.592 74.3182 498.628 74.5702 499.51 75.0742C500.406 75.5642 501.057 76.2712 501.463 77.1952L498.922 78.5602C498.334 77.5242 497.487 77.0062 496.381 77.0062C495.527 77.0062 494.82 77.2862 494.26 77.8462C493.7 78.4062 493.42 79.1692 493.42 80.1352C493.42 81.1012 493.7 81.8642 494.26 82.4242C494.82 82.9842 495.527 83.2642 496.381 83.2642C497.501 83.2642 498.348 82.7462 498.922 81.7102L501.463 83.0962C501.057 83.9922 500.406 84.6922 499.51 85.1962C498.628 85.7002 497.592 85.9522 496.402 85.9522ZM510.8 85.2382C510.478 85.4762 510.079 85.6582 509.603 85.7842C509.141 85.8962 508.651 85.9522 508.133 85.9522C506.789 85.9522 505.746 85.6092 505.004 84.9232C504.276 84.2372 503.912 83.2292 503.912 81.8992V77.2582H502.169V74.7382H503.912V71.9872H507.188V74.7382H510.002V77.2582H507.188V81.8572C507.188 82.3332 507.307 82.7042 507.545 82.9702C507.797 83.2222 508.147 83.3482 508.595 83.3482C509.113 83.3482 509.554 83.2082 509.918 82.9282L510.8 85.2382ZM512.639 74.4862H515.915V85.7842H512.639V74.4862ZM514.277 72.9112C513.675 72.9112 513.185 72.7362 512.807 72.3862C512.429 72.0362 512.24 71.6022 512.24 71.0842C512.24 70.5662 512.429 70.1322 512.807 69.7822C513.185 69.4322 513.675 69.2572 514.277 69.2572C514.879 69.2572 515.369 69.4252 515.747 69.7612C516.125 70.0972 516.314 70.5172 516.314 71.0212C516.314 71.5672 516.125 72.0222 515.747 72.3862C515.369 72.7362 514.879 72.9112 514.277 72.9112ZM524.332 85.9522C523.142 85.9522 522.071 85.7072 521.119 85.2172C520.181 84.7132 519.446 84.0202 518.914 83.1382C518.382 82.2562 518.116 81.2552 518.116 80.1352C518.116 79.0152 518.382 78.0142 518.914 77.1322C519.446 76.2502 520.181 75.5642 521.119 75.0742C522.071 74.5702 523.142 74.3182 524.332 74.3182C525.522 74.3182 526.586 74.5702 527.524 75.0742C528.462 75.5642 529.197 76.2502 529.729 77.1322C530.261 78.0142 530.527 79.0152 530.527 80.1352C530.527 81.2552 530.261 82.2562 529.729 83.1382C529.197 84.0202 528.462 84.7132 527.524 85.2172C526.586 85.7072 525.522 85.9522 524.332 85.9522ZM524.332 83.2642C525.172 83.2642 525.858 82.9842 526.39 82.4242C526.936 81.8502 527.209 81.0872 527.209 80.1352C527.209 79.1832 526.936 78.4272 526.39 77.8672C525.858 77.2932 525.172 77.0062 524.332 77.0062C523.492 77.0062 522.799 77.2932 522.253 77.8672C521.707 78.4272 521.434 79.1832 521.434 80.1352C521.434 81.0872 521.707 81.8502 522.253 82.4242C522.799 82.9842 523.492 83.2642 524.332 83.2642ZM539.584 74.3182C540.984 74.3182 542.111 74.7382 542.965 75.5782C543.833 76.4182 544.267 77.6642 544.267 79.3162V85.7842H540.991V79.8202C540.991 78.9242 540.795 78.2592 540.403 77.8252C540.011 77.3772 539.444 77.1532 538.702 77.1532C537.876 77.1532 537.218 77.4122 536.728 77.9302C536.238 78.4342 535.993 79.1902 535.993 80.1982V85.7842H532.717V74.4862H535.846V75.8092C536.28 75.3332 536.819 74.9692 537.463 74.7172C538.107 74.4512 538.814 74.3182 539.584 74.3182Z" fill="white"/>
</svg>
