<svg width="542" height="114" viewBox="0 0 542 114" fill="none" xmlns="http://www.w3.org/2000/svg">
<rect x="25.4347" y="14.415" width="516.565" height="85.2381" fill="#3E4671"/>
<path d="M108.217 56.7209C108.217 86.9972 84.3854 111.442 55.1084 111.442C25.8314 111.442 2 86.9972 2 56.7209C2 26.4446 25.8314 2 55.1084 2C84.3854 2 108.217 26.4446 108.217 56.7209Z" fill="white" stroke="#3E4671" stroke-width="4"/>
<path d="M80.9938 50.6024C79.7586 44.5875 76.483 39.1129 71.769 35.1874C66.9484 31.1956 60.9578 29.0222 54.784 29.0254C47.5064 29.0254 40.7091 31.9271 35.6272 37.1965C30.7161 42.2953 28.0246 49.0273 28.0461 56.1475C28.0463 61.3678 29.5271 66.4732 32.3049 70.8306L32.8246 71.5786L29.9575 84.4145L43.6717 80.8834C43.6717 80.8834 43.9465 80.9786 44.1495 81.059C44.3526 81.1394 46.1004 81.833 47.9544 82.3695C49.4954 82.8146 52.7018 83.4823 55.2141 83.4823C62.3399 83.4823 68.9939 80.6263 73.9492 75.4385C78.8603 70.2915 81.5649 63.4482 81.5649 56.1623C81.5653 54.2933 81.3738 52.4296 80.9938 50.6024V50.6024ZM43.3372 60.6763C42.5811 60.6763 41.842 60.4443 41.2134 60.0095C40.5847 59.5748 40.0948 58.9569 39.8054 58.234C39.5161 57.511 39.4404 56.7156 39.5879 55.9481C39.7354 55.1806 40.0995 54.4757 40.6341 53.9224C41.1687 53.3691 41.8499 52.9923 42.5914 52.8396C43.333 52.6869 44.1016 52.7653 44.8001 53.0647C45.4986 53.3642 46.0957 53.8713 46.5157 54.5219C46.9358 55.1725 47.16 55.9374 47.16 56.7199C47.16 57.7692 46.7572 58.7755 46.0403 59.5175C45.3234 60.2595 44.3511 60.6763 43.3372 60.6763ZM54.8055 60.6763C54.0494 60.6763 53.3103 60.4443 52.6817 60.0095C52.053 59.5748 51.5631 58.9569 51.2737 58.234C50.9844 57.511 50.9087 56.7156 51.0562 55.9481C51.2037 55.1806 51.5678 54.4757 52.1024 53.9224C52.637 53.3691 53.3182 52.9923 54.0597 52.8396C54.8013 52.6869 55.5699 52.7653 56.2684 53.0647C56.9669 53.3642 57.564 53.8713 57.984 54.5219C58.4041 55.1725 58.6283 55.9374 58.6283 56.7199C58.6283 57.7692 58.2255 58.7755 57.5086 59.5175C56.7917 60.2595 55.8194 60.6763 54.8055 60.6763V60.6763ZM66.2738 60.6763C65.5177 60.6763 64.7786 60.4443 64.15 60.0095C63.5213 59.5748 63.0314 58.9569 62.742 58.234C62.4527 57.511 62.377 56.7156 62.5245 55.9481C62.672 55.1806 63.0361 54.4757 63.5707 53.9224C64.1053 53.3691 64.7865 52.9923 65.528 52.8396C66.2696 52.6869 67.0382 52.7653 67.7367 53.0647C68.4352 53.3642 69.0323 53.8713 69.4523 54.5219C69.8724 55.1725 70.0966 55.9374 70.0966 56.7199C70.0966 57.7692 69.6938 58.7755 68.9769 59.5175C68.26 60.2595 67.2877 60.6763 66.2738 60.6763Z" fill="#3E4671"/>
<path d="M122.474 63.352C121.093 63.352 119.846 63.0544 118.731 62.459C117.629 61.8637 116.761 61.0467 116.128 60.008C115.507 58.9567 115.197 57.7787 115.197 56.474C115.197 55.1694 115.507 53.9977 116.128 52.959C116.761 51.9077 117.629 51.0844 118.731 50.489C119.846 49.8937 121.093 49.596 122.474 49.596C123.855 49.596 125.096 49.8937 126.198 50.489C127.3 51.0844 128.168 51.9077 128.801 52.959C129.434 53.9977 129.751 55.1694 129.751 56.474C129.751 57.7787 129.434 58.9567 128.801 60.008C128.168 61.0467 127.3 61.8637 126.198 62.459C125.096 63.0544 123.855 63.352 122.474 63.352ZM122.474 60.73C123.259 60.73 123.969 60.5527 124.602 60.198C125.235 59.8307 125.729 59.324 126.084 58.678C126.451 58.032 126.635 57.2974 126.635 56.474C126.635 55.6507 126.451 54.916 126.084 54.27C125.729 53.624 125.235 53.1237 124.602 52.769C123.969 52.4017 123.259 52.218 122.474 52.218C121.689 52.218 120.979 52.4017 120.346 52.769C119.713 53.1237 119.212 53.624 118.845 54.27C118.49 54.916 118.313 55.6507 118.313 56.474C118.313 57.2974 118.49 58.032 118.845 58.678C119.212 59.324 119.713 59.8307 120.346 60.198C120.979 60.5527 121.689 60.73 122.474 60.73ZM138.068 52.75C139.335 52.75 140.355 53.13 141.127 53.89C141.913 54.65 142.305 55.7774 142.305 57.272V63.124H139.341V57.728C139.341 56.9174 139.164 56.3157 138.809 55.923C138.455 55.5177 137.942 55.315 137.27 55.315C136.523 55.315 135.928 55.5494 135.484 56.018C135.041 56.474 134.819 57.158 134.819 58.07V63.124H131.855V52.902H134.686V54.099C135.079 53.6684 135.567 53.339 136.149 53.111C136.732 52.8704 137.372 52.75 138.068 52.75ZM144.612 56.588H149.989V58.963H144.612V56.588ZM152.321 49.026H155.285V63.124H152.321V49.026ZM158.036 52.902H161V63.124H158.036V52.902ZM159.518 51.477C158.973 51.477 158.53 51.3187 158.188 51.002C157.846 50.6854 157.675 50.2927 157.675 49.824C157.675 49.3554 157.846 48.9627 158.188 48.646C158.53 48.3294 158.973 48.171 159.518 48.171C160.063 48.171 160.506 48.323 160.848 48.627C161.19 48.931 161.361 49.311 161.361 49.767C161.361 50.261 161.19 50.6727 160.848 51.002C160.506 51.3187 160.063 51.477 159.518 51.477ZM169.964 52.75C171.23 52.75 172.25 53.13 173.023 53.89C173.808 54.65 174.201 55.7774 174.201 57.272V63.124H171.237V57.728C171.237 56.9174 171.059 56.3157 170.705 55.923C170.35 55.5177 169.837 55.315 169.166 55.315C168.418 55.315 167.823 55.5494 167.38 56.018C166.936 56.474 166.715 57.158 166.715 58.07V63.124H163.751V52.902H166.582V54.099C166.974 53.6684 167.462 53.339 168.045 53.111C168.627 52.8704 169.267 52.75 169.964 52.75ZM187.012 58.051C187.012 58.089 186.993 58.355 186.955 58.849H179.222C179.361 59.4824 179.69 59.9827 180.21 60.35C180.729 60.7174 181.375 60.901 182.148 60.901C182.68 60.901 183.148 60.825 183.554 60.673C183.972 60.5084 184.358 60.255 184.713 59.913L186.29 61.623C185.327 62.725 183.921 63.276 182.072 63.276C180.919 63.276 179.899 63.0544 179.013 62.611C178.126 62.155 177.442 61.528 176.961 60.73C176.479 59.932 176.239 59.0264 176.239 58.013C176.239 57.0124 176.473 56.113 176.942 55.315C177.423 54.5044 178.075 53.8774 178.899 53.434C179.735 52.978 180.666 52.75 181.692 52.75C182.692 52.75 183.598 52.9654 184.409 53.396C185.219 53.8267 185.853 54.4474 186.309 55.258C186.777 56.056 187.012 56.987 187.012 58.051ZM181.711 54.992C181.039 54.992 180.476 55.182 180.02 55.562C179.564 55.942 179.285 56.4614 179.184 57.12H184.219C184.117 56.474 183.839 55.961 183.383 55.581C182.927 55.1884 182.369 54.992 181.711 54.992ZM194.366 52.902H197.33V63.124H194.366V52.902ZM195.848 51.477C195.303 51.477 194.86 51.3187 194.518 51.002C194.176 50.6854 194.005 50.2927 194.005 49.824C194.005 49.3554 194.176 48.9627 194.518 48.646C194.86 48.3294 195.303 48.171 195.848 48.171C196.393 48.171 196.836 48.323 197.178 48.627C197.52 48.931 197.691 49.311 197.691 49.767C197.691 50.261 197.52 50.6727 197.178 51.002C196.836 51.3187 196.393 51.477 195.848 51.477ZM206.294 52.75C207.56 52.75 208.58 53.13 209.353 53.89C210.138 54.65 210.531 55.7774 210.531 57.272V63.124H207.567V57.728C207.567 56.9174 207.389 56.3157 207.035 55.923C206.68 55.5177 206.167 55.315 205.496 55.315C204.748 55.315 204.153 55.5494 203.71 56.018C203.266 56.474 203.045 57.158 203.045 58.07V63.124H200.081V52.902H202.912V54.099C203.304 53.6684 203.792 53.339 204.375 53.111C204.957 52.8704 205.597 52.75 206.294 52.75ZM216.466 53.13H219.088V55.41H216.542V63.124H213.578V55.41H212.001V53.13H213.578V52.674C213.578 51.5087 213.92 50.584 214.604 49.9C215.301 49.216 216.276 48.874 217.53 48.874C217.974 48.874 218.392 48.9247 218.784 49.026C219.19 49.1147 219.525 49.2477 219.791 49.425L219.012 51.572C218.67 51.3314 218.271 51.211 217.815 51.211C216.916 51.211 216.466 51.705 216.466 52.693V53.13ZM225.299 63.276C224.223 63.276 223.254 63.0544 222.392 62.611C221.544 62.155 220.879 61.528 220.397 60.73C219.916 59.932 219.675 59.0264 219.675 58.013C219.675 56.9997 219.916 56.094 220.397 55.296C220.879 54.498 221.544 53.8774 222.392 53.434C223.254 52.978 224.223 52.75 225.299 52.75C226.376 52.75 227.339 52.978 228.187 53.434C229.036 53.8774 229.701 54.498 230.182 55.296C230.664 56.094 230.904 56.9997 230.904 58.013C230.904 59.0264 230.664 59.932 230.182 60.73C229.701 61.528 229.036 62.155 228.187 62.611C227.339 63.0544 226.376 63.276 225.299 63.276ZM225.299 60.844C226.059 60.844 226.68 60.5907 227.161 60.084C227.655 59.5647 227.902 58.8744 227.902 58.013C227.902 57.1517 227.655 56.4677 227.161 55.961C226.68 55.4417 226.059 55.182 225.299 55.182C224.539 55.182 223.912 55.4417 223.418 55.961C222.924 56.4677 222.677 57.1517 222.677 58.013C222.677 58.8744 222.924 59.5647 223.418 60.084C223.912 60.5907 224.539 60.844 225.299 60.844ZM235.716 54.251C236.071 53.757 236.546 53.3834 237.141 53.13C237.749 52.8767 238.446 52.75 239.231 52.75V55.486C238.902 55.4607 238.68 55.448 238.566 55.448C237.718 55.448 237.053 55.6887 236.571 56.17C236.09 56.6387 235.849 57.348 235.849 58.298V63.124H232.885V52.902H235.716V54.251ZM254.085 52.75C255.364 52.75 256.378 53.13 257.125 53.89C257.885 54.6374 258.265 55.7647 258.265 57.272V63.124H255.301V57.728C255.301 56.9174 255.13 56.3157 254.788 55.923C254.459 55.5177 253.984 55.315 253.363 55.315C252.666 55.315 252.115 55.543 251.71 55.999C251.305 56.4424 251.102 57.1074 251.102 57.994V63.124H248.138V57.728C248.138 56.1194 247.492 55.315 246.2 55.315C245.516 55.315 244.971 55.543 244.566 55.999C244.161 56.4424 243.958 57.1074 243.958 57.994V63.124H240.994V52.902H243.825V54.08C244.205 53.6494 244.667 53.32 245.212 53.092C245.769 52.864 246.377 52.75 247.036 52.75C247.758 52.75 248.41 52.8957 248.993 53.187C249.576 53.4657 250.044 53.8774 250.399 54.422C250.817 53.89 251.343 53.4784 251.976 53.187C252.622 52.8957 253.325 52.75 254.085 52.75ZM260.922 52.902H263.886V63.124H260.922V52.902ZM262.404 51.477C261.859 51.477 261.416 51.3187 261.074 51.002C260.732 50.6854 260.561 50.2927 260.561 49.824C260.561 49.3554 260.732 48.9627 261.074 48.646C261.416 48.3294 261.859 48.171 262.404 48.171C262.948 48.171 263.392 48.323 263.734 48.627C264.076 48.931 264.247 49.311 264.247 49.767C264.247 50.261 264.076 50.6727 263.734 51.002C263.392 51.3187 262.948 51.477 262.404 51.477ZM272.849 52.75C274.116 52.75 275.136 53.13 275.908 53.89C276.694 54.65 277.086 55.7774 277.086 57.272V63.124H274.122V57.728C274.122 56.9174 273.945 56.3157 273.59 55.923C273.236 55.5177 272.723 55.315 272.051 55.315C271.304 55.315 270.709 55.5494 270.265 56.018C269.822 56.474 269.6 57.158 269.6 58.07V63.124H266.636V52.902H269.467V54.099C269.86 53.6684 270.348 53.339 270.93 53.111C271.513 52.8704 272.153 52.75 272.849 52.75ZM290.429 52.902V61.414C290.429 63.2887 289.942 64.682 288.966 65.594C287.991 66.506 286.566 66.962 284.691 66.962C283.703 66.962 282.766 66.8417 281.879 66.601C280.993 66.3604 280.258 66.012 279.675 65.556L280.853 63.428C281.284 63.7827 281.829 64.0614 282.487 64.264C283.146 64.4794 283.805 64.587 284.463 64.587C285.489 64.587 286.243 64.3527 286.724 63.884C287.218 63.428 287.465 62.7314 287.465 61.794V61.357C286.693 62.2057 285.616 62.63 284.235 62.63C283.298 62.63 282.437 62.4274 281.651 62.022C280.879 61.604 280.264 61.0214 279.808 60.274C279.352 59.5267 279.124 58.6654 279.124 57.69C279.124 56.7147 279.352 55.8534 279.808 55.106C280.264 54.3587 280.879 53.7824 281.651 53.377C282.437 52.959 283.298 52.75 284.235 52.75C285.717 52.75 286.845 53.2377 287.617 54.213V52.902H290.429ZM284.824 60.198C285.61 60.198 286.249 59.97 286.743 59.514C287.25 59.0454 287.503 58.4374 287.503 57.69C287.503 56.9427 287.25 56.341 286.743 55.885C286.249 55.4164 285.61 55.182 284.824 55.182C284.039 55.182 283.393 55.4164 282.886 55.885C282.38 56.341 282.126 56.9427 282.126 57.69C282.126 58.4374 282.38 59.0454 282.886 59.514C283.393 59.97 284.039 60.198 284.824 60.198ZM305.162 62.63C304.871 62.8454 304.51 63.01 304.079 63.124C303.661 63.2254 303.218 63.276 302.749 63.276C301.533 63.276 300.589 62.9657 299.918 62.345C299.259 61.7244 298.93 60.8124 298.93 59.609V55.41H297.353V53.13H298.93V50.641H301.894V53.13H304.44V55.41H301.894V59.571C301.894 60.0017 302.002 60.3374 302.217 60.578C302.445 60.806 302.762 60.92 303.167 60.92C303.636 60.92 304.035 60.7934 304.364 60.54L305.162 62.63ZM313.039 52.75C314.306 52.75 315.325 53.13 316.098 53.89C316.883 54.65 317.276 55.7774 317.276 57.272V63.124H314.312V57.728C314.312 56.9174 314.135 56.3157 313.78 55.923C313.425 55.5177 312.912 55.315 312.241 55.315C311.494 55.315 310.898 55.5494 310.455 56.018C310.012 56.474 309.79 57.158 309.79 58.07V63.124H306.826V49.026H309.79V53.966C310.183 53.5734 310.658 53.2757 311.215 53.073C311.772 52.8577 312.38 52.75 313.039 52.75ZM330.087 58.051C330.087 58.089 330.068 58.355 330.03 58.849H322.297C322.436 59.4824 322.766 59.9827 323.285 60.35C323.804 60.7174 324.45 60.901 325.223 60.901C325.755 60.901 326.224 60.825 326.629 60.673C327.047 60.5084 327.433 60.255 327.788 59.913L329.365 61.623C328.402 62.725 326.996 63.276 325.147 63.276C323.994 63.276 322.975 63.0544 322.088 62.611C321.201 62.155 320.517 61.528 320.036 60.73C319.555 59.932 319.314 59.0264 319.314 58.013C319.314 57.0124 319.548 56.113 320.017 55.315C320.498 54.5044 321.151 53.8774 321.974 53.434C322.81 52.978 323.741 52.75 324.767 52.75C325.768 52.75 326.673 52.9654 327.484 53.396C328.295 53.8267 328.928 54.4474 329.384 55.258C329.853 56.056 330.087 56.987 330.087 58.051ZM324.786 54.992C324.115 54.992 323.551 55.182 323.095 55.562C322.639 55.942 322.36 56.4614 322.259 57.12H327.294C327.193 56.474 326.914 55.961 326.458 55.581C326.002 55.1884 325.445 54.992 324.786 54.992ZM342.381 63.276C341.292 63.276 340.31 63.0544 339.436 62.611C338.575 62.155 337.897 61.528 337.403 60.73C336.922 59.932 336.681 59.0264 336.681 58.013C336.681 56.9997 336.922 56.094 337.403 55.296C337.897 54.498 338.575 53.8774 339.436 53.434C340.31 52.978 341.292 52.75 342.381 52.75C343.458 52.75 344.395 52.978 345.193 53.434C346.004 53.8774 346.593 54.517 346.96 55.353L344.661 56.588C344.129 55.6507 343.363 55.182 342.362 55.182C341.589 55.182 340.95 55.4354 340.443 55.942C339.936 56.4487 339.683 57.139 339.683 58.013C339.683 58.887 339.936 59.5774 340.443 60.084C340.95 60.5907 341.589 60.844 342.362 60.844C343.375 60.844 344.142 60.3754 344.661 59.438L346.96 60.692C346.593 61.5027 346.004 62.136 345.193 62.592C344.395 63.048 343.458 63.276 342.381 63.276ZM348.592 49.026H351.556V63.124H348.592V49.026ZM354.307 52.902H357.271V63.124H354.307V52.902ZM355.789 51.477C355.245 51.477 354.801 51.3187 354.459 51.002C354.117 50.6854 353.946 50.2927 353.946 49.824C353.946 49.3554 354.117 48.9627 354.459 48.646C354.801 48.3294 355.245 48.171 355.789 48.171C356.334 48.171 356.777 48.323 357.119 48.627C357.461 48.931 357.632 49.311 357.632 49.767C357.632 50.261 357.461 50.6727 357.119 51.002C356.777 51.3187 356.334 51.477 355.789 51.477ZM370.035 58.051C370.035 58.089 370.016 58.355 369.978 58.849H362.245C362.385 59.4824 362.714 59.9827 363.233 60.35C363.753 60.7174 364.399 60.901 365.171 60.901C365.703 60.901 366.172 60.825 366.577 60.673C366.995 60.5084 367.382 60.255 367.736 59.913L369.313 61.623C368.351 62.725 366.945 63.276 365.095 63.276C363.943 63.276 362.923 63.0544 362.036 62.611C361.15 62.155 360.466 61.528 359.984 60.73C359.503 59.932 359.262 59.0264 359.262 58.013C359.262 57.0124 359.497 56.113 359.965 55.315C360.447 54.5044 361.099 53.8774 361.922 53.434C362.758 52.978 363.689 52.75 364.715 52.75C365.716 52.75 366.622 52.9654 367.432 53.396C368.243 53.8267 368.876 54.4474 369.332 55.258C369.801 56.056 370.035 56.987 370.035 58.051ZM364.734 54.992C364.063 54.992 363.499 55.182 363.043 55.562C362.587 55.942 362.309 56.4614 362.207 57.12H367.242C367.141 56.474 366.862 55.961 366.406 55.581C365.95 55.1884 365.393 54.992 364.734 54.992ZM378.222 52.75C379.488 52.75 380.508 53.13 381.281 53.89C382.066 54.65 382.459 55.7774 382.459 57.272V63.124H379.495V57.728C379.495 56.9174 379.317 56.3157 378.963 55.923C378.608 55.5177 378.095 55.315 377.424 55.315C376.676 55.315 376.081 55.5494 375.638 56.018C375.194 56.474 374.973 57.158 374.973 58.07V63.124H372.009V52.902H374.84V54.099C375.232 53.6684 375.72 53.339 376.303 53.111C376.885 52.8704 377.525 52.75 378.222 52.75ZM391.738 62.63C391.447 62.8454 391.086 63.01 390.655 63.124C390.237 63.2254 389.794 63.276 389.325 63.276C388.109 63.276 387.166 62.9657 386.494 62.345C385.836 61.7244 385.506 60.8124 385.506 59.609V55.41H383.929V53.13H385.506V50.641H388.47V53.13H391.016V55.41H388.47V59.571C388.47 60.0017 388.578 60.3374 388.793 60.578C389.021 60.806 389.338 60.92 389.743 60.92C390.212 60.92 390.611 60.7934 390.94 60.54L391.738 62.63Z" fill="white"/>
</svg>
