<svg width="542" height="114" viewBox="0 0 542 114" fill="none" xmlns="http://www.w3.org/2000/svg">
<rect x="27.3425" y="14.415" width="514.535" height="85.2381" fill="#3E4671"/>
<path d="M115.405 56.7209C115.405 86.8783 90.0837 111.442 58.7025 111.442C27.3213 111.442 2 86.8783 2 56.7209C2 26.5636 27.3213 2 58.7025 2C90.0837 2 115.405 26.5636 115.405 56.7209Z" fill="white" stroke="#3E4671" stroke-width="4"/>
<g clip-path="url(#clip0_207:9)">
<path d="M82.8121 66.9286C82.9165 66.7244 82.9705 66.4994 82.9698 66.2714C82.969 66.0434 82.9137 65.8187 82.8081 65.6151L80.8575 62.8535C80.8209 62.8021 80.8005 62.7427 80.8005 62.6755C80.8005 62.6082 80.8209 62.5489 80.8575 62.4974L82.8121 59.728C82.9165 59.5238 82.9705 59.2988 82.9698 59.0708C82.969 58.8428 82.9137 58.6181 82.8081 58.4145C82.727 58.2001 82.5991 58.0052 82.4333 57.8434C82.2674 57.6815 82.0674 57.5565 81.847 57.4768L78.4957 56.286C78.4338 56.2654 78.3786 56.2294 78.3357 56.1814C78.2928 56.1335 78.2637 56.0754 78.2514 56.013V52.6857C78.2384 52.4503 78.1696 52.221 78.0502 52.0157C77.9308 51.8105 77.7641 51.6349 77.5632 51.5027C77.2862 51.3187 76.9581 51.2208 76.6226 51.2218H75.9303L72.469 52.0922C72.3763 52.1285 72.2727 52.1285 72.1799 52.0922L69.9443 49.5206C69.7811 49.3482 69.5828 49.2105 69.362 49.1164C69.1412 49.0222 68.9027 48.9736 68.6616 48.9736C68.4205 48.9736 68.182 49.0222 67.9612 49.1164C67.7404 49.2105 67.5422 49.3482 67.3789 49.5206L65.1393 52.0922C65.0465 52.1285 64.9429 52.1285 64.8502 52.0922H64.8542L61.1894 51.1822H60.7496C60.4102 51.1813 60.0783 51.2791 59.7967 51.4631C59.5975 51.5958 59.4323 51.7711 59.3137 51.9754C59.1951 52.1798 59.1263 52.4079 59.1126 52.6421V55.9694C59.1009 56.032 59.0726 56.0904 59.0304 56.139C58.9883 56.1876 58.9338 56.2246 58.8723 56.2464L55.5292 57.4333C55.1468 57.494 54.7988 57.6842 54.5469 57.9702C54.295 58.2562 54.1554 58.6196 54.1528 58.9961C54.1528 59.2334 54.2098 59.459 54.3116 59.6568L56.2621 62.4183C56.2988 62.4698 56.3191 62.5291 56.3191 62.5964C56.3191 62.6636 56.2988 62.723 56.2621 62.7744L54.3075 65.5438C54.2032 65.7481 54.1492 65.9731 54.1499 66.2011C54.1506 66.4291 54.206 66.6538 54.3116 66.8574C54.3927 67.0718 54.5205 67.2666 54.6864 67.4285C54.8523 67.5903 55.0523 67.7154 55.2726 67.795L58.6239 68.9859C58.6858 69.0064 58.741 69.0425 58.784 69.0904C58.8269 69.1383 58.856 69.1965 58.8683 69.2589V72.5862C58.8812 72.8216 58.9501 73.0509 59.0695 73.2561C59.1889 73.4613 59.3555 73.6369 59.5565 73.7691C59.838 73.9532 60.1699 74.051 60.5093 74.05H61.1934L62.4558 73.7731V88.3721L68.6861 80.4593L74.672 88.3721V73.7731L75.9344 74.0896H76.4149C76.7543 74.0906 77.0862 73.9927 77.3677 73.8087C77.5669 73.676 77.7322 73.5008 77.8508 73.2964C77.9694 73.092 78.0381 72.8639 78.0519 72.6297V69.3024C78.0635 69.2399 78.0919 69.1814 78.134 69.1328C78.1762 69.0842 78.2307 69.0472 78.2921 69.0254L81.6353 67.8385C81.8904 67.7896 82.1301 67.6827 82.3346 67.5266C82.5391 67.3706 82.7027 67.1697 82.8121 66.9404V66.9286Z" fill="#3E4671"/>
<path d="M25.8033 29.0254V76.5018H58.38L57.9321 76.3039C57.3521 75.918 56.8708 75.4083 56.5249 74.8137C56.1791 74.2192 55.9779 73.5556 55.9368 72.8738V72.5454H29.8754V32.9818H86.8846V72.5454H81.0615V72.8619C81.022 73.5428 80.8232 74.206 80.4803 74.8011C80.1374 75.3961 79.6593 75.9074 79.0825 76.296L78.7404 76.5018H90.9567V29.0254H25.8033Z" fill="#3E4671"/>
<path d="M56.0589 52.4082C56.0722 51.6999 56.2586 51.0048 56.6027 50.3802C56.9467 49.7557 57.4387 49.2195 58.0379 48.8158C58.1511 48.787 58.2696 48.7843 58.384 48.8079H38.0195V52.7643H56.0589V52.4082Z" fill="#3E4671"/>
<path d="M51.9461 56.7197H38.0195V60.6761H51.7017C51.4214 60.1717 51.2589 59.6134 51.2258 59.0411C51.1927 58.4687 51.2899 57.8963 51.5103 57.3646C51.5752 57.1075 51.7291 56.8798 51.9461 56.7197Z" fill="#3E4671"/>
<path d="M38.0195 40.8945H78.7404V44.8509H38.0195V40.8945Z" fill="#3E4671"/>
</g>
<path d="M138.101 53.3375V58.8775H135.101V55.9775H125.221V58.8775H122.221L122.241 53.3375H122.801C123.641 53.3109 124.234 52.6975 124.581 51.4975C124.927 50.2975 125.141 48.5842 125.221 46.3575L125.381 41.9775H136.141V53.3375H138.101ZM128.081 46.6575C128.014 48.3242 127.874 49.7242 127.661 50.8575C127.447 51.9775 127.121 52.8042 126.681 53.3375H132.941V44.6175H128.141L128.081 46.6575ZM140.042 45.2175H143.142V51.6175L148.382 45.2175H151.242V55.9775H148.142V49.5775L142.922 55.9775H140.042V45.2175ZM164.941 45.2175V55.9775H161.821V47.7775H157.341V55.9775H154.241V45.2175H164.941ZM178.252 45.2175V55.9775H175.132V47.7775H171.732L171.632 49.6775C171.579 51.0909 171.446 52.2642 171.232 53.1975C171.019 54.1309 170.672 54.8642 170.192 55.3975C169.712 55.9309 169.046 56.1975 168.192 56.1975C167.739 56.1975 167.199 56.1175 166.572 55.9575L166.732 53.3975C166.946 53.4242 167.099 53.4375 167.192 53.4375C167.659 53.4375 168.006 53.2709 168.232 52.9375C168.472 52.5909 168.632 52.1575 168.712 51.6375C168.792 51.1042 168.852 50.4042 168.892 49.5375L169.052 45.2175H178.252ZM186.293 56.1375C185.159 56.1375 184.139 55.9042 183.233 55.4375C182.339 54.9575 181.639 54.2975 181.133 53.4575C180.626 52.6175 180.373 51.6642 180.373 50.5975C180.373 49.5309 180.626 48.5775 181.133 47.7375C181.639 46.8975 182.339 46.2442 183.233 45.7775C184.139 45.2975 185.159 45.0575 186.293 45.0575C187.426 45.0575 188.439 45.2975 189.333 45.7775C190.226 46.2442 190.926 46.8975 191.433 47.7375C191.939 48.5775 192.193 49.5309 192.193 50.5975C192.193 51.6642 191.939 52.6175 191.433 53.4575C190.926 54.2975 190.226 54.9575 189.333 55.4375C188.439 55.9042 187.426 56.1375 186.293 56.1375ZM186.293 53.5775C187.093 53.5775 187.746 53.3109 188.253 52.7775C188.773 52.2309 189.033 51.5042 189.033 50.5975C189.033 49.6909 188.773 48.9709 188.253 48.4375C187.746 47.8909 187.093 47.6175 186.293 47.6175C185.493 47.6175 184.833 47.8909 184.313 48.4375C183.793 48.9709 183.533 49.6909 183.533 50.5975C183.533 51.5042 183.793 52.2309 184.313 52.7775C184.833 53.3109 185.493 53.5775 186.293 53.5775ZM204.839 55.9775V49.5375L201.619 54.9375H200.299L197.159 49.5175V55.9775H194.339V45.2175H197.599L201.039 51.4375L204.699 45.2175H207.619L207.659 55.9775H204.839ZM210.647 45.2175H213.747V51.6175L218.987 45.2175H221.847V55.9775H218.747V49.5775L213.527 55.9775H210.647V45.2175ZM231.186 45.0575C232.186 45.0575 233.093 45.2909 233.906 45.7575C234.733 46.2109 235.38 46.8575 235.846 47.6975C236.313 48.5242 236.546 49.4909 236.546 50.5975C236.546 51.7042 236.313 52.6775 235.846 53.5175C235.38 54.3442 234.733 54.9909 233.906 55.4575C233.093 55.9109 232.186 56.1375 231.186 56.1375C229.813 56.1375 228.733 55.7042 227.946 54.8375V59.8575H224.826V45.2175H227.806V46.4575C228.58 45.5242 229.706 45.0575 231.186 45.0575ZM230.646 53.5775C231.446 53.5775 232.1 53.3109 232.606 52.7775C233.126 52.2309 233.386 51.5042 233.386 50.5975C233.386 49.6909 233.126 48.9709 232.606 48.4375C232.1 47.8909 231.446 47.6175 230.646 47.6175C229.846 47.6175 229.186 47.8909 228.666 48.4375C228.16 48.9709 227.906 49.6909 227.906 50.5975C227.906 51.5042 228.16 52.2309 228.666 52.7775C229.186 53.3109 229.846 53.5775 230.646 53.5775ZM243.773 56.1375C242.64 56.1375 241.62 55.9042 240.713 55.4375C239.82 54.9575 239.12 54.2975 238.613 53.4575C238.106 52.6175 237.853 51.6642 237.853 50.5975C237.853 49.5309 238.106 48.5775 238.613 47.7375C239.12 46.8975 239.82 46.2442 240.713 45.7775C241.62 45.2975 242.64 45.0575 243.773 45.0575C244.906 45.0575 245.92 45.2975 246.813 45.7775C247.706 46.2442 248.406 46.8975 248.913 47.7375C249.42 48.5775 249.673 49.5309 249.673 50.5975C249.673 51.6642 249.42 52.6175 248.913 53.4575C248.406 54.2975 247.706 54.9575 246.813 55.4375C245.92 55.9042 244.906 56.1375 243.773 56.1375ZM243.773 53.5775C244.573 53.5775 245.226 53.3109 245.733 52.7775C246.253 52.2309 246.513 51.5042 246.513 50.5975C246.513 49.6909 246.253 48.9709 245.733 48.4375C245.226 47.8909 244.573 47.6175 243.773 47.6175C242.973 47.6175 242.313 47.8909 241.793 48.4375C241.273 48.9709 241.013 49.6909 241.013 50.5975C241.013 51.5042 241.273 52.2309 241.793 52.7775C242.313 53.3109 242.973 53.5775 243.773 53.5775ZM260.039 50.3575C261.306 50.7842 261.939 51.6375 261.939 52.9175C261.939 53.8909 261.572 54.6442 260.839 55.1775C260.106 55.7109 259.012 55.9775 257.559 55.9775H251.819V45.2175H257.319C258.666 45.2175 259.719 45.4642 260.479 45.9575C261.239 46.4375 261.619 47.1175 261.619 47.9975C261.619 48.5309 261.479 49.0042 261.199 49.4175C260.932 49.8175 260.546 50.1309 260.039 50.3575ZM254.679 49.6375H257.039C258.132 49.6375 258.679 49.2509 258.679 48.4775C258.679 47.7175 258.132 47.3375 257.039 47.3375H254.679V49.6375ZM257.299 53.8575C258.446 53.8575 259.019 53.4642 259.019 52.6775C259.019 52.2642 258.886 51.9642 258.619 51.7775C258.352 51.5775 257.932 51.4775 257.359 51.4775H254.679V53.8575H257.299ZM268.44 45.0575C270.107 45.0575 271.387 45.4575 272.28 46.2575C273.174 47.0442 273.62 48.2375 273.62 49.8375V55.9775H270.7V54.6375C270.114 55.6375 269.02 56.1375 267.42 56.1375C266.594 56.1375 265.874 55.9975 265.26 55.7175C264.66 55.4375 264.2 55.0509 263.88 54.5575C263.56 54.0642 263.4 53.5042 263.4 52.8775C263.4 51.8775 263.774 51.0909 264.52 50.5175C265.28 49.9442 266.447 49.6575 268.02 49.6575H270.5C270.5 48.9775 270.294 48.4575 269.88 48.0975C269.467 47.7242 268.847 47.5375 268.02 47.5375C267.447 47.5375 266.88 47.6309 266.32 47.8175C265.774 47.9909 265.307 48.2309 264.92 48.5375L263.8 46.3575C264.387 45.9442 265.087 45.6242 265.9 45.3975C266.727 45.1709 267.574 45.0575 268.44 45.0575ZM268.2 54.0375C268.734 54.0375 269.207 53.9175 269.62 53.6775C270.034 53.4242 270.327 53.0575 270.5 52.5775V51.4775H268.36C267.08 51.4775 266.44 51.8975 266.44 52.7375C266.44 53.1375 266.594 53.4575 266.9 53.6975C267.22 53.9242 267.654 54.0375 268.2 54.0375ZM276.331 45.2175H279.431V49.4175H284.111V45.2175H287.231V55.9775H284.111V51.9575H279.431V55.9775H276.331V45.2175ZM290.217 45.2175H293.317V49.4175H297.997V45.2175H301.117V55.9775H297.997V51.9575H293.317V55.9775H290.217V45.2175ZM309.764 48.6575C311.164 48.6709 312.224 48.9842 312.944 49.5975C313.664 50.2109 314.024 51.0909 314.024 52.2375C314.024 53.4375 313.617 54.3642 312.804 55.0175C311.991 55.6709 310.837 55.9975 309.344 55.9975L304.104 55.9775V45.2175H307.204V48.6575H309.764ZM315.184 45.2175H318.284V55.9775H315.184V45.2175ZM309.064 53.7775C309.664 53.7909 310.124 53.6642 310.444 53.3975C310.764 53.1309 310.924 52.7309 310.924 52.1975C310.924 51.6775 310.764 51.2975 310.444 51.0575C310.137 50.8175 309.677 50.6909 309.064 50.6775L307.204 50.6575V53.7775H309.064ZM331.752 50.6375C331.752 50.6775 331.732 50.9575 331.692 51.4775H323.552C323.698 52.1442 324.045 52.6709 324.592 53.0575C325.138 53.4442 325.818 53.6375 326.632 53.6375C327.192 53.6375 327.685 53.5575 328.112 53.3975C328.552 53.2242 328.958 52.9575 329.332 52.5975L330.992 54.3975C329.978 55.5575 328.498 56.1375 326.552 56.1375C325.338 56.1375 324.265 55.9042 323.332 55.4375C322.398 54.9575 321.678 54.2975 321.172 53.4575C320.665 52.6175 320.412 51.6642 320.412 50.5975C320.412 49.5442 320.658 48.5975 321.152 47.7575C321.658 46.9042 322.345 46.2442 323.212 45.7775C324.092 45.2975 325.072 45.0575 326.152 45.0575C327.205 45.0575 328.158 45.2842 329.012 45.7375C329.865 46.1909 330.532 46.8442 331.012 47.6975C331.505 48.5375 331.752 49.5175 331.752 50.6375ZM326.172 47.4175C325.465 47.4175 324.872 47.6175 324.392 48.0175C323.912 48.4175 323.618 48.9642 323.512 49.6575H328.812C328.705 48.9775 328.412 48.4375 327.932 48.0375C327.452 47.6242 326.865 47.4175 326.172 47.4175ZM343.447 45.0175C344.607 45.0175 345.641 45.2575 346.547 45.7375C347.467 46.2042 348.187 46.8642 348.707 47.7175C349.227 48.5709 349.487 49.5309 349.487 50.5975C349.487 51.6642 349.227 52.6242 348.707 53.4775C348.187 54.3309 347.467 54.9975 346.547 55.4775C345.641 55.9442 344.607 56.1775 343.447 56.1775C342.421 56.1775 341.487 56.0109 340.647 55.6775C339.821 55.3309 339.134 54.8375 338.587 54.1975L340.367 52.5175C341.181 53.3575 342.167 53.7775 343.327 53.7775C344.101 53.7775 344.767 53.5842 345.327 53.1975C345.887 52.8109 346.267 52.2842 346.467 51.6175H341.947V49.4775H346.427C346.214 48.8375 345.834 48.3309 345.287 47.9575C344.741 47.5842 344.087 47.3975 343.327 47.3975C342.181 47.3975 341.194 47.8242 340.367 48.6775L338.587 47.0175C339.134 46.3642 339.821 45.8709 340.647 45.5375C341.487 45.1909 342.421 45.0175 343.447 45.0175ZM356.344 51.8975H354.724V55.9775H351.604V45.2175H354.724V49.3975H356.404L359.324 45.2175H362.644L358.884 50.3775L362.904 55.9775H359.224L356.344 51.8975ZM369.224 56.1375C368.077 56.1375 367.044 55.9042 366.124 55.4375C365.217 54.9575 364.504 54.2975 363.984 53.4575C363.477 52.6175 363.224 51.6642 363.224 50.5975C363.224 49.5309 363.477 48.5775 363.984 47.7375C364.504 46.8975 365.217 46.2442 366.124 45.7775C367.044 45.2975 368.077 45.0575 369.224 45.0575C370.357 45.0575 371.344 45.2975 372.184 45.7775C373.037 46.2442 373.657 46.9175 374.044 47.7975L371.624 49.0975C371.064 48.1109 370.257 47.6175 369.204 47.6175C368.391 47.6175 367.717 47.8842 367.184 48.4175C366.651 48.9509 366.384 49.6775 366.384 50.5975C366.384 51.5175 366.651 52.2442 367.184 52.7775C367.717 53.3109 368.391 53.5775 369.204 53.5775C370.271 53.5775 371.077 53.0842 371.624 52.0975L374.044 53.4175C373.657 54.2709 373.037 54.9375 372.184 55.4175C371.344 55.8975 370.357 56.1375 369.224 56.1375ZM386.64 45.2175V55.9775H383.52V47.7775H379.04V55.9775H375.94V45.2175H386.64ZM400.091 50.6375C400.091 50.6775 400.071 50.9575 400.031 51.4775H391.891C392.038 52.1442 392.385 52.6709 392.931 53.0575C393.478 53.4442 394.158 53.6375 394.971 53.6375C395.531 53.6375 396.025 53.5575 396.451 53.3975C396.891 53.2242 397.298 52.9575 397.671 52.5975L399.331 54.3975C398.318 55.5575 396.838 56.1375 394.891 56.1375C393.678 56.1375 392.605 55.9042 391.671 55.4375C390.738 54.9575 390.018 54.2975 389.511 53.4575C389.005 52.6175 388.751 51.6642 388.751 50.5975C388.751 49.5442 388.998 48.5975 389.491 47.7575C389.998 46.9042 390.685 46.2442 391.551 45.7775C392.431 45.2975 393.411 45.0575 394.491 45.0575C395.545 45.0575 396.498 45.2842 397.351 45.7375C398.205 46.1909 398.871 46.8442 399.351 47.6975C399.845 48.5375 400.091 49.5175 400.091 50.6375ZM394.511 47.4175C393.805 47.4175 393.211 47.6175 392.731 48.0175C392.251 48.4175 391.958 48.9642 391.851 49.6575H397.151C397.045 48.9775 396.751 48.4375 396.271 48.0375C395.791 47.6242 395.205 47.4175 394.511 47.4175ZM408.823 45.0575C409.823 45.0575 410.73 45.2909 411.543 45.7575C412.37 46.2109 413.016 46.8575 413.483 47.6975C413.95 48.5242 414.183 49.4909 414.183 50.5975C414.183 51.7042 413.95 52.6775 413.483 53.5175C413.016 54.3442 412.37 54.9909 411.543 55.4575C410.73 55.9109 409.823 56.1375 408.823 56.1375C407.45 56.1375 406.37 55.7042 405.583 54.8375V59.8575H402.463V45.2175H405.443V46.4575C406.216 45.5242 407.343 45.0575 408.823 45.0575ZM408.283 53.5775C409.083 53.5775 409.736 53.3109 410.243 52.7775C410.763 52.2309 411.023 51.5042 411.023 50.5975C411.023 49.6909 410.763 48.9709 410.243 48.4375C409.736 47.8909 409.083 47.6175 408.283 47.6175C407.483 47.6175 406.823 47.8909 406.303 48.4375C405.796 48.9709 405.543 49.6909 405.543 50.5975C405.543 51.5042 405.796 52.2309 406.303 52.7775C406.823 53.3109 407.483 53.5775 408.283 53.5775ZM425.019 47.7775H421.379V55.9775H418.279V47.7775H414.639V45.2175H425.019V47.7775ZM432.342 48.6575C433.742 48.6709 434.802 48.9842 435.522 49.5975C436.242 50.2109 436.602 51.0909 436.602 52.2375C436.602 53.4375 436.196 54.3642 435.382 55.0175C434.569 55.6709 433.416 55.9975 431.922 55.9975L426.682 55.9775V45.2175H429.782V48.6575H432.342ZM437.762 45.2175H440.862V55.9775H437.762V45.2175ZM431.642 53.7775C432.242 53.7909 432.702 53.6642 433.022 53.3975C433.342 53.1309 433.502 52.7309 433.502 52.1975C433.502 51.6775 433.342 51.2975 433.022 51.0575C432.716 50.8175 432.256 50.6909 431.642 50.6775L429.782 50.6575V53.7775H431.642ZM449.534 45.2175H452.634V51.6175L457.874 45.2175H460.734V55.9775H457.634V49.5775L452.414 55.9775H449.534V45.2175ZM128.541 80.1375C127.394 80.1375 126.361 79.9042 125.441 79.4375C124.534 78.9575 123.821 78.2975 123.301 77.4575C122.794 76.6175 122.541 75.6642 122.541 74.5975C122.541 73.5309 122.794 72.5775 123.301 71.7375C123.821 70.8975 124.534 70.2442 125.441 69.7775C126.361 69.2975 127.394 69.0575 128.541 69.0575C129.674 69.0575 130.661 69.2975 131.501 69.7775C132.354 70.2442 132.974 70.9175 133.361 71.7975L130.941 73.0975C130.381 72.1109 129.574 71.6175 128.521 71.6175C127.707 71.6175 127.034 71.8842 126.501 72.4175C125.967 72.9509 125.701 73.6775 125.701 74.5975C125.701 75.5175 125.967 76.2442 126.501 76.7775C127.034 77.3109 127.707 77.5775 128.521 77.5775C129.587 77.5775 130.394 77.0842 130.941 76.0975L133.361 77.4175C132.974 78.2709 132.354 78.9375 131.501 79.4175C130.661 79.8975 129.674 80.1375 128.541 80.1375ZM140.16 80.1375C139.026 80.1375 138.006 79.9042 137.1 79.4375C136.206 78.9575 135.506 78.2975 135 77.4575C134.493 76.6175 134.24 75.6642 134.24 74.5975C134.24 73.5309 134.493 72.5775 135 71.7375C135.506 70.8975 136.206 70.2442 137.1 69.7775C138.006 69.2975 139.026 69.0575 140.16 69.0575C141.293 69.0575 142.306 69.2975 143.2 69.7775C144.093 70.2442 144.793 70.8975 145.3 71.7375C145.806 72.5775 146.06 73.5309 146.06 74.5975C146.06 75.6642 145.806 76.6175 145.3 77.4575C144.793 78.2975 144.093 78.9575 143.2 79.4375C142.306 79.9042 141.293 80.1375 140.16 80.1375ZM140.16 77.5775C140.96 77.5775 141.613 77.3109 142.12 76.7775C142.64 76.2309 142.9 75.5042 142.9 74.5975C142.9 73.6909 142.64 72.9709 142.12 72.4375C141.613 71.8909 140.96 71.6175 140.16 71.6175C139.36 71.6175 138.7 71.8909 138.18 72.4375C137.66 72.9709 137.4 73.6909 137.4 74.5975C137.4 75.5042 137.66 76.2309 138.18 76.7775C138.7 77.3109 139.36 77.5775 140.16 77.5775ZM154.426 69.9575C155.452 69.9575 156.352 70.1709 157.126 70.5975C157.899 71.0109 158.492 71.5975 158.906 72.3575C159.332 73.1175 159.546 73.9975 159.546 74.9975C159.546 76.0242 159.292 76.9375 158.786 77.7375C158.292 78.5242 157.599 79.1375 156.706 79.5775C155.812 80.0042 154.799 80.2175 153.666 80.2175C151.786 80.2175 150.306 79.6175 149.226 78.4175C148.159 77.2042 147.626 75.4309 147.626 73.0975C147.626 70.9375 148.092 69.2175 149.026 67.9375C149.972 66.6442 151.419 65.7975 153.366 65.3975L158.486 64.3775L158.906 67.0575L154.386 67.9575C153.159 68.1975 152.246 68.5975 151.646 69.1575C151.059 69.7175 150.712 70.5109 150.606 71.5375C151.072 71.0309 151.632 70.6442 152.286 70.3775C152.939 70.0975 153.652 69.9575 154.426 69.9575ZM153.686 77.7975C154.486 77.7975 155.126 77.5375 155.606 77.0175C156.099 76.4975 156.346 75.8375 156.346 75.0375C156.346 74.2242 156.099 73.5775 155.606 73.0975C155.126 72.6175 154.486 72.3775 153.686 72.3775C152.872 72.3775 152.219 72.6175 151.726 73.0975C151.232 73.5775 150.986 74.2242 150.986 75.0375C150.986 75.8509 151.239 76.5175 151.746 77.0375C152.252 77.5442 152.899 77.7975 153.686 77.7975ZM166.783 80.1375C165.636 80.1375 164.603 79.9042 163.683 79.4375C162.776 78.9575 162.063 78.2975 161.543 77.4575C161.036 76.6175 160.783 75.6642 160.783 74.5975C160.783 73.5309 161.036 72.5775 161.543 71.7375C162.063 70.8975 162.776 70.2442 163.683 69.7775C164.603 69.2975 165.636 69.0575 166.783 69.0575C167.916 69.0575 168.903 69.2975 169.743 69.7775C170.596 70.2442 171.216 70.9175 171.603 71.7975L169.183 73.0975C168.623 72.1109 167.816 71.6175 166.763 71.6175C165.949 71.6175 165.276 71.8842 164.743 72.4175C164.209 72.9509 163.943 73.6775 163.943 74.5975C163.943 75.5175 164.209 76.2442 164.743 76.7775C165.276 77.3109 165.949 77.5775 166.763 77.5775C167.829 77.5775 168.636 77.0842 169.183 76.0975L171.603 77.4175C171.216 78.2709 170.596 78.9375 169.743 79.4175C168.903 79.8975 167.916 80.1375 166.783 80.1375ZM182.5 71.7775H178.86V79.9775H175.76V71.7775H172.12V69.2175H182.5V71.7775ZM192.383 74.3575C193.649 74.7842 194.283 75.6375 194.283 76.9175C194.283 77.8909 193.916 78.6442 193.183 79.1775C192.449 79.7109 191.356 79.9775 189.903 79.9775H184.163V69.2175H189.663C191.009 69.2175 192.063 69.4642 192.823 69.9575C193.583 70.4375 193.963 71.1175 193.963 71.9975C193.963 72.5309 193.823 73.0042 193.543 73.4175C193.276 73.8175 192.889 74.1309 192.383 74.3575ZM187.023 73.6375H189.383C190.476 73.6375 191.023 73.2509 191.023 72.4775C191.023 71.7175 190.476 71.3375 189.383 71.3375H187.023V73.6375ZM189.643 77.8575C190.789 77.8575 191.363 77.4642 191.363 76.6775C191.363 76.2642 191.229 75.9642 190.963 75.7775C190.696 75.5775 190.276 75.4775 189.703 75.4775H187.023V77.8575H189.643ZM207.064 74.6375C207.064 74.6775 207.044 74.9575 207.004 75.4775H198.864C199.011 76.1442 199.357 76.6709 199.904 77.0575C200.451 77.4442 201.131 77.6375 201.944 77.6375C202.504 77.6375 202.997 77.5575 203.424 77.3975C203.864 77.2242 204.271 76.9575 204.644 76.5975L206.304 78.3975C205.291 79.5575 203.811 80.1375 201.864 80.1375C200.651 80.1375 199.577 79.9042 198.644 79.4375C197.711 78.9575 196.991 78.2975 196.484 77.4575C195.977 76.6175 195.724 75.6642 195.724 74.5975C195.724 73.5442 195.971 72.5975 196.464 71.7575C196.971 70.9042 197.657 70.2442 198.524 69.7775C199.404 69.2975 200.384 69.0575 201.464 69.0575C202.517 69.0575 203.471 69.2842 204.324 69.7375C205.177 70.1909 205.844 70.8442 206.324 71.6975C206.817 72.5375 207.064 73.5175 207.064 74.6375ZM201.484 71.4175C200.777 71.4175 200.184 71.6175 199.704 72.0175C199.224 72.4175 198.931 72.9642 198.824 73.6575H204.124C204.017 72.9775 203.724 72.4375 203.244 72.0375C202.764 71.6242 202.177 71.4175 201.484 71.4175ZM209.456 69.2175H212.556V73.4175H217.236V69.2175H220.356V79.9775H217.236V75.9575H212.556V79.9775H209.456V69.2175ZM223.342 69.2175H226.442V73.4175H231.122V69.2175H234.242V79.9775H231.122V75.9575H226.442V79.9775H223.342V69.2175ZM241.409 69.0575C243.076 69.0575 244.356 69.4575 245.249 70.2575C246.142 71.0442 246.589 72.2375 246.589 73.8375V79.9775H243.669V78.6375C243.082 79.6375 241.989 80.1375 240.389 80.1375C239.562 80.1375 238.842 79.9975 238.229 79.7175C237.629 79.4375 237.169 79.0509 236.849 78.5575C236.529 78.0642 236.369 77.5042 236.369 76.8775C236.369 75.8775 236.742 75.0909 237.489 74.5175C238.249 73.9442 239.416 73.6575 240.989 73.6575H243.469C243.469 72.9775 243.262 72.4575 242.849 72.0975C242.436 71.7242 241.816 71.5375 240.989 71.5375C240.416 71.5375 239.849 71.6309 239.289 71.8175C238.742 71.9909 238.276 72.2309 237.889 72.5375L236.769 70.3575C237.356 69.9442 238.056 69.6242 238.869 69.3975C239.696 69.1709 240.542 69.0575 241.409 69.0575ZM241.169 78.0375C241.702 78.0375 242.176 77.9175 242.589 77.6775C243.002 77.4242 243.296 77.0575 243.469 76.5775V75.4775H241.329C240.049 75.4775 239.409 75.8975 239.409 76.7375C239.409 77.1375 239.562 77.4575 239.869 77.6975C240.189 77.9242 240.622 78.0375 241.169 78.0375ZM258.859 69.2175V79.9775H256.079V76.8975H253.779L251.739 79.9775H248.419L250.879 76.4575C250.133 76.1642 249.559 75.7442 249.159 75.1975C248.773 74.6375 248.579 73.9642 248.579 73.1775C248.579 71.9109 249.033 70.9375 249.939 70.2575C250.859 69.5642 252.119 69.2175 253.719 69.2175H258.859ZM253.779 71.7575C253.113 71.7575 252.606 71.8775 252.259 72.1175C251.926 72.3575 251.759 72.7442 251.759 73.2775C251.759 73.8109 251.919 74.2042 252.239 74.4575C252.573 74.6975 253.073 74.8175 253.739 74.8175H256.079V71.7575H253.779ZM277.842 69.2175V79.9775H274.722V71.7775H271.322L271.222 73.6775C271.169 75.0909 271.035 76.2642 270.822 77.1975C270.609 78.1309 270.262 78.8642 269.782 79.3975C269.302 79.9309 268.635 80.1975 267.782 80.1975C267.329 80.1975 266.789 80.1175 266.162 79.9575L266.322 77.3975C266.535 77.4242 266.689 77.4375 266.782 77.4375C267.249 77.4375 267.595 77.2709 267.822 76.9375C268.062 76.5909 268.222 76.1575 268.302 75.6375C268.382 75.1042 268.442 74.4042 268.482 73.5375L268.642 69.2175H277.842ZM285.022 69.0575C286.689 69.0575 287.969 69.4575 288.862 70.2575C289.756 71.0442 290.202 72.2375 290.202 73.8375V79.9775H287.282V78.6375C286.696 79.6375 285.602 80.1375 284.002 80.1375C283.176 80.1375 282.456 79.9975 281.842 79.7175C281.242 79.4375 280.782 79.0509 280.462 78.5575C280.142 78.0642 279.982 77.5042 279.982 76.8775C279.982 75.8775 280.356 75.0909 281.102 74.5175C281.862 73.9442 283.029 73.6575 284.602 73.6575H287.082C287.082 72.9775 286.876 72.4575 286.462 72.0975C286.049 71.7242 285.429 71.5375 284.602 71.5375C284.029 71.5375 283.462 71.6309 282.902 71.8175C282.356 71.9909 281.889 72.2309 281.502 72.5375L280.382 70.3575C280.969 69.9442 281.669 69.6242 282.482 69.3975C283.309 69.1709 284.156 69.0575 285.022 69.0575ZM284.782 78.0375C285.316 78.0375 285.789 77.9175 286.202 77.6775C286.616 77.4242 286.909 77.0575 287.082 76.5775V75.4775H284.942C283.662 75.4775 283.022 75.8975 283.022 76.7375C283.022 77.1375 283.176 77.4575 283.482 77.6975C283.802 77.9242 284.236 78.0375 284.782 78.0375ZM299.133 69.9575C300.159 69.9575 301.059 70.1709 301.833 70.5975C302.606 71.0109 303.199 71.5975 303.613 72.3575C304.039 73.1175 304.253 73.9975 304.253 74.9975C304.253 76.0242 303.999 76.9375 303.493 77.7375C302.999 78.5242 302.306 79.1375 301.413 79.5775C300.519 80.0042 299.506 80.2175 298.373 80.2175C296.493 80.2175 295.013 79.6175 293.933 78.4175C292.866 77.2042 292.333 75.4309 292.333 73.0975C292.333 70.9375 292.799 69.2175 293.733 67.9375C294.679 66.6442 296.126 65.7975 298.073 65.3975L303.193 64.3775L303.613 67.0575L299.093 67.9575C297.866 68.1975 296.953 68.5975 296.353 69.1575C295.766 69.7175 295.419 70.5109 295.313 71.5375C295.779 71.0309 296.339 70.6442 296.993 70.3775C297.646 70.0975 298.359 69.9575 299.133 69.9575ZM298.393 77.7975C299.193 77.7975 299.833 77.5375 300.313 77.0175C300.806 76.4975 301.053 75.8375 301.053 75.0375C301.053 74.2242 300.806 73.5775 300.313 73.0975C299.833 72.6175 299.193 72.3775 298.393 72.3775C297.579 72.3775 296.926 72.6175 296.433 73.0975C295.939 73.5775 295.693 74.2242 295.693 75.0375C295.693 75.8509 295.946 76.5175 296.453 77.0375C296.959 77.5442 297.606 77.7975 298.393 77.7975ZM311.41 80.1375C310.276 80.1375 309.256 79.9042 308.35 79.4375C307.456 78.9575 306.756 78.2975 306.25 77.4575C305.743 76.6175 305.49 75.6642 305.49 74.5975C305.49 73.5309 305.743 72.5775 306.25 71.7375C306.756 70.8975 307.456 70.2442 308.35 69.7775C309.256 69.2975 310.276 69.0575 311.41 69.0575C312.543 69.0575 313.556 69.2975 314.45 69.7775C315.343 70.2442 316.043 70.8975 316.55 71.7375C317.056 72.5775 317.31 73.5309 317.31 74.5975C317.31 75.6642 317.056 76.6175 316.55 77.4575C316.043 78.2975 315.343 78.9575 314.45 79.4375C313.556 79.9042 312.543 80.1375 311.41 80.1375ZM311.41 77.5775C312.21 77.5775 312.863 77.3109 313.37 76.7775C313.89 76.2309 314.15 75.5042 314.15 74.5975C314.15 73.6909 313.89 72.9709 313.37 72.4375C312.863 71.8909 312.21 71.6175 311.41 71.6175C310.61 71.6175 309.95 71.8909 309.43 72.4375C308.91 72.9709 308.65 73.6909 308.65 74.5975C308.65 75.5042 308.91 76.2309 309.43 76.7775C309.95 77.3109 310.61 77.5775 311.41 77.5775ZM325.796 69.0575C326.796 69.0575 327.702 69.2909 328.516 69.7575C329.342 70.2109 329.989 70.8575 330.456 71.6975C330.922 72.5242 331.156 73.4909 331.156 74.5975C331.156 75.7042 330.922 76.6775 330.456 77.5175C329.989 78.3442 329.342 78.9909 328.516 79.4575C327.702 79.9109 326.796 80.1375 325.796 80.1375C324.422 80.1375 323.342 79.7042 322.556 78.8375V83.8575H319.436V69.2175H322.416V70.4575C323.189 69.5242 324.316 69.0575 325.796 69.0575ZM325.256 77.5775C326.056 77.5775 326.709 77.3109 327.216 76.7775C327.736 76.2309 327.996 75.5042 327.996 74.5975C327.996 73.6909 327.736 72.9709 327.216 72.4375C326.709 71.8909 326.056 71.6175 325.256 71.6175C324.456 71.6175 323.796 71.8909 323.276 72.4375C322.769 72.9709 322.516 73.6909 322.516 74.5975C322.516 75.5042 322.769 76.2309 323.276 76.7775C323.796 77.3109 324.456 77.5775 325.256 77.5775ZM337.347 69.0575C339.013 69.0575 340.293 69.4575 341.187 70.2575C342.08 71.0442 342.527 72.2375 342.527 73.8375V79.9775H339.607V78.6375C339.02 79.6375 337.927 80.1375 336.327 80.1375C335.5 80.1375 334.78 79.9975 334.167 79.7175C333.567 79.4375 333.107 79.0509 332.787 78.5575C332.467 78.0642 332.307 77.5042 332.307 76.8775C332.307 75.8775 332.68 75.0909 333.427 74.5175C334.187 73.9442 335.353 73.6575 336.927 73.6575H339.407C339.407 72.9775 339.2 72.4575 338.787 72.0975C338.373 71.7242 337.753 71.5375 336.927 71.5375C336.353 71.5375 335.787 71.6309 335.227 71.8175C334.68 71.9909 334.213 72.2309 333.827 72.5375L332.707 70.3575C333.293 69.9442 333.993 69.6242 334.807 69.3975C335.633 69.1709 336.48 69.0575 337.347 69.0575ZM337.107 78.0375C337.64 78.0375 338.113 77.9175 338.527 77.6775C338.94 77.4242 339.233 77.0575 339.407 76.5775V75.4775H337.267C335.987 75.4775 335.347 75.8975 335.347 76.7375C335.347 77.1375 335.5 77.4575 335.807 77.6975C336.127 77.9242 336.56 78.0375 337.107 78.0375ZM354.277 71.7775H350.637V79.9775H347.537V71.7775H343.897V69.2175H354.277V71.7775ZM360.531 80.1375C359.398 80.1375 358.378 79.9042 357.471 79.4375C356.578 78.9575 355.878 78.2975 355.371 77.4575C354.864 76.6175 354.611 75.6642 354.611 74.5975C354.611 73.5309 354.864 72.5775 355.371 71.7375C355.878 70.8975 356.578 70.2442 357.471 69.7775C358.378 69.2975 359.398 69.0575 360.531 69.0575C361.664 69.0575 362.678 69.2975 363.571 69.7775C364.464 70.2442 365.164 70.8975 365.671 71.7375C366.178 72.5775 366.431 73.5309 366.431 74.5975C366.431 75.6642 366.178 76.6175 365.671 77.4575C365.164 78.2975 364.464 78.9575 363.571 79.4375C362.678 79.9042 361.664 80.1375 360.531 80.1375ZM360.531 77.5775C361.331 77.5775 361.984 77.3109 362.491 76.7775C363.011 76.2309 363.271 75.5042 363.271 74.5975C363.271 73.6909 363.011 72.9709 362.491 72.4375C361.984 71.8909 361.331 71.6175 360.531 71.6175C359.731 71.6175 359.071 71.8909 358.551 72.4375C358.031 72.9709 357.771 73.6909 357.771 74.5975C357.771 75.5042 358.031 76.2309 358.551 76.7775C359.071 77.3109 359.731 77.5775 360.531 77.5775ZM374.917 69.0575C375.917 69.0575 376.823 69.2909 377.637 69.7575C378.463 70.2109 379.11 70.8575 379.577 71.6975C380.043 72.5242 380.277 73.4909 380.277 74.5975C380.277 75.7042 380.043 76.6775 379.577 77.5175C379.11 78.3442 378.463 78.9909 377.637 79.4575C376.823 79.9109 375.917 80.1375 374.917 80.1375C373.543 80.1375 372.463 79.7042 371.677 78.8375V83.8575H368.557V69.2175H371.537V70.4575C372.31 69.5242 373.437 69.0575 374.917 69.0575ZM374.377 77.5775C375.177 77.5775 375.83 77.3109 376.337 76.7775C376.857 76.2309 377.117 75.5042 377.117 74.5975C377.117 73.6909 376.857 72.9709 376.337 72.4375C375.83 71.8909 375.177 71.6175 374.377 71.6175C373.577 71.6175 372.917 71.8909 372.397 72.4375C371.89 72.9709 371.637 73.6909 371.637 74.5975C371.637 75.5042 371.89 76.2309 372.397 76.7775C372.917 77.3109 373.577 77.5775 374.377 77.5775ZM382.464 69.2175H385.564V75.6175L390.804 69.2175H393.664V79.9775H390.564V73.5775L385.344 79.9775H382.464V69.2175ZM406.223 69.2175V79.9775H403.443V76.8975H401.143L399.103 79.9775H395.783L398.243 76.4575C397.496 76.1642 396.923 75.7442 396.523 75.1975C396.136 74.6375 395.943 73.9642 395.943 73.1775C395.943 71.9109 396.396 70.9375 397.303 70.2575C398.223 69.5642 399.483 69.2175 401.083 69.2175H406.223ZM401.143 71.7575C400.476 71.7575 399.969 71.8775 399.623 72.1175C399.289 72.3575 399.123 72.7442 399.123 73.2775C399.123 73.8109 399.283 74.2042 399.603 74.4575C399.936 74.6975 400.436 74.8175 401.103 74.8175H403.443V71.7575H401.143Z" fill="white"/>
<defs>
<clipPath id="clip0_207:9">
<rect width="65.1533" height="63.3018" fill="white" transform="translate(25.8033 25.0693)"/>
</clipPath>
</defs>
</svg>
