<svg width="542" height="114" viewBox="0 0 542 114" fill="none" xmlns="http://www.w3.org/2000/svg">
<rect x="26.0496" y="14.8438" width="515.95" height="89.0729" fill="#3E4671"/>
<path d="M112.039 57.2795C112.039 87.4912 87.4161 112 57.0196 112C26.6232 112 2 87.4912 2 57.2795C2 27.0679 26.6232 2.55859 57.0196 2.55859C87.4161 2.55859 112.039 27.0679 112.039 57.2795Z" fill="white" stroke="#3E4671" stroke-width="4"/>
<path d="M56.7064 31.5625C55.4703 31.5625 54.2422 31.9779 53.1841 32.7375L49.9091 35.0243L46.1357 35.5189H46.0744L46.0131 35.5802C44.7755 35.8597 43.6425 36.4844 42.7454 37.3817C41.8483 38.2791 41.2238 39.4124 40.9443 40.6503L40.885 40.7116V40.7729L40.3906 44.6066L38.1044 47.5739L38.0411 47.6352V47.6965C36.6587 49.9062 36.5974 52.7587 38.1044 54.8675L40.4519 58.1433L41.0709 61.5458L34.7048 71.2488L32.6658 74.2794H42.121L44.4072 79.5947L45.8292 82.9952L47.8681 79.9033L54.1097 70.507C55.7868 71.1954 57.6794 71.2587 59.3031 70.507L65.5446 79.9033L67.5836 82.9952L69.0055 79.5947L71.2917 74.2794H80.747L78.708 71.2488L72.5278 61.8544L73.0222 58.1453L75.3084 54.8694L75.3717 54.8081V54.7468C76.754 52.5372 76.8154 49.7459 75.3084 47.6372L73.0222 44.3594L72.2805 40.6503H72.3419C72.3339 40.6028 72.2885 40.5711 72.2805 40.5256C71.9246 37.9382 69.8777 35.8374 67.2751 35.5189H67.2118L63.5036 35.0243L60.2286 32.7375C59.2058 31.988 57.9742 31.5772 56.7064 31.5625V31.5625ZM56.7064 35.5802C57.1612 35.5802 57.6102 35.7187 57.9424 35.9521L61.4647 38.4861L61.8978 38.7947L62.3922 38.858L66.7193 39.4752H66.7787C67.6686 39.5741 68.2856 40.1933 68.3865 41.0835V41.2061L69.1914 45.5957L69.2508 46.0289L69.5612 46.3989L72.0946 49.922C72.5673 50.5788 72.6286 51.6925 72.0333 52.642L69.2527 56.537L69.1894 57.0316L68.5724 61.3598V61.4192C68.5395 61.7283 68.4338 62.0253 68.2639 62.2856L68.1393 62.3489V62.4083C67.8454 62.7614 67.4238 62.984 66.9665 63.0275H66.8419L62.3309 63.8326L61.8365 63.8919L61.4647 64.2025L57.9424 66.7365C57.2858 67.2093 56.1111 67.2707 55.1618 66.6752L51.9481 64.2025L51.5763 63.8939L51.0206 63.8306L46.6934 63.2134H46.6341C46.3544 63.1887 46.0848 63.0971 45.848 62.9463C45.6112 62.7955 45.4141 62.5899 45.2734 62.347C45.142 62.1188 45.0579 61.8665 45.0262 61.6051V61.4825L44.2233 56.9703L44.16 56.4757L43.8515 56.1038L41.3181 52.5807C40.8454 51.9239 40.7841 50.7489 41.3794 49.7994L43.8515 46.5848L44.16 46.2129L44.2213 45.657L44.779 41.5147C44.7869 41.4851 44.8324 41.4851 44.8403 41.4534C44.9636 40.9772 45.212 40.5427 45.5598 40.1948C45.9075 39.847 46.3419 39.5985 46.818 39.4752C46.8496 39.4673 46.8496 39.4218 46.8793 39.4139L51.0206 38.8561L51.515 38.7967L51.9481 38.4861L55.4703 35.9521C55.8026 35.7206 56.2515 35.5802 56.7064 35.5802V35.5802ZM70.3642 65.6861L73.394 70.323H68.6317L68.1373 71.5594L66.7787 74.7106L62.5761 68.2815L63.5017 67.603L67.3977 66.9225V66.9838C67.4432 66.9759 67.4728 66.9304 67.5203 66.9225C68.5612 66.7723 69.5426 66.3453 70.3622 65.6861H70.3642ZM43.0486 65.7475C43.9073 66.5284 44.9861 67.0251 46.1377 67.1698H46.199L49.9704 67.6643L50.8347 68.3448L46.6321 74.7106L45.2734 71.5594L44.779 70.323H40.0207L43.0486 65.7475Z" fill="#3E4671"/>
<path d="M125.942 57.228C124.587 57.228 123.358 56.9367 122.256 56.354C121.167 55.7587 120.305 54.9417 119.672 53.903C119.051 52.8517 118.741 51.6673 118.741 50.35C118.741 49.0327 119.051 47.8547 119.672 46.816C120.305 45.7647 121.167 44.9477 122.256 44.365C123.358 43.7697 124.593 43.472 125.961 43.472C127.114 43.472 128.152 43.6747 129.077 44.08C130.014 44.4853 130.8 45.068 131.433 45.828L129.457 47.652C128.558 46.6133 127.443 46.094 126.113 46.094C125.29 46.094 124.555 46.2777 123.909 46.645C123.263 46.9997 122.756 47.5 122.389 48.146C122.034 48.792 121.857 49.5267 121.857 50.35C121.857 51.1733 122.034 51.908 122.389 52.554C122.756 53.2 123.263 53.7067 123.909 54.074C124.555 54.4287 125.29 54.606 126.113 54.606C127.443 54.606 128.558 54.0803 129.457 53.029L131.433 54.853C130.8 55.6257 130.014 56.2147 129.077 56.62C128.14 57.0253 127.095 57.228 125.942 57.228ZM142.796 51.927C142.796 51.965 142.777 52.231 142.739 52.725H135.006C135.145 53.3583 135.474 53.8587 135.994 54.226C136.513 54.5933 137.159 54.777 137.932 54.777C138.464 54.777 138.932 54.701 139.338 54.549C139.756 54.3843 140.142 54.131 140.497 53.789L142.074 55.499C141.111 56.601 139.705 57.152 137.856 57.152C136.703 57.152 135.683 56.9303 134.797 56.487C133.91 56.031 133.226 55.404 132.745 54.606C132.263 53.808 132.023 52.9023 132.023 51.889C132.023 50.8883 132.257 49.989 132.726 49.191C133.207 48.3803 133.859 47.7533 134.683 47.31C135.519 46.854 136.45 46.626 137.476 46.626C138.476 46.626 139.382 46.8413 140.193 47.272C141.003 47.7027 141.637 48.3233 142.093 49.134C142.561 49.932 142.796 50.863 142.796 51.927ZM137.495 48.868C136.823 48.868 136.26 49.058 135.804 49.438C135.348 49.818 135.069 50.3373 134.968 50.996H140.003C139.901 50.35 139.623 49.837 139.167 49.457C138.711 49.0643 138.153 48.868 137.495 48.868ZM151.091 46.626C152.041 46.626 152.902 46.8477 153.675 47.291C154.46 47.7217 155.074 48.336 155.518 49.134C155.961 49.9193 156.183 50.8377 156.183 51.889C156.183 52.9403 155.961 53.865 155.518 54.663C155.074 55.4483 154.46 56.0627 153.675 56.506C152.902 56.9367 152.041 57.152 151.091 57.152C149.786 57.152 148.76 56.7403 148.013 55.917V60.686H145.049V46.778H147.88V47.956C148.614 47.0693 149.685 46.626 151.091 46.626ZM150.578 54.72C151.338 54.72 151.958 54.4667 152.44 53.96C152.934 53.4407 153.181 52.7503 153.181 51.889C153.181 51.0277 152.934 50.3437 152.44 49.837C151.958 49.3177 151.338 49.058 150.578 49.058C149.818 49.058 149.191 49.3177 148.697 49.837C148.215 50.3437 147.975 51.0277 147.975 51.889C147.975 52.7503 148.215 53.4407 148.697 53.96C149.191 54.4667 149.818 54.72 150.578 54.72ZM166.477 49.21H163.019V57H160.074V49.21H156.616V46.778H166.477V49.21ZM168.057 46.778H171.002V52.858L175.98 46.778H178.697V57H175.752V50.92L170.793 57H168.057V46.778ZM195.663 51.851C195.663 53.4343 195.131 54.6883 194.067 55.613C193.016 56.525 191.508 57.0507 189.545 57.19V60.686H186.828V57.19C184.865 57.0507 183.351 56.5313 182.287 55.632C181.236 54.72 180.71 53.4597 180.71 51.851C180.71 50.2677 181.229 49.039 182.268 48.165C183.319 47.291 184.839 46.7843 186.828 46.645V42.902H189.545V46.645C191.508 46.7843 193.016 47.2973 194.067 48.184C195.131 49.0707 195.663 50.293 195.663 51.851ZM183.579 51.851C183.579 52.763 183.839 53.466 184.358 53.96C184.877 54.454 185.701 54.7643 186.828 54.891V48.944C185.701 49.058 184.877 49.3557 184.358 49.837C183.839 50.3057 183.579 50.977 183.579 51.851ZM189.545 54.891C190.672 54.7643 191.496 54.454 192.015 53.96C192.547 53.466 192.813 52.763 192.813 51.851C192.813 50.977 192.547 50.3057 192.015 49.837C191.496 49.3557 190.672 49.058 189.545 48.944V54.891ZM197.651 46.778H200.615V57H197.651V46.778ZM199.133 45.353C198.588 45.353 198.145 45.1947 197.803 44.878C197.461 44.5613 197.29 44.1687 197.29 43.7C197.29 43.2313 197.461 42.8387 197.803 42.522C198.145 42.2053 198.588 42.047 199.133 42.047C199.678 42.047 200.121 42.199 200.463 42.503C200.805 42.807 200.976 43.187 200.976 43.643C200.976 44.137 200.805 44.5487 200.463 44.878C200.121 45.1947 199.678 45.353 199.133 45.353ZM207.962 53.124H206.423V57H203.459V46.778H206.423V50.749H208.019L210.793 46.778H213.947L210.375 51.68L214.194 57H210.698L207.962 53.124ZM219.435 46.626C221.018 46.626 222.234 47.006 223.083 47.766C223.932 48.5133 224.356 49.647 224.356 51.167V57H221.582V55.727C221.025 56.677 219.986 57.152 218.466 57.152C217.681 57.152 216.997 57.019 216.414 56.753C215.844 56.487 215.407 56.1197 215.103 55.651C214.799 55.1823 214.647 54.6503 214.647 54.055C214.647 53.105 215.002 52.3577 215.711 51.813C216.433 51.2683 217.541 50.996 219.036 50.996H221.392C221.392 50.35 221.196 49.856 220.803 49.514C220.41 49.1593 219.821 48.982 219.036 48.982C218.491 48.982 217.953 49.0707 217.421 49.248C216.902 49.4127 216.458 49.6407 216.091 49.932L215.027 47.861C215.584 47.4683 216.249 47.1643 217.022 46.949C217.807 46.7337 218.612 46.626 219.435 46.626ZM219.207 55.157C219.714 55.157 220.163 55.043 220.556 54.815C220.949 54.5743 221.227 54.226 221.392 53.77V52.725H219.359C218.143 52.725 217.535 53.124 217.535 53.922C217.535 54.302 217.681 54.606 217.972 54.834C218.276 55.0493 218.688 55.157 219.207 55.157ZM238.445 54.568V59.242H235.69V57H226.931V46.778H229.876V54.568H233.999V46.778H236.963V54.568H238.445ZM240.29 46.778H243.254V57H240.29V46.778ZM241.772 45.353C241.227 45.353 240.784 45.1947 240.442 44.878C240.1 44.5613 239.929 44.1687 239.929 43.7C239.929 43.2313 240.1 42.8387 240.442 42.522C240.784 42.2053 241.227 42.047 241.772 42.047C242.316 42.047 242.76 42.199 243.102 42.503C243.444 42.807 243.615 43.187 243.615 43.643C243.615 44.137 243.444 44.5487 243.102 44.878C242.76 45.1947 242.316 45.353 241.772 45.353ZM255.18 46.778V57H252.539V54.074H250.354L248.416 57H245.262L247.599 53.656C246.89 53.3773 246.345 52.9783 245.965 52.459C245.598 51.927 245.414 51.2873 245.414 50.54C245.414 49.3367 245.845 48.412 246.706 47.766C247.58 47.1073 248.777 46.778 250.297 46.778H255.18ZM250.354 49.191C249.721 49.191 249.239 49.305 248.91 49.533C248.593 49.761 248.435 50.1283 248.435 50.635C248.435 51.1417 248.587 51.5153 248.891 51.756C249.208 51.984 249.683 52.098 250.316 52.098H252.539V49.191H250.354ZM270.04 51.68C270.648 51.87 271.117 52.1613 271.446 52.554C271.788 52.9467 271.959 53.4153 271.959 53.96C271.959 54.606 271.738 55.176 271.294 55.67C270.851 56.1513 270.243 56.525 269.47 56.791C268.698 57.057 267.824 57.19 266.848 57.19C266.05 57.19 265.265 57.1077 264.492 56.943C263.72 56.7783 263.004 56.5313 262.345 56.202L263.143 54.131C264.22 54.6503 265.411 54.91 266.715 54.91C267.412 54.91 267.957 54.8087 268.349 54.606C268.755 54.3907 268.957 54.093 268.957 53.713C268.957 53.3837 268.818 53.1367 268.539 52.972C268.261 52.7947 267.855 52.706 267.323 52.706H265.233V50.863H267.057C267.577 50.863 267.976 50.7807 268.254 50.616C268.533 50.4513 268.672 50.2107 268.672 49.894C268.672 49.5647 268.495 49.3113 268.14 49.134C267.798 48.9567 267.304 48.868 266.658 48.868C265.67 48.868 264.594 49.1023 263.428 49.571L262.706 47.519C264.125 46.8983 265.506 46.588 266.848 46.588C267.773 46.588 268.596 46.702 269.318 46.93C270.053 47.158 270.629 47.4937 271.047 47.937C271.465 48.3677 271.674 48.8743 271.674 49.457C271.674 49.9383 271.529 50.3753 271.237 50.768C270.946 51.148 270.547 51.452 270.04 51.68ZM282.304 49.21H277.06V57H274.115V46.778H282.304V49.21ZM283.856 46.778H286.82V57H283.856V46.778ZM285.338 45.353C284.794 45.353 284.35 45.1947 284.008 44.878C283.666 44.5613 283.495 44.1687 283.495 43.7C283.495 43.2313 283.666 42.8387 284.008 42.522C284.35 42.2053 284.794 42.047 285.338 42.047C285.883 42.047 286.326 42.199 286.668 42.503C287.01 42.807 287.181 43.187 287.181 43.643C287.181 44.137 287.01 44.5487 286.668 44.878C286.326 45.1947 285.883 45.353 285.338 45.353ZM301.121 54.568V59.204H298.366V57H291.184V59.204H288.429V54.568H288.847C289.481 54.5553 289.918 54.1817 290.158 53.447C290.399 52.7123 290.551 51.6673 290.614 50.312L290.747 46.778H299.658V54.568H301.121ZM293.293 50.521C293.255 51.5597 293.173 52.4083 293.046 53.067C292.932 53.7257 292.711 54.226 292.381 54.568H296.694V49.21H293.35L293.293 50.521ZM302.987 46.778H305.932V50.768H310.378V46.778H313.342V57H310.378V53.181H305.932V57H302.987V46.778ZM320.967 57.152C319.89 57.152 318.921 56.9303 318.06 56.487C317.211 56.031 316.546 55.404 316.065 54.606C315.584 53.808 315.343 52.9023 315.343 51.889C315.343 50.8757 315.584 49.97 316.065 49.172C316.546 48.374 317.211 47.7533 318.06 47.31C318.921 46.854 319.89 46.626 320.967 46.626C322.044 46.626 323.006 46.854 323.855 47.31C324.704 47.7533 325.369 48.374 325.85 49.172C326.331 49.97 326.572 50.8757 326.572 51.889C326.572 52.9023 326.331 53.808 325.85 54.606C325.369 55.404 324.704 56.031 323.855 56.487C323.006 56.9303 322.044 57.152 320.967 57.152ZM320.967 54.72C321.727 54.72 322.348 54.4667 322.829 53.96C323.323 53.4407 323.57 52.7503 323.57 51.889C323.57 51.0277 323.323 50.3437 322.829 49.837C322.348 49.3177 321.727 49.058 320.967 49.058C320.207 49.058 319.58 49.3177 319.086 49.837C318.592 50.3437 318.345 51.0277 318.345 51.889C318.345 52.7503 318.592 53.4407 319.086 53.96C319.58 54.4667 320.207 54.72 320.967 54.72ZM338.855 57.152C337.766 57.152 336.784 56.9303 335.91 56.487C335.049 56.031 334.371 55.404 333.877 54.606C333.396 53.808 333.155 52.9023 333.155 51.889C333.155 50.8757 333.396 49.97 333.877 49.172C334.371 48.374 335.049 47.7533 335.91 47.31C336.784 46.854 337.766 46.626 338.855 46.626C339.932 46.626 340.869 46.854 341.667 47.31C342.478 47.7533 343.067 48.393 343.434 49.229L341.135 50.464C340.603 49.5267 339.837 49.058 338.836 49.058C338.064 49.058 337.424 49.3113 336.917 49.818C336.411 50.3247 336.157 51.015 336.157 51.889C336.157 52.763 336.411 53.4533 336.917 53.96C337.424 54.4667 338.064 54.72 338.836 54.72C339.85 54.72 340.616 54.2513 341.135 53.314L343.434 54.568C343.067 55.3787 342.478 56.012 341.667 56.468C340.869 56.924 339.932 57.152 338.855 57.152ZM353.786 49.21H350.328V57H347.383V49.21H343.925V46.778H353.786V49.21ZM359.337 46.626C360.921 46.626 362.137 47.006 362.985 47.766C363.834 48.5133 364.258 49.647 364.258 51.167V57H361.484V55.727C360.927 56.677 359.888 57.152 358.368 57.152C357.583 57.152 356.899 57.019 356.316 56.753C355.746 56.487 355.309 56.1197 355.005 55.651C354.701 55.1823 354.549 54.6503 354.549 54.055C354.549 53.105 354.904 52.3577 355.613 51.813C356.335 51.2683 357.444 50.996 358.938 50.996H361.294C361.294 50.35 361.098 49.856 360.705 49.514C360.313 49.1593 359.724 48.982 358.938 48.982C358.394 48.982 357.855 49.0707 357.323 49.248C356.804 49.4127 356.361 49.6407 355.993 49.932L354.929 47.861C355.487 47.4683 356.152 47.1643 356.924 46.949C357.71 46.7337 358.514 46.626 359.337 46.626ZM359.109 55.157C359.616 55.157 360.066 55.043 360.458 54.815C360.851 54.5743 361.13 54.226 361.294 53.77V52.725H359.261C358.045 52.725 357.437 53.124 357.437 53.922C357.437 54.302 357.583 54.606 357.874 54.834C358.178 55.0493 358.59 55.157 359.109 55.157ZM366.833 46.778H369.778V50.768H374.224V46.778H377.188V57H374.224V53.181H369.778V57H366.833V46.778ZM391.483 54.568V59.204H388.728V57H381.546V59.204H378.791V54.568H379.209C379.842 54.5553 380.279 54.1817 380.52 53.447C380.76 52.7123 380.912 51.6673 380.976 50.312L381.109 46.778H390.02V54.568H391.483ZM383.655 50.521C383.617 51.5597 383.534 52.4083 383.408 53.067C383.294 53.7257 383.072 54.226 382.743 54.568H387.056V49.21H383.712L383.655 50.521ZM397.319 46.626C398.902 46.626 400.118 47.006 400.967 47.766C401.816 48.5133 402.24 49.647 402.24 51.167V57H399.466V55.727C398.909 56.677 397.87 57.152 396.35 57.152C395.565 57.152 394.881 57.019 394.298 56.753C393.728 56.487 393.291 56.1197 392.987 55.651C392.683 55.1823 392.531 54.6503 392.531 54.055C392.531 53.105 392.886 52.3577 393.595 51.813C394.317 51.2683 395.425 50.996 396.92 50.996H399.276C399.276 50.35 399.08 49.856 398.687 49.514C398.294 49.1593 397.705 48.982 396.92 48.982C396.375 48.982 395.837 49.0707 395.305 49.248C394.786 49.4127 394.342 49.6407 393.975 49.932L392.911 47.861C393.468 47.4683 394.133 47.1643 394.906 46.949C395.691 46.7337 396.496 46.626 397.319 46.626ZM397.091 55.157C397.598 55.157 398.047 55.043 398.44 54.815C398.833 54.5743 399.111 54.226 399.276 53.77V52.725H397.243C396.027 52.725 395.419 53.124 395.419 53.922C395.419 54.302 395.565 54.606 395.856 54.834C396.16 55.0493 396.572 55.157 397.091 55.157ZM410.838 46.626C411.788 46.626 412.649 46.8477 413.422 47.291C414.207 47.7217 414.821 48.336 415.265 49.134C415.708 49.9193 415.93 50.8377 415.93 51.889C415.93 52.9403 415.708 53.865 415.265 54.663C414.821 55.4483 414.207 56.0627 413.422 56.506C412.649 56.9367 411.788 57.152 410.838 57.152C409.533 57.152 408.507 56.7403 407.76 55.917V60.686H404.796V46.778H407.627V47.956C408.361 47.0693 409.432 46.626 410.838 46.626ZM410.325 54.72C411.085 54.72 411.705 54.4667 412.187 53.96C412.681 53.4407 412.928 52.7503 412.928 51.889C412.928 51.0277 412.681 50.3437 412.187 49.837C411.705 49.3177 411.085 49.058 410.325 49.058C409.565 49.058 408.938 49.3177 408.444 49.837C407.962 50.3437 407.722 51.0277 407.722 51.889C407.722 52.7503 407.962 53.4407 408.444 53.96C408.938 54.4667 409.565 54.72 410.325 54.72ZM426.224 49.21H422.766V57H419.821V49.21H416.363V46.778H426.224V49.21ZM427.785 46.778H430.749V57H427.785V46.778ZM429.267 45.353C428.722 45.353 428.279 45.1947 427.937 44.878C427.595 44.5613 427.424 44.1687 427.424 43.7C427.424 43.2313 427.595 42.8387 427.937 42.522C428.279 42.2053 428.722 42.047 429.267 42.047C429.812 42.047 430.255 42.199 430.597 42.503C430.939 42.807 431.11 43.187 431.11 43.643C431.11 44.137 430.939 44.5487 430.597 44.878C430.255 45.1947 429.812 45.353 429.267 45.353ZM441.402 51.661C442.605 52.0663 443.207 52.877 443.207 54.093C443.207 55.0177 442.859 55.7333 442.162 56.24C441.465 56.7467 440.427 57 439.046 57H433.593V46.778H438.818C440.097 46.778 441.098 47.0123 441.82 47.481C442.542 47.937 442.903 48.583 442.903 49.419C442.903 49.9257 442.77 50.3753 442.504 50.768C442.251 51.148 441.883 51.4457 441.402 51.661ZM436.31 50.977H438.552C439.591 50.977 440.11 50.6097 440.11 49.875C440.11 49.153 439.591 48.792 438.552 48.792H436.31V50.977ZM438.799 54.986C439.888 54.986 440.433 54.6123 440.433 53.865C440.433 53.4723 440.306 53.1873 440.053 53.01C439.8 52.82 439.401 52.725 438.856 52.725H436.31V54.986H438.799ZM450.945 43.7H454.023V57H450.945V43.7ZM461.55 57.228C460.498 57.228 459.479 57.0887 458.491 56.81C457.515 56.5187 456.73 56.145 456.135 55.689L457.18 53.371C457.75 53.789 458.427 54.1247 459.213 54.378C459.998 54.6313 460.783 54.758 461.569 54.758C462.443 54.758 463.089 54.6313 463.507 54.378C463.925 54.112 464.134 53.7637 464.134 53.333C464.134 53.0163 464.007 52.7567 463.754 52.554C463.513 52.3387 463.196 52.1677 462.804 52.041C462.424 51.9143 461.904 51.775 461.246 51.623C460.232 51.3823 459.403 51.1417 458.757 50.901C458.111 50.6603 457.553 50.274 457.085 49.742C456.629 49.21 456.401 48.5007 456.401 47.614C456.401 46.8413 456.61 46.1447 457.028 45.524C457.446 44.8907 458.073 44.3903 458.909 44.023C459.757 43.6557 460.79 43.472 462.006 43.472C462.854 43.472 463.684 43.5733 464.495 43.776C465.305 43.9787 466.015 44.27 466.623 44.65L465.673 46.987C464.444 46.2903 463.215 45.942 461.987 45.942C461.125 45.942 460.486 46.0813 460.068 46.36C459.662 46.6387 459.46 47.006 459.46 47.462C459.46 47.918 459.694 48.26 460.163 48.488C460.644 48.7033 461.372 48.9187 462.348 49.134C463.361 49.3747 464.191 49.6153 464.837 49.856C465.483 50.0967 466.034 50.4767 466.49 50.996C466.958 51.5153 467.193 52.2183 467.193 53.105C467.193 53.865 466.977 54.5617 466.547 55.195C466.129 55.8157 465.495 56.3097 464.647 56.677C463.798 57.0443 462.766 57.228 461.55 57.228ZM475.737 57.228C474.356 57.228 473.108 56.9303 471.994 56.335C470.892 55.7397 470.024 54.9227 469.391 53.884C468.77 52.8327 468.46 51.6547 468.46 50.35C468.46 49.0453 468.77 47.8737 469.391 46.835C470.024 45.7837 470.892 44.9603 471.994 44.365C473.108 43.7697 474.356 43.472 475.737 43.472C477.117 43.472 478.359 43.7697 479.461 44.365C480.563 44.9603 481.43 45.7837 482.064 46.835C482.697 47.8737 483.014 49.0453 483.014 50.35C483.014 51.6547 482.697 52.8327 482.064 53.884C481.43 54.9227 480.563 55.7397 479.461 56.335C478.359 56.9303 477.117 57.228 475.737 57.228ZM475.737 54.606C476.522 54.606 477.231 54.4287 477.865 54.074C478.498 53.7067 478.992 53.2 479.347 52.554C479.714 51.908 479.898 51.1733 479.898 50.35C479.898 49.5267 479.714 48.792 479.347 48.146C478.992 47.5 478.498 46.9997 477.865 46.645C477.231 46.2777 476.522 46.094 475.737 46.094C474.951 46.094 474.242 46.2777 473.609 46.645C472.975 46.9997 472.475 47.5 472.108 48.146C471.753 48.792 471.576 49.5267 471.576 50.35C471.576 51.1733 471.753 51.908 472.108 52.554C472.475 53.2 472.975 53.7067 473.609 54.074C474.242 54.4287 474.951 54.606 475.737 54.606ZM485.887 53.466C486.419 53.466 486.856 53.637 487.198 53.979C487.54 54.3083 487.711 54.7453 487.711 55.29C487.711 55.5433 487.679 55.7967 487.616 56.05C487.553 56.3033 487.413 56.6833 487.198 57.19L486.115 59.926H484.234L485.07 56.905C484.753 56.7783 484.5 56.5757 484.31 56.297C484.133 56.0057 484.044 55.67 484.044 55.29C484.044 54.7453 484.215 54.3083 484.557 53.979C484.912 53.637 485.355 53.466 485.887 53.466ZM128.564 73.141H131.376V78.537C130.654 79.0817 129.818 79.4997 128.868 79.791C127.918 80.0823 126.962 80.228 125.999 80.228C124.618 80.228 123.377 79.9367 122.275 79.354C121.173 78.7587 120.305 77.9417 119.672 76.903C119.051 75.8517 118.741 74.6673 118.741 73.35C118.741 72.0327 119.051 70.8547 119.672 69.816C120.305 68.7647 121.179 67.9477 122.294 67.365C123.409 66.7697 124.663 66.472 126.056 66.472C127.221 66.472 128.279 66.6683 129.229 67.061C130.179 67.4537 130.977 68.0237 131.623 68.771L129.647 70.595C128.697 69.5943 127.551 69.094 126.208 69.094C125.359 69.094 124.606 69.2713 123.947 69.626C123.288 69.9807 122.775 70.481 122.408 71.127C122.041 71.773 121.857 72.514 121.857 73.35C121.857 74.1733 122.041 74.908 122.408 75.554C122.775 76.2 123.282 76.7067 123.928 77.074C124.587 77.4287 125.334 77.606 126.17 77.606C127.057 77.606 127.855 77.416 128.564 77.036V73.141ZM142.994 77.15H136.819L135.641 80H132.487L138.415 66.7H141.455L147.402 80H144.172L142.994 77.15ZM142.025 74.813L139.916 69.721L137.807 74.813H142.025ZM151.86 69.17V72.685H158.016V75.155H151.86V80H148.782V66.7H158.833V69.17H151.86ZM163.765 69.208H159.509V66.7H171.099V69.208H166.843V80H163.765V69.208ZM180.846 77.15H174.671L173.493 80H170.339L176.267 66.7H179.307L185.254 80H182.024L180.846 77.15ZM179.877 74.813L177.768 69.721L175.659 74.813H179.877ZM188.177 76.466C188.709 76.466 189.146 76.637 189.488 76.979C189.83 77.3083 190.001 77.7453 190.001 78.29C190.001 78.5433 189.969 78.7967 189.906 79.05C189.843 79.3033 189.703 79.6833 189.488 80.19L188.405 82.926H186.524L187.36 79.905C187.043 79.7783 186.79 79.5757 186.6 79.297C186.423 79.0057 186.334 78.67 186.334 78.29C186.334 77.7453 186.505 77.3083 186.847 76.979C187.202 76.637 187.645 76.466 188.177 76.466ZM200.677 69.17V72.685H206.833V75.155H200.677V80H197.599V66.7H207.65V69.17H200.677ZM216.045 80.228C214.665 80.228 213.417 79.9303 212.302 79.335C211.2 78.7397 210.333 77.9227 209.699 76.884C209.079 75.8327 208.768 74.6547 208.768 73.35C208.768 72.0453 209.079 70.8737 209.699 69.835C210.333 68.7837 211.2 67.9603 212.302 67.365C213.417 66.7697 214.665 66.472 216.045 66.472C217.426 66.472 218.667 66.7697 219.769 67.365C220.871 67.9603 221.739 68.7837 222.372 69.835C223.006 70.8737 223.322 72.0453 223.322 73.35C223.322 74.6547 223.006 75.8327 222.372 76.884C221.739 77.9227 220.871 78.7397 219.769 79.335C218.667 79.9303 217.426 80.228 216.045 80.228ZM216.045 77.606C216.831 77.606 217.54 77.4287 218.173 77.074C218.807 76.7067 219.301 76.2 219.655 75.554C220.023 74.908 220.206 74.1733 220.206 73.35C220.206 72.5267 220.023 71.792 219.655 71.146C219.301 70.5 218.807 69.9997 218.173 69.645C217.54 69.2777 216.831 69.094 216.045 69.094C215.26 69.094 214.551 69.2777 213.917 69.645C213.284 69.9997 212.784 70.5 212.416 71.146C212.062 71.792 211.884 72.5267 211.884 73.35C211.884 74.1733 212.062 74.908 212.416 75.554C212.784 76.2 213.284 76.7067 213.917 77.074C214.551 77.4287 215.26 77.606 216.045 77.606ZM230.006 80.228C228.954 80.228 227.935 80.0887 226.947 79.81C225.971 79.5187 225.186 79.145 224.591 78.689L225.636 76.371C226.206 76.789 226.883 77.1247 227.669 77.378C228.454 77.6313 229.239 77.758 230.025 77.758C230.899 77.758 231.545 77.6313 231.963 77.378C232.381 77.112 232.59 76.7637 232.59 76.333C232.59 76.0163 232.463 75.7567 232.21 75.554C231.969 75.3387 231.652 75.1677 231.26 75.041C230.88 74.9143 230.36 74.775 229.702 74.623C228.688 74.3823 227.859 74.1417 227.213 73.901C226.567 73.6603 226.009 73.274 225.541 72.742C225.085 72.21 224.857 71.5007 224.857 70.614C224.857 69.8413 225.066 69.1447 225.484 68.524C225.902 67.8907 226.529 67.3903 227.365 67.023C228.213 66.6557 229.246 66.472 230.462 66.472C231.31 66.472 232.14 66.5733 232.951 66.776C233.761 66.9787 234.471 67.27 235.079 67.65L234.129 69.987C232.9 69.2903 231.671 68.942 230.443 68.942C229.581 68.942 228.942 69.0813 228.524 69.36C228.118 69.6387 227.916 70.006 227.916 70.462C227.916 70.918 228.15 71.26 228.619 71.488C229.1 71.7033 229.828 71.9187 230.804 72.134C231.817 72.3747 232.647 72.6153 233.293 72.856C233.939 73.0967 234.49 73.4767 234.946 73.996C235.414 74.5153 235.649 75.2183 235.649 76.105C235.649 76.865 235.433 77.5617 235.003 78.195C234.585 78.8157 233.951 79.3097 233.103 79.677C232.254 80.0443 231.222 80.228 230.006 80.228ZM240.83 69.17V72.685H246.986V75.155H240.83V80H237.752V66.7H247.803V69.17H240.83ZM258.089 77.15H251.914L250.736 80H247.582L253.51 66.7H256.55L262.497 80H259.267L258.089 77.15ZM257.12 74.813L255.011 69.721L252.902 74.813H257.12ZM265.42 76.466C265.952 76.466 266.389 76.637 266.731 76.979C267.073 77.3083 267.244 77.7453 267.244 78.29C267.244 78.5433 267.212 78.7967 267.149 79.05C267.086 79.3033 266.946 79.6833 266.731 80.19L265.648 82.926H263.767L264.603 79.905C264.286 79.7783 264.033 79.5757 263.843 79.297C263.666 79.0057 263.577 78.67 263.577 78.29C263.577 77.7453 263.748 77.3083 264.09 76.979C264.445 76.637 264.888 76.466 265.42 76.466ZM283.887 69.778V80H280.923V76.2C280.061 76.6307 279.111 76.846 278.073 76.846C276.692 76.846 275.647 76.5357 274.938 75.915C274.241 75.2817 273.893 74.3063 273.893 72.989V69.778H276.857V72.799C276.857 73.4197 277.015 73.8693 277.332 74.148C277.661 74.4267 278.13 74.566 278.738 74.566C279.51 74.566 280.239 74.4013 280.923 74.072V69.778H283.887ZM296.537 69.778V80H293.573V72.21H290.343L290.248 74.015C290.197 75.3577 290.07 76.4723 289.868 77.359C289.665 78.2457 289.336 78.9423 288.88 79.449C288.424 79.9557 287.79 80.209 286.98 80.209C286.549 80.209 286.036 80.133 285.441 79.981L285.593 77.549C285.795 77.5743 285.941 77.587 286.03 77.587C286.473 77.587 286.802 77.4287 287.018 77.112C287.246 76.7827 287.398 76.371 287.474 75.877C287.55 75.3703 287.607 74.7053 287.645 73.882L287.797 69.778H296.537ZM309.324 74.927C309.324 74.965 309.305 75.231 309.267 75.725H301.534C301.673 76.3583 302.003 76.8587 302.522 77.226C303.041 77.5933 303.687 77.777 304.46 77.777C304.992 77.777 305.461 77.701 305.866 77.549C306.284 77.3843 306.67 77.131 307.025 76.789L308.602 78.499C307.639 79.601 306.233 80.152 304.384 80.152C303.231 80.152 302.212 79.9303 301.325 79.487C300.438 79.031 299.754 78.404 299.273 77.606C298.792 76.808 298.551 75.9023 298.551 74.889C298.551 73.8883 298.785 72.989 299.254 72.191C299.735 71.3803 300.388 70.7533 301.211 70.31C302.047 69.854 302.978 69.626 304.004 69.626C305.005 69.626 305.91 69.8413 306.721 70.272C307.532 70.7027 308.165 71.3233 308.621 72.134C309.09 72.932 309.324 73.863 309.324 74.927ZM304.023 71.868C303.352 71.868 302.788 72.058 302.332 72.438C301.876 72.818 301.597 73.3373 301.496 73.996H306.531C306.43 73.35 306.151 72.837 305.695 72.457C305.239 72.0643 304.682 71.868 304.023 71.868ZM311.596 69.778H314.541V73.768H318.987V69.778H321.951V80H318.987V76.181H314.541V80H311.596V69.778ZM329.652 80.152C328.563 80.152 327.581 79.9303 326.707 79.487C325.846 79.031 325.168 78.404 324.674 77.606C324.193 76.808 323.952 75.9023 323.952 74.889C323.952 73.8757 324.193 72.97 324.674 72.172C325.168 71.374 325.846 70.7533 326.707 70.31C327.581 69.854 328.563 69.626 329.652 69.626C330.729 69.626 331.666 69.854 332.464 70.31C333.275 70.7533 333.864 71.393 334.231 72.229L331.932 73.464C331.4 72.5267 330.634 72.058 329.633 72.058C328.861 72.058 328.221 72.3113 327.714 72.818C327.208 73.3247 326.954 74.015 326.954 74.889C326.954 75.763 327.208 76.4533 327.714 76.96C328.221 77.4667 328.861 77.72 329.633 77.72C330.647 77.72 331.413 77.2513 331.932 76.314L334.231 77.568C333.864 78.3787 333.275 79.012 332.464 79.468C331.666 79.924 330.729 80.152 329.652 80.152ZM344.583 72.21H341.125V80H338.18V72.21H334.722V69.778H344.583V72.21ZM353.972 74.661C355.176 75.0663 355.777 75.877 355.777 77.093C355.777 78.0177 355.429 78.7333 354.732 79.24C354.036 79.7467 352.997 80 351.616 80H346.163V69.778H351.388C352.668 69.778 353.668 70.0123 354.39 70.481C355.112 70.937 355.473 71.583 355.473 72.419C355.473 72.9257 355.34 73.3753 355.074 73.768C354.821 74.148 354.454 74.4457 353.972 74.661ZM348.88 73.977H351.122C352.161 73.977 352.68 73.6097 352.68 72.875C352.68 72.153 352.161 71.792 351.122 71.792H348.88V73.977ZM351.369 77.986C352.459 77.986 353.003 77.6123 353.003 76.865C353.003 76.4723 352.877 76.1873 352.623 76.01C352.37 75.82 351.971 75.725 351.426 75.725H348.88V77.986H351.369ZM362.771 80.152C361.694 80.152 360.725 79.9303 359.864 79.487C359.015 79.031 358.35 78.404 357.869 77.606C357.387 76.808 357.147 75.9023 357.147 74.889C357.147 73.8757 357.387 72.97 357.869 72.172C358.35 71.374 359.015 70.7533 359.864 70.31C360.725 69.854 361.694 69.626 362.771 69.626C363.847 69.626 364.81 69.854 365.659 70.31C366.507 70.7533 367.172 71.374 367.654 72.172C368.135 72.97 368.376 73.8757 368.376 74.889C368.376 75.9023 368.135 76.808 367.654 77.606C367.172 78.404 366.507 79.031 365.659 79.487C364.81 79.9303 363.847 80.152 362.771 80.152ZM362.771 77.72C363.531 77.72 364.151 77.4667 364.633 76.96C365.127 76.4407 365.374 75.7503 365.374 74.889C365.374 74.0277 365.127 73.3437 364.633 72.837C364.151 72.3177 363.531 72.058 362.771 72.058C362.011 72.058 361.384 72.3177 360.89 72.837C360.396 73.3437 360.149 74.0277 360.149 74.889C360.149 75.7503 360.396 76.4407 360.89 76.96C361.384 77.4667 362.011 77.72 362.771 77.72ZM383.604 74.661C384.807 75.0663 385.409 75.877 385.409 77.093C385.409 78.0177 385.061 78.7333 384.364 79.24C383.667 79.7467 382.629 80 381.248 80H375.795V69.778H381.02C382.299 69.778 383.3 70.0123 384.022 70.481C384.744 70.937 385.105 71.583 385.105 72.419C385.105 72.9257 384.972 73.3753 384.706 73.768C384.453 74.148 384.085 74.4457 383.604 74.661ZM378.512 73.977H380.754C381.793 73.977 382.312 73.6097 382.312 72.875C382.312 72.153 381.793 71.792 380.754 71.792H378.512V73.977ZM381.001 77.986C382.09 77.986 382.635 77.6123 382.635 76.865C382.635 76.4723 382.508 76.1873 382.255 76.01C382.002 75.82 381.603 75.725 381.058 75.725H378.512V77.986H381.001ZM395.902 69.208H391.646V66.7H403.236V69.208H398.98V80H395.902V69.208ZM404.892 66.7H407.97V80H404.892V66.7ZM417.492 80.228C416.136 80.228 414.908 79.9367 413.806 79.354C412.716 78.7587 411.855 77.9417 411.222 76.903C410.601 75.8517 410.291 74.6673 410.291 73.35C410.291 72.0327 410.601 70.8547 411.222 69.816C411.855 68.7647 412.716 67.9477 413.806 67.365C414.908 66.7697 416.143 66.472 417.511 66.472C418.663 66.472 419.702 66.6747 420.627 67.08C421.564 67.4853 422.349 68.068 422.983 68.828L421.007 70.652C420.107 69.6133 418.993 69.094 417.663 69.094C416.839 69.094 416.105 69.2777 415.459 69.645C414.813 69.9997 414.306 70.5 413.939 71.146C413.584 71.792 413.407 72.5267 413.407 73.35C413.407 74.1733 413.584 74.908 413.939 75.554C414.306 76.2 414.813 76.7067 415.459 77.074C416.105 77.4287 416.839 77.606 417.663 77.606C418.993 77.606 420.107 77.0803 421.007 76.029L422.983 77.853C422.349 78.6257 421.564 79.2147 420.627 79.62C419.689 80.0253 418.644 80.228 417.492 80.228ZM436.807 80.228C435.452 80.228 434.223 79.9367 433.121 79.354C432.032 78.7587 431.171 77.9417 430.537 76.903C429.917 75.8517 429.606 74.6673 429.606 73.35C429.606 72.0327 429.917 70.8547 430.537 69.816C431.171 68.7647 432.032 67.9477 433.121 67.365C434.223 66.7697 435.458 66.472 436.826 66.472C437.979 66.472 439.018 66.6747 439.942 67.08C440.88 67.4853 441.665 68.068 442.298 68.828L440.322 70.652C439.423 69.6133 438.308 69.094 436.978 69.094C436.155 69.094 435.42 69.2777 434.774 69.645C434.128 69.9997 433.622 70.5 433.254 71.146C432.9 71.792 432.722 72.5267 432.722 73.35C432.722 74.1733 432.9 74.908 433.254 75.554C433.622 76.2 434.128 76.7067 434.774 77.074C435.42 77.4287 436.155 77.606 436.978 77.606C438.308 77.606 439.423 77.0803 440.322 76.029L442.298 77.853C441.665 78.6257 440.88 79.2147 439.942 79.62C439.005 80.0253 437.96 80.228 436.807 80.228ZM448.679 80.152C447.603 80.152 446.634 79.9303 445.772 79.487C444.924 79.031 444.259 78.404 443.777 77.606C443.296 76.808 443.055 75.9023 443.055 74.889C443.055 73.8757 443.296 72.97 443.777 72.172C444.259 71.374 444.924 70.7533 445.772 70.31C446.634 69.854 447.603 69.626 448.679 69.626C449.756 69.626 450.719 69.854 451.567 70.31C452.416 70.7533 453.081 71.374 453.562 72.172C454.044 72.97 454.284 73.8757 454.284 74.889C454.284 75.9023 454.044 76.808 453.562 77.606C453.081 78.404 452.416 79.031 451.567 79.487C450.719 79.9303 449.756 80.152 448.679 80.152ZM448.679 77.72C449.439 77.72 450.06 77.4667 450.541 76.96C451.035 76.4407 451.282 75.7503 451.282 74.889C451.282 74.0277 451.035 73.3437 450.541 72.837C450.06 72.3177 449.439 72.058 448.679 72.058C447.919 72.058 447.292 72.3177 446.798 72.837C446.304 73.3437 446.057 74.0277 446.057 74.889C446.057 75.7503 446.304 76.4407 446.798 76.96C447.292 77.4667 447.919 77.72 448.679 77.72ZM466.563 69.778V80H463.751V78.784C463.359 79.2273 462.89 79.5693 462.345 79.81C461.801 80.038 461.212 80.152 460.578 80.152C459.236 80.152 458.172 79.7657 457.386 78.993C456.601 78.2203 456.208 77.074 456.208 75.554V69.778H459.172V75.117C459.172 76.7637 459.863 77.587 461.243 77.587C461.953 77.587 462.523 77.359 462.953 76.903C463.384 76.4343 463.599 75.744 463.599 74.832V69.778H466.563ZM475.522 69.626C476.789 69.626 477.809 70.006 478.581 70.766C479.367 71.526 479.759 72.6533 479.759 74.148V80H476.795V74.604C476.795 73.7933 476.618 73.1917 476.263 72.799C475.909 72.3937 475.396 72.191 474.724 72.191C473.977 72.191 473.382 72.4253 472.938 72.894C472.495 73.35 472.273 74.034 472.273 74.946V80H469.309V69.778H472.14V70.975C472.533 70.5443 473.021 70.215 473.603 69.987C474.186 69.7463 474.826 69.626 475.522 69.626ZM487.497 80.152C486.408 80.152 485.426 79.9303 484.552 79.487C483.691 79.031 483.013 78.404 482.519 77.606C482.038 76.808 481.797 75.9023 481.797 74.889C481.797 73.8757 482.038 72.97 482.519 72.172C483.013 71.374 483.691 70.7533 484.552 70.31C485.426 69.854 486.408 69.626 487.497 69.626C488.574 69.626 489.511 69.854 490.309 70.31C491.12 70.7533 491.709 71.393 492.076 72.229L489.777 73.464C489.245 72.5267 488.479 72.058 487.478 72.058C486.706 72.058 486.066 72.3113 485.559 72.818C485.053 73.3247 484.799 74.015 484.799 74.889C484.799 75.763 485.053 76.4533 485.559 76.96C486.066 77.4667 486.706 77.72 487.478 77.72C488.492 77.72 489.258 77.2513 489.777 76.314L492.076 77.568C491.709 78.3787 491.12 79.012 490.309 79.468C489.511 79.924 488.574 80.152 487.497 80.152ZM493.783 69.778H496.747V80H493.783V69.778ZM495.265 68.353C494.72 68.353 494.277 68.1947 493.935 67.878C493.593 67.5613 493.422 67.1687 493.422 66.7C493.422 66.2313 493.593 65.8387 493.935 65.522C494.277 65.2053 494.72 65.047 495.265 65.047C495.81 65.047 496.253 65.199 496.595 65.503C496.937 65.807 497.108 66.187 497.108 66.643C497.108 67.137 496.937 67.5487 496.595 67.878C496.253 68.1947 495.81 68.353 495.265 68.353ZM499.498 65.902H502.462V80H499.498V65.902Z" fill="white"/>
</svg>
