<svg width="542" height="114" viewBox="0 0 542 114" fill="none" xmlns="http://www.w3.org/2000/svg">
<rect x="26.0402" y="14.415" width="515.96" height="85.2381" fill="#3E4671"/>
<path d="M111.958 56.7209C111.958 86.9339 87.3513 111.442 56.9788 111.442C26.6063 111.442 2 86.9339 2 56.7209C2 26.5079 26.6063 2 56.9788 2C87.3513 2 111.958 26.5079 111.958 56.7209Z" fill="white" stroke="#3E4671" stroke-width="4"/>
<g clip-path="url(#clip0_207:57)">
<path d="M25.0456 56.7202C25.0456 48.3259 28.377 40.2754 34.3069 34.3397C40.2368 28.404 48.2795 25.0693 56.6657 25.0693C65.0519 25.0693 73.0946 28.404 79.0245 34.3397C84.9544 40.2754 88.2858 48.3259 88.2858 56.7202C88.2858 65.1146 84.9544 73.1651 79.0245 79.1008C73.0946 85.0365 65.0519 88.3711 56.6657 88.3711C48.2795 88.3711 40.2368 85.0365 34.3069 79.1008C28.377 73.1651 25.0456 65.1146 25.0456 56.7202V56.7202ZM54.6894 29.3303C52.0412 30.1374 49.4128 32.5746 47.231 36.6694C46.5122 38.0308 45.894 39.443 45.3813 40.8948H54.6894V29.3303ZM41.2114 40.8948C41.8701 38.7932 42.7168 36.7554 43.741 34.8059C44.4244 33.5124 45.2136 32.2778 46.1006 31.1147C41.2035 33.1475 36.9901 36.5413 33.9585 40.8948H41.2114ZM38.911 54.7421C39.0296 51.2723 39.4565 47.945 40.1442 44.8512H31.6621C30.1883 47.9571 29.3088 51.3119 29.0693 54.7421H38.911ZM44.2034 44.8512C43.426 48.0946 42.9784 51.4084 42.8675 54.7421H54.6894V44.8512H44.2034ZM58.6419 44.8512V54.7421H70.46C70.3504 51.4086 69.9042 48.0947 69.128 44.8512H58.6419ZM42.8714 58.6984C42.9811 62.0319 43.4274 65.3458 44.2034 68.5893H54.6894V58.6984H42.8714ZM58.6419 58.6984V68.5893H69.128C69.8671 65.5627 70.3374 62.2275 70.4639 58.6984H58.6419ZM45.3813 72.5457C45.9267 74.0729 46.5473 75.4892 47.231 76.7711C49.4128 80.8659 52.0452 83.2991 54.6894 84.1101V72.5457H45.3813ZM46.1006 82.3258C45.2136 81.1627 44.4243 79.9281 43.741 78.6345C42.7168 76.6851 41.8702 74.6472 41.2114 72.5457H33.9585C36.9899 76.8993 41.2034 80.2931 46.1006 82.3258V82.3258ZM40.1442 68.5893C39.4294 65.3375 39.0166 62.0264 38.911 58.6984H29.0693C29.3143 62.2196 30.2194 65.5548 31.6621 68.5893H40.1442ZM67.2308 82.3258C72.128 80.2931 76.3414 76.8993 79.3729 72.5457H72.12C71.4612 74.6472 70.6146 76.6851 69.5904 78.6345C68.9072 79.9282 68.1179 81.1628 67.2308 82.3258V82.3258ZM58.6419 72.5457V84.1101C61.2901 83.303 63.9185 80.8659 66.1003 76.7711C66.7841 75.4892 67.4047 74.0729 67.9501 72.5457H58.6419ZM73.1872 68.5893H81.6693C83.1119 65.5548 84.0171 62.2196 84.2621 58.6984H74.4204C74.3148 62.0264 73.902 65.3375 73.1872 68.5893ZM84.2621 54.7421C84.0225 51.3119 83.143 47.9571 81.6693 44.8512H73.1872C73.8749 47.945 74.3018 51.2723 74.4204 54.7421H84.2621ZM69.5904 34.8059C70.5667 36.6417 71.4165 38.6832 72.12 40.8948H79.3729C76.3414 36.5411 72.128 33.1474 67.2308 31.1147C68.0924 32.2383 68.8829 33.4806 69.5904 34.8059V34.8059ZM67.9501 40.8948C67.4375 39.443 66.8192 38.0307 66.1003 36.6694C63.9185 32.5746 61.2901 30.1414 58.6419 29.3303V40.8948H67.9501Z" fill="#3E4671"/>
</g>
<path d="M129.432 59.3438C130.192 59.5844 130.788 59.9898 131.218 60.5598C131.649 61.1171 131.864 61.8074 131.864 62.6308C131.864 63.7961 131.408 64.6954 130.496 65.3288C129.597 65.9494 128.28 66.2598 126.544 66.2598H119.666V52.9598H126.164C127.786 52.9598 129.027 53.2701 129.888 53.8908C130.762 54.5114 131.199 55.3538 131.199 56.4178C131.199 57.0638 131.041 57.6401 130.724 58.1468C130.42 58.6534 129.99 59.0524 129.432 59.3438ZM122.725 55.2778V58.4128H125.784C126.544 58.4128 127.121 58.2798 127.513 58.0138C127.906 57.7478 128.102 57.3551 128.102 56.8358C128.102 56.3164 127.906 55.9301 127.513 55.6768C127.121 55.4108 126.544 55.2778 125.784 55.2778H122.725ZM126.316 63.9418C127.127 63.9418 127.735 63.8088 128.14 63.5428C128.558 63.2768 128.767 62.8651 128.767 62.3078C128.767 61.2058 127.95 60.6548 126.316 60.6548H122.725V63.9418H126.316ZM136.817 57.3868C137.171 56.8928 137.646 56.5191 138.242 56.2658C138.85 56.0124 139.546 55.8858 140.332 55.8858V58.6218C140.002 58.5964 139.781 58.5838 139.667 58.5838C138.818 58.5838 138.153 58.8244 137.672 59.3058C137.19 59.7744 136.95 60.4838 136.95 61.4338V66.2598H133.986V56.0378H136.817V57.3868ZM146.161 55.8858C147.745 55.8858 148.961 56.2658 149.809 57.0258C150.658 57.7731 151.082 58.9068 151.082 60.4268V66.2598H148.308V64.9868C147.751 65.9368 146.712 66.4118 145.192 66.4118C144.407 66.4118 143.723 66.2788 143.14 66.0128C142.57 65.7468 142.133 65.3794 141.829 64.9108C141.525 64.4421 141.373 63.9101 141.373 63.3148C141.373 62.3648 141.728 61.6174 142.437 61.0728C143.159 60.5281 144.268 60.2558 145.762 60.2558H148.118C148.118 59.6098 147.922 59.1158 147.529 58.7738C147.137 58.4191 146.548 58.2418 145.762 58.2418C145.218 58.2418 144.679 58.3304 144.147 58.5078C143.628 58.6724 143.185 58.9004 142.817 59.1918L141.753 57.1208C142.311 56.7281 142.976 56.4241 143.748 56.2088C144.534 55.9934 145.338 55.8858 146.161 55.8858ZM145.933 64.4168C146.44 64.4168 146.89 64.3028 147.282 64.0748C147.675 63.8341 147.954 63.4858 148.118 63.0298V61.9848H146.085C144.869 61.9848 144.261 62.3838 144.261 63.1818C144.261 63.5618 144.407 63.8658 144.698 64.0938C145.002 64.3091 145.414 64.4168 145.933 64.4168ZM159.978 55.8858C161.245 55.8858 162.264 56.2658 163.037 57.0258C163.822 57.7858 164.215 58.9131 164.215 60.4078V66.2598H161.251V60.8638C161.251 60.0531 161.074 59.4514 160.719 59.0588C160.364 58.6534 159.851 58.4508 159.18 58.4508C158.433 58.4508 157.837 58.6851 157.394 59.1538C156.951 59.6098 156.729 60.2938 156.729 61.2058V66.2598H153.765V56.0378H156.596V57.2348C156.989 56.8041 157.476 56.4748 158.059 56.2468C158.642 56.0061 159.281 55.8858 159.978 55.8858ZM171.953 66.4118C170.864 66.4118 169.882 66.1901 169.008 65.7468C168.147 65.2908 167.469 64.6638 166.975 63.8658C166.494 63.0678 166.253 62.1621 166.253 61.1488C166.253 60.1354 166.494 59.2298 166.975 58.4318C167.469 57.6338 168.147 57.0131 169.008 56.5698C169.882 56.1138 170.864 55.8858 171.953 55.8858C173.03 55.8858 173.967 56.1138 174.765 56.5698C175.576 57.0131 176.165 57.6528 176.532 58.4888L174.233 59.7238C173.701 58.7864 172.935 58.3178 171.934 58.3178C171.161 58.3178 170.522 58.5711 170.015 59.0778C169.508 59.5844 169.255 60.2748 169.255 61.1488C169.255 62.0228 169.508 62.7131 170.015 63.2198C170.522 63.7264 171.161 63.9798 171.934 63.9798C172.947 63.9798 173.714 63.5111 174.233 62.5738L176.532 63.8278C176.165 64.6384 175.576 65.2718 174.765 65.7278C173.967 66.1838 173.03 66.4118 171.953 66.4118ZM184.377 55.8858C185.644 55.8858 186.664 56.2658 187.436 57.0258C188.222 57.7858 188.614 58.9131 188.614 60.4078V66.2598H185.65V60.8638C185.65 60.0531 185.473 59.4514 185.118 59.0588C184.764 58.6534 184.251 58.4508 183.579 58.4508C182.832 58.4508 182.237 58.6851 181.793 59.1538C181.35 59.6098 181.128 60.2938 181.128 61.2058V66.2598H178.164V52.1618H181.128V57.1018C181.521 56.7091 181.996 56.4114 182.553 56.2088C183.111 55.9934 183.719 55.8858 184.377 55.8858ZM201.546 66.4118C200.469 66.4118 199.5 66.1901 198.639 65.7468C197.79 65.2908 197.125 64.6638 196.644 63.8658C196.163 63.0678 195.922 62.1621 195.922 61.1488C195.922 60.1354 196.163 59.2298 196.644 58.4318C197.125 57.6338 197.79 57.0131 198.639 56.5698C199.5 56.1138 200.469 55.8858 201.546 55.8858C202.623 55.8858 203.585 56.1138 204.434 56.5698C205.283 57.0131 205.948 57.6338 206.429 58.4318C206.91 59.2298 207.151 60.1354 207.151 61.1488C207.151 62.1621 206.91 63.0678 206.429 63.8658C205.948 64.6638 205.283 65.2908 204.434 65.7468C203.585 66.1901 202.623 66.4118 201.546 66.4118ZM201.546 63.9798C202.306 63.9798 202.927 63.7264 203.408 63.2198C203.902 62.7004 204.149 62.0101 204.149 61.1488C204.149 60.2874 203.902 59.6034 203.408 59.0968C202.927 58.5774 202.306 58.3178 201.546 58.3178C200.786 58.3178 200.159 58.5774 199.665 59.0968C199.171 59.6034 198.924 60.2874 198.924 61.1488C198.924 62.0101 199.171 62.7004 199.665 63.2198C200.159 63.7264 200.786 63.9798 201.546 63.9798ZM212.381 56.2658H215.003V58.5458H212.457V66.2598H209.493V58.5458H207.916V56.2658H209.493V55.8098C209.493 54.6444 209.835 53.7198 210.519 53.0358C211.216 52.3518 212.191 52.0098 213.445 52.0098C213.889 52.0098 214.307 52.0604 214.699 52.1618C215.105 52.2504 215.44 52.3834 215.706 52.5608L214.927 54.7078C214.585 54.4671 214.186 54.3468 213.73 54.3468C212.831 54.3468 212.381 54.8408 212.381 55.8288V56.2658ZM219.729 56.2658H222.351V58.5458H219.805V66.2598H216.841V58.5458H215.264V56.2658H216.841V55.8098C216.841 54.6444 217.183 53.7198 217.867 53.0358C218.564 52.3518 219.539 52.0098 220.793 52.0098C221.236 52.0098 221.654 52.0604 222.047 52.1618C222.452 52.2504 222.788 52.3834 223.054 52.5608L222.275 54.7078C221.933 54.4671 221.534 54.3468 221.078 54.3468C220.179 54.3468 219.729 54.8408 219.729 55.8288V56.2658ZM225.353 56.0378H228.317V66.2598H225.353V56.0378ZM226.835 54.6128C226.29 54.6128 225.847 54.4544 225.505 54.1378C225.163 53.8211 224.992 53.4284 224.992 52.9598C224.992 52.4911 225.163 52.0984 225.505 51.7818C225.847 51.4651 226.29 51.3068 226.835 51.3068C227.38 51.3068 227.823 51.4588 228.165 51.7628C228.507 52.0668 228.678 52.4468 228.678 52.9028C228.678 53.3968 228.507 53.8084 228.165 54.1378C227.823 54.4544 227.38 54.6128 226.835 54.6128ZM236.004 66.4118C234.915 66.4118 233.933 66.1901 233.059 65.7468C232.198 65.2908 231.52 64.6638 231.026 63.8658C230.545 63.0678 230.304 62.1621 230.304 61.1488C230.304 60.1354 230.545 59.2298 231.026 58.4318C231.52 57.6338 232.198 57.0131 233.059 56.5698C233.933 56.1138 234.915 55.8858 236.004 55.8858C237.081 55.8858 238.018 56.1138 238.816 56.5698C239.627 57.0131 240.216 57.6528 240.583 58.4888L238.284 59.7238C237.752 58.7864 236.986 58.3178 235.985 58.3178C235.212 58.3178 234.573 58.5711 234.066 59.0778C233.559 59.5844 233.306 60.2748 233.306 61.1488C233.306 62.0228 233.559 62.7131 234.066 63.2198C234.573 63.7264 235.212 63.9798 235.985 63.9798C236.998 63.9798 237.765 63.5111 238.284 62.5738L240.583 63.8278C240.216 64.6384 239.627 65.2718 238.816 65.7278C238.018 66.1838 237.081 66.4118 236.004 66.4118ZM252.173 61.1868C252.173 61.2248 252.154 61.4908 252.116 61.9848H244.383C244.522 62.6181 244.851 63.1184 245.371 63.4858C245.89 63.8531 246.536 64.0368 247.309 64.0368C247.841 64.0368 248.309 63.9608 248.715 63.8088C249.133 63.6441 249.519 63.3908 249.874 63.0488L251.451 64.7588C250.488 65.8608 249.082 66.4118 247.233 66.4118C246.08 66.4118 245.06 66.1901 244.174 65.7468C243.287 65.2908 242.603 64.6638 242.122 63.8658C241.64 63.0678 241.4 62.1621 241.4 61.1488C241.4 60.1481 241.634 59.2488 242.103 58.4508C242.584 57.6401 243.236 57.0131 244.06 56.5698C244.896 56.1138 245.827 55.8858 246.853 55.8858C247.853 55.8858 248.759 56.1011 249.57 56.5318C250.38 56.9624 251.014 57.5831 251.47 58.3938C251.938 59.1918 252.173 60.1228 252.173 61.1868ZM246.872 58.1278C246.2 58.1278 245.637 58.3178 245.181 58.6978C244.725 59.0778 244.446 59.5971 244.345 60.2558H249.38C249.278 59.6098 249 59.0968 248.544 58.7168C248.088 58.3241 247.53 58.1278 246.872 58.1278ZM265.74 55.8858C267.006 55.8858 268.026 56.2658 268.799 57.0258C269.584 57.7858 269.977 58.9131 269.977 60.4078V66.2598H267.013V60.8638C267.013 60.0531 266.835 59.4514 266.481 59.0588C266.126 58.6534 265.613 58.4508 264.942 58.4508C264.194 58.4508 263.599 58.6851 263.156 59.1538C262.712 59.6098 262.491 60.2938 262.491 61.2058V66.2598H259.527V56.0378H262.358V57.2348C262.75 56.8041 263.238 56.4748 263.821 56.2468C264.403 56.0061 265.043 55.8858 265.74 55.8858ZM282.788 61.1868C282.788 61.2248 282.769 61.4908 282.731 61.9848H274.998C275.137 62.6181 275.466 63.1184 275.986 63.4858C276.505 63.8531 277.151 64.0368 277.924 64.0368C278.456 64.0368 278.924 63.9608 279.33 63.8088C279.748 63.6441 280.134 63.3908 280.489 63.0488L282.066 64.7588C281.103 65.8608 279.697 66.4118 277.848 66.4118C276.695 66.4118 275.675 66.1901 274.789 65.7468C273.902 65.2908 273.218 64.6638 272.737 63.8658C272.255 63.0678 272.015 62.1621 272.015 61.1488C272.015 60.1481 272.249 59.2488 272.718 58.4508C273.199 57.6401 273.851 57.0131 274.675 56.5698C275.511 56.1138 276.442 55.8858 277.468 55.8858C278.468 55.8858 279.374 56.1011 280.185 56.5318C280.995 56.9624 281.629 57.5831 282.085 58.3938C282.553 59.1918 282.788 60.1228 282.788 61.1868ZM277.487 58.1278C276.815 58.1278 276.252 58.3178 275.796 58.6978C275.34 59.0778 275.061 59.5971 274.96 60.2558H279.995C279.893 59.6098 279.615 59.0968 279.159 58.7168C278.703 58.3241 278.145 58.1278 277.487 58.1278ZM291.354 65.7658C291.063 65.9811 290.702 66.1458 290.271 66.2598C289.853 66.3611 289.41 66.4118 288.941 66.4118C287.725 66.4118 286.781 66.1014 286.11 65.4808C285.451 64.8601 285.122 63.9481 285.122 62.7448V58.5458H283.545V56.2658H285.122V53.7768H288.086V56.2658H290.632V58.5458H288.086V62.7068C288.086 63.1374 288.194 63.4731 288.409 63.7138C288.637 63.9418 288.954 64.0558 289.359 64.0558C289.828 64.0558 290.227 63.9291 290.556 63.6758L291.354 65.7658ZM309.248 56.0378L305.543 66.2598H302.693L300.394 59.9138L298.019 66.2598H295.169L291.483 56.0378H294.276L296.689 62.9538L299.197 56.0378H301.705L304.137 62.9538L306.626 56.0378H309.248ZM315.212 66.4118C314.135 66.4118 313.166 66.1901 312.305 65.7468C311.456 65.2908 310.791 64.6638 310.31 63.8658C309.829 63.0678 309.588 62.1621 309.588 61.1488C309.588 60.1354 309.829 59.2298 310.31 58.4318C310.791 57.6338 311.456 57.0131 312.305 56.5698C313.166 56.1138 314.135 55.8858 315.212 55.8858C316.289 55.8858 317.251 56.1138 318.1 56.5698C318.949 57.0131 319.614 57.6338 320.095 58.4318C320.576 59.2298 320.817 60.1354 320.817 61.1488C320.817 62.1621 320.576 63.0678 320.095 63.8658C319.614 64.6638 318.949 65.2908 318.1 65.7468C317.251 66.1901 316.289 66.4118 315.212 66.4118ZM315.212 63.9798C315.972 63.9798 316.593 63.7264 317.074 63.2198C317.568 62.7004 317.815 62.0101 317.815 61.1488C317.815 60.2874 317.568 59.6034 317.074 59.0968C316.593 58.5774 315.972 58.3178 315.212 58.3178C314.452 58.3178 313.825 58.5774 313.331 59.0968C312.837 59.6034 312.59 60.2874 312.59 61.1488C312.59 62.0101 312.837 62.7004 313.331 63.2198C313.825 63.7264 314.452 63.9798 315.212 63.9798ZM325.629 57.3868C325.984 56.8928 326.459 56.5191 327.054 56.2658C327.662 56.0124 328.359 55.8858 329.144 55.8858V58.6218C328.815 58.5964 328.593 58.5838 328.479 58.5838C327.631 58.5838 326.966 58.8244 326.484 59.3058C326.003 59.7744 325.762 60.4838 325.762 61.4338V66.2598H322.798V56.0378H325.629V57.3868ZM335.296 62.2508L333.871 63.6568V66.2598H330.907V52.1618H333.871V60.1418L338.203 56.0378H341.737L337.481 60.3698L342.117 66.2598H338.526L335.296 62.2508ZM352.953 55.8858C354.537 55.8858 355.753 56.2658 356.601 57.0258C357.45 57.7731 357.874 58.9068 357.874 60.4268V66.2598H355.1V64.9868C354.543 65.9368 353.504 66.4118 351.984 66.4118C351.199 66.4118 350.515 66.2788 349.932 66.0128C349.362 65.7468 348.925 65.3794 348.621 64.9108C348.317 64.4421 348.165 63.9101 348.165 63.3148C348.165 62.3648 348.52 61.6174 349.229 61.0728C349.951 60.5281 351.06 60.2558 352.554 60.2558H354.91C354.91 59.6098 354.714 59.1158 354.321 58.7738C353.929 58.4191 353.34 58.2418 352.554 58.2418C352.01 58.2418 351.471 58.3304 350.939 58.5078C350.42 58.6724 349.977 58.9004 349.609 59.1918L348.545 57.1208C349.103 56.7281 349.768 56.4241 350.54 56.2088C351.326 55.9934 352.13 55.8858 352.953 55.8858ZM352.725 64.4168C353.232 64.4168 353.682 64.3028 354.074 64.0748C354.467 63.8341 354.746 63.4858 354.91 63.0298V61.9848H352.877C351.661 61.9848 351.053 62.3838 351.053 63.1818C351.053 63.5618 351.199 63.8658 351.49 64.0938C351.794 64.3091 352.206 64.4168 352.725 64.4168ZM366.599 55.8858C367.549 55.8858 368.41 56.1074 369.183 56.5508C369.968 56.9814 370.583 57.5958 371.026 58.3938C371.469 59.1791 371.691 60.0974 371.691 61.1488C371.691 62.2001 371.469 63.1248 371.026 63.9228C370.583 64.7081 369.968 65.3224 369.183 65.7658C368.41 66.1964 367.549 66.4118 366.599 66.4118C365.193 66.4118 364.123 65.9684 363.388 65.0818V66.2598H360.557V52.1618H363.521V57.1208C364.268 56.2974 365.294 55.8858 366.599 55.8858ZM366.086 63.9798C366.846 63.9798 367.467 63.7264 367.948 63.2198C368.442 62.7004 368.689 62.0101 368.689 61.1488C368.689 60.2874 368.442 59.6034 367.948 59.0968C367.467 58.5774 366.846 58.3178 366.086 58.3178C365.326 58.3178 364.699 58.5774 364.205 59.0968C363.724 59.6034 363.483 60.2874 363.483 61.1488C363.483 62.0101 363.724 62.7004 364.205 63.2198C364.699 63.7264 365.326 63.9798 366.086 63.9798ZM376.506 57.3868C376.861 56.8928 377.336 56.5191 377.931 56.2658C378.539 56.0124 379.236 55.8858 380.021 55.8858V58.6218C379.692 58.5964 379.47 58.5838 379.356 58.5838C378.508 58.5838 377.843 58.8244 377.361 59.3058C376.88 59.7744 376.639 60.4838 376.639 61.4338V66.2598H373.675V56.0378H376.506V57.3868ZM386.555 66.4118C385.478 66.4118 384.509 66.1901 383.648 65.7468C382.799 65.2908 382.134 64.6638 381.653 63.8658C381.171 63.0678 380.931 62.1621 380.931 61.1488C380.931 60.1354 381.171 59.2298 381.653 58.4318C382.134 57.6338 382.799 57.0131 383.648 56.5698C384.509 56.1138 385.478 55.8858 386.555 55.8858C387.631 55.8858 388.594 56.1138 389.443 56.5698C390.291 57.0131 390.956 57.6338 391.438 58.4318C391.919 59.2298 392.16 60.1354 392.16 61.1488C392.16 62.1621 391.919 63.0678 391.438 63.8658C390.956 64.6638 390.291 65.2908 389.443 65.7468C388.594 66.1901 387.631 66.4118 386.555 66.4118ZM386.555 63.9798C387.315 63.9798 387.935 63.7264 388.417 63.2198C388.911 62.7004 389.158 62.0101 389.158 61.1488C389.158 60.2874 388.911 59.6034 388.417 59.0968C387.935 58.5774 387.315 58.3178 386.555 58.3178C385.795 58.3178 385.168 58.5774 384.674 59.0968C384.18 59.6034 383.933 60.2874 383.933 61.1488C383.933 62.0101 384.18 62.7004 384.674 63.2198C385.168 63.7264 385.795 63.9798 386.555 63.9798ZM398.097 55.8858C399.68 55.8858 400.896 56.2658 401.745 57.0258C402.594 57.7731 403.018 58.9068 403.018 60.4268V66.2598H400.244V64.9868C399.687 65.9368 398.648 66.4118 397.128 66.4118C396.343 66.4118 395.659 66.2788 395.076 66.0128C394.506 65.7468 394.069 65.3794 393.765 64.9108C393.461 64.4421 393.309 63.9101 393.309 63.3148C393.309 62.3648 393.664 61.6174 394.373 61.0728C395.095 60.5281 396.203 60.2558 397.698 60.2558H400.054C400.054 59.6098 399.858 59.1158 399.465 58.7738C399.072 58.4191 398.483 58.2418 397.698 58.2418C397.153 58.2418 396.615 58.3304 396.083 58.5078C395.564 58.6724 395.12 58.9004 394.753 59.1918L393.689 57.1208C394.246 56.7281 394.911 56.4241 395.684 56.2088C396.469 55.9934 397.274 55.8858 398.097 55.8858ZM397.869 64.4168C398.376 64.4168 398.825 64.3028 399.218 64.0748C399.611 63.8341 399.889 63.4858 400.054 63.0298V61.9848H398.021C396.805 61.9848 396.197 62.3838 396.197 63.1818C396.197 63.5618 396.343 63.8658 396.634 64.0938C396.938 64.3091 397.35 64.4168 397.869 64.4168ZM416.224 52.1618V66.2598H413.393V65.0818C412.658 65.9684 411.594 66.4118 410.201 66.4118C409.238 66.4118 408.364 66.1964 407.579 65.7658C406.806 65.3351 406.198 64.7208 405.755 63.9228C405.312 63.1248 405.09 62.2001 405.09 61.1488C405.09 60.0974 405.312 59.1728 405.755 58.3748C406.198 57.5768 406.806 56.9624 407.579 56.5318C408.364 56.1011 409.238 55.8858 410.201 55.8858C411.506 55.8858 412.525 56.2974 413.26 57.1208V52.1618H416.224ZM410.714 63.9798C411.461 63.9798 412.082 63.7264 412.576 63.2198C413.07 62.7004 413.317 62.0101 413.317 61.1488C413.317 60.2874 413.07 59.6034 412.576 59.0968C412.082 58.5774 411.461 58.3178 410.714 58.3178C409.954 58.3178 409.327 58.5774 408.833 59.0968C408.339 59.6034 408.092 60.2874 408.092 61.1488C408.092 62.0101 408.339 62.7004 408.833 63.2198C409.327 63.7264 409.954 63.9798 410.714 63.9798Z" fill="white"/>
<defs>
<clipPath id="clip0_207:57">
<rect width="63.2402" height="63.3018" fill="white" transform="translate(25.0456 25.0693)"/>
</clipPath>
</defs>
</svg>
