<svg width="645" height="135" viewBox="0 0 645 135" fill="none" xmlns="http://www.w3.org/2000/svg">
<rect x="32.5386" y="17.1543" width="612.316" height="101.436" fill="#3E4671"/>
<path d="M137.716 67.5C137.716 103.61 107.4 133 69.8582 133C32.3158 133 2 103.61 2 67.5C2 31.3895 32.3158 2 69.8582 2C107.4 2 137.716 31.3895 137.716 67.5Z" fill="white" stroke="#3E4671" stroke-width="4"/>
<g clip-path="url(#clip0)">
<path d="M98.5495 79.6483C98.6737 79.4053 98.738 79.1375 98.7371 78.8662C98.7363 78.5949 98.6704 78.3274 98.5447 78.0852L96.2235 74.7988C96.1799 74.7376 96.1556 74.667 96.1556 74.587C96.1556 74.5069 96.1799 74.4363 96.2235 74.3751L98.5495 71.0793C98.6737 70.8363 98.738 70.5685 98.7371 70.2972C98.7363 70.0259 98.6704 69.7585 98.5447 69.5162C98.4482 69.261 98.2961 69.0292 98.0987 68.8366C97.9012 68.644 97.6633 68.4951 97.401 68.4004L93.4128 66.9832C93.3392 66.9588 93.2735 66.9159 93.2224 66.8588C93.1714 66.8018 93.1367 66.7326 93.1221 66.6583V62.6987C93.1067 62.4186 93.0247 62.1457 92.8826 61.9015C92.7406 61.6572 92.5422 61.4483 92.3031 61.2909C91.9734 61.072 91.5831 60.9554 91.1837 60.9567H90.3599L86.2409 61.9925C86.1305 62.0357 86.0072 62.0357 85.8968 61.9925L83.2364 58.9321C83.0421 58.727 82.8062 58.5632 82.5434 58.4511C82.2807 58.3391 81.9969 58.2812 81.7099 58.2812C81.423 58.2812 81.1392 58.3391 80.8764 58.4511C80.6137 58.5632 80.3777 58.727 80.1835 58.9321L77.5182 61.9925C77.4078 62.0357 77.2845 62.0357 77.1741 61.9925H77.179L72.8176 60.9096H72.2943C71.8904 60.9084 71.4954 61.0248 71.1603 61.2439C70.9233 61.4017 70.7267 61.6103 70.5855 61.8535C70.4444 62.0967 70.3625 62.3682 70.3462 62.6469V66.6065C70.3323 66.6809 70.2986 66.7505 70.2485 66.8083C70.1983 66.8661 70.1334 66.9102 70.0603 66.9361L66.0818 68.3486C65.6268 68.4208 65.2127 68.6472 64.9129 68.9875C64.6131 69.3279 64.447 69.7603 64.4439 70.2083C64.4439 70.4908 64.5117 70.7592 64.6329 70.9946L66.9541 74.2809C66.9977 74.3421 67.0219 74.4128 67.0219 74.4928C67.0219 74.5728 66.9977 74.6435 66.9541 74.7047L64.628 78.0004C64.5038 78.2434 64.4396 78.5112 64.4404 78.7825C64.4413 79.0539 64.5072 79.3213 64.6329 79.5635C64.7293 79.8187 64.8815 80.0506 65.0789 80.2432C65.2763 80.4358 65.5143 80.5846 65.7765 80.6794L69.7647 82.0966C69.8384 82.121 69.9041 82.1639 69.9551 82.2209C70.0062 82.278 70.0408 82.3472 70.0555 82.4214V86.3811C70.0709 86.6612 70.1528 86.9341 70.2949 87.1783C70.437 87.4225 70.6353 87.6315 70.8744 87.7888C71.2095 88.0078 71.6045 88.1243 72.0084 88.1231H72.8225L74.3247 87.7935V105.167L81.739 95.7504L88.8625 105.167V87.7935L90.3648 88.1702H90.9366C91.3404 88.1713 91.7354 88.0549 92.0705 87.8359C92.3076 87.678 92.5042 87.4695 92.6453 87.2262C92.7865 86.983 92.8683 86.7116 92.8846 86.4328V82.4732C92.8985 82.3988 92.9322 82.3293 92.9824 82.2714C93.0326 82.2136 93.0974 82.1696 93.1705 82.1437L97.1491 80.7312C97.4527 80.6729 97.7379 80.5458 97.9812 80.36C98.2246 80.1743 98.4194 79.9352 98.5495 79.6624V79.6483Z" fill="#3E4671"/>
<path d="M30.7069 34.542V91.0406H69.4743L68.9413 90.8052C68.2511 90.346 67.6783 89.7393 67.2667 89.0318C66.8551 88.3242 66.6157 87.5345 66.5668 86.7232V86.3324H35.5528V39.2502H103.396V86.3324H96.4662V86.709C96.4191 87.5194 96.1826 88.3086 95.7745 89.0167C95.3664 89.7249 94.7975 90.3333 94.111 90.7958L93.704 91.0406H108.242V34.542H30.7069Z" fill="#3E4671"/>
<path d="M66.7121 62.3679C66.728 61.525 66.9498 60.6978 67.3592 59.9545C67.7687 59.2113 68.3541 58.5732 69.0672 58.0928C69.2019 58.0585 69.3429 58.0553 69.4791 58.0834H45.2446V62.7916H66.7121V62.3679Z" fill="#3E4671"/>
<path d="M61.8177 67.5H45.2446V72.2082H61.527C61.1933 71.608 60.9999 70.9436 60.9605 70.2625C60.9212 69.5814 61.0368 68.9002 61.2992 68.2674C61.3764 67.9615 61.5595 67.6905 61.8177 67.5Z" fill="#3E4671"/>
<path d="M45.2446 48.667H93.7039V53.3752H45.2446V48.667Z" fill="#3E4671"/>
</g>
<path d="M153.868 65.2569C152.37 65.2569 151.012 64.9349 149.794 64.2909C148.59 63.6329 147.638 62.7299 146.938 61.5819C146.252 60.4199 145.909 59.1109 145.909 57.6549C145.909 56.1989 146.252 54.8969 146.938 53.7489C147.638 52.5869 148.59 51.6839 149.794 51.0399C151.012 50.3819 152.377 50.0529 153.889 50.0529C155.163 50.0529 156.311 50.2769 157.333 50.7249C158.369 51.1729 159.237 51.8169 159.937 52.6569L157.753 54.6729C156.759 53.5249 155.527 52.9509 154.057 52.9509C153.147 52.9509 152.335 53.1539 151.621 53.5599C150.907 53.9519 150.347 54.5049 149.941 55.2189C149.549 55.9329 149.353 56.7449 149.353 57.6549C149.353 58.5649 149.549 59.3769 149.941 60.0909C150.347 60.8049 150.907 61.3649 151.621 61.7709C152.335 62.1629 153.147 62.3589 154.057 62.3589C155.527 62.3589 156.759 61.7779 157.753 60.6159L159.937 62.6319C159.237 63.4859 158.369 64.1369 157.333 64.5849C156.297 65.0329 155.142 65.2569 153.868 65.2569ZM172.681 59.3979C172.681 59.4399 172.66 59.7339 172.618 60.2799H164.071C164.225 60.9799 164.589 61.5329 165.163 61.9389C165.737 62.3449 166.451 62.5479 167.305 62.5479C167.893 62.5479 168.411 62.4639 168.859 62.2959C169.321 62.1139 169.748 61.8339 170.14 61.4559L171.883 63.3459C170.819 64.5639 169.265 65.1729 167.221 65.1729C165.947 65.1729 164.82 64.9279 163.84 64.4379C162.86 63.9339 162.104 63.2409 161.572 62.3589C161.04 61.4769 160.774 60.4759 160.774 59.3559C160.774 58.2499 161.033 57.2559 161.551 56.3739C162.083 55.4779 162.804 54.7849 163.714 54.2949C164.638 53.7909 165.667 53.5389 166.801 53.5389C167.907 53.5389 168.908 53.7769 169.804 54.2529C170.7 54.7289 171.4 55.4149 171.904 56.3109C172.422 57.1929 172.681 58.2219 172.681 59.3979ZM166.822 56.0169C166.08 56.0169 165.457 56.2269 164.953 56.6469C164.449 57.0669 164.141 57.6409 164.029 58.3689H169.594C169.482 57.6549 169.174 57.0879 168.67 56.6679C168.166 56.2339 167.55 56.0169 166.822 56.0169ZM177.991 55.1979C178.383 54.6519 178.908 54.2389 179.566 53.9589C180.238 53.6789 181.008 53.5389 181.876 53.5389V56.5629C181.512 56.5349 181.267 56.5209 181.141 56.5209C180.203 56.5209 179.468 56.7869 178.936 57.3189C178.404 57.8369 178.138 58.6209 178.138 59.6709V65.0049H174.862V53.7069H177.991V55.1979ZM191.5 64.4589C191.178 64.6969 190.779 64.8789 190.303 65.0049C189.841 65.1169 189.351 65.1729 188.833 65.1729C187.489 65.1729 186.446 64.8299 185.704 64.1439C184.976 63.4579 184.612 62.4499 184.612 61.1199V56.4789H182.869V53.9589H184.612V51.2079H187.888V53.9589H190.702V56.4789H187.888V61.0779C187.888 61.5539 188.007 61.9249 188.245 62.1909C188.497 62.4429 188.847 62.5689 189.295 62.5689C189.813 62.5689 190.254 62.4289 190.618 62.1489L191.5 64.4589ZM193.339 53.7069H196.615V65.0049H193.339V53.7069ZM194.977 52.1319C194.375 52.1319 193.885 51.9569 193.507 51.6069C193.129 51.2569 192.94 50.8229 192.94 50.3049C192.94 49.7869 193.129 49.3529 193.507 49.0029C193.885 48.6529 194.375 48.4779 194.977 48.4779C195.579 48.4779 196.069 48.6459 196.447 48.9819C196.825 49.3179 197.014 49.7379 197.014 50.2419C197.014 50.7879 196.825 51.2429 196.447 51.6069C196.069 51.9569 195.579 52.1319 194.977 52.1319ZM203.247 53.9589H206.145V56.4789H203.331V65.0049H200.055V56.4789H198.312V53.9589H200.055V53.4549C200.055 52.1669 200.433 51.1449 201.189 50.3889C201.959 49.6329 203.037 49.2549 204.423 49.2549C204.913 49.2549 205.375 49.3109 205.809 49.4229C206.257 49.5209 206.628 49.6679 206.922 49.8639L206.061 52.2369C205.683 51.9709 205.242 51.8379 204.738 51.8379C203.744 51.8379 203.247 52.3839 203.247 53.4759V53.9589ZM209.463 53.7069H212.739V65.0049H209.463V53.7069ZM211.101 52.1319C210.499 52.1319 210.009 51.9569 209.631 51.6069C209.253 51.2569 209.064 50.8229 209.064 50.3049C209.064 49.7869 209.253 49.3529 209.631 49.0029C210.009 48.6529 210.499 48.4779 211.101 48.4779C211.703 48.4779 212.193 48.6459 212.571 48.9819C212.949 49.3179 213.138 49.7379 213.138 50.2419C213.138 50.7879 212.949 51.2429 212.571 51.6069C212.193 51.9569 211.703 52.1319 211.101 52.1319ZM226.842 59.3979C226.842 59.4399 226.821 59.7339 226.779 60.2799H218.232C218.386 60.9799 218.75 61.5329 219.324 61.9389C219.898 62.3449 220.612 62.5479 221.466 62.5479C222.054 62.5479 222.572 62.4639 223.02 62.2959C223.482 62.1139 223.909 61.8339 224.301 61.4559L226.044 63.3459C224.98 64.5639 223.426 65.1729 221.382 65.1729C220.108 65.1729 218.981 64.9279 218.001 64.4379C217.021 63.9339 216.265 63.2409 215.733 62.3589C215.201 61.4769 214.935 60.4759 214.935 59.3559C214.935 58.2499 215.194 57.2559 215.712 56.3739C216.244 55.4779 216.965 54.7849 217.875 54.2949C218.799 53.7909 219.828 53.5389 220.962 53.5389C222.068 53.5389 223.069 53.7769 223.965 54.2529C224.861 54.7289 225.561 55.4149 226.065 56.3109C226.583 57.1929 226.842 58.2219 226.842 59.3979ZM220.983 56.0169C220.241 56.0169 219.618 56.2269 219.114 56.6469C218.61 57.0669 218.302 57.6409 218.19 58.3689H223.755C223.643 57.6549 223.335 57.0879 222.831 56.6679C222.327 56.2339 221.711 56.0169 220.983 56.0169ZM240.531 49.4229V65.0049H237.402V63.7029C236.59 64.6829 235.414 65.1729 233.874 65.1729C232.81 65.1729 231.844 64.9349 230.976 64.4589C230.122 63.9829 229.45 63.3039 228.96 62.4219C228.47 61.5399 228.225 60.5179 228.225 59.3559C228.225 58.1939 228.47 57.1719 228.96 56.2899C229.45 55.4079 230.122 54.7289 230.976 54.2529C231.844 53.7769 232.81 53.5389 233.874 53.5389C235.316 53.5389 236.443 53.9939 237.255 54.9039V49.4229H240.531ZM234.441 62.4849C235.267 62.4849 235.953 62.2049 236.499 61.6449C237.045 61.0709 237.318 60.3079 237.318 59.3559C237.318 58.4039 237.045 57.6479 236.499 57.0879C235.953 56.5139 235.267 56.2269 234.441 56.2269C233.601 56.2269 232.908 56.5139 232.362 57.0879C231.816 57.6479 231.543 58.4039 231.543 59.3559C231.543 60.3079 231.816 61.0709 232.362 61.6449C232.908 62.2049 233.601 62.4849 234.441 62.4849ZM260.577 59.3979C260.577 59.4399 260.556 59.7339 260.514 60.2799H251.967C252.121 60.9799 252.485 61.5329 253.059 61.9389C253.633 62.3449 254.347 62.5479 255.201 62.5479C255.789 62.5479 256.307 62.4639 256.755 62.2959C257.217 62.1139 257.644 61.8339 258.036 61.4559L259.779 63.3459C258.715 64.5639 257.161 65.1729 255.117 65.1729C253.843 65.1729 252.716 64.9279 251.736 64.4379C250.756 63.9339 250 63.2409 249.468 62.3589C248.936 61.4769 248.67 60.4759 248.67 59.3559C248.67 58.2499 248.929 57.2559 249.447 56.3739C249.979 55.4779 250.7 54.7849 251.61 54.2949C252.534 53.7909 253.563 53.5389 254.697 53.5389C255.803 53.5389 256.804 53.7769 257.7 54.2529C258.596 54.7289 259.296 55.4149 259.8 56.3109C260.318 57.1929 260.577 58.2219 260.577 59.3979ZM254.718 56.0169C253.976 56.0169 253.353 56.2269 252.849 56.6469C252.345 57.0669 252.037 57.6409 251.925 58.3689H257.49C257.378 57.6549 257.07 57.0879 256.566 56.6679C256.062 56.2339 255.446 56.0169 254.718 56.0169ZM269.633 65.0049L267.155 61.5399L264.593 65.0049H261.023L265.37 59.3139L261.17 53.7069H264.845L267.239 57.0039L269.696 53.7069H273.182L268.982 59.2299L273.35 65.0049H269.633ZM281.618 53.5389C282.668 53.5389 283.62 53.7839 284.474 54.2739C285.342 54.7499 286.021 55.4289 286.511 56.3109C287.001 57.1789 287.246 58.1939 287.246 59.3559C287.246 60.5179 287.001 61.5399 286.511 62.4219C286.021 63.2899 285.342 63.9689 284.474 64.4589C283.62 64.9349 282.668 65.1729 281.618 65.1729C280.176 65.1729 279.042 64.7179 278.216 63.8079V69.0789H274.94V53.7069H278.069V55.0089C278.881 54.0289 280.064 53.5389 281.618 53.5389ZM281.051 62.4849C281.891 62.4849 282.577 62.2049 283.109 61.6449C283.655 61.0709 283.928 60.3079 283.928 59.3559C283.928 58.4039 283.655 57.6479 283.109 57.0879C282.577 56.5139 281.891 56.2269 281.051 56.2269C280.211 56.2269 279.518 56.5139 278.972 57.0879C278.44 57.6479 278.174 58.4039 278.174 59.3559C278.174 60.3079 278.44 61.0709 278.972 61.6449C279.518 62.2049 280.211 62.4849 281.051 62.4849ZM300.506 59.3979C300.506 59.4399 300.485 59.7339 300.443 60.2799H291.896C292.05 60.9799 292.414 61.5329 292.988 61.9389C293.562 62.3449 294.276 62.5479 295.13 62.5479C295.718 62.5479 296.236 62.4639 296.684 62.2959C297.146 62.1139 297.573 61.8339 297.965 61.4559L299.708 63.3459C298.644 64.5639 297.09 65.1729 295.046 65.1729C293.772 65.1729 292.645 64.9279 291.665 64.4379C290.685 63.9339 289.929 63.2409 289.397 62.3589C288.865 61.4769 288.599 60.4759 288.599 59.3559C288.599 58.2499 288.858 57.2559 289.376 56.3739C289.908 55.4779 290.629 54.7849 291.539 54.2949C292.463 53.7909 293.492 53.5389 294.626 53.5389C295.732 53.5389 296.733 53.7769 297.629 54.2529C298.525 54.7289 299.225 55.4149 299.729 56.3109C300.247 57.1929 300.506 58.2219 300.506 59.3979ZM294.647 56.0169C293.905 56.0169 293.282 56.2269 292.778 56.6469C292.274 57.0669 291.966 57.6409 291.854 58.3689H297.419C297.307 57.6549 296.999 57.0879 296.495 56.6679C295.991 56.2339 295.375 56.0169 294.647 56.0169ZM305.816 55.1979C306.208 54.6519 306.733 54.2389 307.391 53.9589C308.063 53.6789 308.833 53.5389 309.701 53.5389V56.5629C309.337 56.5349 309.092 56.5209 308.966 56.5209C308.028 56.5209 307.293 56.7869 306.761 57.3189C306.229 57.8369 305.963 58.6209 305.963 59.6709V65.0049H302.687V53.7069H305.816V55.1979ZM319.325 64.4589C319.003 64.6969 318.604 64.8789 318.128 65.0049C317.666 65.1169 317.176 65.1729 316.658 65.1729C315.314 65.1729 314.271 64.8299 313.529 64.1439C312.801 63.4579 312.437 62.4499 312.437 61.1199V56.4789H310.694V53.9589H312.437V51.2079H315.713V53.9589H318.527V56.4789H315.713V61.0779C315.713 61.5539 315.832 61.9249 316.07 62.1909C316.322 62.4429 316.672 62.5689 317.12 62.5689C317.638 62.5689 318.079 62.4289 318.443 62.1489L319.325 64.4589ZM324.965 65.1729C324.027 65.1729 323.11 65.0609 322.214 64.8369C321.318 64.5989 320.604 64.3049 320.072 63.9549L321.164 61.6029C321.668 61.9249 322.277 62.1909 322.991 62.4009C323.705 62.5969 324.405 62.6949 325.091 62.6949C326.477 62.6949 327.17 62.3519 327.17 61.6659C327.17 61.3439 326.981 61.1129 326.603 60.9729C326.225 60.8329 325.644 60.7139 324.86 60.6159C323.936 60.4759 323.173 60.3149 322.571 60.1329C321.969 59.9509 321.444 59.6289 320.996 59.1669C320.562 58.7049 320.345 58.0469 320.345 57.1929C320.345 56.4789 320.548 55.8489 320.954 55.3029C321.374 54.7429 321.976 54.3089 322.76 54.0009C323.558 53.6929 324.496 53.5389 325.574 53.5389C326.372 53.5389 327.163 53.6299 327.947 53.8119C328.745 53.9799 329.403 54.2179 329.921 54.5259L328.829 56.8569C327.835 56.2969 326.75 56.0169 325.574 56.0169C324.874 56.0169 324.349 56.1149 323.999 56.3109C323.649 56.5069 323.474 56.7589 323.474 57.0669C323.474 57.4169 323.663 57.6619 324.041 57.8019C324.419 57.9419 325.021 58.0749 325.847 58.2009C326.771 58.3549 327.527 58.5229 328.115 58.7049C328.703 58.8729 329.214 59.1879 329.648 59.6499C330.082 60.1119 330.299 60.7559 330.299 61.5819C330.299 62.2819 330.089 62.9049 329.669 63.4509C329.249 63.9969 328.633 64.4239 327.821 64.7319C327.023 65.0259 326.071 65.1729 324.965 65.1729ZM342.825 53.5389C344.575 53.5389 345.919 53.9589 346.857 54.7989C347.795 55.6249 348.264 56.8779 348.264 58.5579V65.0049H345.198V63.5979C344.582 64.6479 343.434 65.1729 341.754 65.1729C340.886 65.1729 340.13 65.0259 339.486 64.7319C338.856 64.4379 338.373 64.0319 338.037 63.5139C337.701 62.9959 337.533 62.4079 337.533 61.7499C337.533 60.6999 337.925 59.8739 338.709 59.2719C339.507 58.6699 340.732 58.3689 342.384 58.3689H344.988C344.988 57.6549 344.771 57.1089 344.337 56.7309C343.903 56.3389 343.252 56.1429 342.384 56.1429C341.782 56.1429 341.187 56.2409 340.599 56.4369C340.025 56.6189 339.535 56.8709 339.129 57.1929L337.953 54.9039C338.569 54.4699 339.304 54.1339 340.158 53.8959C341.026 53.6579 341.915 53.5389 342.825 53.5389ZM342.573 62.9679C343.133 62.9679 343.63 62.8419 344.064 62.5899C344.498 62.3239 344.806 61.9389 344.988 61.4349V60.2799H342.741C341.397 60.2799 340.725 60.7209 340.725 61.6029C340.725 62.0229 340.886 62.3589 341.208 62.6109C341.544 62.8489 341.999 62.9679 342.573 62.9679ZM358.096 53.5389C359.496 53.5389 360.623 53.9589 361.477 54.7989C362.345 55.6389 362.779 56.8849 362.779 58.5369V65.0049H359.503V59.0409C359.503 58.1449 359.307 57.4799 358.915 57.0459C358.523 56.5979 357.956 56.3739 357.214 56.3739C356.388 56.3739 355.73 56.6329 355.24 57.1509C354.75 57.6549 354.505 58.4109 354.505 59.4189V65.0049H351.229V53.7069H354.358V55.0299C354.792 54.5539 355.331 54.1899 355.975 53.9379C356.619 53.6719 357.326 53.5389 358.096 53.5389ZM377.379 49.4229V65.0049H374.25V63.7029C373.438 64.6829 372.262 65.1729 370.722 65.1729C369.658 65.1729 368.692 64.9349 367.824 64.4589C366.97 63.9829 366.298 63.3039 365.808 62.4219C365.318 61.5399 365.073 60.5179 365.073 59.3559C365.073 58.1939 365.318 57.1719 365.808 56.2899C366.298 55.4079 366.97 54.7289 367.824 54.2529C368.692 53.7769 369.658 53.5389 370.722 53.5389C372.164 53.5389 373.291 53.9939 374.103 54.9039V49.4229H377.379ZM371.289 62.4849C372.115 62.4849 372.801 62.2049 373.347 61.6449C373.893 61.0709 374.166 60.3079 374.166 59.3559C374.166 58.4039 373.893 57.6479 373.347 57.0879C372.801 56.5139 372.115 56.2269 371.289 56.2269C370.449 56.2269 369.756 56.5139 369.21 57.0879C368.664 57.6479 368.391 58.4039 368.391 59.3559C368.391 60.3079 368.664 61.0709 369.21 61.6449C369.756 62.2049 370.449 62.4849 371.289 62.4849ZM391.735 65.1729C390.545 65.1729 389.474 64.9279 388.522 64.4379C387.584 63.9339 386.849 63.2409 386.317 62.3589C385.785 61.4769 385.519 60.4759 385.519 59.3559C385.519 58.2359 385.785 57.2349 386.317 56.3529C386.849 55.4709 387.584 54.7849 388.522 54.2949C389.474 53.7909 390.545 53.5389 391.735 53.5389C392.925 53.5389 393.989 53.7909 394.927 54.2949C395.865 54.7849 396.6 55.4709 397.132 56.3529C397.664 57.2349 397.93 58.2359 397.93 59.3559C397.93 60.4759 397.664 61.4769 397.132 62.3589C396.6 63.2409 395.865 63.9339 394.927 64.4379C393.989 64.9279 392.925 65.1729 391.735 65.1729ZM391.735 62.4849C392.575 62.4849 393.261 62.2049 393.793 61.6449C394.339 61.0709 394.612 60.3079 394.612 59.3559C394.612 58.4039 394.339 57.6479 393.793 57.0879C393.261 56.5139 392.575 56.2269 391.735 56.2269C390.895 56.2269 390.202 56.5139 389.656 57.0879C389.11 57.6479 388.837 58.4039 388.837 59.3559C388.837 60.3079 389.11 61.0709 389.656 61.6449C390.202 62.2049 390.895 62.4849 391.735 62.4849ZM417.956 53.7069L413.861 65.0049H410.711L408.17 57.9909L405.545 65.0049H402.395L398.321 53.7069H401.408L404.075 61.3509L406.847 53.7069H409.619L412.307 61.3509L415.058 53.7069H417.956ZM426.346 53.5389C427.746 53.5389 428.873 53.9589 429.727 54.7989C430.595 55.6389 431.029 56.8849 431.029 58.5369V65.0049H427.753V59.0409C427.753 58.1449 427.557 57.4799 427.165 57.0459C426.773 56.5979 426.206 56.3739 425.464 56.3739C424.638 56.3739 423.98 56.6329 423.49 57.1509C423 57.6549 422.755 58.4109 422.755 59.4189V65.0049H419.479V53.7069H422.608V55.0299C423.042 54.5539 423.581 54.1899 424.225 53.9379C424.869 53.6719 425.576 53.5389 426.346 53.5389ZM439.946 49.4229H443.222V65.0049H439.946V49.4229ZM450.819 53.5389C452.569 53.5389 453.913 53.9589 454.851 54.7989C455.789 55.6249 456.258 56.8779 456.258 58.5579V65.0049H453.192V63.5979C452.576 64.6479 451.428 65.1729 449.748 65.1729C448.88 65.1729 448.124 65.0259 447.48 64.7319C446.85 64.4379 446.367 64.0319 446.031 63.5139C445.695 62.9959 445.527 62.4079 445.527 61.7499C445.527 60.6999 445.919 59.8739 446.703 59.2719C447.501 58.6699 448.726 58.3689 450.378 58.3689H452.982C452.982 57.6549 452.765 57.1089 452.331 56.7309C451.897 56.3389 451.246 56.1429 450.378 56.1429C449.776 56.1429 449.181 56.2409 448.593 56.4369C448.019 56.6189 447.529 56.8709 447.123 57.1929L445.947 54.9039C446.563 54.4699 447.298 54.1339 448.152 53.8959C449.02 53.6579 449.909 53.5389 450.819 53.5389ZM450.567 62.9679C451.127 62.9679 451.624 62.8419 452.058 62.5899C452.492 62.3239 452.8 61.9389 452.982 61.4349V60.2799H450.735C449.391 60.2799 448.719 60.7209 448.719 61.6029C448.719 62.0229 448.88 62.3589 449.202 62.6109C449.538 62.8489 449.993 62.9679 450.567 62.9679ZM465.901 53.5389C466.951 53.5389 467.903 53.7839 468.757 54.2739C469.625 54.7499 470.304 55.4289 470.794 56.3109C471.284 57.1789 471.529 58.1939 471.529 59.3559C471.529 60.5179 471.284 61.5399 470.794 62.4219C470.304 63.2899 469.625 63.9689 468.757 64.4589C467.903 64.9349 466.951 65.1729 465.901 65.1729C464.347 65.1729 463.164 64.6829 462.352 63.7029V65.0049H459.223V49.4229H462.499V54.9039C463.325 53.9939 464.459 53.5389 465.901 53.5389ZM465.334 62.4849C466.174 62.4849 466.86 62.2049 467.392 61.6449C467.938 61.0709 468.211 60.3079 468.211 59.3559C468.211 58.4039 467.938 57.6479 467.392 57.0879C466.86 56.5139 466.174 56.2269 465.334 56.2269C464.494 56.2269 463.801 56.5139 463.255 57.0879C462.723 57.6479 462.457 58.4039 462.457 59.3559C462.457 60.3079 462.723 61.0709 463.255 61.6449C463.801 62.2049 464.494 62.4849 465.334 62.4849ZM479.098 65.1729C477.908 65.1729 476.837 64.9279 475.885 64.4379C474.947 63.9339 474.212 63.2409 473.68 62.3589C473.148 61.4769 472.882 60.4759 472.882 59.3559C472.882 58.2359 473.148 57.2349 473.68 56.3529C474.212 55.4709 474.947 54.7849 475.885 54.2949C476.837 53.7909 477.908 53.5389 479.098 53.5389C480.288 53.5389 481.352 53.7909 482.29 54.2949C483.228 54.7849 483.963 55.4709 484.495 56.3529C485.027 57.2349 485.293 58.2359 485.293 59.3559C485.293 60.4759 485.027 61.4769 484.495 62.3589C483.963 63.2409 483.228 63.9339 482.29 64.4379C481.352 64.9279 480.288 65.1729 479.098 65.1729ZM479.098 62.4849C479.938 62.4849 480.624 62.2049 481.156 61.6449C481.702 61.0709 481.975 60.3079 481.975 59.3559C481.975 58.4039 481.702 57.6479 481.156 57.0879C480.624 56.5139 479.938 56.2269 479.098 56.2269C478.258 56.2269 477.565 56.5139 477.019 57.0879C476.473 57.6479 476.2 58.4039 476.2 59.3559C476.2 60.3079 476.473 61.0709 477.019 61.6449C477.565 62.2049 478.258 62.4849 479.098 62.4849ZM490.612 55.1979C491.004 54.6519 491.529 54.2389 492.187 53.9589C492.859 53.6789 493.629 53.5389 494.497 53.5389V56.5629C494.133 56.5349 493.888 56.5209 493.762 56.5209C492.824 56.5209 492.089 56.7869 491.557 57.3189C491.025 57.8369 490.759 58.6209 490.759 59.6709V65.0049H487.483V53.7069H490.612V55.1979ZM500.94 53.5389C502.69 53.5389 504.034 53.9589 504.972 54.7989C505.91 55.6249 506.379 56.8779 506.379 58.5579V65.0049H503.313V63.5979C502.697 64.6479 501.549 65.1729 499.869 65.1729C499.001 65.1729 498.245 65.0259 497.601 64.7319C496.971 64.4379 496.488 64.0319 496.152 63.5139C495.816 62.9959 495.648 62.4079 495.648 61.7499C495.648 60.6999 496.04 59.8739 496.824 59.2719C497.622 58.6699 498.847 58.3689 500.499 58.3689H503.103C503.103 57.6549 502.886 57.1089 502.452 56.7309C502.018 56.3389 501.367 56.1429 500.499 56.1429C499.897 56.1429 499.302 56.2409 498.714 56.4369C498.14 56.6189 497.65 56.8709 497.244 57.1929L496.068 54.9039C496.684 54.4699 497.419 54.1339 498.273 53.8959C499.141 53.6579 500.03 53.5389 500.94 53.5389ZM500.688 62.9679C501.248 62.9679 501.745 62.8419 502.179 62.5899C502.613 62.3239 502.921 61.9389 503.103 61.4349V60.2799H500.856C499.512 60.2799 498.84 60.7209 498.84 61.6029C498.84 62.0229 499.001 62.3589 499.323 62.6109C499.659 62.8489 500.114 62.9679 500.688 62.9679ZM516.631 64.4589C516.309 64.6969 515.91 64.8789 515.434 65.0049C514.972 65.1169 514.482 65.1729 513.964 65.1729C512.62 65.1729 511.577 64.8299 510.835 64.1439C510.107 63.4579 509.743 62.4499 509.743 61.1199V56.4789H508V53.9589H509.743V51.2079H513.019V53.9589H515.833V56.4789H513.019V61.0779C513.019 61.5539 513.138 61.9249 513.376 62.1909C513.628 62.4429 513.978 62.5689 514.426 62.5689C514.944 62.5689 515.385 62.4289 515.749 62.1489L516.631 64.4589ZM523.497 65.1729C522.307 65.1729 521.236 64.9279 520.284 64.4379C519.346 63.9339 518.611 63.2409 518.079 62.3589C517.547 61.4769 517.281 60.4759 517.281 59.3559C517.281 58.2359 517.547 57.2349 518.079 56.3529C518.611 55.4709 519.346 54.7849 520.284 54.2949C521.236 53.7909 522.307 53.5389 523.497 53.5389C524.687 53.5389 525.751 53.7909 526.689 54.2949C527.627 54.7849 528.362 55.4709 528.894 56.3529C529.426 57.2349 529.692 58.2359 529.692 59.3559C529.692 60.4759 529.426 61.4769 528.894 62.3589C528.362 63.2409 527.627 63.9339 526.689 64.4379C525.751 64.9279 524.687 65.1729 523.497 65.1729ZM523.497 62.4849C524.337 62.4849 525.023 62.2049 525.555 61.6449C526.101 61.0709 526.374 60.3079 526.374 59.3559C526.374 58.4039 526.101 57.6479 525.555 57.0879C525.023 56.5139 524.337 56.2269 523.497 56.2269C522.657 56.2269 521.964 56.5139 521.418 57.0879C520.872 57.6479 520.599 58.4039 520.599 59.3559C520.599 60.3079 520.872 61.0709 521.418 61.6449C521.964 62.2049 522.657 62.4849 523.497 62.4849ZM535.011 55.1979C535.403 54.6519 535.928 54.2389 536.586 53.9589C537.258 53.6789 538.028 53.5389 538.896 53.5389V56.5629C538.532 56.5349 538.287 56.5209 538.161 56.5209C537.223 56.5209 536.488 56.7869 535.956 57.3189C535.424 57.8369 535.158 58.6209 535.158 59.6709V65.0049H531.882V53.7069H535.011V55.1979ZM552.448 53.7069L547.345 65.6979C546.827 66.9999 546.183 67.9169 545.413 68.4489C544.657 68.9809 543.74 69.2469 542.662 69.2469C542.074 69.2469 541.493 69.1559 540.919 68.9739C540.345 68.7919 539.876 68.5399 539.512 68.2179L540.709 65.8869C540.961 66.1109 541.248 66.2859 541.57 66.4119C541.906 66.5379 542.235 66.6009 542.557 66.6009C543.005 66.6009 543.369 66.4889 543.649 66.2649C543.929 66.0549 544.181 65.6979 544.405 65.1939L544.447 65.0889L539.554 53.7069H542.935L546.106 61.3719L549.298 53.7069H552.448Z" fill="white"/>
<defs>
<clipPath id="clip0">
<rect width="77.5349" height="75.3315" fill="white" transform="translate(30.7069 29.834)"/>
</clipPath>
</defs>
</svg>
