<svg width="542" height="114" viewBox="0 0 542 114" fill="none" xmlns="http://www.w3.org/2000/svg">
<rect x="27.3425" y="14.415" width="514.535" height="85.2381" fill="#3E4671"/>
<path d="M115.405 56.7209C115.405 86.8783 90.0837 111.442 58.7025 111.442C27.3213 111.442 2 86.8783 2 56.7209C2 26.5636 27.3213 2 58.7025 2C90.0837 2 115.405 26.5636 115.405 56.7209Z" fill="white" stroke="#3E4671" stroke-width="4"/>
<g clip-path="url(#clip0_207:9)">
<path d="M82.8121 66.9286C82.9165 66.7244 82.9705 66.4994 82.9698 66.2714C82.969 66.0434 82.9137 65.8187 82.808 65.6151L80.8575 62.8535C80.8209 62.8021 80.8005 62.7427 80.8005 62.6755C80.8005 62.6082 80.8209 62.5489 80.8575 62.4975L82.8121 59.728C82.9165 59.5238 82.9705 59.2988 82.9698 59.0708C82.969 58.8428 82.9137 58.6181 82.808 58.4145C82.727 58.2001 82.5991 58.0052 82.4333 57.8434C82.2674 57.6815 82.0674 57.5565 81.847 57.4768L78.4957 56.286C78.4338 56.2654 78.3786 56.2294 78.3357 56.1814C78.2928 56.1335 78.2637 56.0754 78.2514 56.013V52.6857C78.2384 52.4503 78.1696 52.221 78.0502 52.0157C77.9308 51.8105 77.7641 51.6349 77.5632 51.5027C77.2862 51.3187 76.9581 51.2208 76.6226 51.2218H75.9303L72.469 52.0922C72.3763 52.1285 72.2727 52.1285 72.1799 52.0922L69.9443 49.5206C69.7811 49.3482 69.5828 49.2105 69.362 49.1164C69.1412 49.0222 68.9027 48.9736 68.6616 48.9736C68.4205 48.9736 68.182 49.0222 67.9612 49.1164C67.7404 49.2105 67.5422 49.3482 67.3789 49.5206L65.1393 52.0922C65.0465 52.1285 64.9429 52.1285 64.8502 52.0922H64.8542L61.1894 51.1822H60.7496C60.4102 51.1813 60.0783 51.2791 59.7967 51.4631C59.5975 51.5958 59.4323 51.7711 59.3137 51.9754C59.1951 52.1798 59.1263 52.4079 59.1126 52.6421V55.9694C59.1009 56.032 59.0726 56.0904 59.0304 56.139C58.9883 56.1876 58.9338 56.2246 58.8723 56.2464L55.5292 57.4333C55.1468 57.494 54.7988 57.6842 54.5469 57.9702C54.295 58.2562 54.1554 58.6196 54.1528 58.9961C54.1528 59.2334 54.2098 59.459 54.3116 59.6568L56.2621 62.4183C56.2988 62.4698 56.3191 62.5291 56.3191 62.5964C56.3191 62.6636 56.2988 62.723 56.2621 62.7744L54.3075 65.5438C54.2032 65.7481 54.1492 65.9731 54.1499 66.2011C54.1506 66.4291 54.206 66.6538 54.3116 66.8574C54.3927 67.0718 54.5205 67.2666 54.6864 67.4285C54.8523 67.5903 55.0523 67.7154 55.2726 67.795L58.6239 68.9859C58.6858 69.0064 58.741 69.0425 58.784 69.0904C58.8269 69.1384 58.856 69.1965 58.8683 69.2589V72.5862C58.8812 72.8216 58.9501 73.0509 59.0695 73.2561C59.1889 73.4613 59.3555 73.6369 59.5565 73.7691C59.838 73.9532 60.1699 74.051 60.5093 74.05H61.1934L62.4558 73.7731V88.3721L68.6861 80.4593L74.672 88.3721V73.7731L75.9344 74.0896H76.4149C76.7543 74.0906 77.0862 73.9927 77.3677 73.8087C77.5669 73.676 77.7322 73.5008 77.8508 73.2964C77.9694 73.092 78.0381 72.8639 78.0519 72.6297V69.3024C78.0635 69.2399 78.0919 69.1814 78.134 69.1328C78.1762 69.0842 78.2307 69.0472 78.2921 69.0255L81.6353 67.8385C81.8904 67.7896 82.1301 67.6827 82.3346 67.5266C82.5391 67.3706 82.7027 67.1697 82.8121 66.9404V66.9286Z" fill="#3E4671"/>
<path d="M25.8033 29.0254V76.5018H58.38L57.9321 76.3039C57.3521 75.918 56.8708 75.4083 56.5249 74.8137C56.1791 74.2191 55.9779 73.5556 55.9368 72.8738V72.5454H29.8754V32.9818H86.8846V72.5454H81.0615V72.8619C81.022 73.5428 80.8232 74.206 80.4803 74.8011C80.1374 75.3961 79.6593 75.9074 79.0825 76.296L78.7404 76.5018H90.9567V29.0254H25.8033Z" fill="#3E4671"/>
<path d="M56.0589 52.4082C56.0722 51.6999 56.2586 51.0048 56.6027 50.3802C56.9467 49.7557 57.4387 49.2195 58.0379 48.8158C58.1511 48.787 58.2696 48.7843 58.384 48.8079H38.0195V52.7643H56.0589V52.4082Z" fill="#3E4671"/>
<path d="M51.9461 56.7197H38.0195V60.6761H51.7017C51.4214 60.1717 51.2589 59.6134 51.2258 59.0411C51.1927 58.4687 51.2899 57.8963 51.5103 57.3646C51.5752 57.1075 51.7291 56.8798 51.9461 56.7197Z" fill="#3E4671"/>
<path d="M38.0195 40.8945H78.7404V44.8509H38.0195V40.8945Z" fill="#3E4671"/>
</g>
<path d="M130.281 56.2175C128.854 56.2175 127.561 55.9109 126.401 55.2975C125.254 54.6709 124.347 53.8109 123.681 52.7175C123.027 51.6109 122.701 50.3642 122.701 48.9775C122.701 47.5909 123.027 46.3509 123.681 45.2575C124.347 44.1509 125.254 43.2909 126.401 42.6775C127.561 42.0509 128.861 41.7375 130.301 41.7375C131.514 41.7375 132.607 41.9509 133.581 42.3775C134.567 42.8042 135.394 43.4175 136.061 44.2175L133.981 46.1375C133.034 45.0442 131.861 44.4975 130.461 44.4975C129.594 44.4975 128.821 44.6909 128.141 45.0775C127.461 45.4509 126.927 45.9775 126.541 46.6575C126.167 47.3375 125.981 48.1109 125.981 48.9775C125.981 49.8442 126.167 50.6175 126.541 51.2975C126.927 51.9775 127.461 52.5109 128.141 52.8975C128.821 53.2709 129.594 53.4575 130.461 53.4575C131.861 53.4575 133.034 52.9042 133.981 51.7975L136.061 53.7175C135.394 54.5309 134.567 55.1509 133.581 55.5775C132.594 56.0042 131.494 56.2175 130.281 56.2175ZM148.197 50.6375C148.197 50.6775 148.177 50.9575 148.137 51.4775H139.997C140.144 52.1442 140.491 52.6709 141.037 53.0575C141.584 53.4442 142.264 53.6375 143.077 53.6375C143.637 53.6375 144.131 53.5575 144.557 53.3975C144.997 53.2242 145.404 52.9575 145.777 52.5975L147.437 54.3975C146.424 55.5575 144.944 56.1375 142.997 56.1375C141.784 56.1375 140.711 55.9042 139.777 55.4375C138.844 54.9575 138.124 54.2975 137.617 53.4575C137.111 52.6175 136.857 51.6642 136.857 50.5975C136.857 49.5442 137.104 48.5975 137.597 47.7575C138.104 46.9042 138.791 46.2442 139.657 45.7775C140.537 45.2975 141.517 45.0575 142.597 45.0575C143.651 45.0575 144.604 45.2842 145.457 45.7375C146.311 46.1909 146.977 46.8442 147.457 47.6975C147.951 48.5375 148.197 49.5175 148.197 50.6375ZM142.617 47.4175C141.911 47.4175 141.317 47.6175 140.837 48.0175C140.357 48.4175 140.064 48.9642 139.957 49.6575H145.257C145.151 48.9775 144.857 48.4375 144.377 48.0375C143.897 47.6242 143.311 47.4175 142.617 47.4175ZM153.255 46.6375C153.628 46.1175 154.128 45.7242 154.755 45.4575C155.395 45.1909 156.128 45.0575 156.955 45.0575V47.9375C156.608 47.9109 156.375 47.8975 156.255 47.8975C155.361 47.8975 154.661 48.1509 154.155 48.6575C153.648 49.1509 153.395 49.8975 153.395 50.8975V55.9775H150.275V45.2175H153.255V46.6375ZM166.121 55.4575C165.814 55.6842 165.434 55.8575 164.981 55.9775C164.541 56.0842 164.074 56.1375 163.581 56.1375C162.301 56.1375 161.308 55.8109 160.601 55.1575C159.908 54.5042 159.561 53.5442 159.561 52.2775V47.8575H157.901V45.4575H159.561V42.8375H162.681V45.4575H165.361V47.8575H162.681V52.2375C162.681 52.6909 162.794 53.0442 163.021 53.2975C163.261 53.5375 163.594 53.6575 164.021 53.6575C164.514 53.6575 164.934 53.5242 165.281 53.2575L166.121 55.4575ZM167.872 45.2175H170.992V55.9775H167.872V45.2175ZM169.432 43.7175C168.859 43.7175 168.392 43.5509 168.032 43.2175C167.672 42.8842 167.492 42.4709 167.492 41.9775C167.492 41.4842 167.672 41.0709 168.032 40.7375C168.392 40.4042 168.859 40.2375 169.432 40.2375C170.006 40.2375 170.472 40.3975 170.832 40.7175C171.192 41.0375 171.372 41.4375 171.372 41.9175C171.372 42.4375 171.192 42.8709 170.832 43.2175C170.472 43.5509 170.006 43.7175 169.432 43.7175ZM177.308 45.4575H180.068V47.8575H177.388V55.9775H174.268V47.8575H172.608V45.4575H174.268V44.9775C174.268 43.7509 174.628 42.7775 175.348 42.0575C176.081 41.3375 177.108 40.9775 178.428 40.9775C178.895 40.9775 179.335 41.0309 179.748 41.1375C180.175 41.2309 180.528 41.3709 180.808 41.5575L179.988 43.8175C179.628 43.5642 179.208 43.4375 178.728 43.4375C177.781 43.4375 177.308 43.9575 177.308 44.9975V45.4575ZM183.228 45.2175H186.348V55.9775H183.228V45.2175ZM184.788 43.7175C184.215 43.7175 183.748 43.5509 183.388 43.2175C183.028 42.8842 182.848 42.4709 182.848 41.9775C182.848 41.4842 183.028 41.0709 183.388 40.7375C183.748 40.4042 184.215 40.2375 184.788 40.2375C185.361 40.2375 185.828 40.3975 186.188 40.7175C186.548 41.0375 186.728 41.4375 186.728 41.9175C186.728 42.4375 186.548 42.8709 186.188 43.2175C185.828 43.5509 185.361 43.7175 184.788 43.7175ZM199.779 50.6375C199.779 50.6775 199.759 50.9575 199.719 51.4775H191.579C191.726 52.1442 192.073 52.6709 192.619 53.0575C193.166 53.4442 193.846 53.6375 194.659 53.6375C195.219 53.6375 195.713 53.5575 196.139 53.3975C196.579 53.2242 196.986 52.9575 197.359 52.5975L199.019 54.3975C198.006 55.5575 196.526 56.1375 194.579 56.1375C193.366 56.1375 192.293 55.9042 191.359 55.4375C190.426 54.9575 189.706 54.2975 189.199 53.4575C188.693 52.6175 188.439 51.6642 188.439 50.5975C188.439 49.5442 188.686 48.5975 189.179 47.7575C189.686 46.9042 190.373 46.2442 191.239 45.7775C192.119 45.2975 193.099 45.0575 194.179 45.0575C195.233 45.0575 196.186 45.2842 197.039 45.7375C197.893 46.1909 198.559 46.8442 199.039 47.6975C199.533 48.5375 199.779 49.5175 199.779 50.6375ZM194.199 47.4175C193.493 47.4175 192.899 47.6175 192.419 48.0175C191.939 48.4175 191.646 48.9642 191.539 49.6575H196.839C196.733 48.9775 196.439 48.4375 195.959 48.0375C195.479 47.6242 194.893 47.4175 194.199 47.4175ZM212.817 41.1375V55.9775H209.837V54.7375C209.063 55.6709 207.943 56.1375 206.477 56.1375C205.463 56.1375 204.543 55.9109 203.717 55.4575C202.903 55.0042 202.263 54.3575 201.797 53.5175C201.33 52.6775 201.097 51.7042 201.097 50.5975C201.097 49.4909 201.33 48.5175 201.797 47.6775C202.263 46.8375 202.903 46.1909 203.717 45.7375C204.543 45.2842 205.463 45.0575 206.477 45.0575C207.85 45.0575 208.923 45.4909 209.697 46.3575V41.1375H212.817ZM207.017 53.5775C207.803 53.5775 208.457 53.3109 208.977 52.7775C209.497 52.2309 209.757 51.5042 209.757 50.5975C209.757 49.6909 209.497 48.9709 208.977 48.4375C208.457 47.8909 207.803 47.6175 207.017 47.6175C206.217 47.6175 205.557 47.8909 205.037 48.4375C204.517 48.9709 204.257 49.6909 204.257 50.5975C204.257 51.5042 204.517 52.2309 205.037 52.7775C205.557 53.3109 206.217 53.5775 207.017 53.5775ZM231.908 50.6375C231.908 50.6775 231.888 50.9575 231.848 51.4775H223.708C223.855 52.1442 224.202 52.6709 224.748 53.0575C225.295 53.4442 225.975 53.6375 226.788 53.6375C227.348 53.6375 227.842 53.5575 228.268 53.3975C228.708 53.2242 229.115 52.9575 229.488 52.5975L231.148 54.3975C230.135 55.5575 228.655 56.1375 226.708 56.1375C225.495 56.1375 224.422 55.9042 223.488 55.4375C222.555 54.9575 221.835 54.2975 221.328 53.4575C220.822 52.6175 220.568 51.6642 220.568 50.5975C220.568 49.5442 220.815 48.5975 221.308 47.7575C221.815 46.9042 222.502 46.2442 223.368 45.7775C224.248 45.2975 225.228 45.0575 226.308 45.0575C227.362 45.0575 228.315 45.2842 229.168 45.7375C230.022 46.1909 230.688 46.8442 231.168 47.6975C231.662 48.5375 231.908 49.5175 231.908 50.6375ZM226.328 47.4175C225.622 47.4175 225.028 47.6175 224.548 48.0175C224.068 48.4175 223.775 48.9642 223.668 49.6575H228.968C228.862 48.9775 228.568 48.4375 228.088 48.0375C227.608 47.6242 227.022 47.4175 226.328 47.4175ZM240.533 55.9775L238.173 52.6775L235.733 55.9775H232.333L236.473 50.5575L232.473 45.2175H235.973L238.253 48.3575L240.593 45.2175H243.913L239.913 50.4775L244.073 55.9775H240.533ZM251.947 45.0575C252.947 45.0575 253.854 45.2909 254.667 45.7575C255.494 46.2109 256.14 46.8575 256.607 47.6975C257.074 48.5242 257.307 49.4909 257.307 50.5975C257.307 51.7042 257.074 52.6775 256.607 53.5175C256.14 54.3442 255.494 54.9909 254.667 55.4575C253.854 55.9109 252.947 56.1375 251.947 56.1375C250.574 56.1375 249.494 55.7042 248.707 54.8375V59.8575H245.587V45.2175H248.567V46.4575C249.34 45.5242 250.467 45.0575 251.947 45.0575ZM251.407 53.5775C252.207 53.5775 252.86 53.3109 253.367 52.7775C253.887 52.2309 254.147 51.5042 254.147 50.5975C254.147 49.6909 253.887 48.9709 253.367 48.4375C252.86 47.8909 252.207 47.6175 251.407 47.6175C250.607 47.6175 249.947 47.8909 249.427 48.4375C248.92 48.9709 248.667 49.6909 248.667 50.5975C248.667 51.5042 248.92 52.2309 249.427 52.7775C249.947 53.3109 250.607 53.5775 251.407 53.5775ZM269.936 50.6375C269.936 50.6775 269.916 50.9575 269.876 51.4775H261.736C261.882 52.1442 262.229 52.6709 262.776 53.0575C263.322 53.4442 264.002 53.6375 264.816 53.6375C265.376 53.6375 265.869 53.5575 266.296 53.3975C266.736 53.2242 267.142 52.9575 267.516 52.5975L269.176 54.3975C268.162 55.5575 266.682 56.1375 264.736 56.1375C263.522 56.1375 262.449 55.9042 261.516 55.4375C260.582 54.9575 259.862 54.2975 259.356 53.4575C258.849 52.6175 258.596 51.6642 258.596 50.5975C258.596 49.5442 258.842 48.5975 259.336 47.7575C259.842 46.9042 260.529 46.2442 261.396 45.7775C262.276 45.2975 263.256 45.0575 264.336 45.0575C265.389 45.0575 266.342 45.2842 267.196 45.7375C268.049 46.1909 268.716 46.8442 269.196 47.6975C269.689 48.5375 269.936 49.5175 269.936 50.6375ZM264.356 47.4175C263.649 47.4175 263.056 47.6175 262.576 48.0175C262.096 48.4175 261.802 48.9642 261.696 49.6575H266.996C266.889 48.9775 266.596 48.4375 266.116 48.0375C265.636 47.6242 265.049 47.4175 264.356 47.4175ZM274.993 46.6375C275.366 46.1175 275.866 45.7242 276.493 45.4575C277.133 45.1909 277.866 45.0575 278.693 45.0575V47.9375C278.346 47.9109 278.113 47.8975 277.993 47.8975C277.1 47.8975 276.4 48.1509 275.893 48.6575C275.386 49.1509 275.133 49.8975 275.133 50.8975V55.9775H272.013V45.2175H274.993V46.6375ZM287.859 55.4575C287.552 55.6842 287.172 55.8575 286.719 55.9775C286.279 56.0842 285.812 56.1375 285.319 56.1375C284.039 56.1375 283.046 55.8109 282.339 55.1575C281.646 54.5042 281.299 53.5442 281.299 52.2775V47.8575H279.639V45.4575H281.299V42.8375H284.419V45.4575H287.099V47.8575H284.419V52.2375C284.419 52.6909 284.532 53.0442 284.759 53.2975C284.999 53.5375 285.332 53.6575 285.759 53.6575C286.252 53.6575 286.672 53.5242 287.019 53.2575L287.859 55.4575ZM293.231 56.1375C292.337 56.1375 291.464 56.0309 290.611 55.8175C289.757 55.5909 289.077 55.3109 288.571 54.9775L289.611 52.7375C290.091 53.0442 290.671 53.2975 291.351 53.4975C292.031 53.6842 292.697 53.7775 293.351 53.7775C294.671 53.7775 295.331 53.4509 295.331 52.7975C295.331 52.4909 295.151 52.2709 294.791 52.1375C294.431 52.0042 293.877 51.8909 293.131 51.7975C292.251 51.6642 291.524 51.5109 290.951 51.3375C290.377 51.1642 289.877 50.8575 289.451 50.4175C289.037 49.9775 288.831 49.3509 288.831 48.5375C288.831 47.8575 289.024 47.2575 289.411 46.7375C289.811 46.2042 290.384 45.7909 291.131 45.4975C291.891 45.2042 292.784 45.0575 293.811 45.0575C294.571 45.0575 295.324 45.1442 296.071 45.3175C296.831 45.4775 297.457 45.7042 297.951 45.9975L296.911 48.2175C295.964 47.6842 294.931 47.4175 293.811 47.4175C293.144 47.4175 292.644 47.5109 292.311 47.6975C291.977 47.8842 291.811 48.1242 291.811 48.4175C291.811 48.7509 291.991 48.9842 292.351 49.1175C292.711 49.2509 293.284 49.3775 294.071 49.4975C294.951 49.6442 295.671 49.8042 296.231 49.9775C296.791 50.1375 297.277 50.4375 297.691 50.8775C298.104 51.3175 298.311 51.9309 298.311 52.7175C298.311 53.3842 298.111 53.9775 297.711 54.4975C297.311 55.0175 296.724 55.4242 295.951 55.7175C295.191 55.9975 294.284 56.1375 293.231 56.1375ZM310.24 45.0575C311.906 45.0575 313.186 45.4575 314.08 46.2575C314.973 47.0442 315.42 48.2375 315.42 49.8375V55.9775H312.5V54.6375C311.913 55.6375 310.82 56.1375 309.22 56.1375C308.393 56.1375 307.673 55.9975 307.06 55.7175C306.46 55.4375 306 55.0509 305.68 54.5575C305.36 54.0642 305.2 53.5042 305.2 52.8775C305.2 51.8775 305.573 51.0909 306.32 50.5175C307.08 49.9442 308.246 49.6575 309.82 49.6575H312.3C312.3 48.9775 312.093 48.4575 311.68 48.0975C311.266 47.7242 310.646 47.5375 309.82 47.5375C309.246 47.5375 308.68 47.6309 308.12 47.8175C307.573 47.9909 307.106 48.2309 306.72 48.5375L305.6 46.3575C306.186 45.9442 306.886 45.6242 307.7 45.3975C308.526 45.1709 309.373 45.0575 310.24 45.0575ZM310 54.0375C310.533 54.0375 311.006 53.9175 311.42 53.6775C311.833 53.4242 312.126 53.0575 312.3 52.5775V51.4775H310.16C308.88 51.4775 308.24 51.8975 308.24 52.7375C308.24 53.1375 308.393 53.4575 308.7 53.6975C309.02 53.9242 309.453 54.0375 310 54.0375ZM324.783 45.0575C326.117 45.0575 327.19 45.4575 328.003 46.2575C328.83 47.0575 329.243 48.2442 329.243 49.8175V55.9775H326.123V50.2975C326.123 49.4442 325.937 48.8109 325.563 48.3975C325.19 47.9709 324.65 47.7575 323.943 47.7575C323.157 47.7575 322.53 48.0042 322.063 48.4975C321.597 48.9775 321.363 49.6975 321.363 50.6575V55.9775H318.243V45.2175H321.223V46.4775C321.637 46.0242 322.15 45.6775 322.763 45.4375C323.377 45.1842 324.05 45.0575 324.783 45.0575ZM343.149 41.1375V55.9775H340.169V54.7375C339.395 55.6709 338.275 56.1375 336.809 56.1375C335.795 56.1375 334.875 55.9109 334.049 55.4575C333.235 55.0042 332.595 54.3575 332.129 53.5175C331.662 52.6775 331.429 51.7042 331.429 50.5975C331.429 49.4909 331.662 48.5175 332.129 47.6775C332.595 46.8375 333.235 46.1909 334.049 45.7375C334.875 45.2842 335.795 45.0575 336.809 45.0575C338.182 45.0575 339.255 45.4909 340.029 46.3575V41.1375H343.149ZM337.349 53.5775C338.135 53.5775 338.789 53.3109 339.309 52.7775C339.829 52.2309 340.089 51.5042 340.089 50.5975C340.089 49.6909 339.829 48.9709 339.309 48.4375C338.789 47.8909 338.135 47.6175 337.349 47.6175C336.549 47.6175 335.889 47.8909 335.369 48.4375C334.849 48.9709 334.589 49.6909 334.589 50.5975C334.589 51.5042 334.849 52.2309 335.369 52.7775C335.889 53.3109 336.549 53.5775 337.349 53.5775ZM356.82 56.1375C355.687 56.1375 354.667 55.9042 353.76 55.4375C352.867 54.9575 352.167 54.2975 351.66 53.4575C351.154 52.6175 350.9 51.6642 350.9 50.5975C350.9 49.5309 351.154 48.5775 351.66 47.7375C352.167 46.8975 352.867 46.2442 353.76 45.7775C354.667 45.2975 355.687 45.0575 356.82 45.0575C357.954 45.0575 358.967 45.2975 359.86 45.7775C360.754 46.2442 361.454 46.8975 361.96 47.7375C362.467 48.5775 362.72 49.5309 362.72 50.5975C362.72 51.6642 362.467 52.6175 361.96 53.4575C361.454 54.2975 360.754 54.9575 359.86 55.4375C358.967 55.9042 357.954 56.1375 356.82 56.1375ZM356.82 53.5775C357.62 53.5775 358.274 53.3109 358.78 52.7775C359.3 52.2309 359.56 51.5042 359.56 50.5975C359.56 49.6909 359.3 48.9709 358.78 48.4375C358.274 47.8909 357.62 47.6175 356.82 47.6175C356.02 47.6175 355.36 47.8909 354.84 48.4375C354.32 48.9709 354.06 49.6909 354.06 50.5975C354.06 51.5042 354.32 52.2309 354.84 52.7775C355.36 53.3109 356.02 53.5775 356.82 53.5775ZM381.793 45.2175L377.893 55.9775H374.893L372.473 49.2975L369.973 55.9775H366.973L363.093 45.2175H366.033L368.573 52.4975L371.213 45.2175H373.853L376.413 52.4975L379.033 45.2175H381.793ZM389.783 45.0575C391.117 45.0575 392.19 45.4575 393.003 46.2575C393.83 47.0575 394.243 48.2442 394.243 49.8175V55.9775H391.123V50.2975C391.123 49.4442 390.937 48.8109 390.563 48.3975C390.19 47.9709 389.65 47.7575 388.943 47.7575C388.157 47.7575 387.53 48.0042 387.063 48.4975C386.597 48.9775 386.363 49.6975 386.363 50.6575V55.9775H383.243V45.2175H386.223V46.4775C386.637 46.0242 387.15 45.6775 387.763 45.4375C388.377 45.1842 389.05 45.0575 389.783 45.0575ZM402.736 41.1375H405.856V55.9775H402.736V41.1375ZM413.091 45.0575C414.758 45.0575 416.038 45.4575 416.931 46.2575C417.824 47.0442 418.271 48.2375 418.271 49.8375V55.9775H415.351V54.6375C414.764 55.6375 413.671 56.1375 412.071 56.1375C411.244 56.1375 410.524 55.9975 409.911 55.7175C409.311 55.4375 408.851 55.0509 408.531 54.5575C408.211 54.0642 408.051 53.5042 408.051 52.8775C408.051 51.8775 408.424 51.0909 409.171 50.5175C409.931 49.9442 411.098 49.6575 412.671 49.6575H415.151C415.151 48.9775 414.944 48.4575 414.531 48.0975C414.118 47.7242 413.498 47.5375 412.671 47.5375C412.098 47.5375 411.531 47.6309 410.971 47.8175C410.424 47.9909 409.958 48.2309 409.571 48.5375L408.451 46.3575C409.038 45.9442 409.738 45.6242 410.551 45.3975C411.378 45.1709 412.224 45.0575 413.091 45.0575ZM412.851 54.0375C413.384 54.0375 413.858 53.9175 414.271 53.6775C414.684 53.4242 414.978 53.0575 415.151 52.5775V51.4775H413.011C411.731 51.4775 411.091 51.8975 411.091 52.7375C411.091 53.1375 411.244 53.4575 411.551 53.6975C411.871 53.9242 412.304 54.0375 412.851 54.0375ZM427.455 45.0575C428.455 45.0575 429.362 45.2909 430.175 45.7575C431.002 46.2109 431.648 46.8575 432.115 47.6975C432.582 48.5242 432.815 49.4909 432.815 50.5975C432.815 51.7042 432.582 52.6775 432.115 53.5175C431.648 54.3442 431.002 54.9909 430.175 55.4575C429.362 55.9109 428.455 56.1375 427.455 56.1375C425.975 56.1375 424.848 55.6709 424.075 54.7375V55.9775H421.095V41.1375H424.215V46.3575C425.002 45.4909 426.082 45.0575 427.455 45.0575ZM426.915 53.5775C427.715 53.5775 428.368 53.3109 428.875 52.7775C429.395 52.2309 429.655 51.5042 429.655 50.5975C429.655 49.6909 429.395 48.9709 428.875 48.4375C428.368 47.8909 427.715 47.6175 426.915 47.6175C426.115 47.6175 425.455 47.8909 424.935 48.4375C424.428 48.9709 424.175 49.6909 424.175 50.5975C424.175 51.5042 424.428 52.2309 424.935 52.7775C425.455 53.3109 426.115 53.5775 426.915 53.5775ZM440.024 56.1375C438.89 56.1375 437.87 55.9042 436.964 55.4375C436.07 54.9575 435.37 54.2975 434.864 53.4575C434.357 52.6175 434.104 51.6642 434.104 50.5975C434.104 49.5309 434.357 48.5775 434.864 47.7375C435.37 46.8975 436.07 46.2442 436.964 45.7775C437.87 45.2975 438.89 45.0575 440.024 45.0575C441.157 45.0575 442.17 45.2975 443.064 45.7775C443.957 46.2442 444.657 46.8975 445.164 47.7375C445.67 48.5775 445.924 49.5309 445.924 50.5975C445.924 51.6642 445.67 52.6175 445.164 53.4575C444.657 54.2975 443.957 54.9575 443.064 55.4375C442.17 55.9042 441.157 56.1375 440.024 56.1375ZM440.024 53.5775C440.824 53.5775 441.477 53.3109 441.984 52.7775C442.504 52.2309 442.764 51.5042 442.764 50.5975C442.764 49.6909 442.504 48.9709 441.984 48.4375C441.477 47.8909 440.824 47.6175 440.024 47.6175C439.224 47.6175 438.564 47.8909 438.044 48.4375C437.524 48.9709 437.264 49.6909 437.264 50.5975C437.264 51.5042 437.524 52.2309 438.044 52.7775C438.564 53.3109 439.224 53.5775 440.024 53.5775ZM450.989 46.6375C451.362 46.1175 451.862 45.7242 452.489 45.4575C453.129 45.1909 453.862 45.0575 454.689 45.0575V47.9375C454.342 47.9109 454.109 47.8975 453.989 47.8975C453.096 47.8975 452.396 48.1509 451.889 48.6575C451.382 49.1509 451.129 49.8975 451.129 50.8975V55.9775H448.009V45.2175H450.989V46.6375ZM460.826 45.0575C462.492 45.0575 463.772 45.4575 464.666 46.2575C465.559 47.0442 466.006 48.2375 466.006 49.8375V55.9775H463.086V54.6375C462.499 55.6375 461.406 56.1375 459.806 56.1375C458.979 56.1375 458.259 55.9975 457.646 55.7175C457.046 55.4375 456.586 55.0509 456.266 54.5575C455.946 54.0642 455.786 53.5042 455.786 52.8775C455.786 51.8775 456.159 51.0909 456.906 50.5175C457.666 49.9442 458.832 49.6575 460.406 49.6575H462.886C462.886 48.9775 462.679 48.4575 462.266 48.0975C461.852 47.7242 461.232 47.5375 460.406 47.5375C459.832 47.5375 459.266 47.6309 458.706 47.8175C458.159 47.9909 457.692 48.2309 457.306 48.5375L456.186 46.3575C456.772 45.9442 457.472 45.6242 458.286 45.3975C459.112 45.1709 459.959 45.0575 460.826 45.0575ZM460.586 54.0375C461.119 54.0375 461.592 53.9175 462.006 53.6775C462.419 53.4242 462.712 53.0575 462.886 52.5775V51.4775H460.746C459.466 51.4775 458.826 51.8975 458.826 52.7375C458.826 53.1375 458.979 53.4575 459.286 53.6975C459.606 53.9242 460.039 54.0375 460.586 54.0375ZM475.769 55.4575C475.463 55.6842 475.083 55.8575 474.629 55.9775C474.189 56.0842 473.723 56.1375 473.229 56.1375C471.949 56.1375 470.956 55.8109 470.249 55.1575C469.556 54.5042 469.209 53.5442 469.209 52.2775V47.8575H467.549V45.4575H469.209V42.8375H472.329V45.4575H475.009V47.8575H472.329V52.2375C472.329 52.6909 472.443 53.0442 472.669 53.2975C472.909 53.5375 473.243 53.6575 473.669 53.6575C474.163 53.6575 474.583 53.5242 474.929 53.2575L475.769 55.4575ZM482.309 56.1375C481.175 56.1375 480.155 55.9042 479.249 55.4375C478.355 54.9575 477.655 54.2975 477.149 53.4575C476.642 52.6175 476.389 51.6642 476.389 50.5975C476.389 49.5309 476.642 48.5775 477.149 47.7375C477.655 46.8975 478.355 46.2442 479.249 45.7775C480.155 45.2975 481.175 45.0575 482.309 45.0575C483.442 45.0575 484.455 45.2975 485.349 45.7775C486.242 46.2442 486.942 46.8975 487.449 47.7375C487.955 48.5775 488.209 49.5309 488.209 50.5975C488.209 51.6642 487.955 52.6175 487.449 53.4575C486.942 54.2975 486.242 54.9575 485.349 55.4375C484.455 55.9042 483.442 56.1375 482.309 56.1375ZM482.309 53.5775C483.109 53.5775 483.762 53.3109 484.269 52.7775C484.789 52.2309 485.049 51.5042 485.049 50.5975C485.049 49.6909 484.789 48.9709 484.269 48.4375C483.762 47.8909 483.109 47.6175 482.309 47.6175C481.509 47.6175 480.849 47.8909 480.329 48.4375C479.809 48.9709 479.549 49.6909 479.549 50.5975C479.549 51.5042 479.809 52.2309 480.329 52.7775C480.849 53.3109 481.509 53.5775 482.309 53.5775ZM493.274 46.6375C493.647 46.1175 494.147 45.7242 494.774 45.4575C495.414 45.1909 496.147 45.0575 496.974 45.0575V47.9375C496.627 47.9109 496.394 47.8975 496.274 47.8975C495.381 47.8975 494.681 48.1509 494.174 48.6575C493.667 49.1509 493.414 49.8975 493.414 50.8975V55.9775H490.294V45.2175H493.274V46.6375ZM509.88 45.2175L505.02 56.6375C504.527 57.8775 503.914 58.7509 503.18 59.2575C502.46 59.7642 501.587 60.0175 500.56 60.0175C500 60.0175 499.447 59.9309 498.9 59.7575C498.354 59.5842 497.907 59.3442 497.56 59.0375L498.7 56.8175C498.94 57.0309 499.214 57.1975 499.52 57.3175C499.84 57.4375 500.154 57.4975 500.46 57.4975C500.887 57.4975 501.234 57.3909 501.5 57.1775C501.767 56.9775 502.007 56.6375 502.22 56.1575L502.26 56.0575L497.6 45.2175H500.82L503.84 52.5175L506.88 45.2175H509.88Z" fill="white"/>
<defs>
<clipPath id="clip0_207:9">
<rect width="65.1533" height="63.3018" fill="white" transform="translate(25.8033 25.0693)"/>
</clipPath>
</defs>
</svg>
