<svg width="542" height="114" viewBox="0 0 542 114" fill="none" xmlns="http://www.w3.org/2000/svg">
<rect x="26.0496" y="14.8438" width="515.95" height="89.0729" fill="#3E4671"/>
<path d="M112.039 57.2795C112.039 87.4912 87.4161 112 57.0196 112C26.6232 112 2 87.4912 2 57.2795C2 27.0679 26.6232 2.55859 57.0196 2.55859C87.4161 2.55859 112.039 27.0679 112.039 57.2795Z" fill="white" stroke="#3E4671" stroke-width="4"/>
<path d="M56.7064 31.5625C55.4703 31.5625 54.2422 31.9779 53.1841 32.7375L49.9091 35.0243L46.1357 35.5189H46.0744L46.0131 35.5802C44.7755 35.8597 43.6425 36.4844 42.7454 37.3817C41.8483 38.2791 41.2238 39.4124 40.9443 40.6503L40.885 40.7116V40.7729L40.3906 44.6066L38.1044 47.5739L38.0411 47.6352V47.6965C36.6587 49.9062 36.5974 52.7587 38.1044 54.8675L40.4519 58.1433L41.0709 61.5458L34.7048 71.2488L32.6658 74.2794H42.121L44.4072 79.5947L45.8292 82.9952L47.8681 79.9033L54.1097 70.507C55.7868 71.1954 57.6794 71.2587 59.3031 70.507L65.5446 79.9033L67.5836 82.9952L69.0055 79.5947L71.2917 74.2794H80.747L78.708 71.2488L72.5278 61.8544L73.0222 58.1453L75.3084 54.8694L75.3717 54.8081V54.7468C76.754 52.5372 76.8154 49.7459 75.3084 47.6372L73.0222 44.3594L72.2805 40.6503H72.3419C72.3339 40.6028 72.2885 40.5711 72.2805 40.5256C71.9246 37.9382 69.8777 35.8374 67.2751 35.5189H67.2118L63.5036 35.0243L60.2286 32.7375C59.2058 31.988 57.9742 31.5772 56.7064 31.5625ZM56.7064 35.5802C57.1612 35.5802 57.6102 35.7187 57.9424 35.9521L61.4647 38.4861L61.8978 38.7947L62.3922 38.858L66.7193 39.4752H66.7787C67.6686 39.5741 68.2856 40.1933 68.3865 41.0835V41.2061L69.1914 45.5957L69.2508 46.0289L69.5612 46.3989L72.0946 49.922C72.5673 50.5788 72.6286 51.6925 72.0333 52.642L69.2527 56.537L69.1894 57.0316L68.5724 61.3598V61.4192C68.5395 61.7283 68.4338 62.0253 68.2639 62.2856L68.1393 62.3489V62.4083C67.8454 62.7614 67.4238 62.984 66.9665 63.0275H66.8419L62.3309 63.8326L61.8365 63.8919L61.4647 64.2025L57.9424 66.7365C57.2858 67.2093 56.1111 67.2707 55.1618 66.6752L51.9481 64.2025L51.5763 63.8939L51.0206 63.8306L46.6934 63.2134H46.6341C46.3544 63.1887 46.0848 63.0971 45.848 62.9463C45.6112 62.7955 45.4141 62.5899 45.2734 62.347C45.142 62.1188 45.0579 61.8665 45.0262 61.6051V61.4825L44.2233 56.9703L44.16 56.4757L43.8515 56.1038L41.3181 52.5807C40.8454 51.9239 40.7841 50.7489 41.3794 49.7994L43.8515 46.5848L44.16 46.2129L44.2213 45.657L44.779 41.5147C44.7869 41.4851 44.8324 41.4851 44.8403 41.4534C44.9636 40.9772 45.212 40.5427 45.5598 40.1948C45.9075 39.847 46.3419 39.5985 46.818 39.4752C46.8496 39.4673 46.8496 39.4218 46.8793 39.4139L51.0206 38.8561L51.515 38.7967L51.9481 38.4861L55.4703 35.9521C55.8026 35.7206 56.2515 35.5802 56.7064 35.5802ZM70.3642 65.6861L73.394 70.323H68.6317L68.1373 71.5594L66.7787 74.7106L62.5761 68.2815L63.5017 67.603L67.3977 66.9225V66.9838C67.4432 66.9759 67.4728 66.9304 67.5203 66.9225C68.5612 66.7723 69.5426 66.3453 70.3622 65.6861H70.3642ZM43.0486 65.7475C43.9073 66.5284 44.9861 67.0251 46.1377 67.1698H46.199L49.9704 67.6643L50.8347 68.3448L46.6321 74.7106L45.2734 71.5594L44.779 70.323H40.0207L43.0486 65.7475Z" fill="#3E4671"/>
<path d="M125.942 57.228C124.587 57.228 123.358 56.9367 122.256 56.354C121.167 55.7587 120.305 54.9417 119.672 53.903C119.051 52.8517 118.741 51.6673 118.741 50.35C118.741 49.0327 119.051 47.8547 119.672 46.816C120.305 45.7647 121.167 44.9477 122.256 44.365C123.358 43.7697 124.593 43.472 125.961 43.472C127.114 43.472 128.152 43.6747 129.077 44.08C130.014 44.4853 130.8 45.068 131.433 45.828L129.457 47.652C128.558 46.6133 127.443 46.094 126.113 46.094C125.29 46.094 124.555 46.2777 123.909 46.645C123.263 46.9997 122.756 47.5 122.389 48.146C122.034 48.792 121.857 49.5267 121.857 50.35C121.857 51.1733 122.034 51.908 122.389 52.554C122.756 53.2 123.263 53.7067 123.909 54.074C124.555 54.4287 125.29 54.606 126.113 54.606C127.443 54.606 128.558 54.0803 129.457 53.029L131.433 54.853C130.8 55.6257 130.014 56.2147 129.077 56.62C128.14 57.0253 127.095 57.228 125.942 57.228ZM142.796 51.927C142.796 51.965 142.777 52.231 142.739 52.725H135.006C135.145 53.3583 135.474 53.8587 135.994 54.226C136.513 54.5933 137.159 54.777 137.932 54.777C138.464 54.777 138.932 54.701 139.338 54.549C139.756 54.3843 140.142 54.131 140.497 53.789L142.074 55.499C141.111 56.601 139.705 57.152 137.856 57.152C136.703 57.152 135.683 56.9303 134.797 56.487C133.91 56.031 133.226 55.404 132.745 54.606C132.263 53.808 132.023 52.9023 132.023 51.889C132.023 50.8883 132.257 49.989 132.726 49.191C133.207 48.3803 133.859 47.7533 134.683 47.31C135.519 46.854 136.45 46.626 137.476 46.626C138.476 46.626 139.382 46.8413 140.193 47.272C141.003 47.7027 141.637 48.3233 142.093 49.134C142.561 49.932 142.796 50.863 142.796 51.927ZM137.495 48.868C136.823 48.868 136.26 49.058 135.804 49.438C135.348 49.818 135.069 50.3373 134.968 50.996H140.003C139.901 50.35 139.623 49.837 139.167 49.457C138.711 49.0643 138.153 48.868 137.495 48.868ZM151.091 46.626C152.041 46.626 152.902 46.8477 153.675 47.291C154.46 47.7217 155.074 48.336 155.518 49.134C155.961 49.9193 156.183 50.8377 156.183 51.889C156.183 52.9403 155.961 53.865 155.518 54.663C155.074 55.4483 154.46 56.0627 153.675 56.506C152.902 56.9367 152.041 57.152 151.091 57.152C149.786 57.152 148.76 56.7403 148.013 55.917V60.686H145.049V46.778H147.88V47.956C148.614 47.0693 149.685 46.626 151.091 46.626ZM150.578 54.72C151.338 54.72 151.958 54.4667 152.44 53.96C152.934 53.4407 153.181 52.7503 153.181 51.889C153.181 51.0277 152.934 50.3437 152.44 49.837C151.958 49.3177 151.338 49.058 150.578 49.058C149.818 49.058 149.191 49.3177 148.697 49.837C148.215 50.3437 147.975 51.0277 147.975 51.889C147.975 52.7503 148.215 53.4407 148.697 53.96C149.191 54.4667 149.818 54.72 150.578 54.72ZM166.477 49.21H163.019V57H160.074V49.21H156.616V46.778H166.477V49.21ZM168.057 46.778H171.002V52.858L175.98 46.778H178.697V57H175.752V50.92L170.793 57H168.057V46.778ZM195.663 51.851C195.663 53.4343 195.131 54.6883 194.067 55.613C193.016 56.525 191.508 57.0507 189.545 57.19V60.686H186.828V57.19C184.865 57.0507 183.351 56.5313 182.287 55.632C181.236 54.72 180.71 53.4597 180.71 51.851C180.71 50.2677 181.229 49.039 182.268 48.165C183.319 47.291 184.839 46.7843 186.828 46.645V42.902H189.545V46.645C191.508 46.7843 193.016 47.2973 194.067 48.184C195.131 49.0707 195.663 50.293 195.663 51.851ZM183.579 51.851C183.579 52.763 183.839 53.466 184.358 53.96C184.877 54.454 185.701 54.7643 186.828 54.891V48.944C185.701 49.058 184.877 49.3557 184.358 49.837C183.839 50.3057 183.579 50.977 183.579 51.851ZM189.545 54.891C190.672 54.7643 191.496 54.454 192.015 53.96C192.547 53.466 192.813 52.763 192.813 51.851C192.813 50.977 192.547 50.3057 192.015 49.837C191.496 49.3557 190.672 49.058 189.545 48.944V54.891ZM197.67 46.778H200.615V52.858L205.593 46.778H208.31V57H205.365V50.92L200.406 57H197.67V46.778ZM215.662 53.124H214.123V57H211.159V46.778H214.123V50.749H215.719L218.493 46.778H221.647L218.075 51.68L221.894 57H218.398L215.662 53.124ZM227.135 46.626C228.719 46.626 229.935 47.006 230.783 47.766C231.632 48.5133 232.056 49.647 232.056 51.167V57H229.282V55.727C228.725 56.677 227.686 57.152 226.166 57.152C225.381 57.152 224.697 57.019 224.114 56.753C223.544 56.487 223.107 56.1197 222.803 55.651C222.499 55.1823 222.347 54.6503 222.347 54.055C222.347 53.105 222.702 52.3577 223.411 51.813C224.133 51.2683 225.242 50.996 226.736 50.996H229.092C229.092 50.35 228.896 49.856 228.503 49.514C228.111 49.1593 227.522 48.982 226.736 48.982C226.192 48.982 225.653 49.0707 225.121 49.248C224.602 49.4127 224.159 49.6407 223.791 49.932L222.727 47.861C223.285 47.4683 223.95 47.1643 224.722 46.949C225.508 46.7337 226.312 46.626 227.135 46.626ZM226.907 55.157C227.414 55.157 227.864 55.043 228.256 54.815C228.649 54.5743 228.928 54.226 229.092 53.77V52.725H227.059C225.843 52.725 225.235 53.124 225.235 53.922C225.235 54.302 225.381 54.606 225.672 54.834C225.976 55.0493 226.388 55.157 226.907 55.157ZM246.145 54.568V59.242H243.39V57H234.631V46.778H237.576V54.568H241.699V46.778H244.663V54.568H246.145ZM248.009 46.778H250.954V52.858L255.932 46.778H258.649V57H255.704V50.92L250.745 57H248.009V46.778ZM270.58 46.778V57H267.939V54.074H265.754L263.816 57H260.662L262.999 53.656C262.29 53.3773 261.745 52.9783 261.365 52.459C260.998 51.927 260.814 51.2873 260.814 50.54C260.814 49.3367 261.245 48.412 262.106 47.766C262.98 47.1073 264.177 46.778 265.697 46.778H270.58ZM265.754 49.191C265.121 49.191 264.64 49.305 264.31 49.533C263.994 49.761 263.835 50.1283 263.835 50.635C263.835 51.1417 263.987 51.5153 264.291 51.756C264.608 51.984 265.083 52.098 265.716 52.098H267.939V49.191H265.754ZM288.975 46.778V57H286.011V49.21H281.755V57H278.81V46.778H288.975ZM296.605 57.152C295.528 57.152 294.559 56.9303 293.698 56.487C292.849 56.031 292.184 55.404 291.703 54.606C291.221 53.808 290.981 52.9023 290.981 51.889C290.981 50.8757 291.221 49.97 291.703 49.172C292.184 48.374 292.849 47.7533 293.698 47.31C294.559 46.854 295.528 46.626 296.605 46.626C297.681 46.626 298.644 46.854 299.493 47.31C300.341 47.7533 301.006 48.374 301.488 49.172C301.969 49.97 302.21 50.8757 302.21 51.889C302.21 52.9023 301.969 53.808 301.488 54.606C301.006 55.404 300.341 56.031 299.493 56.487C298.644 56.9303 297.681 57.152 296.605 57.152ZM296.605 54.72C297.365 54.72 297.985 54.4667 298.467 53.96C298.961 53.4407 299.208 52.7503 299.208 51.889C299.208 51.0277 298.961 50.3437 298.467 49.837C297.985 49.3177 297.365 49.058 296.605 49.058C295.845 49.058 295.218 49.3177 294.724 49.837C294.23 50.3437 293.983 51.0277 293.983 51.889C293.983 52.7503 294.23 53.4407 294.724 53.96C295.218 54.4667 295.845 54.72 296.605 54.72ZM314.493 57.152C313.404 57.152 312.422 56.9303 311.548 56.487C310.687 56.031 310.009 55.404 309.515 54.606C309.034 53.808 308.793 52.9023 308.793 51.889C308.793 50.8757 309.034 49.97 309.515 49.172C310.009 48.374 310.687 47.7533 311.548 47.31C312.422 46.854 313.404 46.626 314.493 46.626C315.57 46.626 316.507 46.854 317.305 47.31C318.116 47.7533 318.705 48.393 319.072 49.229L316.773 50.464C316.241 49.5267 315.475 49.058 314.474 49.058C313.701 49.058 313.062 49.3113 312.555 49.818C312.048 50.3247 311.795 51.015 311.795 51.889C311.795 52.763 312.048 53.4533 312.555 53.96C313.062 54.4667 313.701 54.72 314.474 54.72C315.487 54.72 316.254 54.2513 316.773 53.314L319.072 54.568C318.705 55.3787 318.116 56.012 317.305 56.468C316.507 56.924 315.57 57.152 314.493 57.152ZM329.424 49.21H325.966V57H323.021V49.21H319.563V46.778H329.424V49.21ZM334.975 46.626C336.558 46.626 337.774 47.006 338.623 47.766C339.472 48.5133 339.896 49.647 339.896 51.167V57H337.122V55.727C336.565 56.677 335.526 57.152 334.006 57.152C333.221 57.152 332.537 57.019 331.954 56.753C331.384 56.487 330.947 56.1197 330.643 55.651C330.339 55.1823 330.187 54.6503 330.187 54.055C330.187 53.105 330.542 52.3577 331.251 51.813C331.973 51.2683 333.081 50.996 334.576 50.996H336.932C336.932 50.35 336.736 49.856 336.343 49.514C335.95 49.1593 335.361 48.982 334.576 48.982C334.031 48.982 333.493 49.0707 332.961 49.248C332.442 49.4127 331.998 49.6407 331.631 49.932L330.567 47.861C331.124 47.4683 331.789 47.1643 332.562 46.949C333.347 46.7337 334.152 46.626 334.975 46.626ZM334.747 55.157C335.254 55.157 335.703 55.043 336.096 54.815C336.489 54.5743 336.767 54.226 336.932 53.77V52.725H334.899C333.683 52.725 333.075 53.124 333.075 53.922C333.075 54.302 333.221 54.606 333.512 54.834C333.816 55.0493 334.228 55.157 334.747 55.157ZM342.471 46.778H345.416V50.768H349.862V46.778H352.826V57H349.862V53.181H345.416V57H342.471V46.778ZM367.12 54.568V59.204H364.365V57H357.183V59.204H354.428V54.568H354.846C355.48 54.5553 355.917 54.1817 356.157 53.447C356.398 52.7123 356.55 51.6673 356.613 50.312L356.746 46.778H365.657V54.568H367.12ZM359.292 50.521C359.254 51.5597 359.172 52.4083 359.045 53.067C358.931 53.7257 358.71 54.226 358.38 54.568H362.693V49.21H359.349L359.292 50.521ZM372.957 46.626C374.54 46.626 375.756 47.006 376.605 47.766C377.453 48.5133 377.878 49.647 377.878 51.167V57H375.104V55.727C374.546 56.677 373.508 57.152 371.988 57.152C371.202 57.152 370.518 57.019 369.936 56.753C369.366 56.487 368.929 56.1197 368.625 55.651C368.321 55.1823 368.169 54.6503 368.169 54.055C368.169 53.105 368.523 52.3577 369.233 51.813C369.955 51.2683 371.063 50.996 372.558 50.996H374.914C374.914 50.35 374.717 49.856 374.325 49.514C373.932 49.1593 373.343 48.982 372.558 48.982C372.013 48.982 371.475 49.0707 370.943 49.248C370.423 49.4127 369.98 49.6407 369.613 49.932L368.549 47.861C369.106 47.4683 369.771 47.1643 370.544 46.949C371.329 46.7337 372.133 46.626 372.957 46.626ZM372.729 55.157C373.235 55.157 373.685 55.043 374.078 54.815C374.47 54.5743 374.749 54.226 374.914 53.77V52.725H372.881C371.665 52.725 371.057 53.124 371.057 53.922C371.057 54.302 371.202 54.606 371.494 54.834C371.798 55.0493 372.209 55.157 372.729 55.157ZM386.475 46.626C387.425 46.626 388.287 46.8477 389.059 47.291C389.845 47.7217 390.459 48.336 390.902 49.134C391.346 49.9193 391.567 50.8377 391.567 51.889C391.567 52.9403 391.346 53.865 390.902 54.663C390.459 55.4483 389.845 56.0627 389.059 56.506C388.287 56.9367 387.425 57.152 386.475 57.152C385.171 57.152 384.145 56.7403 383.397 55.917V60.686H380.433V46.778H383.264V47.956C383.999 47.0693 385.069 46.626 386.475 46.626ZM385.962 54.72C386.722 54.72 387.343 54.4667 387.824 53.96C388.318 53.4407 388.565 52.7503 388.565 51.889C388.565 51.0277 388.318 50.3437 387.824 49.837C387.343 49.3177 386.722 49.058 385.962 49.058C385.202 49.058 384.575 49.3177 384.081 49.837C383.6 50.3437 383.359 51.0277 383.359 51.889C383.359 52.7503 383.6 53.4407 384.081 53.96C384.575 54.4667 385.202 54.72 385.962 54.72ZM401.862 49.21H398.404V57H395.459V49.21H392.001V46.778H401.862V49.21ZM407.413 46.626C408.996 46.626 410.212 47.006 411.061 47.766C411.909 48.5133 412.334 49.647 412.334 51.167V57H409.56V55.727C409.002 56.677 407.964 57.152 406.444 57.152C405.658 57.152 404.974 57.019 404.392 56.753C403.822 56.487 403.385 56.1197 403.081 55.651C402.777 55.1823 402.625 54.6503 402.625 54.055C402.625 53.105 402.979 52.3577 403.689 51.813C404.411 51.2683 405.519 50.996 407.014 50.996H409.37C409.37 50.35 409.173 49.856 408.781 49.514C408.388 49.1593 407.799 48.982 407.014 48.982C406.469 48.982 405.931 49.0707 405.399 49.248C404.879 49.4127 404.436 49.6407 404.069 49.932L403.005 47.861C403.562 47.4683 404.227 47.1643 405 46.949C405.785 46.7337 406.589 46.626 407.413 46.626ZM407.185 55.157C407.691 55.157 408.141 55.043 408.534 54.815C408.926 54.5743 409.205 54.226 409.37 53.77V52.725H407.337C406.121 52.725 405.513 53.124 405.513 53.922C405.513 54.302 405.658 54.606 405.95 54.834C406.254 55.0493 406.665 55.157 407.185 55.157ZM424.883 57V50.882L421.824 56.012H420.57L417.587 50.863V57H414.908V46.778H418.005L421.273 52.687L424.75 46.778H427.524L427.562 57H424.883ZM435.934 43.7H439.012V57H435.934V43.7ZM446.539 57.228C445.487 57.228 444.468 57.0887 443.48 56.81C442.504 56.5187 441.719 56.145 441.124 55.689L442.169 53.371C442.739 53.789 443.416 54.1247 444.202 54.378C444.987 54.6313 445.772 54.758 446.558 54.758C447.432 54.758 448.078 54.6313 448.496 54.378C448.914 54.112 449.123 53.7637 449.123 53.333C449.123 53.0163 448.996 52.7567 448.743 52.554C448.502 52.3387 448.185 52.1677 447.793 52.041C447.413 51.9143 446.893 51.775 446.235 51.623C445.221 51.3823 444.392 51.1417 443.746 50.901C443.1 50.6603 442.542 50.274 442.074 49.742C441.618 49.21 441.39 48.5007 441.39 47.614C441.39 46.8413 441.599 46.1447 442.017 45.524C442.435 44.8907 443.062 44.3903 443.898 44.023C444.746 43.6557 445.779 43.472 446.995 43.472C447.843 43.472 448.673 43.5733 449.484 43.776C450.294 43.9787 451.004 44.27 451.612 44.65L450.662 46.987C449.433 46.2903 448.204 45.942 446.976 45.942C446.114 45.942 445.475 46.0813 445.057 46.36C444.651 46.6387 444.449 47.006 444.449 47.462C444.449 47.918 444.683 48.26 445.152 48.488C445.633 48.7033 446.361 48.9187 447.337 49.134C448.35 49.3747 449.18 49.6153 449.826 49.856C450.472 50.0967 451.023 50.4767 451.479 50.996C451.947 51.5153 452.182 52.2183 452.182 53.105C452.182 53.865 451.966 54.5617 451.536 55.195C451.118 55.8157 450.484 56.3097 449.636 56.677C448.787 57.0443 447.755 57.228 446.539 57.228ZM460.726 57.228C459.345 57.228 458.098 56.9303 456.983 56.335C455.881 55.7397 455.013 54.9227 454.38 53.884C453.759 52.8327 453.449 51.6547 453.449 50.35C453.449 49.0453 453.759 47.8737 454.38 46.835C455.013 45.7837 455.881 44.9603 456.983 44.365C458.098 43.7697 459.345 43.472 460.726 43.472C462.107 43.472 463.348 43.7697 464.45 44.365C465.552 44.9603 466.42 45.7837 467.053 46.835C467.686 47.8737 468.003 49.0453 468.003 50.35C468.003 51.6547 467.686 52.8327 467.053 53.884C466.42 54.9227 465.552 55.7397 464.45 56.335C463.348 56.9303 462.107 57.228 460.726 57.228ZM460.726 54.606C461.511 54.606 462.221 54.4287 462.854 54.074C463.487 53.7067 463.981 53.2 464.336 52.554C464.703 51.908 464.887 51.1733 464.887 50.35C464.887 49.5267 464.703 48.792 464.336 48.146C463.981 47.5 463.487 46.9997 462.854 46.645C462.221 46.2777 461.511 46.094 460.726 46.094C459.941 46.094 459.231 46.2777 458.598 46.645C457.965 46.9997 457.464 47.5 457.097 48.146C456.742 48.792 456.565 49.5267 456.565 50.35C456.565 51.1733 456.742 51.908 457.097 52.554C457.464 53.2 457.965 53.7067 458.598 54.074C459.231 54.4287 459.941 54.606 460.726 54.606ZM470.876 53.466C471.408 53.466 471.845 53.637 472.187 53.979C472.529 54.3083 472.7 54.7453 472.7 55.29C472.7 55.5433 472.668 55.7967 472.605 56.05C472.542 56.3033 472.402 56.6833 472.187 57.19L471.104 59.926H469.223L470.059 56.905C469.742 56.7783 469.489 56.5757 469.299 56.297C469.122 56.0057 469.033 55.67 469.033 55.29C469.033 54.7453 469.204 54.3083 469.546 53.979C469.901 53.637 470.344 53.466 470.876 53.466ZM128.564 73.141H131.376V78.537C130.654 79.0817 129.818 79.4997 128.868 79.791C127.918 80.0823 126.962 80.228 125.999 80.228C124.618 80.228 123.377 79.9367 122.275 79.354C121.173 78.7587 120.305 77.9417 119.672 76.903C119.051 75.8517 118.741 74.6673 118.741 73.35C118.741 72.0327 119.051 70.8547 119.672 69.816C120.305 68.7647 121.179 67.9477 122.294 67.365C123.409 66.7697 124.663 66.472 126.056 66.472C127.221 66.472 128.279 66.6683 129.229 67.061C130.179 67.4537 130.977 68.0237 131.623 68.771L129.647 70.595C128.697 69.5943 127.551 69.094 126.208 69.094C125.359 69.094 124.606 69.2713 123.947 69.626C123.288 69.9807 122.775 70.481 122.408 71.127C122.041 71.773 121.857 72.514 121.857 73.35C121.857 74.1733 122.041 74.908 122.408 75.554C122.775 76.2 123.282 76.7067 123.928 77.074C124.587 77.4287 125.334 77.606 126.17 77.606C127.057 77.606 127.855 77.416 128.564 77.036V73.141ZM142.994 77.15H136.819L135.641 80H132.487L138.415 66.7H141.455L147.402 80H144.172L142.994 77.15ZM142.025 74.813L139.916 69.721L137.807 74.813H142.025ZM151.86 69.17V72.685H158.016V75.155H151.86V80H148.782V66.7H158.833V69.17H151.86ZM163.765 69.208H159.509V66.7H171.099V69.208H166.843V80H163.765V69.208ZM180.846 77.15H174.671L173.493 80H170.339L176.267 66.7H179.307L185.254 80H182.024L180.846 77.15ZM179.877 74.813L177.768 69.721L175.659 74.813H179.877ZM188.177 76.466C188.709 76.466 189.146 76.637 189.488 76.979C189.83 77.3083 190.001 77.7453 190.001 78.29C190.001 78.5433 189.969 78.7967 189.906 79.05C189.843 79.3033 189.703 79.6833 189.488 80.19L188.405 82.926H186.524L187.36 79.905C187.043 79.7783 186.79 79.5757 186.6 79.297C186.423 79.0057 186.334 78.67 186.334 78.29C186.334 77.7453 186.505 77.3083 186.847 76.979C187.202 76.637 187.645 76.466 188.177 76.466ZM200.677 69.17V72.685H206.833V75.155H200.677V80H197.599V66.7H207.65V69.17H200.677ZM216.045 80.228C214.665 80.228 213.417 79.9303 212.302 79.335C211.2 78.7397 210.333 77.9227 209.699 76.884C209.079 75.8327 208.768 74.6547 208.768 73.35C208.768 72.0453 209.079 70.8737 209.699 69.835C210.333 68.7837 211.2 67.9603 212.302 67.365C213.417 66.7697 214.665 66.472 216.045 66.472C217.426 66.472 218.667 66.7697 219.769 67.365C220.871 67.9603 221.739 68.7837 222.372 69.835C223.006 70.8737 223.322 72.0453 223.322 73.35C223.322 74.6547 223.006 75.8327 222.372 76.884C221.739 77.9227 220.871 78.7397 219.769 79.335C218.667 79.9303 217.426 80.228 216.045 80.228ZM216.045 77.606C216.831 77.606 217.54 77.4287 218.173 77.074C218.807 76.7067 219.301 76.2 219.655 75.554C220.023 74.908 220.206 74.1733 220.206 73.35C220.206 72.5267 220.023 71.792 219.655 71.146C219.301 70.5 218.807 69.9997 218.173 69.645C217.54 69.2777 216.831 69.094 216.045 69.094C215.26 69.094 214.551 69.2777 213.917 69.645C213.284 69.9997 212.784 70.5 212.416 71.146C212.062 71.792 211.884 72.5267 211.884 73.35C211.884 74.1733 212.062 74.908 212.416 75.554C212.784 76.2 213.284 76.7067 213.917 77.074C214.551 77.4287 215.26 77.606 216.045 77.606ZM230.006 80.228C228.954 80.228 227.935 80.0887 226.947 79.81C225.971 79.5187 225.186 79.145 224.591 78.689L225.636 76.371C226.206 76.789 226.883 77.1247 227.669 77.378C228.454 77.6313 229.239 77.758 230.025 77.758C230.899 77.758 231.545 77.6313 231.963 77.378C232.381 77.112 232.59 76.7637 232.59 76.333C232.59 76.0163 232.463 75.7567 232.21 75.554C231.969 75.3387 231.652 75.1677 231.26 75.041C230.88 74.9143 230.36 74.775 229.702 74.623C228.688 74.3823 227.859 74.1417 227.213 73.901C226.567 73.6603 226.009 73.274 225.541 72.742C225.085 72.21 224.857 71.5007 224.857 70.614C224.857 69.8413 225.066 69.1447 225.484 68.524C225.902 67.8907 226.529 67.3903 227.365 67.023C228.213 66.6557 229.246 66.472 230.462 66.472C231.31 66.472 232.14 66.5733 232.951 66.776C233.761 66.9787 234.471 67.27 235.079 67.65L234.129 69.987C232.9 69.2903 231.671 68.942 230.443 68.942C229.581 68.942 228.942 69.0813 228.524 69.36C228.118 69.6387 227.916 70.006 227.916 70.462C227.916 70.918 228.15 71.26 228.619 71.488C229.1 71.7033 229.828 71.9187 230.804 72.134C231.817 72.3747 232.647 72.6153 233.293 72.856C233.939 73.0967 234.49 73.4767 234.946 73.996C235.414 74.5153 235.649 75.2183 235.649 76.105C235.649 76.865 235.433 77.5617 235.003 78.195C234.585 78.8157 233.951 79.3097 233.103 79.677C232.254 80.0443 231.222 80.228 230.006 80.228ZM240.83 69.17V72.685H246.986V75.155H240.83V80H237.752V66.7H247.803V69.17H240.83ZM258.089 77.15H251.914L250.736 80H247.582L253.51 66.7H256.55L262.497 80H259.267L258.089 77.15ZM257.12 74.813L255.011 69.721L252.902 74.813H257.12ZM265.42 76.466C265.952 76.466 266.389 76.637 266.731 76.979C267.073 77.3083 267.244 77.7453 267.244 78.29C267.244 78.5433 267.212 78.7967 267.149 79.05C267.086 79.3033 266.946 79.6833 266.731 80.19L265.648 82.926H263.767L264.603 79.905C264.286 79.7783 264.033 79.5757 263.843 79.297C263.666 79.0057 263.577 78.67 263.577 78.29C263.577 77.7453 263.748 77.3083 264.09 76.979C264.445 76.637 264.888 76.466 265.42 76.466ZM283.887 69.778V80H280.923V76.2C280.061 76.6307 279.111 76.846 278.073 76.846C276.692 76.846 275.647 76.5357 274.938 75.915C274.241 75.2817 273.893 74.3063 273.893 72.989V69.778H276.857V72.799C276.857 73.4197 277.015 73.8693 277.332 74.148C277.661 74.4267 278.13 74.566 278.738 74.566C279.51 74.566 280.239 74.4013 280.923 74.072V69.778H283.887ZM296.537 69.778V80H293.573V72.21H290.343L290.248 74.015C290.197 75.3577 290.07 76.4723 289.868 77.359C289.665 78.2457 289.336 78.9423 288.88 79.449C288.424 79.9557 287.79 80.209 286.98 80.209C286.549 80.209 286.036 80.133 285.441 79.981L285.593 77.549C285.795 77.5743 285.941 77.587 286.03 77.587C286.473 77.587 286.802 77.4287 287.018 77.112C287.246 76.7827 287.398 76.371 287.474 75.877C287.55 75.3703 287.607 74.7053 287.645 73.882L287.797 69.778H296.537ZM309.324 74.927C309.324 74.965 309.305 75.231 309.267 75.725H301.534C301.673 76.3583 302.003 76.8587 302.522 77.226C303.041 77.5933 303.687 77.777 304.46 77.777C304.992 77.777 305.461 77.701 305.866 77.549C306.284 77.3843 306.67 77.131 307.025 76.789L308.602 78.499C307.639 79.601 306.233 80.152 304.384 80.152C303.231 80.152 302.212 79.9303 301.325 79.487C300.438 79.031 299.754 78.404 299.273 77.606C298.792 76.808 298.551 75.9023 298.551 74.889C298.551 73.8883 298.785 72.989 299.254 72.191C299.735 71.3803 300.388 70.7533 301.211 70.31C302.047 69.854 302.978 69.626 304.004 69.626C305.005 69.626 305.91 69.8413 306.721 70.272C307.532 70.7027 308.165 71.3233 308.621 72.134C309.09 72.932 309.324 73.863 309.324 74.927ZM304.023 71.868C303.352 71.868 302.788 72.058 302.332 72.438C301.876 72.818 301.597 73.3373 301.496 73.996H306.531C306.43 73.35 306.151 72.837 305.695 72.457C305.239 72.0643 304.682 71.868 304.023 71.868ZM311.596 69.778H314.541V73.768H318.987V69.778H321.951V80H318.987V76.181H314.541V80H311.596V69.778ZM329.652 80.152C328.563 80.152 327.581 79.9303 326.707 79.487C325.846 79.031 325.168 78.404 324.674 77.606C324.193 76.808 323.952 75.9023 323.952 74.889C323.952 73.8757 324.193 72.97 324.674 72.172C325.168 71.374 325.846 70.7533 326.707 70.31C327.581 69.854 328.563 69.626 329.652 69.626C330.729 69.626 331.666 69.854 332.464 70.31C333.275 70.7533 333.864 71.393 334.231 72.229L331.932 73.464C331.4 72.5267 330.634 72.058 329.633 72.058C328.861 72.058 328.221 72.3113 327.714 72.818C327.208 73.3247 326.954 74.015 326.954 74.889C326.954 75.763 327.208 76.4533 327.714 76.96C328.221 77.4667 328.861 77.72 329.633 77.72C330.647 77.72 331.413 77.2513 331.932 76.314L334.231 77.568C333.864 78.3787 333.275 79.012 332.464 79.468C331.666 79.924 330.729 80.152 329.652 80.152ZM344.583 72.21H341.125V80H338.18V72.21H334.722V69.778H344.583V72.21ZM353.972 74.661C355.176 75.0663 355.777 75.877 355.777 77.093C355.777 78.0177 355.429 78.7333 354.732 79.24C354.036 79.7467 352.997 80 351.616 80H346.163V69.778H351.388C352.668 69.778 353.668 70.0123 354.39 70.481C355.112 70.937 355.473 71.583 355.473 72.419C355.473 72.9257 355.34 73.3753 355.074 73.768C354.821 74.148 354.454 74.4457 353.972 74.661ZM348.88 73.977H351.122C352.161 73.977 352.68 73.6097 352.68 72.875C352.68 72.153 352.161 71.792 351.122 71.792H348.88V73.977ZM351.369 77.986C352.459 77.986 353.003 77.6123 353.003 76.865C353.003 76.4723 352.877 76.1873 352.623 76.01C352.37 75.82 351.971 75.725 351.426 75.725H348.88V77.986H351.369ZM362.771 80.152C361.694 80.152 360.725 79.9303 359.864 79.487C359.015 79.031 358.35 78.404 357.869 77.606C357.387 76.808 357.147 75.9023 357.147 74.889C357.147 73.8757 357.387 72.97 357.869 72.172C358.35 71.374 359.015 70.7533 359.864 70.31C360.725 69.854 361.694 69.626 362.771 69.626C363.847 69.626 364.81 69.854 365.659 70.31C366.507 70.7533 367.172 71.374 367.654 72.172C368.135 72.97 368.376 73.8757 368.376 74.889C368.376 75.9023 368.135 76.808 367.654 77.606C367.172 78.404 366.507 79.031 365.659 79.487C364.81 79.9303 363.847 80.152 362.771 80.152ZM362.771 77.72C363.531 77.72 364.151 77.4667 364.633 76.96C365.127 76.4407 365.374 75.7503 365.374 74.889C365.374 74.0277 365.127 73.3437 364.633 72.837C364.151 72.3177 363.531 72.058 362.771 72.058C362.011 72.058 361.384 72.3177 360.89 72.837C360.396 73.3437 360.149 74.0277 360.149 74.889C360.149 75.7503 360.396 76.4407 360.89 76.96C361.384 77.4667 362.011 77.72 362.771 77.72ZM383.604 74.661C384.807 75.0663 385.409 75.877 385.409 77.093C385.409 78.0177 385.061 78.7333 384.364 79.24C383.667 79.7467 382.629 80 381.248 80H375.795V69.778H381.02C382.299 69.778 383.3 70.0123 384.022 70.481C384.744 70.937 385.105 71.583 385.105 72.419C385.105 72.9257 384.972 73.3753 384.706 73.768C384.453 74.148 384.085 74.4457 383.604 74.661ZM378.512 73.977H380.754C381.793 73.977 382.312 73.6097 382.312 72.875C382.312 72.153 381.793 71.792 380.754 71.792H378.512V73.977ZM381.001 77.986C382.09 77.986 382.635 77.6123 382.635 76.865C382.635 76.4723 382.508 76.1873 382.255 76.01C382.002 75.82 381.603 75.725 381.058 75.725H378.512V77.986H381.001ZM395.902 69.208H391.646V66.7H403.236V69.208H398.98V80H395.902V69.208ZM404.892 66.7H407.97V80H404.892V66.7ZM417.492 80.228C416.136 80.228 414.908 79.9367 413.806 79.354C412.716 78.7587 411.855 77.9417 411.222 76.903C410.601 75.8517 410.291 74.6673 410.291 73.35C410.291 72.0327 410.601 70.8547 411.222 69.816C411.855 68.7647 412.716 67.9477 413.806 67.365C414.908 66.7697 416.143 66.472 417.511 66.472C418.663 66.472 419.702 66.6747 420.627 67.08C421.564 67.4853 422.349 68.068 422.983 68.828L421.007 70.652C420.107 69.6133 418.993 69.094 417.663 69.094C416.839 69.094 416.105 69.2777 415.459 69.645C414.813 69.9997 414.306 70.5 413.939 71.146C413.584 71.792 413.407 72.5267 413.407 73.35C413.407 74.1733 413.584 74.908 413.939 75.554C414.306 76.2 414.813 76.7067 415.459 77.074C416.105 77.4287 416.839 77.606 417.663 77.606C418.993 77.606 420.107 77.0803 421.007 76.029L422.983 77.853C422.349 78.6257 421.564 79.2147 420.627 79.62C419.689 80.0253 418.644 80.228 417.492 80.228ZM436.807 80.228C435.452 80.228 434.223 79.9367 433.121 79.354C432.032 78.7587 431.171 77.9417 430.537 76.903C429.917 75.8517 429.606 74.6673 429.606 73.35C429.606 72.0327 429.917 70.8547 430.537 69.816C431.171 68.7647 432.032 67.9477 433.121 67.365C434.223 66.7697 435.458 66.472 436.826 66.472C437.979 66.472 439.018 66.6747 439.942 67.08C440.88 67.4853 441.665 68.068 442.298 68.828L440.322 70.652C439.423 69.6133 438.308 69.094 436.978 69.094C436.155 69.094 435.42 69.2777 434.774 69.645C434.128 69.9997 433.622 70.5 433.254 71.146C432.9 71.792 432.722 72.5267 432.722 73.35C432.722 74.1733 432.9 74.908 433.254 75.554C433.622 76.2 434.128 76.7067 434.774 77.074C435.42 77.4287 436.155 77.606 436.978 77.606C438.308 77.606 439.423 77.0803 440.322 76.029L442.298 77.853C441.665 78.6257 440.88 79.2147 439.942 79.62C439.005 80.0253 437.96 80.228 436.807 80.228ZM448.679 80.152C447.603 80.152 446.634 79.9303 445.772 79.487C444.924 79.031 444.259 78.404 443.777 77.606C443.296 76.808 443.055 75.9023 443.055 74.889C443.055 73.8757 443.296 72.97 443.777 72.172C444.259 71.374 444.924 70.7533 445.772 70.31C446.634 69.854 447.603 69.626 448.679 69.626C449.756 69.626 450.719 69.854 451.567 70.31C452.416 70.7533 453.081 71.374 453.562 72.172C454.044 72.97 454.284 73.8757 454.284 74.889C454.284 75.9023 454.044 76.808 453.562 77.606C453.081 78.404 452.416 79.031 451.567 79.487C450.719 79.9303 449.756 80.152 448.679 80.152ZM448.679 77.72C449.439 77.72 450.06 77.4667 450.541 76.96C451.035 76.4407 451.282 75.7503 451.282 74.889C451.282 74.0277 451.035 73.3437 450.541 72.837C450.06 72.3177 449.439 72.058 448.679 72.058C447.919 72.058 447.292 72.3177 446.798 72.837C446.304 73.3437 446.057 74.0277 446.057 74.889C446.057 75.7503 446.304 76.4407 446.798 76.96C447.292 77.4667 447.919 77.72 448.679 77.72ZM466.563 69.778V80H463.751V78.784C463.359 79.2273 462.89 79.5693 462.345 79.81C461.801 80.038 461.212 80.152 460.578 80.152C459.236 80.152 458.172 79.7657 457.386 78.993C456.601 78.2203 456.208 77.074 456.208 75.554V69.778H459.172V75.117C459.172 76.7637 459.863 77.587 461.243 77.587C461.953 77.587 462.523 77.359 462.953 76.903C463.384 76.4343 463.599 75.744 463.599 74.832V69.778H466.563ZM475.522 69.626C476.789 69.626 477.809 70.006 478.581 70.766C479.367 71.526 479.759 72.6533 479.759 74.148V80H476.795V74.604C476.795 73.7933 476.618 73.1917 476.263 72.799C475.909 72.3937 475.396 72.191 474.724 72.191C473.977 72.191 473.382 72.4253 472.938 72.894C472.495 73.35 472.273 74.034 472.273 74.946V80H469.309V69.778H472.14V70.975C472.533 70.5443 473.021 70.215 473.603 69.987C474.186 69.7463 474.826 69.626 475.522 69.626ZM487.497 80.152C486.408 80.152 485.426 79.9303 484.552 79.487C483.691 79.031 483.013 78.404 482.519 77.606C482.038 76.808 481.797 75.9023 481.797 74.889C481.797 73.8757 482.038 72.97 482.519 72.172C483.013 71.374 483.691 70.7533 484.552 70.31C485.426 69.854 486.408 69.626 487.497 69.626C488.574 69.626 489.511 69.854 490.309 70.31C491.12 70.7533 491.709 71.393 492.076 72.229L489.777 73.464C489.245 72.5267 488.479 72.058 487.478 72.058C486.706 72.058 486.066 72.3113 485.559 72.818C485.053 73.3247 484.799 74.015 484.799 74.889C484.799 75.763 485.053 76.4533 485.559 76.96C486.066 77.4667 486.706 77.72 487.478 77.72C488.492 77.72 489.258 77.2513 489.777 76.314L492.076 77.568C491.709 78.3787 491.12 79.012 490.309 79.468C489.511 79.924 488.574 80.152 487.497 80.152ZM493.783 69.778H496.747V80H493.783V69.778ZM495.265 68.353C494.72 68.353 494.277 68.1947 493.935 67.878C493.593 67.5613 493.422 67.1687 493.422 66.7C493.422 66.2313 493.593 65.8387 493.935 65.522C494.277 65.2053 494.72 65.047 495.265 65.047C495.81 65.047 496.253 65.199 496.595 65.503C496.937 65.807 497.108 66.187 497.108 66.643C497.108 67.137 496.937 67.5487 496.595 67.878C496.253 68.1947 495.81 68.353 495.265 68.353ZM499.498 65.902H502.462V80H499.498V65.902Z" fill="white"/>
</svg>
