<svg width="542" height="114" viewBox="0 0 542 114" fill="none" xmlns="http://www.w3.org/2000/svg">
<rect x="26.0402" y="14.415" width="515.96" height="85.2381" fill="#3E4671"/>
<path d="M111.958 56.7209C111.958 86.9339 87.3513 111.442 56.9788 111.442C26.6063 111.442 2 86.9339 2 56.7209C2 26.5079 26.6063 2 56.9788 2C87.3513 2 111.958 26.5079 111.958 56.7209Z" fill="white" stroke="#3E4671" stroke-width="4"/>
<path d="M72.4431 32.9834C74.7144 32.9834 76.8926 33.8865 78.4986 35.4941C80.1047 37.1017 81.0069 39.2821 81.0069 41.5555V71.8876C81.0069 74.1611 80.1047 76.3415 78.4986 77.949C76.8926 79.5566 74.7144 80.4598 72.4431 80.4598H42.1406C39.8693 80.4598 37.6911 79.5566 36.0851 77.949C34.479 76.3415 33.5768 74.1611 33.5768 71.8876V41.5555C33.5768 39.2821 34.479 37.1017 36.0851 35.4941C37.6911 33.8865 39.8693 32.9834 42.1406 32.9834H72.4431ZM72.4431 36.9398H42.1406C40.9176 36.9398 39.7447 37.4261 38.8799 38.2917C38.0151 39.1573 37.5293 40.3313 37.5293 41.5555V71.8876C37.5293 74.4355 39.5951 76.5034 42.1406 76.5034H72.4431C73.6661 76.5034 74.839 76.0171 75.7038 75.1515C76.5686 74.2858 77.0544 73.1118 77.0544 71.8876V41.5555C77.0544 40.3313 76.5686 39.1573 75.7038 38.2917C74.839 37.4261 73.6661 36.9398 72.4431 36.9398Z" fill="#3E4671"/>
<path d="M60.5856 46.1709C61.1098 46.1709 61.6124 46.3793 61.9831 46.7503C62.3537 47.1213 62.5619 47.6244 62.5619 48.1491V55.4024H66.5144V48.1491C66.5144 47.6244 66.7226 47.1213 67.0932 46.7503C67.4639 46.3793 67.9665 46.1709 68.4907 46.1709C69.0148 46.1709 69.5175 46.3793 69.8881 46.7503C70.2587 47.1213 70.4669 47.6244 70.4669 48.1491V65.2142C70.4669 65.7388 70.2587 66.242 69.8881 66.613C69.5175 66.984 69.0148 67.1924 68.4907 67.1924C67.9665 67.1924 67.4639 66.984 67.0932 66.613C66.7226 66.242 66.5144 65.7388 66.5144 65.2142V59.3588H60.5856C60.0615 59.3588 59.5588 59.1504 59.1882 58.7794C58.8176 58.4084 58.6094 57.9052 58.6094 57.3806V48.1491C58.6094 47.6244 58.8176 47.1213 59.1882 46.7503C59.5588 46.3793 60.0615 46.1709 60.5856 46.1709V46.1709Z" fill="#3E4671"/>
<path d="M45.4342 48.1333C46.3485 47.1257 47.8452 46.1709 50.0455 46.1709C53.081 46.1709 55.0362 48.2599 55.7239 50.5519C56.3906 52.7859 55.9874 55.5501 54.0902 57.4571C53.4393 58.1112 52.6726 58.7047 52.0006 59.2243L51.8952 59.306C51.1574 59.8757 50.4987 60.3927 49.919 60.9677C49.247 61.6429 48.6963 62.3788 48.3775 63.3151H53.998C54.5221 63.3151 55.0248 63.5236 55.3954 63.8945C55.766 64.2655 55.9742 64.7687 55.9742 65.2933C55.9742 65.818 55.766 66.3211 55.3954 66.6921C55.0248 67.0631 54.5221 67.2715 53.998 67.2715H46.0929C45.5688 67.2715 45.0661 67.0631 44.6955 66.6921C44.3249 66.3211 44.1167 65.818 44.1167 65.2933C44.1167 62.0043 45.4974 59.7992 47.1311 58.1692C47.9111 57.3885 48.7596 56.7317 49.4763 56.1752L49.4842 56.1699C50.2378 55.587 50.8228 55.1334 51.2892 54.6665C52.0059 53.9438 52.2562 52.7543 51.9374 51.6861C51.6344 50.6812 50.9624 50.1273 50.0455 50.1273C49.1153 50.1273 48.6357 50.4886 48.359 50.7946C48.1981 50.9736 48.0673 51.1776 47.9717 51.3986L47.9664 51.4065C47.8011 51.9007 47.4476 52.3096 46.9827 52.5444C46.5178 52.7792 45.9791 52.8208 45.4838 52.6603C44.9884 52.4998 44.5763 52.15 44.3371 51.6871C44.0979 51.2241 44.0509 50.6854 44.2063 50.1879L44.2985 49.9347C44.5692 49.2731 44.9526 48.6636 45.4316 48.1333H45.4342Z" fill="#3E4671"/>
<path d="M125.942 51.228C124.587 51.228 123.358 50.9367 122.256 50.354C121.167 49.7587 120.305 48.9417 119.672 47.903C119.051 46.8517 118.741 45.6673 118.741 44.35C118.741 43.0327 119.051 41.8547 119.672 40.816C120.305 39.7647 121.167 38.9477 122.256 38.365C123.358 37.7697 124.593 37.472 125.961 37.472C127.114 37.472 128.152 37.6747 129.077 38.08C130.014 38.4853 130.8 39.068 131.433 39.828L129.457 41.652C128.558 40.6133 127.443 40.094 126.113 40.094C125.29 40.094 124.555 40.2777 123.909 40.645C123.263 40.9997 122.756 41.5 122.389 42.146C122.034 42.792 121.857 43.5267 121.857 44.35C121.857 45.1733 122.034 45.908 122.389 46.554C122.756 47.2 123.263 47.7067 123.909 48.074C124.555 48.4287 125.29 48.606 126.113 48.606C127.443 48.606 128.558 48.0803 129.457 47.029L131.433 48.853C130.8 49.6257 130.014 50.2147 129.077 50.62C128.14 51.0253 127.095 51.228 125.942 51.228ZM141.521 43.21H138.063V51H135.118V43.21H131.66V40.778H141.521V43.21ZM149.124 40.626C150.074 40.626 150.935 40.8477 151.708 41.291C152.493 41.7217 153.107 42.336 153.551 43.134C153.994 43.9193 154.216 44.8377 154.216 45.889C154.216 46.9403 153.994 47.865 153.551 48.663C153.107 49.4483 152.493 50.0627 151.708 50.506C150.935 50.9367 150.074 51.152 149.124 51.152C147.819 51.152 146.793 50.7403 146.046 49.917V54.686H143.082V40.778H145.913V41.956C146.647 41.0693 147.718 40.626 149.124 40.626ZM148.611 48.72C149.371 48.72 149.991 48.4667 150.473 47.96C150.967 47.4407 151.214 46.7503 151.214 45.889C151.214 45.0277 150.967 44.3437 150.473 43.837C149.991 43.3177 149.371 43.058 148.611 43.058C147.851 43.058 147.224 43.3177 146.73 43.837C146.248 44.3437 146.008 45.0277 146.008 45.889C146.008 46.7503 146.248 47.4407 146.73 47.96C147.224 48.4667 147.851 48.72 148.611 48.72ZM161.081 51.152C160.004 51.152 159.035 50.9303 158.174 50.487C157.325 50.031 156.66 49.404 156.179 48.606C155.698 47.808 155.457 46.9023 155.457 45.889C155.457 44.8757 155.698 43.97 156.179 43.172C156.66 42.374 157.325 41.7533 158.174 41.31C159.035 40.854 160.004 40.626 161.081 40.626C162.158 40.626 163.12 40.854 163.969 41.31C164.818 41.7533 165.483 42.374 165.964 43.172C166.445 43.97 166.686 44.8757 166.686 45.889C166.686 46.9023 166.445 47.808 165.964 48.606C165.483 49.404 164.818 50.031 163.969 50.487C163.12 50.9303 162.158 51.152 161.081 51.152ZM161.081 48.72C161.841 48.72 162.462 48.4667 162.943 47.96C163.437 47.4407 163.684 46.7503 163.684 45.889C163.684 45.0277 163.437 44.3437 162.943 43.837C162.462 43.3177 161.841 43.058 161.081 43.058C160.321 43.058 159.694 43.3177 159.2 43.837C158.706 44.3437 158.459 45.0277 158.459 45.889C158.459 46.7503 158.706 47.4407 159.2 47.96C159.694 48.4667 160.321 48.72 161.081 48.72ZM173.228 47.124H171.689V51H168.725V40.778H171.689V44.749H173.285L176.059 40.778H179.213L175.641 45.68L179.46 51H175.964L173.228 47.124ZM194.105 45.661C195.308 46.0663 195.91 46.877 195.91 48.093C195.91 49.0177 195.562 49.7333 194.865 50.24C194.168 50.7467 193.13 51 191.749 51H186.296V40.778H191.521C192.8 40.778 193.801 41.0123 194.523 41.481C195.245 41.937 195.606 42.583 195.606 43.419C195.606 43.9257 195.473 44.3753 195.207 44.768C194.954 45.148 194.586 45.4457 194.105 45.661ZM189.013 44.977H191.255C192.294 44.977 192.813 44.6097 192.813 43.875C192.813 43.153 192.294 42.792 191.255 42.792H189.013V44.977ZM191.502 48.986C192.591 48.986 193.136 48.6123 193.136 47.865C193.136 47.4723 193.009 47.1873 192.756 47.01C192.503 46.82 192.104 46.725 191.559 46.725H189.013V48.986H191.502ZM198.115 40.778H201.06V46.858L206.038 40.778H208.755V51H205.81V44.92L200.851 51H198.115V40.778ZM223.062 48.568V53.204H220.307V51H213.125V53.204H210.37V48.568H210.788C211.421 48.5553 211.858 48.1817 212.099 47.447C212.339 46.7123 212.491 45.6673 212.555 44.312L212.688 40.778H221.599V48.568H223.062ZM215.234 44.521C215.196 45.5597 215.113 46.4083 214.987 47.067C214.873 47.7257 214.651 48.226 214.322 48.568H218.635V43.21H215.291L215.234 44.521ZM228.898 40.626C230.481 40.626 231.697 41.006 232.546 41.766C233.395 42.5133 233.819 43.647 233.819 45.167V51H231.045V49.727C230.488 50.677 229.449 51.152 227.929 51.152C227.144 51.152 226.46 51.019 225.877 50.753C225.307 50.487 224.87 50.1197 224.566 49.651C224.262 49.1823 224.11 48.6503 224.11 48.055C224.11 47.105 224.465 46.3577 225.174 45.813C225.896 45.2683 227.004 44.996 228.499 44.996H230.855C230.855 44.35 230.659 43.856 230.266 43.514C229.873 43.1593 229.284 42.982 228.499 42.982C227.954 42.982 227.416 43.0707 226.884 43.248C226.365 43.4127 225.921 43.6407 225.554 43.932L224.49 41.861C225.047 41.4683 225.712 41.1643 226.485 40.949C227.27 40.7337 228.075 40.626 228.898 40.626ZM228.67 49.157C229.177 49.157 229.626 49.043 230.019 48.815C230.412 48.5743 230.69 48.226 230.855 47.77V46.725H228.822C227.606 46.725 226.998 47.124 226.998 47.922C226.998 48.302 227.144 48.606 227.435 48.834C227.739 49.0493 228.151 49.157 228.67 49.157ZM236.394 40.778H239.339V44.768H243.785V40.778H246.749V51H243.785V47.181H239.339V51H236.394V40.778ZM249.586 40.778H252.531V44.768H256.977V40.778H259.941V51H256.977V47.181H252.531V51H249.586V40.778ZM271.861 40.778V51H269.22V48.074H267.035L265.097 51H261.943L264.28 47.656C263.57 47.3773 263.026 46.9783 262.646 46.459C262.278 45.927 262.095 45.2873 262.095 44.54C262.095 43.3367 262.525 42.412 263.387 41.766C264.261 41.1073 265.458 40.778 266.978 40.778H271.861ZM267.035 43.191C266.401 43.191 265.92 43.305 265.591 43.533C265.274 43.761 265.116 44.1283 265.116 44.635C265.116 45.1417 265.268 45.5153 265.572 45.756C265.888 45.984 266.363 46.098 266.997 46.098H269.22V43.191H267.035ZM284.954 51.152C283.865 51.152 282.883 50.9303 282.009 50.487C281.148 50.031 280.47 49.404 279.976 48.606C279.495 47.808 279.254 46.9023 279.254 45.889C279.254 44.8757 279.495 43.97 279.976 43.172C280.47 42.374 281.148 41.7533 282.009 41.31C282.883 40.854 283.865 40.626 284.954 40.626C286.031 40.626 286.968 40.854 287.766 41.31C288.577 41.7533 289.166 42.393 289.533 43.229L287.234 44.464C286.702 43.5267 285.936 43.058 284.935 43.058C284.162 43.058 283.523 43.3113 283.016 43.818C282.509 44.3247 282.256 45.015 282.256 45.889C282.256 46.763 282.509 47.4533 283.016 47.96C283.523 48.4667 284.162 48.72 284.935 48.72C285.948 48.72 286.715 48.2513 287.234 47.314L289.533 48.568C289.166 49.3787 288.577 50.012 287.766 50.468C286.968 50.924 286.031 51.152 284.954 51.152ZM301.005 40.626C302.044 40.626 302.975 40.854 303.798 41.31C304.622 41.7533 305.268 42.374 305.736 43.172C306.205 43.97 306.439 44.8757 306.439 45.889C306.439 46.9023 306.205 47.808 305.736 48.606C305.268 49.404 304.622 50.031 303.798 50.487C302.975 50.9303 302.044 51.152 301.005 51.152C300.106 51.152 299.283 50.9873 298.535 50.658C297.788 50.316 297.167 49.841 296.673 49.233C296.179 48.6123 295.85 47.903 295.685 47.105H294.279V51H291.334V40.778H294.279V44.54H295.704C295.996 43.3493 296.616 42.3993 297.566 41.69C298.516 40.9807 299.663 40.626 301.005 40.626ZM301.005 48.72C301.727 48.72 302.323 48.4667 302.791 47.96C303.273 47.4407 303.513 46.7503 303.513 45.889C303.513 45.015 303.273 44.3247 302.791 43.818C302.323 43.3113 301.727 43.058 301.005 43.058C300.271 43.058 299.663 43.3113 299.181 43.818C298.713 44.3247 298.478 45.015 298.478 45.889C298.478 46.7503 298.713 47.4407 299.181 47.96C299.663 48.4667 300.271 48.72 301.005 48.72ZM314.52 40.626C315.47 40.626 316.332 40.8477 317.104 41.291C317.89 41.7217 318.504 42.336 318.947 43.134C319.391 43.9193 319.612 44.8377 319.612 45.889C319.612 46.9403 319.391 47.865 318.947 48.663C318.504 49.4483 317.89 50.0627 317.104 50.506C316.332 50.9367 315.47 51.152 314.52 51.152C313.216 51.152 312.19 50.7403 311.442 49.917V54.686H308.478V40.778H311.309V41.956C312.044 41.0693 313.114 40.626 314.52 40.626ZM314.007 48.72C314.767 48.72 315.388 48.4667 315.869 47.96C316.363 47.4407 316.61 46.7503 316.61 45.889C316.61 45.0277 316.363 44.3437 315.869 43.837C315.388 43.3177 314.767 43.058 314.007 43.058C313.247 43.058 312.62 43.3177 312.126 43.837C311.645 44.3437 311.404 45.0277 311.404 45.889C311.404 46.7503 311.645 47.4407 312.126 47.96C312.62 48.4667 313.247 48.72 314.007 48.72ZM329.499 45.661C330.702 46.0663 331.304 46.877 331.304 48.093C331.304 49.0177 330.955 49.7333 330.259 50.24C329.562 50.7467 328.523 51 327.143 51H321.69V40.778H326.915C328.194 40.778 329.195 41.0123 329.917 41.481C330.639 41.937 331 42.583 331 43.419C331 43.9257 330.867 44.3753 330.601 44.768C330.347 45.148 329.98 45.4457 329.499 45.661ZM324.407 44.977H326.649C327.687 44.977 328.207 44.6097 328.207 43.875C328.207 43.153 327.687 42.792 326.649 42.792H324.407V44.977ZM326.896 48.986C327.985 48.986 328.53 48.6123 328.53 47.865C328.53 47.4723 328.403 47.1873 328.15 47.01C327.896 46.82 327.497 46.725 326.953 46.725H324.407V48.986H326.896ZM343.446 45.927C343.446 45.965 343.427 46.231 343.389 46.725H335.656C335.795 47.3583 336.125 47.8587 336.644 48.226C337.163 48.5933 337.809 48.777 338.582 48.777C339.114 48.777 339.583 48.701 339.988 48.549C340.406 48.3843 340.792 48.131 341.147 47.789L342.724 49.499C341.761 50.601 340.355 51.152 338.506 51.152C337.353 51.152 336.334 50.9303 335.447 50.487C334.56 50.031 333.876 49.404 333.395 48.606C332.914 47.808 332.673 46.9023 332.673 45.889C332.673 44.8883 332.907 43.989 333.376 43.191C333.857 42.3803 334.51 41.7533 335.333 41.31C336.169 40.854 337.1 40.626 338.126 40.626C339.127 40.626 340.032 40.8413 340.843 41.272C341.654 41.7027 342.287 42.3233 342.743 43.134C343.212 43.932 343.446 44.863 343.446 45.927ZM338.145 42.868C337.474 42.868 336.91 43.058 336.454 43.438C335.998 43.818 335.719 44.3373 335.618 44.996H340.653C340.552 44.35 340.273 43.837 339.817 43.457C339.361 43.0643 338.804 42.868 338.145 42.868ZM345.718 40.778H348.663V46.858L353.641 40.778H356.358V51H353.413V44.92L348.454 51H345.718V40.778ZM350.848 39.676C348.619 39.676 347.498 38.6943 347.485 36.731H349.423C349.436 37.1743 349.556 37.5227 349.784 37.776C350.025 38.0167 350.373 38.137 350.829 38.137C351.285 38.137 351.633 38.0167 351.874 37.776C352.127 37.5227 352.254 37.1743 352.254 36.731H354.23C354.217 38.6943 353.09 39.676 350.848 39.676ZM369.144 45.927C369.144 45.965 369.125 46.231 369.087 46.725H361.354C361.494 47.3583 361.823 47.8587 362.342 48.226C362.862 48.5933 363.508 48.777 364.28 48.777C364.812 48.777 365.281 48.701 365.686 48.549C366.104 48.3843 366.491 48.131 366.845 47.789L368.422 49.499C367.46 50.601 366.054 51.152 364.204 51.152C363.052 51.152 362.032 50.9303 361.145 50.487C360.259 50.031 359.575 49.404 359.093 48.606C358.612 47.808 358.371 46.9023 358.371 45.889C358.371 44.8883 358.606 43.989 359.074 43.191C359.556 42.3803 360.208 41.7533 361.031 41.31C361.867 40.854 362.798 40.626 363.824 40.626C364.825 40.626 365.731 40.8413 366.541 41.272C367.352 41.7027 367.985 42.3233 368.441 43.134C368.91 43.932 369.144 44.863 369.144 45.927ZM363.843 42.868C363.172 42.868 362.608 43.058 362.152 43.438C361.696 43.818 361.418 44.3373 361.316 44.996H366.351C366.25 44.35 365.971 43.837 365.515 43.457C365.059 43.0643 364.502 42.868 363.843 42.868ZM377.439 40.626C378.389 40.626 379.251 40.8477 380.023 41.291C380.809 41.7217 381.423 42.336 381.866 43.134C382.31 43.9193 382.531 44.8377 382.531 45.889C382.531 46.9403 382.31 47.865 381.866 48.663C381.423 49.4483 380.809 50.0627 380.023 50.506C379.251 50.9367 378.389 51.152 377.439 51.152C376.135 51.152 375.109 50.7403 374.361 49.917V54.686H371.397V40.778H374.228V41.956C374.963 41.0693 376.033 40.626 377.439 40.626ZM376.926 48.72C377.686 48.72 378.307 48.4667 378.788 47.96C379.282 47.4407 379.529 46.7503 379.529 45.889C379.529 45.0277 379.282 44.3437 378.788 43.837C378.307 43.3177 377.686 43.058 376.926 43.058C376.166 43.058 375.539 43.3177 375.045 43.837C374.564 44.3437 374.323 45.0277 374.323 45.889C374.323 46.7503 374.564 47.4407 375.045 47.96C375.539 48.4667 376.166 48.72 376.926 48.72ZM389.473 51.152C388.383 51.152 387.402 50.9303 386.528 50.487C385.666 50.031 384.989 49.404 384.495 48.606C384.013 47.808 383.773 46.9023 383.773 45.889C383.773 44.8757 384.013 43.97 384.495 43.172C384.989 42.374 385.666 41.7533 386.528 41.31C387.402 40.854 388.383 40.626 389.473 40.626C390.549 40.626 391.487 40.854 392.285 41.31C393.095 41.7533 393.684 42.393 394.052 43.229L391.753 44.464C391.221 43.5267 390.454 43.058 389.454 43.058C388.681 43.058 388.041 43.3113 387.535 43.818C387.028 44.3247 386.775 45.015 386.775 45.889C386.775 46.763 387.028 47.4533 387.535 47.96C388.041 48.4667 388.681 48.72 389.454 48.72C390.467 48.72 391.233 48.2513 391.753 47.314L394.052 48.568C393.684 49.3787 393.095 50.012 392.285 50.468C391.487 50.924 390.549 51.152 389.473 51.152ZM401.382 44.046C402.712 44.0587 403.731 44.3627 404.441 44.958C405.15 45.5407 405.505 46.3703 405.505 47.447C405.505 48.5743 405.106 49.4547 404.308 50.088C403.522 50.7087 402.414 51.019 400.983 51.019L395.853 51V40.778H398.798V44.046H401.382ZM400.717 48.91C401.287 48.9227 401.724 48.8023 402.028 48.549C402.332 48.2957 402.484 47.9157 402.484 47.409C402.484 46.915 402.332 46.554 402.028 46.326C401.736 46.098 401.299 45.9777 400.717 45.965L398.798 45.946V48.91H400.717ZM411.86 47.124H410.321V51H407.357V40.778H410.321V44.749H411.917L414.691 40.778H417.845L414.273 45.68L418.092 51H414.596L411.86 47.124ZM424.02 51.152C422.943 51.152 421.974 50.9303 421.113 50.487C420.264 50.031 419.599 49.404 419.118 48.606C418.636 47.808 418.396 46.9023 418.396 45.889C418.396 44.8757 418.636 43.97 419.118 43.172C419.599 42.374 420.264 41.7533 421.113 41.31C421.974 40.854 422.943 40.626 424.02 40.626C425.096 40.626 426.059 40.854 426.908 41.31C427.756 41.7533 428.421 42.374 428.903 43.172C429.384 43.97 429.625 44.8757 429.625 45.889C429.625 46.9023 429.384 47.808 428.903 48.606C428.421 49.404 427.756 50.031 426.908 50.487C426.059 50.9303 425.096 51.152 424.02 51.152ZM424.02 48.72C424.78 48.72 425.4 48.4667 425.882 47.96C426.376 47.4407 426.623 46.7503 426.623 45.889C426.623 45.0277 426.376 44.3437 425.882 43.837C425.4 43.3177 424.78 43.058 424.02 43.058C423.26 43.058 422.633 43.3177 422.139 43.837C421.645 44.3437 421.398 45.0277 421.398 45.889C421.398 46.7503 421.645 47.4407 422.139 47.96C422.633 48.4667 423.26 48.72 424.02 48.72ZM439.852 43.21H434.608V51H431.663V40.778H439.852V43.21ZM445.784 51.152C444.708 51.152 443.739 50.9303 442.877 50.487C442.029 50.031 441.364 49.404 440.882 48.606C440.401 47.808 440.16 46.9023 440.16 45.889C440.16 44.8757 440.401 43.97 440.882 43.172C441.364 42.374 442.029 41.7533 442.877 41.31C443.739 40.854 444.708 40.626 445.784 40.626C446.861 40.626 447.824 40.854 448.672 41.31C449.521 41.7533 450.186 42.374 450.667 43.172C451.149 43.97 451.389 44.8757 451.389 45.889C451.389 46.9023 451.149 47.808 450.667 48.606C450.186 49.404 449.521 50.031 448.672 50.487C447.824 50.9303 446.861 51.152 445.784 51.152ZM445.784 48.72C446.544 48.72 447.165 48.4667 447.646 47.96C448.14 47.4407 448.387 46.7503 448.387 45.889C448.387 45.0277 448.14 44.3437 447.646 43.837C447.165 43.3177 446.544 43.058 445.784 43.058C445.024 43.058 444.397 43.3177 443.903 43.837C443.409 44.3437 443.162 45.0277 443.162 45.889C443.162 46.7503 443.409 47.4407 443.903 47.96C444.397 48.4667 445.024 48.72 445.784 48.72ZM465.44 45.68C466.048 45.87 466.516 46.1613 466.846 46.554C467.188 46.9467 467.359 47.4153 467.359 47.96C467.359 48.606 467.137 49.176 466.694 49.67C466.25 50.1513 465.642 50.525 464.87 50.791C464.097 51.057 463.223 51.19 462.248 51.19C461.45 51.19 460.664 51.1077 459.892 50.943C459.119 50.7783 458.403 50.5313 457.745 50.202L458.543 48.131C459.619 48.6503 460.81 48.91 462.115 48.91C462.811 48.91 463.356 48.8087 463.749 48.606C464.154 48.3907 464.357 48.093 464.357 47.713C464.357 47.3837 464.217 47.1367 463.939 46.972C463.66 46.7947 463.255 46.706 462.723 46.706H460.633V44.863H462.457C462.976 44.863 463.375 44.7807 463.654 44.616C463.932 44.4513 464.072 44.2107 464.072 43.894C464.072 43.5647 463.894 43.3113 463.54 43.134C463.198 42.9567 462.704 42.868 462.058 42.868C461.07 42.868 459.993 43.1023 458.828 43.571L458.106 41.519C459.524 40.8983 460.905 40.588 462.248 40.588C463.172 40.588 463.996 40.702 464.718 40.93C465.452 41.158 466.029 41.4937 466.447 41.937C466.865 42.3677 467.074 42.8743 467.074 43.457C467.074 43.9383 466.928 44.3753 466.637 44.768C466.345 45.148 465.946 45.452 465.44 45.68ZM477.324 45.661C478.527 46.0663 479.129 46.877 479.129 48.093C479.129 49.0177 478.781 49.7333 478.084 50.24C477.387 50.7467 476.349 51 474.968 51H469.515V40.778H474.74C476.019 40.778 477.02 41.0123 477.742 41.481C478.464 41.937 478.825 42.583 478.825 43.419C478.825 43.9257 478.692 44.3753 478.426 44.768C478.173 45.148 477.805 45.4457 477.324 45.661ZM472.232 44.977H474.474C475.513 44.977 476.032 44.6097 476.032 43.875C476.032 43.153 475.513 42.792 474.474 42.792H472.232V44.977ZM474.721 48.986C475.81 48.986 476.355 48.6123 476.355 47.865C476.355 47.4723 476.228 47.1873 475.975 47.01C475.722 46.82 475.323 46.725 474.778 46.725H472.232V48.986H474.721ZM481.315 40.778H484.279V51H481.315V40.778ZM482.797 39.353C482.253 39.353 481.809 39.1947 481.467 38.878C481.125 38.5613 480.954 38.1687 480.954 37.7C480.954 37.2313 481.125 36.8387 481.467 36.522C481.809 36.2053 482.253 36.047 482.797 36.047C483.342 36.047 483.785 36.199 484.127 36.503C484.469 36.807 484.64 37.187 484.64 37.643C484.64 38.137 484.469 38.5487 484.127 38.878C483.785 39.1947 483.342 39.353 482.797 39.353ZM495.711 43.21H492.253V51H489.308V43.21H485.85V40.778H495.711V43.21ZM507.625 40.778L503.008 51.627C502.539 52.805 501.957 53.6347 501.26 54.116C500.576 54.5973 499.746 54.838 498.771 54.838C498.239 54.838 497.713 54.7557 497.194 54.591C496.675 54.4263 496.25 54.1983 495.921 53.907L497.004 51.798C497.232 52.0007 497.492 52.159 497.783 52.273C498.087 52.387 498.385 52.444 498.676 52.444C499.081 52.444 499.411 52.3427 499.664 52.14C499.917 51.95 500.145 51.627 500.348 51.171L500.386 51.076L495.959 40.778H499.018L501.887 47.713L504.775 40.778H507.625ZM128.678 71.492V74H118.627V72.005L123.757 67.16C124.302 66.6407 124.669 66.1973 124.859 65.83C125.049 65.45 125.144 65.0763 125.144 64.709C125.144 64.177 124.96 63.7717 124.593 63.493C124.238 63.2017 123.713 63.056 123.016 63.056C122.433 63.056 121.908 63.17 121.439 63.398C120.97 63.6133 120.578 63.9427 120.261 64.386L118.019 62.942C118.538 62.1693 119.254 61.5677 120.166 61.137C121.078 60.6937 122.123 60.472 123.301 60.472C124.289 60.472 125.15 60.6367 125.885 60.966C126.632 61.2827 127.209 61.7387 127.614 62.334C128.032 62.9167 128.241 63.607 128.241 64.405C128.241 65.127 128.089 65.8047 127.785 66.438C127.481 67.0713 126.892 67.7933 126.018 68.604L122.959 71.492H128.678ZM141.941 71.207H139.775V74H136.773V71.207H129.61V69.136L135.88 60.7H139.11L133.296 68.699H136.868V66.21H139.775V68.699H141.941V71.207ZM157.116 66.21H151.872V74H148.927V63.778H157.116V66.21ZM163.048 74.152C161.971 74.152 161.002 73.9303 160.141 73.487C159.292 73.031 158.627 72.404 158.146 71.606C157.665 70.808 157.424 69.9023 157.424 68.889C157.424 67.8757 157.665 66.97 158.146 66.172C158.627 65.374 159.292 64.7533 160.141 64.31C161.002 63.854 161.971 63.626 163.048 63.626C164.125 63.626 165.087 63.854 165.936 64.31C166.785 64.7533 167.45 65.374 167.931 66.172C168.412 66.97 168.653 67.8757 168.653 68.889C168.653 69.9023 168.412 70.808 167.931 71.606C167.45 72.404 166.785 73.031 165.936 73.487C165.087 73.9303 164.125 74.152 163.048 74.152ZM163.048 71.72C163.808 71.72 164.429 71.4667 164.91 70.96C165.404 70.4407 165.651 69.7503 165.651 68.889C165.651 68.0277 165.404 67.3437 164.91 66.837C164.429 66.3177 163.808 66.058 163.048 66.058C162.288 66.058 161.661 66.3177 161.167 66.837C160.673 67.3437 160.426 68.0277 160.426 68.889C160.426 69.7503 160.673 70.4407 161.167 70.96C161.661 71.4667 162.288 71.72 163.048 71.72ZM182 71.568V76.204H179.245V74H172.063V76.204H169.308V71.568H169.726C170.359 71.5553 170.796 71.1817 171.037 70.447C171.278 69.7123 171.43 68.6673 171.493 67.312L171.626 63.778H180.537V71.568H182ZM174.172 67.521C174.134 68.5597 174.052 69.4083 173.925 70.067C173.811 70.7257 173.589 71.226 173.26 71.568H177.573V66.21H174.229L174.172 67.521ZM183.865 63.778H186.81V69.858L191.788 63.778H194.505V74H191.56V67.92L186.601 74H183.865V63.778ZM197.355 63.778H200.3V67.768H204.746V63.778H207.71V74H204.746V70.181H200.3V74H197.355V63.778ZM210.547 63.778H213.492V69.858L218.47 63.778H221.187V74H218.242V67.92L213.283 74H210.547V63.778ZM239.582 63.778V74H236.618V66.21H232.362V74H229.417V63.778H239.582ZM242.405 63.778H245.369V74H242.405V63.778ZM243.887 62.353C243.342 62.353 242.899 62.1947 242.557 61.878C242.215 61.5613 242.044 61.1687 242.044 60.7C242.044 60.2313 242.215 59.8387 242.557 59.522C242.899 59.2053 243.342 59.047 243.887 59.047C244.432 59.047 244.875 59.199 245.217 59.503C245.559 59.807 245.73 60.187 245.73 60.643C245.73 61.137 245.559 61.5487 245.217 61.878C244.875 62.1947 244.432 62.353 243.887 62.353ZM253.077 74.152C251.988 74.152 251.006 73.9303 250.132 73.487C249.271 73.031 248.593 72.404 248.099 71.606C247.618 70.808 247.377 69.9023 247.377 68.889C247.377 67.8757 247.618 66.97 248.099 66.172C248.593 65.374 249.271 64.7533 250.132 64.31C251.006 63.854 251.988 63.626 253.077 63.626C254.154 63.626 255.091 63.854 255.889 64.31C256.7 64.7533 257.289 65.393 257.656 66.229L255.357 67.464C254.825 66.5267 254.059 66.058 253.058 66.058C252.285 66.058 251.646 66.3113 251.139 66.818C250.632 67.3247 250.379 68.015 250.379 68.889C250.379 69.763 250.632 70.4533 251.139 70.96C251.646 71.4667 252.285 71.72 253.058 71.72C254.071 71.72 254.838 71.2513 255.357 70.314L257.656 71.568C257.289 72.3787 256.7 73.012 255.889 73.468C255.091 73.924 254.154 74.152 253.077 74.152ZM269.113 63.778V74H266.149V66.21H262.919L262.824 68.015C262.773 69.3577 262.646 70.4723 262.444 71.359C262.241 72.2457 261.912 72.9423 261.456 73.449C261 73.9557 260.366 74.209 259.556 74.209C259.125 74.209 258.612 74.133 258.017 73.981L258.169 71.549C258.371 71.5743 258.517 71.587 258.606 71.587C259.049 71.587 259.378 71.4287 259.594 71.112C259.822 70.7827 259.974 70.371 260.05 69.877C260.126 69.3703 260.183 68.7053 260.221 67.882L260.373 63.778H269.113ZM281.045 63.778V74H278.404V71.074H276.219L274.281 74H271.127L273.464 70.656C272.755 70.3773 272.21 69.9783 271.83 69.459C271.463 68.927 271.279 68.2873 271.279 67.54C271.279 66.3367 271.71 65.412 272.571 64.766C273.445 64.1073 274.642 63.778 276.162 63.778H281.045ZM276.219 66.191C275.586 66.191 275.104 66.305 274.775 66.533C274.458 66.761 274.3 67.1283 274.3 67.635C274.3 68.1417 274.452 68.5153 274.756 68.756C275.073 68.984 275.548 69.098 276.181 69.098H278.404V66.191H276.219ZM295.906 68.68C296.514 68.87 296.982 69.1613 297.312 69.554C297.654 69.9467 297.825 70.4153 297.825 70.96C297.825 71.606 297.603 72.176 297.16 72.67C296.716 73.1513 296.108 73.525 295.336 73.791C294.563 74.057 293.689 74.19 292.714 74.19C291.916 74.19 291.13 74.1077 290.358 73.943C289.585 73.7783 288.869 73.5313 288.211 73.202L289.009 71.131C290.085 71.6503 291.276 71.91 292.581 71.91C293.277 71.91 293.822 71.8087 294.215 71.606C294.62 71.3907 294.823 71.093 294.823 70.713C294.823 70.3837 294.683 70.1367 294.405 69.972C294.126 69.7947 293.721 69.706 293.189 69.706H291.099V67.863H292.923C293.442 67.863 293.841 67.7807 294.12 67.616C294.398 67.4513 294.538 67.2107 294.538 66.894C294.538 66.5647 294.36 66.3113 294.006 66.134C293.664 65.9567 293.17 65.868 292.524 65.868C291.536 65.868 290.459 66.1023 289.294 66.571L288.572 64.519C289.99 63.8983 291.371 63.588 292.714 63.588C293.638 63.588 294.462 63.702 295.184 63.93C295.918 64.158 296.495 64.4937 296.913 64.937C297.331 65.3677 297.54 65.8743 297.54 66.457C297.54 66.9383 297.394 67.3753 297.103 67.768C296.811 68.148 296.412 68.452 295.906 68.68ZM303.952 63.626C305.535 63.626 306.751 64.006 307.6 64.766C308.448 65.5133 308.873 66.647 308.873 68.167V74H306.099V72.727C305.541 73.677 304.503 74.152 302.983 74.152C302.197 74.152 301.513 74.019 300.931 73.753C300.361 73.487 299.924 73.1197 299.62 72.651C299.316 72.1823 299.164 71.6503 299.164 71.055C299.164 70.105 299.518 69.3577 300.228 68.813C300.95 68.2683 302.058 67.996 303.553 67.996H305.909C305.909 67.35 305.712 66.856 305.32 66.514C304.927 66.1593 304.338 65.982 303.553 65.982C303.008 65.982 302.47 66.0707 301.938 66.248C301.418 66.4127 300.975 66.6407 300.608 66.932L299.544 64.861C300.101 64.4683 300.766 64.1643 301.539 63.949C302.324 63.7337 303.128 63.626 303.952 63.626ZM303.724 72.157C304.23 72.157 304.68 72.043 305.073 71.815C305.465 71.5743 305.744 71.226 305.909 70.77V69.725H303.876C302.66 69.725 302.052 70.124 302.052 70.922C302.052 71.302 302.197 71.606 302.489 71.834C302.793 72.0493 303.204 72.157 303.724 72.157ZM315.95 70.124H314.411V74H311.447V63.778H314.411V67.749H316.007L318.781 63.778H321.935L318.363 68.68L322.182 74H318.686L315.95 70.124ZM323.619 63.778H326.583V74H323.619V63.778ZM325.101 62.353C324.556 62.353 324.113 62.1947 323.771 61.878C323.429 61.5613 323.258 61.1687 323.258 60.7C323.258 60.2313 323.429 59.8387 323.771 59.522C324.113 59.2053 324.556 59.047 325.101 59.047C325.646 59.047 326.089 59.199 326.431 59.503C326.773 59.807 326.944 60.187 326.944 60.643C326.944 61.137 326.773 61.5487 326.431 61.878C326.089 62.1947 325.646 62.353 325.101 62.353ZM329.427 63.778H332.372V67.768H336.818V63.778H339.782V74H336.818V70.181H332.372V74H329.427V63.778ZM351.815 63.778V74H348.851V70.2C347.99 70.6307 347.04 70.846 346.001 70.846C344.621 70.846 343.576 70.5357 342.866 69.915C342.17 69.2817 341.821 68.3063 341.821 66.989V63.778H344.785V66.799C344.785 67.4197 344.944 67.8693 345.26 68.148C345.59 68.4267 346.058 68.566 346.666 68.566C347.439 68.566 348.167 68.4013 348.851 68.072V63.778H351.815ZM364.598 68.927C364.598 68.965 364.579 69.231 364.541 69.725H356.808C356.948 70.3583 357.277 70.8587 357.796 71.226C358.316 71.5933 358.962 71.777 359.734 71.777C360.266 71.777 360.735 71.701 361.14 71.549C361.558 71.3843 361.945 71.131 362.299 70.789L363.876 72.499C362.914 73.601 361.508 74.152 359.658 74.152C358.506 74.152 357.486 73.9303 356.599 73.487C355.713 73.031 355.029 72.404 354.547 71.606C354.066 70.808 353.825 69.9023 353.825 68.889C353.825 67.8883 354.06 66.989 354.528 66.191C355.01 65.3803 355.662 64.7533 356.485 64.31C357.321 63.854 358.252 63.626 359.278 63.626C360.279 63.626 361.185 63.8413 361.995 64.272C362.806 64.7027 363.439 65.3233 363.895 66.134C364.364 66.932 364.598 67.863 364.598 68.927ZM359.297 65.868C358.626 65.868 358.062 66.058 357.606 66.438C357.15 66.818 356.872 67.3373 356.77 67.996H361.805C361.704 67.35 361.425 66.837 360.969 66.457C360.513 66.0643 359.956 65.868 359.297 65.868ZM366.87 63.778H369.815V67.768H374.261V63.778H377.225V74H374.261V70.181H369.815V74H366.87V63.778ZM380.063 63.778H383.008V67.768H387.454V63.778H390.418V74H387.454V70.181H383.008V74H380.063V63.778ZM402.337 63.778V74H399.696V71.074H397.511L395.573 74H392.419L394.756 70.656C394.047 70.3773 393.502 69.9783 393.122 69.459C392.755 68.927 392.571 68.2873 392.571 67.54C392.571 66.3367 393.002 65.412 393.863 64.766C394.737 64.1073 395.934 63.778 397.454 63.778H402.337ZM397.511 66.191C396.878 66.191 396.396 66.305 396.067 66.533C395.75 66.761 395.592 67.1283 395.592 67.635C395.592 68.1417 395.744 68.5153 396.048 68.756C396.365 68.984 396.84 69.098 397.473 69.098H399.696V66.191H397.511ZM410.548 63.778H413.512V74H410.548V63.778ZM412.03 62.353C411.485 62.353 411.042 62.1947 410.7 61.878C410.358 61.5613 410.187 61.1687 410.187 60.7C410.187 60.2313 410.358 59.8387 410.7 59.522C411.042 59.2053 411.485 59.047 412.03 59.047C412.574 59.047 413.018 59.199 413.36 59.503C413.702 59.807 413.873 60.187 413.873 60.643C413.873 61.137 413.702 61.5487 413.36 61.878C413.018 62.1947 412.574 62.353 412.03 62.353ZM416.356 63.778H419.301V67.768H423.747V63.778H426.711V74H423.747V70.181H419.301V74H416.356V63.778ZM434.412 74.152C433.323 74.152 432.341 73.9303 431.467 73.487C430.606 73.031 429.928 72.404 429.434 71.606C428.953 70.808 428.712 69.9023 428.712 68.889C428.712 67.8757 428.953 66.97 429.434 66.172C429.928 65.374 430.606 64.7533 431.467 64.31C432.341 63.854 433.323 63.626 434.412 63.626C435.489 63.626 436.426 63.854 437.224 64.31C438.035 64.7533 438.624 65.393 438.991 66.229L436.692 67.464C436.16 66.5267 435.394 66.058 434.393 66.058C433.62 66.058 432.981 66.3113 432.474 66.818C431.967 67.3247 431.714 68.015 431.714 68.889C431.714 69.763 431.967 70.4533 432.474 70.96C432.981 71.4667 433.62 71.72 434.393 71.72C435.406 71.72 436.173 71.2513 436.692 70.314L438.991 71.568C438.624 72.3787 438.035 73.012 437.224 73.468C436.426 73.924 435.489 74.152 434.412 74.152ZM450.957 63.778V74H447.993V66.21H443.737V74H440.792V63.778H450.957ZM463.736 68.927C463.736 68.965 463.717 69.231 463.679 69.725H455.946C456.085 70.3583 456.415 70.8587 456.934 71.226C457.453 71.5933 458.099 71.777 458.872 71.777C459.404 71.777 459.873 71.701 460.278 71.549C460.696 71.3843 461.082 71.131 461.437 70.789L463.014 72.499C462.051 73.601 460.645 74.152 458.796 74.152C457.643 74.152 456.624 73.9303 455.737 73.487C454.85 73.031 454.166 72.404 453.685 71.606C453.204 70.808 452.963 69.9023 452.963 68.889C452.963 67.8883 453.197 66.989 453.666 66.191C454.147 65.3803 454.8 64.7533 455.623 64.31C456.459 63.854 457.39 63.626 458.416 63.626C459.417 63.626 460.322 63.8413 461.133 64.272C461.944 64.7027 462.577 65.3233 463.033 66.134C463.502 66.932 463.736 67.863 463.736 68.927ZM458.435 65.868C457.764 65.868 457.2 66.058 456.744 66.438C456.288 66.818 456.009 67.3373 455.908 67.996H460.943C460.842 67.35 460.563 66.837 460.107 66.457C459.651 66.0643 459.094 65.868 458.435 65.868ZM470.511 70.124H468.972V74H466.008V63.778H468.972V67.749H470.568L473.342 63.778H476.496L472.924 68.68L476.743 74H473.247L470.511 70.124ZM489.712 71.568V76.242H486.957V74H478.198V63.778H481.143V71.568H485.266V63.778H488.23V71.568H489.712ZM491.557 63.778H494.521V74H491.557V63.778ZM493.039 62.353C492.495 62.353 492.051 62.1947 491.709 61.878C491.367 61.5613 491.196 61.1687 491.196 60.7C491.196 60.2313 491.367 59.8387 491.709 59.522C492.051 59.2053 492.495 59.047 493.039 59.047C493.584 59.047 494.027 59.199 494.369 59.503C494.711 59.807 494.882 60.187 494.882 60.643C494.882 61.137 494.711 61.5487 494.369 61.878C494.027 62.1947 493.584 62.353 493.039 62.353ZM497.308 63.778H500.272V74H497.308V63.778ZM497.232 62.353C496.878 62.353 496.58 62.2327 496.339 61.992C496.111 61.7513 495.997 61.441 495.997 61.061C495.997 60.681 496.111 60.3707 496.339 60.13C496.58 59.8893 496.878 59.769 497.232 59.769C497.587 59.769 497.885 59.8893 498.125 60.13C498.366 60.3707 498.486 60.681 498.486 61.061C498.486 61.441 498.366 61.7513 498.125 61.992C497.885 62.2327 497.587 62.353 497.232 62.353ZM500.348 62.353C499.994 62.353 499.696 62.2327 499.455 61.992C499.215 61.7513 499.094 61.441 499.094 61.061C499.094 60.681 499.215 60.3707 499.455 60.13C499.696 59.8893 499.994 59.769 500.348 59.769C500.703 59.769 500.994 59.8893 501.222 60.13C501.463 60.3707 501.583 60.681 501.583 61.061C501.583 61.441 501.463 61.7513 501.222 61.992C500.994 62.2327 500.703 62.353 500.348 62.353Z" fill="white"/>
</svg>
