<svg width="645" height="135" viewBox="0 0 645 135" fill="none" xmlns="http://www.w3.org/2000/svg">
<rect x="30.9888" y="17.1543" width="614.011" height="101.436" fill="#3E4671"/>
<path d="M133.614 67.5C133.614 103.666 104.16 133 67.8069 133C31.4542 133 2 103.666 2 67.5C2 31.3339 31.4542 2 67.8069 2C104.16 2 133.614 31.3339 133.614 67.5Z" fill="white" stroke="#3E4671" stroke-width="4"/>
<path d="M86.21 39.251C88.9129 39.251 91.5051 40.3257 93.4163 42.2388C95.3275 44.1519 96.4013 46.7466 96.4013 49.4521V85.5485C96.4013 88.254 95.3275 90.8487 93.4163 92.7617C91.5051 94.6748 88.9129 95.7496 86.21 95.7496H50.1489C47.446 95.7496 44.8538 94.6748 42.9426 92.7617C41.0314 90.8487 39.9576 88.254 39.9576 85.5485V49.4521C39.9576 46.7466 41.0314 44.1519 42.9426 42.2388C44.8538 40.3257 47.446 39.251 50.1489 39.251H86.21ZM86.21 43.9592H50.1489C48.6935 43.9592 47.2977 44.5379 46.2685 45.568C45.2394 46.5982 44.6613 47.9953 44.6613 49.4521V85.5485C44.6613 88.5805 47.1197 91.0414 50.1489 91.0414H86.21C87.6654 91.0414 89.0612 90.4627 90.0903 89.4325C91.1195 88.4024 91.6976 87.0053 91.6976 85.5485V49.4521C91.6976 47.9953 91.1195 46.5982 90.0903 45.568C89.0612 44.5379 87.6654 43.9592 86.21 43.9592Z" fill="#3E4671"/>
<path d="M72.0991 54.9453C72.7229 54.9453 73.3211 55.1933 73.7621 55.6348C74.2032 56.0763 74.4509 56.6751 74.4509 57.2994V65.9312H79.1546V57.2994C79.1546 56.6751 79.4024 56.0763 79.8434 55.6348C80.2845 55.1933 80.8827 54.9453 81.5064 54.9453C82.1301 54.9453 82.7283 55.1933 83.1694 55.6348C83.6104 56.0763 83.8582 56.6751 83.8582 57.2994V77.6075C83.8582 78.2319 83.6104 78.8307 83.1694 79.2721C82.7283 79.7136 82.1301 79.9616 81.5064 79.9616C80.8827 79.9616 80.2845 79.7136 79.8434 79.2721C79.4024 78.8307 79.1546 78.2319 79.1546 77.6075V70.6394H72.0991C71.4754 70.6394 70.8772 70.3914 70.4361 69.9499C69.9951 69.5084 69.7473 68.9096 69.7473 68.2853V57.2994C69.7473 56.6751 69.9951 56.0763 70.4361 55.6348C70.8772 55.1933 71.4754 54.9453 72.0991 54.9453Z" fill="#3E4671"/>
<path d="M54.0684 57.2806C55.1565 56.0816 56.9376 54.9453 59.556 54.9453C63.1683 54.9453 65.4951 57.4313 66.3135 60.1589C67.1069 62.8175 66.6271 66.1069 64.3693 68.3763C63.5948 69.1547 62.6823 69.8609 61.8827 70.4793L61.7573 70.5766C60.8792 71.2546 60.0953 71.8698 59.4054 72.554C58.6058 73.3576 57.9504 74.2333 57.571 75.3476H64.2596C64.8833 75.3476 65.4815 75.5956 65.9226 76.0371C66.3636 76.4786 66.6114 77.0773 66.6114 77.7017C66.6114 78.326 66.3636 78.9248 65.9226 79.3663C65.4815 79.8078 64.8833 80.0558 64.2596 80.0558H54.8523C54.2286 80.0558 53.6304 79.8078 53.1893 79.3663C52.7483 78.9248 52.5005 78.326 52.5005 77.7017C52.5005 73.7876 54.1436 71.1635 56.0878 69.2238C57.016 68.2947 58.0257 67.5131 58.8786 66.8508L58.888 66.8445C59.7849 66.1509 60.481 65.611 61.036 65.0554C61.889 64.1954 62.1869 62.7798 61.8074 61.5086C61.4468 60.3127 60.6472 59.6535 59.556 59.6535C58.449 59.6535 57.8783 60.0835 57.5491 60.4476C57.3576 60.6607 57.2019 60.9035 57.0881 61.1664L57.0818 61.1759C56.8851 61.764 56.4644 62.2507 55.9111 62.53C55.3579 62.8094 54.7169 62.859 54.1274 62.6679C53.5378 62.4769 53.0475 62.0607 52.7628 61.5098C52.4781 60.9588 52.4222 60.3177 52.6071 59.7257L52.7169 59.4244C53.0391 58.6371 53.4953 57.9117 54.0652 57.2806H54.0684Z" fill="#3E4671"/>
<path d="M149.309 60.0362C147.811 60.0362 146.453 59.7142 145.235 59.0702C144.031 58.4122 143.079 57.5092 142.379 56.3612C141.693 55.1992 141.35 53.8902 141.35 52.4342C141.35 50.9782 141.693 49.6762 142.379 48.5282C143.079 47.3662 144.031 46.4632 145.235 45.8192C146.453 45.1612 147.818 44.8322 149.33 44.8322C150.604 44.8322 151.752 45.0562 152.774 45.5042C153.81 45.9522 154.678 46.5962 155.378 47.4362L153.194 49.4522C152.2 48.3042 150.968 47.7302 149.498 47.7302C148.588 47.7302 147.776 47.9332 147.062 48.3392C146.348 48.7312 145.788 49.2842 145.382 49.9982C144.99 50.7122 144.794 51.5242 144.794 52.4342C144.794 53.3442 144.99 54.1562 145.382 54.8702C145.788 55.5842 146.348 56.1442 147.062 56.5502C147.776 56.9422 148.588 57.1382 149.498 57.1382C150.968 57.1382 152.2 56.5572 153.194 55.3952L155.378 57.4112C154.678 58.2652 153.81 58.9162 152.774 59.3642C151.738 59.8122 150.583 60.0362 149.309 60.0362ZM164 48.3182C165.05 48.3182 166.002 48.5632 166.856 49.0532C167.724 49.5292 168.403 50.2082 168.893 51.0902C169.383 51.9582 169.628 52.9732 169.628 54.1352C169.628 55.2972 169.383 56.3192 168.893 57.2012C168.403 58.0692 167.724 58.7482 166.856 59.2382C166.002 59.7142 165.05 59.9522 164 59.9522C162.558 59.9522 161.424 59.4972 160.598 58.5872V63.8582H157.322V48.4862H160.451V49.7882C161.263 48.8082 162.446 48.3182 164 48.3182ZM163.433 57.2642C164.273 57.2642 164.959 56.9842 165.491 56.4242C166.037 55.8502 166.31 55.0872 166.31 54.1352C166.31 53.1832 166.037 52.4272 165.491 51.8672C164.959 51.2932 164.273 51.0062 163.433 51.0062C162.593 51.0062 161.9 51.2932 161.354 51.8672C160.822 52.4272 160.556 53.1832 160.556 54.1352C160.556 55.0872 160.822 55.8502 161.354 56.4242C161.9 56.9842 162.593 57.2642 163.433 57.2642ZM177.216 59.9522C176.026 59.9522 174.955 59.7072 174.003 59.2172C173.065 58.7132 172.33 58.0202 171.798 57.1382C171.266 56.2562 171 55.2552 171 54.1352C171 53.0152 171.266 52.0142 171.798 51.1322C172.33 50.2502 173.065 49.5642 174.003 49.0742C174.955 48.5702 176.026 48.3182 177.216 48.3182C178.406 48.3182 179.47 48.5702 180.408 49.0742C181.346 49.5642 182.081 50.2502 182.613 51.1322C183.145 52.0142 183.411 53.0152 183.411 54.1352C183.411 55.2552 183.145 56.2562 182.613 57.1382C182.081 58.0202 181.346 58.7132 180.408 59.2172C179.47 59.7072 178.406 59.9522 177.216 59.9522ZM177.216 57.2642C178.056 57.2642 178.742 56.9842 179.274 56.4242C179.82 55.8502 180.093 55.0872 180.093 54.1352C180.093 53.1832 179.82 52.4272 179.274 51.8672C178.742 51.2932 178.056 51.0062 177.216 51.0062C176.376 51.0062 175.683 51.2932 175.137 51.8672C174.591 52.4272 174.318 53.1832 174.318 54.1352C174.318 55.0872 174.591 55.8502 175.137 56.4242C175.683 56.9842 176.376 57.2642 177.216 57.2642ZM190.641 55.5002H188.94V59.7842H185.664V48.4862H188.94V52.8752H190.704L193.77 48.4862H197.256L193.308 53.9042L197.529 59.7842H193.665L190.641 55.5002ZM213.716 53.8832C215.046 54.3312 215.711 55.2272 215.711 56.5712C215.711 57.5932 215.326 58.3842 214.556 58.9442C213.786 59.5042 212.638 59.7842 211.112 59.7842H205.085V48.4862H210.86C212.274 48.4862 213.38 48.7452 214.178 49.2632C214.976 49.7672 215.375 50.4812 215.375 51.4052C215.375 51.9652 215.228 52.4622 214.934 52.8962C214.654 53.3162 214.248 53.6452 213.716 53.8832ZM208.088 53.1272H210.566C211.714 53.1272 212.288 52.7212 212.288 51.9092C212.288 51.1112 211.714 50.7122 210.566 50.7122H208.088V53.1272ZM210.839 57.5582C212.043 57.5582 212.645 57.1452 212.645 56.3192C212.645 55.8852 212.505 55.5702 212.225 55.3742C211.945 55.1642 211.504 55.0592 210.902 55.0592H208.088V57.5582H210.839ZM224.092 52.0982C225.562 52.1122 226.675 52.4412 227.431 53.0852C228.187 53.7292 228.565 54.6532 228.565 55.8572C228.565 57.1172 228.138 58.0902 227.284 58.7762C226.43 59.4622 225.219 59.8052 223.651 59.8052L218.149 59.7842V48.4862H221.404V52.0982H224.092ZM229.783 48.4862H233.038V59.7842H229.783V48.4862ZM223.357 57.4742C223.987 57.4882 224.47 57.3552 224.806 57.0752C225.142 56.7952 225.31 56.3752 225.31 55.8152C225.31 55.2692 225.142 54.8702 224.806 54.6182C224.484 54.3662 224.001 54.2332 223.357 54.2192L221.404 54.1982V57.4742H223.357ZM248.859 57.0962V62.2202H245.814V59.7842H237.876V62.2202H234.831V57.0962H235.293C235.993 57.0822 236.476 56.6692 236.742 55.8572C237.008 55.0452 237.176 53.8902 237.246 52.3922L237.393 48.4862H247.242V57.0962H248.859ZM240.207 52.6232C240.165 53.7712 240.074 54.7092 239.934 55.4372C239.808 56.1652 239.563 56.7182 239.199 57.0962H243.966V51.1742H240.27L240.207 52.6232ZM255.309 48.3182C257.059 48.3182 258.403 48.7382 259.341 49.5782C260.279 50.4042 260.748 51.6572 260.748 53.3372V59.7842H257.682V58.3772C257.066 59.4272 255.918 59.9522 254.238 59.9522C253.37 59.9522 252.614 59.8052 251.97 59.5112C251.34 59.2172 250.857 58.8112 250.521 58.2932C250.185 57.7752 250.017 57.1872 250.017 56.5292C250.017 55.4792 250.409 54.6532 251.193 54.0512C251.991 53.4492 253.216 53.1482 254.868 53.1482H257.472C257.472 52.4342 257.255 51.8882 256.821 51.5102C256.387 51.1182 255.736 50.9222 254.868 50.9222C254.266 50.9222 253.671 51.0202 253.083 51.2162C252.509 51.3982 252.019 51.6502 251.613 51.9722L250.437 49.6832C251.053 49.2492 251.788 48.9132 252.642 48.6752C253.51 48.4372 254.399 48.3182 255.309 48.3182ZM255.057 57.7472C255.617 57.7472 256.114 57.6212 256.548 57.3692C256.982 57.1032 257.29 56.7182 257.472 56.2142V55.0592H255.225C253.881 55.0592 253.209 55.5002 253.209 56.3822C253.209 56.8022 253.37 57.1382 253.692 57.3902C254.028 57.6282 254.483 57.7472 255.057 57.7472ZM273.758 48.4862V59.7842H270.482V55.5842C269.53 56.0602 268.48 56.2982 267.332 56.2982C265.806 56.2982 264.651 55.9552 263.867 55.2692C263.097 54.5692 262.712 53.4912 262.712 52.0352V48.4862H265.988V51.8252C265.988 52.5112 266.163 53.0082 266.513 53.3162C266.877 53.6242 267.395 53.7782 268.067 53.7782C268.921 53.7782 269.726 53.5962 270.482 53.2322V48.4862H273.758ZM276.904 48.4862H280.159V55.2062L285.661 48.4862H288.664V59.7842H285.409V53.0642L279.928 59.7842H276.904V48.4862ZM303.136 59.9522C301.932 59.9522 300.847 59.7072 299.881 59.2172C298.929 58.7132 298.18 58.0202 297.634 57.1382C297.102 56.2562 296.836 55.2552 296.836 54.1352C296.836 53.0152 297.102 52.0142 297.634 51.1322C298.18 50.2502 298.929 49.5642 299.881 49.0742C300.847 48.5702 301.932 48.3182 303.136 48.3182C304.326 48.3182 305.362 48.5702 306.244 49.0742C307.14 49.5642 307.791 50.2712 308.197 51.1952L305.656 52.5602C305.068 51.5242 304.221 51.0062 303.115 51.0062C302.261 51.0062 301.554 51.2862 300.994 51.8462C300.434 52.4062 300.154 53.1692 300.154 54.1352C300.154 55.1012 300.434 55.8642 300.994 56.4242C301.554 56.9842 302.261 57.2642 303.115 57.2642C304.235 57.2642 305.082 56.7462 305.656 55.7102L308.197 57.0962C307.791 57.9922 307.14 58.6922 306.244 59.1962C305.362 59.7002 304.326 59.9522 303.136 59.9522ZM320.877 48.3182C322.025 48.3182 323.054 48.5702 323.964 49.0742C324.874 49.5642 325.588 50.2502 326.106 51.1322C326.624 52.0142 326.883 53.0152 326.883 54.1352C326.883 55.2552 326.624 56.2562 326.106 57.1382C325.588 58.0202 324.874 58.7132 323.964 59.2172C323.054 59.7072 322.025 59.9522 320.877 59.9522C319.883 59.9522 318.973 59.7702 318.147 59.4062C317.321 59.0282 316.635 58.5032 316.089 57.8312C315.543 57.1452 315.179 56.3612 314.997 55.4792H313.443V59.7842H310.188V48.4862H313.443V52.6442H315.018C315.34 51.3282 316.026 50.2782 317.076 49.4942C318.126 48.7102 319.393 48.3182 320.877 48.3182ZM320.877 57.2642C321.675 57.2642 322.333 56.9842 322.851 56.4242C323.383 55.8502 323.649 55.0872 323.649 54.1352C323.649 53.1692 323.383 52.4062 322.851 51.8462C322.333 51.2862 321.675 51.0062 320.877 51.0062C320.065 51.0062 319.393 51.2862 318.861 51.8462C318.343 52.4062 318.084 53.1692 318.084 54.1352C318.084 55.0872 318.343 55.8502 318.861 56.4242C319.393 56.9842 320.065 57.2642 320.877 57.2642ZM335.815 48.3182C336.865 48.3182 337.817 48.5632 338.671 49.0532C339.539 49.5292 340.218 50.2082 340.708 51.0902C341.198 51.9582 341.443 52.9732 341.443 54.1352C341.443 55.2972 341.198 56.3192 340.708 57.2012C340.218 58.0692 339.539 58.7482 338.671 59.2382C337.817 59.7142 336.865 59.9522 335.815 59.9522C334.373 59.9522 333.239 59.4972 332.413 58.5872V63.8582H329.137V48.4862H332.266V49.7882C333.078 48.8082 334.261 48.3182 335.815 48.3182ZM335.248 57.2642C336.088 57.2642 336.774 56.9842 337.306 56.4242C337.852 55.8502 338.125 55.0872 338.125 54.1352C338.125 53.1832 337.852 52.4272 337.306 51.8672C336.774 51.2932 336.088 51.0062 335.248 51.0062C334.408 51.0062 333.715 51.2932 333.169 51.8672C332.637 52.4272 332.371 53.1832 332.371 54.1352C332.371 55.0872 332.637 55.8502 333.169 56.4242C333.715 56.9842 334.408 57.2642 335.248 57.2642ZM352.37 53.8832C353.7 54.3312 354.365 55.2272 354.365 56.5712C354.365 57.5932 353.98 58.3842 353.21 58.9442C352.44 59.5042 351.292 59.7842 349.766 59.7842H343.739V48.4862H349.514C350.928 48.4862 352.034 48.7452 352.832 49.2632C353.63 49.7672 354.029 50.4812 354.029 51.4052C354.029 51.9652 353.882 52.4622 353.588 52.8962C353.308 53.3162 352.902 53.6452 352.37 53.8832ZM346.742 53.1272H349.22C350.368 53.1272 350.942 52.7212 350.942 51.9092C350.942 51.1112 350.368 50.7122 349.22 50.7122H346.742V53.1272ZM349.493 57.5582C350.697 57.5582 351.299 57.1452 351.299 56.3192C351.299 55.8852 351.159 55.5702 350.879 55.3742C350.599 55.1642 350.158 55.0592 349.556 55.0592H346.742V57.5582H349.493ZM367.785 54.1772C367.785 54.2192 367.764 54.5132 367.722 55.0592H359.175C359.329 55.7592 359.693 56.3122 360.267 56.7182C360.841 57.1242 361.555 57.3272 362.409 57.3272C362.997 57.3272 363.515 57.2432 363.963 57.0752C364.425 56.8932 364.852 56.6132 365.244 56.2352L366.987 58.1252C365.923 59.3432 364.369 59.9522 362.325 59.9522C361.051 59.9522 359.924 59.7072 358.944 59.2172C357.964 58.7132 357.208 58.0202 356.676 57.1382C356.144 56.2562 355.878 55.2552 355.878 54.1352C355.878 53.0292 356.137 52.0352 356.655 51.1532C357.187 50.2572 357.908 49.5642 358.818 49.0742C359.742 48.5702 360.771 48.3182 361.905 48.3182C363.011 48.3182 364.012 48.5562 364.908 49.0322C365.804 49.5082 366.504 50.1942 367.008 51.0902C367.526 51.9722 367.785 53.0012 367.785 54.1772ZM361.926 50.7962C361.184 50.7962 360.561 51.0062 360.057 51.4262C359.553 51.8462 359.245 52.4202 359.133 53.1482H364.698C364.586 52.4342 364.278 51.8672 363.774 51.4472C363.27 51.0132 362.654 50.7962 361.926 50.7962ZM370.296 48.4862H373.551V55.2062L379.053 48.4862H382.056V59.7842H378.801V53.0642L373.32 59.7842H370.296V48.4862ZM375.966 47.2682C373.502 47.2682 372.263 46.1832 372.249 44.0132H374.391C374.405 44.5032 374.538 44.8882 374.79 45.1682C375.056 45.4342 375.441 45.5672 375.945 45.5672C376.449 45.5672 376.834 45.4342 377.1 45.1682C377.38 44.8882 377.52 44.5032 377.52 44.0132H379.704C379.69 46.1832 378.444 47.2682 375.966 47.2682ZM396.188 54.1772C396.188 54.2192 396.167 54.5132 396.125 55.0592H387.578C387.732 55.7592 388.096 56.3122 388.67 56.7182C389.244 57.1242 389.958 57.3272 390.812 57.3272C391.4 57.3272 391.918 57.2432 392.366 57.0752C392.828 56.8932 393.255 56.6132 393.647 56.2352L395.39 58.1252C394.326 59.3432 392.772 59.9522 390.728 59.9522C389.454 59.9522 388.327 59.7072 387.347 59.2172C386.367 58.7132 385.611 58.0202 385.079 57.1382C384.547 56.2562 384.281 55.2552 384.281 54.1352C384.281 53.0292 384.54 52.0352 385.058 51.1532C385.59 50.2572 386.311 49.5642 387.221 49.0742C388.145 48.5702 389.174 48.3182 390.308 48.3182C391.414 48.3182 392.415 48.5562 393.311 49.0322C394.207 49.5082 394.907 50.1942 395.411 51.0902C395.929 51.9722 396.188 53.0012 396.188 54.1772ZM390.329 50.7962C389.587 50.7962 388.964 51.0062 388.46 51.4262C387.956 51.8462 387.648 52.4202 387.536 53.1482H393.101C392.989 52.4342 392.681 51.8672 392.177 51.4472C391.673 51.0132 391.057 50.7962 390.329 50.7962ZM405.357 48.3182C406.407 48.3182 407.359 48.5632 408.213 49.0532C409.081 49.5292 409.76 50.2082 410.25 51.0902C410.74 51.9582 410.985 52.9732 410.985 54.1352C410.985 55.2972 410.74 56.3192 410.25 57.2012C409.76 58.0692 409.081 58.7482 408.213 59.2382C407.359 59.7142 406.407 59.9522 405.357 59.9522C403.915 59.9522 402.781 59.4972 401.955 58.5872V63.8582H398.679V48.4862H401.808V49.7882C402.62 48.8082 403.803 48.3182 405.357 48.3182ZM404.79 57.2642C405.63 57.2642 406.316 56.9842 406.848 56.4242C407.394 55.8502 407.667 55.0872 407.667 54.1352C407.667 53.1832 407.394 52.4272 406.848 51.8672C406.316 51.2932 405.63 51.0062 404.79 51.0062C403.95 51.0062 403.257 51.2932 402.711 51.8672C402.179 52.4272 401.913 53.1832 401.913 54.1352C401.913 55.0872 402.179 55.8502 402.711 56.4242C403.257 56.9842 403.95 57.2642 404.79 57.2642ZM418.657 59.9522C417.453 59.9522 416.368 59.7072 415.402 59.2172C414.45 58.7132 413.701 58.0202 413.155 57.1382C412.623 56.2562 412.357 55.2552 412.357 54.1352C412.357 53.0152 412.623 52.0142 413.155 51.1322C413.701 50.2502 414.45 49.5642 415.402 49.0742C416.368 48.5702 417.453 48.3182 418.657 48.3182C419.847 48.3182 420.883 48.5702 421.765 49.0742C422.661 49.5642 423.312 50.2712 423.718 51.1952L421.177 52.5602C420.589 51.5242 419.742 51.0062 418.636 51.0062C417.782 51.0062 417.075 51.2862 416.515 51.8462C415.955 52.4062 415.675 53.1692 415.675 54.1352C415.675 55.1012 415.955 55.8642 416.515 56.4242C417.075 56.9842 417.782 57.2642 418.636 57.2642C419.756 57.2642 420.603 56.7462 421.177 55.7102L423.718 57.0962C423.312 57.9922 422.661 58.6922 421.765 59.1962C420.883 59.7002 419.847 59.9522 418.657 59.9522ZM430.685 55.5002H428.984V59.7842H425.708V48.4862H428.984V52.8752H430.748L433.814 48.4862H437.3L433.352 53.9042L437.573 59.7842H433.709L430.685 55.5002ZM444.125 59.9522C442.935 59.9522 441.864 59.7072 440.912 59.2172C439.974 58.7132 439.239 58.0202 438.707 57.1382C438.175 56.2562 437.909 55.2552 437.909 54.1352C437.909 53.0152 438.175 52.0142 438.707 51.1322C439.239 50.2502 439.974 49.5642 440.912 49.0742C441.864 48.5702 442.935 48.3182 444.125 48.3182C445.315 48.3182 446.379 48.5702 447.317 49.0742C448.255 49.5642 448.99 50.2502 449.522 51.1322C450.054 52.0142 450.32 53.0152 450.32 54.1352C450.32 55.2552 450.054 56.2562 449.522 57.1382C448.99 58.0202 448.255 58.7132 447.317 59.2172C446.379 59.7072 445.315 59.9522 444.125 59.9522ZM444.125 57.2642C444.965 57.2642 445.651 56.9842 446.183 56.4242C446.729 55.8502 447.002 55.0872 447.002 54.1352C447.002 53.1832 446.729 52.4272 446.183 51.8672C445.651 51.2932 444.965 51.0062 444.125 51.0062C443.285 51.0062 442.592 51.2932 442.046 51.8672C441.5 52.4272 441.227 53.1832 441.227 54.1352C441.227 55.0872 441.5 55.8502 442.046 56.4242C442.592 56.9842 443.285 57.2642 444.125 57.2642ZM461.625 51.1742H455.829V59.7842H452.574V48.4862H461.625V51.1742ZM468.181 59.9522C466.991 59.9522 465.92 59.7072 464.968 59.2172C464.03 58.7132 463.295 58.0202 462.763 57.1382C462.231 56.2562 461.965 55.2552 461.965 54.1352C461.965 53.0152 462.231 52.0142 462.763 51.1322C463.295 50.2502 464.03 49.5642 464.968 49.0742C465.92 48.5702 466.991 48.3182 468.181 48.3182C469.371 48.3182 470.435 48.5702 471.373 49.0742C472.311 49.5642 473.046 50.2502 473.578 51.1322C474.11 52.0142 474.376 53.0152 474.376 54.1352C474.376 55.2552 474.11 56.2562 473.578 57.1382C473.046 58.0202 472.311 58.7132 471.373 59.2172C470.435 59.7072 469.371 59.9522 468.181 59.9522ZM468.181 57.2642C469.021 57.2642 469.707 56.9842 470.239 56.4242C470.785 55.8502 471.058 55.0872 471.058 54.1352C471.058 53.1832 470.785 52.4272 470.239 51.8672C469.707 51.2932 469.021 51.0062 468.181 51.0062C467.341 51.0062 466.648 51.2932 466.102 51.8672C465.556 52.4272 465.283 53.1832 465.283 54.1352C465.283 55.0872 465.556 55.8502 466.102 56.4242C466.648 56.9842 467.341 57.2642 468.181 57.2642ZM487.868 59.9522C486.678 59.9522 485.607 59.7072 484.655 59.2172C483.717 58.7132 482.982 58.0202 482.45 57.1382C481.918 56.2562 481.652 55.2552 481.652 54.1352C481.652 53.0152 481.918 52.0142 482.45 51.1322C482.982 50.2502 483.717 49.5642 484.655 49.0742C485.607 48.5702 486.678 48.3182 487.868 48.3182C489.058 48.3182 490.122 48.5702 491.06 49.0742C491.998 49.5642 492.733 50.2502 493.265 51.1322C493.797 52.0142 494.063 53.0152 494.063 54.1352C494.063 55.2552 493.797 56.2562 493.265 57.1382C492.733 58.0202 491.998 58.7132 491.06 59.2172C490.122 59.7072 489.058 59.9522 487.868 59.9522ZM487.868 57.2642C488.708 57.2642 489.394 56.9842 489.926 56.4242C490.472 55.8502 490.745 55.0872 490.745 54.1352C490.745 53.1832 490.472 52.4272 489.926 51.8672C489.394 51.2932 488.708 51.0062 487.868 51.0062C487.028 51.0062 486.335 51.2932 485.789 51.8672C485.243 52.4272 484.97 53.1832 484.97 54.1352C484.97 55.0872 485.243 55.8502 485.789 56.4242C486.335 56.9842 487.028 57.2642 487.868 57.2642ZM505.399 51.1742H501.577V59.7842H498.322V51.1742H494.5V48.4862H505.399V51.1742ZM517.309 48.4862V59.7842H514.033V55.5842C513.081 56.0602 512.031 56.2982 510.883 56.2982C509.357 56.2982 508.202 55.9552 507.418 55.2692C506.648 54.5692 506.263 53.4912 506.263 52.0352V48.4862H509.539V51.8252C509.539 52.5112 509.714 53.0082 510.064 53.3162C510.428 53.6242 510.946 53.7782 511.618 53.7782C512.472 53.7782 513.277 53.5962 514.033 53.2322V48.4862H517.309ZM531.437 54.1772C531.437 54.2192 531.416 54.5132 531.374 55.0592H522.827C522.981 55.7592 523.345 56.3122 523.919 56.7182C524.493 57.1242 525.207 57.3272 526.061 57.3272C526.649 57.3272 527.167 57.2432 527.615 57.0752C528.077 56.8932 528.504 56.6132 528.896 56.2352L530.639 58.1252C529.575 59.3432 528.021 59.9522 525.977 59.9522C524.703 59.9522 523.576 59.7072 522.596 59.2172C521.616 58.7132 520.86 58.0202 520.328 57.1382C519.796 56.2562 519.53 55.2552 519.53 54.1352C519.53 53.0292 519.789 52.0352 520.307 51.1532C520.839 50.2572 521.56 49.5642 522.47 49.0742C523.394 48.5702 524.423 48.3182 525.557 48.3182C526.663 48.3182 527.664 48.5562 528.56 49.0322C529.456 49.5082 530.156 50.1942 530.66 51.0902C531.178 51.9722 531.437 53.0012 531.437 54.1772ZM525.578 50.7962C524.836 50.7962 524.213 51.0062 523.709 51.4262C523.205 51.8462 522.897 52.4202 522.785 53.1482H528.35C528.238 52.4342 527.93 51.8672 527.426 51.4472C526.922 51.0132 526.306 50.7962 525.578 50.7962ZM543.051 51.1742H539.229V59.7842H535.974V51.1742H532.152V48.4862H543.051V51.1742ZM549.186 48.3182C550.936 48.3182 552.28 48.7382 553.218 49.5782C554.156 50.4042 554.625 51.6572 554.625 53.3372V59.7842H551.559V58.3772C550.943 59.4272 549.795 59.9522 548.115 59.9522C547.247 59.9522 546.491 59.8052 545.847 59.5112C545.217 59.2172 544.734 58.8112 544.398 58.2932C544.062 57.7752 543.894 57.1872 543.894 56.5292C543.894 55.4792 544.286 54.6532 545.07 54.0512C545.868 53.4492 547.093 53.1482 548.745 53.1482H551.349C551.349 52.4342 551.132 51.8882 550.698 51.5102C550.264 51.1182 549.613 50.9222 548.745 50.9222C548.143 50.9222 547.548 51.0202 546.96 51.2162C546.386 51.3982 545.896 51.6502 545.49 51.9722L544.314 49.6832C544.93 49.2492 545.665 48.9132 546.519 48.6752C547.387 48.4372 548.276 48.3182 549.186 48.3182ZM548.934 57.7472C549.494 57.7472 549.991 57.6212 550.425 57.3692C550.859 57.1032 551.167 56.7182 551.349 56.2142V55.0592H549.102C547.758 55.0592 547.086 55.5002 547.086 56.3822C547.086 56.8022 547.247 57.1382 547.569 57.3902C547.905 57.6282 548.36 57.7472 548.934 57.7472ZM573.645 57.0122V59.7842H562.536V57.5792L568.206 52.2242C568.808 51.6502 569.214 51.1602 569.424 50.7542C569.634 50.3342 569.739 49.9212 569.739 49.5152C569.739 48.9272 569.536 48.4792 569.13 48.1712C568.738 47.8492 568.157 47.6882 567.387 47.6882C566.743 47.6882 566.162 47.8142 565.644 48.0662C565.126 48.3042 564.692 48.6682 564.342 49.1582L561.864 47.5622C562.438 46.7082 563.229 46.0432 564.237 45.5672C565.245 45.0772 566.4 44.8322 567.702 44.8322C568.794 44.8322 569.746 45.0142 570.558 45.3782C571.384 45.7282 572.021 46.2322 572.469 46.8902C572.931 47.5342 573.162 48.2972 573.162 49.1792C573.162 49.9772 572.994 50.7262 572.658 51.4262C572.322 52.1262 571.671 52.9242 570.705 53.8202L567.324 57.0122H573.645ZM588.305 56.6972H585.911V59.7842H582.593V56.6972H574.676V54.4082L581.606 45.0842H585.176L578.75 53.9252H582.698V51.1742H585.911V53.9252H588.305V56.6972ZM152.27 74.4862V85.7842H148.994V81.5842C148.042 82.0602 146.992 82.2982 145.844 82.2982C144.318 82.2982 143.163 81.9552 142.379 81.2692C141.609 80.5692 141.224 79.4912 141.224 78.0352V74.4862H144.5V77.8252C144.5 78.5112 144.675 79.0082 145.025 79.3162C145.389 79.6242 145.907 79.7782 146.579 79.7782C147.433 79.7782 148.238 79.5962 148.994 79.2322V74.4862H152.27ZM159.804 74.3182C161.554 74.3182 162.898 74.7382 163.836 75.5782C164.774 76.4042 165.243 77.6572 165.243 79.3372V85.7842H162.177V84.3772C161.561 85.4272 160.413 85.9522 158.733 85.9522C157.865 85.9522 157.109 85.8052 156.465 85.5112C155.835 85.2172 155.352 84.8112 155.016 84.2932C154.68 83.7752 154.512 83.1872 154.512 82.5292C154.512 81.4792 154.904 80.6532 155.688 80.0512C156.486 79.4492 157.711 79.1482 159.363 79.1482H161.967C161.967 78.4342 161.75 77.8882 161.316 77.5102C160.882 77.1182 160.231 76.9222 159.363 76.9222C158.761 76.9222 158.166 77.0202 157.578 77.2162C157.004 77.3982 156.514 77.6502 156.108 77.9722L154.932 75.6832C155.548 75.2492 156.283 74.9132 157.137 74.6752C158.005 74.4372 158.894 74.3182 159.804 74.3182ZM159.552 83.7472C160.112 83.7472 160.609 83.6212 161.043 83.3692C161.477 83.1032 161.785 82.7182 161.967 82.2142V81.0592H159.72C158.376 81.0592 157.704 81.5002 157.704 82.3822C157.704 82.8022 157.865 83.1382 158.187 83.3902C158.523 83.6282 158.978 83.7472 159.552 83.7472ZM173.465 85.9522C172.261 85.9522 171.176 85.7072 170.21 85.2172C169.258 84.7132 168.509 84.0202 167.963 83.1382C167.431 82.2562 167.165 81.2552 167.165 80.1352C167.165 79.0152 167.431 78.0142 167.963 77.1322C168.509 76.2502 169.258 75.5642 170.21 75.0742C171.176 74.5702 172.261 74.3182 173.465 74.3182C174.655 74.3182 175.691 74.5702 176.573 75.0742C177.469 75.5642 178.12 76.2712 178.526 77.1952L175.985 78.5602C175.397 77.5242 174.55 77.0062 173.444 77.0062C172.59 77.0062 171.883 77.2862 171.323 77.8462C170.763 78.4062 170.483 79.1692 170.483 80.1352C170.483 81.1012 170.763 81.8642 171.323 82.4242C171.883 82.9842 172.59 83.2642 173.444 83.2642C174.564 83.2642 175.411 82.7462 175.985 81.7102L178.526 83.0962C178.12 83.9922 177.469 84.6922 176.573 85.1962C175.691 85.7002 174.655 85.9522 173.465 85.9522ZM184.906 74.3182C186.656 74.3182 188 74.7382 188.938 75.5782C189.876 76.4042 190.345 77.6572 190.345 79.3372V85.7842H187.279V84.3772C186.663 85.4272 185.515 85.9522 183.835 85.9522C182.967 85.9522 182.211 85.8052 181.567 85.5112C180.937 85.2172 180.454 84.8112 180.118 84.2932C179.782 83.7752 179.614 83.1872 179.614 82.5292C179.614 81.4792 180.006 80.6532 180.79 80.0512C181.588 79.4492 182.813 79.1482 184.465 79.1482H187.069C187.069 78.4342 186.852 77.8882 186.418 77.5102C185.984 77.1182 185.333 76.9222 184.465 76.9222C183.863 76.9222 183.268 77.0202 182.68 77.2162C182.106 77.3982 181.616 77.6502 181.21 77.9722L180.034 75.6832C180.65 75.2492 181.385 74.9132 182.239 74.6752C183.107 74.4372 183.996 74.3182 184.906 74.3182ZM184.654 83.7472C185.214 83.7472 185.711 83.6212 186.145 83.3692C186.579 83.1032 186.887 82.7182 187.069 82.2142V81.0592H184.822C183.478 81.0592 182.806 81.5002 182.806 82.3822C182.806 82.8022 182.967 83.1382 183.289 83.3902C183.625 83.6282 184.08 83.7472 184.654 83.7472ZM210.373 74.4862V85.7842H207.097V77.1742H202.393V85.7842H199.138V74.4862H210.373ZM218.806 85.9522C217.616 85.9522 216.545 85.7072 215.593 85.2172C214.655 84.7132 213.92 84.0202 213.388 83.1382C212.856 82.2562 212.59 81.2552 212.59 80.1352C212.59 79.0152 212.856 78.0142 213.388 77.1322C213.92 76.2502 214.655 75.5642 215.593 75.0742C216.545 74.5702 217.616 74.3182 218.806 74.3182C219.996 74.3182 221.06 74.5702 221.998 75.0742C222.936 75.5642 223.671 76.2502 224.203 77.1322C224.735 78.0142 225.001 79.0152 225.001 80.1352C225.001 81.2552 224.735 82.2562 224.203 83.1382C223.671 84.0202 222.936 84.7132 221.998 85.2172C221.06 85.7072 219.996 85.9522 218.806 85.9522ZM218.806 83.2642C219.646 83.2642 220.332 82.9842 220.864 82.4242C221.41 81.8502 221.683 81.0872 221.683 80.1352C221.683 79.1832 221.41 78.4272 220.864 77.8672C220.332 77.2932 219.646 77.0062 218.806 77.0062C217.966 77.0062 217.273 77.2932 216.727 77.8672C216.181 78.4272 215.908 79.1832 215.908 80.1352C215.908 81.0872 216.181 81.8502 216.727 82.4242C217.273 82.9842 217.966 83.2642 218.806 83.2642ZM232.63 85.9522C231.426 85.9522 230.341 85.7072 229.375 85.2172C228.423 84.7132 227.674 84.0202 227.128 83.1382C226.596 82.2562 226.33 81.2552 226.33 80.1352C226.33 79.0152 226.596 78.0142 227.128 77.1322C227.674 76.2502 228.423 75.5642 229.375 75.0742C230.341 74.5702 231.426 74.3182 232.63 74.3182C233.82 74.3182 234.856 74.5702 235.738 75.0742C236.634 75.5642 237.285 76.2712 237.691 77.1952L235.15 78.5602C234.562 77.5242 233.715 77.0062 232.609 77.0062C231.755 77.0062 231.048 77.2862 230.488 77.8462C229.928 78.4062 229.648 79.1692 229.648 80.1352C229.648 81.1012 229.928 81.8642 230.488 82.4242C231.048 82.9842 231.755 83.2642 232.609 83.2642C233.729 83.2642 234.576 82.7462 235.15 81.7102L237.691 83.0962C237.285 83.9922 236.634 84.6922 235.738 85.1962C234.856 85.7002 233.82 85.9522 232.63 85.9522ZM250.354 74.4862V85.7842H247.078V77.1742H243.508L243.403 79.1692C243.347 80.6532 243.207 81.8852 242.983 82.8652C242.759 83.8452 242.395 84.6152 241.891 85.1752C241.387 85.7352 240.687 86.0152 239.791 86.0152C239.315 86.0152 238.748 85.9312 238.09 85.7632L238.258 83.0752C238.482 83.1032 238.643 83.1172 238.741 83.1172C239.231 83.1172 239.595 82.9422 239.833 82.5922C240.085 82.2282 240.253 81.7732 240.337 81.2272C240.421 80.6672 240.484 79.9322 240.526 79.0222L240.694 74.4862H250.354ZM264.487 80.1772C264.487 80.2192 264.466 80.5132 264.424 81.0592H255.877C256.031 81.7592 256.395 82.3122 256.969 82.7182C257.543 83.1242 258.257 83.3272 259.111 83.3272C259.699 83.3272 260.217 83.2432 260.665 83.0752C261.127 82.8932 261.554 82.6132 261.946 82.2352L263.689 84.1252C262.625 85.3432 261.071 85.9522 259.027 85.9522C257.753 85.9522 256.626 85.7072 255.646 85.2172C254.666 84.7132 253.91 84.0202 253.378 83.1382C252.846 82.2562 252.58 81.2552 252.58 80.1352C252.58 79.0292 252.839 78.0352 253.357 77.1532C253.889 76.2572 254.61 75.5642 255.52 75.0742C256.444 74.5702 257.473 74.3182 258.607 74.3182C259.713 74.3182 260.714 74.5562 261.61 75.0322C262.506 75.5082 263.206 76.1942 263.71 77.0902C264.228 77.9722 264.487 79.0012 264.487 80.1772ZM258.628 76.7962C257.886 76.7962 257.263 77.0062 256.759 77.4262C256.255 77.8462 255.947 78.4202 255.835 79.1482H261.4C261.288 78.4342 260.98 77.8672 260.476 77.4472C259.972 77.0132 259.356 76.7962 258.628 76.7962ZM278.238 85.9522C277.048 85.9522 275.977 85.7072 275.025 85.2172C274.087 84.7132 273.352 84.0202 272.82 83.1382C272.288 82.2562 272.022 81.2552 272.022 80.1352C272.022 79.0152 272.288 78.0142 272.82 77.1322C273.352 76.2502 274.087 75.5642 275.025 75.0742C275.977 74.5702 277.048 74.3182 278.238 74.3182C279.428 74.3182 280.492 74.5702 281.43 75.0742C282.368 75.5642 283.103 76.2502 283.635 77.1322C284.167 78.0142 284.433 79.0152 284.433 80.1352C284.433 81.2552 284.167 82.2562 283.635 83.1382C283.103 84.0202 282.368 84.7132 281.43 85.2172C280.492 85.7072 279.428 85.9522 278.238 85.9522ZM278.238 83.2642C279.078 83.2642 279.764 82.9842 280.296 82.4242C280.842 81.8502 281.115 81.0872 281.115 80.1352C281.115 79.1832 280.842 78.4272 280.296 77.8672C279.764 77.2932 279.078 77.0062 278.238 77.0062C277.398 77.0062 276.705 77.2932 276.159 77.8672C275.613 78.4272 275.34 79.1832 275.34 80.1352C275.34 81.0872 275.613 81.8502 276.159 82.4242C276.705 82.9842 277.398 83.2642 278.238 83.2642ZM291.663 81.5002H289.962V85.7842H286.686V74.4862H289.962V78.8752H291.726L294.792 74.4862H298.278L294.33 79.9042L298.551 85.7842H294.687L291.663 81.5002ZM305.103 85.9522C303.913 85.9522 302.842 85.7072 301.89 85.2172C300.952 84.7132 300.217 84.0202 299.685 83.1382C299.153 82.2562 298.887 81.2552 298.887 80.1352C298.887 79.0152 299.153 78.0142 299.685 77.1322C300.217 76.2502 300.952 75.5642 301.89 75.0742C302.842 74.5702 303.913 74.3182 305.103 74.3182C306.293 74.3182 307.357 74.5702 308.295 75.0742C309.233 75.5642 309.968 76.2502 310.5 77.1322C311.032 78.0142 311.298 79.0152 311.298 80.1352C311.298 81.2552 311.032 82.2562 310.5 83.1382C309.968 84.0202 309.233 84.7132 308.295 85.2172C307.357 85.7072 306.293 85.9522 305.103 85.9522ZM305.103 83.2642C305.943 83.2642 306.629 82.9842 307.161 82.4242C307.707 81.8502 307.98 81.0872 307.98 80.1352C307.98 79.1832 307.707 78.4272 307.161 77.8672C306.629 77.2932 305.943 77.0062 305.103 77.0062C304.263 77.0062 303.57 77.2932 303.024 77.8672C302.478 78.4272 302.205 79.1832 302.205 80.1352C302.205 81.0872 302.478 81.8502 303.024 82.4242C303.57 82.9842 304.263 83.2642 305.103 83.2642ZM313.551 74.4862H316.806V78.8962H321.72V74.4862H324.996V85.7842H321.72V81.5632H316.806V85.7842H313.551V74.4862ZM338.296 74.4862V85.7842H335.02V81.5842C334.068 82.0602 333.018 82.2982 331.87 82.2982C330.344 82.2982 329.189 81.9552 328.405 81.2692C327.635 80.5692 327.25 79.4912 327.25 78.0352V74.4862H330.526V77.8252C330.526 78.5112 330.701 79.0082 331.051 79.3162C331.415 79.6242 331.933 79.7782 332.605 79.7782C333.459 79.7782 334.264 79.5962 335.02 79.2322V74.4862H338.296ZM345.831 74.3182C347.581 74.3182 348.925 74.7382 349.863 75.5782C350.801 76.4042 351.27 77.6572 351.27 79.3372V85.7842H348.204V84.3772C347.588 85.4272 346.44 85.9522 344.76 85.9522C343.892 85.9522 343.136 85.8052 342.492 85.5112C341.862 85.2172 341.379 84.8112 341.043 84.2932C340.707 83.7752 340.539 83.1872 340.539 82.5292C340.539 81.4792 340.931 80.6532 341.715 80.0512C342.513 79.4492 343.738 79.1482 345.39 79.1482H347.994C347.994 78.4342 347.777 77.8882 347.343 77.5102C346.909 77.1182 346.258 76.9222 345.39 76.9222C344.788 76.9222 344.193 77.0202 343.605 77.2162C343.031 77.3982 342.541 77.6502 342.135 77.9722L340.959 75.6832C341.575 75.2492 342.31 74.9132 343.164 74.6752C344.032 74.4372 344.921 74.3182 345.831 74.3182ZM345.579 83.7472C346.139 83.7472 346.636 83.6212 347.07 83.3692C347.504 83.1032 347.812 82.7182 347.994 82.2142V81.0592H345.747C344.403 81.0592 343.731 81.5002 343.731 82.3822C343.731 82.8022 343.892 83.1382 344.214 83.3902C344.55 83.6282 345.005 83.7472 345.579 83.7472ZM354.116 74.4862H357.371V78.8962H362.285V74.4862H365.561V85.7842H362.285V81.5632H357.371V85.7842H354.116V74.4862ZM368.697 74.4862H371.952V81.2062L377.454 74.4862H380.457V85.7842H377.202V79.0642L371.721 85.7842H368.697V74.4862ZM393.644 74.4862V85.7842H390.725V82.5502H388.31L386.168 85.7842H382.682L385.265 82.0882C384.481 81.7802 383.879 81.3392 383.459 80.7652C383.053 80.1772 382.85 79.4702 382.85 78.6442C382.85 77.3142 383.326 76.2922 384.278 75.5782C385.244 74.8502 386.567 74.4862 388.247 74.4862H393.644ZM388.31 77.1532C387.61 77.1532 387.078 77.2792 386.714 77.5312C386.364 77.7832 386.189 78.1892 386.189 78.7492C386.189 79.3092 386.357 79.7222 386.693 79.9882C387.043 80.2402 387.568 80.3662 388.268 80.3662H390.725V77.1532H388.31ZM402.74 74.4862H405.995V81.2062L411.497 74.4862H414.5V85.7842H411.245V79.0642L405.764 85.7842H402.74V74.4862ZM417.649 74.4862H420.904V78.8962H425.818V74.4862H429.094V85.7842H425.818V81.5632H420.904V85.7842H417.649V74.4862ZM437.606 85.9522C436.402 85.9522 435.317 85.7072 434.351 85.2172C433.399 84.7132 432.65 84.0202 432.104 83.1382C431.572 82.2562 431.306 81.2552 431.306 80.1352C431.306 79.0152 431.572 78.0142 432.104 77.1322C432.65 76.2502 433.399 75.5642 434.351 75.0742C435.317 74.5702 436.402 74.3182 437.606 74.3182C438.796 74.3182 439.832 74.5702 440.714 75.0742C441.61 75.5642 442.261 76.2712 442.667 77.1952L440.126 78.5602C439.538 77.5242 438.691 77.0062 437.585 77.0062C436.731 77.0062 436.024 77.2862 435.464 77.8462C434.904 78.4062 434.624 79.1692 434.624 80.1352C434.624 81.1012 434.904 81.8642 435.464 82.4242C436.024 82.9842 436.731 83.2642 437.585 83.2642C438.705 83.2642 439.552 82.7462 440.126 81.7102L442.667 83.0962C442.261 83.9922 441.61 84.6922 440.714 85.1962C439.832 85.7002 438.796 85.9522 437.606 85.9522ZM455.893 74.4862V85.7842H452.617V77.1742H447.913V85.7842H444.658V74.4862H455.893ZM470.016 80.1772C470.016 80.2192 469.995 80.5132 469.953 81.0592H461.406C461.56 81.7592 461.924 82.3122 462.498 82.7182C463.072 83.1242 463.786 83.3272 464.64 83.3272C465.228 83.3272 465.746 83.2432 466.194 83.0752C466.656 82.8932 467.083 82.6132 467.475 82.2352L469.218 84.1252C468.154 85.3432 466.6 85.9522 464.556 85.9522C463.282 85.9522 462.155 85.7072 461.175 85.2172C460.195 84.7132 459.439 84.0202 458.907 83.1382C458.375 82.2562 458.109 81.2552 458.109 80.1352C458.109 79.0292 458.368 78.0352 458.886 77.1532C459.418 76.2572 460.139 75.5642 461.049 75.0742C461.973 74.5702 463.002 74.3182 464.136 74.3182C465.242 74.3182 466.243 74.5562 467.139 75.0322C468.035 75.5082 468.735 76.1942 469.239 77.0902C469.757 77.9722 470.016 79.0012 470.016 80.1772ZM464.157 76.7962C463.415 76.7962 462.792 77.0062 462.288 77.4262C461.784 77.8462 461.476 78.4202 461.364 79.1482H466.929C466.817 78.4342 466.509 77.8672 466.005 77.4472C465.501 77.0132 464.885 76.7962 464.157 76.7962ZM477.505 81.5002H475.804V85.7842H472.528V74.4862H475.804V78.8752H477.568L480.634 74.4862H484.12L480.172 79.9042L484.393 85.7842H480.529L477.505 81.5002ZM498.727 83.0962V88.2622H495.682V85.7842H486.001V74.4862H489.256V83.0962H493.813V74.4862H497.089V83.0962H498.727ZM500.787 74.4862H504.042V81.2062L509.544 74.4862H512.547V85.7842H509.292V79.0642L503.811 85.7842H500.787V74.4862ZM515.697 74.4862H518.952V81.2062L524.454 74.4862H527.457V85.7842H524.202V79.0642L518.721 85.7842H515.697V74.4862Z" fill="white"/>
</svg>
