<svg width="645" height="135" viewBox="0 0 645 135" fill="none" xmlns="http://www.w3.org/2000/svg">
<rect x="30.2682" y="17.1543" width="614.732" height="101.436" fill="#3E4671"/>
<path d="M129.162 67.5C129.162 103.729 100.642 133 65.581 133C30.5202 133 2 103.729 2 67.5C2 31.2706 30.5202 2 65.581 2C100.642 2 129.162 31.2706 129.162 67.5Z" fill="white" stroke="#3E4671" stroke-width="4"/>
<path d="M96.3856 60.2185C94.9157 53.0605 91.0176 46.5455 85.4078 41.8741C79.6711 37.1236 72.542 34.5373 65.195 34.541C56.5344 34.541 48.4453 37.9942 42.3976 44.265C36.5533 50.3327 33.3504 58.344 33.3759 66.8173C33.3761 73.0297 35.1384 79.1053 38.4441 84.2907L39.0625 85.1809L35.6506 100.456L51.9709 96.254C51.9709 96.254 52.2979 96.3673 52.5396 96.4629C52.7813 96.5586 54.8611 97.384 57.0675 98.0225C58.9014 98.5522 62.7171 99.3467 65.7068 99.3467C74.1868 99.3467 82.1053 95.948 88.0023 89.7743C93.8466 83.6492 97.0652 75.5055 97.0652 66.835C97.0656 64.6108 96.8379 62.3929 96.3856 60.2185ZM51.5729 72.2068C50.6731 72.2068 49.7936 71.9306 49.0455 71.4133C48.2973 70.896 47.7142 70.1606 47.3699 69.3003C47.0256 68.44 46.9355 67.4933 47.1111 66.58C47.2866 65.6667 47.7199 64.8278 48.3561 64.1693C48.9923 63.5109 49.8029 63.0625 50.6854 62.8808C51.5678 62.6991 52.4825 62.7924 53.3138 63.1487C54.1451 63.5051 54.8555 64.1085 55.3554 64.8828C55.8553 65.6571 56.1221 66.5674 56.1221 67.4986C56.1221 68.7472 55.6428 69.9448 54.7897 70.8278C53.9365 71.7107 52.7794 72.2068 51.5729 72.2068ZM65.2206 72.2068C64.3208 72.2068 63.4413 71.9306 62.6931 71.4133C61.945 70.896 61.3619 70.1606 61.0176 69.3003C60.6733 68.44 60.5832 67.4933 60.7587 66.58C60.9343 65.6667 61.3676 64.8278 62.0038 64.1693C62.64 63.5109 63.4506 63.0625 64.3331 62.8808C65.2155 62.6991 66.1302 62.7924 66.9615 63.1487C67.7927 63.5051 68.5032 64.1085 69.0031 64.8828C69.503 65.6571 69.7698 66.5674 69.7698 67.4986C69.7698 68.7472 69.2905 69.9448 68.4374 70.8278C67.5842 71.7107 66.4271 72.2068 65.2206 72.2068ZM78.8683 72.2068C77.9685 72.2068 77.089 71.9306 76.3408 71.4133C75.5927 70.896 75.0096 70.1606 74.6653 69.3003C74.321 68.44 74.2309 67.4933 74.4064 66.58C74.582 65.6667 75.0152 64.8278 75.6515 64.1693C76.2877 63.5109 77.0983 63.0625 77.9808 62.8808C78.8632 62.6991 79.7779 62.7924 80.6092 63.1487C81.4404 63.5051 82.1509 64.1085 82.6508 64.8828C83.1507 65.6571 83.4175 66.5674 83.4175 67.4986C83.4175 68.7472 82.9382 69.9448 82.0851 70.8278C81.2319 71.7107 80.0748 72.2068 78.8683 72.2068Z" fill="#3E4671"/>
<path d="M145.069 74.9512C143.543 74.9512 142.164 74.6222 140.932 73.9642C139.714 73.3062 138.755 72.4032 138.055 71.2552C137.369 70.0932 137.026 68.7912 137.026 67.3492C137.026 65.9072 137.369 64.6122 138.055 63.4642C138.755 62.3022 139.714 61.3922 140.932 60.7342C142.164 60.0762 143.543 59.7472 145.069 59.7472C146.595 59.7472 147.967 60.0762 149.185 60.7342C150.403 61.3922 151.362 62.3022 152.062 63.4642C152.762 64.6122 153.112 65.9072 153.112 67.3492C153.112 68.7912 152.762 70.0932 152.062 71.2552C151.362 72.4032 150.403 73.3062 149.185 73.9642C147.967 74.6222 146.595 74.9512 145.069 74.9512ZM145.069 72.0532C145.937 72.0532 146.721 71.8572 147.421 71.4652C148.121 71.0592 148.667 70.4992 149.059 69.7852C149.465 69.0712 149.668 68.2592 149.668 67.3492C149.668 66.4392 149.465 65.6272 149.059 64.9132C148.667 64.1992 148.121 63.6462 147.421 63.2542C146.721 62.8482 145.937 62.6452 145.069 62.6452C144.201 62.6452 143.417 62.8482 142.717 63.2542C142.017 63.6462 141.464 64.1992 141.058 64.9132C140.666 65.6272 140.47 66.4392 140.47 67.3492C140.47 68.2592 140.666 69.0712 141.058 69.7852C141.464 70.4992 142.017 71.0592 142.717 71.4652C143.417 71.8572 144.201 72.0532 145.069 72.0532ZM162.305 63.2332C163.705 63.2332 164.832 63.6532 165.686 64.4932C166.554 65.3332 166.988 66.5792 166.988 68.2312V74.6992H163.712V68.7352C163.712 67.8392 163.516 67.1742 163.124 66.7402C162.732 66.2922 162.165 66.0682 161.423 66.0682C160.597 66.0682 159.939 66.3272 159.449 66.8452C158.959 67.3492 158.714 68.1052 158.714 69.1132V74.6992H155.438V63.4012H158.567V64.7242C159.001 64.2482 159.54 63.8842 160.184 63.6322C160.828 63.3662 161.535 63.2332 162.305 63.2332ZM169.537 67.4752H175.48V70.1002H169.537V67.4752ZM178.058 59.1172H181.334V74.6992H178.058V59.1172ZM184.374 63.4012H187.65V74.6992H184.374V63.4012ZM186.012 61.8262C185.41 61.8262 184.92 61.6512 184.542 61.3012C184.164 60.9512 183.975 60.5172 183.975 59.9992C183.975 59.4812 184.164 59.0472 184.542 58.6972C184.92 58.3472 185.41 58.1722 186.012 58.1722C186.614 58.1722 187.104 58.3402 187.482 58.6762C187.86 59.0122 188.049 59.4322 188.049 59.9362C188.049 60.4822 187.86 60.9372 187.482 61.3012C187.104 61.6512 186.614 61.8262 186.012 61.8262ZM197.557 63.2332C198.957 63.2332 200.084 63.6532 200.938 64.4932C201.806 65.3332 202.24 66.5792 202.24 68.2312V74.6992H198.964V68.7352C198.964 67.8392 198.768 67.1742 198.376 66.7402C197.984 66.2922 197.417 66.0682 196.675 66.0682C195.849 66.0682 195.191 66.3272 194.701 66.8452C194.211 67.3492 193.966 68.1052 193.966 69.1132V74.6992H190.69V63.4012H193.819V64.7242C194.253 64.2482 194.792 63.8842 195.436 63.6322C196.08 63.3662 196.787 63.2332 197.557 63.2332ZM216.4 69.0922C216.4 69.1342 216.379 69.4282 216.337 69.9742H207.79C207.944 70.6742 208.308 71.2272 208.882 71.6332C209.456 72.0392 210.17 72.2422 211.024 72.2422C211.612 72.2422 212.13 72.1582 212.578 71.9902C213.04 71.8082 213.467 71.5282 213.859 71.1502L215.602 73.0402C214.538 74.2582 212.984 74.8672 210.94 74.8672C209.666 74.8672 208.539 74.6222 207.559 74.1322C206.579 73.6282 205.823 72.9352 205.291 72.0532C204.759 71.1712 204.493 70.1702 204.493 69.0502C204.493 67.9442 204.752 66.9502 205.27 66.0682C205.802 65.1722 206.523 64.4792 207.433 63.9892C208.357 63.4852 209.386 63.2332 210.52 63.2332C211.626 63.2332 212.627 63.4712 213.523 63.9472C214.419 64.4232 215.119 65.1092 215.623 66.0052C216.141 66.8872 216.4 67.9162 216.4 69.0922ZM210.541 65.7112C209.799 65.7112 209.176 65.9212 208.672 66.3412C208.168 66.7612 207.86 67.3352 207.748 68.0632H213.313C213.201 67.3492 212.893 66.7822 212.389 66.3622C211.885 65.9282 211.269 65.7112 210.541 65.7112ZM224.528 63.4012H227.804V74.6992H224.528V63.4012ZM226.166 61.8262C225.564 61.8262 225.074 61.6512 224.696 61.3012C224.318 60.9512 224.129 60.5172 224.129 59.9992C224.129 59.4812 224.318 59.0472 224.696 58.6972C225.074 58.3472 225.564 58.1722 226.166 58.1722C226.768 58.1722 227.258 58.3402 227.636 58.6762C228.014 59.0122 228.203 59.4322 228.203 59.9362C228.203 60.4822 228.014 60.9372 227.636 61.3012C227.258 61.6512 226.768 61.8262 226.166 61.8262ZM237.712 63.2332C239.112 63.2332 240.239 63.6532 241.093 64.4932C241.961 65.3332 242.395 66.5792 242.395 68.2312V74.6992H239.119V68.7352C239.119 67.8392 238.923 67.1742 238.531 66.7402C238.139 66.2922 237.572 66.0682 236.83 66.0682C236.004 66.0682 235.346 66.3272 234.856 66.8452C234.366 67.3492 234.121 68.1052 234.121 69.1132V74.6992H230.845V63.4012H233.974V64.7242C234.408 64.2482 234.947 63.8842 235.591 63.6322C236.235 63.3662 236.942 63.2332 237.712 63.2332ZM248.955 63.6532H251.853V66.1732H249.039V74.6992H245.763V66.1732H244.02V63.6532H245.763V63.1492C245.763 61.8612 246.141 60.8392 246.897 60.0832C247.667 59.3272 248.745 58.9492 250.131 58.9492C250.621 58.9492 251.083 59.0052 251.517 59.1172C251.965 59.2152 252.336 59.3622 252.63 59.5582L251.769 61.9312C251.391 61.6652 250.95 61.5322 250.446 61.5322C249.452 61.5322 248.955 62.0782 248.955 63.1702V63.6532ZM258.718 74.8672C257.528 74.8672 256.457 74.6222 255.505 74.1322C254.567 73.6282 253.832 72.9352 253.3 72.0532C252.768 71.1712 252.502 70.1702 252.502 69.0502C252.502 67.9302 252.768 66.9292 253.3 66.0472C253.832 65.1652 254.567 64.4792 255.505 63.9892C256.457 63.4852 257.528 63.2332 258.718 63.2332C259.908 63.2332 260.972 63.4852 261.91 63.9892C262.848 64.4792 263.583 65.1652 264.115 66.0472C264.647 66.9292 264.913 67.9302 264.913 69.0502C264.913 70.1702 264.647 71.1712 264.115 72.0532C263.583 72.9352 262.848 73.6282 261.91 74.1322C260.972 74.6222 259.908 74.8672 258.718 74.8672ZM258.718 72.1792C259.558 72.1792 260.244 71.8992 260.776 71.3392C261.322 70.7652 261.595 70.0022 261.595 69.0502C261.595 68.0982 261.322 67.3422 260.776 66.7822C260.244 66.2082 259.558 65.9212 258.718 65.9212C257.878 65.9212 257.185 66.2082 256.639 66.7822C256.093 67.3422 255.82 68.0982 255.82 69.0502C255.82 70.0022 256.093 70.7652 256.639 71.3392C257.185 71.8992 257.878 72.1792 258.718 72.1792ZM270.232 64.8922C270.624 64.3462 271.149 63.9332 271.807 63.6532C272.479 63.3732 273.249 63.2332 274.117 63.2332V66.2572C273.753 66.2292 273.508 66.2152 273.382 66.2152C272.444 66.2152 271.709 66.4812 271.177 67.0132C270.645 67.5312 270.379 68.3152 270.379 69.3652V74.6992H267.103V63.4012H270.232V64.8922ZM290.533 63.2332C291.947 63.2332 293.067 63.6532 293.893 64.4932C294.733 65.3192 295.153 66.5652 295.153 68.2312V74.6992H291.877V68.7352C291.877 67.8392 291.688 67.1742 291.31 66.7402C290.946 66.2922 290.421 66.0682 289.735 66.0682C288.965 66.0682 288.356 66.3202 287.908 66.8242C287.46 67.3142 287.236 68.0492 287.236 69.0292V74.6992H283.96V68.7352C283.96 66.9572 283.246 66.0682 281.818 66.0682C281.062 66.0682 280.46 66.3202 280.012 66.8242C279.564 67.3142 279.34 68.0492 279.34 69.0292V74.6992H276.064V63.4012H279.193V64.7032C279.613 64.2272 280.124 63.8632 280.726 63.6112C281.342 63.3592 282.014 63.2332 282.742 63.2332C283.54 63.2332 284.261 63.3942 284.905 63.7162C285.549 64.0242 286.067 64.4792 286.459 65.0812C286.921 64.4932 287.502 64.0382 288.202 63.7162C288.916 63.3942 289.693 63.2332 290.533 63.2332ZM298.09 63.4012H301.366V74.6992H298.09V63.4012ZM299.728 61.8262C299.126 61.8262 298.636 61.6512 298.258 61.3012C297.88 60.9512 297.691 60.5172 297.691 59.9992C297.691 59.4812 297.88 59.0472 298.258 58.6972C298.636 58.3472 299.126 58.1722 299.728 58.1722C300.33 58.1722 300.82 58.3402 301.198 58.6762C301.576 59.0122 301.765 59.4322 301.765 59.9362C301.765 60.4822 301.576 60.9372 301.198 61.3012C300.82 61.6512 300.33 61.8262 299.728 61.8262ZM311.273 63.2332C312.673 63.2332 313.8 63.6532 314.654 64.4932C315.522 65.3332 315.956 66.5792 315.956 68.2312V74.6992H312.68V68.7352C312.68 67.8392 312.484 67.1742 312.092 66.7402C311.7 66.2922 311.133 66.0682 310.391 66.0682C309.565 66.0682 308.907 66.3272 308.417 66.8452C307.927 67.3492 307.682 68.1052 307.682 69.1132V74.6992H304.406V63.4012H307.535V64.7242C307.969 64.2482 308.508 63.8842 309.152 63.6322C309.796 63.3662 310.503 63.2332 311.273 63.2332ZM330.704 63.4012V72.8092C330.704 74.8812 330.165 76.4212 329.087 77.4292C328.009 78.4372 326.434 78.9412 324.362 78.9412C323.27 78.9412 322.234 78.8082 321.254 78.5422C320.274 78.2762 319.462 77.8912 318.818 77.3872L320.12 75.0352C320.596 75.4272 321.198 75.7352 321.926 75.9592C322.654 76.1972 323.382 76.3162 324.11 76.3162C325.244 76.3162 326.077 76.0572 326.609 75.5392C327.155 75.0352 327.428 74.2652 327.428 73.2292V72.7462C326.574 73.6842 325.384 74.1532 323.858 74.1532C322.822 74.1532 321.87 73.9292 321.002 73.4812C320.148 73.0192 319.469 72.3752 318.965 71.5492C318.461 70.7232 318.209 69.7712 318.209 68.6932C318.209 67.6152 318.461 66.6632 318.965 65.8372C319.469 65.0112 320.148 64.3742 321.002 63.9262C321.87 63.4642 322.822 63.2332 323.858 63.2332C325.496 63.2332 326.742 63.7722 327.596 64.8502V63.4012H330.704ZM324.509 71.4652C325.377 71.4652 326.084 71.2132 326.63 70.7092C327.19 70.1912 327.47 69.5192 327.47 68.6932C327.47 67.8672 327.19 67.2022 326.63 66.6982C326.084 66.1802 325.377 65.9212 324.509 65.9212C323.641 65.9212 322.927 66.1802 322.367 66.6982C321.807 67.2022 321.527 67.8672 321.527 68.6932C321.527 69.5192 321.807 70.1912 322.367 70.7092C322.927 71.2132 323.641 71.4652 324.509 71.4652ZM346.987 74.1532C346.665 74.3912 346.266 74.5732 345.79 74.6992C345.328 74.8112 344.838 74.8672 344.32 74.8672C342.976 74.8672 341.933 74.5242 341.191 73.8382C340.463 73.1522 340.099 72.1442 340.099 70.8142V66.1732H338.356V63.6532H340.099V60.9022H343.375V63.6532H346.189V66.1732H343.375V70.7722C343.375 71.2482 343.494 71.6192 343.732 71.8852C343.984 72.1372 344.334 72.2632 344.782 72.2632C345.3 72.2632 345.741 72.1232 346.105 71.8432L346.987 74.1532ZM355.693 63.2332C357.093 63.2332 358.22 63.6532 359.074 64.4932C359.942 65.3332 360.376 66.5792 360.376 68.2312V74.6992H357.1V68.7352C357.1 67.8392 356.904 67.1742 356.512 66.7402C356.12 66.2922 355.553 66.0682 354.811 66.0682C353.985 66.0682 353.327 66.3272 352.837 66.8452C352.347 67.3492 352.102 68.1052 352.102 69.1132V74.6992H348.826V59.1172H352.102V64.5772C352.536 64.1432 353.061 63.8142 353.677 63.5902C354.293 63.3522 354.965 63.2332 355.693 63.2332ZM374.536 69.0922C374.536 69.1342 374.515 69.4282 374.473 69.9742H365.926C366.08 70.6742 366.444 71.2272 367.018 71.6332C367.592 72.0392 368.306 72.2422 369.16 72.2422C369.748 72.2422 370.266 72.1582 370.714 71.9902C371.176 71.8082 371.603 71.5282 371.995 71.1502L373.738 73.0402C372.674 74.2582 371.12 74.8672 369.076 74.8672C367.802 74.8672 366.675 74.6222 365.695 74.1322C364.715 73.6282 363.959 72.9352 363.427 72.0532C362.895 71.1712 362.629 70.1702 362.629 69.0502C362.629 67.9442 362.888 66.9502 363.406 66.0682C363.938 65.1722 364.659 64.4792 365.569 63.9892C366.493 63.4852 367.522 63.2332 368.656 63.2332C369.762 63.2332 370.763 63.4712 371.659 63.9472C372.555 64.4232 373.255 65.1092 373.759 66.0052C374.277 66.8872 374.536 67.9162 374.536 69.0922ZM368.677 65.7112C367.935 65.7112 367.312 65.9212 366.808 66.3412C366.304 66.7612 365.996 67.3352 365.884 68.0632H371.449C371.337 67.3492 371.029 66.7822 370.525 66.3622C370.021 65.9282 369.405 65.7112 368.677 65.7112ZM388.124 74.8672C386.92 74.8672 385.835 74.6222 384.869 74.1322C383.917 73.6282 383.168 72.9352 382.622 72.0532C382.09 71.1712 381.824 70.1702 381.824 69.0502C381.824 67.9302 382.09 66.9292 382.622 66.0472C383.168 65.1652 383.917 64.4792 384.869 63.9892C385.835 63.4852 386.92 63.2332 388.124 63.2332C389.314 63.2332 390.35 63.4852 391.232 63.9892C392.128 64.4792 392.779 65.1862 393.185 66.1102L390.644 67.4752C390.056 66.4392 389.209 65.9212 388.103 65.9212C387.249 65.9212 386.542 66.2012 385.982 66.7612C385.422 67.3212 385.142 68.0842 385.142 69.0502C385.142 70.0162 385.422 70.7792 385.982 71.3392C386.542 71.8992 387.249 72.1792 388.103 72.1792C389.223 72.1792 390.07 71.6612 390.644 70.6252L393.185 72.0112C392.779 72.9072 392.128 73.6072 391.232 74.1112C390.35 74.6152 389.314 74.8672 388.124 74.8672ZM394.989 59.1172H398.265V74.6992H394.989V59.1172ZM401.306 63.4012H404.582V74.6992H401.306V63.4012ZM402.944 61.8262C402.342 61.8262 401.852 61.6512 401.474 61.3012C401.096 60.9512 400.907 60.5172 400.907 59.9992C400.907 59.4812 401.096 59.0472 401.474 58.6972C401.852 58.3472 402.342 58.1722 402.944 58.1722C403.546 58.1722 404.036 58.3402 404.414 58.6762C404.792 59.0122 404.981 59.4322 404.981 59.9362C404.981 60.4822 404.792 60.9372 404.414 61.3012C404.036 61.6512 403.546 61.8262 402.944 61.8262ZM418.689 69.0922C418.689 69.1342 418.668 69.4282 418.626 69.9742H410.079C410.233 70.6742 410.597 71.2272 411.171 71.6332C411.745 72.0392 412.459 72.2422 413.313 72.2422C413.901 72.2422 414.419 72.1582 414.867 71.9902C415.329 71.8082 415.756 71.5282 416.148 71.1502L417.891 73.0402C416.827 74.2582 415.273 74.8672 413.229 74.8672C411.955 74.8672 410.828 74.6222 409.848 74.1322C408.868 73.6282 408.112 72.9352 407.58 72.0532C407.048 71.1712 406.782 70.1702 406.782 69.0502C406.782 67.9442 407.041 66.9502 407.559 66.0682C408.091 65.1722 408.812 64.4792 409.722 63.9892C410.646 63.4852 411.675 63.2332 412.809 63.2332C413.915 63.2332 414.916 63.4712 415.812 63.9472C416.708 64.4232 417.408 65.1092 417.912 66.0052C418.43 66.8872 418.689 67.9162 418.689 69.0922ZM412.83 65.7112C412.088 65.7112 411.465 65.9212 410.961 66.3412C410.457 66.7612 410.149 67.3352 410.037 68.0632H415.602C415.49 67.3492 415.182 66.7822 414.678 66.3622C414.174 65.9282 413.558 65.7112 412.83 65.7112ZM427.737 63.2332C429.137 63.2332 430.264 63.6532 431.118 64.4932C431.986 65.3332 432.42 66.5792 432.42 68.2312V74.6992H429.144V68.7352C429.144 67.8392 428.948 67.1742 428.556 66.7402C428.164 66.2922 427.597 66.0682 426.855 66.0682C426.029 66.0682 425.371 66.3272 424.881 66.8452C424.391 67.3492 424.146 68.1052 424.146 69.1132V74.6992H420.87V63.4012H423.999V64.7242C424.433 64.2482 424.972 63.8842 425.616 63.6322C426.26 63.3662 426.967 63.2332 427.737 63.2332ZM442.677 74.1532C442.355 74.3912 441.956 74.5732 441.48 74.6992C441.018 74.8112 440.528 74.8672 440.01 74.8672C438.666 74.8672 437.623 74.5242 436.881 73.8382C436.153 73.1522 435.789 72.1442 435.789 70.8142V66.1732H434.046V63.6532H435.789V60.9022H439.065V63.6532H441.879V66.1732H439.065V70.7722C439.065 71.2482 439.184 71.6192 439.422 71.8852C439.674 72.1372 440.024 72.2632 440.472 72.2632C440.99 72.2632 441.431 72.1232 441.795 71.8432L442.677 74.1532Z" fill="white"/>
</svg>
