<svg width="542" height="114" viewBox="0 0 542 114" fill="none" xmlns="http://www.w3.org/2000/svg">
<rect x="26.0402" y="14.415" width="515.96" height="85.2381" fill="#3E4671"/>
<path d="M111.958 56.7209C111.958 86.9339 87.3513 111.442 56.9788 111.442C26.6063 111.442 2 86.9339 2 56.7209C2 26.5079 26.6063 2 56.9788 2C87.3513 2 111.958 26.5079 111.958 56.7209Z" fill="white" stroke="#3E4671" stroke-width="4"/>
<g clip-path="url(#clip0_207:57)">
<path d="M25.0456 56.7202C25.0456 48.3259 28.377 40.2754 34.3069 34.3397C40.2368 28.404 48.2795 25.0693 56.6657 25.0693C65.0519 25.0693 73.0946 28.404 79.0245 34.3397C84.9544 40.2754 88.2858 48.3259 88.2858 56.7202C88.2858 65.1146 84.9544 73.1651 79.0245 79.1008C73.0946 85.0365 65.0519 88.3711 56.6657 88.3711C48.2795 88.3711 40.2368 85.0365 34.3069 79.1008C28.377 73.1651 25.0456 65.1146 25.0456 56.7202V56.7202ZM54.6894 29.3303C52.0412 30.1374 49.4128 32.5746 47.231 36.6694C46.5122 38.0308 45.894 39.443 45.3813 40.8948H54.6894V29.3303ZM41.2114 40.8948C41.8701 38.7932 42.7168 36.7554 43.741 34.8059C44.4244 33.5124 45.2136 32.2778 46.1006 31.1147C41.2035 33.1475 36.9901 36.5413 33.9585 40.8948H41.2114ZM38.911 54.7421C39.0296 51.2723 39.4565 47.945 40.1442 44.8512H31.6621C30.1883 47.9571 29.3088 51.3119 29.0693 54.7421H38.911ZM44.2034 44.8512C43.426 48.0946 42.9784 51.4084 42.8675 54.7421H54.6894V44.8512H44.2034ZM58.6419 44.8512V54.7421H70.46C70.3504 51.4086 69.9042 48.0947 69.128 44.8512H58.6419ZM42.8714 58.6984C42.9811 62.0319 43.4274 65.3458 44.2034 68.5893H54.6894V58.6984H42.8714ZM58.6419 58.6984V68.5893H69.128C69.8671 65.5627 70.3374 62.2275 70.4639 58.6984H58.6419ZM45.3813 72.5457C45.9267 74.0729 46.5473 75.4892 47.231 76.7711C49.4128 80.8659 52.0452 83.2991 54.6894 84.1101V72.5457H45.3813ZM46.1006 82.3258C45.2136 81.1627 44.4243 79.9281 43.741 78.6345C42.7168 76.6851 41.8702 74.6472 41.2114 72.5457H33.9585C36.9899 76.8993 41.2034 80.2931 46.1006 82.3258V82.3258ZM40.1442 68.5893C39.4294 65.3375 39.0166 62.0264 38.911 58.6984H29.0693C29.3143 62.2196 30.2194 65.5548 31.6621 68.5893H40.1442ZM67.2308 82.3258C72.128 80.2931 76.3414 76.8993 79.3729 72.5457H72.12C71.4612 74.6472 70.6146 76.6851 69.5904 78.6345C68.9072 79.9282 68.1179 81.1628 67.2308 82.3258V82.3258ZM58.6419 72.5457V84.1101C61.2901 83.303 63.9185 80.8659 66.1003 76.7711C66.7841 75.4892 67.4047 74.0729 67.9501 72.5457H58.6419ZM73.1872 68.5893H81.6693C83.1119 65.5548 84.0171 62.2196 84.2621 58.6984H74.4204C74.3148 62.0264 73.902 65.3375 73.1872 68.5893ZM84.2621 54.7421C84.0225 51.3119 83.143 47.9571 81.6693 44.8512H73.1872C73.8749 47.945 74.3018 51.2723 74.4204 54.7421H84.2621ZM69.5904 34.8059C70.5667 36.6417 71.4165 38.6832 72.12 40.8948H79.3729C76.3414 36.5411 72.128 33.1474 67.2308 31.1147C68.0924 32.2383 68.8829 33.4806 69.5904 34.8059V34.8059ZM67.9501 40.8948C67.4375 39.443 66.8192 38.0307 66.1003 36.6694C63.9185 32.5746 61.2901 30.1414 58.6419 29.3303V40.8948H67.9501Z" fill="#3E4671"/>
</g>
<path d="M131.845 66.2598L131.826 58.2988L127.912 64.8538H126.544L122.63 58.4508V66.2598H119.742V52.9598H122.288L127.266 61.2248L132.168 52.9598H134.714L134.733 66.2598H131.845ZM147.746 61.1868C147.746 61.2248 147.727 61.4908 147.689 61.9848H139.956C140.096 62.6181 140.425 63.1184 140.944 63.4858C141.464 63.8531 142.11 64.0368 142.882 64.0368C143.414 64.0368 143.883 63.9608 144.288 63.8088C144.706 63.6441 145.093 63.3908 145.447 63.0488L147.024 64.7588C146.062 65.8608 144.656 66.4118 142.806 66.4118C141.654 66.4118 140.634 66.1901 139.747 65.7468C138.861 65.2908 138.177 64.6638 137.695 63.8658C137.214 63.0678 136.973 62.1621 136.973 61.1488C136.973 60.1481 137.208 59.2488 137.676 58.4508C138.158 57.6401 138.81 57.0131 139.633 56.5698C140.469 56.1138 141.4 55.8858 142.426 55.8858C143.427 55.8858 144.333 56.1011 145.143 56.5318C145.954 56.9624 146.587 57.5831 147.043 58.3938C147.512 59.1918 147.746 60.1228 147.746 61.1868ZM142.445 58.1278C141.774 58.1278 141.21 58.3178 140.754 58.6978C140.298 59.0778 140.02 59.5971 139.918 60.2558H144.953C144.852 59.6098 144.573 59.0968 144.117 58.7168C143.661 58.3241 143.104 58.1278 142.445 58.1278ZM156.041 55.8858C156.991 55.8858 157.853 56.1074 158.625 56.5508C159.411 56.9814 160.025 57.5958 160.468 58.3938C160.912 59.1791 161.133 60.0974 161.133 61.1488C161.133 62.2001 160.912 63.1248 160.468 63.9228C160.025 64.7081 159.411 65.3224 158.625 65.7658C157.853 66.1964 156.991 66.4118 156.041 66.4118C154.737 66.4118 153.711 66.0001 152.963 65.1768V69.9458H149.999V56.0378H152.83V57.2158C153.565 56.3291 154.635 55.8858 156.041 55.8858ZM155.528 63.9798C156.288 63.9798 156.909 63.7264 157.39 63.2198C157.884 62.7004 158.131 62.0101 158.131 61.1488C158.131 60.2874 157.884 59.6034 157.39 59.0968C156.909 58.5774 156.288 58.3178 155.528 58.3178C154.768 58.3178 154.141 58.5774 153.647 59.0968C153.166 59.6034 152.925 60.2874 152.925 61.1488C152.925 62.0101 153.166 62.7004 153.647 63.2198C154.141 63.7264 154.768 63.9798 155.528 63.9798ZM173.148 61.1868C173.148 61.2248 173.129 61.4908 173.091 61.9848H165.358C165.497 62.6181 165.826 63.1184 166.346 63.4858C166.865 63.8531 167.511 64.0368 168.284 64.0368C168.816 64.0368 169.284 63.9608 169.69 63.8088C170.108 63.6441 170.494 63.3908 170.849 63.0488L172.426 64.7588C171.463 65.8608 170.057 66.4118 168.208 66.4118C167.055 66.4118 166.035 66.1901 165.149 65.7468C164.262 65.2908 163.578 64.6638 163.097 63.8658C162.615 63.0678 162.375 62.1621 162.375 61.1488C162.375 60.1481 162.609 59.2488 163.078 58.4508C163.559 57.6401 164.211 57.0131 165.035 56.5698C165.871 56.1138 166.802 55.8858 167.828 55.8858C168.828 55.8858 169.734 56.1011 170.545 56.5318C171.355 56.9624 171.989 57.5831 172.445 58.3938C172.913 59.1918 173.148 60.1228 173.148 61.1868ZM167.847 58.1278C167.175 58.1278 166.612 58.3178 166.156 58.6978C165.7 59.0778 165.421 59.5971 165.32 60.2558H170.355C170.253 59.6098 169.975 59.0968 169.519 58.7168C169.063 58.3241 168.505 58.1278 167.847 58.1278ZM185.268 62.3838H183.843V66.2598H180.917V62.3838H179.492L177.326 66.2598H173.83L177.041 60.9778L174.058 56.0378H177.193L179.454 60.0088H180.917V56.0378H183.843V60.0088H185.287L187.567 56.0378H190.702L187.719 60.9778L190.949 66.2598H187.434L185.268 62.3838ZM196.275 55.8858C197.859 55.8858 199.075 56.2658 199.923 57.0258C200.772 57.7731 201.196 58.9068 201.196 60.4268V66.2598H198.422V64.9868C197.865 65.9368 196.826 66.4118 195.306 66.4118C194.521 66.4118 193.837 66.2788 193.254 66.0128C192.684 65.7468 192.247 65.3794 191.943 64.9108C191.639 64.4421 191.487 63.9101 191.487 63.3148C191.487 62.3648 191.842 61.6174 192.551 61.0728C193.273 60.5281 194.382 60.2558 195.876 60.2558H198.232C198.232 59.6098 198.036 59.1158 197.643 58.7738C197.251 58.4191 196.662 58.2418 195.876 58.2418C195.332 58.2418 194.793 58.3304 194.261 58.5078C193.742 58.6724 193.299 58.9004 192.931 59.1918L191.867 57.1208C192.425 56.7281 193.09 56.4241 193.862 56.2088C194.648 55.9934 195.452 55.8858 196.275 55.8858ZM196.047 64.4168C196.554 64.4168 197.004 64.3028 197.396 64.0748C197.789 63.8341 198.068 63.4858 198.232 63.0298V61.9848H196.199C194.983 61.9848 194.375 62.3838 194.375 63.1818C194.375 63.5618 194.521 63.8658 194.812 64.0938C195.116 64.3091 195.528 64.4168 196.047 64.4168ZM223.269 61.1108C223.269 62.6941 222.737 63.9481 221.673 64.8728C220.622 65.7848 219.114 66.3104 217.151 66.4498V69.9458H214.434V66.4498C212.471 66.3104 210.957 65.7911 209.893 64.8918C208.842 63.9798 208.316 62.7194 208.316 61.1108C208.316 59.5274 208.835 58.2988 209.874 57.4248C210.925 56.5508 212.445 56.0441 214.434 55.9048V52.1618H217.151V55.9048C219.114 56.0441 220.622 56.5571 221.673 57.4438C222.737 58.3304 223.269 59.5528 223.269 61.1108ZM211.185 61.1108C211.185 62.0228 211.445 62.7258 211.964 63.2198C212.483 63.7138 213.307 64.0241 214.434 64.1508V58.2038C213.307 58.3178 212.483 58.6154 211.964 59.0968C211.445 59.5654 211.185 60.2368 211.185 61.1108ZM217.151 64.1508C218.278 64.0241 219.102 63.7138 219.621 63.2198C220.153 62.7258 220.419 62.0228 220.419 61.1108C220.419 60.2368 220.153 59.5654 219.621 59.0968C219.102 58.6154 218.278 58.3178 217.151 58.2038V64.1508ZM225.257 56.0378H228.221V66.2598H225.257V56.0378ZM226.739 54.6128C226.194 54.6128 225.751 54.4544 225.409 54.1378C225.067 53.8211 224.896 53.4284 224.896 52.9598C224.896 52.4911 225.067 52.0984 225.409 51.7818C225.751 51.4651 226.194 51.3068 226.739 51.3068C227.284 51.3068 227.727 51.4588 228.069 51.7628C228.411 52.0668 228.582 52.4468 228.582 52.9028C228.582 53.3968 228.411 53.8084 228.069 54.1378C227.727 54.4544 227.284 54.6128 226.739 54.6128ZM240.869 56.0378V66.2598H237.905V58.4698H234.675L234.58 60.2748C234.53 61.6174 234.403 62.7321 234.2 63.6188C233.998 64.5054 233.668 65.2021 233.212 65.7088C232.756 66.2154 232.123 66.4688 231.312 66.4688C230.882 66.4688 230.369 66.3928 229.773 66.2408L229.925 63.8088C230.128 63.8341 230.274 63.8468 230.362 63.8468C230.806 63.8468 231.135 63.6884 231.35 63.3718C231.578 63.0424 231.73 62.6308 231.806 62.1368C231.882 61.6301 231.939 60.9651 231.977 60.1418L232.129 56.0378H240.869ZM243.7 56.0378H246.664V66.2598H243.7V56.0378ZM245.182 54.6128C244.638 54.6128 244.194 54.4544 243.852 54.1378C243.51 53.8211 243.339 53.4284 243.339 52.9598C243.339 52.4911 243.51 52.0984 243.852 51.7818C244.194 51.4651 244.638 51.3068 245.182 51.3068C245.727 51.3068 246.17 51.4588 246.512 51.7628C246.854 52.0668 247.025 52.4468 247.025 52.9028C247.025 53.3968 246.854 53.8084 246.512 54.1378C246.17 54.4544 245.727 54.6128 245.182 54.6128ZM249.509 56.0378H252.454V62.1178L257.432 56.0378H260.149V66.2598H257.204V60.1798L252.245 66.2598H249.509V56.0378ZM254.639 54.9358C252.409 54.9358 251.288 53.9541 251.276 51.9908H253.214C253.226 52.4341 253.347 52.7824 253.575 53.0358C253.815 53.2764 254.164 53.3968 254.62 53.3968C255.076 53.3968 255.424 53.2764 255.665 53.0358C255.918 52.7824 256.045 52.4341 256.045 51.9908H258.021C258.008 53.9541 256.881 54.9358 254.639 54.9358ZM275.01 60.9398C275.618 61.1298 276.086 61.4211 276.416 61.8138C276.758 62.2064 276.929 62.6751 276.929 63.2198C276.929 63.8658 276.707 64.4358 276.264 64.9298C275.82 65.4111 275.212 65.7848 274.44 66.0508C273.667 66.3168 272.793 66.4498 271.818 66.4498C271.02 66.4498 270.234 66.3674 269.462 66.2028C268.689 66.0381 267.973 65.7911 267.315 65.4618L268.113 63.3908C269.189 63.9101 270.38 64.1698 271.685 64.1698C272.381 64.1698 272.926 64.0684 273.319 63.8658C273.724 63.6504 273.927 63.3528 273.927 62.9728C273.927 62.6434 273.787 62.3964 273.509 62.2318C273.23 62.0544 272.825 61.9658 272.293 61.9658H270.203V60.1228H272.027C272.546 60.1228 272.945 60.0404 273.224 59.8758C273.502 59.7111 273.642 59.4704 273.642 59.1538C273.642 58.8244 273.464 58.5711 273.11 58.3938C272.768 58.2164 272.274 58.1278 271.628 58.1278C270.64 58.1278 269.563 58.3621 268.398 58.8308L267.676 56.7788C269.094 56.1581 270.475 55.8478 271.818 55.8478C272.742 55.8478 273.566 55.9618 274.288 56.1898C275.022 56.4178 275.599 56.7534 276.017 57.1968C276.435 57.6274 276.644 58.1341 276.644 58.7168C276.644 59.1981 276.498 59.6351 276.207 60.0278C275.915 60.4078 275.516 60.7118 275.01 60.9398ZM283.056 55.8858C284.639 55.8858 285.855 56.2658 286.704 57.0258C287.552 57.7731 287.977 58.9068 287.977 60.4268V66.2598H285.203V64.9868C284.645 65.9368 283.607 66.4118 282.087 66.4118C281.301 66.4118 280.617 66.2788 280.035 66.0128C279.465 65.7468 279.028 65.3794 278.724 64.9108C278.42 64.4421 278.268 63.9101 278.268 63.3148C278.268 62.3648 278.622 61.6174 279.332 61.0728C280.054 60.5281 281.162 60.2558 282.657 60.2558H285.013C285.013 59.6098 284.816 59.1158 284.424 58.7738C284.031 58.4191 283.442 58.2418 282.657 58.2418C282.112 58.2418 281.574 58.3304 281.042 58.5078C280.522 58.6724 280.079 58.9004 279.712 59.1918L278.648 57.1208C279.205 56.7281 279.87 56.4241 280.643 56.2088C281.428 55.9934 282.232 55.8858 283.056 55.8858ZM282.828 64.4168C283.334 64.4168 283.784 64.3028 284.177 64.0748C284.569 63.8341 284.848 63.4858 285.013 63.0298V61.9848H282.98C281.764 61.9848 281.156 62.3838 281.156 63.1818C281.156 63.5618 281.301 63.8658 281.593 64.0938C281.897 64.3091 282.308 64.4168 282.828 64.4168ZM300.435 62.3838H298.896V66.2598H295.932V56.0378H298.896V60.0088H300.492L303.266 56.0378H306.42L302.848 60.9398L306.667 66.2598H303.171L300.435 62.3838ZM312.595 66.4118C311.519 66.4118 310.55 66.1901 309.688 65.7468C308.84 65.2908 308.175 64.6638 307.693 63.8658C307.212 63.0678 306.971 62.1621 306.971 61.1488C306.971 60.1354 307.212 59.2298 307.693 58.4318C308.175 57.6338 308.84 57.0131 309.688 56.5698C310.55 56.1138 311.519 55.8858 312.595 55.8858C313.672 55.8858 314.635 56.1138 315.483 56.5698C316.332 57.0131 316.997 57.6338 317.478 58.4318C317.96 59.2298 318.2 60.1354 318.2 61.1488C318.2 62.1621 317.96 63.0678 317.478 63.8658C316.997 64.6638 316.332 65.2908 315.483 65.7468C314.635 66.1901 313.672 66.4118 312.595 66.4118ZM312.595 63.9798C313.355 63.9798 313.976 63.7264 314.457 63.2198C314.951 62.7004 315.198 62.0101 315.198 61.1488C315.198 60.2874 314.951 59.6034 314.457 59.0968C313.976 58.5774 313.355 58.3178 312.595 58.3178C311.835 58.3178 311.208 58.5774 310.714 59.0968C310.22 59.6034 309.973 60.2874 309.973 61.1488C309.973 62.0101 310.22 62.7004 310.714 63.2198C311.208 63.7264 311.835 63.9798 312.595 63.9798ZM326.262 55.8858C327.212 55.8858 328.073 56.1074 328.846 56.5508C329.631 56.9814 330.246 57.5958 330.689 58.3938C331.132 59.1791 331.354 60.0974 331.354 61.1488C331.354 62.2001 331.132 63.1248 330.689 63.9228C330.246 64.7081 329.631 65.3224 328.846 65.7658C328.073 66.1964 327.212 66.4118 326.262 66.4118C324.957 66.4118 323.931 66.0001 323.184 65.1768V69.9458H320.22V56.0378H323.051V57.2158C323.786 56.3291 324.856 55.8858 326.262 55.8858ZM325.749 63.9798C326.509 63.9798 327.13 63.7264 327.611 63.2198C328.105 62.7004 328.352 62.0101 328.352 61.1488C328.352 60.2874 328.105 59.6034 327.611 59.0968C327.13 58.5774 326.509 58.3178 325.749 58.3178C324.989 58.3178 324.362 58.5774 323.868 59.0968C323.387 59.6034 323.146 60.2874 323.146 61.1488C323.146 62.0101 323.387 62.7004 323.868 63.2198C324.362 63.7264 324.989 63.9798 325.749 63.9798ZM344.74 63.8278V68.4638H341.985V66.2598H334.803V68.4638H332.048V63.8278H332.466C333.099 63.8151 333.536 63.4414 333.777 62.7068C334.018 61.9721 334.17 60.9271 334.233 59.5718L334.366 56.0378H343.277V63.8278H344.74ZM336.912 59.7808C336.874 60.8194 336.792 61.6681 336.665 62.3268C336.551 62.9854 336.329 63.4858 336 63.8278H340.313V58.4698H336.969L336.912 59.7808ZM351.393 66.4118C350.317 66.4118 349.348 66.1901 348.486 65.7468C347.638 65.2908 346.973 64.6638 346.491 63.8658C346.01 63.0678 345.769 62.1621 345.769 61.1488C345.769 60.1354 346.01 59.2298 346.491 58.4318C346.973 57.6338 347.638 57.0131 348.486 56.5698C349.348 56.1138 350.317 55.8858 351.393 55.8858C352.47 55.8858 353.433 56.1138 354.281 56.5698C355.13 57.0131 355.795 57.6338 356.276 58.4318C356.758 59.2298 356.998 60.1354 356.998 61.1488C356.998 62.1621 356.758 63.0678 356.276 63.8658C355.795 64.6638 355.13 65.2908 354.281 65.7468C353.433 66.1901 352.47 66.4118 351.393 66.4118ZM351.393 63.9798C352.153 63.9798 352.774 63.7264 353.255 63.2198C353.749 62.7004 353.996 62.0101 353.996 61.1488C353.996 60.2874 353.749 59.6034 353.255 59.0968C352.774 58.5774 352.153 58.3178 351.393 58.3178C350.633 58.3178 350.006 58.5774 349.512 59.0968C349.018 59.6034 348.771 60.2874 348.771 61.1488C348.771 62.0101 349.018 62.7004 349.512 63.2198C350.006 63.7264 350.633 63.9798 351.393 63.9798ZM359.037 56.0378H361.982V60.0278H366.428V56.0378H369.392V66.2598H366.428V62.4408H361.982V66.2598H359.037V56.0378ZM377.017 66.4118C375.941 66.4118 374.972 66.1901 374.11 65.7468C373.262 65.2908 372.597 64.6638 372.115 63.8658C371.634 63.0678 371.393 62.1621 371.393 61.1488C371.393 60.1354 371.634 59.2298 372.115 58.4318C372.597 57.6338 373.262 57.0131 374.11 56.5698C374.972 56.1138 375.941 55.8858 377.017 55.8858C378.094 55.8858 379.057 56.1138 379.905 56.5698C380.754 57.0131 381.419 57.6338 381.9 58.4318C382.382 59.2298 382.622 60.1354 382.622 61.1488C382.622 62.1621 382.382 63.0678 381.9 63.8658C381.419 64.6638 380.754 65.2908 379.905 65.7468C379.057 66.1901 378.094 66.4118 377.017 66.4118ZM377.017 63.9798C377.777 63.9798 378.398 63.7264 378.879 63.2198C379.373 62.7004 379.62 62.0101 379.62 61.1488C379.62 60.2874 379.373 59.6034 378.879 59.0968C378.398 58.5774 377.777 58.3178 377.017 58.3178C376.257 58.3178 375.63 58.5774 375.136 59.0968C374.642 59.6034 374.395 60.2874 374.395 61.1488C374.395 62.0101 374.642 62.7004 375.136 63.2198C375.63 63.7264 376.257 63.9798 377.017 63.9798ZM394.636 66.2598V60.1418L391.577 65.2718H390.323L387.34 60.1228V66.2598H384.661V56.0378H387.758L391.026 61.9468L394.503 56.0378H397.277L397.315 66.2598H394.636Z" fill="white"/>
<defs>
<clipPath id="clip0_207:57">
<rect width="63.2402" height="63.3018" fill="white" transform="translate(25.0456 25.0693)"/>
</clipPath>
</defs>
</svg>
