<svg width="542" height="114" viewBox="0 0 542 114" fill="none" xmlns="http://www.w3.org/2000/svg">
<rect x="27.7302" y="14.2852" width="514.27" height="85.7116" fill="#3E4671"/>
<path d="M115.405 56.7209C115.405 86.8783 90.0837 111.442 58.7025 111.442C27.3213 111.442 2 86.8783 2 56.7209C2 26.5636 27.3213 2 58.7025 2C90.0837 2 115.405 26.5636 115.405 56.7209Z" fill="white" stroke="#3E4671" stroke-width="4"/>
<g clip-path="url(#clip0_207:35)">
<path d="M90.1059 63.5784C90.1059 65.161 86.9677 66.216 83.3065 66.7435C80.9529 62.2596 76.2456 58.8308 70.7538 56.457C71.2769 55.6657 71.7999 55.1382 72.3229 54.3469H74.415C82.522 54.0831 90.1059 59.0945 90.1059 63.5784V63.5784ZM45.1255 54.0831H43.0334C34.9264 54.0831 27.3425 59.0945 27.3425 63.5784C27.3425 65.161 30.4807 66.216 34.1419 66.7435C36.4955 62.2596 41.2028 58.8308 46.6946 56.457L45.1255 54.0831V54.0831ZM58.7242 56.7207C64.4775 56.7207 69.1848 51.9731 69.1848 46.1704C69.1848 40.3678 64.4775 35.6201 58.7242 35.6201C52.9709 35.6201 48.2636 40.3678 48.2636 46.1704C48.2636 51.9731 52.9709 56.7207 58.7242 56.7207ZM58.7242 59.3583C48.0021 59.3583 37.8031 66.216 37.8031 72.5462C37.8031 77.8213 58.7242 77.8213 58.7242 77.8213C58.7242 77.8213 79.6453 77.8213 79.6453 72.5462C79.6453 66.216 69.4463 59.3583 58.7242 59.3583ZM73.6305 51.4456H74.415C78.8608 51.4456 82.2605 48.0167 82.2605 43.5328C82.2605 39.049 78.8608 35.6201 74.415 35.6201C73.1075 35.6201 72.0614 35.8839 71.0154 36.4114C73.1075 39.049 74.415 42.4778 74.415 46.1704C74.415 48.0167 74.1535 49.863 73.6305 51.4456ZM43.0334 51.4456H43.8179C43.2949 49.863 43.0334 48.0167 43.0334 46.1704C43.0334 42.4778 44.3409 39.049 46.433 36.4114C45.387 35.8839 44.3409 35.6201 43.0334 35.6201C38.5876 35.6201 35.1879 39.049 35.1879 43.5328C35.1879 48.0167 38.5876 51.4456 43.0334 51.4456Z" fill="#3E4671"/>
</g>
<path d="M129.255 41.0516C130.433 41.0516 131.452 41.2479 132.314 41.6406C133.188 42.0332 133.859 42.5906 134.328 43.3126C134.796 44.0346 135.031 44.8896 135.031 45.8776C135.031 46.8529 134.796 47.7079 134.328 48.4426C133.859 49.1646 133.188 49.7219 132.314 50.1146C131.452 50.4946 130.433 50.6846 129.255 50.6846H126.576V54.3516H123.498V41.0516H129.255ZM129.084 48.1766C130.008 48.1766 130.711 47.9802 131.193 47.5876C131.674 47.1822 131.915 46.6122 131.915 45.8776C131.915 45.1302 131.674 44.5602 131.193 44.1676C130.711 43.7622 130.008 43.5596 129.084 43.5596H126.576V48.1766H129.084ZM147.013 49.2786C147.013 49.3166 146.994 49.5826 146.956 50.0766H139.223C139.363 50.7099 139.692 51.2102 140.211 51.5776C140.731 51.9449 141.377 52.1286 142.149 52.1286C142.681 52.1286 143.15 52.0526 143.555 51.9006C143.973 51.7359 144.36 51.4826 144.714 51.1406L146.291 52.8506C145.329 53.9526 143.923 54.5036 142.073 54.5036C140.921 54.5036 139.901 54.2819 139.014 53.8386C138.128 53.3826 137.444 52.7556 136.962 51.9576C136.481 51.1596 136.24 50.2539 136.24 49.2406C136.24 48.2399 136.475 47.3406 136.943 46.5426C137.425 45.7319 138.077 45.1049 138.9 44.6616C139.736 44.2056 140.667 43.9776 141.693 43.9776C142.694 43.9776 143.6 44.1929 144.41 44.6236C145.221 45.0542 145.854 45.6749 146.31 46.4856C146.779 47.2836 147.013 48.2146 147.013 49.2786ZM141.712 46.2196C141.041 46.2196 140.477 46.4096 140.021 46.7896C139.565 47.1696 139.287 47.6889 139.185 48.3476H144.22C144.119 47.7016 143.84 47.1886 143.384 46.8086C142.928 46.4159 142.371 46.2196 141.712 46.2196ZM151.818 45.4786C152.172 44.9846 152.647 44.6109 153.243 44.3576C153.851 44.1042 154.547 43.9776 155.333 43.9776V46.7136C155.003 46.6882 154.782 46.6756 154.668 46.6756C153.819 46.6756 153.154 46.9162 152.673 47.3976C152.191 47.8662 151.951 48.5756 151.951 49.5256V54.3516H148.987V44.1296H151.818V45.4786ZM160.571 54.5036C159.723 54.5036 158.893 54.4022 158.082 54.1996C157.272 53.9842 156.626 53.7182 156.144 53.4016L157.132 51.2736C157.588 51.5649 158.139 51.8056 158.785 51.9956C159.431 52.1729 160.065 52.2616 160.685 52.2616C161.939 52.2616 162.566 51.9512 162.566 51.3306C162.566 51.0392 162.395 50.8302 162.053 50.7036C161.711 50.5769 161.186 50.4692 160.476 50.3806C159.64 50.2539 158.95 50.1082 158.405 49.9436C157.861 49.7789 157.386 49.4876 156.98 49.0696C156.588 48.6516 156.391 48.0562 156.391 47.2836C156.391 46.6376 156.575 46.0676 156.942 45.5736C157.322 45.0669 157.867 44.6742 158.576 44.3956C159.298 44.1169 160.147 43.9776 161.122 43.9776C161.844 43.9776 162.56 44.0599 163.269 44.2246C163.991 44.3766 164.587 44.5919 165.055 44.8706L164.067 46.9796C163.168 46.4729 162.186 46.2196 161.122 46.2196C160.489 46.2196 160.014 46.3082 159.697 46.4856C159.381 46.6629 159.222 46.8909 159.222 47.1696C159.222 47.4862 159.393 47.7079 159.735 47.8346C160.077 47.9612 160.622 48.0816 161.369 48.1956C162.205 48.3349 162.889 48.4869 163.421 48.6516C163.953 48.8036 164.416 49.0886 164.808 49.5066C165.201 49.9246 165.397 50.5072 165.397 51.2546C165.397 51.8879 165.207 52.4516 164.827 52.9456C164.447 53.4396 163.89 53.8259 163.155 54.1046C162.433 54.3706 161.572 54.5036 160.571 54.5036ZM172.09 54.5036C171.013 54.5036 170.044 54.2819 169.183 53.8386C168.334 53.3826 167.669 52.7556 167.188 51.9576C166.707 51.1596 166.466 50.2539 166.466 49.2406C166.466 48.2272 166.707 47.3216 167.188 46.5236C167.669 45.7256 168.334 45.1049 169.183 44.6616C170.044 44.2056 171.013 43.9776 172.09 43.9776C173.167 43.9776 174.129 44.2056 174.978 44.6616C175.827 45.1049 176.492 45.7256 176.973 46.5236C177.454 47.3216 177.695 48.2272 177.695 49.2406C177.695 50.2539 177.454 51.1596 176.973 51.9576C176.492 52.7556 175.827 53.3826 174.978 53.8386C174.129 54.2819 173.167 54.5036 172.09 54.5036ZM172.09 52.0716C172.85 52.0716 173.471 51.8182 173.952 51.3116C174.446 50.7922 174.693 50.1019 174.693 49.2406C174.693 48.3792 174.446 47.6952 173.952 47.1886C173.471 46.6692 172.85 46.4096 172.09 46.4096C171.33 46.4096 170.703 46.6692 170.209 47.1886C169.715 47.6952 169.468 48.3792 169.468 49.2406C169.468 50.1019 169.715 50.7922 170.209 51.3116C170.703 51.8182 171.33 52.0716 172.09 52.0716ZM185.889 43.9776C187.156 43.9776 188.176 44.3576 188.948 45.1176C189.734 45.8776 190.126 47.0049 190.126 48.4996V54.3516H187.162V48.9556C187.162 48.1449 186.985 47.5432 186.63 47.1506C186.276 46.7452 185.763 46.5426 185.091 46.5426C184.344 46.5426 183.749 46.7769 183.305 47.2456C182.862 47.7016 182.64 48.3856 182.64 49.2976V54.3516H179.676V44.1296H182.507V45.3266C182.9 44.8959 183.388 44.5666 183.97 44.3386C184.553 44.0979 185.193 43.9776 185.889 43.9776ZM196.936 43.9776C198.519 43.9776 199.735 44.3576 200.584 45.1176C201.433 45.8649 201.857 46.9986 201.857 48.5186V54.3516H199.083V53.0786C198.526 54.0286 197.487 54.5036 195.967 54.5036C195.182 54.5036 194.498 54.3706 193.915 54.1046C193.345 53.8386 192.908 53.4712 192.604 53.0026C192.3 52.5339 192.148 52.0019 192.148 51.4066C192.148 50.4566 192.503 49.7092 193.212 49.1646C193.934 48.6199 195.042 48.3476 196.537 48.3476H198.893C198.893 47.7016 198.697 47.2076 198.304 46.8656C197.911 46.5109 197.322 46.3336 196.537 46.3336C195.992 46.3336 195.454 46.4222 194.922 46.5996C194.403 46.7642 193.959 46.9922 193.592 47.2836L192.528 45.2126C193.085 44.8199 193.75 44.5159 194.523 44.3006C195.308 44.0852 196.113 43.9776 196.936 43.9776ZM196.708 52.5086C197.215 52.5086 197.664 52.3946 198.057 52.1666C198.45 51.9259 198.728 51.5776 198.893 51.1216V50.0766H196.86C195.644 50.0766 195.036 50.4756 195.036 51.2736C195.036 51.6536 195.182 51.9576 195.473 52.1856C195.777 52.4009 196.189 52.5086 196.708 52.5086ZM204.54 40.2536H207.504V54.3516H204.54V40.2536ZM228.726 43.9776C230.006 43.9776 231.019 44.3576 231.766 45.1176C232.526 45.8649 232.906 46.9922 232.906 48.4996V54.3516H229.942V48.9556C229.942 48.1449 229.771 47.5432 229.429 47.1506C229.1 46.7452 228.625 46.5426 228.004 46.5426C227.308 46.5426 226.757 46.7706 226.351 47.2266C225.946 47.6699 225.743 48.3349 225.743 49.2216V54.3516H222.779V48.9556C222.779 47.3469 222.133 46.5426 220.841 46.5426C220.157 46.5426 219.613 46.7706 219.207 47.2266C218.802 47.6699 218.599 48.3349 218.599 49.2216V54.3516H215.635V44.1296H218.466V45.3076C218.846 44.8769 219.309 44.5476 219.853 44.3196C220.411 44.0916 221.019 43.9776 221.677 43.9776C222.399 43.9776 223.052 44.1232 223.634 44.4146C224.217 44.6932 224.686 45.1049 225.04 45.6496C225.458 45.1176 225.984 44.7059 226.617 44.4146C227.263 44.1232 227.966 43.9776 228.726 43.9776ZM239.686 43.9776C241.269 43.9776 242.485 44.3576 243.334 45.1176C244.183 45.8649 244.607 46.9986 244.607 48.5186V54.3516H241.833V53.0786C241.276 54.0286 240.237 54.5036 238.717 54.5036C237.932 54.5036 237.248 54.3706 236.665 54.1046C236.095 53.8386 235.658 53.4712 235.354 53.0026C235.05 52.5339 234.898 52.0019 234.898 51.4066C234.898 50.4566 235.253 49.7092 235.962 49.1646C236.684 48.6199 237.792 48.3476 239.287 48.3476H241.643C241.643 47.7016 241.447 47.2076 241.054 46.8656C240.661 46.5109 240.072 46.3336 239.287 46.3336C238.742 46.3336 238.204 46.4222 237.672 46.5996C237.153 46.7642 236.709 46.9922 236.342 47.2836L235.278 45.2126C235.835 44.8199 236.5 44.5159 237.273 44.3006C238.058 44.0852 238.863 43.9776 239.686 43.9776ZM239.458 52.5086C239.965 52.5086 240.414 52.3946 240.807 52.1666C241.2 51.9259 241.478 51.5776 241.643 51.1216V50.0766H239.61C238.394 50.0766 237.786 50.4756 237.786 51.2736C237.786 51.6536 237.932 51.9576 238.223 52.1856C238.527 52.4009 238.939 52.5086 239.458 52.5086ZM253.503 43.9776C254.769 43.9776 255.789 44.3576 256.562 45.1176C257.347 45.8776 257.74 47.0049 257.74 48.4996V54.3516H254.776V48.9556C254.776 48.1449 254.598 47.5432 254.244 47.1506C253.889 46.7452 253.376 46.5426 252.705 46.5426C251.957 46.5426 251.362 46.7769 250.919 47.2456C250.475 47.7016 250.254 48.3856 250.254 49.2976V54.3516H247.29V44.1296H250.121V45.3266C250.513 44.8959 251.001 44.5666 251.584 44.3386C252.166 44.0979 252.806 43.9776 253.503 43.9776ZM264.549 43.9776C266.133 43.9776 267.349 44.3576 268.197 45.1176C269.046 45.8649 269.47 46.9986 269.47 48.5186V54.3516H266.696V53.0786C266.139 54.0286 265.1 54.5036 263.58 54.5036C262.795 54.5036 262.111 54.3706 261.528 54.1046C260.958 53.8386 260.521 53.4712 260.217 53.0026C259.913 52.5339 259.761 52.0019 259.761 51.4066C259.761 50.4566 260.116 49.7092 260.825 49.1646C261.547 48.6199 262.656 48.3476 264.15 48.3476H266.506C266.506 47.7016 266.31 47.2076 265.917 46.8656C265.525 46.5109 264.936 46.3336 264.15 46.3336C263.606 46.3336 263.067 46.4222 262.535 46.5996C262.016 46.7642 261.573 46.9922 261.205 47.2836L260.141 45.2126C260.699 44.8199 261.364 44.5159 262.136 44.3006C262.922 44.0852 263.726 43.9776 264.549 43.9776ZM264.321 52.5086C264.828 52.5086 265.278 52.3946 265.67 52.1666C266.063 51.9259 266.342 51.5776 266.506 51.1216V50.0766H264.473C263.257 50.0766 262.649 50.4756 262.649 51.2736C262.649 51.6536 262.795 51.9576 263.086 52.1856C263.39 52.4009 263.802 52.5086 264.321 52.5086ZM282.809 44.1296V52.6416C282.809 54.5162 282.321 55.9096 281.346 56.8216C280.371 57.7336 278.946 58.1896 277.071 58.1896C276.083 58.1896 275.146 58.0692 274.259 57.8286C273.372 57.5879 272.638 57.2396 272.055 56.7836L273.233 54.6556C273.664 55.0102 274.208 55.2889 274.867 55.4916C275.526 55.7069 276.184 55.8146 276.843 55.8146C277.869 55.8146 278.623 55.5802 279.104 55.1116C279.598 54.6556 279.845 53.9589 279.845 53.0216V52.5846C279.072 53.4332 277.996 53.8576 276.615 53.8576C275.678 53.8576 274.816 53.6549 274.031 53.2496C273.258 52.8316 272.644 52.2489 272.188 51.5016C271.732 50.7542 271.504 49.8929 271.504 48.9176C271.504 47.9422 271.732 47.0809 272.188 46.3336C272.644 45.5862 273.258 45.0099 274.031 44.6046C274.816 44.1866 275.678 43.9776 276.615 43.9776C278.097 43.9776 279.224 44.4652 279.997 45.4406V44.1296H282.809ZM277.204 51.4256C277.989 51.4256 278.629 51.1976 279.123 50.7416C279.63 50.2729 279.883 49.6649 279.883 48.9176C279.883 48.1702 279.63 47.5686 279.123 47.1126C278.629 46.6439 277.989 46.4096 277.204 46.4096C276.419 46.4096 275.773 46.6439 275.266 47.1126C274.759 47.5686 274.506 48.1702 274.506 48.9176C274.506 49.6649 274.759 50.2729 275.266 50.7416C275.773 51.1976 276.419 51.4256 277.204 51.4256ZM295.581 49.2786C295.581 49.3166 295.562 49.5826 295.524 50.0766H287.791C287.93 50.7099 288.259 51.2102 288.779 51.5776C289.298 51.9449 289.944 52.1286 290.717 52.1286C291.249 52.1286 291.717 52.0526 292.123 51.9006C292.541 51.7359 292.927 51.4826 293.282 51.1406L294.859 52.8506C293.896 53.9526 292.49 54.5036 290.641 54.5036C289.488 54.5036 288.468 54.2819 287.582 53.8386C286.695 53.3826 286.011 52.7556 285.53 51.9576C285.048 51.1596 284.808 50.2539 284.808 49.2406C284.808 48.2399 285.042 47.3406 285.511 46.5426C285.992 45.7319 286.644 45.1049 287.468 44.6616C288.304 44.2056 289.235 43.9776 290.261 43.9776C291.261 43.9776 292.167 44.1929 292.978 44.6236C293.788 45.0542 294.422 45.6749 294.878 46.4856C295.346 47.2836 295.581 48.2146 295.581 49.2786ZM290.28 46.2196C289.608 46.2196 289.045 46.4096 288.589 46.7896C288.133 47.1696 287.854 47.6889 287.753 48.3476H292.788C292.686 47.7016 292.408 47.1886 291.952 46.8086C291.496 46.4159 290.938 46.2196 290.28 46.2196ZM300.385 45.4786C300.74 44.9846 301.215 44.6109 301.81 44.3576C302.418 44.1042 303.115 43.9776 303.9 43.9776V46.7136C303.571 46.6882 303.349 46.6756 303.235 46.6756C302.386 46.6756 301.721 46.9162 301.24 47.3976C300.759 47.8662 300.518 48.5756 300.518 49.5256V54.3516H297.554V44.1296H300.385V45.4786ZM314.367 44.3576H316.989V46.6376H314.443V54.3516H311.479V46.6376H309.902V44.3576H311.479V43.9016C311.479 42.7362 311.821 41.8116 312.505 41.1276C313.201 40.4436 314.177 40.1016 315.431 40.1016C315.874 40.1016 316.292 40.1522 316.685 40.2536C317.09 40.3422 317.426 40.4752 317.692 40.6526L316.913 42.7996C316.571 42.5589 316.172 42.4386 315.716 42.4386C314.816 42.4386 314.367 42.9326 314.367 43.9206V44.3576ZM323.199 54.5036C322.123 54.5036 321.154 54.2819 320.292 53.8386C319.444 53.3826 318.779 52.7556 318.297 51.9576C317.816 51.1596 317.575 50.2539 317.575 49.2406C317.575 48.2272 317.816 47.3216 318.297 46.5236C318.779 45.7256 319.444 45.1049 320.292 44.6616C321.154 44.2056 322.123 43.9776 323.199 43.9776C324.276 43.9776 325.239 44.2056 326.087 44.6616C326.936 45.1049 327.601 45.7256 328.082 46.5236C328.564 47.3216 328.804 48.2272 328.804 49.2406C328.804 50.2539 328.564 51.1596 328.082 51.9576C327.601 52.7556 326.936 53.3826 326.087 53.8386C325.239 54.2819 324.276 54.5036 323.199 54.5036ZM323.199 52.0716C323.959 52.0716 324.58 51.8182 325.061 51.3116C325.555 50.7922 325.802 50.1019 325.802 49.2406C325.802 48.3792 325.555 47.6952 325.061 47.1886C324.58 46.6692 323.959 46.4096 323.199 46.4096C322.439 46.4096 321.812 46.6692 321.318 47.1886C320.824 47.6952 320.577 48.3792 320.577 49.2406C320.577 50.1019 320.824 50.7922 321.318 51.3116C321.812 51.8182 322.439 52.0716 323.199 52.0716ZM333.617 45.4786C333.971 44.9846 334.446 44.6109 335.042 44.3576C335.65 44.1042 336.346 43.9776 337.132 43.9776V46.7136C336.802 46.6882 336.581 46.6756 336.467 46.6756C335.618 46.6756 334.953 46.9162 334.472 47.3976C333.99 47.8662 333.75 48.5756 333.75 49.5256V54.3516H330.786V44.1296H333.617V45.4786ZM354.362 49.2786C354.362 49.3166 354.343 49.5826 354.305 50.0766H346.572C346.711 50.7099 347.041 51.2102 347.56 51.5776C348.079 51.9449 348.725 52.1286 349.498 52.1286C350.03 52.1286 350.499 52.0526 350.904 51.9006C351.322 51.7359 351.708 51.4826 352.063 51.1406L353.64 52.8506C352.677 53.9526 351.271 54.5036 349.422 54.5036C348.269 54.5036 347.25 54.2819 346.363 53.8386C345.476 53.3826 344.792 52.7556 344.311 51.9576C343.83 51.1596 343.589 50.2539 343.589 49.2406C343.589 48.2399 343.823 47.3406 344.292 46.5426C344.773 45.7319 345.426 45.1049 346.249 44.6616C347.085 44.2056 348.016 43.9776 349.042 43.9776C350.043 43.9776 350.948 44.1929 351.759 44.6236C352.57 45.0542 353.203 45.6749 353.659 46.4856C354.128 47.2836 354.362 48.2146 354.362 49.2786ZM349.061 46.2196C348.39 46.2196 347.826 46.4096 347.37 46.7896C346.914 47.1696 346.635 47.6889 346.534 48.3476H351.569C351.468 47.7016 351.189 47.1886 350.733 46.8086C350.277 46.4159 349.72 46.2196 349.061 46.2196ZM360.18 43.9776C361.763 43.9776 362.979 44.3576 363.828 45.1176C364.677 45.8649 365.101 46.9986 365.101 48.5186V54.3516H362.327V53.0786C361.77 54.0286 360.731 54.5036 359.211 54.5036C358.426 54.5036 357.742 54.3706 357.159 54.1046C356.589 53.8386 356.152 53.4712 355.848 53.0026C355.544 52.5339 355.392 52.0019 355.392 51.4066C355.392 50.4566 355.747 49.7092 356.456 49.1646C357.178 48.6199 358.286 48.3476 359.781 48.3476H362.137C362.137 47.7016 361.941 47.2076 361.548 46.8656C361.155 46.5109 360.566 46.3336 359.781 46.3336C359.236 46.3336 358.698 46.4222 358.166 46.5996C357.647 46.7642 357.203 46.9922 356.836 47.2836L355.772 45.2126C356.329 44.8199 356.994 44.5159 357.767 44.3006C358.552 44.0852 359.357 43.9776 360.18 43.9776ZM359.952 52.5086C360.459 52.5086 360.908 52.3946 361.301 52.1666C361.694 51.9259 361.972 51.5776 362.137 51.1216V50.0766H360.104C358.888 50.0766 358.28 50.4756 358.28 51.2736C358.28 51.6536 358.426 51.9576 358.717 52.1856C359.021 52.4009 359.433 52.5086 359.952 52.5086ZM372.835 54.5036C371.746 54.5036 370.764 54.2819 369.89 53.8386C369.029 53.3826 368.351 52.7556 367.857 51.9576C367.376 51.1596 367.135 50.2539 367.135 49.2406C367.135 48.2272 367.376 47.3216 367.857 46.5236C368.351 45.7256 369.029 45.1049 369.89 44.6616C370.764 44.2056 371.746 43.9776 372.835 43.9776C373.912 43.9776 374.849 44.2056 375.647 44.6616C376.458 45.1049 377.047 45.7446 377.414 46.5806L375.115 47.8156C374.583 46.8782 373.817 46.4096 372.816 46.4096C372.043 46.4096 371.404 46.6629 370.897 47.1696C370.39 47.6762 370.137 48.3666 370.137 49.2406C370.137 50.1146 370.39 50.8049 370.897 51.3116C371.404 51.8182 372.043 52.0716 372.816 52.0716C373.829 52.0716 374.596 51.6029 375.115 50.6656L377.414 51.9196C377.047 52.7302 376.458 53.3636 375.647 53.8196C374.849 54.2756 373.912 54.5036 372.835 54.5036ZM385.259 43.9776C386.526 43.9776 387.546 44.3576 388.318 45.1176C389.104 45.8776 389.496 47.0049 389.496 48.4996V54.3516H386.532V48.9556C386.532 48.1449 386.355 47.5432 386 47.1506C385.646 46.7452 385.133 46.5426 384.461 46.5426C383.714 46.5426 383.119 46.7769 382.675 47.2456C382.232 47.7016 382.01 48.3856 382.01 49.2976V54.3516H379.046V40.2536H382.01V45.1936C382.403 44.8009 382.878 44.5032 383.435 44.3006C383.993 44.0852 384.601 43.9776 385.259 43.9776ZM402.504 54.5036C401.415 54.5036 400.433 54.2819 399.559 53.8386C398.698 53.3826 398.02 52.7556 397.526 51.9576C397.045 51.1596 396.804 50.2539 396.804 49.2406C396.804 48.2272 397.045 47.3216 397.526 46.5236C398.02 45.7256 398.698 45.1049 399.559 44.6616C400.433 44.2056 401.415 43.9776 402.504 43.9776C403.581 43.9776 404.518 44.2056 405.316 44.6616C406.127 45.1049 406.716 45.7446 407.083 46.5806L404.784 47.8156C404.252 46.8782 403.486 46.4096 402.485 46.4096C401.712 46.4096 401.073 46.6629 400.566 47.1696C400.059 47.6762 399.806 48.3666 399.806 49.2406C399.806 50.1146 400.059 50.8049 400.566 51.3116C401.073 51.8182 401.712 52.0716 402.485 52.0716C403.498 52.0716 404.265 51.6029 404.784 50.6656L407.083 51.9196C406.716 52.7302 406.127 53.3636 405.316 53.8196C404.518 54.2756 403.581 54.5036 402.504 54.5036ZM408.715 40.2536H411.679V54.3516H408.715V40.2536ZM414.43 44.1296H417.394V54.3516H414.43V44.1296ZM415.912 42.7046C415.367 42.7046 414.924 42.5462 414.582 42.2296C414.24 41.9129 414.069 41.5202 414.069 41.0516C414.069 40.5829 414.24 40.1902 414.582 39.8736C414.924 39.5569 415.367 39.3986 415.912 39.3986C416.457 39.3986 416.9 39.5506 417.242 39.8546C417.584 40.1586 417.755 40.5386 417.755 40.9946C417.755 41.4886 417.584 41.9002 417.242 42.2296C416.9 42.5462 416.457 42.7046 415.912 42.7046ZM430.158 49.2786C430.158 49.3166 430.139 49.5826 430.101 50.0766H422.368C422.507 50.7099 422.837 51.2102 423.356 51.5776C423.875 51.9449 424.521 52.1286 425.294 52.1286C425.826 52.1286 426.295 52.0526 426.7 51.9006C427.118 51.7359 427.504 51.4826 427.859 51.1406L429.436 52.8506C428.473 53.9526 427.067 54.5036 425.218 54.5036C424.065 54.5036 423.046 54.2819 422.159 53.8386C421.272 53.3826 420.588 52.7556 420.107 51.9576C419.626 51.1596 419.385 50.2539 419.385 49.2406C419.385 48.2399 419.619 47.3406 420.088 46.5426C420.569 45.7319 421.222 45.1049 422.045 44.6616C422.881 44.2056 423.812 43.9776 424.838 43.9776C425.839 43.9776 426.744 44.1929 427.555 44.6236C428.366 45.0542 428.999 45.6749 429.455 46.4856C429.924 47.2836 430.158 48.2146 430.158 49.2786ZM424.857 46.2196C424.186 46.2196 423.622 46.4096 423.166 46.7896C422.71 47.1696 422.431 47.6889 422.33 48.3476H427.365C427.264 47.7016 426.985 47.1886 426.529 46.8086C426.073 46.4159 425.516 46.2196 424.857 46.2196ZM438.344 43.9776C439.611 43.9776 440.631 44.3576 441.403 45.1176C442.189 45.8776 442.581 47.0049 442.581 48.4996V54.3516H439.617V48.9556C439.617 48.1449 439.44 47.5432 439.085 47.1506C438.731 46.7452 438.218 46.5426 437.546 46.5426C436.799 46.5426 436.204 46.7769 435.76 47.2456C435.317 47.7016 435.095 48.3856 435.095 49.2976V54.3516H432.131V44.1296H434.962V45.3266C435.355 44.8959 435.843 44.5666 436.425 44.3386C437.008 44.0979 437.648 43.9776 438.344 43.9776ZM451.861 53.8576C451.57 54.0729 451.209 54.2376 450.778 54.3516C450.36 54.4529 449.917 54.5036 449.448 54.5036C448.232 54.5036 447.288 54.1932 446.617 53.5726C445.958 52.9519 445.629 52.0399 445.629 50.8366V46.6376H444.052V44.3576H445.629V41.8686H448.593V44.3576H451.139V46.6376H448.593V50.7986C448.593 51.2292 448.701 51.5649 448.916 51.8056C449.144 52.0336 449.461 52.1476 449.866 52.1476C450.335 52.1476 450.734 52.0209 451.063 51.7676L451.861 53.8576Z" fill="white"/>
<defs>
<clipPath id="clip0_207:35">
<rect width="62.7633" height="63.3018" fill="white" transform="translate(27.3425 25.0693)"/>
</clipPath>
</defs>
</svg>
