<svg width="542" height="114" viewBox="0 0 542 114" fill="none" xmlns="http://www.w3.org/2000/svg">
<rect x="27.3425" y="14.415" width="514.535" height="85.2381" fill="#3E4671"/>
<path d="M115.405 56.7209C115.405 86.8783 90.0837 111.442 58.7025 111.442C27.3213 111.442 2 86.8783 2 56.7209C2 26.5636 27.3213 2 58.7025 2C90.0837 2 115.405 26.5636 115.405 56.7209Z" fill="white" stroke="#3E4671" stroke-width="4"/>
<g clip-path="url(#clip0_207:9)">
<path d="M82.8121 66.9286C82.9165 66.7244 82.9705 66.4994 82.9698 66.2714C82.969 66.0434 82.9137 65.8187 82.808 65.6151L80.8575 62.8535C80.8209 62.8021 80.8005 62.7427 80.8005 62.6755C80.8005 62.6082 80.8209 62.5489 80.8575 62.4975L82.8121 59.728C82.9165 59.5238 82.9705 59.2988 82.9698 59.0708C82.969 58.8428 82.9137 58.6181 82.808 58.4145C82.727 58.2001 82.5991 58.0052 82.4333 57.8434C82.2674 57.6815 82.0674 57.5565 81.847 57.4768L78.4957 56.286C78.4338 56.2654 78.3786 56.2294 78.3357 56.1814C78.2928 56.1335 78.2637 56.0754 78.2514 56.013V52.6857C78.2384 52.4503 78.1696 52.221 78.0502 52.0157C77.9308 51.8105 77.7641 51.6349 77.5632 51.5027C77.2862 51.3187 76.9581 51.2208 76.6226 51.2218H75.9303L72.469 52.0922C72.3763 52.1285 72.2727 52.1285 72.1799 52.0922L69.9443 49.5206C69.7811 49.3482 69.5828 49.2105 69.362 49.1164C69.1412 49.0222 68.9027 48.9736 68.6616 48.9736C68.4205 48.9736 68.182 49.0222 67.9612 49.1164C67.7404 49.2105 67.5422 49.3482 67.3789 49.5206L65.1393 52.0922C65.0465 52.1285 64.9429 52.1285 64.8502 52.0922H64.8542L61.1894 51.1822H60.7496C60.4102 51.1813 60.0783 51.2791 59.7967 51.4631C59.5975 51.5958 59.4323 51.7711 59.3137 51.9754C59.1951 52.1798 59.1263 52.4079 59.1126 52.6421V55.9694C59.1009 56.032 59.0726 56.0904 59.0304 56.139C58.9883 56.1876 58.9338 56.2246 58.8723 56.2464L55.5292 57.4333C55.1468 57.494 54.7988 57.6842 54.5469 57.9702C54.295 58.2562 54.1554 58.6196 54.1528 58.9961C54.1528 59.2334 54.2098 59.459 54.3116 59.6568L56.2621 62.4183C56.2988 62.4698 56.3191 62.5291 56.3191 62.5964C56.3191 62.6636 56.2988 62.723 56.2621 62.7744L54.3075 65.5438C54.2032 65.7481 54.1492 65.9731 54.1499 66.2011C54.1506 66.4291 54.206 66.6538 54.3116 66.8574C54.3927 67.0718 54.5205 67.2666 54.6864 67.4285C54.8523 67.5903 55.0523 67.7154 55.2726 67.795L58.6239 68.9859C58.6858 69.0064 58.741 69.0425 58.784 69.0904C58.8269 69.1384 58.856 69.1965 58.8683 69.2589V72.5862C58.8812 72.8216 58.9501 73.0509 59.0695 73.2561C59.1889 73.4613 59.3555 73.6369 59.5565 73.7691C59.838 73.9532 60.1699 74.051 60.5093 74.05H61.1934L62.4558 73.7731V88.3721L68.6861 80.4593L74.672 88.3721V73.7731L75.9344 74.0896H76.4149C76.7543 74.0906 77.0862 73.9927 77.3677 73.8087C77.5669 73.676 77.7322 73.5008 77.8508 73.2964C77.9694 73.092 78.0381 72.8639 78.0519 72.6297V69.3024C78.0635 69.2399 78.0919 69.1814 78.134 69.1328C78.1762 69.0842 78.2307 69.0472 78.2921 69.0255L81.6353 67.8385C81.8904 67.7896 82.1301 67.6827 82.3346 67.5266C82.5391 67.3706 82.7027 67.1697 82.8121 66.9404V66.9286Z" fill="#3E4671"/>
<path d="M25.8033 29.0254V76.5018H58.38L57.9321 76.3039C57.3521 75.918 56.8708 75.4083 56.5249 74.8137C56.1791 74.2191 55.9779 73.5556 55.9368 72.8738V72.5454H29.8754V32.9818H86.8846V72.5454H81.0615V72.8619C81.022 73.5428 80.8232 74.206 80.4803 74.8011C80.1374 75.3961 79.6593 75.9074 79.0825 76.296L78.7404 76.5018H90.9567V29.0254H25.8033Z" fill="#3E4671"/>
<path d="M56.0589 52.4082C56.0722 51.6999 56.2586 51.0048 56.6027 50.3802C56.9467 49.7557 57.4387 49.2195 58.0379 48.8158C58.1511 48.787 58.2696 48.7843 58.384 48.8079H38.0195V52.7643H56.0589V52.4082Z" fill="#3E4671"/>
<path d="M51.9461 56.7197H38.0195V60.6761H51.7017C51.4214 60.1717 51.2589 59.6134 51.2258 59.0411C51.1927 58.4687 51.2899 57.8963 51.5103 57.3646C51.5752 57.1075 51.7291 56.8798 51.9461 56.7197Z" fill="#3E4671"/>
<path d="M38.0195 40.8945H78.7404V44.8509H38.0195V40.8945Z" fill="#3E4671"/>
</g>
<path d="M138.101 53.3375V58.8775H135.101V55.9775H125.221V58.8775H122.221L122.241 53.3375H122.801C123.641 53.3109 124.234 52.6975 124.581 51.4975C124.927 50.2975 125.141 48.5842 125.221 46.3575L125.381 41.9775H136.141V53.3375H138.101ZM128.081 46.6575C128.014 48.3242 127.874 49.7242 127.661 50.8575C127.447 51.9775 127.121 52.8042 126.681 53.3375H132.941V44.6175H128.141L128.081 46.6575ZM140.042 45.2175H143.142V51.6175L148.382 45.2175H151.242V55.9775H148.142V49.5775L142.922 55.9775H140.042V45.2175ZM164.941 45.2175V55.9775H161.821V47.7775H157.341V55.9775H154.241V45.2175H164.941ZM178.252 45.2175V55.9775H175.132V47.7775H171.732L171.632 49.6775C171.579 51.0909 171.446 52.2642 171.232 53.1975C171.019 54.1309 170.672 54.8642 170.192 55.3975C169.712 55.9309 169.046 56.1975 168.192 56.1975C167.739 56.1975 167.199 56.1175 166.572 55.9575L166.732 53.3975C166.946 53.4242 167.099 53.4375 167.192 53.4375C167.659 53.4375 168.006 53.2709 168.232 52.9375C168.472 52.5909 168.632 52.1575 168.712 51.6375C168.792 51.1042 168.852 50.4042 168.892 49.5375L169.052 45.2175H178.252ZM186.293 56.1375C185.159 56.1375 184.139 55.9042 183.233 55.4375C182.339 54.9575 181.639 54.2975 181.133 53.4575C180.626 52.6175 180.373 51.6642 180.373 50.5975C180.373 49.5309 180.626 48.5775 181.133 47.7375C181.639 46.8975 182.339 46.2442 183.233 45.7775C184.139 45.2975 185.159 45.0575 186.293 45.0575C187.426 45.0575 188.439 45.2975 189.333 45.7775C190.226 46.2442 190.926 46.8975 191.433 47.7375C191.939 48.5775 192.193 49.5309 192.193 50.5975C192.193 51.6642 191.939 52.6175 191.433 53.4575C190.926 54.2975 190.226 54.9575 189.333 55.4375C188.439 55.9042 187.426 56.1375 186.293 56.1375ZM186.293 53.5775C187.093 53.5775 187.746 53.3109 188.253 52.7775C188.773 52.2309 189.033 51.5042 189.033 50.5975C189.033 49.6909 188.773 48.9709 188.253 48.4375C187.746 47.8909 187.093 47.6175 186.293 47.6175C185.493 47.6175 184.833 47.8909 184.313 48.4375C183.793 48.9709 183.533 49.6909 183.533 50.5975C183.533 51.5042 183.793 52.2309 184.313 52.7775C184.833 53.3109 185.493 53.5775 186.293 53.5775ZM204.839 55.9775V49.5375L201.619 54.9375H200.299L197.159 49.5175V55.9775H194.339V45.2175H197.599L201.039 51.4375L204.699 45.2175H207.619L207.659 55.9775H204.839ZM215.687 56.1375C214.554 56.1375 213.534 55.9042 212.627 55.4375C211.734 54.9575 211.034 54.2975 210.527 53.4575C210.02 52.6175 209.767 51.6642 209.767 50.5975C209.767 49.5309 210.02 48.5775 210.527 47.7375C211.034 46.8975 211.734 46.2442 212.627 45.7775C213.534 45.2975 214.554 45.0575 215.687 45.0575C216.82 45.0575 217.834 45.2975 218.727 45.7775C219.62 46.2442 220.32 46.8975 220.827 47.7375C221.334 48.5775 221.587 49.5309 221.587 50.5975C221.587 51.6642 221.334 52.6175 220.827 53.4575C220.32 54.2975 219.62 54.9575 218.727 55.4375C217.834 55.9042 216.82 56.1375 215.687 56.1375ZM215.687 53.5775C216.487 53.5775 217.14 53.3109 217.647 52.7775C218.167 52.2309 218.427 51.5042 218.427 50.5975C218.427 49.6909 218.167 48.9709 217.647 48.4375C217.14 47.8909 216.487 47.6175 215.687 47.6175C214.887 47.6175 214.227 47.8909 213.707 48.4375C213.187 48.9709 212.927 49.6909 212.927 50.5975C212.927 51.5042 213.187 52.2309 213.707 52.7775C214.227 53.3109 214.887 53.5775 215.687 53.5775ZM231.953 50.3575C233.22 50.7842 233.853 51.6375 233.853 52.9175C233.853 53.8909 233.486 54.6442 232.753 55.1775C232.02 55.7109 230.926 55.9775 229.473 55.9775H223.733V45.2175H229.233C230.58 45.2175 231.633 45.4642 232.393 45.9575C233.153 46.4375 233.533 47.1175 233.533 47.9975C233.533 48.5309 233.393 49.0042 233.113 49.4175C232.846 49.8175 232.46 50.1309 231.953 50.3575ZM226.593 49.6375H228.953C230.046 49.6375 230.593 49.2509 230.593 48.4775C230.593 47.7175 230.046 47.3375 228.953 47.3375H226.593V49.6375ZM229.213 53.8575C230.36 53.8575 230.933 53.4642 230.933 52.6775C230.933 52.2642 230.8 51.9642 230.533 51.7775C230.266 51.5775 229.846 51.4775 229.273 51.4775H226.593V53.8575H229.213ZM240.354 45.0575C242.021 45.0575 243.301 45.4575 244.194 46.2575C245.088 47.0442 245.534 48.2375 245.534 49.8375V55.9775H242.614V54.6375C242.028 55.6375 240.934 56.1375 239.334 56.1375C238.508 56.1375 237.788 55.9975 237.174 55.7175C236.574 55.4375 236.114 55.0509 235.794 54.5575C235.474 54.0642 235.314 53.5042 235.314 52.8775C235.314 51.8775 235.688 51.0909 236.434 50.5175C237.194 49.9442 238.361 49.6575 239.934 49.6575H242.414C242.414 48.9775 242.208 48.4575 241.794 48.0975C241.381 47.7242 240.761 47.5375 239.934 47.5375C239.361 47.5375 238.794 47.6309 238.234 47.8175C237.688 47.9909 237.221 48.2309 236.834 48.5375L235.714 46.3575C236.301 45.9442 237.001 45.6242 237.814 45.3975C238.641 45.1709 239.488 45.0575 240.354 45.0575ZM240.114 54.0375C240.648 54.0375 241.121 53.9175 241.534 53.6775C241.948 53.4242 242.241 53.0575 242.414 52.5775V51.4775H240.274C238.994 51.4775 238.354 51.8975 238.354 52.7375C238.354 53.1375 238.508 53.4575 238.814 53.6975C239.134 53.9242 239.568 54.0375 240.114 54.0375ZM248.245 45.2175H251.345V49.4175H256.025V45.2175H259.145V55.9775H256.025V51.9575H251.345V55.9775H248.245V45.2175ZM262.111 45.2175H265.231V55.9775H262.111V45.2175ZM263.671 43.7175C263.098 43.7175 262.631 43.5509 262.271 43.2175C261.911 42.8842 261.731 42.4709 261.731 41.9775C261.731 41.4842 261.911 41.0709 262.271 40.7375C262.631 40.4042 263.098 40.2375 263.671 40.2375C264.245 40.2375 264.711 40.3975 265.071 40.7175C265.431 41.0375 265.611 41.4375 265.611 41.9175C265.611 42.4375 265.431 42.8709 265.071 43.2175C264.711 43.5509 264.245 43.7175 263.671 43.7175ZM284.349 50.6375C284.349 50.6775 284.329 50.9575 284.289 51.4775H276.149C276.296 52.1442 276.643 52.6709 277.189 53.0575C277.736 53.4442 278.416 53.6375 279.229 53.6375C279.789 53.6375 280.283 53.5575 280.709 53.3975C281.149 53.2242 281.556 52.9575 281.929 52.5975L283.589 54.3975C282.576 55.5575 281.096 56.1375 279.149 56.1375C277.936 56.1375 276.863 55.9042 275.929 55.4375C274.996 54.9575 274.276 54.2975 273.769 53.4575C273.263 52.6175 273.009 51.6642 273.009 50.5975C273.009 49.5442 273.256 48.5975 273.749 47.7575C274.256 46.9042 274.943 46.2442 275.809 45.7775C276.689 45.2975 277.669 45.0575 278.749 45.0575C279.803 45.0575 280.756 45.2842 281.609 45.7375C282.463 46.1909 283.129 46.8442 283.609 47.6975C284.103 48.5375 284.349 49.5175 284.349 50.6375ZM278.769 47.4175C278.063 47.4175 277.469 47.6175 276.989 48.0175C276.509 48.4175 276.216 48.9642 276.109 49.6575H281.409C281.303 48.9775 281.009 48.4375 280.529 48.0375C280.049 47.6242 279.463 47.4175 278.769 47.4175ZM291.481 51.8975H289.861V55.9775H286.741V45.2175H289.861V49.3975H291.541L294.461 45.2175H297.781L294.021 50.3775L298.041 55.9775H294.361L291.481 51.8975ZM304.361 56.1375C303.214 56.1375 302.181 55.9042 301.261 55.4375C300.354 54.9575 299.641 54.2975 299.121 53.4575C298.614 52.6175 298.361 51.6642 298.361 50.5975C298.361 49.5309 298.614 48.5775 299.121 47.7375C299.641 46.8975 300.354 46.2442 301.261 45.7775C302.181 45.2975 303.214 45.0575 304.361 45.0575C305.494 45.0575 306.481 45.2975 307.321 45.7775C308.174 46.2442 308.794 46.9175 309.181 47.7975L306.761 49.0975C306.201 48.1109 305.394 47.6175 304.341 47.6175C303.528 47.6175 302.854 47.8842 302.321 48.4175C301.788 48.9509 301.521 49.6775 301.521 50.5975C301.521 51.5175 301.788 52.2442 302.321 52.7775C302.854 53.3109 303.528 53.5775 304.341 53.5775C305.408 53.5775 306.214 53.0842 306.761 52.0975L309.181 53.4175C308.794 54.2709 308.174 54.9375 307.321 55.4175C306.481 55.8975 305.494 56.1375 304.361 56.1375ZM321.777 45.2175V55.9775H318.657V47.7775H314.177V55.9775H311.077V45.2175H321.777ZM335.228 50.6375C335.228 50.6775 335.208 50.9575 335.168 51.4775H327.028C327.175 52.1442 327.522 52.6709 328.068 53.0575C328.615 53.4442 329.295 53.6375 330.108 53.6375C330.668 53.6375 331.162 53.5575 331.588 53.3975C332.028 53.2242 332.435 52.9575 332.808 52.5975L334.468 54.3975C333.455 55.5575 331.975 56.1375 330.028 56.1375C328.815 56.1375 327.742 55.9042 326.808 55.4375C325.875 54.9575 325.155 54.2975 324.648 53.4575C324.142 52.6175 323.888 51.6642 323.888 50.5975C323.888 49.5442 324.135 48.5975 324.628 47.7575C325.135 46.9042 325.822 46.2442 326.688 45.7775C327.568 45.2975 328.548 45.0575 329.628 45.0575C330.682 45.0575 331.635 45.2842 332.488 45.7375C333.342 46.1909 334.008 46.8442 334.488 47.6975C334.982 48.5375 335.228 49.5175 335.228 50.6375ZM329.648 47.4175C328.942 47.4175 328.348 47.6175 327.868 48.0175C327.388 48.4175 327.095 48.9642 326.988 49.6575H332.288C332.182 48.9775 331.888 48.4375 331.408 48.0375C330.928 47.6242 330.342 47.4175 329.648 47.4175ZM343.96 45.0575C344.96 45.0575 345.866 45.2909 346.68 45.7575C347.506 46.2109 348.153 46.8575 348.62 47.6975C349.086 48.5242 349.32 49.4909 349.32 50.5975C349.32 51.7042 349.086 52.6775 348.62 53.5175C348.153 54.3442 347.506 54.9909 346.68 55.4575C345.866 55.9109 344.96 56.1375 343.96 56.1375C342.586 56.1375 341.506 55.7042 340.72 54.8375V59.8575H337.6V45.2175H340.58V46.4575C341.353 45.5242 342.48 45.0575 343.96 45.0575ZM343.42 53.5775C344.22 53.5775 344.873 53.3109 345.38 52.7775C345.9 52.2309 346.16 51.5042 346.16 50.5975C346.16 49.6909 345.9 48.9709 345.38 48.4375C344.873 47.8909 344.22 47.6175 343.42 47.6175C342.62 47.6175 341.96 47.8909 341.44 48.4375C340.933 48.9709 340.68 49.6909 340.68 50.5975C340.68 51.5042 340.933 52.2309 341.44 52.7775C341.96 53.3109 342.62 53.5775 343.42 53.5775ZM360.156 47.7775H356.516V55.9775H353.416V47.7775H349.776V45.2175H360.156V47.7775ZM361.819 45.2175H364.919V51.6175L370.159 45.2175H373.019V55.9775H369.919V49.5775L364.699 55.9775H361.819V45.2175ZM390.722 47.7775H387.082V55.9775H383.982V47.7775H380.342V45.2175H390.722V47.7775ZM396.565 45.0575C398.232 45.0575 399.512 45.4575 400.405 46.2575C401.299 47.0442 401.745 48.2375 401.745 49.8375V55.9775H398.825V54.6375C398.239 55.6375 397.145 56.1375 395.545 56.1375C394.719 56.1375 393.999 55.9975 393.385 55.7175C392.785 55.4375 392.325 55.0509 392.005 54.5575C391.685 54.0642 391.525 53.5042 391.525 52.8775C391.525 51.8775 391.899 51.0909 392.645 50.5175C393.405 49.9442 394.572 49.6575 396.145 49.6575H398.625C398.625 48.9775 398.419 48.4575 398.005 48.0975C397.592 47.7242 396.972 47.5375 396.145 47.5375C395.572 47.5375 395.005 47.6309 394.445 47.8175C393.899 47.9909 393.432 48.2309 393.045 48.5375L391.925 46.3575C392.512 45.9442 393.212 45.6242 394.025 45.3975C394.852 45.1709 395.699 45.0575 396.565 45.0575ZM396.325 54.0375C396.859 54.0375 397.332 53.9175 397.745 53.6775C398.159 53.4242 398.452 53.0575 398.625 52.5775V51.4775H396.485C395.205 51.4775 394.565 51.8975 394.565 52.7375C394.565 53.1375 394.719 53.4575 395.025 53.6975C395.345 53.9242 395.779 54.0375 396.325 54.0375ZM418.34 50.3575C419.606 50.7842 420.24 51.6375 420.24 52.9175C420.24 53.8909 419.873 54.6442 419.14 55.1775C418.406 55.7109 417.313 55.9775 415.86 55.9775H410.12V45.2175H415.62C416.966 45.2175 418.02 45.4642 418.78 45.9575C419.54 46.4375 419.92 47.1175 419.92 47.9975C419.92 48.5309 419.78 49.0042 419.5 49.4175C419.233 49.8175 418.846 50.1309 418.34 50.3575ZM412.98 49.6375H415.34C416.433 49.6375 416.98 49.2509 416.98 48.4775C416.98 47.7175 416.433 47.3375 415.34 47.3375H412.98V49.6375ZM415.6 53.8575C416.746 53.8575 417.32 53.4642 417.32 52.6775C417.32 52.2642 417.186 51.9642 416.92 51.7775C416.653 51.5775 416.233 51.4775 415.66 51.4775H412.98V53.8575H415.6ZM432.881 45.2175V55.9775H429.761V47.7775H426.361L426.261 49.6775C426.208 51.0909 426.074 52.2642 425.861 53.1975C425.648 54.1309 425.301 54.8642 424.821 55.3975C424.341 55.9309 423.674 56.1975 422.821 56.1975C422.368 56.1975 421.828 56.1175 421.201 55.9575L421.361 53.3975C421.574 53.4242 421.728 53.4375 421.821 53.4375C422.288 53.4375 422.634 53.2709 422.861 52.9375C423.101 52.5909 423.261 52.1575 423.341 51.6375C423.421 51.1042 423.481 50.4042 423.521 49.5375L423.681 45.2175H432.881ZM440.061 45.0575C441.728 45.0575 443.008 45.4575 443.901 46.2575C444.795 47.0442 445.241 48.2375 445.241 49.8375V55.9775H442.321V54.6375C441.735 55.6375 440.641 56.1375 439.041 56.1375C438.215 56.1375 437.495 55.9975 436.881 55.7175C436.281 55.4375 435.821 55.0509 435.501 54.5575C435.181 54.0642 435.021 53.5042 435.021 52.8775C435.021 51.8775 435.395 51.0909 436.141 50.5175C436.901 49.9442 438.068 49.6575 439.641 49.6575H442.121C442.121 48.9775 441.915 48.4575 441.501 48.0975C441.088 47.7242 440.468 47.5375 439.641 47.5375C439.068 47.5375 438.501 47.6309 437.941 47.8175C437.395 47.9909 436.928 48.2309 436.541 48.5375L435.421 46.3575C436.008 45.9442 436.708 45.6242 437.521 45.3975C438.348 45.1709 439.195 45.0575 440.061 45.0575ZM439.821 54.0375C440.355 54.0375 440.828 53.9175 441.241 53.6775C441.655 53.4242 441.948 53.0575 442.121 52.5775V51.4775H439.981C438.701 51.4775 438.061 51.8975 438.061 52.7375C438.061 53.1375 438.215 53.4575 438.521 53.6975C438.841 53.9242 439.275 54.0375 439.821 54.0375ZM453.072 56.1375C451.925 56.1375 450.892 55.9042 449.972 55.4375C449.065 54.9575 448.352 54.2975 447.832 53.4575C447.325 52.6175 447.072 51.6642 447.072 50.5975C447.072 49.5309 447.325 48.5775 447.832 47.7375C448.352 46.8975 449.065 46.2442 449.972 45.7775C450.892 45.2975 451.925 45.0575 453.072 45.0575C454.205 45.0575 455.192 45.2975 456.032 45.7775C456.885 46.2442 457.505 46.9175 457.892 47.7975L455.472 49.0975C454.912 48.1109 454.105 47.6175 453.052 47.6175C452.238 47.6175 451.565 47.8842 451.032 48.4175C450.498 48.9509 450.232 49.6775 450.232 50.5975C450.232 51.5175 450.498 52.2442 451.032 52.7775C451.565 53.3109 452.238 53.5775 453.052 53.5775C454.118 53.5775 454.925 53.0842 455.472 52.0975L457.892 53.4175C457.505 54.2709 456.885 54.9375 456.032 55.4175C455.192 55.8975 454.205 56.1375 453.072 56.1375ZM459.788 45.2175H462.888V49.4175H467.568V45.2175H470.688V55.9775H467.568V51.9575H462.888V55.9775H459.788V45.2175ZM477.854 45.0575C479.521 45.0575 480.801 45.4575 481.694 46.2575C482.588 47.0442 483.034 48.2375 483.034 49.8375V55.9775H480.114V54.6375C479.528 55.6375 478.434 56.1375 476.834 56.1375C476.008 56.1375 475.288 55.9975 474.674 55.7175C474.074 55.4375 473.614 55.0509 473.294 54.5575C472.974 54.0642 472.814 53.5042 472.814 52.8775C472.814 51.8775 473.188 51.0909 473.934 50.5175C474.694 49.9442 475.861 49.6575 477.434 49.6575H479.914C479.914 48.9775 479.708 48.4575 479.294 48.0975C478.881 47.7242 478.261 47.5375 477.434 47.5375C476.861 47.5375 476.294 47.6309 475.734 47.8175C475.188 47.9909 474.721 48.2309 474.334 48.5375L473.214 46.3575C473.801 45.9442 474.501 45.6242 475.314 45.3975C476.141 45.1709 476.988 45.0575 477.854 45.0575ZM477.614 54.0375C478.148 54.0375 478.621 53.9175 479.034 53.6775C479.448 53.4242 479.741 53.0575 479.914 52.5775V51.4775H477.774C476.494 51.4775 475.854 51.8975 475.854 52.7375C475.854 53.1375 476.008 53.4575 476.314 53.6975C476.634 53.9242 477.068 54.0375 477.614 54.0375ZM133.741 69.2175V79.9775H130.621V71.7775H127.221L127.121 73.6775C127.067 75.0909 126.934 76.2642 126.721 77.1975C126.507 78.1309 126.161 78.8642 125.681 79.3975C125.201 79.9309 124.534 80.1975 123.681 80.1975C123.227 80.1975 122.687 80.1175 122.061 79.9575L122.221 77.3975C122.434 77.4242 122.587 77.4375 122.681 77.4375C123.147 77.4375 123.494 77.2709 123.721 76.9375C123.961 76.5909 124.121 76.1575 124.201 75.6375C124.281 75.1042 124.341 74.4042 124.381 73.5375L124.541 69.2175H133.741ZM140.921 69.0575C142.588 69.0575 143.868 69.4575 144.761 70.2575C145.654 71.0442 146.101 72.2375 146.101 73.8375V79.9775H143.181V78.6375C142.594 79.6375 141.501 80.1375 139.901 80.1375C139.074 80.1375 138.354 79.9975 137.741 79.7175C137.141 79.4375 136.681 79.0509 136.361 78.5575C136.041 78.0642 135.881 77.5042 135.881 76.8775C135.881 75.8775 136.254 75.0909 137.001 74.5175C137.761 73.9442 138.928 73.6575 140.501 73.6575H142.981C142.981 72.9775 142.774 72.4575 142.361 72.0975C141.948 71.7242 141.328 71.5375 140.501 71.5375C139.928 71.5375 139.361 71.6309 138.801 71.8175C138.254 71.9909 137.788 72.2309 137.401 72.5375L136.281 70.3575C136.868 69.9442 137.568 69.6242 138.381 69.3975C139.208 69.1709 140.054 69.0575 140.921 69.0575ZM140.681 78.0375C141.214 78.0375 141.688 77.9175 142.101 77.6775C142.514 77.4242 142.808 77.0575 142.981 76.5775V75.4775H140.841C139.561 75.4775 138.921 75.8975 138.921 76.7375C138.921 77.1375 139.074 77.4575 139.381 77.6975C139.701 77.9242 140.134 78.0375 140.681 78.0375ZM155.031 69.9575C156.058 69.9575 156.958 70.1709 157.731 70.5975C158.504 71.0109 159.098 71.5975 159.511 72.3575C159.938 73.1175 160.151 73.9975 160.151 74.9975C160.151 76.0242 159.898 76.9375 159.391 77.7375C158.898 78.5242 158.204 79.1375 157.311 79.5775C156.418 80.0042 155.404 80.2175 154.271 80.2175C152.391 80.2175 150.911 79.6175 149.831 78.4175C148.764 77.2042 148.231 75.4309 148.231 73.0975C148.231 70.9375 148.698 69.2175 149.631 67.9375C150.578 66.6442 152.024 65.7975 153.971 65.3975L159.091 64.3775L159.511 67.0575L154.991 67.9575C153.764 68.1975 152.851 68.5975 152.251 69.1575C151.664 69.7175 151.318 70.5109 151.211 71.5375C151.678 71.0309 152.238 70.6442 152.891 70.3775C153.544 70.0975 154.258 69.9575 155.031 69.9575ZM154.291 77.7975C155.091 77.7975 155.731 77.5375 156.211 77.0175C156.704 76.4975 156.951 75.8375 156.951 75.0375C156.951 74.2242 156.704 73.5775 156.211 73.0975C155.731 72.6175 155.091 72.3775 154.291 72.3775C153.478 72.3775 152.824 72.6175 152.331 73.0975C151.838 73.5775 151.591 74.2242 151.591 75.0375C151.591 75.8509 151.844 76.5175 152.351 77.0375C152.858 77.5442 153.504 77.7975 154.291 77.7975ZM167.308 80.1375C166.175 80.1375 165.155 79.9042 164.248 79.4375C163.355 78.9575 162.655 78.2975 162.148 77.4575C161.642 76.6175 161.388 75.6642 161.388 74.5975C161.388 73.5309 161.642 72.5775 162.148 71.7375C162.655 70.8975 163.355 70.2442 164.248 69.7775C165.155 69.2975 166.175 69.0575 167.308 69.0575C168.442 69.0575 169.455 69.2975 170.348 69.7775C171.242 70.2442 171.942 70.8975 172.448 71.7375C172.955 72.5775 173.208 73.5309 173.208 74.5975C173.208 75.6642 172.955 76.6175 172.448 77.4575C171.942 78.2975 171.242 78.9575 170.348 79.4375C169.455 79.9042 168.442 80.1375 167.308 80.1375ZM167.308 77.5775C168.108 77.5775 168.762 77.3109 169.268 76.7775C169.788 76.2309 170.048 75.5042 170.048 74.5975C170.048 73.6909 169.788 72.9709 169.268 72.4375C168.762 71.8909 168.108 71.6175 167.308 71.6175C166.508 71.6175 165.848 71.8909 165.328 72.4375C164.808 72.9709 164.548 73.6909 164.548 74.5975C164.548 75.5042 164.808 76.2309 165.328 76.7775C165.848 77.3109 166.508 77.5775 167.308 77.5775ZM181.694 69.0575C182.694 69.0575 183.601 69.2909 184.414 69.7575C185.241 70.2109 185.887 70.8575 186.354 71.6975C186.821 72.5242 187.054 73.4909 187.054 74.5975C187.054 75.7042 186.821 76.6775 186.354 77.5175C185.887 78.3442 185.241 78.9909 184.414 79.4575C183.601 79.9109 182.694 80.1375 181.694 80.1375C180.321 80.1375 179.241 79.7042 178.454 78.8375V83.8575H175.334V69.2175H178.314V70.4575C179.087 69.5242 180.214 69.0575 181.694 69.0575ZM181.154 77.5775C181.954 77.5775 182.607 77.3109 183.114 76.7775C183.634 76.2309 183.894 75.5042 183.894 74.5975C183.894 73.6909 183.634 72.9709 183.114 72.4375C182.607 71.8909 181.954 71.6175 181.154 71.6175C180.354 71.6175 179.694 71.8909 179.174 72.4375C178.667 72.9709 178.414 73.6909 178.414 74.5975C178.414 75.5042 178.667 76.2309 179.174 76.7775C179.694 77.3109 180.354 77.5775 181.154 77.5775ZM193.245 69.0575C194.912 69.0575 196.192 69.4575 197.085 70.2575C197.978 71.0442 198.425 72.2375 198.425 73.8375V79.9775H195.505V78.6375C194.918 79.6375 193.825 80.1375 192.225 80.1375C191.398 80.1375 190.678 79.9975 190.065 79.7175C189.465 79.4375 189.005 79.0509 188.685 78.5575C188.365 78.0642 188.205 77.5042 188.205 76.8775C188.205 75.8775 188.578 75.0909 189.325 74.5175C190.085 73.9442 191.252 73.6575 192.825 73.6575H195.305C195.305 72.9775 195.098 72.4575 194.685 72.0975C194.272 71.7242 193.652 71.5375 192.825 71.5375C192.252 71.5375 191.685 71.6309 191.125 71.8175C190.578 71.9909 190.112 72.2309 189.725 72.5375L188.605 70.3575C189.192 69.9442 189.892 69.6242 190.705 69.3975C191.532 69.1709 192.378 69.0575 193.245 69.0575ZM193.005 78.0375C193.538 78.0375 194.012 77.9175 194.425 77.6775C194.838 77.4242 195.132 77.0575 195.305 76.5775V75.4775H193.165C191.885 75.4775 191.245 75.8975 191.245 76.7375C191.245 77.1375 191.398 77.4575 191.705 77.6975C192.025 77.9242 192.458 78.0375 193.005 78.0375ZM210.175 71.7775H206.535V79.9775H203.435V71.7775H199.795V69.2175H210.175V71.7775ZM216.429 80.1375C215.296 80.1375 214.276 79.9042 213.369 79.4375C212.476 78.9575 211.776 78.2975 211.269 77.4575C210.763 76.6175 210.509 75.6642 210.509 74.5975C210.509 73.5309 210.763 72.5775 211.269 71.7375C211.776 70.8975 212.476 70.2442 213.369 69.7775C214.276 69.2975 215.296 69.0575 216.429 69.0575C217.563 69.0575 218.576 69.2975 219.469 69.7775C220.363 70.2442 221.063 70.8975 221.569 71.7375C222.076 72.5775 222.329 73.5309 222.329 74.5975C222.329 75.6642 222.076 76.6175 221.569 77.4575C221.063 78.2975 220.363 78.9575 219.469 79.4375C218.576 79.9042 217.563 80.1375 216.429 80.1375ZM216.429 77.5775C217.229 77.5775 217.883 77.3109 218.389 76.7775C218.909 76.2309 219.169 75.5042 219.169 74.5975C219.169 73.6909 218.909 72.9709 218.389 72.4375C217.883 71.8909 217.229 71.6175 216.429 71.6175C215.629 71.6175 214.969 71.8909 214.449 72.4375C213.929 72.9709 213.669 73.6909 213.669 74.5975C213.669 75.5042 213.929 76.2309 214.449 76.7775C214.969 77.3109 215.629 77.5775 216.429 77.5775ZM230.815 69.0575C231.815 69.0575 232.722 69.2909 233.535 69.7575C234.362 70.2109 235.009 70.8575 235.475 71.6975C235.942 72.5242 236.175 73.4909 236.175 74.5975C236.175 75.7042 235.942 76.6775 235.475 77.5175C235.009 78.3442 234.362 78.9909 233.535 79.4575C232.722 79.9109 231.815 80.1375 230.815 80.1375C229.442 80.1375 228.362 79.7042 227.575 78.8375V83.8575H224.455V69.2175H227.435V70.4575C228.209 69.5242 229.335 69.0575 230.815 69.0575ZM230.275 77.5775C231.075 77.5775 231.729 77.3109 232.235 76.7775C232.755 76.2309 233.015 75.5042 233.015 74.5975C233.015 73.6909 232.755 72.9709 232.235 72.4375C231.729 71.8909 231.075 71.6175 230.275 71.6175C229.475 71.6175 228.815 71.8909 228.295 72.4375C227.789 72.9709 227.535 73.6909 227.535 74.5975C227.535 75.5042 227.789 76.2309 228.295 76.7775C228.815 77.3109 229.475 77.5775 230.275 77.5775ZM238.342 69.2175H241.462V79.9775H238.342V69.2175ZM239.902 67.7175C239.329 67.7175 238.862 67.5509 238.502 67.2175C238.142 66.8842 237.962 66.4709 237.962 65.9775C237.962 65.4842 238.142 65.0709 238.502 64.7375C238.862 64.4042 239.329 64.2375 239.902 64.2375C240.475 64.2375 240.942 64.3975 241.302 64.7175C241.662 65.0375 241.842 65.4375 241.842 65.9175C241.842 66.4375 241.662 66.8709 241.302 67.2175C240.942 67.5509 240.475 67.7175 239.902 67.7175ZM254.016 69.2175V79.9775H251.236V76.8975H248.936L246.896 79.9775H243.576L246.036 76.4575C245.289 76.1642 244.716 75.7442 244.316 75.1975C243.929 74.6375 243.736 73.9642 243.736 73.1775C243.736 71.9109 244.189 70.9375 245.096 70.2575C246.016 69.5642 247.276 69.2175 248.876 69.2175H254.016ZM248.936 71.7575C248.269 71.7575 247.762 71.8775 247.416 72.1175C247.082 72.3575 246.916 72.7442 246.916 73.2775C246.916 73.8109 247.076 74.2042 247.396 74.4575C247.729 74.6975 248.229 74.8175 248.896 74.8175H251.236V71.7575H248.936Z" fill="white"/>
<defs>
<clipPath id="clip0_207:9">
<rect width="65.1533" height="63.3018" fill="white" transform="translate(25.8033 25.0693)"/>
</clipPath>
</defs>
</svg>
