<svg width="645" height="135" viewBox="0 0 645 135" fill="none" xmlns="http://www.w3.org/2000/svg">
<rect x="30.2682" y="17.1543" width="614.732" height="101.436" fill="#3E4671"/>
<path d="M129.162 67.5C129.162 103.729 100.642 133 65.581 133C30.5202 133 2 103.729 2 67.5C2 31.2706 30.5202 2 65.581 2C100.642 2 129.162 31.2706 129.162 67.5Z" fill="white" stroke="#3E4671" stroke-width="4"/>
<path d="M96.3856 60.2185C94.9157 53.0605 91.0176 46.5455 85.4078 41.8741C79.6711 37.1236 72.542 34.5373 65.195 34.541C56.5344 34.541 48.4453 37.9942 42.3976 44.265C36.5533 50.3327 33.3504 58.344 33.3759 66.8173C33.3761 73.0297 35.1384 79.1053 38.4441 84.2907L39.0625 85.1809L35.6506 100.456L51.9709 96.254C51.9709 96.254 52.2979 96.3673 52.5396 96.4629C52.7813 96.5586 54.8611 97.384 57.0675 98.0225C58.9014 98.5522 62.7171 99.3467 65.7068 99.3467C74.1868 99.3467 82.1053 95.948 88.0023 89.7743C93.8466 83.6492 97.0652 75.5055 97.0652 66.835C97.0656 64.6108 96.8379 62.3929 96.3856 60.2185ZM51.5729 72.2068C50.6731 72.2068 49.7936 71.9306 49.0455 71.4133C48.2973 70.896 47.7142 70.1606 47.3699 69.3003C47.0256 68.44 46.9355 67.4933 47.1111 66.58C47.2866 65.6667 47.7199 64.8278 48.3561 64.1693C48.9923 63.5109 49.8029 63.0625 50.6854 62.8808C51.5678 62.6991 52.4825 62.7924 53.3138 63.1487C54.1451 63.5051 54.8555 64.1085 55.3554 64.8828C55.8553 65.6571 56.1221 66.5674 56.1221 67.4986C56.1221 68.7472 55.6428 69.9448 54.7897 70.8278C53.9365 71.7107 52.7794 72.2068 51.5729 72.2068ZM65.2206 72.2068C64.3208 72.2068 63.4413 71.9306 62.6931 71.4133C61.945 70.896 61.3619 70.1606 61.0176 69.3003C60.6733 68.44 60.5832 67.4933 60.7587 66.58C60.9343 65.6667 61.3676 64.8278 62.0038 64.1693C62.64 63.5109 63.4506 63.0625 64.3331 62.8808C65.2155 62.6991 66.1302 62.7924 66.9615 63.1487C67.7927 63.5051 68.5032 64.1085 69.0031 64.8828C69.503 65.6571 69.7698 66.5674 69.7698 67.4986C69.7698 68.7472 69.2905 69.9448 68.4374 70.8278C67.5842 71.7107 66.4271 72.2068 65.2206 72.2068ZM78.8683 72.2068C77.9685 72.2068 77.089 71.9306 76.3408 71.4133C75.5927 70.896 75.0096 70.1606 74.6653 69.3003C74.321 68.44 74.2309 67.4933 74.4064 66.58C74.582 65.6667 75.0152 64.8278 75.6515 64.1693C76.2877 63.5109 77.0983 63.0625 77.9808 62.8808C78.8632 62.6991 79.7779 62.7924 80.6092 63.1487C81.4404 63.5051 82.1509 64.1085 82.6508 64.8828C83.1507 65.6571 83.4175 66.5674 83.4175 67.4986C83.4175 68.7472 82.9382 69.9448 82.0851 70.8278C81.2319 71.7107 80.0748 72.2068 78.8683 72.2068Z" fill="#3E4671"/>
<path d="M145.069 74.9512C143.543 74.9512 142.164 74.6222 140.932 73.9642C139.714 73.3062 138.755 72.4032 138.055 71.2552C137.369 70.0932 137.026 68.7912 137.026 67.3492C137.026 65.9072 137.369 64.6122 138.055 63.4642C138.755 62.3022 139.714 61.3922 140.932 60.7342C142.164 60.0762 143.543 59.7472 145.069 59.7472C146.595 59.7472 147.967 60.0762 149.185 60.7342C150.403 61.3922 151.362 62.3022 152.062 63.4642C152.762 64.6122 153.112 65.9072 153.112 67.3492C153.112 68.7912 152.762 70.0932 152.062 71.2552C151.362 72.4032 150.403 73.3062 149.185 73.9642C147.967 74.6222 146.595 74.9512 145.069 74.9512ZM145.069 72.0532C145.937 72.0532 146.721 71.8572 147.421 71.4652C148.121 71.0592 148.667 70.4992 149.059 69.7852C149.465 69.0712 149.668 68.2592 149.668 67.3492C149.668 66.4392 149.465 65.6272 149.059 64.9132C148.667 64.1992 148.121 63.6462 147.421 63.2542C146.721 62.8482 145.937 62.6452 145.069 62.6452C144.201 62.6452 143.417 62.8482 142.717 63.2542C142.017 63.6462 141.464 64.1992 141.058 64.9132C140.666 65.6272 140.47 66.4392 140.47 67.3492C140.47 68.2592 140.666 69.0712 141.058 69.7852C141.464 70.4992 142.017 71.0592 142.717 71.4652C143.417 71.8572 144.201 72.0532 145.069 72.0532ZM162.305 63.2332C163.705 63.2332 164.832 63.6532 165.686 64.4932C166.554 65.3332 166.988 66.5792 166.988 68.2312V74.6992H163.712V68.7352C163.712 67.8392 163.516 67.1742 163.124 66.7402C162.732 66.2922 162.165 66.0682 161.423 66.0682C160.597 66.0682 159.939 66.3272 159.449 66.8452C158.959 67.3492 158.714 68.1052 158.714 69.1132V74.6992H155.438V63.4012H158.567V64.7242C159.001 64.2482 159.54 63.8842 160.184 63.6322C160.828 63.3662 161.535 63.2332 162.305 63.2332ZM169.537 67.4752H175.48V70.1002H169.537V67.4752ZM178.058 59.1172H181.334V74.6992H178.058V59.1172ZM184.374 63.4012H187.65V74.6992H184.374V63.4012ZM186.012 61.8262C185.41 61.8262 184.92 61.6512 184.542 61.3012C184.164 60.9512 183.975 60.5172 183.975 59.9992C183.975 59.4812 184.164 59.0472 184.542 58.6972C184.92 58.3472 185.41 58.1722 186.012 58.1722C186.614 58.1722 187.104 58.3402 187.482 58.6762C187.86 59.0122 188.049 59.4322 188.049 59.9362C188.049 60.4822 187.86 60.9372 187.482 61.3012C187.104 61.6512 186.614 61.8262 186.012 61.8262ZM197.557 63.2332C198.957 63.2332 200.084 63.6532 200.938 64.4932C201.806 65.3332 202.24 66.5792 202.24 68.2312V74.6992H198.964V68.7352C198.964 67.8392 198.768 67.1742 198.376 66.7402C197.984 66.2922 197.417 66.0682 196.675 66.0682C195.849 66.0682 195.191 66.3272 194.701 66.8452C194.211 67.3492 193.966 68.1052 193.966 69.1132V74.6992H190.69V63.4012H193.819V64.7242C194.253 64.2482 194.792 63.8842 195.436 63.6322C196.08 63.3662 196.787 63.2332 197.557 63.2332ZM216.4 69.0922C216.4 69.1342 216.379 69.4282 216.337 69.9742H207.79C207.944 70.6742 208.308 71.2272 208.882 71.6332C209.456 72.0392 210.17 72.2422 211.024 72.2422C211.612 72.2422 212.13 72.1582 212.578 71.9902C213.04 71.8082 213.467 71.5282 213.859 71.1502L215.602 73.0402C214.538 74.2582 212.984 74.8672 210.94 74.8672C209.666 74.8672 208.539 74.6222 207.559 74.1322C206.579 73.6282 205.823 72.9352 205.291 72.0532C204.759 71.1712 204.493 70.1702 204.493 69.0502C204.493 67.9442 204.752 66.9502 205.27 66.0682C205.802 65.1722 206.523 64.4792 207.433 63.9892C208.357 63.4852 209.386 63.2332 210.52 63.2332C211.626 63.2332 212.627 63.4712 213.523 63.9472C214.419 64.4232 215.119 65.1092 215.623 66.0052C216.141 66.8872 216.4 67.9162 216.4 69.0922ZM210.541 65.7112C209.799 65.7112 209.176 65.9212 208.672 66.3412C208.168 66.7612 207.86 67.3352 207.748 68.0632H213.313C213.201 67.3492 212.893 66.7822 212.389 66.3622C211.885 65.9282 211.269 65.7112 210.541 65.7112ZM224.591 63.4012H227.846V70.1212L233.348 63.4012H236.351V74.6992H233.096V67.9792L227.615 74.6992H224.591V63.4012ZM239.501 63.4012H242.756V67.8112H247.67V63.4012H250.946V74.6992H247.67V70.4782H242.756V74.6992H239.501V63.4012ZM269.685 69.0082C269.685 70.7582 269.097 72.1442 267.921 73.1662C266.759 74.1742 265.093 74.7552 262.923 74.9092V78.7732H259.92V74.9092C257.75 74.7552 256.077 74.1812 254.901 73.1872C253.739 72.1792 253.158 70.7862 253.158 69.0082C253.158 67.2582 253.732 65.9002 254.88 64.9342C256.042 63.9682 257.722 63.4082 259.92 63.2542V59.1172H262.923V63.2542C265.093 63.4082 266.759 63.9752 267.921 64.9552C269.097 65.9352 269.685 67.2862 269.685 69.0082ZM256.329 69.0082C256.329 70.0162 256.616 70.7932 257.19 71.3392C257.764 71.8852 258.674 72.2282 259.92 72.3682V65.7952C258.674 65.9212 257.764 66.2502 257.19 66.7822C256.616 67.3002 256.329 68.0422 256.329 69.0082ZM262.923 72.3682C264.169 72.2282 265.079 71.8852 265.653 71.3392C266.241 70.7932 266.535 70.0162 266.535 69.0082C266.535 68.0422 266.241 67.3002 265.653 66.7822C265.079 66.2502 264.169 65.9212 262.923 65.7952V72.3682ZM277.195 74.8672C276.005 74.8672 274.934 74.6222 273.982 74.1322C273.044 73.6282 272.309 72.9352 271.777 72.0532C271.245 71.1712 270.979 70.1702 270.979 69.0502C270.979 67.9302 271.245 66.9292 271.777 66.0472C272.309 65.1652 273.044 64.4792 273.982 63.9892C274.934 63.4852 276.005 63.2332 277.195 63.2332C278.385 63.2332 279.449 63.4852 280.387 63.9892C281.325 64.4792 282.06 65.1652 282.592 66.0472C283.124 66.9292 283.39 67.9302 283.39 69.0502C283.39 70.1702 283.124 71.1712 282.592 72.0532C282.06 72.9352 281.325 73.6282 280.387 74.1322C279.449 74.6222 278.385 74.8672 277.195 74.8672ZM277.195 72.1792C278.035 72.1792 278.721 71.8992 279.253 71.3392C279.799 70.7652 280.072 70.0022 280.072 69.0502C280.072 68.0982 279.799 67.3422 279.253 66.7822C278.721 66.2082 278.035 65.9212 277.195 65.9212C276.355 65.9212 275.662 66.2082 275.116 66.7822C274.57 67.3422 274.297 68.0982 274.297 69.0502C274.297 70.0022 274.57 70.7652 275.116 71.3392C275.662 71.8992 276.355 72.1792 277.195 72.1792ZM292.3 63.2332C293.35 63.2332 294.302 63.4782 295.156 63.9682C296.024 64.4442 296.703 65.1232 297.193 66.0052C297.683 66.8732 297.928 67.8882 297.928 69.0502C297.928 70.2122 297.683 71.2342 297.193 72.1162C296.703 72.9842 296.024 73.6632 295.156 74.1532C294.302 74.6292 293.35 74.8672 292.3 74.8672C290.858 74.8672 289.724 74.4122 288.898 73.5022V78.7732H285.622V63.4012H288.751V64.7032C289.563 63.7232 290.746 63.2332 292.3 63.2332ZM291.733 72.1792C292.573 72.1792 293.259 71.8992 293.791 71.3392C294.337 70.7652 294.61 70.0022 294.61 69.0502C294.61 68.0982 294.337 67.3422 293.791 66.7822C293.259 66.2082 292.573 65.9212 291.733 65.9212C290.893 65.9212 290.2 66.2082 289.654 66.7822C289.122 67.3422 288.856 68.0982 288.856 69.0502C288.856 70.0022 289.122 70.7652 289.654 71.3392C290.2 71.8992 290.893 72.1792 291.733 72.1792ZM311.249 74.6992V67.9372L307.868 73.6072H306.482L303.185 67.9162V74.6992H300.224V63.4012H303.647L307.259 69.9322L311.102 63.4012H314.168L314.21 74.6992H311.249ZM317.348 63.4012H320.603V70.1212L326.105 63.4012H329.108V74.6992H325.853V67.9792L320.372 74.6992H317.348V63.4012ZM338.914 63.2332C339.964 63.2332 340.916 63.4782 341.77 63.9682C342.638 64.4442 343.317 65.1232 343.807 66.0052C344.297 66.8732 344.542 67.8882 344.542 69.0502C344.542 70.2122 344.297 71.2342 343.807 72.1162C343.317 72.9842 342.638 73.6632 341.77 74.1532C340.916 74.6292 339.964 74.8672 338.914 74.8672C337.472 74.8672 336.338 74.4122 335.512 73.5022V78.7732H332.236V63.4012H335.365V64.7032C336.177 63.7232 337.36 63.2332 338.914 63.2332ZM338.347 72.1792C339.187 72.1792 339.873 71.8992 340.405 71.3392C340.951 70.7652 341.224 70.0022 341.224 69.0502C341.224 68.0982 340.951 67.3422 340.405 66.7822C339.873 66.2082 339.187 65.9212 338.347 65.9212C337.507 65.9212 336.814 66.2082 336.268 66.7822C335.736 67.3422 335.47 68.0982 335.47 69.0502C335.47 70.0022 335.736 70.7652 336.268 71.3392C336.814 71.8992 337.507 72.1792 338.347 72.1792ZM352.13 74.8672C350.94 74.8672 349.869 74.6222 348.917 74.1322C347.979 73.6282 347.244 72.9352 346.712 72.0532C346.18 71.1712 345.914 70.1702 345.914 69.0502C345.914 67.9302 346.18 66.9292 346.712 66.0472C347.244 65.1652 347.979 64.4792 348.917 63.9892C349.869 63.4852 350.94 63.2332 352.13 63.2332C353.32 63.2332 354.384 63.4852 355.322 63.9892C356.26 64.4792 356.995 65.1652 357.527 66.0472C358.059 66.9292 358.325 67.9302 358.325 69.0502C358.325 70.1702 358.059 71.1712 357.527 72.0532C356.995 72.9352 356.26 73.6282 355.322 74.1322C354.384 74.6222 353.32 74.8672 352.13 74.8672ZM352.13 72.1792C352.97 72.1792 353.656 71.8992 354.188 71.3392C354.734 70.7652 355.007 70.0022 355.007 69.0502C355.007 68.0982 354.734 67.3422 354.188 66.7822C353.656 66.2082 352.97 65.9212 352.13 65.9212C351.29 65.9212 350.597 66.2082 350.051 66.7822C349.505 67.3422 349.232 68.0982 349.232 69.0502C349.232 70.0022 349.505 70.7652 350.051 71.3392C350.597 71.8992 351.29 72.1792 352.13 72.1792ZM369.21 68.7982C370.54 69.2462 371.205 70.1422 371.205 71.4862C371.205 72.5082 370.82 73.2992 370.05 73.8592C369.28 74.4192 368.132 74.6992 366.606 74.6992H360.579V63.4012H366.354C367.768 63.4012 368.874 63.6602 369.672 64.1782C370.47 64.6822 370.869 65.3962 370.869 66.3202C370.869 66.8802 370.722 67.3772 370.428 67.8112C370.148 68.2312 369.742 68.5602 369.21 68.7982ZM363.582 68.0422H366.06C367.208 68.0422 367.782 67.6362 367.782 66.8242C367.782 66.0262 367.208 65.6272 366.06 65.6272H363.582V68.0422ZM366.333 72.4732C367.537 72.4732 368.139 72.0602 368.139 71.2342C368.139 70.8002 367.999 70.4852 367.719 70.2892C367.439 70.0792 366.998 69.9742 366.396 69.9742H363.582V72.4732H366.333ZM378.031 63.2332C379.781 63.2332 381.125 63.6532 382.063 64.4932C383.001 65.3192 383.47 66.5722 383.47 68.2522V74.6992H380.404V73.2922C379.788 74.3422 378.64 74.8672 376.96 74.8672C376.092 74.8672 375.336 74.7202 374.692 74.4262C374.062 74.1322 373.579 73.7262 373.243 73.2082C372.907 72.6902 372.739 72.1022 372.739 71.4442C372.739 70.3942 373.131 69.5682 373.915 68.9662C374.713 68.3642 375.938 68.0632 377.59 68.0632H380.194C380.194 67.3492 379.977 66.8032 379.543 66.4252C379.109 66.0332 378.458 65.8372 377.59 65.8372C376.988 65.8372 376.393 65.9352 375.805 66.1312C375.231 66.3132 374.741 66.5652 374.335 66.8872L373.159 64.5982C373.775 64.1642 374.51 63.8282 375.364 63.5902C376.232 63.3522 377.121 63.2332 378.031 63.2332ZM377.779 72.6622C378.339 72.6622 378.836 72.5362 379.27 72.2842C379.704 72.0182 380.012 71.6332 380.194 71.1292V69.9742H377.947C376.603 69.9742 375.931 70.4152 375.931 71.2972C375.931 71.7172 376.092 72.0532 376.414 72.3052C376.75 72.5432 377.205 72.6622 377.779 72.6622ZM386.316 63.4012H389.571V67.8112H394.485V63.4012H397.761V74.6992H394.485V70.4782H389.571V74.6992H386.316V63.4012ZM400.897 63.4012H404.152V70.1212L409.654 63.4012H412.657V74.6992H409.402V67.9792L403.921 74.6992H400.897V63.4012ZM426.789 69.0922C426.789 69.1342 426.768 69.4282 426.726 69.9742H418.179C418.333 70.6742 418.697 71.2272 419.271 71.6332C419.845 72.0392 420.559 72.2422 421.413 72.2422C422.001 72.2422 422.519 72.1582 422.967 71.9902C423.429 71.8082 423.856 71.5282 424.248 71.1502L425.991 73.0402C424.927 74.2582 423.373 74.8672 421.329 74.8672C420.055 74.8672 418.928 74.6222 417.948 74.1322C416.968 73.6282 416.212 72.9352 415.68 72.0532C415.148 71.1712 414.882 70.1702 414.882 69.0502C414.882 67.9442 415.141 66.9502 415.659 66.0682C416.191 65.1722 416.912 64.4792 417.822 63.9892C418.746 63.4852 419.775 63.2332 420.909 63.2332C422.015 63.2332 423.016 63.4712 423.912 63.9472C424.808 64.4232 425.508 65.1092 426.012 66.0052C426.53 66.8872 426.789 67.9162 426.789 69.0922ZM420.93 65.7112C420.188 65.7112 419.565 65.9212 419.061 66.3412C418.557 66.7612 418.249 67.3352 418.137 68.0632H423.702C423.59 67.3492 423.282 66.7822 422.778 66.3622C422.274 65.9282 421.658 65.7112 420.93 65.7112ZM440.225 70.4152H438.524V74.6992H435.248V63.4012H438.524V67.7902H440.288L443.354 63.4012H446.84L442.892 68.8192L447.113 74.6992H443.249L440.225 70.4152ZM459.557 63.4012V74.6992H456.281V66.0892H452.711L452.606 68.0842C452.55 69.5682 452.41 70.8002 452.186 71.7802C451.962 72.7602 451.598 73.5302 451.094 74.0902C450.59 74.6502 449.89 74.9302 448.994 74.9302C448.518 74.9302 447.951 74.8462 447.293 74.6782L447.461 71.9902C447.685 72.0182 447.846 72.0322 447.944 72.0322C448.434 72.0322 448.798 71.8572 449.036 71.5072C449.288 71.1432 449.456 70.6882 449.54 70.1422C449.624 69.5822 449.687 68.8472 449.729 67.9372L449.897 63.4012H459.557ZM462.708 63.4012H465.963V70.1212L471.465 63.4012H474.468V74.6992H471.213V67.9792L465.732 74.6992H462.708V63.4012ZM488.6 69.0922C488.6 69.1342 488.579 69.4282 488.537 69.9742H479.99C480.144 70.6742 480.508 71.2272 481.082 71.6332C481.656 72.0392 482.37 72.2422 483.224 72.2422C483.812 72.2422 484.33 72.1582 484.778 71.9902C485.24 71.8082 485.667 71.5282 486.059 71.1502L487.802 73.0402C486.738 74.2582 485.184 74.8672 483.14 74.8672C481.866 74.8672 480.739 74.6222 479.759 74.1322C478.779 73.6282 478.023 72.9352 477.491 72.0532C476.959 71.1712 476.693 70.1702 476.693 69.0502C476.693 67.9442 476.952 66.9502 477.47 66.0682C478.002 65.1722 478.723 64.4792 479.633 63.9892C480.557 63.4852 481.586 63.2332 482.72 63.2332C483.826 63.2332 484.827 63.4712 485.723 63.9472C486.619 64.4232 487.319 65.1092 487.823 66.0052C488.341 66.8872 488.6 67.9162 488.6 69.0922ZM482.741 65.7112C481.999 65.7112 481.376 65.9212 480.872 66.3412C480.368 66.7612 480.06 67.3352 479.948 68.0632H485.513C485.401 67.3492 485.093 66.7822 484.589 66.3622C484.085 65.9282 483.469 65.7112 482.741 65.7112ZM491.111 63.4012H494.366V67.8112H499.28V63.4012H502.556V74.6992H499.28V70.4782H494.366V74.6992H491.111V63.4012ZM515.184 66.0892H511.362V74.6992H508.107V66.0892H504.285V63.4012H515.184V66.0892ZM521.319 63.2332C523.069 63.2332 524.413 63.6532 525.351 64.4932C526.289 65.3192 526.758 66.5722 526.758 68.2522V74.6992H523.692V73.2922C523.076 74.3422 521.928 74.8672 520.248 74.8672C519.38 74.8672 518.624 74.7202 517.98 74.4262C517.35 74.1322 516.867 73.7262 516.531 73.2082C516.195 72.6902 516.027 72.1022 516.027 71.4442C516.027 70.3942 516.419 69.5682 517.203 68.9662C518.001 68.3642 519.226 68.0632 520.878 68.0632H523.482C523.482 67.3492 523.265 66.8032 522.831 66.4252C522.397 66.0332 521.746 65.8372 520.878 65.8372C520.276 65.8372 519.681 65.9352 519.093 66.1312C518.519 66.3132 518.029 66.5652 517.623 66.8872L516.447 64.5982C517.063 64.1642 517.798 63.8282 518.652 63.5902C519.52 63.3522 520.409 63.2332 521.319 63.2332ZM521.067 72.6622C521.627 72.6622 522.124 72.5362 522.558 72.2842C522.992 72.0182 523.3 71.6332 523.482 71.1292V69.9742H521.235C519.891 69.9742 519.219 70.4152 519.219 71.2972C519.219 71.7172 519.38 72.0532 519.702 72.3052C520.038 72.5432 520.493 72.6622 521.067 72.6622Z" fill="white"/>
</svg>
