<svg width="645" height="135" viewBox="0 0 645 135" fill="none" xmlns="http://www.w3.org/2000/svg">
<rect x="30.9888" y="17.1543" width="614.011" height="101.436" fill="#3E4671"/>
<path d="M133.614 67.5C133.614 103.666 104.16 133 67.8069 133C31.4542 133 2 103.666 2 67.5C2 31.3339 31.4542 2 67.8069 2C104.16 2 133.614 31.3339 133.614 67.5Z" fill="white" stroke="#3E4671" stroke-width="4"/>
<g clip-path="url(#clip0)">
<path d="M29.8052 67.4997C29.8052 57.5102 33.7697 47.9297 40.8265 40.866C47.8833 33.8023 57.4544 29.834 67.4343 29.834C77.4141 29.834 86.9852 33.8023 94.042 40.866C101.099 47.9297 105.063 57.5102 105.063 67.4997C105.063 77.4893 101.099 87.0697 94.042 94.1334C86.9852 101.197 77.4141 105.165 67.4343 105.165C57.4544 105.165 47.8833 101.197 40.8265 94.1334C33.7697 87.0697 29.8052 77.4893 29.8052 67.4997ZM65.0824 34.9047C61.931 35.8652 58.8031 38.7655 56.2067 43.6385C55.3512 45.2586 54.6155 46.9392 54.0054 48.6669H65.0824V34.9047ZM49.043 48.6669C49.827 46.1659 50.8345 43.7408 52.0534 41.4209C52.8667 39.8816 53.8059 38.4123 54.8614 37.0281C49.0337 39.4474 44.0196 43.486 40.4119 48.6669H49.043ZM46.3055 65.1456C46.4466 61.0165 46.9546 57.0569 47.7731 53.3751H37.6791C35.9252 57.0713 34.8786 61.0636 34.5935 65.1456H46.3055ZM52.6037 53.3751C51.6786 57.2349 51.1459 61.1785 51.0139 65.1456H65.0824V53.3751H52.6037ZM69.7861 53.3751V65.1456H83.8499C83.7196 61.1786 83.1885 57.235 82.2648 53.3751H69.7861ZM51.0186 69.8538C51.1491 73.8208 51.6801 77.7644 52.6037 81.6244H65.0824V69.8538H51.0186ZM69.7861 69.8538V81.6244H82.2648C83.1444 78.0226 83.7041 74.0536 83.8546 69.8538H69.7861ZM54.0054 86.3326C54.6545 88.15 55.3929 89.8355 56.2067 91.361C58.8031 96.234 61.9357 99.1295 65.0824 100.095V86.3326H54.0054ZM54.8614 97.9713C53.8058 96.5872 52.8666 95.1179 52.0534 93.5785C50.8345 91.2586 49.827 88.8335 49.043 86.3326H40.4119C44.0194 91.5136 49.0335 95.5523 54.8614 97.9713ZM47.7731 81.6244C46.9225 77.7545 46.4312 73.8142 46.3055 69.8538H34.5935C34.8851 74.0442 35.9622 78.0132 37.6791 81.6244H47.7731ZM80.0071 97.9713C85.835 95.5523 90.8491 91.5136 94.4566 86.3326H85.8255C85.0414 88.8335 84.0339 91.2586 82.8151 93.5785C82.0021 95.118 81.0628 96.5873 80.0071 97.9713ZM69.7861 86.3326V100.095C72.9375 99.1342 76.0654 96.234 78.6618 91.361C79.4756 89.8355 80.214 88.15 80.8631 86.3326H69.7861ZM87.0954 81.6244H97.1894C98.9063 78.0132 99.9834 74.0442 100.275 69.8538H88.563C88.4374 73.8142 87.9461 77.7545 87.0954 81.6244ZM100.275 65.1456C99.9898 61.0637 98.9432 57.0713 97.1894 53.3751H87.0954C87.9139 57.0569 88.4219 61.0165 88.563 65.1456H100.275ZM82.8151 41.4209C83.9769 43.6055 84.9882 46.035 85.8255 48.6669H94.4566C90.8491 43.4859 85.835 39.4471 80.0071 37.0281C81.0325 38.3653 81.9732 39.8437 82.8151 41.4209ZM80.8631 48.6669C80.2531 46.9392 79.5173 45.2585 78.6618 43.6385C76.0654 38.7655 72.9375 35.8699 69.7861 34.9047V48.6669H80.8631Z" fill="#3E4671"/>
</g>
<path d="M149.309 78.6827C147.811 78.6827 146.453 78.3607 145.235 77.7167C144.031 77.0587 143.079 76.1557 142.379 75.0077C141.693 73.8457 141.35 72.5367 141.35 71.0807C141.35 69.6247 141.693 68.3227 142.379 67.1747C143.079 66.0127 144.031 65.1097 145.235 64.4657C146.453 63.8077 147.818 63.4787 149.33 63.4787C150.604 63.4787 151.752 63.7027 152.774 64.1507C153.81 64.5987 154.678 65.2427 155.378 66.0827L153.194 68.0987C152.2 66.9507 150.968 66.3767 149.498 66.3767C148.588 66.3767 147.776 66.5797 147.062 66.9857C146.348 67.3777 145.788 67.9307 145.382 68.6447C144.99 69.3587 144.794 70.1707 144.794 71.0807C144.794 71.9907 144.99 72.8027 145.382 73.5167C145.788 74.2307 146.348 74.7907 147.062 75.1967C147.776 75.5887 148.588 75.7847 149.498 75.7847C150.968 75.7847 152.2 75.2037 153.194 74.0417L155.378 76.0577C154.678 76.9117 153.81 77.5627 152.774 78.0107C151.738 78.4587 150.583 78.6827 149.309 78.6827ZM167.936 72.8237C167.936 72.8657 167.915 73.1597 167.873 73.7057H159.326C159.48 74.4057 159.844 74.9587 160.418 75.3647C160.992 75.7707 161.706 75.9737 162.56 75.9737C163.148 75.9737 163.666 75.8897 164.114 75.7217C164.576 75.5397 165.003 75.2597 165.395 74.8817L167.138 76.7717C166.074 77.9897 164.52 78.5987 162.476 78.5987C161.202 78.5987 160.075 78.3537 159.095 77.8637C158.115 77.3597 157.359 76.6667 156.827 75.7847C156.295 74.9027 156.029 73.9017 156.029 72.7817C156.029 71.6757 156.288 70.6817 156.806 69.7997C157.338 68.9037 158.059 68.2107 158.969 67.7207C159.893 67.2167 160.922 66.9647 162.056 66.9647C163.162 66.9647 164.163 67.2027 165.059 67.6787C165.955 68.1547 166.655 68.8407 167.159 69.7367C167.677 70.6187 167.936 71.6477 167.936 72.8237ZM162.077 69.4427C161.335 69.4427 160.712 69.6527 160.208 70.0727C159.704 70.4927 159.396 71.0667 159.284 71.7947H164.849C164.737 71.0807 164.429 70.5137 163.925 70.0937C163.421 69.6597 162.805 69.4427 162.077 69.4427ZM179.55 69.8207H175.728V78.4307H172.473V69.8207H168.651V67.1327H179.55V69.8207ZM187.407 70.7447C188.877 70.7587 190.004 71.0947 190.788 71.7527C191.572 72.3967 191.964 73.3137 191.964 74.5037C191.964 75.7497 191.523 76.7227 190.641 77.4227C189.773 78.1087 188.548 78.4517 186.966 78.4517L181.296 78.4307V67.1327H184.551V70.7447H187.407ZM186.672 76.1207C187.302 76.1347 187.785 76.0017 188.121 75.7217C188.457 75.4417 188.625 75.0217 188.625 74.4617C188.625 73.9157 188.457 73.5167 188.121 73.2647C187.799 73.0127 187.316 72.8797 186.672 72.8657L184.551 72.8447V76.1207H186.672ZM215.561 72.7397C215.561 74.4897 214.973 75.8757 213.797 76.8977C212.635 77.9057 210.969 78.4867 208.799 78.6407V82.5047H205.796V78.6407C203.626 78.4867 201.953 77.9127 200.777 76.9187C199.615 75.9107 199.034 74.5177 199.034 72.7397C199.034 70.9897 199.608 69.6317 200.756 68.6657C201.918 67.6997 203.598 67.1397 205.796 66.9857V62.8487H208.799V66.9857C210.969 67.1397 212.635 67.7067 213.797 68.6867C214.973 69.6667 215.561 71.0177 215.561 72.7397ZM202.205 72.7397C202.205 73.7477 202.492 74.5247 203.066 75.0707C203.64 75.6167 204.55 75.9597 205.796 76.0997V69.5267C204.55 69.6527 203.64 69.9817 203.066 70.5137C202.492 71.0317 202.205 71.7737 202.205 72.7397ZM208.799 76.0997C210.045 75.9597 210.955 75.6167 211.529 75.0707C212.117 74.5247 212.411 73.7477 212.411 72.7397C212.411 71.7737 212.117 71.0317 211.529 70.5137C210.955 69.9817 210.045 69.6527 208.799 69.5267V76.0997ZM217.78 67.1327H221.035V73.8527L226.537 67.1327H229.54V78.4307H226.285V71.7107L220.804 78.4307H217.78V67.1327ZM243.525 67.1327V78.4307H240.249V69.8207H236.679L236.574 71.8157C236.518 73.2997 236.378 74.5317 236.154 75.5117C235.93 76.4917 235.566 77.2617 235.062 77.8217C234.558 78.3817 233.858 78.6617 232.962 78.6617C232.486 78.6617 231.919 78.5777 231.261 78.4097L231.429 75.7217C231.653 75.7497 231.814 75.7637 231.912 75.7637C232.402 75.7637 232.766 75.5887 233.004 75.2387C233.256 74.8747 233.424 74.4197 233.508 73.8737C233.592 73.3137 233.655 72.5787 233.697 71.6687L233.865 67.1327H243.525ZM246.675 67.1327H249.93V73.8527L255.432 67.1327H258.435V78.4307H255.18V71.7107L249.699 78.4307H246.675V67.1327ZM265.973 66.9647C267.723 66.9647 269.067 67.3847 270.005 68.2247C270.943 69.0507 271.412 70.3037 271.412 71.9837V78.4307H268.346V77.0237C267.73 78.0737 266.582 78.5987 264.902 78.5987C264.034 78.5987 263.278 78.4517 262.634 78.1577C262.004 77.8637 261.521 77.4577 261.185 76.9397C260.849 76.4217 260.681 75.8337 260.681 75.1757C260.681 74.1257 261.073 73.2997 261.857 72.6977C262.655 72.0957 263.88 71.7947 265.532 71.7947H268.136C268.136 71.0807 267.919 70.5347 267.485 70.1567C267.051 69.7647 266.4 69.5687 265.532 69.5687C264.93 69.5687 264.335 69.6667 263.747 69.8627C263.173 70.0447 262.683 70.2967 262.277 70.6187L261.101 68.3297C261.717 67.8957 262.452 67.5597 263.306 67.3217C264.174 67.0837 265.063 66.9647 265.973 66.9647ZM265.721 76.3937C266.281 76.3937 266.778 76.2677 267.212 76.0157C267.646 75.7497 267.954 75.3647 268.136 74.8607V73.7057H265.889C264.545 73.7057 263.873 74.1467 263.873 75.0287C263.873 75.4487 264.034 75.7847 264.356 76.0367C264.692 76.2747 265.147 76.3937 265.721 76.3937ZM285.094 67.1327V78.4307H281.818V69.8207H278.248L278.143 71.8157C278.087 73.2997 277.947 74.5317 277.723 75.5117C277.499 76.4917 277.135 77.2617 276.631 77.8217C276.127 78.3817 275.427 78.6617 274.531 78.6617C274.055 78.6617 273.488 78.5777 272.83 78.4097L272.998 75.7217C273.222 75.7497 273.383 75.7637 273.481 75.7637C273.971 75.7637 274.335 75.5887 274.573 75.2387C274.825 74.8747 274.993 74.4197 275.077 73.8737C275.161 73.3137 275.224 72.5787 275.266 71.6687L275.434 67.1327H285.094ZM293.536 78.5987C292.346 78.5987 291.275 78.3537 290.323 77.8637C289.385 77.3597 288.65 76.6667 288.118 75.7847C287.586 74.9027 287.32 73.9017 287.32 72.7817C287.32 71.6617 287.586 70.6607 288.118 69.7787C288.65 68.8967 289.385 68.2107 290.323 67.7207C291.275 67.2167 292.346 66.9647 293.536 66.9647C294.726 66.9647 295.79 67.2167 296.728 67.7207C297.666 68.2107 298.401 68.8967 298.933 69.7787C299.465 70.6607 299.731 71.6617 299.731 72.7817C299.731 73.9017 299.465 74.9027 298.933 75.7847C298.401 76.6667 297.666 77.3597 296.728 77.8637C295.79 78.3537 294.726 78.5987 293.536 78.5987ZM293.536 75.9107C294.376 75.9107 295.062 75.6307 295.594 75.0707C296.14 74.4967 296.413 73.7337 296.413 72.7817C296.413 71.8297 296.14 71.0737 295.594 70.5137C295.062 69.9397 294.376 69.6527 293.536 69.6527C292.696 69.6527 292.003 69.9397 291.457 70.5137C290.911 71.0737 290.638 71.8297 290.638 72.7817C290.638 73.7337 290.911 74.4967 291.457 75.0707C292.003 75.6307 292.696 75.9107 293.536 75.9107ZM310.616 72.5297C311.946 72.9777 312.611 73.8737 312.611 75.2177C312.611 76.2397 312.226 77.0307 311.456 77.5907C310.686 78.1507 309.538 78.4307 308.012 78.4307H301.985V67.1327H307.76C309.174 67.1327 310.28 67.3917 311.078 67.9097C311.876 68.4137 312.275 69.1277 312.275 70.0517C312.275 70.6117 312.128 71.1087 311.834 71.5427C311.554 71.9627 311.148 72.2917 310.616 72.5297ZM304.988 71.7737H307.466C308.614 71.7737 309.188 71.3677 309.188 70.5557C309.188 69.7577 308.614 69.3587 307.466 69.3587H304.988V71.7737ZM307.739 76.2047C308.943 76.2047 309.545 75.7917 309.545 74.9657C309.545 74.5317 309.405 74.2167 309.125 74.0207C308.845 73.8107 308.404 73.7057 307.802 73.7057H304.988V76.2047H307.739ZM328.324 72.5507C328.996 72.7607 329.514 73.0827 329.878 73.5167C330.256 73.9507 330.445 74.4687 330.445 75.0707C330.445 75.7847 330.2 76.4147 329.71 76.9607C329.22 77.4927 328.548 77.9057 327.694 78.1997C326.84 78.4937 325.874 78.6407 324.796 78.6407C323.914 78.6407 323.046 78.5497 322.192 78.3677C321.338 78.1857 320.547 77.9127 319.819 77.5487L320.701 75.2597C321.891 75.8337 323.207 76.1207 324.649 76.1207C325.419 76.1207 326.021 76.0087 326.455 75.7847C326.903 75.5467 327.127 75.2177 327.127 74.7977C327.127 74.4337 326.973 74.1607 326.665 73.9787C326.357 73.7827 325.909 73.6847 325.321 73.6847H323.011V71.6477H325.027C325.601 71.6477 326.042 71.5567 326.35 71.3747C326.658 71.1927 326.812 70.9267 326.812 70.5767C326.812 70.2127 326.616 69.9327 326.224 69.7367C325.846 69.5407 325.3 69.4427 324.586 69.4427C323.494 69.4427 322.304 69.7017 321.016 70.2197L320.218 67.9517C321.786 67.2657 323.312 66.9227 324.796 66.9227C325.818 66.9227 326.728 67.0487 327.526 67.3007C328.338 67.5527 328.975 67.9237 329.437 68.4137C329.899 68.8897 330.13 69.4497 330.13 70.0937C330.13 70.6257 329.969 71.1087 329.647 71.5427C329.325 71.9627 328.884 72.2987 328.324 72.5507ZM337.217 66.9647C338.967 66.9647 340.311 67.3847 341.249 68.2247C342.187 69.0507 342.656 70.3037 342.656 71.9837V78.4307H339.59V77.0237C338.974 78.0737 337.826 78.5987 336.146 78.5987C335.278 78.5987 334.522 78.4517 333.878 78.1577C333.248 77.8637 332.765 77.4577 332.429 76.9397C332.093 76.4217 331.925 75.8337 331.925 75.1757C331.925 74.1257 332.317 73.2997 333.101 72.6977C333.899 72.0957 335.124 71.7947 336.776 71.7947H339.38C339.38 71.0807 339.163 70.5347 338.729 70.1567C338.295 69.7647 337.644 69.5687 336.776 69.5687C336.174 69.5687 335.579 69.6667 334.991 69.8627C334.417 70.0447 333.927 70.2967 333.521 70.6187L332.345 68.3297C332.961 67.8957 333.696 67.5597 334.55 67.3217C335.418 67.0837 336.307 66.9647 337.217 66.9647ZM336.965 76.3937C337.525 76.3937 338.022 76.2677 338.456 76.0157C338.89 75.7497 339.198 75.3647 339.38 74.8607V73.7057H337.133C335.789 73.7057 335.117 74.1467 335.117 75.0287C335.117 75.4487 335.278 75.7847 335.6 76.0367C335.936 76.2747 336.391 76.3937 336.965 76.3937ZM360.501 69.8207H354.705V78.4307H351.45V67.1327H360.501V69.8207ZM368.894 66.9647C369.944 66.9647 370.896 67.2097 371.75 67.6997C372.618 68.1757 373.297 68.8547 373.787 69.7367C374.277 70.6047 374.522 71.6197 374.522 72.7817C374.522 73.9437 374.277 74.9657 373.787 75.8477C373.297 76.7157 372.618 77.3947 371.75 77.8847C370.896 78.3607 369.944 78.5987 368.894 78.5987C367.452 78.5987 366.318 78.1437 365.492 77.2337V82.5047H362.216V67.1327H365.345V68.4347C366.157 67.4547 367.34 66.9647 368.894 66.9647ZM368.327 75.9107C369.167 75.9107 369.853 75.6307 370.385 75.0707C370.931 74.4967 371.204 73.7337 371.204 72.7817C371.204 71.8297 370.931 71.0737 370.385 70.5137C369.853 69.9397 369.167 69.6527 368.327 69.6527C367.487 69.6527 366.794 69.9397 366.248 70.5137C365.716 71.0737 365.45 71.8297 365.45 72.7817C365.45 73.7337 365.716 74.4967 366.248 75.0707C366.794 75.6307 367.487 75.9107 368.327 75.9107ZM381.022 66.9647C382.772 66.9647 384.116 67.3847 385.054 68.2247C385.992 69.0507 386.461 70.3037 386.461 71.9837V78.4307H383.395V77.0237C382.779 78.0737 381.631 78.5987 379.951 78.5987C379.083 78.5987 378.327 78.4517 377.683 78.1577C377.053 77.8637 376.57 77.4577 376.234 76.9397C375.898 76.4217 375.73 75.8337 375.73 75.1757C375.73 74.1257 376.122 73.2997 376.906 72.6977C377.704 72.0957 378.929 71.7947 380.581 71.7947H383.185C383.185 71.0807 382.968 70.5347 382.534 70.1567C382.1 69.7647 381.449 69.5687 380.581 69.5687C379.979 69.5687 379.384 69.6667 378.796 69.8627C378.222 70.0447 377.732 70.2967 377.326 70.6187L376.15 68.3297C376.766 67.8957 377.501 67.5597 378.355 67.3217C379.223 67.0837 380.112 66.9647 381.022 66.9647ZM380.77 76.3937C381.33 76.3937 381.827 76.2677 382.261 76.0157C382.695 75.7497 383.003 75.3647 383.185 74.8607V73.7057H380.938C379.594 73.7057 378.922 74.1467 378.922 75.0287C378.922 75.4487 379.083 75.7847 379.405 76.0367C379.741 76.2747 380.196 76.3937 380.77 76.3937ZM389.307 67.1327H392.562V71.5427H397.476V67.1327H400.752V78.4307H397.476V74.2097H392.562V78.4307H389.307V67.1327ZM403.888 67.1327H407.143V73.8527L412.645 67.1327H415.648V78.4307H412.393V71.7107L406.912 78.4307H403.888V67.1327ZM431.523 75.7427V80.9087H428.478V78.4307H418.797V67.1327H422.052V75.7427H426.609V67.1327H429.885V75.7427H431.523ZM444.566 72.8237C444.566 72.8657 444.545 73.1597 444.503 73.7057H435.956C436.11 74.4057 436.474 74.9587 437.048 75.3647C437.622 75.7707 438.336 75.9737 439.19 75.9737C439.778 75.9737 440.296 75.8897 440.744 75.7217C441.206 75.5397 441.633 75.2597 442.025 74.8817L443.768 76.7717C442.704 77.9897 441.15 78.5987 439.106 78.5987C437.832 78.5987 436.705 78.3537 435.725 77.8637C434.745 77.3597 433.989 76.6667 433.457 75.7847C432.925 74.9027 432.659 73.9017 432.659 72.7817C432.659 71.6757 432.918 70.6817 433.436 69.7997C433.968 68.9037 434.689 68.2107 435.599 67.7207C436.523 67.2167 437.552 66.9647 438.686 66.9647C439.792 66.9647 440.793 67.2027 441.689 67.6787C442.585 68.1547 443.285 68.8407 443.789 69.7367C444.307 70.6187 444.566 71.6477 444.566 72.8237ZM438.707 69.4427C437.965 69.4427 437.342 69.6527 436.838 70.0727C436.334 70.4927 436.026 71.0667 435.914 71.7947H441.479C441.367 71.0807 441.059 70.5137 440.555 70.0937C440.051 69.6597 439.435 69.4427 438.707 69.4427ZM447.077 67.1327H450.332V73.8527L455.834 67.1327H458.837V78.4307H455.582V71.7107L450.101 78.4307H447.077V67.1327ZM452.747 65.9147C450.283 65.9147 449.044 64.8297 449.03 62.6597H451.172C451.186 63.1497 451.319 63.5347 451.571 63.8147C451.837 64.0807 452.222 64.2137 452.726 64.2137C453.23 64.2137 453.615 64.0807 453.881 63.8147C454.161 63.5347 454.301 63.1497 454.301 62.6597H456.485C456.471 64.8297 455.225 65.9147 452.747 65.9147Z" fill="white"/>
<defs>
<clipPath id="clip0">
<rect width="75.2582" height="75.3315" fill="white" transform="translate(29.8052 29.834)"/>
</clipPath>
</defs>
</svg>
