<svg width="645" height="135" viewBox="0 0 645 135" fill="none" xmlns="http://www.w3.org/2000/svg">
<rect x="30.9888" y="17.1543" width="614.011" height="101.436" fill="#3E4671"/>
<path d="M133.614 67.5C133.614 103.666 104.16 133 67.8069 133C31.4542 133 2 103.666 2 67.5C2 31.3339 31.4542 2 67.8069 2C104.16 2 133.614 31.3339 133.614 67.5Z" fill="white" stroke="#3E4671" stroke-width="4"/>
<g clip-path="url(#clip0)">
<path d="M29.8052 67.4997C29.8052 57.5102 33.7697 47.9297 40.8265 40.866C47.8833 33.8023 57.4544 29.834 67.4343 29.834C77.4141 29.834 86.9852 33.8023 94.042 40.866C101.099 47.9297 105.063 57.5102 105.063 67.4997C105.063 77.4893 101.099 87.0697 94.042 94.1334C86.9852 101.197 77.4141 105.165 67.4343 105.165C57.4544 105.165 47.8833 101.197 40.8265 94.1334C33.7697 87.0697 29.8052 77.4893 29.8052 67.4997ZM65.0824 34.9047C61.931 35.8652 58.8031 38.7655 56.2067 43.6385C55.3512 45.2586 54.6155 46.9392 54.0054 48.6669H65.0824V34.9047ZM49.043 48.6669C49.827 46.1659 50.8345 43.7408 52.0534 41.4209C52.8667 39.8816 53.8059 38.4123 54.8614 37.0281C49.0337 39.4474 44.0196 43.486 40.4119 48.6669H49.043ZM46.3055 65.1456C46.4466 61.0165 46.9546 57.0569 47.7731 53.3751H37.6791C35.9252 57.0713 34.8786 61.0636 34.5935 65.1456H46.3055ZM52.6037 53.3751C51.6786 57.2349 51.1459 61.1785 51.0139 65.1456H65.0824V53.3751H52.6037ZM69.7861 53.3751V65.1456H83.8499C83.7196 61.1786 83.1885 57.235 82.2648 53.3751H69.7861ZM51.0186 69.8538C51.1491 73.8208 51.6801 77.7644 52.6037 81.6244H65.0824V69.8538H51.0186ZM69.7861 69.8538V81.6244H82.2648C83.1444 78.0226 83.7041 74.0536 83.8546 69.8538H69.7861ZM54.0054 86.3326C54.6545 88.15 55.3929 89.8355 56.2067 91.361C58.8031 96.234 61.9357 99.1295 65.0824 100.095V86.3326H54.0054ZM54.8614 97.9713C53.8058 96.5872 52.8666 95.1179 52.0534 93.5785C50.8345 91.2586 49.827 88.8335 49.043 86.3326H40.4119C44.0194 91.5136 49.0335 95.5523 54.8614 97.9713ZM47.7731 81.6244C46.9225 77.7545 46.4312 73.8142 46.3055 69.8538H34.5935C34.8851 74.0442 35.9622 78.0132 37.6791 81.6244H47.7731ZM80.0071 97.9713C85.835 95.5523 90.8491 91.5136 94.4566 86.3326H85.8255C85.0414 88.8335 84.0339 91.2586 82.8151 93.5785C82.0021 95.118 81.0628 96.5873 80.0071 97.9713ZM69.7861 86.3326V100.095C72.9375 99.1342 76.0654 96.234 78.6618 91.361C79.4756 89.8355 80.214 88.15 80.8631 86.3326H69.7861ZM87.0954 81.6244H97.1894C98.9063 78.0132 99.9834 74.0442 100.275 69.8538H88.563C88.4374 73.8142 87.9461 77.7545 87.0954 81.6244ZM100.275 65.1456C99.9898 61.0637 98.9432 57.0713 97.1894 53.3751H87.0954C87.9139 57.0569 88.4219 61.0165 88.563 65.1456H100.275ZM82.8151 41.4209C83.9769 43.6055 84.9882 46.035 85.8255 48.6669H94.4566C90.8491 43.4859 85.835 39.4471 80.0071 37.0281C81.0325 38.3653 81.9732 39.8437 82.8151 41.4209ZM80.8631 48.6669C80.2531 46.9392 79.5173 45.2585 78.6618 43.6385C76.0654 38.7655 72.9375 35.8699 69.7861 34.9047V48.6669H80.8631Z" fill="#3E4671"/>
</g>
<path d="M155.735 78.4307L155.714 69.6317L151.388 76.8767H149.876L145.55 69.7997V78.4307H142.358V63.7307H145.172L150.674 72.8657L156.092 63.7307H158.906L158.927 78.4307H155.735ZM173.309 72.8237C173.309 72.8657 173.288 73.1597 173.246 73.7057H164.699C164.853 74.4057 165.217 74.9587 165.791 75.3647C166.365 75.7707 167.079 75.9737 167.933 75.9737C168.521 75.9737 169.039 75.8897 169.487 75.7217C169.949 75.5397 170.376 75.2597 170.768 74.8817L172.511 76.7717C171.447 77.9897 169.893 78.5987 167.849 78.5987C166.575 78.5987 165.448 78.3537 164.468 77.8637C163.488 77.3597 162.732 76.6667 162.2 75.7847C161.668 74.9027 161.402 73.9017 161.402 72.7817C161.402 71.6757 161.661 70.6817 162.179 69.7997C162.711 68.9037 163.432 68.2107 164.342 67.7207C165.266 67.2167 166.295 66.9647 167.429 66.9647C168.535 66.9647 169.536 67.2027 170.432 67.6787C171.328 68.1547 172.028 68.8407 172.532 69.7367C173.05 70.6187 173.309 71.6477 173.309 72.8237ZM167.45 69.4427C166.708 69.4427 166.085 69.6527 165.581 70.0727C165.077 70.4927 164.769 71.0667 164.657 71.7947H170.222C170.11 71.0807 169.802 70.5137 169.298 70.0937C168.794 69.6597 168.178 69.4427 167.45 69.4427ZM182.478 66.9647C183.528 66.9647 184.48 67.2097 185.334 67.6997C186.202 68.1757 186.881 68.8547 187.371 69.7367C187.861 70.6047 188.106 71.6197 188.106 72.7817C188.106 73.9437 187.861 74.9657 187.371 75.8477C186.881 76.7157 186.202 77.3947 185.334 77.8847C184.48 78.3607 183.528 78.5987 182.478 78.5987C181.036 78.5987 179.902 78.1437 179.076 77.2337V82.5047H175.8V67.1327H178.929V68.4347C179.741 67.4547 180.924 66.9647 182.478 66.9647ZM181.911 75.9107C182.751 75.9107 183.437 75.6307 183.969 75.0707C184.515 74.4967 184.788 73.7337 184.788 72.7817C184.788 71.8297 184.515 71.0737 183.969 70.5137C183.437 69.9397 182.751 69.6527 181.911 69.6527C181.071 69.6527 180.378 69.9397 179.832 70.5137C179.3 71.0737 179.034 71.8297 179.034 72.7817C179.034 73.7337 179.3 74.4967 179.832 75.0707C180.378 75.6307 181.071 75.9107 181.911 75.9107ZM201.385 72.8237C201.385 72.8657 201.364 73.1597 201.322 73.7057H192.775C192.929 74.4057 193.293 74.9587 193.867 75.3647C194.441 75.7707 195.155 75.9737 196.009 75.9737C196.597 75.9737 197.115 75.8897 197.563 75.7217C198.025 75.5397 198.452 75.2597 198.844 74.8817L200.587 76.7717C199.523 77.9897 197.969 78.5987 195.925 78.5987C194.651 78.5987 193.524 78.3537 192.544 77.8637C191.564 77.3597 190.808 76.6667 190.276 75.7847C189.744 74.9027 189.478 73.9017 189.478 72.7817C189.478 71.6757 189.737 70.6817 190.255 69.7997C190.787 68.9037 191.508 68.2107 192.418 67.7207C193.342 67.2167 194.371 66.9647 195.505 66.9647C196.611 66.9647 197.612 67.2027 198.508 67.6787C199.404 68.1547 200.104 68.8407 200.608 69.7367C201.126 70.6187 201.385 71.6477 201.385 72.8237ZM195.526 69.4427C194.784 69.4427 194.161 69.6527 193.657 70.0727C193.153 70.4927 192.845 71.0667 192.733 71.7947H198.298C198.186 71.0807 197.878 70.5137 197.374 70.0937C196.87 69.6597 196.254 69.4427 195.526 69.4427ZM214.781 74.1467H213.206V78.4307H209.972V74.1467H208.397L206.003 78.4307H202.139L205.688 72.5927L202.391 67.1327H205.856L208.355 71.5217H209.972V67.1327H213.206V71.5217H214.802L217.322 67.1327H220.787L217.49 72.5927L221.06 78.4307H217.175L214.781 74.1467ZM226.947 66.9647C228.697 66.9647 230.041 67.3847 230.979 68.2247C231.917 69.0507 232.386 70.3037 232.386 71.9837V78.4307H229.32V77.0237C228.704 78.0737 227.556 78.5987 225.876 78.5987C225.008 78.5987 224.252 78.4517 223.608 78.1577C222.978 77.8637 222.495 77.4577 222.159 76.9397C221.823 76.4217 221.655 75.8337 221.655 75.1757C221.655 74.1257 222.047 73.2997 222.831 72.6977C223.629 72.0957 224.854 71.7947 226.506 71.7947H229.11C229.11 71.0807 228.893 70.5347 228.459 70.1567C228.025 69.7647 227.374 69.5687 226.506 69.5687C225.904 69.5687 225.309 69.6667 224.721 69.8627C224.147 70.0447 223.657 70.2967 223.251 70.6187L222.075 68.3297C222.691 67.8957 223.426 67.5597 224.28 67.3217C225.148 67.0837 226.037 66.9647 226.947 66.9647ZM226.695 76.3937C227.255 76.3937 227.752 76.2677 228.186 76.0157C228.62 75.7497 228.928 75.3647 229.11 74.8607V73.7057H226.863C225.519 73.7057 224.847 74.1467 224.847 75.0287C224.847 75.4487 225.008 75.7847 225.33 76.0367C225.666 76.2747 226.121 76.3937 226.695 76.3937ZM256.782 72.7397C256.782 74.4897 256.194 75.8757 255.018 76.8977C253.856 77.9057 252.19 78.4867 250.02 78.6407V82.5047H247.017V78.6407C244.847 78.4867 243.174 77.9127 241.998 76.9187C240.836 75.9107 240.255 74.5177 240.255 72.7397C240.255 70.9897 240.829 69.6317 241.977 68.6657C243.139 67.6997 244.819 67.1397 247.017 66.9857V62.8487H250.02V66.9857C252.19 67.1397 253.856 67.7067 255.018 68.6867C256.194 69.6667 256.782 71.0177 256.782 72.7397ZM243.426 72.7397C243.426 73.7477 243.713 74.5247 244.287 75.0707C244.861 75.6167 245.771 75.9597 247.017 76.0997V69.5267C245.771 69.6527 244.861 69.9817 244.287 70.5137C243.713 71.0317 243.426 71.7737 243.426 72.7397ZM250.02 76.0997C251.266 75.9597 252.176 75.6167 252.75 75.0707C253.338 74.5247 253.632 73.7477 253.632 72.7397C253.632 71.7737 253.338 71.0317 252.75 70.5137C252.176 69.9817 251.266 69.6527 250.02 69.5267V76.0997ZM258.979 67.1327H262.255V78.4307H258.979V67.1327ZM260.617 65.5577C260.015 65.5577 259.525 65.3827 259.147 65.0327C258.769 64.6827 258.58 64.2487 258.58 63.7307C258.58 63.2127 258.769 62.7787 259.147 62.4287C259.525 62.0787 260.015 61.9037 260.617 61.9037C261.219 61.9037 261.709 62.0717 262.087 62.4077C262.465 62.7437 262.654 63.1637 262.654 63.6677C262.654 64.2137 262.465 64.6687 262.087 65.0327C261.709 65.3827 261.219 65.5577 260.617 65.5577ZM276.235 67.1327V78.4307H272.959V69.8207H269.389L269.284 71.8157C269.228 73.2997 269.088 74.5317 268.864 75.5117C268.64 76.4917 268.276 77.2617 267.772 77.8217C267.268 78.3817 266.568 78.6617 265.672 78.6617C265.196 78.6617 264.629 78.5777 263.971 78.4097L264.139 75.7217C264.363 75.7497 264.524 75.7637 264.622 75.7637C265.112 75.7637 265.476 75.5887 265.714 75.2387C265.966 74.8747 266.134 74.4197 266.218 73.8737C266.302 73.3137 266.365 72.5787 266.407 71.6687L266.575 67.1327H276.235ZM279.364 67.1327H282.64V78.4307H279.364V67.1327ZM281.002 65.5577C280.4 65.5577 279.91 65.3827 279.532 65.0327C279.154 64.6827 278.965 64.2487 278.965 63.7307C278.965 63.2127 279.154 62.7787 279.532 62.4287C279.91 62.0787 280.4 61.9037 281.002 61.9037C281.604 61.9037 282.094 62.0717 282.472 62.4077C282.85 62.7437 283.039 63.1637 283.039 63.6677C283.039 64.2137 282.85 64.6687 282.472 65.0327C282.094 65.3827 281.604 65.5577 281.002 65.5577ZM285.783 67.1327H289.038V73.8527L294.54 67.1327H297.543V78.4307H294.288V71.7107L288.807 78.4307H285.783V67.1327ZM291.453 65.9147C288.989 65.9147 287.75 64.8297 287.736 62.6597H289.878C289.892 63.1497 290.025 63.5347 290.277 63.8147C290.543 64.0807 290.928 64.2137 291.432 64.2137C291.936 64.2137 292.321 64.0807 292.587 63.8147C292.867 63.5347 293.007 63.1497 293.007 62.6597H295.191C295.177 64.8297 293.931 65.9147 291.453 65.9147ZM313.969 72.5507C314.641 72.7607 315.159 73.0827 315.523 73.5167C315.901 73.9507 316.09 74.4687 316.09 75.0707C316.09 75.7847 315.845 76.4147 315.355 76.9607C314.865 77.4927 314.193 77.9057 313.339 78.1997C312.485 78.4937 311.519 78.6407 310.441 78.6407C309.559 78.6407 308.691 78.5497 307.837 78.3677C306.983 78.1857 306.192 77.9127 305.464 77.5487L306.346 75.2597C307.536 75.8337 308.852 76.1207 310.294 76.1207C311.064 76.1207 311.666 76.0087 312.1 75.7847C312.548 75.5467 312.772 75.2177 312.772 74.7977C312.772 74.4337 312.618 74.1607 312.31 73.9787C312.002 73.7827 311.554 73.6847 310.966 73.6847H308.656V71.6477H310.672C311.246 71.6477 311.687 71.5567 311.995 71.3747C312.303 71.1927 312.457 70.9267 312.457 70.5767C312.457 70.2127 312.261 69.9327 311.869 69.7367C311.491 69.5407 310.945 69.4427 310.231 69.4427C309.139 69.4427 307.949 69.7017 306.661 70.2197L305.863 67.9517C307.431 67.2657 308.957 66.9227 310.441 66.9227C311.463 66.9227 312.373 67.0487 313.171 67.3007C313.983 67.5527 314.62 67.9237 315.082 68.4137C315.544 68.8897 315.775 69.4497 315.775 70.0937C315.775 70.6257 315.614 71.1087 315.292 71.5427C314.97 71.9627 314.529 72.2987 313.969 72.5507ZM322.862 66.9647C324.612 66.9647 325.956 67.3847 326.894 68.2247C327.832 69.0507 328.301 70.3037 328.301 71.9837V78.4307H325.235V77.0237C324.619 78.0737 323.471 78.5987 321.791 78.5987C320.923 78.5987 320.167 78.4517 319.523 78.1577C318.893 77.8637 318.41 77.4577 318.074 76.9397C317.738 76.4217 317.57 75.8337 317.57 75.1757C317.57 74.1257 317.962 73.2997 318.746 72.6977C319.544 72.0957 320.769 71.7947 322.421 71.7947H325.025C325.025 71.0807 324.808 70.5347 324.374 70.1567C323.94 69.7647 323.289 69.5687 322.421 69.5687C321.819 69.5687 321.224 69.6667 320.636 69.8627C320.062 70.0447 319.572 70.2967 319.166 70.6187L317.99 68.3297C318.606 67.8957 319.341 67.5597 320.195 67.3217C321.063 67.0837 321.952 66.9647 322.862 66.9647ZM322.61 76.3937C323.17 76.3937 323.667 76.2677 324.101 76.0157C324.535 75.7497 324.843 75.3647 325.025 74.8607V73.7057H322.778C321.434 73.7057 320.762 74.1467 320.762 75.0287C320.762 75.4487 320.923 75.7847 321.245 76.0367C321.581 76.2747 322.036 76.3937 322.61 76.3937ZM342.071 74.1467H340.37V78.4307H337.094V67.1327H340.37V71.5217H342.134L345.2 67.1327H348.686L344.738 72.5507L348.959 78.4307H345.095L342.071 74.1467ZM355.511 78.5987C354.321 78.5987 353.25 78.3537 352.298 77.8637C351.36 77.3597 350.625 76.6667 350.093 75.7847C349.561 74.9027 349.295 73.9017 349.295 72.7817C349.295 71.6617 349.561 70.6607 350.093 69.7787C350.625 68.8967 351.36 68.2107 352.298 67.7207C353.25 67.2167 354.321 66.9647 355.511 66.9647C356.701 66.9647 357.765 67.2167 358.703 67.7207C359.641 68.2107 360.376 68.8967 360.908 69.7787C361.44 70.6607 361.706 71.6617 361.706 72.7817C361.706 73.9017 361.44 74.9027 360.908 75.7847C360.376 76.6667 359.641 77.3597 358.703 77.8637C357.765 78.3537 356.701 78.5987 355.511 78.5987ZM355.511 75.9107C356.351 75.9107 357.037 75.6307 357.569 75.0707C358.115 74.4967 358.388 73.7337 358.388 72.7817C358.388 71.8297 358.115 71.0737 357.569 70.5137C357.037 69.9397 356.351 69.6527 355.511 69.6527C354.671 69.6527 353.978 69.9397 353.432 70.5137C352.886 71.0737 352.613 71.8297 352.613 72.7817C352.613 73.7337 352.886 74.4967 353.432 75.0707C353.978 75.6307 354.671 75.9107 355.511 75.9107ZM370.616 66.9647C371.666 66.9647 372.618 67.2097 373.472 67.6997C374.34 68.1757 375.019 68.8547 375.509 69.7367C375.999 70.6047 376.244 71.6197 376.244 72.7817C376.244 73.9437 375.999 74.9657 375.509 75.8477C375.019 76.7157 374.34 77.3947 373.472 77.8847C372.618 78.3607 371.666 78.5987 370.616 78.5987C369.174 78.5987 368.04 78.1437 367.214 77.2337V82.5047H363.938V67.1327H367.067V68.4347C367.879 67.4547 369.062 66.9647 370.616 66.9647ZM370.049 75.9107C370.889 75.9107 371.575 75.6307 372.107 75.0707C372.653 74.4967 372.926 73.7337 372.926 72.7817C372.926 71.8297 372.653 71.0737 372.107 70.5137C371.575 69.9397 370.889 69.6527 370.049 69.6527C369.209 69.6527 368.516 69.9397 367.97 70.5137C367.438 71.0737 367.172 71.8297 367.172 72.7817C367.172 73.7337 367.438 74.4967 367.97 75.0707C368.516 75.6307 369.209 75.9107 370.049 75.9107ZM391.039 75.7427V80.8667H387.994V78.4307H380.056V80.8667H377.011V75.7427H377.473C378.173 75.7287 378.656 75.3157 378.922 74.5037C379.188 73.6917 379.356 72.5367 379.426 71.0387L379.573 67.1327H389.422V75.7427H391.039ZM382.387 71.2697C382.345 72.4177 382.254 73.3557 382.114 74.0837C381.988 74.8117 381.743 75.3647 381.379 75.7427H386.146V69.8207H382.45L382.387 71.2697ZM398.393 78.5987C397.203 78.5987 396.132 78.3537 395.18 77.8637C394.242 77.3597 393.507 76.6667 392.975 75.7847C392.443 74.9027 392.177 73.9017 392.177 72.7817C392.177 71.6617 392.443 70.6607 392.975 69.7787C393.507 68.8967 394.242 68.2107 395.18 67.7207C396.132 67.2167 397.203 66.9647 398.393 66.9647C399.583 66.9647 400.647 67.2167 401.585 67.7207C402.523 68.2107 403.258 68.8967 403.79 69.7787C404.322 70.6607 404.588 71.6617 404.588 72.7817C404.588 73.9017 404.322 74.9027 403.79 75.7847C403.258 76.6667 402.523 77.3597 401.585 77.8637C400.647 78.3537 399.583 78.5987 398.393 78.5987ZM398.393 75.9107C399.233 75.9107 399.919 75.6307 400.451 75.0707C400.997 74.4967 401.27 73.7337 401.27 72.7817C401.27 71.8297 400.997 71.0737 400.451 70.5137C399.919 69.9397 399.233 69.6527 398.393 69.6527C397.553 69.6527 396.86 69.9397 396.314 70.5137C395.768 71.0737 395.495 71.8297 395.495 72.7817C395.495 73.7337 395.768 74.4967 396.314 75.0707C396.86 75.6307 397.553 75.9107 398.393 75.9107ZM406.841 67.1327H410.096V71.5427H415.01V67.1327H418.286V78.4307H415.01V74.2097H410.096V78.4307H406.841V67.1327ZM426.714 78.5987C425.524 78.5987 424.453 78.3537 423.501 77.8637C422.563 77.3597 421.828 76.6667 421.296 75.7847C420.764 74.9027 420.498 73.9017 420.498 72.7817C420.498 71.6617 420.764 70.6607 421.296 69.7787C421.828 68.8967 422.563 68.2107 423.501 67.7207C424.453 67.2167 425.524 66.9647 426.714 66.9647C427.904 66.9647 428.968 67.2167 429.906 67.7207C430.844 68.2107 431.579 68.8967 432.111 69.7787C432.643 70.6607 432.909 71.6617 432.909 72.7817C432.909 73.9017 432.643 74.9027 432.111 75.7847C431.579 76.6667 430.844 77.3597 429.906 77.8637C428.968 78.3537 427.904 78.5987 426.714 78.5987ZM426.714 75.9107C427.554 75.9107 428.24 75.6307 428.772 75.0707C429.318 74.4967 429.591 73.7337 429.591 72.7817C429.591 71.8297 429.318 71.0737 428.772 70.5137C428.24 69.9397 427.554 69.6527 426.714 69.6527C425.874 69.6527 425.181 69.9397 424.635 70.5137C424.089 71.0737 423.816 71.8297 423.816 72.7817C423.816 73.7337 424.089 74.4967 424.635 75.0707C425.181 75.6307 425.874 75.9107 426.714 75.9107ZM446.187 78.4307V71.6687L442.806 77.3387H441.42L438.123 71.6477V78.4307H435.162V67.1327H438.585L442.197 73.6637L446.04 67.1327H449.106L449.148 78.4307H446.187Z" fill="white"/>
<defs>
<clipPath id="clip0">
<rect width="75.2582" height="75.3315" fill="white" transform="translate(29.8052 29.834)"/>
</clipPath>
</defs>
</svg>
