<svg width="645" height="135" viewBox="0 0 645 135" fill="none" xmlns="http://www.w3.org/2000/svg">
<rect x="32.5386" y="17.1543" width="612.316" height="101.436" fill="#3E4671"/>
<path d="M137.716 67.5C137.716 103.61 107.4 133 69.8582 133C32.3158 133 2 103.61 2 67.5C2 31.3895 32.3158 2 69.8582 2C107.4 2 137.716 31.3895 137.716 67.5Z" fill="white" stroke="#3E4671" stroke-width="4"/>
<g clip-path="url(#clip0)">
<path d="M98.5495 79.6483C98.6737 79.4053 98.738 79.1375 98.7371 78.8662C98.7363 78.5949 98.6704 78.3274 98.5447 78.0852L96.2235 74.7988C96.1799 74.7376 96.1556 74.667 96.1556 74.587C96.1556 74.5069 96.1799 74.4363 96.2235 74.3751L98.5495 71.0793C98.6737 70.8363 98.738 70.5685 98.7371 70.2972C98.7363 70.0259 98.6704 69.7585 98.5447 69.5162C98.4482 69.261 98.2961 69.0292 98.0987 68.8366C97.9012 68.644 97.6633 68.4951 97.401 68.4004L93.4128 66.9832C93.3392 66.9588 93.2735 66.9159 93.2224 66.8588C93.1714 66.8018 93.1367 66.7326 93.1221 66.6583V62.6987C93.1067 62.4186 93.0247 62.1457 92.8826 61.9015C92.7406 61.6572 92.5422 61.4483 92.3031 61.2909C91.9734 61.072 91.5831 60.9554 91.1837 60.9567H90.3599L86.2409 61.9925C86.1305 62.0357 86.0072 62.0357 85.8968 61.9925L83.2364 58.9321C83.0421 58.727 82.8062 58.5632 82.5434 58.4511C82.2807 58.3391 81.9969 58.2812 81.7099 58.2812C81.423 58.2812 81.1392 58.3391 80.8764 58.4511C80.6137 58.5632 80.3777 58.727 80.1835 58.9321L77.5182 61.9925C77.4078 62.0357 77.2845 62.0357 77.1741 61.9925H77.179L72.8176 60.9096H72.2943C71.8904 60.9084 71.4954 61.0248 71.1603 61.2439C70.9233 61.4017 70.7267 61.6103 70.5855 61.8535C70.4444 62.0967 70.3625 62.3682 70.3462 62.6469V66.6065C70.3323 66.6809 70.2986 66.7505 70.2485 66.8083C70.1983 66.8661 70.1334 66.9102 70.0603 66.9361L66.0818 68.3486C65.6268 68.4208 65.2127 68.6472 64.9129 68.9875C64.6131 69.3279 64.447 69.7603 64.4439 70.2083C64.4439 70.4908 64.5117 70.7592 64.6329 70.9946L66.9541 74.2809C66.9977 74.3421 67.0219 74.4128 67.0219 74.4928C67.0219 74.5728 66.9977 74.6435 66.9541 74.7047L64.628 78.0004C64.5038 78.2434 64.4396 78.5112 64.4404 78.7825C64.4413 79.0539 64.5072 79.3213 64.6329 79.5635C64.7293 79.8187 64.8815 80.0506 65.0789 80.2432C65.2763 80.4358 65.5143 80.5846 65.7765 80.6794L69.7647 82.0966C69.8384 82.121 69.9041 82.1639 69.9551 82.2209C70.0062 82.278 70.0408 82.3472 70.0555 82.4214V86.3811C70.0709 86.6612 70.1528 86.9341 70.2949 87.1783C70.437 87.4225 70.6353 87.6315 70.8744 87.7888C71.2095 88.0078 71.6045 88.1243 72.0084 88.1231H72.8225L74.3247 87.7935V105.167L81.739 95.7504L88.8625 105.167V87.7935L90.3648 88.1702H90.9366C91.3404 88.1713 91.7354 88.0549 92.0705 87.8359C92.3076 87.678 92.5042 87.4695 92.6453 87.2262C92.7865 86.983 92.8683 86.7116 92.8846 86.4328V82.4732C92.8985 82.3988 92.9322 82.3293 92.9824 82.2714C93.0326 82.2136 93.0974 82.1696 93.1705 82.1437L97.1491 80.7312C97.4527 80.6729 97.7379 80.5458 97.9812 80.36C98.2246 80.1743 98.4194 79.9352 98.5495 79.6624V79.6483Z" fill="#3E4671"/>
<path d="M30.7069 34.542V91.0406H69.4743L68.9413 90.8052C68.2511 90.346 67.6783 89.7393 67.2667 89.0318C66.8551 88.3242 66.6157 87.5345 66.5668 86.7232V86.3324H35.5528V39.2502H103.396V86.3324H96.4662V86.709C96.4191 87.5194 96.1826 88.3086 95.7745 89.0167C95.3664 89.7249 94.7975 90.3333 94.111 90.7958L93.704 91.0406H108.242V34.542H30.7069Z" fill="#3E4671"/>
<path d="M66.7121 62.3679C66.728 61.525 66.9498 60.6978 67.3592 59.9545C67.7687 59.2113 68.3541 58.5732 69.0672 58.0928C69.2019 58.0585 69.3429 58.0553 69.4791 58.0834H45.2446V62.7916H66.7121V62.3679Z" fill="#3E4671"/>
<path d="M61.8177 67.5H45.2446V72.2082H61.527C61.1933 71.608 60.9999 70.9436 60.9605 70.2625C60.9212 69.5814 61.0368 68.9002 61.2992 68.2674C61.3764 67.9615 61.5595 67.6905 61.8177 67.5Z" fill="#3E4671"/>
<path d="M45.2446 48.667H93.7039V53.3752H45.2446V48.667Z" fill="#3E4671"/>
</g>
<path d="M162.079 62.2329V68.0499H158.929V65.0049H148.555V68.0499H145.405L145.426 62.2329H146.014C146.896 62.2049 147.519 61.5609 147.883 60.3009C148.247 59.0409 148.471 57.2419 148.555 54.9039L148.723 50.3049H160.021V62.2329H162.079ZM151.558 55.2189C151.488 56.9689 151.341 58.4389 151.117 59.6289C150.893 60.8049 150.55 61.6729 150.088 62.2329H156.661V53.0769H151.621L151.558 55.2189ZM164.117 53.7069H167.372V60.4269L172.874 53.7069H175.877V65.0049H172.622V58.2849L167.141 65.0049H164.117V53.7069ZM190.261 53.7069V65.0049H186.985V56.3949H182.281V65.0049H179.026V53.7069H190.261ZM204.238 53.7069V65.0049H200.962V56.3949H197.392L197.287 58.3899C197.231 59.8739 197.091 61.1059 196.867 62.0859C196.643 63.0659 196.279 63.8359 195.775 64.3959C195.271 64.9559 194.571 65.2359 193.675 65.2359C193.199 65.2359 192.632 65.1519 191.974 64.9839L192.142 62.2959C192.366 62.3239 192.527 62.3379 192.625 62.3379C193.115 62.3379 193.479 62.1629 193.717 61.8129C193.969 61.4489 194.137 60.9939 194.221 60.4479C194.305 59.8879 194.368 59.1529 194.41 58.2429L194.578 53.7069H204.238ZM212.681 65.1729C211.491 65.1729 210.42 64.9279 209.468 64.4379C208.53 63.9339 207.795 63.2409 207.263 62.3589C206.731 61.4769 206.465 60.4759 206.465 59.3559C206.465 58.2359 206.731 57.2349 207.263 56.3529C207.795 55.4709 208.53 54.7849 209.468 54.2949C210.42 53.7909 211.491 53.5389 212.681 53.5389C213.871 53.5389 214.935 53.7909 215.873 54.2949C216.811 54.7849 217.546 55.4709 218.078 56.3529C218.61 57.2349 218.876 58.2359 218.876 59.3559C218.876 60.4759 218.61 61.4769 218.078 62.3589C217.546 63.2409 216.811 63.9339 215.873 64.4379C214.935 64.9279 213.871 65.1729 212.681 65.1729ZM212.681 62.4849C213.521 62.4849 214.207 62.2049 214.739 61.6449C215.285 61.0709 215.558 60.3079 215.558 59.3559C215.558 58.4039 215.285 57.6479 214.739 57.0879C214.207 56.5139 213.521 56.2269 212.681 56.2269C211.841 56.2269 211.148 56.5139 210.602 57.0879C210.056 57.6479 209.783 58.4039 209.783 59.3559C209.783 60.3079 210.056 61.0709 210.602 61.6449C211.148 62.2049 211.841 62.4849 212.681 62.4849ZM232.154 65.0049V58.2429L228.773 63.9129H227.387L224.09 58.2219V65.0049H221.129V53.7069H224.552L228.164 60.2379L232.007 53.7069H235.073L235.115 65.0049H232.154ZM238.253 53.7069H241.508V60.4269L247.01 53.7069H250.013V65.0049H246.758V58.2849L241.277 65.0049H238.253V53.7069ZM259.819 53.5389C260.869 53.5389 261.821 53.7839 262.675 54.2739C263.543 54.7499 264.222 55.4289 264.712 56.3109C265.202 57.1789 265.447 58.1939 265.447 59.3559C265.447 60.5179 265.202 61.5399 264.712 62.4219C264.222 63.2899 263.543 63.9689 262.675 64.4589C261.821 64.9349 260.869 65.1729 259.819 65.1729C258.377 65.1729 257.243 64.7179 256.417 63.8079V69.0789H253.141V53.7069H256.27V55.0089C257.082 54.0289 258.265 53.5389 259.819 53.5389ZM259.252 62.4849C260.092 62.4849 260.778 62.2049 261.31 61.6449C261.856 61.0709 262.129 60.3079 262.129 59.3559C262.129 58.4039 261.856 57.6479 261.31 57.0879C260.778 56.5139 260.092 56.2269 259.252 56.2269C258.412 56.2269 257.719 56.5139 257.173 57.0879C256.641 57.6479 256.375 58.4039 256.375 59.3559C256.375 60.3079 256.641 61.0709 257.173 61.6449C257.719 62.2049 258.412 62.4849 259.252 62.4849ZM273.035 65.1729C271.845 65.1729 270.774 64.9279 269.822 64.4379C268.884 63.9339 268.149 63.2409 267.617 62.3589C267.085 61.4769 266.819 60.4759 266.819 59.3559C266.819 58.2359 267.085 57.2349 267.617 56.3529C268.149 55.4709 268.884 54.7849 269.822 54.2949C270.774 53.7909 271.845 53.5389 273.035 53.5389C274.225 53.5389 275.289 53.7909 276.227 54.2949C277.165 54.7849 277.9 55.4709 278.432 56.3529C278.964 57.2349 279.23 58.2359 279.23 59.3559C279.23 60.4759 278.964 61.4769 278.432 62.3589C277.9 63.2409 277.165 63.9339 276.227 64.4379C275.289 64.9279 274.225 65.1729 273.035 65.1729ZM273.035 62.4849C273.875 62.4849 274.561 62.2049 275.093 61.6449C275.639 61.0709 275.912 60.3079 275.912 59.3559C275.912 58.4039 275.639 57.6479 275.093 57.0879C274.561 56.5139 273.875 56.2269 273.035 56.2269C272.195 56.2269 271.502 56.5139 270.956 57.0879C270.41 57.6479 270.137 58.4039 270.137 59.3559C270.137 60.3079 270.41 61.0709 270.956 61.6449C271.502 62.2049 272.195 62.4849 273.035 62.4849ZM290.114 59.1039C291.444 59.5519 292.109 60.4479 292.109 61.7919C292.109 62.8139 291.724 63.6049 290.954 64.1649C290.184 64.7249 289.036 65.0049 287.51 65.0049H281.483V53.7069H287.258C288.672 53.7069 289.778 53.9659 290.576 54.4839C291.374 54.9879 291.773 55.7019 291.773 56.6259C291.773 57.1859 291.626 57.6829 291.332 58.1169C291.052 58.5369 290.646 58.8659 290.114 59.1039ZM284.486 58.3479H286.964C288.112 58.3479 288.686 57.9419 288.686 57.1299C288.686 56.3319 288.112 55.9329 286.964 55.9329H284.486V58.3479ZM287.237 62.7789C288.441 62.7789 289.043 62.3659 289.043 61.5399C289.043 61.1059 288.903 60.7909 288.623 60.5949C288.343 60.3849 287.902 60.2799 287.3 60.2799H284.486V62.7789H287.237ZM298.936 53.5389C300.686 53.5389 302.03 53.9589 302.968 54.7989C303.906 55.6249 304.375 56.8779 304.375 58.5579V65.0049H301.309V63.5979C300.693 64.6479 299.545 65.1729 297.865 65.1729C296.997 65.1729 296.241 65.0259 295.597 64.7319C294.967 64.4379 294.484 64.0319 294.148 63.5139C293.812 62.9959 293.644 62.4079 293.644 61.7499C293.644 60.6999 294.036 59.8739 294.82 59.2719C295.618 58.6699 296.843 58.3689 298.495 58.3689H301.099C301.099 57.6549 300.882 57.1089 300.448 56.7309C300.014 56.3389 299.363 56.1429 298.495 56.1429C297.893 56.1429 297.298 56.2409 296.71 56.4369C296.136 56.6189 295.646 56.8709 295.24 57.1929L294.064 54.9039C294.68 54.4699 295.415 54.1339 296.269 53.8959C297.137 53.6579 298.026 53.5389 298.936 53.5389ZM298.684 62.9679C299.244 62.9679 299.741 62.8419 300.175 62.5899C300.609 62.3239 300.917 61.9389 301.099 61.4349V60.2799H298.852C297.508 60.2799 296.836 60.7209 296.836 61.6029C296.836 62.0229 296.997 62.3589 297.319 62.6109C297.655 62.8489 298.11 62.9679 298.684 62.9679ZM307.221 53.7069H310.476V58.1169H315.39V53.7069H318.666V65.0049H315.39V60.7839H310.476V65.0049H307.221V53.7069ZM321.802 53.7069H325.057V58.1169H329.971V53.7069H333.247V65.0049H329.971V60.7839H325.057V65.0049H321.802V53.7069ZM342.326 57.3189C343.796 57.3329 344.909 57.6619 345.665 58.3059C346.421 58.9499 346.799 59.8739 346.799 61.0779C346.799 62.3379 346.372 63.3109 345.518 63.9969C344.664 64.6829 343.453 65.0259 341.885 65.0259L336.383 65.0049V53.7069H339.638V57.3189H342.326ZM348.017 53.7069H351.272V65.0049H348.017V53.7069ZM341.591 62.6949C342.221 62.7089 342.704 62.5759 343.04 62.2959C343.376 62.0159 343.544 61.5959 343.544 61.0359C343.544 60.4899 343.376 60.0909 343.04 59.8389C342.718 59.5869 342.235 59.4539 341.591 59.4399L339.638 59.4189V62.6949H341.591ZM365.413 59.3979C365.413 59.4399 365.392 59.7339 365.35 60.2799H356.803C356.957 60.9799 357.321 61.5329 357.895 61.9389C358.469 62.3449 359.183 62.5479 360.037 62.5479C360.625 62.5479 361.143 62.4639 361.591 62.2959C362.053 62.1139 362.48 61.8339 362.872 61.4559L364.615 63.3459C363.551 64.5639 361.997 65.1729 359.953 65.1729C358.679 65.1729 357.552 64.9279 356.572 64.4379C355.592 63.9339 354.836 63.2409 354.304 62.3589C353.772 61.4769 353.506 60.4759 353.506 59.3559C353.506 58.2499 353.765 57.2559 354.283 56.3739C354.815 55.4779 355.536 54.7849 356.446 54.2949C357.37 53.7909 358.399 53.5389 359.533 53.5389C360.639 53.5389 361.64 53.7769 362.536 54.2529C363.432 54.7289 364.132 55.4149 364.636 56.3109C365.154 57.1929 365.413 58.2219 365.413 59.3979ZM359.554 56.0169C358.812 56.0169 358.189 56.2269 357.685 56.6469C357.181 57.0669 356.873 57.6409 356.761 58.3689H362.326C362.214 57.6549 361.906 57.0879 361.402 56.6679C360.898 56.2339 360.282 56.0169 359.554 56.0169ZM377.693 53.4969C378.911 53.4969 379.996 53.7489 380.948 54.2529C381.914 54.7429 382.67 55.4359 383.216 56.3319C383.762 57.2279 384.035 58.2359 384.035 59.3559C384.035 60.4759 383.762 61.4839 383.216 62.3799C382.67 63.2759 381.914 63.9759 380.948 64.4799C379.996 64.9699 378.911 65.2149 377.693 65.2149C376.615 65.2149 375.635 65.0399 374.753 64.6899C373.885 64.3259 373.164 63.8079 372.59 63.1359L374.459 61.3719C375.313 62.2539 376.349 62.6949 377.567 62.6949C378.379 62.6949 379.079 62.4919 379.667 62.0859C380.255 61.6799 380.654 61.1269 380.864 60.4269H376.118V58.1799H380.822C380.598 57.5079 380.199 56.9759 379.625 56.5839C379.051 56.1919 378.365 55.9959 377.567 55.9959C376.363 55.9959 375.327 56.4439 374.459 57.3399L372.59 55.5969C373.164 54.9109 373.885 54.3929 374.753 54.0429C375.635 53.6789 376.615 53.4969 377.693 53.4969ZM391.235 60.7209H389.534V65.0049H386.258V53.7069H389.534V58.0959H391.298L394.364 53.7069H397.85L393.902 59.1249L398.123 65.0049H394.259L391.235 60.7209ZM404.759 65.1729C403.555 65.1729 402.47 64.9279 401.504 64.4379C400.552 63.9339 399.803 63.2409 399.257 62.3589C398.725 61.4769 398.459 60.4759 398.459 59.3559C398.459 58.2359 398.725 57.2349 399.257 56.3529C399.803 55.4709 400.552 54.7849 401.504 54.2949C402.47 53.7909 403.555 53.5389 404.759 53.5389C405.949 53.5389 406.985 53.7909 407.867 54.2949C408.763 54.7849 409.414 55.4919 409.82 56.4159L407.279 57.7809C406.691 56.7449 405.844 56.2269 404.738 56.2269C403.884 56.2269 403.177 56.5069 402.617 57.0669C402.057 57.6269 401.777 58.3899 401.777 59.3559C401.777 60.3219 402.057 61.0849 402.617 61.6449C403.177 62.2049 403.884 62.4849 404.738 62.4849C405.858 62.4849 406.705 61.9669 407.279 60.9309L409.82 62.3169C409.414 63.2129 408.763 63.9129 407.867 64.4169C406.985 64.9209 405.949 65.1729 404.759 65.1729ZM423.045 53.7069V65.0049H419.769V56.3949H415.065V65.0049H411.81V53.7069H423.045ZM437.169 59.3979C437.169 59.4399 437.148 59.7339 437.106 60.2799H428.559C428.713 60.9799 429.077 61.5329 429.651 61.9389C430.225 62.3449 430.939 62.5479 431.793 62.5479C432.381 62.5479 432.899 62.4639 433.347 62.2959C433.809 62.1139 434.236 61.8339 434.628 61.4559L436.371 63.3459C435.307 64.5639 433.753 65.1729 431.709 65.1729C430.435 65.1729 429.308 64.9279 428.328 64.4379C427.348 63.9339 426.592 63.2409 426.06 62.3589C425.528 61.4769 425.262 60.4759 425.262 59.3559C425.262 58.2499 425.521 57.2559 426.039 56.3739C426.571 55.4779 427.292 54.7849 428.202 54.2949C429.126 53.7909 430.155 53.5389 431.289 53.5389C432.395 53.5389 433.396 53.7769 434.292 54.2529C435.188 54.7289 435.888 55.4149 436.392 56.3109C436.91 57.1929 437.169 58.2219 437.169 59.3979ZM431.31 56.0169C430.568 56.0169 429.945 56.2269 429.441 56.6469C428.937 57.0669 428.629 57.6409 428.517 58.3689H434.082C433.97 57.6549 433.662 57.0879 433.158 56.6679C432.654 56.2339 432.038 56.0169 431.31 56.0169ZM446.338 53.5389C447.388 53.5389 448.34 53.7839 449.194 54.2739C450.062 54.7499 450.741 55.4289 451.231 56.3109C451.721 57.1789 451.966 58.1939 451.966 59.3559C451.966 60.5179 451.721 61.5399 451.231 62.4219C450.741 63.2899 450.062 63.9689 449.194 64.4589C448.34 64.9349 447.388 65.1729 446.338 65.1729C444.896 65.1729 443.762 64.7179 442.936 63.8079V69.0789H439.66V53.7069H442.789V55.0089C443.601 54.0289 444.784 53.5389 446.338 53.5389ZM445.771 62.4849C446.611 62.4849 447.297 62.2049 447.829 61.6449C448.375 61.0709 448.648 60.3079 448.648 59.3559C448.648 58.4039 448.375 57.6479 447.829 57.0879C447.297 56.5139 446.611 56.2269 445.771 56.2269C444.931 56.2269 444.238 56.5139 443.692 57.0879C443.16 57.6479 442.894 58.4039 442.894 59.3559C442.894 60.3079 443.16 61.0709 443.692 61.6449C444.238 62.2049 444.931 62.4849 445.771 62.4849ZM463.343 56.3949H459.521V65.0049H456.266V56.3949H452.444V53.7069H463.343V56.3949ZM471.033 57.3189C472.503 57.3329 473.616 57.6619 474.372 58.3059C475.128 58.9499 475.506 59.8739 475.506 61.0779C475.506 62.3379 475.079 63.3109 474.225 63.9969C473.371 64.6829 472.16 65.0259 470.592 65.0259L465.09 65.0049V53.7069H468.345V57.3189H471.033ZM476.724 53.7069H479.979V65.0049H476.724V53.7069ZM470.298 62.6949C470.928 62.7089 471.411 62.5759 471.747 62.2959C472.083 62.0159 472.251 61.5959 472.251 61.0359C472.251 60.4899 472.083 60.0909 471.747 59.8389C471.425 59.5869 470.942 59.4539 470.298 59.4399L468.345 59.4189V62.6949H470.298ZM489.084 53.7069H492.339V60.4269L497.841 53.7069H500.844V65.0049H497.589V58.2849L492.108 65.0049H489.084V53.7069ZM152.041 91.1729C150.837 91.1729 149.752 90.9279 148.786 90.4379C147.834 89.9339 147.085 89.2409 146.539 88.3589C146.007 87.4769 145.741 86.4759 145.741 85.3559C145.741 84.2359 146.007 83.2349 146.539 82.3529C147.085 81.4709 147.834 80.7849 148.786 80.2949C149.752 79.7909 150.837 79.5389 152.041 79.5389C153.231 79.5389 154.267 79.7909 155.149 80.2949C156.045 80.7849 156.696 81.4919 157.102 82.4159L154.561 83.7809C153.973 82.7449 153.126 82.2269 152.02 82.2269C151.166 82.2269 150.459 82.5069 149.899 83.0669C149.339 83.6269 149.059 84.3899 149.059 85.3559C149.059 86.3219 149.339 87.0849 149.899 87.6449C150.459 88.2049 151.166 88.4849 152.02 88.4849C153.14 88.4849 153.987 87.9669 154.561 86.9309L157.102 88.3169C156.696 89.2129 156.045 89.9129 155.149 90.4169C154.267 90.9209 153.231 91.1729 152.041 91.1729ZM164.241 91.1729C163.051 91.1729 161.98 90.9279 161.028 90.4379C160.09 89.9339 159.355 89.2409 158.823 88.3589C158.291 87.4769 158.025 86.4759 158.025 85.3559C158.025 84.2359 158.291 83.2349 158.823 82.3529C159.355 81.4709 160.09 80.7849 161.028 80.2949C161.98 79.7909 163.051 79.5389 164.241 79.5389C165.431 79.5389 166.495 79.7909 167.433 80.2949C168.371 80.7849 169.106 81.4709 169.638 82.3529C170.17 83.2349 170.436 84.2359 170.436 85.3559C170.436 86.4759 170.17 87.4769 169.638 88.3589C169.106 89.2409 168.371 89.9339 167.433 90.4379C166.495 90.9279 165.431 91.1729 164.241 91.1729ZM164.241 88.4849C165.081 88.4849 165.767 88.2049 166.299 87.6449C166.845 87.0709 167.118 86.3079 167.118 85.3559C167.118 84.4039 166.845 83.6479 166.299 83.0879C165.767 82.5139 165.081 82.2269 164.241 82.2269C163.401 82.2269 162.708 82.5139 162.162 83.0879C161.616 83.6479 161.343 84.4039 161.343 85.3559C161.343 86.3079 161.616 87.0709 162.162 87.6449C162.708 88.2049 163.401 88.4849 164.241 88.4849ZM179.22 80.4839C180.298 80.4839 181.243 80.7079 182.055 81.1559C182.867 81.5899 183.49 82.2059 183.924 83.0039C184.372 83.8019 184.596 84.7259 184.596 85.7759C184.596 86.8539 184.33 87.8129 183.798 88.6529C183.28 89.4789 182.552 90.1229 181.614 90.5849C180.676 91.0329 179.612 91.2569 178.422 91.2569C176.448 91.2569 174.894 90.6269 173.76 89.3669C172.64 88.0929 172.08 86.2309 172.08 83.7809C172.08 81.5129 172.57 79.7069 173.55 78.3629C174.544 77.0049 176.063 76.1159 178.107 75.6959L183.483 74.6249L183.924 77.4389L179.178 78.3839C177.89 78.6359 176.931 79.0559 176.301 79.6439C175.685 80.2319 175.321 81.0649 175.209 82.1429C175.699 81.6109 176.287 81.2049 176.973 80.9249C177.659 80.6309 178.408 80.4839 179.22 80.4839ZM178.443 88.7159C179.283 88.7159 179.955 88.4429 180.459 87.8969C180.977 87.3509 181.236 86.6579 181.236 85.8179C181.236 84.9639 180.977 84.2849 180.459 83.7809C179.955 83.2769 179.283 83.0249 178.443 83.0249C177.589 83.0249 176.903 83.2769 176.385 83.7809C175.867 84.2849 175.608 84.9639 175.608 85.8179C175.608 86.6719 175.874 87.3719 176.406 87.9179C176.938 88.4499 177.617 88.7159 178.443 88.7159ZM192.195 91.1729C190.991 91.1729 189.906 90.9279 188.94 90.4379C187.988 89.9339 187.239 89.2409 186.693 88.3589C186.161 87.4769 185.895 86.4759 185.895 85.3559C185.895 84.2359 186.161 83.2349 186.693 82.3529C187.239 81.4709 187.988 80.7849 188.94 80.2949C189.906 79.7909 190.991 79.5389 192.195 79.5389C193.385 79.5389 194.421 79.7909 195.303 80.2949C196.199 80.7849 196.85 81.4919 197.256 82.4159L194.715 83.7809C194.127 82.7449 193.28 82.2269 192.174 82.2269C191.32 82.2269 190.613 82.5069 190.053 83.0669C189.493 83.6269 189.213 84.3899 189.213 85.3559C189.213 86.3219 189.493 87.0849 190.053 87.6449C190.613 88.2049 191.32 88.4849 192.174 88.4849C193.294 88.4849 194.141 87.9669 194.715 86.9309L197.256 88.3169C196.85 89.2129 196.199 89.9129 195.303 90.4169C194.421 90.9209 193.385 91.1729 192.195 91.1729ZM208.698 82.3949H204.876V91.0049H201.621V82.3949H197.799V79.7069H208.698V82.3949ZM219.075 85.1039C220.405 85.5519 221.07 86.4479 221.07 87.7919C221.07 88.8139 220.685 89.6049 219.915 90.1649C219.145 90.7249 217.997 91.0049 216.471 91.0049H210.444V79.7069H216.219C217.633 79.7069 218.739 79.9659 219.537 80.4839C220.335 80.9879 220.734 81.7019 220.734 82.6259C220.734 83.1859 220.587 83.6829 220.293 84.1169C220.013 84.5369 219.607 84.8659 219.075 85.1039ZM213.447 84.3479H215.925C217.073 84.3479 217.647 83.9419 217.647 83.1299C217.647 82.3319 217.073 81.9329 215.925 81.9329H213.447V84.3479ZM216.198 88.7789C217.402 88.7789 218.004 88.3659 218.004 87.5399C218.004 87.1059 217.864 86.7909 217.584 86.5949C217.304 86.3849 216.863 86.2799 216.261 86.2799H213.447V88.7789H216.198ZM234.491 85.3979C234.491 85.4399 234.47 85.7339 234.428 86.2799H225.881C226.035 86.9799 226.399 87.5329 226.973 87.9389C227.547 88.3449 228.261 88.5479 229.115 88.5479C229.703 88.5479 230.221 88.4639 230.669 88.2959C231.131 88.1139 231.558 87.8339 231.95 87.4559L233.693 89.3459C232.629 90.5639 231.075 91.1729 229.031 91.1729C227.757 91.1729 226.63 90.9279 225.65 90.4379C224.67 89.9339 223.914 89.2409 223.382 88.3589C222.85 87.4769 222.584 86.4759 222.584 85.3559C222.584 84.2499 222.843 83.2559 223.361 82.3739C223.893 81.4779 224.614 80.7849 225.524 80.2949C226.448 79.7909 227.477 79.5389 228.611 79.5389C229.717 79.5389 230.718 79.7769 231.614 80.2529C232.51 80.7289 233.21 81.4149 233.714 82.3109C234.232 83.1929 234.491 84.2219 234.491 85.3979ZM228.632 82.0169C227.89 82.0169 227.267 82.2269 226.763 82.6469C226.259 83.0669 225.951 83.6409 225.839 84.3689H231.404C231.292 83.6549 230.984 83.0879 230.48 82.6679C229.976 82.2339 229.36 82.0169 228.632 82.0169ZM237.002 79.7069H240.257V84.1169H245.171V79.7069H248.447V91.0049H245.171V86.7839H240.257V91.0049H237.002V79.7069ZM251.583 79.7069H254.838V84.1169H259.752V79.7069H263.028V91.0049H259.752V86.7839H254.838V91.0049H251.583V79.7069ZM270.553 79.5389C272.303 79.5389 273.647 79.9589 274.585 80.7989C275.523 81.6249 275.992 82.8779 275.992 84.5579V91.0049H272.926V89.5979C272.31 90.6479 271.162 91.1729 269.482 91.1729C268.614 91.1729 267.858 91.0259 267.214 90.7319C266.584 90.4379 266.101 90.0319 265.765 89.5139C265.429 88.9959 265.261 88.4079 265.261 87.7499C265.261 86.6999 265.653 85.8739 266.437 85.2719C267.235 84.6699 268.46 84.3689 270.112 84.3689H272.716C272.716 83.6549 272.499 83.1089 272.065 82.7309C271.631 82.3389 270.98 82.1429 270.112 82.1429C269.51 82.1429 268.915 82.2409 268.327 82.4369C267.753 82.6189 267.263 82.8709 266.857 83.1929L265.681 80.9039C266.297 80.4699 267.032 80.1339 267.886 79.8959C268.754 79.6579 269.643 79.5389 270.553 79.5389ZM270.301 88.9679C270.861 88.9679 271.358 88.8419 271.792 88.5899C272.226 88.3239 272.534 87.9389 272.716 87.4349V86.2799H270.469C269.125 86.2799 268.453 86.7209 268.453 87.6029C268.453 88.0229 268.614 88.3589 268.936 88.6109C269.272 88.8489 269.727 88.9679 270.301 88.9679ZM288.876 79.7069V91.0049H285.957V87.7709H283.542L281.4 91.0049H277.914L280.497 87.3089C279.713 87.0009 279.111 86.5599 278.691 85.9859C278.285 85.3979 278.082 84.6909 278.082 83.8649C278.082 82.5349 278.558 81.5129 279.51 80.7989C280.476 80.0709 281.799 79.7069 283.479 79.7069H288.876ZM283.542 82.3739C282.842 82.3739 282.31 82.4999 281.946 82.7519C281.596 83.0039 281.421 83.4099 281.421 83.9699C281.421 84.5299 281.589 84.9429 281.925 85.2089C282.275 85.4609 282.8 85.5869 283.5 85.5869H285.957V82.3739H283.542ZM308.808 79.7069V91.0049H305.532V82.3949H301.962L301.857 84.3899C301.801 85.8739 301.661 87.1059 301.437 88.0859C301.213 89.0659 300.849 89.8359 300.345 90.3959C299.841 90.9559 299.141 91.2359 298.245 91.2359C297.769 91.2359 297.202 91.1519 296.544 90.9839L296.712 88.2959C296.936 88.3239 297.097 88.3379 297.195 88.3379C297.685 88.3379 298.049 88.1629 298.287 87.8129C298.539 87.4489 298.707 86.9939 298.791 86.4479C298.875 85.8879 298.938 85.1529 298.98 84.2429L299.148 79.7069H308.808ZM316.347 79.5389C318.097 79.5389 319.441 79.9589 320.379 80.7989C321.317 81.6249 321.786 82.8779 321.786 84.5579V91.0049H318.72V89.5979C318.104 90.6479 316.956 91.1729 315.276 91.1729C314.408 91.1729 313.652 91.0259 313.008 90.7319C312.378 90.4379 311.895 90.0319 311.559 89.5139C311.223 88.9959 311.055 88.4079 311.055 87.7499C311.055 86.6999 311.447 85.8739 312.231 85.2719C313.029 84.6699 314.254 84.3689 315.906 84.3689H318.51C318.51 83.6549 318.293 83.1089 317.859 82.7309C317.425 82.3389 316.774 82.1429 315.906 82.1429C315.304 82.1429 314.709 82.2409 314.121 82.4369C313.547 82.6189 313.057 82.8709 312.651 83.1929L311.475 80.9039C312.091 80.4699 312.826 80.1339 313.68 79.8959C314.548 79.6579 315.437 79.5389 316.347 79.5389ZM316.095 88.9679C316.655 88.9679 317.152 88.8419 317.586 88.5899C318.02 88.3239 318.328 87.9389 318.51 87.4349V86.2799H316.263C314.919 86.2799 314.247 86.7209 314.247 87.6029C314.247 88.0229 314.408 88.3589 314.73 88.6109C315.066 88.8489 315.521 88.9679 316.095 88.9679ZM331.163 80.4839C332.241 80.4839 333.186 80.7079 333.998 81.1559C334.81 81.5899 335.433 82.2059 335.867 83.0039C336.315 83.8019 336.539 84.7259 336.539 85.7759C336.539 86.8539 336.273 87.8129 335.741 88.6529C335.223 89.4789 334.495 90.1229 333.557 90.5849C332.619 91.0329 331.555 91.2569 330.365 91.2569C328.391 91.2569 326.837 90.6269 325.703 89.3669C324.583 88.0929 324.023 86.2309 324.023 83.7809C324.023 81.5129 324.513 79.7069 325.493 78.3629C326.487 77.0049 328.006 76.1159 330.05 75.6959L335.426 74.6249L335.867 77.4389L331.121 78.3839C329.833 78.6359 328.874 79.0559 328.244 79.6439C327.628 80.2319 327.264 81.0649 327.152 82.1429C327.642 81.6109 328.23 81.2049 328.916 80.9249C329.602 80.6309 330.351 80.4839 331.163 80.4839ZM330.386 88.7159C331.226 88.7159 331.898 88.4429 332.402 87.8969C332.92 87.3509 333.179 86.6579 333.179 85.8179C333.179 84.9639 332.92 84.2849 332.402 83.7809C331.898 83.2769 331.226 83.0249 330.386 83.0249C329.532 83.0249 328.846 83.2769 328.328 83.7809C327.81 84.2849 327.551 84.9639 327.551 85.8179C327.551 86.6719 327.817 87.3719 328.349 87.9179C328.881 88.4499 329.56 88.7159 330.386 88.7159ZM344.054 91.1729C342.864 91.1729 341.793 90.9279 340.841 90.4379C339.903 89.9339 339.168 89.2409 338.636 88.3589C338.104 87.4769 337.838 86.4759 337.838 85.3559C337.838 84.2359 338.104 83.2349 338.636 82.3529C339.168 81.4709 339.903 80.7849 340.841 80.2949C341.793 79.7909 342.864 79.5389 344.054 79.5389C345.244 79.5389 346.308 79.7909 347.246 80.2949C348.184 80.7849 348.919 81.4709 349.451 82.3529C349.983 83.2349 350.249 84.2359 350.249 85.3559C350.249 86.4759 349.983 87.4769 349.451 88.3589C348.919 89.2409 348.184 89.9339 347.246 90.4379C346.308 90.9279 345.244 91.1729 344.054 91.1729ZM344.054 88.4849C344.894 88.4849 345.58 88.2049 346.112 87.6449C346.658 87.0709 346.931 86.3079 346.931 85.3559C346.931 84.4039 346.658 83.6479 346.112 83.0879C345.58 82.5139 344.894 82.2269 344.054 82.2269C343.214 82.2269 342.521 82.5139 341.975 83.0879C341.429 83.6479 341.156 84.4039 341.156 85.3559C341.156 86.3079 341.429 87.0709 341.975 87.6449C342.521 88.2049 343.214 88.4849 344.054 88.4849ZM359.159 79.5389C360.209 79.5389 361.161 79.7839 362.015 80.2739C362.883 80.7499 363.562 81.4289 364.052 82.3109C364.542 83.1789 364.787 84.1939 364.787 85.3559C364.787 86.5179 364.542 87.5399 364.052 88.4219C363.562 89.2899 362.883 89.9689 362.015 90.4589C361.161 90.9349 360.209 91.1729 359.159 91.1729C357.717 91.1729 356.583 90.7179 355.757 89.8079V95.0789H352.481V79.7069H355.61V81.0089C356.422 80.0289 357.605 79.5389 359.159 79.5389ZM358.592 88.4849C359.432 88.4849 360.118 88.2049 360.65 87.6449C361.196 87.0709 361.469 86.3079 361.469 85.3559C361.469 84.4039 361.196 83.6479 360.65 83.0879C360.118 82.5139 359.432 82.2269 358.592 82.2269C357.752 82.2269 357.059 82.5139 356.513 83.0879C355.981 83.6479 355.715 84.4039 355.715 85.3559C355.715 86.3079 355.981 87.0709 356.513 87.6449C357.059 88.2049 357.752 88.4849 358.592 88.4849ZM371.287 79.5389C373.037 79.5389 374.381 79.9589 375.319 80.7989C376.257 81.6249 376.726 82.8779 376.726 84.5579V91.0049H373.66V89.5979C373.044 90.6479 371.896 91.1729 370.216 91.1729C369.348 91.1729 368.592 91.0259 367.948 90.7319C367.318 90.4379 366.835 90.0319 366.499 89.5139C366.163 88.9959 365.995 88.4079 365.995 87.7499C365.995 86.6999 366.387 85.8739 367.171 85.2719C367.969 84.6699 369.194 84.3689 370.846 84.3689H373.45C373.45 83.6549 373.233 83.1089 372.799 82.7309C372.365 82.3389 371.714 82.1429 370.846 82.1429C370.244 82.1429 369.649 82.2409 369.061 82.4369C368.487 82.6189 367.997 82.8709 367.591 83.1929L366.415 80.9039C367.031 80.4699 367.766 80.1339 368.62 79.8959C369.488 79.6579 370.377 79.5389 371.287 79.5389ZM371.035 88.9679C371.595 88.9679 372.092 88.8419 372.526 88.5899C372.96 88.3239 373.268 87.9389 373.45 87.4349V86.2799H371.203C369.859 86.2799 369.187 86.7209 369.187 87.6029C369.187 88.0229 369.348 88.3589 369.67 88.6109C370.006 88.8489 370.461 88.9679 371.035 88.9679ZM389.064 82.3949H385.242V91.0049H381.987V82.3949H378.165V79.7069H389.064V82.3949ZM395.631 91.1729C394.441 91.1729 393.37 90.9279 392.418 90.4379C391.48 89.9339 390.745 89.2409 390.213 88.3589C389.681 87.4769 389.415 86.4759 389.415 85.3559C389.415 84.2359 389.681 83.2349 390.213 82.3529C390.745 81.4709 391.48 80.7849 392.418 80.2949C393.37 79.7909 394.441 79.5389 395.631 79.5389C396.821 79.5389 397.885 79.7909 398.823 80.2949C399.761 80.7849 400.496 81.4709 401.028 82.3529C401.56 83.2349 401.826 84.2359 401.826 85.3559C401.826 86.4759 401.56 87.4769 401.028 88.3589C400.496 89.2409 399.761 89.9339 398.823 90.4379C397.885 90.9279 396.821 91.1729 395.631 91.1729ZM395.631 88.4849C396.471 88.4849 397.157 88.2049 397.689 87.6449C398.235 87.0709 398.508 86.3079 398.508 85.3559C398.508 84.4039 398.235 83.6479 397.689 83.0879C397.157 82.5139 396.471 82.2269 395.631 82.2269C394.791 82.2269 394.098 82.5139 393.552 83.0879C393.006 83.6479 392.733 84.4039 392.733 85.3559C392.733 86.3079 393.006 87.0709 393.552 87.6449C394.098 88.2049 394.791 88.4849 395.631 88.4849ZM410.736 79.5389C411.786 79.5389 412.738 79.7839 413.592 80.2739C414.46 80.7499 415.139 81.4289 415.629 82.3109C416.119 83.1789 416.364 84.1939 416.364 85.3559C416.364 86.5179 416.119 87.5399 415.629 88.4219C415.139 89.2899 414.46 89.9689 413.592 90.4589C412.738 90.9349 411.786 91.1729 410.736 91.1729C409.294 91.1729 408.16 90.7179 407.334 89.8079V95.0789H404.058V79.7069H407.187V81.0089C407.999 80.0289 409.182 79.5389 410.736 79.5389ZM410.169 88.4849C411.009 88.4849 411.695 88.2049 412.227 87.6449C412.773 87.0709 413.046 86.3079 413.046 85.3559C413.046 84.4039 412.773 83.6479 412.227 83.0879C411.695 82.5139 411.009 82.2269 410.169 82.2269C409.329 82.2269 408.636 82.5139 408.09 83.0879C407.558 83.6479 407.292 84.4039 407.292 85.3559C407.292 86.3079 407.558 87.0709 408.09 87.6449C408.636 88.2049 409.329 88.4849 410.169 88.4849ZM418.66 79.7069H421.915V86.4269L427.417 79.7069H430.42V91.0049H427.165V84.2849L421.684 91.0049H418.66V79.7069ZM443.607 79.7069V91.0049H440.688V87.7709H438.273L436.131 91.0049H432.645L435.228 87.3089C434.444 87.0009 433.842 86.5599 433.422 85.9859C433.016 85.3979 432.813 84.6909 432.813 83.8649C432.813 82.5349 433.289 81.5129 434.241 80.7989C435.207 80.0709 436.53 79.7069 438.21 79.7069H443.607ZM438.273 82.3739C437.573 82.3739 437.041 82.4999 436.677 82.7519C436.327 83.0039 436.152 83.4099 436.152 83.9699C436.152 84.5299 436.32 84.9429 436.656 85.2089C437.006 85.4609 437.531 85.5869 438.231 85.5869H440.688V82.3739H438.273Z" fill="white"/>
<defs>
<clipPath id="clip0">
<rect width="77.5349" height="75.3315" fill="white" transform="translate(30.7069 29.834)"/>
</clipPath>
</defs>
</svg>
