<svg width="645" height="135" viewBox="0 0 645 135" fill="none" xmlns="http://www.w3.org/2000/svg">
<rect x="31" y="17" width="614" height="106" fill="#3E4671"/>
<path d="M133.711 67.5C133.711 103.665 104.236 133 67.8555 133C31.4746 133 2 103.665 2 67.5C2 31.3352 31.4746 2 67.8555 2C104.236 2 133.711 31.3352 133.711 67.5Z" fill="white" stroke="#3E4671" stroke-width="4"/>
<path d="M67.4826 36.8965C66.0117 36.8965 64.5501 37.3908 63.291 38.2948L59.3936 41.0162L54.9031 41.6047H54.8302L54.7572 41.6777C53.2845 42.0104 51.9362 42.7537 50.8685 43.8216C49.8009 44.8895 49.0578 46.2381 48.7252 47.7113L48.6546 47.7842V47.8572L48.0662 52.4195L45.3455 55.9506L45.2702 56.0236V56.0966C43.6251 58.7261 43.5522 62.1208 45.3455 64.6302L48.1392 68.5286L48.8758 72.5777L41.2999 84.1246L38.8734 87.7311H50.1255L52.8462 94.0566L54.5383 98.1033L56.9648 94.4238L64.3925 83.2418C66.3882 84.0611 68.6405 84.1364 70.5728 83.2418L78.0004 94.4238L80.4269 98.1033L82.1191 94.0566L84.8397 87.7311H96.0918L93.6653 84.1246L86.3106 72.945L86.899 68.531L89.6197 64.6326L89.695 64.5596V64.4866C91.3401 61.8571 91.413 58.5355 89.6197 56.026L86.899 52.1252L86.0165 47.7113H86.0894C86.08 47.6548 86.0259 47.6171 86.0165 47.563C85.5928 44.4838 83.1569 41.9837 80.0597 41.6047H79.9844L75.5716 41.0162L71.6742 38.2948C70.457 37.4029 68.9914 36.914 67.4826 36.8965ZM67.4826 41.6777C68.0239 41.6777 68.5582 41.8425 68.9536 42.1203L73.1451 45.1359L73.6606 45.5031L74.2489 45.5784L79.3984 46.3129H79.469C80.5281 46.4306 81.2624 47.1675 81.3824 48.2268V48.3728L82.3403 53.5965L82.4109 54.1121L82.7804 54.5523L85.7952 58.745C86.3577 59.5265 86.4307 60.8519 85.7223 61.9819L82.4132 66.6171L82.3379 67.2056L81.6036 72.3564V72.4271C81.5645 72.795 81.4386 73.1483 81.2365 73.4582L81.0882 73.5335V73.6041C80.7385 74.0243 80.2368 74.2892 79.6926 74.3409H79.5443L74.176 75.2991L73.5876 75.3697L73.1451 75.7393L68.9536 78.7549C68.1722 79.3175 66.7742 79.3905 65.6445 78.6819L61.8201 75.7393L61.3776 75.372L60.7163 75.2967L55.5668 74.5622H55.4962C55.1634 74.5328 54.8426 74.4238 54.5608 74.2444C54.279 74.0649 54.0444 73.8203 53.877 73.5311C53.7206 73.2596 53.6206 72.9594 53.5828 72.6483V72.5024L52.6273 67.1327L52.552 66.5441L52.1848 66.1016L49.17 61.9089C48.6075 61.1273 48.5345 59.729 49.243 58.599L52.1848 54.7736L52.552 54.331L52.6249 53.6695L53.2886 48.74C53.298 48.7047 53.3522 48.7047 53.3616 48.667C53.5083 48.1003 53.8039 47.5832 54.2177 47.1693C54.6316 46.7554 55.1485 46.4597 55.7151 46.3129C55.7527 46.3035 55.7527 46.2494 55.788 46.2399L60.7163 45.5761L61.3047 45.5055L61.8201 45.1359L66.0117 42.1203C66.4071 41.8448 66.9413 41.6777 67.4826 41.6777ZM83.7359 77.5049L87.3415 83.0229H81.6742L81.0859 84.4942L79.469 88.2443L74.4678 80.5935L75.5693 79.786L80.2057 78.9762V79.0492C80.2598 79.0397 80.2951 78.9856 80.3516 78.9762C81.5903 78.7974 82.7582 78.2893 83.7336 77.5049H83.7359ZM51.2293 77.5778C52.2513 78.5072 53.5351 79.0983 54.9055 79.2704H54.9784L59.4666 79.859L60.4951 80.6688L55.4939 88.2443L53.877 84.4942L53.2886 83.0229H47.6261L51.2293 77.5778Z" fill="#3E4671"/>
<path d="M149.709 55.5616C148.211 55.5616 146.853 55.2396 145.635 54.5956C144.431 53.9376 143.479 53.0346 142.779 51.8866C142.093 50.7246 141.75 49.4156 141.75 47.9596C141.75 46.5036 142.093 45.2016 142.779 44.0536C143.479 42.8916 144.431 41.9886 145.635 41.3446C146.853 40.6866 148.218 40.3576 149.73 40.3576C151.004 40.3576 152.152 40.5816 153.174 41.0296C154.21 41.4776 155.078 42.1216 155.778 42.9616L153.594 44.9776C152.6 43.8296 151.368 43.2556 149.898 43.2556C148.988 43.2556 148.176 43.4586 147.462 43.8646C146.748 44.2566 146.188 44.8096 145.782 45.5236C145.39 46.2376 145.194 47.0496 145.194 47.9596C145.194 48.8696 145.39 49.6816 145.782 50.3956C146.188 51.1096 146.748 51.6696 147.462 52.0756C148.176 52.4676 148.988 52.6636 149.898 52.6636C151.368 52.6636 152.6 52.0826 153.594 50.9206L155.778 52.9366C155.078 53.7906 154.21 54.4416 153.174 54.8896C152.138 55.3376 150.983 55.5616 149.709 55.5616ZM168.336 49.7026C168.336 49.7446 168.315 50.0386 168.273 50.5846H159.726C159.88 51.2846 160.244 51.8376 160.818 52.2436C161.392 52.6496 162.106 52.8526 162.96 52.8526C163.548 52.8526 164.066 52.7686 164.514 52.6006C164.976 52.4186 165.403 52.1386 165.795 51.7606L167.538 53.6506C166.474 54.8686 164.92 55.4776 162.876 55.4776C161.602 55.4776 160.475 55.2326 159.495 54.7426C158.515 54.2386 157.759 53.5456 157.227 52.6636C156.695 51.7816 156.429 50.7806 156.429 49.6606C156.429 48.5546 156.688 47.5606 157.206 46.6786C157.738 45.7826 158.459 45.0896 159.369 44.5996C160.293 44.0956 161.322 43.8436 162.456 43.8436C163.562 43.8436 164.563 44.0816 165.459 44.5576C166.355 45.0336 167.055 45.7196 167.559 46.6156C168.077 47.4976 168.336 48.5266 168.336 49.7026ZM162.477 46.3216C161.735 46.3216 161.112 46.5316 160.608 46.9516C160.104 47.3716 159.796 47.9456 159.684 48.6736H165.249C165.137 47.9596 164.829 47.3926 164.325 46.9726C163.821 46.5386 163.205 46.3216 162.477 46.3216ZM177.504 43.8436C178.554 43.8436 179.506 44.0886 180.36 44.5786C181.228 45.0546 181.907 45.7336 182.397 46.6156C182.887 47.4836 183.132 48.4986 183.132 49.6606C183.132 50.8226 182.887 51.8446 182.397 52.7266C181.907 53.5946 181.228 54.2736 180.36 54.7636C179.506 55.2396 178.554 55.4776 177.504 55.4776C176.062 55.4776 174.928 55.0226 174.102 54.1126V59.3836H170.826V44.0116H173.955V45.3136C174.767 44.3336 175.95 43.8436 177.504 43.8436ZM176.937 52.7896C177.777 52.7896 178.463 52.5096 178.995 51.9496C179.541 51.3756 179.814 50.6126 179.814 49.6606C179.814 48.7086 179.541 47.9526 178.995 47.3926C178.463 46.8186 177.777 46.5316 176.937 46.5316C176.097 46.5316 175.404 46.8186 174.858 47.3926C174.326 47.9526 174.06 48.7086 174.06 49.6606C174.06 50.6126 174.326 51.3756 174.858 51.9496C175.404 52.5096 176.097 52.7896 176.937 52.7896ZM194.51 46.6996H190.688V55.3096H187.433V46.6996H183.611V44.0116H194.51V46.6996ZM196.257 44.0116H199.512V50.7316L205.014 44.0116H208.017V55.3096H204.762V48.5896L199.281 55.3096H196.257V44.0116ZM226.769 49.6186C226.769 51.3686 226.181 52.7546 225.005 53.7766C223.843 54.7846 222.177 55.3656 220.007 55.5196V59.3836H217.004V55.5196C214.834 55.3656 213.161 54.7916 211.985 53.7976C210.823 52.7896 210.242 51.3966 210.242 49.6186C210.242 47.8686 210.816 46.5106 211.964 45.5446C213.126 44.5786 214.806 44.0186 217.004 43.8646V39.7276H220.007V43.8646C222.177 44.0186 223.843 44.5856 225.005 45.5656C226.181 46.5456 226.769 47.8966 226.769 49.6186ZM213.413 49.6186C213.413 50.6266 213.7 51.4036 214.274 51.9496C214.848 52.4956 215.758 52.8386 217.004 52.9786V46.4056C215.758 46.5316 214.848 46.8606 214.274 47.3926C213.7 47.9106 213.413 48.6526 213.413 49.6186ZM220.007 52.9786C221.253 52.8386 222.163 52.4956 222.737 51.9496C223.325 51.4036 223.619 50.6266 223.619 49.6186C223.619 48.6526 223.325 47.9106 222.737 47.3926C222.163 46.8606 221.253 46.5316 220.007 46.4056V52.9786ZM228.966 44.0116H232.242V55.3096H228.966V44.0116ZM230.604 42.4366C230.002 42.4366 229.512 42.2616 229.134 41.9116C228.756 41.5616 228.567 41.1276 228.567 40.6096C228.567 40.0916 228.756 39.6576 229.134 39.3076C229.512 38.9576 230.002 38.7826 230.604 38.7826C231.206 38.7826 231.696 38.9506 232.074 39.2866C232.452 39.6226 232.641 40.0426 232.641 40.5466C232.641 41.0926 232.452 41.5476 232.074 41.9116C231.696 42.2616 231.206 42.4366 230.604 42.4366ZM240.362 51.0256H238.661V55.3096H235.385V44.0116H238.661V48.4006H240.425L243.491 44.0116H246.977L243.029 49.4296L247.25 55.3096H243.386L240.362 51.0256ZM253.043 43.8436C254.793 43.8436 256.137 44.2636 257.075 45.1036C258.013 45.9296 258.482 47.1826 258.482 48.8626V55.3096H255.416V53.9026C254.8 54.9526 253.652 55.4776 251.972 55.4776C251.104 55.4776 250.348 55.3306 249.704 55.0366C249.074 54.7426 248.591 54.3366 248.255 53.8186C247.919 53.3006 247.751 52.7126 247.751 52.0546C247.751 51.0046 248.143 50.1786 248.927 49.5766C249.725 48.9746 250.95 48.6736 252.602 48.6736H255.206C255.206 47.9596 254.989 47.4136 254.555 47.0356C254.121 46.6436 253.47 46.4476 252.602 46.4476C252 46.4476 251.405 46.5456 250.817 46.7416C250.243 46.9236 249.753 47.1756 249.347 47.4976L248.171 45.2086C248.787 44.7746 249.522 44.4386 250.376 44.2006C251.244 43.9626 252.133 43.8436 253.043 43.8436ZM252.791 53.2726C253.351 53.2726 253.848 53.1466 254.282 52.8946C254.716 52.6286 255.024 52.2436 255.206 51.7396V50.5846H252.959C251.615 50.5846 250.943 51.0256 250.943 51.9076C250.943 52.3276 251.104 52.6636 251.426 52.9156C251.762 53.1536 252.217 53.2726 252.791 53.2726ZM274.054 52.6216V57.7876H271.009V55.3096H261.328V44.0116H264.583V52.6216H269.14V44.0116H272.416V52.6216H274.054ZM276.093 44.0116H279.369V55.3096H276.093V44.0116ZM277.731 42.4366C277.129 42.4366 276.639 42.2616 276.261 41.9116C275.883 41.5616 275.694 41.1276 275.694 40.6096C275.694 40.0916 275.883 39.6576 276.261 39.3076C276.639 38.9576 277.129 38.7826 277.731 38.7826C278.333 38.7826 278.823 38.9506 279.201 39.2866C279.579 39.6226 279.768 40.0426 279.768 40.5466C279.768 41.0926 279.579 41.5476 279.201 41.9116C278.823 42.2616 278.333 42.4366 277.731 42.4366ZM292.55 44.0116V55.3096H289.631V52.0756H287.216L285.074 55.3096H281.588L284.171 51.6136C283.387 51.3056 282.785 50.8646 282.365 50.2906C281.959 49.7026 281.756 48.9956 281.756 48.1696C281.756 46.8396 282.232 45.8176 283.184 45.1036C284.15 44.3756 285.473 44.0116 287.153 44.0116H292.55ZM287.216 46.6786C286.516 46.6786 285.984 46.8046 285.62 47.0566C285.27 47.3086 285.095 47.7146 285.095 48.2746C285.095 48.8346 285.263 49.2476 285.599 49.5136C285.949 49.7656 286.474 49.8916 287.174 49.8916H289.631V46.6786H287.216ZM308.975 49.4296C309.647 49.6396 310.165 49.9616 310.529 50.3956C310.907 50.8296 311.096 51.3476 311.096 51.9496C311.096 52.6636 310.851 53.2936 310.361 53.8396C309.871 54.3716 309.199 54.7846 308.345 55.0786C307.491 55.3726 306.525 55.5196 305.447 55.5196C304.565 55.5196 303.697 55.4286 302.843 55.2466C301.989 55.0646 301.198 54.7916 300.47 54.4276L301.352 52.1386C302.542 52.7126 303.858 52.9996 305.3 52.9996C306.07 52.9996 306.672 52.8876 307.106 52.6636C307.554 52.4256 307.778 52.0966 307.778 51.6766C307.778 51.3126 307.624 51.0396 307.316 50.8576C307.008 50.6616 306.56 50.5636 305.972 50.5636H303.662V48.5266H305.678C306.252 48.5266 306.693 48.4356 307.001 48.2536C307.309 48.0716 307.463 47.8056 307.463 47.4556C307.463 47.0916 307.267 46.8116 306.875 46.6156C306.497 46.4196 305.951 46.3216 305.237 46.3216C304.145 46.3216 302.955 46.5806 301.667 47.0986L300.869 44.8306C302.437 44.1446 303.963 43.8016 305.447 43.8016C306.469 43.8016 307.379 43.9276 308.177 44.1796C308.989 44.4316 309.626 44.8026 310.088 45.2926C310.55 45.7686 310.781 46.3286 310.781 46.9726C310.781 47.5046 310.62 47.9876 310.298 48.4216C309.976 48.8416 309.535 49.1776 308.975 49.4296ZM322.53 46.6996H316.734V55.3096H313.479V44.0116H322.53V46.6996ZM324.245 44.0116H327.521V55.3096H324.245V44.0116ZM325.883 42.4366C325.281 42.4366 324.791 42.2616 324.413 41.9116C324.035 41.5616 323.846 41.1276 323.846 40.6096C323.846 40.0916 324.035 39.6576 324.413 39.3076C324.791 38.9576 325.281 38.7826 325.883 38.7826C326.485 38.7826 326.975 38.9506 327.353 39.2866C327.731 39.6226 327.92 40.0426 327.92 40.5466C327.92 41.0926 327.731 41.5476 327.353 41.9116C326.975 42.2616 326.485 42.4366 325.883 42.4366ZM343.328 52.6216V57.7456H340.283V55.3096H332.345V57.7456H329.3V52.6216H329.762C330.462 52.6076 330.945 52.1946 331.211 51.3826C331.477 50.5706 331.645 49.4156 331.715 47.9176L331.862 44.0116H341.711V52.6216H343.328ZM334.676 48.1486C334.634 49.2966 334.543 50.2346 334.403 50.9626C334.277 51.6906 334.032 52.2436 333.668 52.6216H338.435V46.6996H334.739L334.676 48.1486ZM345.389 44.0116H348.644V48.4216H353.558V44.0116H356.834V55.3096H353.558V51.0886H348.644V55.3096H345.389V44.0116ZM365.262 55.4776C364.072 55.4776 363.001 55.2326 362.049 54.7426C361.111 54.2386 360.376 53.5456 359.844 52.6636C359.312 51.7816 359.046 50.7806 359.046 49.6606C359.046 48.5406 359.312 47.5396 359.844 46.6576C360.376 45.7756 361.111 45.0896 362.049 44.5996C363.001 44.0956 364.072 43.8436 365.262 43.8436C366.452 43.8436 367.516 44.0956 368.454 44.5996C369.392 45.0896 370.127 45.7756 370.659 46.6576C371.191 47.5396 371.457 48.5406 371.457 49.6606C371.457 50.7806 371.191 51.7816 370.659 52.6636C370.127 53.5456 369.392 54.2386 368.454 54.7426C367.516 55.2326 366.452 55.4776 365.262 55.4776ZM365.262 52.7896C366.102 52.7896 366.788 52.5096 367.32 51.9496C367.866 51.3756 368.139 50.6126 368.139 49.6606C368.139 48.7086 367.866 47.9526 367.32 47.3926C366.788 46.8186 366.102 46.5316 365.262 46.5316C364.422 46.5316 363.729 46.8186 363.183 47.3926C362.637 47.9526 362.364 48.7086 362.364 49.6606C362.364 50.6126 362.637 51.3756 363.183 51.9496C363.729 52.5096 364.422 52.7896 365.262 52.7896ZM385.034 55.4776C383.83 55.4776 382.745 55.2326 381.779 54.7426C380.827 54.2386 380.078 53.5456 379.532 52.6636C379 51.7816 378.734 50.7806 378.734 49.6606C378.734 48.5406 379 47.5396 379.532 46.6576C380.078 45.7756 380.827 45.0896 381.779 44.5996C382.745 44.0956 383.83 43.8436 385.034 43.8436C386.224 43.8436 387.26 44.0956 388.142 44.5996C389.038 45.0896 389.689 45.7966 390.095 46.7206L387.554 48.0856C386.966 47.0496 386.119 46.5316 385.013 46.5316C384.159 46.5316 383.452 46.8116 382.892 47.3716C382.332 47.9316 382.052 48.6946 382.052 49.6606C382.052 50.6266 382.332 51.3896 382.892 51.9496C383.452 52.5096 384.159 52.7896 385.013 52.7896C386.133 52.7896 386.98 52.2716 387.554 51.2356L390.095 52.6216C389.689 53.5176 389.038 54.2176 388.142 54.7216C387.26 55.2256 386.224 55.4776 385.034 55.4776ZM401.537 46.6996H397.715V55.3096H394.46V46.6996H390.638V44.0116H401.537V46.6996ZM407.672 43.8436C409.422 43.8436 410.766 44.2636 411.704 45.1036C412.642 45.9296 413.111 47.1826 413.111 48.8626V55.3096H410.045V53.9026C409.429 54.9526 408.281 55.4776 406.601 55.4776C405.733 55.4776 404.977 55.3306 404.333 55.0366C403.703 54.7426 403.22 54.3366 402.884 53.8186C402.548 53.3006 402.38 52.7126 402.38 52.0546C402.38 51.0046 402.772 50.1786 403.556 49.5766C404.354 48.9746 405.579 48.6736 407.231 48.6736H409.835C409.835 47.9596 409.618 47.4136 409.184 47.0356C408.75 46.6436 408.099 46.4476 407.231 46.4476C406.629 46.4476 406.034 46.5456 405.446 46.7416C404.872 46.9236 404.382 47.1756 403.976 47.4976L402.8 45.2086C403.416 44.7746 404.151 44.4386 405.005 44.2006C405.873 43.9626 406.762 43.8436 407.672 43.8436ZM407.42 53.2726C407.98 53.2726 408.477 53.1466 408.911 52.8946C409.345 52.6286 409.653 52.2436 409.835 51.7396V50.5846H407.588C406.244 50.5846 405.572 51.0256 405.572 51.9076C405.572 52.3276 405.733 52.6636 406.055 52.9156C406.391 53.1536 406.846 53.2726 407.42 53.2726ZM415.957 44.0116H419.212V48.4216H424.126V44.0116H427.402V55.3096H424.126V51.0886H419.212V55.3096H415.957V44.0116ZM443.201 52.6216V57.7456H440.156V55.3096H432.218V57.7456H429.173V52.6216H429.635C430.335 52.6076 430.818 52.1946 431.084 51.3826C431.35 50.5706 431.518 49.4156 431.588 47.9176L431.735 44.0116H441.584V52.6216H443.201ZM434.549 48.1486C434.507 49.2966 434.416 50.2346 434.276 50.9626C434.15 51.6906 433.905 52.2436 433.541 52.6216H438.308V46.6996H434.612L434.549 48.1486ZM449.651 43.8436C451.401 43.8436 452.745 44.2636 453.683 45.1036C454.621 45.9296 455.09 47.1826 455.09 48.8626V55.3096H452.024V53.9026C451.408 54.9526 450.26 55.4776 448.58 55.4776C447.712 55.4776 446.956 55.3306 446.312 55.0366C445.682 54.7426 445.199 54.3366 444.863 53.8186C444.527 53.3006 444.359 52.7126 444.359 52.0546C444.359 51.0046 444.751 50.1786 445.535 49.5766C446.333 48.9746 447.558 48.6736 449.21 48.6736H451.814C451.814 47.9596 451.597 47.4136 451.163 47.0356C450.729 46.6436 450.078 46.4476 449.21 46.4476C448.608 46.4476 448.013 46.5456 447.425 46.7416C446.851 46.9236 446.361 47.1756 445.955 47.4976L444.779 45.2086C445.395 44.7746 446.13 44.4386 446.984 44.2006C447.852 43.9626 448.741 43.8436 449.651 43.8436ZM449.399 53.2726C449.959 53.2726 450.456 53.1466 450.89 52.8946C451.324 52.6286 451.632 52.2436 451.814 51.7396V50.5846H449.567C448.223 50.5846 447.551 51.0256 447.551 51.9076C447.551 52.3276 447.712 52.6636 448.034 52.9156C448.37 53.1536 448.825 53.2726 449.399 53.2726ZM464.593 43.8436C465.643 43.8436 466.595 44.0886 467.449 44.5786C468.317 45.0546 468.996 45.7336 469.486 46.6156C469.976 47.4836 470.221 48.4986 470.221 49.6606C470.221 50.8226 469.976 51.8446 469.486 52.7266C468.996 53.5946 468.317 54.2736 467.449 54.7636C466.595 55.2396 465.643 55.4776 464.593 55.4776C463.151 55.4776 462.017 55.0226 461.191 54.1126V59.3836H457.915V44.0116H461.044V45.3136C461.856 44.3336 463.039 43.8436 464.593 43.8436ZM464.026 52.7896C464.866 52.7896 465.552 52.5096 466.084 51.9496C466.63 51.3756 466.903 50.6126 466.903 49.6606C466.903 48.7086 466.63 47.9526 466.084 47.3926C465.552 46.8186 464.866 46.5316 464.026 46.5316C463.186 46.5316 462.493 46.8186 461.947 47.3926C461.415 47.9526 461.149 48.7086 461.149 49.6606C461.149 50.6126 461.415 51.3756 461.947 51.9496C462.493 52.5096 463.186 52.7896 464.026 52.7896ZM481.599 46.6996H477.777V55.3096H474.522V46.6996H470.7V44.0116H481.599V46.6996ZM483.324 44.0116H486.6V55.3096H483.324V44.0116ZM484.962 42.4366C484.36 42.4366 483.87 42.2616 483.492 41.9116C483.114 41.5616 482.925 41.1276 482.925 40.6096C482.925 40.0916 483.114 39.6576 483.492 39.3076C483.87 38.9576 484.36 38.7826 484.962 38.7826C485.564 38.7826 486.054 38.9506 486.432 39.2866C486.81 39.6226 486.999 40.0426 486.999 40.5466C486.999 41.0926 486.81 41.5476 486.432 41.9116C486.054 42.2616 485.564 42.4366 484.962 42.4366ZM498.375 49.4086C499.705 49.8566 500.37 50.7526 500.37 52.0966C500.37 53.1186 499.985 53.9096 499.215 54.4696C498.445 55.0296 497.297 55.3096 495.771 55.3096H489.744V44.0116H495.519C496.933 44.0116 498.039 44.2706 498.837 44.7886C499.635 45.2926 500.034 46.0066 500.034 46.9306C500.034 47.4906 499.887 47.9876 499.593 48.4216C499.313 48.8416 498.907 49.1706 498.375 49.4086ZM492.747 48.6526H495.225C496.373 48.6526 496.947 48.2466 496.947 47.4346C496.947 46.6366 496.373 46.2376 495.225 46.2376H492.747V48.6526ZM495.498 53.0836C496.702 53.0836 497.304 52.6706 497.304 51.8446C497.304 51.4106 497.164 51.0956 496.884 50.8996C496.604 50.6896 496.163 50.5846 495.561 50.5846H492.747V53.0836H495.498ZM508.923 40.6096H512.325V55.3096H508.923V40.6096ZM520.643 55.5616C519.481 55.5616 518.354 55.4076 517.262 55.0996C516.184 54.7776 515.316 54.3646 514.658 53.8606L515.813 51.2986C516.443 51.7606 517.192 52.1316 518.06 52.4116C518.928 52.6916 519.796 52.8316 520.664 52.8316C521.63 52.8316 522.344 52.6916 522.806 52.4116C523.268 52.1176 523.499 51.7326 523.499 51.2566C523.499 50.9066 523.359 50.6196 523.079 50.3956C522.813 50.1576 522.463 49.9686 522.029 49.8286C521.609 49.6886 521.035 49.5346 520.307 49.3666C519.187 49.1006 518.27 48.8346 517.556 48.5686C516.842 48.3026 516.226 47.8756 515.708 47.2876C515.204 46.6996 514.952 45.9156 514.952 44.9356C514.952 44.0816 515.183 43.3116 515.645 42.6256C516.107 41.9256 516.8 41.3726 517.724 40.9666C518.662 40.5606 519.803 40.3576 521.147 40.3576C522.085 40.3576 523.002 40.4696 523.898 40.6936C524.794 40.9176 525.578 41.2396 526.25 41.6596L525.2 44.2426C523.842 43.4726 522.484 43.0876 521.126 43.0876C520.174 43.0876 519.467 43.2416 519.005 43.5496C518.557 43.8576 518.333 44.2636 518.333 44.7676C518.333 45.2716 518.592 45.6496 519.11 45.9016C519.642 46.1396 520.447 46.3776 521.525 46.6156C522.645 46.8816 523.562 47.1476 524.276 47.4136C524.99 47.6796 525.599 48.0996 526.103 48.6736C526.621 49.2476 526.88 50.0246 526.88 51.0046C526.88 51.8446 526.642 52.6146 526.166 53.3146C525.704 54.0006 525.004 54.5466 524.066 54.9526C523.128 55.3586 521.987 55.5616 520.643 55.5616ZM536.324 55.5616C534.798 55.5616 533.419 55.2326 532.187 54.5746C530.969 53.9166 530.01 53.0136 529.31 51.8656C528.624 50.7036 528.281 49.4016 528.281 47.9596C528.281 46.5176 528.624 45.2226 529.31 44.0746C530.01 42.9126 530.969 42.0026 532.187 41.3446C533.419 40.6866 534.798 40.3576 536.324 40.3576C537.85 40.3576 539.222 40.6866 540.44 41.3446C541.658 42.0026 542.617 42.9126 543.317 44.0746C544.017 45.2226 544.367 46.5176 544.367 47.9596C544.367 49.4016 544.017 50.7036 543.317 51.8656C542.617 53.0136 541.658 53.9166 540.44 54.5746C539.222 55.2326 537.85 55.5616 536.324 55.5616ZM536.324 52.6636C537.192 52.6636 537.976 52.4676 538.676 52.0756C539.376 51.6696 539.922 51.1096 540.314 50.3956C540.72 49.6816 540.923 48.8696 540.923 47.9596C540.923 47.0496 540.72 46.2376 540.314 45.5236C539.922 44.8096 539.376 44.2566 538.676 43.8646C537.976 43.4586 537.192 43.2556 536.324 43.2556C535.456 43.2556 534.672 43.4586 533.972 43.8646C533.272 44.2566 532.719 44.8096 532.313 45.5236C531.921 46.2376 531.725 47.0496 531.725 47.9596C531.725 48.8696 531.921 49.6816 532.313 50.3956C532.719 51.1096 533.272 51.6696 533.972 52.0756C534.672 52.4676 535.456 52.6636 536.324 52.6636ZM146.916 66.3576C148.974 66.3576 150.584 66.9876 151.746 68.2476C152.908 69.4936 153.489 71.2926 153.489 73.6446C153.489 75.3106 153.174 76.7386 152.544 77.9286C151.928 79.1186 151.053 80.0216 149.919 80.6376C148.785 81.2536 147.476 81.5616 145.992 81.5616C145.208 81.5616 144.459 81.4776 143.745 81.3096C143.031 81.1276 142.422 80.8756 141.918 80.5536L143.178 78.0546C143.892 78.5446 144.809 78.7896 145.929 78.7896C147.175 78.7896 148.162 78.4256 148.89 77.6976C149.618 76.9556 150.01 75.8916 150.066 74.5056C149.184 75.3876 147.966 75.8286 146.412 75.8286C145.474 75.8286 144.62 75.6396 143.85 75.2616C143.08 74.8836 142.471 74.3516 142.023 73.6656C141.575 72.9656 141.351 72.1606 141.351 71.2506C141.351 70.2706 141.596 69.4096 142.086 68.6676C142.576 67.9256 143.241 67.3586 144.081 66.9666C144.935 66.5606 145.88 66.3576 146.916 66.3576ZM147.168 73.2876C147.91 73.2876 148.512 73.0846 148.974 72.6786C149.45 72.2586 149.688 71.7266 149.688 71.0826C149.688 70.4386 149.457 69.9136 148.995 69.5076C148.547 69.1016 147.924 68.8986 147.126 68.8986C146.398 68.8986 145.803 69.0946 145.341 69.4866C144.893 69.8786 144.669 70.4106 144.669 71.0826C144.669 71.7546 144.893 72.2936 145.341 72.6996C145.803 73.0916 146.412 73.2876 147.168 73.2876ZM161.421 81.5616C160.203 81.5616 159.118 81.2606 158.166 80.6586C157.214 80.0566 156.465 79.1886 155.919 78.0546C155.387 76.9066 155.121 75.5416 155.121 73.9596C155.121 72.3776 155.387 71.0196 155.919 69.8856C156.465 68.7376 157.214 67.8626 158.166 67.2606C159.118 66.6586 160.203 66.3576 161.421 66.3576C162.639 66.3576 163.724 66.6586 164.676 67.2606C165.628 67.8626 166.37 68.7376 166.902 69.8856C167.448 71.0196 167.721 72.3776 167.721 73.9596C167.721 75.5416 167.448 76.9066 166.902 78.0546C166.37 79.1886 165.628 80.0566 164.676 80.6586C163.724 81.2606 162.639 81.5616 161.421 81.5616ZM161.421 78.6846C162.317 78.6846 163.017 78.2996 163.521 77.5296C164.039 76.7596 164.298 75.5696 164.298 73.9596C164.298 72.3496 164.039 71.1596 163.521 70.3896C163.017 69.6196 162.317 69.2346 161.421 69.2346C160.539 69.2346 159.839 69.6196 159.321 70.3896C158.817 71.1596 158.565 72.3496 158.565 73.9596C158.565 75.5696 158.817 76.7596 159.321 77.5296C159.839 78.2996 160.539 78.6846 161.421 78.6846ZM175.674 81.5616C174.456 81.5616 173.371 81.2606 172.419 80.6586C171.467 80.0566 170.718 79.1886 170.172 78.0546C169.64 76.9066 169.374 75.5416 169.374 73.9596C169.374 72.3776 169.64 71.0196 170.172 69.8856C170.718 68.7376 171.467 67.8626 172.419 67.2606C173.371 66.6586 174.456 66.3576 175.674 66.3576C176.892 66.3576 177.977 66.6586 178.929 67.2606C179.881 67.8626 180.623 68.7376 181.155 69.8856C181.701 71.0196 181.974 72.3776 181.974 73.9596C181.974 75.5416 181.701 76.9066 181.155 78.0546C180.623 79.1886 179.881 80.0566 178.929 80.6586C177.977 81.2606 176.892 81.5616 175.674 81.5616ZM175.674 78.6846C176.57 78.6846 177.27 78.2996 177.774 77.5296C178.292 76.7596 178.551 75.5696 178.551 73.9596C178.551 72.3496 178.292 71.1596 177.774 70.3896C177.27 69.6196 176.57 69.2346 175.674 69.2346C174.792 69.2346 174.092 69.6196 173.574 70.3896C173.07 71.1596 172.818 72.3496 172.818 73.9596C172.818 75.5696 173.07 76.7596 173.574 77.5296C174.092 78.2996 174.792 78.6846 175.674 78.6846ZM189.173 66.6096V81.3096H185.771V69.3396H182.831V66.6096H189.173ZM193.659 73.9386C193.085 73.9386 192.602 73.7426 192.21 73.3506C191.818 72.9586 191.622 72.4686 191.622 71.8806C191.622 71.2786 191.818 70.7956 192.21 70.4316C192.602 70.0536 193.085 69.8646 193.659 69.8646C194.233 69.8646 194.716 70.0536 195.108 70.4316C195.5 70.7956 195.696 71.2786 195.696 71.8806C195.696 72.4686 195.5 72.9586 195.108 73.3506C194.716 73.7426 194.233 73.9386 193.659 73.9386ZM193.659 81.4776C193.085 81.4776 192.602 81.2816 192.21 80.8896C191.818 80.4976 191.622 80.0076 191.622 79.4196C191.622 78.8176 191.818 78.3346 192.21 77.9706C192.602 77.5926 193.085 77.4036 193.659 77.4036C194.233 77.4036 194.716 77.5926 195.108 77.9706C195.5 78.3346 195.696 78.8176 195.696 79.4196C195.696 80.0076 195.5 80.4976 195.108 80.8896C194.716 81.2816 194.233 81.4776 193.659 81.4776ZM208.206 78.5376V81.3096H197.097V79.1046L202.767 73.7496C203.369 73.1756 203.775 72.6856 203.985 72.2796C204.195 71.8596 204.3 71.4466 204.3 71.0406C204.3 70.4526 204.097 70.0046 203.691 69.6966C203.299 69.3746 202.718 69.2136 201.948 69.2136C201.304 69.2136 200.723 69.3396 200.205 69.5916C199.687 69.8296 199.253 70.1936 198.903 70.6836L196.425 69.0876C196.999 68.2336 197.79 67.5686 198.798 67.0926C199.806 66.6026 200.961 66.3576 202.263 66.3576C203.355 66.3576 204.307 66.5396 205.119 66.9036C205.945 67.2536 206.582 67.7576 207.03 68.4156C207.492 69.0596 207.723 69.8226 207.723 70.7046C207.723 71.5026 207.555 72.2516 207.219 72.9516C206.883 73.6516 206.232 74.4496 205.266 75.3456L201.885 78.5376H208.206ZM215.869 81.5616C214.651 81.5616 213.566 81.2606 212.614 80.6586C211.662 80.0566 210.913 79.1886 210.367 78.0546C209.835 76.9066 209.569 75.5416 209.569 73.9596C209.569 72.3776 209.835 71.0196 210.367 69.8856C210.913 68.7376 211.662 67.8626 212.614 67.2606C213.566 66.6586 214.651 66.3576 215.869 66.3576C217.087 66.3576 218.172 66.6586 219.124 67.2606C220.076 67.8626 220.818 68.7376 221.35 69.8856C221.896 71.0196 222.169 72.3776 222.169 73.9596C222.169 75.5416 221.896 76.9066 221.35 78.0546C220.818 79.1886 220.076 80.0566 219.124 80.6586C218.172 81.2606 217.087 81.5616 215.869 81.5616ZM215.869 78.6846C216.765 78.6846 217.465 78.2996 217.969 77.5296C218.487 76.7596 218.746 75.5696 218.746 73.9596C218.746 72.3496 218.487 71.1596 217.969 70.3896C217.465 69.6196 216.765 69.2346 215.869 69.2346C214.987 69.2346 214.287 69.6196 213.769 70.3896C213.265 71.1596 213.013 72.3496 213.013 73.9596C213.013 75.5696 213.265 76.7596 213.769 77.5296C214.287 78.2996 214.987 78.6846 215.869 78.6846ZM229.369 66.6096V81.3096H225.967V69.3396H223.027V66.6096H229.369ZM236.962 72.1326C239.034 72.1326 240.56 72.5456 241.54 73.3716C242.534 74.1976 243.031 75.3036 243.031 76.6896C243.031 77.5856 242.807 78.4046 242.359 79.1466C241.911 79.8746 241.225 80.4626 240.301 80.9106C239.391 81.3446 238.264 81.5616 236.92 81.5616C235.884 81.5616 234.862 81.4286 233.854 81.1626C232.86 80.8826 232.013 80.4906 231.313 79.9866L232.657 77.3826C233.217 77.8026 233.861 78.1316 234.589 78.3696C235.317 78.5936 236.066 78.7056 236.836 78.7056C237.69 78.7056 238.362 78.5376 238.852 78.2016C239.342 77.8656 239.587 77.3966 239.587 76.7946C239.587 76.1646 239.328 75.6886 238.81 75.3666C238.306 75.0446 237.424 74.8836 236.164 74.8836H232.405L233.161 66.6096H242.128V69.3396H235.996L235.765 72.1326H236.962ZM246.365 77.4036C246.953 77.4036 247.436 77.5926 247.814 77.9706C248.192 78.3346 248.381 78.8176 248.381 79.4196C248.381 79.6996 248.346 79.9796 248.276 80.2596C248.206 80.5396 248.052 80.9596 247.814 81.5196L246.617 84.5436H244.538L245.462 81.2046C245.112 81.0646 244.832 80.8406 244.622 80.5326C244.426 80.2106 244.328 79.8396 244.328 79.4196C244.328 78.8176 244.517 78.3346 244.895 77.9706C245.287 77.5926 245.777 77.4036 246.365 77.4036ZM266.712 73.7286H269.82V79.6926C269.022 80.2946 268.098 80.7566 267.048 81.0786C265.998 81.4006 264.941 81.5616 263.877 81.5616C262.351 81.5616 260.979 81.2396 259.761 80.5956C258.543 79.9376 257.584 79.0346 256.884 77.8866C256.198 76.7246 255.855 75.4156 255.855 73.9596C255.855 72.5036 256.198 71.2016 256.884 70.0536C257.584 68.8916 258.55 67.9886 259.782 67.3446C261.014 66.6866 262.4 66.3576 263.94 66.3576C265.228 66.3576 266.397 66.5746 267.447 67.0086C268.497 67.4426 269.379 68.0726 270.093 68.8986L267.909 70.9146C266.859 69.8086 265.592 69.2556 264.108 69.2556C263.17 69.2556 262.337 69.4516 261.609 69.8436C260.881 70.2356 260.314 70.7886 259.908 71.5026C259.502 72.2166 259.299 73.0356 259.299 73.9596C259.299 74.8696 259.502 75.6816 259.908 76.3956C260.314 77.1096 260.874 77.6696 261.588 78.0756C262.316 78.4676 263.142 78.6636 264.066 78.6636C265.046 78.6636 265.928 78.4536 266.712 78.0336V73.7286ZM282.661 78.1596H275.836L274.534 81.3096H271.048L277.6 66.6096H280.96L287.533 81.3096H283.963L282.661 78.1596ZM281.59 75.5766L279.259 69.9486L276.928 75.5766H281.59ZM292.46 69.3396V73.2246H299.264V75.9546H292.46V81.3096H289.058V66.6096H300.167V69.3396H292.46ZM305.618 69.3816H300.914V66.6096H313.724V69.3816H309.02V81.3096H305.618V69.3816ZM324.497 78.1596H317.672L316.37 81.3096H312.884L319.436 66.6096H322.796L329.369 81.3096H325.799L324.497 78.1596ZM323.426 75.5766L321.095 69.9486L318.764 75.5766H323.426ZM332.6 77.4036C333.188 77.4036 333.671 77.5926 334.049 77.9706C334.427 78.3346 334.616 78.8176 334.616 79.4196C334.616 79.6996 334.581 79.9796 334.511 80.2596C334.441 80.5396 334.287 80.9596 334.049 81.5196L332.852 84.5436H330.773L331.697 81.2046C331.347 81.0646 331.067 80.8406 330.857 80.5326C330.661 80.2106 330.563 79.8396 330.563 79.4196C330.563 78.8176 330.752 78.3346 331.13 77.9706C331.522 77.5926 332.012 77.4036 332.6 77.4036ZM346.416 69.3396V73.2246H353.22V75.9546H346.416V81.3096H343.014V66.6096H354.123V69.3396H346.416ZM363.402 81.5616C361.876 81.5616 360.497 81.2326 359.265 80.5746C358.047 79.9166 357.088 79.0136 356.388 77.8656C355.702 76.7036 355.359 75.4016 355.359 73.9596C355.359 72.5176 355.702 71.2226 356.388 70.0746C357.088 68.9126 358.047 68.0026 359.265 67.3446C360.497 66.6866 361.876 66.3576 363.402 66.3576C364.928 66.3576 366.3 66.6866 367.518 67.3446C368.736 68.0026 369.695 68.9126 370.395 70.0746C371.095 71.2226 371.445 72.5176 371.445 73.9596C371.445 75.4016 371.095 76.7036 370.395 77.8656C369.695 79.0136 368.736 79.9166 367.518 80.5746C366.3 81.2326 364.928 81.5616 363.402 81.5616ZM363.402 78.6636C364.27 78.6636 365.054 78.4676 365.754 78.0756C366.454 77.6696 367 77.1096 367.392 76.3956C367.798 75.6816 368.001 74.8696 368.001 73.9596C368.001 73.0496 367.798 72.2376 367.392 71.5236C367 70.8096 366.454 70.2566 365.754 69.8646C365.054 69.4586 364.27 69.2556 363.402 69.2556C362.534 69.2556 361.75 69.4586 361.05 69.8646C360.35 70.2566 359.797 70.8096 359.391 71.5236C358.999 72.2376 358.803 73.0496 358.803 73.9596C358.803 74.8696 358.999 75.6816 359.391 76.3956C359.797 77.1096 360.35 77.6696 361.05 78.0756C361.75 78.4676 362.534 78.6636 363.402 78.6636ZM378.832 81.5616C377.67 81.5616 376.543 81.4076 375.451 81.0996C374.373 80.7776 373.505 80.3646 372.847 79.8606L374.002 77.2986C374.632 77.7606 375.381 78.1316 376.249 78.4116C377.117 78.6916 377.985 78.8316 378.853 78.8316C379.819 78.8316 380.533 78.6916 380.995 78.4116C381.457 78.1176 381.688 77.7326 381.688 77.2566C381.688 76.9066 381.548 76.6196 381.268 76.3956C381.002 76.1576 380.652 75.9686 380.218 75.8286C379.798 75.6886 379.224 75.5346 378.496 75.3666C377.376 75.1006 376.459 74.8346 375.745 74.5686C375.031 74.3026 374.415 73.8756 373.897 73.2876C373.393 72.6996 373.141 71.9156 373.141 70.9356C373.141 70.0816 373.372 69.3116 373.834 68.6256C374.296 67.9256 374.989 67.3726 375.913 66.9666C376.851 66.5606 377.992 66.3576 379.336 66.3576C380.274 66.3576 381.191 66.4696 382.087 66.6936C382.983 66.9176 383.767 67.2396 384.439 67.6596L383.389 70.2426C382.031 69.4726 380.673 69.0876 379.315 69.0876C378.363 69.0876 377.656 69.2416 377.194 69.5496C376.746 69.8576 376.522 70.2636 376.522 70.7676C376.522 71.2716 376.781 71.6496 377.299 71.9016C377.831 72.1396 378.636 72.3776 379.714 72.6156C380.834 72.8816 381.751 73.1476 382.465 73.4136C383.179 73.6796 383.788 74.0996 384.292 74.6736C384.81 75.2476 385.069 76.0246 385.069 77.0046C385.069 77.8446 384.831 78.6146 384.355 79.3146C383.893 80.0006 383.193 80.5466 382.255 80.9526C381.317 81.3586 380.176 81.5616 378.832 81.5616ZM390.795 69.3396V73.2246H397.599V75.9546H390.795V81.3096H387.393V66.6096H398.502V69.3396H390.795ZM409.871 78.1596H403.046L401.744 81.3096H398.258L404.81 66.6096H408.17L414.743 81.3096H411.173L409.871 78.1596ZM408.8 75.5766L406.469 69.9486L404.138 75.5766H408.8ZM417.974 77.4036C418.562 77.4036 419.045 77.5926 419.423 77.9706C419.801 78.3346 419.99 78.8176 419.99 79.4196C419.99 79.6996 419.955 79.9796 419.885 80.2596C419.815 80.5396 419.661 80.9596 419.423 81.5196L418.226 84.5436H416.147L417.071 81.2046C416.721 81.0646 416.441 80.8406 416.231 80.5326C416.035 80.2106 415.937 79.8396 415.937 79.4196C415.937 78.8176 416.126 78.3346 416.504 77.9706C416.896 77.5926 417.386 77.4036 417.974 77.4036ZM438.384 70.0116V81.3096H435.108V77.1096C434.156 77.5856 433.106 77.8236 431.958 77.8236C430.432 77.8236 429.277 77.4806 428.493 76.7946C427.723 76.0946 427.338 75.0166 427.338 73.5606V70.0116H430.614V73.3506C430.614 74.0366 430.789 74.5336 431.139 74.8416C431.503 75.1496 432.021 75.3036 432.693 75.3036C433.547 75.3036 434.352 75.1216 435.108 74.7576V70.0116H438.384ZM452.366 70.0116V81.3096H449.09V72.6996H445.52L445.415 74.6946C445.359 76.1786 445.219 77.4106 444.995 78.3906C444.771 79.3706 444.407 80.1406 443.903 80.7006C443.399 81.2606 442.699 81.5406 441.803 81.5406C441.327 81.5406 440.76 81.4566 440.102 81.2886L440.27 78.6006C440.494 78.6286 440.655 78.6426 440.753 78.6426C441.243 78.6426 441.607 78.4676 441.845 78.1176C442.097 77.7536 442.265 77.2986 442.349 76.7526C442.433 76.1926 442.496 75.4576 442.538 74.5476L442.706 70.0116H452.366ZM466.499 75.7026C466.499 75.7446 466.478 76.0386 466.436 76.5846H457.889C458.043 77.2846 458.407 77.8376 458.981 78.2436C459.555 78.6496 460.269 78.8526 461.123 78.8526C461.711 78.8526 462.229 78.7686 462.677 78.6006C463.139 78.4186 463.566 78.1386 463.958 77.7606L465.701 79.6506C464.637 80.8686 463.083 81.4776 461.039 81.4776C459.765 81.4776 458.638 81.2326 457.658 80.7426C456.678 80.2386 455.922 79.5456 455.39 78.6636C454.858 77.7816 454.592 76.7806 454.592 75.6606C454.592 74.5546 454.851 73.5606 455.369 72.6786C455.901 71.7826 456.622 71.0896 457.532 70.5996C458.456 70.0956 459.485 69.8436 460.619 69.8436C461.725 69.8436 462.726 70.0816 463.622 70.5576C464.518 71.0336 465.218 71.7196 465.722 72.6156C466.24 73.4976 466.499 74.5266 466.499 75.7026ZM460.64 72.3216C459.898 72.3216 459.275 72.5316 458.771 72.9516C458.267 73.3716 457.959 73.9456 457.847 74.6736H463.412C463.3 73.9596 462.992 73.3926 462.488 72.9726C461.984 72.5386 461.368 72.3216 460.64 72.3216ZM469.01 70.0116H472.265V74.4216H477.179V70.0116H480.455V81.3096H477.179V77.0886H472.265V81.3096H469.01V70.0116ZM488.967 81.4776C487.763 81.4776 486.678 81.2326 485.712 80.7426C484.76 80.2386 484.011 79.5456 483.465 78.6636C482.933 77.7816 482.667 76.7806 482.667 75.6606C482.667 74.5406 482.933 73.5396 483.465 72.6576C484.011 71.7756 484.76 71.0896 485.712 70.5996C486.678 70.0956 487.763 69.8436 488.967 69.8436C490.157 69.8436 491.193 70.0956 492.075 70.5996C492.971 71.0896 493.622 71.7966 494.028 72.7206L491.487 74.0856C490.899 73.0496 490.052 72.5316 488.946 72.5316C488.092 72.5316 487.385 72.8116 486.825 73.3716C486.265 73.9316 485.985 74.6946 485.985 75.6606C485.985 76.6266 486.265 77.3896 486.825 77.9496C487.385 78.5096 488.092 78.7896 488.946 78.7896C490.066 78.7896 490.913 78.2716 491.487 77.2356L494.028 78.6216C493.622 79.5176 492.971 80.2176 492.075 80.7216C491.193 81.2256 490.157 81.4776 488.967 81.4776ZM505.47 72.6996H501.648V81.3096H498.393V72.6996H494.571V70.0116H505.47V72.6996ZM515.847 75.4086C517.177 75.8566 517.842 76.7526 517.842 78.0966C517.842 79.1186 517.457 79.9096 516.687 80.4696C515.917 81.0296 514.769 81.3096 513.243 81.3096H507.216V70.0116H512.991C514.405 70.0116 515.511 70.2706 516.309 70.7886C517.107 71.2926 517.506 72.0066 517.506 72.9306C517.506 73.4906 517.359 73.9876 517.065 74.4216C516.785 74.8416 516.379 75.1706 515.847 75.4086ZM510.219 74.6526H512.697C513.845 74.6526 514.419 74.2466 514.419 73.4346C514.419 72.6366 513.845 72.2376 512.697 72.2376H510.219V74.6526ZM512.97 79.0836C514.174 79.0836 514.776 78.6706 514.776 77.8446C514.776 77.4106 514.636 77.0956 514.356 76.8996C514.076 76.6896 513.635 76.5846 513.033 76.5846H510.219V79.0836H512.97ZM525.572 81.4776C524.382 81.4776 523.311 81.2326 522.359 80.7426C521.421 80.2386 520.686 79.5456 520.154 78.6636C519.622 77.7816 519.356 76.7806 519.356 75.6606C519.356 74.5406 519.622 73.5396 520.154 72.6576C520.686 71.7756 521.421 71.0896 522.359 70.5996C523.311 70.0956 524.382 69.8436 525.572 69.8436C526.762 69.8436 527.826 70.0956 528.764 70.5996C529.702 71.0896 530.437 71.7756 530.969 72.6576C531.501 73.5396 531.767 74.5406 531.767 75.6606C531.767 76.7806 531.501 77.7816 530.969 78.6636C530.437 79.5456 529.702 80.2386 528.764 80.7426C527.826 81.2326 526.762 81.4776 525.572 81.4776ZM525.572 78.7896C526.412 78.7896 527.098 78.5096 527.63 77.9496C528.176 77.3756 528.449 76.6126 528.449 75.6606C528.449 74.7086 528.176 73.9526 527.63 73.3926C527.098 72.8186 526.412 72.5316 525.572 72.5316C524.732 72.5316 524.039 72.8186 523.493 73.3926C522.947 73.9526 522.674 74.7086 522.674 75.6606C522.674 76.6126 522.947 77.3756 523.493 77.9496C524.039 78.5096 524.732 78.7896 525.572 78.7896ZM548.598 75.4086C549.928 75.8566 550.593 76.7526 550.593 78.0966C550.593 79.1186 550.208 79.9096 549.438 80.4696C548.668 81.0296 547.52 81.3096 545.994 81.3096H539.967V70.0116H545.742C547.156 70.0116 548.262 70.2706 549.06 70.7886C549.858 71.2926 550.257 72.0066 550.257 72.9306C550.257 73.4906 550.11 73.9876 549.816 74.4216C549.536 74.8416 549.13 75.1706 548.598 75.4086ZM542.97 74.6526H545.448C546.596 74.6526 547.17 74.2466 547.17 73.4346C547.17 72.6366 546.596 72.2376 545.448 72.2376H542.97V74.6526ZM545.721 79.0836C546.925 79.0836 547.527 78.6706 547.527 77.8446C547.527 77.4106 547.387 77.0956 547.107 76.8996C546.827 76.6896 546.386 76.5846 545.784 76.5846H542.97V79.0836H545.721ZM562.191 69.3816H557.487V66.6096H570.297V69.3816H565.593V81.3096H562.191V69.3816ZM572.128 66.6096H575.53V81.3096H572.128V66.6096ZM586.053 81.5616C584.555 81.5616 583.197 81.2396 581.979 80.5956C580.775 79.9376 579.823 79.0346 579.123 77.8866C578.437 76.7246 578.094 75.4156 578.094 73.9596C578.094 72.5036 578.437 71.2016 579.123 70.0536C579.823 68.8916 580.775 67.9886 581.979 67.3446C583.197 66.6866 584.562 66.3576 586.074 66.3576C587.348 66.3576 588.496 66.5816 589.518 67.0296C590.554 67.4776 591.422 68.1216 592.122 68.9616L589.938 70.9776C588.944 69.8296 587.712 69.2556 586.242 69.2556C585.332 69.2556 584.52 69.4586 583.806 69.8646C583.092 70.2566 582.532 70.8096 582.126 71.5236C581.734 72.2376 581.538 73.0496 581.538 73.9596C581.538 74.8696 581.734 75.6816 582.126 76.3956C582.532 77.1096 583.092 77.6696 583.806 78.0756C584.52 78.4676 585.332 78.6636 586.242 78.6636C587.712 78.6636 588.944 78.0826 589.938 76.9206L592.122 78.9366C591.422 79.7906 590.554 80.4416 589.518 80.8896C588.482 81.3376 587.327 81.5616 586.053 81.5616ZM149.709 107.562C148.211 107.562 146.853 107.24 145.635 106.596C144.431 105.938 143.479 105.035 142.779 103.887C142.093 102.725 141.75 101.416 141.75 99.9596C141.75 98.5036 142.093 97.2016 142.779 96.0536C143.479 94.8916 144.431 93.9886 145.635 93.3446C146.853 92.6866 148.218 92.3576 149.73 92.3576C151.004 92.3576 152.152 92.5816 153.174 93.0296C154.21 93.4776 155.078 94.1216 155.778 94.9616L153.594 96.9776C152.6 95.8296 151.368 95.2556 149.898 95.2556C148.988 95.2556 148.176 95.4586 147.462 95.8646C146.748 96.2566 146.188 96.8096 145.782 97.5236C145.39 98.2376 145.194 99.0496 145.194 99.9596C145.194 100.87 145.39 101.682 145.782 102.396C146.188 103.11 146.748 103.67 147.462 104.076C148.176 104.468 148.988 104.664 149.898 104.664C151.368 104.664 152.6 104.083 153.594 102.921L155.778 104.937C155.078 105.791 154.21 106.442 153.174 106.89C152.138 107.338 150.983 107.562 149.709 107.562ZM162.83 107.478C161.64 107.478 160.569 107.233 159.617 106.743C158.679 106.239 157.944 105.546 157.412 104.664C156.88 103.782 156.614 102.781 156.614 101.661C156.614 100.541 156.88 99.5396 157.412 98.6576C157.944 97.7756 158.679 97.0896 159.617 96.5996C160.569 96.0956 161.64 95.8436 162.83 95.8436C164.02 95.8436 165.084 96.0956 166.022 96.5996C166.96 97.0896 167.695 97.7756 168.227 98.6576C168.759 99.5396 169.025 100.541 169.025 101.661C169.025 102.781 168.759 103.782 168.227 104.664C167.695 105.546 166.96 106.239 166.022 106.743C165.084 107.233 164.02 107.478 162.83 107.478ZM162.83 104.79C163.67 104.79 164.356 104.51 164.888 103.95C165.434 103.376 165.707 102.613 165.707 101.661C165.707 100.709 165.434 99.9526 164.888 99.3926C164.356 98.8186 163.67 98.5316 162.83 98.5316C161.99 98.5316 161.297 98.8186 160.751 99.3926C160.205 99.9526 159.932 100.709 159.932 101.661C159.932 102.613 160.205 103.376 160.751 103.95C161.297 104.51 161.99 104.79 162.83 104.79ZM182.597 96.0116V107.31H179.489V105.966C179.055 106.456 178.537 106.834 177.935 107.1C177.333 107.352 176.682 107.478 175.982 107.478C174.498 107.478 173.322 107.051 172.454 106.197C171.586 105.343 171.152 104.076 171.152 102.396V96.0116H174.428V101.913C174.428 103.733 175.191 104.643 176.717 104.643C177.501 104.643 178.131 104.391 178.607 103.887C179.083 103.369 179.321 102.606 179.321 101.598V96.0116H182.597ZM192.499 95.8436C193.899 95.8436 195.026 96.2636 195.88 97.1036C196.748 97.9436 197.182 99.1896 197.182 100.842V107.31H193.906V101.346C193.906 100.45 193.71 99.7846 193.318 99.3506C192.926 98.9026 192.359 98.6786 191.617 98.6786C190.791 98.6786 190.133 98.9376 189.643 99.4556C189.153 99.9596 188.908 100.716 188.908 101.724V107.31H185.632V96.0116H188.761V97.3346C189.195 96.8586 189.734 96.4946 190.378 96.2426C191.022 95.9766 191.729 95.8436 192.499 95.8436ZM205.735 107.478C204.531 107.478 203.446 107.233 202.48 106.743C201.528 106.239 200.779 105.546 200.233 104.664C199.701 103.782 199.435 102.781 199.435 101.661C199.435 100.541 199.701 99.5396 200.233 98.6576C200.779 97.7756 201.528 97.0896 202.48 96.5996C203.446 96.0956 204.531 95.8436 205.735 95.8436C206.925 95.8436 207.961 96.0956 208.843 96.5996C209.739 97.0896 210.39 97.7966 210.796 98.7206L208.255 100.086C207.667 99.0496 206.82 98.5316 205.714 98.5316C204.86 98.5316 204.153 98.8116 203.593 99.3716C203.033 99.9316 202.753 100.695 202.753 101.661C202.753 102.627 203.033 103.39 203.593 103.95C204.153 104.51 204.86 104.79 205.714 104.79C206.834 104.79 207.681 104.272 208.255 103.236L210.796 104.622C210.39 105.518 209.739 106.218 208.843 106.722C207.961 107.226 206.925 107.478 205.735 107.478ZM212.682 96.0116H215.958V107.31H212.682V96.0116ZM214.32 94.4366C213.718 94.4366 213.228 94.2616 212.85 93.9116C212.472 93.5616 212.283 93.1276 212.283 92.6096C212.283 92.0916 212.472 91.6576 212.85 91.3076C213.228 90.9576 213.718 90.7826 214.32 90.7826C214.922 90.7826 215.412 90.9506 215.79 91.2866C216.168 91.6226 216.357 92.0426 216.357 92.5466C216.357 93.0926 216.168 93.5476 215.79 93.9116C215.412 94.2616 214.922 94.4366 214.32 94.4366ZM218.998 91.7276H222.274V107.31H218.998V91.7276Z" fill="white"/>
</svg>
